<?xml version="1.0" encoding="UTF-8" standalone="no"?>
<!DOCTYPE svg PUBLIC "-//W3C//DTD SVG 1.0//EN" "http://www.w3.org/TR/2001/REC-SVG-20010904/DTD/svg10.dtd">
<!-- Generated by Microsoft Visio 11.0, SVG Export, v1.0 Drawing283.svg Page-1 -->
<svg xmlns="http://www.w3.org/2000/svg" xmlns:xlink="http://www.w3.org/1999/xlink" xmlns:ev="http://www.w3.org/2001/xml-events"
		xmlns:v="http://schemas.microsoft.com/visio/2003/SVGExtensions/" width="11in" height="8.5in" viewBox="0 0 792 612"
		xml:space="preserve" color-interpolation-filters="sRGB" class="st14">
	<v:documentProperties v:langID="1033" v:viewMarkup="false">
		<v:userDefs>
			<v:ud v:nameU="msvNoAutoConnect" v:val="VT0(0):26"/>
		</v:userDefs>
	</v:documentProperties>

	<style type="text/css">
	<![CDATA[
		.st1 {visibility:visible}
		.st2 {fill:#cdcdcd;fill-opacity:0.5;stroke:#cdcdcd;stroke-linecap:round;stroke-linejoin:round;stroke-opacity:0.5;stroke-width:0.25}
		.st3 {fill:url(#grad30-6);stroke:#404040;stroke-linecap:round;stroke-linejoin:round;stroke-width:0.25}
		.st4 {fill:url(#grad30-12);stroke:#404040;stroke-linecap:round;stroke-linejoin:round;stroke-width:0.25}
		.st5 {fill:none;stroke:none;stroke-linecap:round;stroke-linejoin:round;stroke-width:0.25}
		.st6 {fill:#000000;font-family:Calibri;font-size:1.00001em}
		.st7 {fill:url(#grad30-21);stroke:#404040;stroke-linecap:round;stroke-linejoin:round;stroke-width:0.25}
		.st8 {fill:url(#grad30-27);stroke:#404040;stroke-linecap:round;stroke-linejoin:round;stroke-width:0.25}
		.st9 {fill:#000000;font-family:Calibri;font-size:0.666664em}
		.st10 {font-size:1em}
		.st11 {fill:#000000;font-family:Calibri;font-size:0.833336em}
		.st12 {fill:url(#grad30-77);stroke:#404040;stroke-linecap:round;stroke-linejoin:round;stroke-width:0.25}
		.st13 {stroke:#404040;stroke-linecap:round;stroke-linejoin:round;stroke-width:1}
		.st14 {fill:none;fill-rule:evenodd;font-size:12px;overflow:visible;stroke-linecap:square;stroke-miterlimit:3}
	]]>
	</style>

	<defs id="Patterns_And_Gradients">
		<linearGradient id="grad30-6" v:fillPattern="30" v:foreground="#c9c9c9" v:background="#d8d8d8" x1="0" y1="1" x2="0" y2="0">
			<stop offset="0" style="stop-color:#c9c9c9;stop-opacity:1"/>
			<stop offset="1" style="stop-color:#d8d8d8;stop-opacity:1"/>
		</linearGradient>
		<linearGradient id="grad30-12" v:fillPattern="30" v:foreground="#e78636" v:background="#ea9651" x1="0" y1="1" x2="0" y2="0">
			<stop offset="0" style="stop-color:#e78636;stop-opacity:1"/>
			<stop offset="1" style="stop-color:#ea9651;stop-opacity:1"/>
		</linearGradient>
		<linearGradient id="grad30-21" v:fillPattern="30" v:foreground="#f0f0f0" v:background="#ffffff" x1="0" y1="1" x2="0" y2="0">
			<stop offset="0" style="stop-color:#f0f0f0;stop-opacity:1"/>
			<stop offset="1" style="stop-color:#ffffff;stop-opacity:1"/>
		</linearGradient>
		<linearGradient id="grad30-27" v:fillPattern="30" v:foreground="#717171" v:background="#7f7f7f" x1="0" y1="1" x2="0" y2="0">
			<stop offset="0" style="stop-color:#717171;stop-opacity:1"/>
			<stop offset="1" style="stop-color:#7f7f7f;stop-opacity:1"/>
		</linearGradient>
		<linearGradient id="grad30-77" v:fillPattern="30" v:foreground="#f2c59f" v:background="#f6d5b9" x1="0" y1="1" x2="0" y2="0">
			<stop offset="0" style="stop-color:#f2c59f;stop-opacity:1"/>
			<stop offset="1" style="stop-color:#f6d5b9;stop-opacity:1"/>
		</linearGradient>
	</defs>
	<g v:mID="0" v:index="1" v:groupContext="foregroundPage">
		<v:userDefs>
			<v:ud v:nameU="msvThemeColors" v:val="VT0(36):26"/>
			<v:ud v:nameU="msvThemeEffects" v:val="VT0(16):26"/>
			<v:ud v:nameU="msvThemeOrder" v:val="VT0(0):26"/>
		</v:userDefs>
		<title>Page-1</title>
		<v:pageProperties v:drawingScale="1" v:pageScale="1" v:drawingUnits="0" v:shadowOffsetX="9" v:shadowOffsetY="-9"/>
		<v:layer v:name="Connector" v:index="0"/>
		<g id="shape1-1" v:mID="1" v:groupContext="shape" transform="translate(197.719,-184.5)">
			<title>Rounded rectangle</title>
			<v:userDefs>
				<v:ud v:nameU="visVersion" v:val="VT0(14):26"/>
				<v:ud v:nameU="msvThemeColors" v:val="VT0(36):26"/>
				<v:ud v:nameU="msvThemeEffects" v:val="VT0(16):26"/>
			</v:userDefs>
			<g id="shadow1-2" v:groupContext="shadow" v:shadowOffsetX="1.44" v:shadowOffsetY="-1.44" v:shadowType="1"
					transform="matrix(1,0,0,1,1.44,1.44)" class="st1">
				<path d="M157.5 612 A9.00007 9.00007 -180 0 0 166.5 603 L166.5 378 A9.00007 9.00007 -180 0 0 157.5 369 L9 369 A9.00007
							 9.00007 -180 0 0 -0 378 L0 603 A9.00007 9.00007 -180 0 0 9 612 L157.5 612 Z" class="st2"/>
			</g>
			<path d="M157.5 612 A9.00007 9.00007 -180 0 0 166.5 603 L166.5 378 A9.00007 9.00007 -180 0 0 157.5 369 L9 369 A9.00007
						 9.00007 -180 0 0 -0 378 L0 603 A9.00007 9.00007 -180 0 0 9 612 L157.5 612 Z" class="st3"/>
		</g>
		<g id="shape2-7" v:mID="2" v:groupContext="shape" transform="translate(210.094,-337.5)">
			<title>Rectangle</title>
			<v:userDefs>
				<v:ud v:nameU="visVersion" v:val="VT0(14):26"/>
				<v:ud v:nameU="msvThemeColors" v:val="VT0(36):26"/>
				<v:ud v:nameU="msvThemeEffects" v:val="VT0(16):26"/>
			</v:userDefs>
			<g id="shadow2-8" v:groupContext="shadow" v:shadowOffsetX="1.44" v:shadowOffsetY="-1.44" v:shadowType="1"
					transform="matrix(1,0,0,1,1.44,1.44)" class="st1">
				<rect x="0" y="552.375" width="139.5" height="59.625" class="st2"/>
			</g>
			<rect x="0" y="552.375" width="139.5" height="59.625" class="st4"/>
		</g>
		<g id="shape3-13" v:mID="3" v:groupContext="shape" transform="translate(205.594,-410.063)">
			<title>Sheet.3</title>
			<desc>AllJoyn Service</desc>
			<v:userDefs>
				<v:ud v:nameU="msvThemeColors" v:val="VT0(36):26"/>
				<v:ud v:nameU="msvThemeEffects" v:val="VT0(16):26"/>
			</v:userDefs>
			<v:textBlock v:margins="rect(4,4,4,4)"/>
			<v:textRect cx="72" cy="604" width="144" height="16"/>
			<rect x="0" y="596" width="144" height="16" class="st5"/>
			<text x="36.03" y="607.6" class="st6" v:langID="1033"><v:paragraph v:horizAlign="1"/><v:tabList/>AllJoyn Service</text>		</g>
		<g id="shape4-16" v:mID="4" v:groupContext="shape" transform="translate(212.344,-253.688)">
			<title>Rectangle.4</title>
			<v:userDefs>
				<v:ud v:nameU="visVersion" v:val="VT0(14):26"/>
				<v:ud v:nameU="msvThemeColors" v:val="VT0(36):26"/>
				<v:ud v:nameU="msvThemeEffects" v:val="VT0(16):26"/>
			</v:userDefs>
			<g id="shadow4-17" v:groupContext="shadow" v:shadowOffsetX="1.44" v:shadowOffsetY="-1.44" v:shadowType="1"
					transform="matrix(1,0,0,1,1.44,1.44)" class="st1">
				<rect x="0" y="548.438" width="139.5" height="63.5625" class="st2"/>
			</g>
			<rect x="0" y="548.438" width="139.5" height="63.5625" class="st7"/>
		</g>
		<g id="shape5-22" v:mID="5" v:groupContext="shape" transform="translate(235.406,-342.563)">
			<title>Rectangle.5</title>
			<desc>About Interface</desc>
			<v:userDefs>
				<v:ud v:nameU="visVersion" v:val="VT0(14):26"/>
				<v:ud v:nameU="msvThemeColors" v:val="VT0(36):26"/>
				<v:ud v:nameU="msvThemeEffects" v:val="VT0(16):26"/>
			</v:userDefs>
			<v:textBlock v:margins="rect(4,4,4,4)"/>
			<v:textRect cx="19.9688" cy="601.594" width="39.94" height="20.8125"/>
			<g id="shadow5-23" v:groupContext="shadow" v:shadowOffsetX="1.44" v:shadowOffsetY="-1.44" v:shadowType="1"
					transform="matrix(1,0,0,1,1.44,1.44)" class="st1">
				<rect x="0" y="591.188" width="39.9375" height="20.8125" class="st2"/>
			</g>
			<rect x="0" y="591.188" width="39.9375" height="20.8125" class="st8"/>
			<text x="10" y="599.19" class="st9" v:langID="1033"><v:paragraph v:horizAlign="1"/><v:tabList/>About <tspan x="5.32"
						dy="1.2em" class="st10">Interface</tspan></text>		</g>
		<g id="shape6-30" v:mID="6" v:groupContext="shape" transform="translate(201.094,-370.125)">
			<title>Sheet.6</title>
			<desc>App</desc>
			<v:userDefs>
				<v:ud v:nameU="msvThemeColors" v:val="VT0(36):26"/>
				<v:ud v:nameU="msvThemeEffects" v:val="VT0(16):26"/>
			</v:userDefs>
			<v:textBlock v:margins="rect(4,4,4,4)"/>
			<v:textRect cx="49.5" cy="599" width="99" height="26"/>
			<rect x="0" y="586" width="99" height="26" class="st5"/>
			<text x="41.35" y="602" class="st11" v:langID="1033"><v:paragraph v:horizAlign="1"/><v:tabList/>App</text>		</g>
		<g id="shape7-33" v:mID="7" v:groupContext="shape" transform="translate(224.719,-257.625)">
			<title>Sheet.7</title>
			<desc>AllJoyn Platform</desc>
			<v:userDefs>
				<v:ud v:nameU="msvThemeColors" v:val="VT0(36):26"/>
				<v:ud v:nameU="msvThemeEffects" v:val="VT0(16):26"/>
			</v:userDefs>
			<v:textBlock v:margins="rect(4,4,4,4)"/>
			<v:textRect cx="49.5" cy="607.5" width="99" height="9"/>
			<rect x="0" y="603" width="99" height="9" class="st5"/>
			<text x="16.36" y="610.5" class="st11" v:langID="1033"><v:paragraph v:horizAlign="1"/><v:tabList/>AllJoyn Platform</text>		</g>
		<g id="shape8-36" v:mID="8" v:groupContext="shape" transform="translate(217.406,-272.25)">
			<title>Rectangle.11</title>
			<desc>AllJoyn Core</desc>
			<v:userDefs>
				<v:ud v:nameU="visVersion" v:val="VT0(14):26"/>
				<v:ud v:nameU="msvThemeColors" v:val="VT0(36):26"/>
				<v:ud v:nameU="msvThemeEffects" v:val="VT0(16):26"/>
			</v:userDefs>
			<v:textBlock v:margins="rect(4,4,4,4)"/>
			<v:textRect cx="61.245" cy="596.813" width="122.49" height="30.375"/>
			<g id="shadow8-37" v:groupContext="shadow" v:shadowOffsetX="1.44" v:shadowOffsetY="-1.44" v:shadowType="1"
					transform="matrix(1,0,0,1,1.44,1.44)" class="st1">
				<rect x="0" y="581.625" width="122.49" height="30.375" class="st2"/>
			</g>
			<rect x="0" y="581.625" width="122.49" height="30.375" class="st7"/>
			<text x="41.27" y="599.21" class="st9" v:langID="1033"><v:paragraph v:horizAlign="1"/><v:tabList/>AllJoyn Core</text>		</g>
		<g id="shape9-42" v:mID="9" v:groupContext="shape" transform="translate(427.781,-184.5)">
			<title>Rounded rectangle.7</title>
			<v:userDefs>
				<v:ud v:nameU="visVersion" v:val="VT0(14):26"/>
				<v:ud v:nameU="msvThemeColors" v:val="VT0(36):26"/>
				<v:ud v:nameU="msvThemeEffects" v:val="VT0(16):26"/>
			</v:userDefs>
			<g id="shadow9-43" v:groupContext="shadow" v:shadowOffsetX="1.44" v:shadowOffsetY="-1.44" v:shadowType="1"
					transform="matrix(1,0,0,1,1.44,1.44)" class="st1">
				<path d="M157.5 612 A9.00007 9.00007 -180 0 0 166.5 603 L166.5 378 A9.00007 9.00007 -180 0 0 157.5 369 L9 369 A9.00007
							 9.00007 -180 0 0 -0 378 L0 603 A9.00007 9.00007 -180 0 0 9 612 L157.5 612 Z" class="st2"/>
			</g>
			<path d="M157.5 612 A9.00007 9.00007 -180 0 0 166.5 603 L166.5 378 A9.00007 9.00007 -180 0 0 157.5 369 L9 369 A9.00007
						 9.00007 -180 0 0 -0 378 L0 603 A9.00007 9.00007 -180 0 0 9 612 L157.5 612 Z" class="st3"/>
		</g>
		<g id="shape10-47" v:mID="10" v:groupContext="shape" transform="translate(441.281,-337.5)">
			<title>Rectangle.10</title>
			<v:userDefs>
				<v:ud v:nameU="visVersion" v:val="VT0(14):26"/>
				<v:ud v:nameU="msvThemeColors" v:val="VT0(36):26"/>
				<v:ud v:nameU="msvThemeEffects" v:val="VT0(16):26"/>
			</v:userDefs>
			<g id="shadow10-48" v:groupContext="shadow" v:shadowOffsetX="1.44" v:shadowOffsetY="-1.44" v:shadowType="1"
					transform="matrix(1,0,0,1,1.44,1.44)" class="st1">
				<rect x="0" y="552.375" width="139.5" height="59.625" class="st2"/>
			</g>
			<rect x="0" y="552.375" width="139.5" height="59.625" class="st4"/>
		</g>
		<g id="shape11-52" v:mID="11" v:groupContext="shape" transform="translate(433.969,-410.625)">
			<title>Sheet.11</title>
			<desc>AllJoyn Client</desc>
			<v:userDefs>
				<v:ud v:nameU="msvThemeColors" v:val="VT0(36):26"/>
				<v:ud v:nameU="msvThemeEffects" v:val="VT0(16):26"/>
			</v:userDefs>
			<v:textBlock v:margins="rect(4,4,4,4)"/>
			<v:textRect cx="76.2188" cy="604" width="152.44" height="16"/>
			<rect x="0" y="596" width="152.438" height="16" class="st5"/>
			<text x="43.59" y="607.6" class="st6" v:langID="1033"><v:paragraph v:horizAlign="1"/><v:tabList/>AllJoyn Client</text>		</g>
		<g id="shape12-55" v:mID="12" v:groupContext="shape" transform="translate(441.281,-254.25)">
			<title>Rectangle.17</title>
			<v:userDefs>
				<v:ud v:nameU="visVersion" v:val="VT0(14):26"/>
				<v:ud v:nameU="msvThemeColors" v:val="VT0(36):26"/>
				<v:ud v:nameU="msvThemeEffects" v:val="VT0(16):26"/>
			</v:userDefs>
			<g id="shadow12-56" v:groupContext="shadow" v:shadowOffsetX="1.44" v:shadowOffsetY="-1.44" v:shadowType="1"
					transform="matrix(1,0,0,1,1.44,1.44)" class="st1">
				<rect x="0" y="547.875" width="139.5" height="64.125" class="st2"/>
			</g>
			<rect x="0" y="547.875" width="139.5" height="64.125" class="st7"/>
		</g>
		<g id="shape13-60" v:mID="13" v:groupContext="shape" transform="translate(514.219,-365.25)">
			<title>Sheet.13</title>
			<desc>App</desc>
			<v:userDefs>
				<v:ud v:nameU="msvThemeColors" v:val="VT0(36):26"/>
				<v:ud v:nameU="msvThemeEffects" v:val="VT0(16):26"/>
			</v:userDefs>
			<v:textBlock v:margins="rect(4,4,4,4)"/>
			<v:textRect cx="32.25" cy="599" width="64.5" height="26"/>
			<rect x="0" y="586" width="64.5" height="26" class="st5"/>
			<text x="24.1" y="602" class="st11" v:langID="1033"><v:paragraph v:horizAlign="1"/><v:tabList/>App</text>		</g>
		<g id="shape14-63" v:mID="14" v:groupContext="shape" transform="translate(454.781,-257.625)">
			<title>Sheet.14</title>
			<desc>AllJoyn Platform</desc>
			<v:userDefs>
				<v:ud v:nameU="msvThemeColors" v:val="VT0(36):26"/>
				<v:ud v:nameU="msvThemeEffects" v:val="VT0(16):26"/>
			</v:userDefs>
			<v:textBlock v:margins="rect(4,4,4,4)"/>
			<v:textRect cx="49.5" cy="607.5" width="99" height="9"/>
			<rect x="0" y="603" width="99" height="9" class="st5"/>
			<text x="16.36" y="610.5" class="st11" v:langID="1033"><v:paragraph v:horizAlign="1"/><v:tabList/>AllJoyn Platform</text>		</g>
		<g id="shape15-66" v:mID="15" v:groupContext="shape" transform="translate(447.469,-272.813)">
			<title>Rectangle.22</title>
			<desc>AllJoyn Core</desc>
			<v:userDefs>
				<v:ud v:nameU="visVersion" v:val="VT0(14):26"/>
				<v:ud v:nameU="msvThemeColors" v:val="VT0(36):26"/>
				<v:ud v:nameU="msvThemeEffects" v:val="VT0(16):26"/>
			</v:userDefs>
			<v:textBlock v:margins="rect(4,4,4,4)"/>
			<v:textRect cx="63.7763" cy="597.094" width="127.56" height="29.8125"/>
			<g id="shadow15-67" v:groupContext="shadow" v:shadowOffsetX="1.44" v:shadowOffsetY="-1.44" v:shadowType="1"
					transform="matrix(1,0,0,1,1.44,1.44)" class="st1">
				<rect x="0" y="582.188" width="127.552" height="29.8125" class="st2"/>
			</g>
			<rect x="0" y="582.188" width="127.552" height="29.8125" class="st7"/>
			<text x="43.8" y="599.49" class="st9" v:langID="1033"><v:paragraph v:horizAlign="1"/><v:tabList/>AllJoyn Core</text>		</g>
		<g id="shape16-72" v:mID="16" v:groupContext="shape" transform="translate(210.656,-198)">
			<title>Rectangle.19</title>
			<desc>Device OS</desc>
			<v:userDefs>
				<v:ud v:nameU="visVersion" v:val="VT0(14):26"/>
				<v:ud v:nameU="msvThemeColors" v:val="VT0(36):26"/>
				<v:ud v:nameU="msvThemeEffects" v:val="VT0(16):26"/>
			</v:userDefs>
			<v:textBlock v:margins="rect(4,4,4,4)"/>
			<v:textRect cx="69.75" cy="594" width="139.5" height="36"/>
			<g id="shadow16-73" v:groupContext="shadow" v:shadowOffsetX="1.44" v:shadowOffsetY="-1.44" v:shadowType="1"
					transform="matrix(1,0,0,1,1.44,1.44)" class="st1">
				<rect x="0" y="576" width="139.5" height="36" class="st2"/>
			</g>
			<rect x="0" y="576" width="139.5" height="36" class="st12"/>
			<text x="45.38" y="597.6" class="st6" v:langID="1033"><v:paragraph v:horizAlign="1"/><v:tabList/>Device OS</text>		</g>
		<g id="shape17-79" v:mID="17" v:groupContext="shape" v:layerMember="0"
				transform="translate(-331.031,358.313) rotate(-90) scale(-1,1)">
			<title>Line-curve connector.28</title>
			<v:userDefs>
				<v:ud v:nameU="AntiScale" v:val="VT0(1):26"/>
				<v:ud v:nameU="Scale" v:val="VT0(1):26"/>
				<v:ud v:nameU="visVersion" v:val="VT0(14):26"/>
				<v:ud v:nameU="msvThemeColors" v:val="VT0(36):26"/>
				<v:ud v:nameU="msvThemeEffects" v:val="VT0(16):26"/>
			</v:userDefs>
			<path d="M0 612 L10.04 612 L19.12 612 L19.12 612" class="st13"/>
		</g>
		<g id="shape18-83" v:mID="18" v:groupContext="shape" transform="translate(439.594,-198)">
			<title>Rectangle.29</title>
			<desc>Device OS</desc>
			<v:userDefs>
				<v:ud v:nameU="visVersion" v:val="VT0(14):26"/>
				<v:ud v:nameU="msvThemeColors" v:val="VT0(36):26"/>
				<v:ud v:nameU="msvThemeEffects" v:val="VT0(16):26"/>
			</v:userDefs>
			<v:textBlock v:margins="rect(4,4,4,4)"/>
			<v:textRect cx="69.75" cy="594" width="139.5" height="36"/>
			<g id="shadow18-84" v:groupContext="shadow" v:shadowOffsetX="1.44" v:shadowOffsetY="-1.44" v:shadowType="1"
					transform="matrix(1,0,0,1,1.44,1.44)" class="st1">
				<rect x="0" y="576" width="139.5" height="36" class="st2"/>
			</g>
			<rect x="0" y="576" width="139.5" height="36" class="st12"/>
			<text x="45.38" y="597.6" class="st6" v:langID="1033"><v:paragraph v:horizAlign="1"/><v:tabList/>Device OS</text>		</g>
		<g id="shape19-89" v:mID="19" v:groupContext="shape" v:layerMember="0"
				transform="translate(-102.094,358.313) rotate(-90) scale(-1,1)">
			<title>Line-curve connector.30</title>
			<v:userDefs>
				<v:ud v:nameU="AntiScale" v:val="VT0(1):26"/>
				<v:ud v:nameU="Scale" v:val="VT0(1):26"/>
				<v:ud v:nameU="visVersion" v:val="VT0(14):26"/>
				<v:ud v:nameU="msvThemeColors" v:val="VT0(36):26"/>
				<v:ud v:nameU="msvThemeEffects" v:val="VT0(16):26"/>
			</v:userDefs>
			<path d="M0 612 L10.04 612 L19.12 612 L19.12 612" class="st13"/>
		</g>
		<g id="shape20-93" v:mID="20" v:groupContext="shape" v:layerMember="0"
				transform="translate(-332.719,274.5) rotate(-90) scale(-1,1)">
			<title>Line-curve connector.12</title>
			<v:userDefs>
				<v:ud v:nameU="AntiScale" v:val="VT0(1):26"/>
				<v:ud v:nameU="Scale" v:val="VT0(1):26"/>
				<v:ud v:nameU="visVersion" v:val="VT0(14):26"/>
				<v:ud v:nameU="msvThemeColors" v:val="VT0(36):26"/>
				<v:ud v:nameU="msvThemeEffects" v:val="VT0(16):26"/>
			</v:userDefs>
			<path d="M0 612 L10.04 612 L19.12 612 L19.12 612" class="st13"/>
		</g>
		<g id="shape21-97" v:mID="21" v:groupContext="shape" v:layerMember="0"
				transform="translate(-101.531,273.938) rotate(-90) scale(-1,1)">
			<title>Line-curve connector.6</title>
			<v:userDefs>
				<v:ud v:nameU="AntiScale" v:val="VT0(1):26"/>
				<v:ud v:nameU="Scale" v:val="VT0(1):26"/>
				<v:ud v:nameU="visVersion" v:val="VT0(14):26"/>
				<v:ud v:nameU="msvThemeColors" v:val="VT0(36):26"/>
				<v:ud v:nameU="msvThemeEffects" v:val="VT0(16):26"/>
			</v:userDefs>
			<path d="M0 612 L10.04 612 L19.12 612 L19.12 612" class="st13"/>
		</g>
		<g id="shape22-101" v:mID="22" v:groupContext="shape" transform="translate(333.281,-281.536)">
			<title>60 degree double</title>
			<v:userDefs>
				<v:ud v:nameU="visVersion" v:val="VT0(14):26"/>
				<v:ud v:nameU="msvThemeColors" v:val="VT0(36):26"/>
				<v:ud v:nameU="msvThemeEffects" v:val="VT0(16):26"/>
			</v:userDefs>
			<g id="shadow22-102" v:groupContext="shadow" v:shadowOffsetX="1.44" v:shadowOffsetY="-1.44" v:shadowType="1"
					transform="matrix(1,0,0,1,1.44,1.44)" class="st1">
				<path d="M0 607.22 L2.76 602.45 L2.76 605.6 L120.99 605.6 L120.99 602.45 L123.75 607.22 L120.99 612 L120.99 608.85
							 L2.76 608.85 L2.76 612 L0 607.22 Z" class="st2"/>
			</g>
			<path d="M0 607.22 L2.76 602.45 L2.76 605.6 L120.99 605.6 L120.99 602.45 L123.75 607.22 L120.99 612 L120.99 608.85 L2.76
						 608.85 L2.76 612 L0 607.22 Z" class="st7"/>
		</g>
		<g id="group23-106" transform="translate(290.719,-343.5)" v:mID="23" v:groupContext="group">
			<v:userDefs>
				<v:ud v:nameU="msvThemeColors" v:val="VT0(36):26"/>
				<v:ud v:nameU="msvThemeEffects" v:val="VT0(16):26"/>
			</v:userDefs>
			<title>Sheet.23</title>
			<g id="shape24-107" v:mID="24" v:groupContext="shape" transform="translate(8.25,-8.8125)">
				<title>Rectangle.6</title>
				<v:userDefs>
					<v:ud v:nameU="visVersion" v:val="VT0(14):26"/>
					<v:ud v:nameU="msvThemeColors" v:val="VT0(36):26"/>
					<v:ud v:nameU="msvThemeEffects" v:val="VT0(16):26"/>
				</v:userDefs>
				<g id="shadow24-108" v:groupContext="shadow" v:shadowOffsetX="1.44" v:shadowOffsetY="-1.44" v:shadowType="1"
						transform="matrix(1,0,0,1,1.44,1.44)" class="st1">
					<rect x="0" y="591.188" width="47.8125" height="20.8125" class="st2"/>
				</g>
				<rect x="0" y="591.188" width="47.8125" height="20.8125" class="st7"/>
			</g>
			<g id="shape25-112" v:mID="25" v:groupContext="shape" transform="translate(4.5,-4.5)">
				<title>Rectangle.15</title>
				<v:userDefs>
					<v:ud v:nameU="visVersion" v:val="VT0(14):26"/>
					<v:ud v:nameU="msvThemeColors" v:val="VT0(36):26"/>
					<v:ud v:nameU="msvThemeEffects" v:val="VT0(16):26"/>
				</v:userDefs>
				<g id="shadow25-113" v:groupContext="shadow" v:shadowOffsetX="1.44" v:shadowOffsetY="-1.44" v:shadowType="1"
						transform="matrix(1,0,0,1,1.44,1.44)" class="st1">
					<rect x="0" y="591.188" width="47.8125" height="20.8125" class="st2"/>
				</g>
				<rect x="0" y="591.188" width="47.8125" height="20.8125" class="st7"/>
			</g>
			<g id="shape26-117" v:mID="26" v:groupContext="shape">
				<title>Rectangle.13</title>
				<desc>Service Interfaces</desc>
				<v:userDefs>
					<v:ud v:nameU="visVersion" v:val="VT0(14):26"/>
					<v:ud v:nameU="msvThemeColors" v:val="VT0(36):26"/>
					<v:ud v:nameU="msvThemeEffects" v:val="VT0(16):26"/>
				</v:userDefs>
				<v:textBlock v:margins="rect(4,4,4,4)"/>
				<v:textRect cx="23.9063" cy="601.594" width="47.82" height="20.8125"/>
				<g id="shadow26-118" v:groupContext="shadow" v:shadowOffsetX="1.44" v:shadowOffsetY="-1.44" v:shadowType="1"
						transform="matrix(1,0,0,1,1.44,1.44)" class="st1">
					<rect x="0" y="591.188" width="47.8125" height="20.8125" class="st2"/>
				</g>
				<rect x="0" y="591.188" width="47.8125" height="20.8125" class="st7"/>
				<text x="12.28" y="599.19" class="st9" v:langID="1033"><v:paragraph v:horizAlign="1"/><v:tabList/>Service <tspan
							x="7.69" dy="1.2em" class="st10">Interfaces</tspan></text>			</g>
		</g>
	</g>
</svg>
