<?xml version="1.0" encoding="UTF-8" standalone="no"?>
<!-- Generated by Microsoft Visio 11.0, SVG Export, v1.0 alljoyn-core-components.svg Page-1 -->

<svg
   xmlns:v="http://schemas.microsoft.com/visio/2003/SVGExtensions/"
   xmlns:dc="http://purl.org/dc/elements/1.1/"
   xmlns:cc="http://creativecommons.org/ns#"
   xmlns:rdf="http://www.w3.org/1999/02/22-rdf-syntax-ns#"
   xmlns:svg="http://www.w3.org/2000/svg"
   xmlns="http://www.w3.org/2000/svg"
   xmlns:sodipodi="http://sodipodi.sourceforge.net/DTD/sodipodi-0.dtd"
   xmlns:inkscape="http://www.inkscape.org/namespaces/inkscape"
   width="11in"
   height="8.5in"
   viewBox="0 0 792 612"
   xml:space="preserve"
   color-interpolation-filters="sRGB"
   class="st22"
   id="svg2"
   version="1.1"
   inkscape:version="0.48.5 r10040"
   sodipodi:docname="alljoyn-core-components.svg"><metadata
   id="metadata309"><rdf:RDF><cc:Work
       rdf:about=""><dc:format>image/svg+xml</dc:format><dc:type
         rdf:resource="http://purl.org/dc/dcmitype/StillImage" /></cc:Work></rdf:RDF></metadata><defs
   id="defs307">
		<v:userDefs>
			<v:ud
   v:val="VT0(36):26"
   v:nameU="msvThemeColors" />
			<v:ud
   v:val="VT0(16):26"
   v:nameU="msvThemeEffects" />
			<v:ud
   v:val="VT0(0):26"
   v:nameU="msvThemeOrder" />
		</v:userDefs>
		
		<v:pageProperties
   v:shadowOffsetY="-9"
   v:shadowOffsetX="9"
   v:drawingUnits="0"
   v:pageScale="1"
   v:drawingScale="1" />
		<v:layer
   v:index="0"
   v:name="Connector" />
		
		
		
		
		
		
		
		
		
		
		
		
		
		
		
		
		
		
		
		
		
		
		
		
		
		
		
		
		
		
		
		
		
		
		
		
		
		
		
		
		
		
		
		
		
	
			
			
			<v:textBlock
   v:margins="rect(0,0,0,0)" />
			<v:textRect
   cx="68.291"
   cy="605.383"
   width="136.59"
   height="13.233" />
			
					<v:textBlock
   v:margins="rect(0,0,0,0)" /><v:textRect
   cx="38.9828"
   cy="605.383"
   width="77.97"
   height="13.233" />
			
			
			<v:textBlock
   v:margins="rect(0,0,0,0)" />
			<v:textRect
   cx="38.9828"
   cy="605.383"
   width="77.97"
   height="13.233" />
			
					</defs><sodipodi:namedview
   pagecolor="#ffffff"
   bordercolor="#666666"
   borderopacity="1"
   objecttolerance="10"
   gridtolerance="10"
   guidetolerance="10"
   inkscape:pageopacity="0"
   inkscape:pageshadow="2"
   inkscape:window-width="1403"
   inkscape:window-height="791"
   id="namedview305"
   showgrid="false"
   inkscape:zoom="1"
   inkscape:cx="339"
   inkscape:cy="382.5"
   inkscape:window-x="0"
   inkscape:window-y="0"
   inkscape:window-maximized="0"
   inkscape:current-layer="svg2" />
	<v:documentProperties
   v:langID="1033"
   v:viewMarkup="false">
		<v:userDefs>
			<v:ud
   v:nameU="msvNoAutoConnect"
   v:val="VT0(0):26" />
		</v:userDefs>
	</v:documentProperties>

	<style
   type="text/css"
   id="style4">
	
		.st1 {stroke:#f79646;stroke-linecap:round;stroke-linejoin:round;stroke-width:2.03901}
		.st2 {stroke:#c0504d;stroke-linecap:round;stroke-linejoin:round;stroke-width:2.03901}
		.st3 {stroke:#4bacc6;stroke-linecap:round;stroke-linejoin:round;stroke-width:2.03901}
		.st4 {fill:#f79646;stroke:none;stroke-linecap:round;stroke-linejoin:round;stroke-width:0.75}
		.st5 {stroke:#b66d31;stroke-linecap:round;stroke-linejoin:round;stroke-width:2.03901}
		.st6 {stroke:none;stroke-linecap:round;stroke-linejoin:round;stroke-width:0.75}
		.st7 {fill:#f79646;font-family:Calibri;font-size:0.918686em;font-weight:bold}
		.st8 {fill:#4f81bd;stroke:none;stroke-linecap:round;stroke-linejoin:round;stroke-width:0.75}
		.st9 {stroke:#385d8a;stroke-linecap:round;stroke-linejoin:round;stroke-width:2.03901}
		.st10 {fill:#ffffff;font-family:Calibri;font-size:0.998566em}
		.st11 {fill:#c0504d;stroke:none;stroke-linecap:round;stroke-linejoin:round;stroke-width:0.75}
		.st12 {stroke:#8c3836;stroke-linecap:round;stroke-linejoin:round;stroke-width:2.03901}
		.st13 {fill:#9bbb59;stroke:none;stroke-linecap:round;stroke-linejoin:round;stroke-width:0.75}
		.st14 {stroke:#71893f;stroke-linecap:round;stroke-linejoin:round;stroke-width:2.03901}
		.st15 {fill:#ffffff;font-family:Calibri;font-size:0.918686em}
		.st16 {stroke:#8064a2;stroke-linecap:round;stroke-linejoin:round;stroke-width:2.00153}
		.st17 {fill:#8064a2;font-family:Calibri;font-size:0.918686em;font-weight:bold}
		.st18 {font-size:1em}
		.st19 {fill:#4bacc6;stroke:none;stroke-linecap:round;stroke-linejoin:round;stroke-width:0.75}
		.st20 {stroke:#357d91;stroke-linecap:round;stroke-linejoin:round;stroke-width:2.03901}
		.st21 {fill:#4a7ebb;stroke:#4a7ebb;stroke-linecap:round;stroke-linejoin:round;stroke-width:0.00749637}
		.st22 {fill:none;fill-rule:evenodd;font-size:12px;overflow:visible;stroke-linecap:square;stroke-miterlimit:3}
	
	</style>

	<g
   transform="translate(273.725,-325.305)"
   v:groupContext="shape"
   v:mID="9"
   id="shape9-1">
			<title
   id="title11">Sheet.9</title>
			<path
   style="stroke:#f79646;stroke-width:2.03901005;stroke-linecap:round;stroke-linejoin:round"
   inkscape:connector-curvature="0"
   id="path13"
   class="st1"
   d="M 0,570.06 0,612" />
		</g><g
   transform="translate(363.767,-325.305)"
   v:groupContext="shape"
   v:mID="12"
   id="shape12-4">
			<title
   id="title16">Sheet.12</title>
			<path
   style="stroke:#f79646;stroke-width:2.03901005;stroke-linecap:round;stroke-linejoin:round"
   inkscape:connector-curvature="0"
   id="path18"
   class="st1"
   d="M 0,570.06 0,612" />
		</g><g
   transform="translate(376.253,-311.285)"
   v:groupContext="shape"
   v:mID="22"
   id="shape22-7">
			<title
   id="title21">Sheet.22</title>
			<path
   style="stroke:#c0504d;stroke-width:2.03901005;stroke-linecap:round;stroke-linejoin:round"
   inkscape:connector-curvature="0"
   id="path23"
   class="st2"
   d="M 71.52,612 0,612" />
		</g><g
   transform="translate(499.309,-324.586)"
   v:groupContext="shape"
   v:mID="58"
   id="shape58-10">
			<title
   id="title26">Sheet.58</title>
			<path
   style="stroke:#4bacc6;stroke-width:2.03901005;stroke-linecap:round;stroke-linejoin:round"
   inkscape:connector-curvature="0"
   id="path28"
   class="st3"
   d="M 0,570.06 0,612" />
		</g><g
   transform="translate(249.714,-367.245)"
   v:groupContext="shape"
   v:mID="3"
   id="shape3-13">
			<title
   id="title31">Sheet.3</title>
			<path
   style="fill:#f79646;stroke:none"
   inkscape:connector-curvature="0"
   id="path33"
   class="st4"
   d="m 0,588.03 c 0,-13.23 10.75,-23.96 24.01,-23.96 13.27,0 24.01,10.73 24.01,23.96 C 48.02,601.28 37.28,612 24.01,612 10.75,612 0,601.28 0,588.03 z" />
		</g><g
   transform="translate(249.714,-367.245)"
   v:groupContext="shape"
   v:mID="4"
   id="shape4-15">
			<title
   id="title36">Sheet.4</title>
			<path
   style="stroke:#b66d31;stroke-width:2.03901005;stroke-linecap:round;stroke-linejoin:round"
   inkscape:connector-curvature="0"
   id="path38"
   class="st5"
   d="m 0,588.03 c 0,-13.23 10.75,-23.96 24.01,-23.96 13.27,0 24.01,10.73 24.01,23.96 C 48.02,601.28 37.28,612 24.01,612 10.75,612 0,601.28 0,588.03" />
		</g><g
   transform="translate(339.756,-367.245)"
   v:groupContext="shape"
   v:mID="5"
   id="shape5-18">
			<title
   id="title41">Sheet.5</title>
			<path
   style="fill:#f79646;stroke:none"
   inkscape:connector-curvature="0"
   id="path43"
   class="st4"
   d="m 0,588.03 c 0,-13.23 10.75,-23.96 24.01,-23.96 13.27,0 24.01,10.73 24.01,23.96 C 48.02,601.28 37.28,612 24.01,612 10.75,612 0,601.28 0,588.03 z" />
		</g><g
   transform="translate(339.756,-367.245)"
   v:groupContext="shape"
   v:mID="6"
   id="shape6-20">
			<title
   id="title46">Sheet.6</title>
			<path
   style="stroke:#b66d31;stroke-width:2.03901005;stroke-linecap:round;stroke-linejoin:round"
   inkscape:connector-curvature="0"
   id="path48"
   class="st5"
   d="m 0,588.03 c 0,-13.23 10.75,-23.96 24.01,-23.96 13.27,0 24.01,10.73 24.01,23.96 C 48.02,601.28 37.28,612 24.01,612 10.75,612 0,601.28 0,588.03" />
		</g><g
   transform="translate(274.581,-327.353)"
   v:groupContext="shape"
   v:mID="13"
   id="shape13-23">
			<title
   id="title51">Sheet.13</title>
			<desc
   id="desc53">/path/to/obj1</desc>
			<v:textBlock
   v:margins="rect(0,0,0,0)" />
			<v:textRect
   height="13.233"
   width="77.97"
   cy="605.383"
   cx="38.9828" />
			<path
   style="stroke:none"
   inkscape:connector-curvature="0"
   id="path55"
   class="st6"
   d="m 77.97,598.77 -77.97,0 0,13.23 77.97,0 0,-13.23" />
			<text
   style="font-weight:bold;fill:#f79646;font-family:Calibri"
   id="text57"
   v:langID="1033"
   class="st7"
   y="608.69"
   x="6.3299999"><v:paragraph
   v:horizAlign="1" /><v:tabList />/path/to/obj1</text>
		</g><path
   d="m 442.592,271.068 -77.97,0 0,13.23 77.97,0 0,-13.23"
   class="st6"
   id="path64"
   inkscape:connector-curvature="0"
   style="stroke:none" /><text
   x="370.952"
   y="280.98801"
   class="st7"
   v:langID="1033"
   id="text66"
   style="font-weight:bold;fill:#f79646;font-family:Calibri"><v:paragraph
   v:horizAlign="1" /><v:tabList />/path/to/obj2</text>
<g
   transform="translate(267.722,-277.374)"
   v:groupContext="shape"
   v:mID="15"
   id="shape15-31">
			<title
   id="title69">Sheet.15</title>
			<path
   style="fill:#4f81bd;stroke:none"
   inkscape:connector-curvature="0"
   id="path71"
   class="st8"
   d="m 0,564.07 0,47.93 102.89,0 0,-47.93 -102.89,0 0,0 z" />
		</g><g
   transform="translate(267.722,-277.374)"
   v:groupContext="shape"
   v:mID="16"
   id="shape16-33">
			<title
   id="title74">Sheet.16</title>
			<path
   style="stroke:#385d8a;stroke-width:2.03901005;stroke-linecap:round;stroke-linejoin:round"
   inkscape:connector-curvature="0"
   id="path76"
   class="st9"
   d="m 0,564.07 102.89,0 0,47.93 L 0,612 0,564.07" />
		</g><g
   transform="translate(275.182,-292.585)"
   v:groupContext="shape"
   v:mID="17"
   id="shape17-36">
			<title
   id="title79">Sheet.17</title>
			<desc
   id="desc81">Bus Attachment</desc>
			<v:textBlock
   v:margins="rect(0,0,0,0)" />
			<v:textRect
   height="14.3829"
   width="92.96"
   cy="604.809"
   cx="46.4766" />
			<path
   style="stroke:none"
   inkscape:connector-curvature="0"
   id="path83"
   class="st6"
   d="m 92.95,597.62 -92.95,0 0,14.38 92.95,0 0,-14.38" />
			<text
   style="fill:#ffffff;font-family:Calibri"
   id="text85"
   v:langID="1033"
   class="st10"
   y="608.40002"
   x="7.4200001"><v:paragraph
   v:horizAlign="1" /><v:tabList />Bus Attachment</text>
		</g><g
   transform="translate(364.967,-305.653)"
   v:groupContext="shape"
   v:mID="18"
   id="shape18-40">
			<title
   id="title88">Sheet.18</title>
			<path
   style="fill:#c0504d;stroke:none"
   inkscape:connector-curvature="0"
   id="path90"
   class="st11"
   d="m 0,606.37 c 0,-3.11 2.53,-5.63 5.64,-5.63 3.12,0 5.65,2.52 5.65,5.63 0,3.11 -2.53,5.63 -5.65,5.63 C 2.53,612 0,609.48 0,606.37 z" />
		</g><g
   transform="translate(364.967,-305.653)"
   v:groupContext="shape"
   v:mID="19"
   id="shape19-42">
			<title
   id="title93">Sheet.19</title>
			<path
   style="stroke:#8c3836;stroke-width:2.03901005;stroke-linecap:round;stroke-linejoin:round"
   inkscape:connector-curvature="0"
   id="path95"
   class="st12"
   d="m 0,606.37 c 0,-3.11 2.53,-5.63 5.64,-5.63 3.12,0 5.65,2.52 5.65,5.63 0,3.11 -2.53,5.63 -5.65,5.63 C 2.53,612 0,609.48 0,606.37" />
		</g><g
   transform="translate(352.254,-396.836)"
   v:groupContext="shape"
   v:mID="23"
   id="shape23-45">
			<title
   id="title98">Sheet.23</title>
			<desc
   id="desc100">Bus</desc>
			<v:textBlock
   v:margins="rect(0,0,0,0)" />
			<v:textRect
   height="14.3829"
   width="23.25"
   cy="604.809"
   cx="11.6223" />
			<path
   style="stroke:none"
   inkscape:connector-curvature="0"
   id="path102"
   class="st6"
   d="m 23.24,597.62 -23.24,0 0,14.38 23.24,0 0,-14.38" />
			<text
   style="fill:#ffffff;font-family:Calibri"
   id="text104"
   v:langID="1033"
   class="st10"
   y="608.40002"
   x="2.8699999"><v:paragraph
   v:horizAlign="1" /><v:tabList />Bus</text>
		</g><g
   transform="translate(352.374,-382.456)"
   v:groupContext="shape"
   v:mID="24"
   id="shape24-49">
			<title
   id="title107">Sheet.24</title>
			<desc
   id="desc109">Obj</desc>
			<v:textBlock
   v:margins="rect(0,0,0,0)" />
			<v:textRect
   height="14.3829"
   width="22.79"
   cy="604.809"
   cx="11.3903" />
			<path
   style="stroke:none"
   inkscape:connector-curvature="0"
   id="path111"
   class="st6"
   d="m 22.78,597.62 -22.78,0 0,14.38 22.78,0 0,-14.38" />
			<text
   style="fill:#ffffff;font-family:Calibri"
   id="text113"
   v:langID="1033"
   class="st10"
   y="608.40002"
   x="2.8399999"><v:paragraph
   v:horizAlign="1" /><v:tabList />Obj</text>
		</g><g
   transform="translate(357.536,-368.077)"
   v:groupContext="shape"
   v:mID="25"
   id="shape25-53">
			<title
   id="title116">Sheet.25</title>
			<desc
   id="desc118">A</desc>
			<v:textBlock
   v:margins="rect(0,0,0,0)" />
			<v:textRect
   height="14.3829"
   width="11.1"
   cy="604.809"
   cx="5.54646" />
			<path
   style="stroke:none"
   inkscape:connector-curvature="0"
   id="path120"
   class="st6"
   d="m 11.09,597.62 -11.09,0 0,14.38 11.09,0 0,-14.38" />
			<text
   style="fill:#ffffff;font-family:Calibri"
   id="text122"
   v:langID="1033"
   class="st10"
   y="608.40002"
   x="2.0799999"><v:paragraph
   v:horizAlign="1" /><v:tabList />A</text>
		</g><g
   transform="translate(380.815,-397.921)"
   v:groupContext="shape"
   v:mID="26"
   id="shape26-57">
			<title
   id="title125">Sheet.26</title>
			<path
   style="fill:#9bbb59;stroke:none"
   inkscape:connector-curvature="0"
   id="path127"
   class="st13"
   d="M 0,612 6.96,600.02 13.93,612 0,612 z" />
		</g><g
   transform="translate(380.815,-397.921)"
   v:groupContext="shape"
   v:mID="27"
   id="shape27-59">
			<title
   id="title130">Sheet.27</title>
			<path
   style="stroke:#71893f;stroke-width:2.03901005;stroke-linecap:round;stroke-linejoin:round"
   inkscape:connector-curvature="0"
   id="path132"
   class="st14"
   d="M 0,612 6.96,600.02 13.93,612 0,612" />
		</g><g
   transform="translate(383.164,-395.209)"
   v:groupContext="shape"
   v:mID="28"
   id="shape28-62">
			<title
   id="title135">Sheet.28</title>
			<desc
   id="desc137">1</desc>
			<v:textBlock
   v:margins="rect(0,0,0,0)" />
			<v:textRect
   height="13.233"
   width="9.3"
   cy="605.383"
   cx="4.64785" />
			<path
   style="stroke:none"
   inkscape:connector-curvature="0"
   id="path139"
   class="st6"
   d="m 9.3,598.77 -9.3,0 0,13.23 9.3,0 0,-13.23" />
			<text
   style="fill:#ffffff;font-family:Calibri"
   id="text141"
   v:langID="1033"
   class="st15"
   y="608.69"
   x="1.85"><v:paragraph
   v:horizAlign="1" /><v:tabList />1</text>
		</g><g
   transform="translate(332.792,-397.921)"
   v:groupContext="shape"
   v:mID="29"
   id="shape29-66">
			<title
   id="title144">Sheet.29</title>
			<path
   style="fill:#9bbb59;stroke:none"
   inkscape:connector-curvature="0"
   id="path146"
   class="st13"
   d="M 0,612 6.96,600.02 13.93,612 0,612 z" />
		</g><g
   transform="translate(332.792,-397.921)"
   v:groupContext="shape"
   v:mID="30"
   id="shape30-68">
			<title
   id="title149">Sheet.30</title>
			<path
   style="stroke:#71893f;stroke-width:2.03901005;stroke-linecap:round;stroke-linejoin:round"
   inkscape:connector-curvature="0"
   id="path151"
   class="st14"
   d="M 0,612 6.96,600.02 13.93,612 0,612" />
		</g><g
   transform="translate(335.142,-395.209)"
   v:groupContext="shape"
   v:mID="31"
   id="shape31-71">
			<title
   id="title154">Sheet.31</title>
			<desc
   id="desc156">2</desc>
			<v:textBlock
   v:margins="rect(0,0,0,0)" />
			<v:textRect
   height="13.233"
   width="9.3"
   cy="605.383"
   cx="4.64785" />
			<path
   style="stroke:none"
   inkscape:connector-curvature="0"
   id="path158"
   class="st6"
   d="m 9.3,598.77 -9.3,0 0,13.23 9.3,0 0,-13.23" />
			<text
   style="fill:#ffffff;font-family:Calibri"
   id="text160"
   v:langID="1033"
   class="st15"
   y="608.69"
   x="1.85"><v:paragraph
   v:horizAlign="1" /><v:tabList />2</text>
		</g><g
   transform="translate(261.5,-396.89)"
   v:groupContext="shape"
   v:mID="32"
   id="shape32-75">
			<title
   id="title163">Sheet.32</title>
			<desc
   id="desc165">Bus</desc>
			<v:textBlock
   v:margins="rect(0,0,0,0)" />
			<v:textRect
   height="14.3829"
   width="23.25"
   cy="604.809"
   cx="11.6223" />
			<path
   style="stroke:none"
   inkscape:connector-curvature="0"
   id="path167"
   class="st6"
   d="m 23.24,597.62 -23.24,0 0,14.38 23.24,0 0,-14.38" />
			<text
   style="fill:#ffffff;font-family:Calibri"
   id="text169"
   v:langID="1033"
   class="st10"
   y="608.40002"
   x="2.8699999"><v:paragraph
   v:horizAlign="1" /><v:tabList />Bus</text>
		</g><g
   transform="translate(261.62,-382.51)"
   v:groupContext="shape"
   v:mID="33"
   id="shape33-79">
			<title
   id="title172">Sheet.33</title>
			<desc
   id="desc174">Obj</desc>
			<v:textBlock
   v:margins="rect(0,0,0,0)" />
			<v:textRect
   height="14.3829"
   width="22.79"
   cy="604.809"
   cx="11.3903" />
			<path
   style="stroke:none"
   inkscape:connector-curvature="0"
   id="path176"
   class="st6"
   d="m 22.78,597.62 -22.78,0 0,14.38 22.78,0 0,-14.38" />
			<text
   style="fill:#ffffff;font-family:Calibri"
   id="text178"
   v:langID="1033"
   class="st10"
   y="608.40002"
   x="2.8399999"><v:paragraph
   v:horizAlign="1" /><v:tabList />Obj</text>
		</g><g
   transform="translate(267.023,-368.131)"
   v:groupContext="shape"
   v:mID="34"
   id="shape34-83">
			<title
   id="title181">Sheet.34</title>
			<desc
   id="desc183">B</desc>
			<v:textBlock
   v:margins="rect(0,0,0,0)" />
			<v:textRect
   height="14.3829"
   width="10.62"
   cy="604.809"
   cx="5.30752" />
			<path
   style="stroke:none"
   inkscape:connector-curvature="0"
   id="path185"
   class="st6"
   d="m 10.62,597.62 -10.62,0 0,14.38 10.62,0 0,-14.38" />
			<text
   style="fill:#ffffff;font-family:Calibri"
   id="text187"
   v:langID="1033"
   class="st10"
   y="608.40002"
   x="2.05"><v:paragraph
   v:horizAlign="1" /><v:tabList />B</text>
		</g><g
   transform="translate(243.711,-397.202)"
   v:groupContext="shape"
   v:mID="35"
   id="shape35-87">
			<title
   id="title190">Sheet.35</title>
			<path
   style="fill:#9bbb59;stroke:none"
   inkscape:connector-curvature="0"
   id="path192"
   class="st13"
   d="M 0,612 6.96,600.02 13.93,612 0,612 z" />
		</g><g
   transform="translate(243.711,-397.202)"
   v:groupContext="shape"
   v:mID="36"
   id="shape36-89">
			<title
   id="title195">Sheet.36</title>
			<path
   style="stroke:#71893f;stroke-width:2.03901005;stroke-linecap:round;stroke-linejoin:round"
   inkscape:connector-curvature="0"
   id="path197"
   class="st14"
   d="M 0,612 6.96,600.02 13.93,612 0,612" />
		</g><g
   transform="translate(245.81,-393.693)"
   v:groupContext="shape"
   v:mID="37"
   id="shape37-92">
			<title
   id="title200">Sheet.37</title>
			<desc
   id="desc202">3</desc>
			<v:textBlock
   v:margins="rect(0,0,0,0)" />
			<v:textRect
   height="14.3829"
   width="10.11"
   cy="604.809"
   cx="5.05183" />
			<path
   style="stroke:none"
   inkscape:connector-curvature="0"
   id="path204"
   class="st6"
   d="m 10.1,597.62 -10.1,0 0,14.38 10.1,0 0,-14.38" />
			<text
   style="fill:#ffffff;font-family:Calibri"
   id="text206"
   v:langID="1033"
   class="st10"
   y="608.40002"
   x="2.02"><v:paragraph
   v:horizAlign="1" /><v:tabList />3</text>
		</g><g
   transform="translate(375.007,-265.256)"
   v:groupContext="shape"
   v:mID="40"
   id="shape40-96">
			<title
   id="title209">Sheet.40</title>
			<path
   style="stroke:#8064a2;stroke-width:2.00152993;stroke-linecap:round;stroke-linejoin:round"
   inkscape:connector-curvature="0"
   id="path211"
   class="st16"
   d="M 11.02,595.17 C 12.79,602.59 7.86,610.13 0,612" />
		</g><g
   transform="translate(378.128,-253.641)"
   v:groupContext="shape"
   v:mID="43"
   id="shape43-99">
			<title
   id="title214">Sheet.43</title>
			<path
   style="stroke:#8064a2;stroke-width:2.00152993;stroke-linecap:round;stroke-linejoin:round"
   inkscape:connector-curvature="0"
   id="path216"
   class="st16"
   d="M 21.53,579.14 C 24.99,593.64 15.35,608.35 0,612" />
		</g><g
   transform="translate(380.972,-239.508)"
   v:groupContext="shape"
   v:mID="46"
   id="shape46-102">
			<title
   id="title219">Sheet.46</title>
			<path
   style="stroke:#8064a2;stroke-width:2.00152993;stroke-linecap:round;stroke-linejoin:round"
   inkscape:connector-curvature="0"
   id="path221"
   class="st16"
   d="M 32.63,562.2 C 37.88,584.17 23.27,606.47 0,612" />
		</g><path
   d="m 441.56167,378.93467 -136.58,0 0,13.23 136.58,0 0,-13.23"
   class="st6"
   id="path228"
   inkscape:connector-curvature="0"
   style="stroke:none" /><g
   transform="translate(475.298,-367.245)"
   v:groupContext="shape"
   v:mID="51"
   id="shape51-110">
			<title
   id="title235">Sheet.51</title>
			<path
   style="fill:#4bacc6;stroke:none"
   inkscape:connector-curvature="0"
   id="path237"
   class="st19"
   d="m 0,588.03 c 0,-13.22 10.76,-23.96 24.01,-23.96 13.27,0 24.01,10.74 24.01,23.96 C 48.02,601.28 37.28,612 24.01,612 10.76,612 0,601.28 0,588.03 z" />
		</g><g
   transform="translate(475.298,-367.245)"
   v:groupContext="shape"
   v:mID="52"
   id="shape52-112">
			<title
   id="title240">Sheet.52</title>
			<path
   style="stroke:#357d91;stroke-width:2.03901005;stroke-linecap:round;stroke-linejoin:round"
   inkscape:connector-curvature="0"
   id="path242"
   class="st20"
   d="m 0,588.03 c 0,-13.22 10.76,-23.96 24.01,-23.96 13.27,0 24.01,10.74 24.01,23.96 C 48.02,601.28 37.28,612 24.01,612 10.76,612 0,601.28 0,588.03" />
		</g><g
   transform="translate(480.586,-396.404)"
   v:groupContext="shape"
   v:mID="53"
   id="shape53-115">
			<title
   id="title245">Sheet.53</title>
			<desc
   id="desc247">Proxy</desc>
			<v:textBlock
   v:margins="rect(0,0,0,0)" />
			<v:textRect
   height="13.233"
   width="34.63"
   cy="605.383"
   cx="17.3102" />
			<path
   style="stroke:none"
   inkscape:connector-curvature="0"
   id="path249"
   class="st6"
   d="m 34.62,598.77 -34.62,0 0,13.23 34.62,0 0,-13.23" />
			<text
   style="fill:#ffffff;font-family:Calibri"
   id="text251"
   v:langID="1033"
   class="st15"
   y="608.69"
   x="4.75"><v:paragraph
   v:horizAlign="1" /><v:tabList />Proxy  </text>
		</g><g
   transform="translate(477.744,-383.223)"
   v:groupContext="shape"
   v:mID="54"
   id="shape54-119">
			<title
   id="title254">Sheet.54</title>
			<desc
   id="desc256">Bus Obj</desc>
			<v:textBlock
   v:margins="rect(0,0,0,0)" />
			<v:textRect
   height="13.233"
   width="42.35"
   cy="605.383"
   cx="21.17" />
			<path
   style="stroke:none"
   inkscape:connector-curvature="0"
   id="path258"
   class="st6"
   d="m 42.34,598.77 -42.34,0 0,13.23 42.34,0 0,-13.23" />
			<text
   style="fill:#ffffff;font-family:Calibri"
   id="text260"
   v:langID="1033"
   class="st15"
   y="608.69"
   x="4.0100002"><v:paragraph
   v:horizAlign="1" /><v:tabList />Bus Obj</text>
		</g><g
   transform="translate(493.27,-370.042)"
   v:groupContext="shape"
   v:mID="55"
   id="shape55-123">
			<title
   id="title263">Sheet.55</title>
			<desc
   id="desc265">A</desc>
			<v:textBlock
   v:margins="rect(0,0,0,0)" />
			<v:textRect
   height="13.233"
   width="10.21"
   cy="605.383"
   cx="5.10284" />
			<path
   style="stroke:none"
   inkscape:connector-curvature="0"
   id="path267"
   class="st6"
   d="m 10.21,598.77 -10.21,0 0,13.23 10.21,0 0,-13.23" />
			<text
   style="fill:#ffffff;font-family:Calibri"
   id="text269"
   v:langID="1033"
   class="st15"
   y="608.69"
   x="1.91"><v:paragraph
   v:horizAlign="1" /><v:tabList />A</text>
		</g><g
   transform="translate(447.806,-279.052)"
   v:groupContext="shape"
   v:mID="59"
   id="shape59-127">
			<title
   id="title272">Sheet.59</title>
			<path
   style="fill:#4f81bd;stroke:none"
   inkscape:connector-curvature="0"
   id="path274"
   class="st8"
   d="m 0,565.75 0,46.25 102.89,0 0,-46.25 -102.89,0 0,0 z" />
		</g><g
   transform="translate(447.806,-279.052)"
   v:groupContext="shape"
   v:mID="60"
   id="shape60-129">
			<title
   id="title277">Sheet.60</title>
			<path
   style="stroke:#385d8a;stroke-width:2.03901005;stroke-linecap:round;stroke-linejoin:round"
   inkscape:connector-curvature="0"
   id="path279"
   class="st9"
   d="m 0,565.75 102.89,0 0,46.25 L 0,612 0,565.75" />
		</g><g
   transform="translate(455.265,-293.441)"
   v:groupContext="shape"
   v:mID="61"
   id="shape61-132">
			<title
   id="title282">Sheet.61</title>
			<desc
   id="desc284">Bus Attachment</desc>
			<v:textBlock
   v:margins="rect(0,0,0,0)" />
			<v:textRect
   height="14.3829"
   width="92.96"
   cy="604.809"
   cx="46.4766" />
			<path
   style="stroke:none"
   inkscape:connector-curvature="0"
   id="path286"
   class="st6"
   d="m 92.95,597.62 -92.95,0 0,14.38 92.95,0 0,-14.38" />
			<text
   style="fill:#ffffff;font-family:Calibri"
   id="text288"
   v:langID="1033"
   class="st10"
   y="608.40002"
   x="7.4200001"><v:paragraph
   v:horizAlign="1" /><v:tabList />Bus Attachment</text>
		</g><g
   transform="translate(404.886,-389.353)"
   v:groupContext="shape"
   v:mID="62"
   id="shape62-136">
			<title
   id="title291">Sheet.62</title>
			<path
   style="fill:#4a7ebb;stroke:#4a7ebb;stroke-width:0.00749637;stroke-linecap:round;stroke-linejoin:round"
   inkscape:connector-curvature="0"
   id="path293"
   class="st21"
   d="m 60.83,611.28 -2.88,0 0,0.72 2.88,0 0,-0.72 0,0 z m -5.04,0 -2.88,0 0,0.72 2.88,0 0,-0.72 0,0 z m -5.04,0 -2.89,0 0,0.72 2.89,0 0,-0.72 0,0 z m -5.05,0 -2.88,0 0,0.72 2.88,0 0,-0.72 0,0 z m -5.04,0 -2.88,0 0,0.72 2.88,0 0,-0.72 0,0 z m -5.04,0 -2.88,0 0,0.72 2.88,0 0,-0.72 0,0 z m -5.04,0 -2.88,0 0,0.72 2.88,0 0,-0.72 0,0 z m -5.05,0 -2.88,0 0,0.72 2.88,0 0,-0.72 0,0 z m -5.04,0 -2.88,0 0,0.72 2.88,0 0,-0.72 0,0 z m -5.04,0 -2.88,0 0,0.72 2.88,0 0,-0.72 0,0 z m -5.04,0 -2.88,0 0,0.72 2.88,0 0,-0.72 0,0 z m -5.05,0 -2.88,0 0,0.72 2.88,0 0,-0.72 0,0 z m -5.04,0 -0.32,0 0,0.72 0.32,0 0,-0.72 0,0 z" />
		</g><g
   transform="translate(365.087,-288.398)"
   v:groupContext="shape"
   v:mID="63"
   id="shape63-138">
			<title
   id="title296">Sheet.63</title>
			<path
   style="fill:#c0504d;stroke:none"
   inkscape:connector-curvature="0"
   id="path298"
   class="st11"
   d="m 0,606.31 c 0,-3.14 2.53,-5.69 5.64,-5.69 3.12,0 5.65,2.55 5.65,5.69 0,3.14 -2.53,5.69 -5.65,5.69 C 2.53,612 0,609.45 0,606.31 z" />
		</g><g
   transform="translate(365.087,-288.398)"
   v:groupContext="shape"
   v:mID="64"
   id="shape64-140">
			<title
   id="title301">Sheet.64</title>
			<path
   style="stroke:#8c3836;stroke-width:2.03901005;stroke-linecap:round;stroke-linejoin:round"
   inkscape:connector-curvature="0"
   id="path303"
   class="st12"
   d="m 0,606.31 c 0,-3.14 2.53,-5.69 5.64,-5.69 3.12,0 5.65,2.55 5.65,5.69 0,3.14 -2.53,5.69 -5.65,5.69 C 2.53,612 0,609.45 0,606.31" />
		</g>
<path
   d="m 436.52531,421.385 -77.97,0 0,13.23 77.97,0 0,-13.23"
   class="st6"
   id="path64-0"
   inkscape:connector-curvature="0"
   style="stroke:none" /><text
   x="287.28531"
   y="398.505"
   class="st7"
   v:langID="1033"
   id="text66-9"
   style="font-weight:bold;fill:#f79646;font-family:Calibri"><tspan
     style="fill:#8064a2;fill-opacity:1"
     id="tspan4261">About Announcement or Well-Known Name</tspan></text>
</svg>