<?xml version="1.0" encoding="UTF-8" standalone="no"?>
<!-- Generated by Microsoft Visio 11.0, SVG Export, v1.0 alljoyn-core-sessions.svg Page-1 -->

<svg
   xmlns:v="http://schemas.microsoft.com/visio/2003/SVGExtensions/"
   xmlns:dc="http://purl.org/dc/elements/1.1/"
   xmlns:cc="http://creativecommons.org/ns#"
   xmlns:rdf="http://www.w3.org/1999/02/22-rdf-syntax-ns#"
   xmlns:svg="http://www.w3.org/2000/svg"
   xmlns="http://www.w3.org/2000/svg"
   xmlns:sodipodi="http://sodipodi.sourceforge.net/DTD/sodipodi-0.dtd"
   xmlns:inkscape="http://www.inkscape.org/namespaces/inkscape"
   width="11in"
   height="8.5in"
   viewBox="0 0 792 612"
   xml:space="preserve"
   color-interpolation-filters="sRGB"
   class="st14"
   id="svg2"
   version="1.1"
   inkscape:version="0.48.5 r10040"
   sodipodi:docname="alljoyn-core-sessions.svg"><metadata
   id="metadata243"><rdf:RDF><cc:Work
       rdf:about=""><dc:format>image/svg+xml</dc:format><dc:type
         rdf:resource="http://purl.org/dc/dcmitype/StillImage" /><dc:title></dc:title></cc:Work></rdf:RDF></metadata><defs
   id="defs241" /><sodipodi:namedview
   pagecolor="#ffffff"
   bordercolor="#666666"
   borderopacity="1"
   objecttolerance="10"
   gridtolerance="10"
   guidetolerance="10"
   inkscape:pageopacity="0"
   inkscape:pageshadow="2"
   inkscape:window-width="640"
   inkscape:window-height="480"
   id="namedview239"
   showgrid="false"
   inkscape:zoom="0.30849673"
   inkscape:cx="495"
   inkscape:cy="382.5"
   inkscape:window-x="0"
   inkscape:window-y="0"
   inkscape:window-maximized="0"
   inkscape:current-layer="svg2" />
	<v:documentProperties
   v:langID="1033"
   v:viewMarkup="false">
		<v:userDefs>
			<v:ud
   v:nameU="msvNoAutoConnect"
   v:val="VT0(0):26" />
		</v:userDefs>
	</v:documentProperties>

	<style
   type="text/css"
   id="style4">
	
		.st1 {fill:#4f81bd;stroke:none;stroke-linecap:round;stroke-linejoin:round;stroke-width:0.75}
		.st2 {stroke:#385d8a;stroke-linecap:round;stroke-linejoin:round;stroke-width:2.03901}
		.st3 {stroke:none;stroke-linecap:round;stroke-linejoin:round;stroke-width:0.75}
		.st4 {fill:#ffffff;font-family:Calibri;font-size:1.32809em}
		.st5 {stroke:#c0504d;stroke-linecap:round;stroke-linejoin:round;stroke-width:2.03901}
		.st6 {fill:#c0504d;stroke:none;stroke-linecap:round;stroke-linejoin:round;stroke-width:0.75}
		.st7 {stroke:#8c3836;stroke-linecap:round;stroke-linejoin:round;stroke-width:2.03901}
		.st8 {fill:#ffffff;font-family:Calibri;font-size:0.998566em}
		.st9 {stroke:#4a7ebb;stroke-linecap:round;stroke-linejoin:round;stroke-width:0.719651}
		.st10 {fill:#000000;font-family:Calibri;font-size:0.878746em;font-weight:bold}
		.st11 {stroke:#9bbb59;stroke-linecap:round;stroke-linejoin:round;stroke-width:2.2789}
		.st12 {fill:#9bbb59;stroke:none;stroke-linecap:round;stroke-linejoin:round;stroke-width:0.75}
		.st13 {stroke:#9bbb59;stroke-linecap:round;stroke-linejoin:round;stroke-width:2.03901}
		.st14 {fill:none;fill-rule:evenodd;font-size:12px;overflow:visible;stroke-linecap:square;stroke-miterlimit:3}
	
	</style>

	<g
   v:mID="0"
   v:index="1"
   v:groupContext="foregroundPage"
   id="g6">
		<v:userDefs>
			<v:ud
   v:nameU="msvThemeColors"
   v:val="VT0(36):26" />
			<v:ud
   v:nameU="msvThemeEffects"
   v:val="VT0(16):26" />
			<v:ud
   v:nameU="msvThemeOrder"
   v:val="VT0(0):26" />
		</v:userDefs>
		<title
   id="title8">Page-1</title>
		<v:pageProperties
   v:drawingScale="1"
   v:pageScale="1"
   v:drawingUnits="0"
   v:shadowOffsetX="9"
   v:shadowOffsetY="-9" />
		<v:layer
   v:name="Flowchart"
   v:index="0" />
		<v:layer
   v:name="Connector"
   v:index="1" />
		<g
   id="shape3-1"
   v:mID="3"
   v:groupContext="shape"
   transform="translate(129.412,-324.344)">
			<title
   id="title11">Sheet.3</title>
			<path
   d="M0 558.08 L0 612 L64.83 612 L64.83 558.08 L0 558.08 L0 558.08 Z"
   class="st1"
   id="path13" />
		</g>
		<g
   id="shape4-3"
   v:mID="4"
   v:groupContext="shape"
   transform="translate(129.412,-324.344)">
			<title
   id="title16">Sheet.4</title>
			<path
   d="M0 558.08 L64.83 558.08 L64.83 612 L0 612 L0 558.08"
   class="st2"
   id="path18" />
		</g>
		<g
   id="shape5-6"
   v:mID="5"
   v:groupContext="shape"
   transform="translate(157.131,-339.693)">
			<title
   id="title21">Sheet.5</title>
			<desc
   id="desc23">A</desc>
			<v:textBlock
   v:margins="rect(0,0,0,0)" />
			<v:textRect
   cx="7.37607"
   cy="602.436"
   width="14.76"
   height="19.1281" />
			<path
   d="M14.75 592.87 L0 592.87 L0 612 L14.75 612 L14.75 592.87"
   class="st3"
   id="path25" />
			<text
   x="2.77"
   y="607.22"
   class="st4"
   v:langID="1033"
   id="text27"><v:paragraph
   v:horizAlign="1" /><v:tabList />A</text>
		</g>
		<g
   id="shape8-10"
   v:mID="8"
   v:groupContext="shape"
   transform="translate(161.827,-288.396)">
			<title
   id="title30">Sheet.8</title>
			<path
   d="M42.02 612 L0 576.05"
   class="st5"
   id="path32" />
		</g>
		<g
   id="shape9-13"
   v:mID="9"
   v:groupContext="shape"
   transform="translate(214.652,-324.344)">
			<title
   id="title35">Sheet.9</title>
			<path
   d="M0 558.08 L0 612 L64.83 612 L64.83 558.08 L0 558.08 L0 558.08 Z"
   class="st1"
   id="path37" />
		</g>
		<g
   id="shape10-15"
   v:mID="10"
   v:groupContext="shape"
   transform="translate(214.652,-324.344)">
			<title
   id="title40">Sheet.10</title>
			<path
   d="M0 558.08 L64.83 558.08 L64.83 612 L0 612 L0 558.08"
   class="st2"
   id="path42" />
		</g>
		<g
   id="shape11-18"
   v:mID="11"
   v:groupContext="shape"
   transform="translate(242.717,-339.693)">
			<title
   id="title45">Sheet.11</title>
			<desc
   id="desc47">B</desc>
			<v:textBlock
   v:margins="rect(0,0,0,0)" />
			<v:textRect
   cx="7.05831"
   cy="602.436"
   width="14.12"
   height="19.1281" />
			<path
   d="M14.12 592.87 L0 592.87 L0 612 L14.12 612 L14.12 592.87"
   class="st3"
   id="path49" />
			<text
   x="2.72"
   y="607.22"
   class="st4"
   v:langID="1033"
   id="text51"><v:paragraph
   v:horizAlign="1" /><v:tabList />B</text>
		</g>
		<g
   id="shape12-22"
   v:mID="12"
   v:groupContext="shape"
   transform="translate(171.432,-234.473)">
			<title
   id="title54">Sheet.12</title>
			<path
   d="M0 558.08 L0 612 L64.83 612 L64.83 558.08 L0 558.08 L0 558.08 Z"
   class="st1"
   id="path56" />
		</g>
		<g
   id="shape13-24"
   v:mID="13"
   v:groupContext="shape"
   transform="translate(171.432,-234.473)">
			<title
   id="title59">Sheet.13</title>
			<path
   d="M0 558.08 L64.83 558.08 L64.83 612 L0 612 L0 558.08"
   class="st2"
   id="path61" />
		</g>
		<g
   id="shape14-27"
   v:mID="14"
   v:groupContext="shape"
   transform="translate(200.109,-249.822)">
			<title
   id="title64">Sheet.14</title>
			<desc
   id="desc66">S</desc>
			<v:textBlock
   v:margins="rect(0,0,0,0)" />
			<v:textRect
   cx="6.28431"
   cy="602.436"
   width="12.57"
   height="19.1281" />
			<path
   d="M12.57 592.87 L0 592.87 L0 612 L12.57 612 L12.57 592.87"
   class="st3"
   id="path68" />
			<text
   x="2.62"
   y="607.22"
   class="st4"
   v:langID="1033"
   id="text70"><v:paragraph
   v:horizAlign="1" /><v:tabList />S</text>
		</g>
		<g
   id="shape17-31"
   v:mID="17"
   v:groupContext="shape"
   transform="translate(203.847,-288.396)">
			<title
   id="title73">Sheet.17</title>
			<path
   d="M0 612 L43.21 576.05"
   class="st5"
   id="path75" />
		</g>
		<g
   id="shape18-34"
   v:mID="18"
   v:groupContext="shape"
   transform="translate(198.444,-282.404)">
			<title
   id="title78">Sheet.18</title>
			<path
   d="M0 606.37 C-0 603.26 2.53 600.74 5.64 600.74 C8.76 600.74 11.29 603.26 11.29 606.37 C11.29 609.48 8.76 612 5.64        612 C2.53 612 -0 609.48 0 606.37 Z"
   class="st6"
   id="path80" />
		</g>
		<g
   id="shape19-36"
   v:mID="19"
   v:groupContext="shape"
   transform="translate(198.444,-282.404)">
			<title
   id="title83">Sheet.19</title>
			<path
   d="M0 606.37 C-0 603.26 2.53 600.74 5.64 600.74 C8.76 600.74 11.29 603.26 11.29 606.37 C11.29 609.48 8.76 612 5.64        612 C2.53 612 -0 609.48 0 606.37"
   class="st7"
   id="path85" />
		</g>
		<g
   id="shape22-39"
   v:mID="22"
   v:groupContext="shape"
   transform="translate(199.715,-279.887)">
			<title
   id="title88">Sheet.22</title>
			<desc
   id="desc90">1</desc>
			<v:textBlock
   v:margins="rect(0,0,0,0)" />
			<v:textRect
   cx="5.05183"
   cy="604.809"
   width="10.11"
   height="14.3829" />
			<path
   d="M10.1 597.62 L0 597.62 L0 612 L10.1 612 L10.1 597.62"
   class="st3"
   id="path92" />
			<text
   x="2.02"
   y="608.4"
   class="st8"
   v:langID="1033"
   id="text94"><v:paragraph
   v:horizAlign="1" /><v:tabList />1</text>
		</g>
		<g
   id="shape23-43"
   v:mID="23"
   v:groupContext="shape"
   transform="translate(362.38,-250.972)">
			<title
   id="title97">Sheet.23</title>
			<path
   d="M0 496.63 L0 612"
   class="st9"
   id="path99" />
		</g>
		<g
   id="shape24-46"
   v:mID="24"
   v:groupContext="shape"
   transform="translate(235.63,-288)">
			<title
   id="title102">Sheet.24</title>
			<desc
   id="desc104">Point-to-point session</desc>
			<v:textBlock
   v:margins="rect(0,0,0,0)" />
			<v:textRect
   cx="48.6851"
   cy="605.671"
   width="97.38"
   height="12.6575" />
			<path
   d="M97.37 599.34 L0 599.34 L0 612 L97.37 612 L97.37 599.34"
   class="st3"
   id="path106" />
			<text
   x="0.47"
   y="608.83"
   class="st10"
   v:langID="1033"
   id="text108"><v:paragraph
   v:horizAlign="1" /><v:tabList />Point-to-point session</text>
		</g>
		<g
   id="shape29-50"
   v:mID="29"
   v:groupContext="shape"
   transform="translate(474.572,-234.473)">
			<title
   id="title111">Sheet.29</title>
			<path
   d="M0 558.08 L0 612 L64.83 612 L64.83 558.08 L0 558.08 L0 558.08 Z"
   class="st1"
   id="path113" />
		</g>
		<g
   id="shape30-52"
   v:mID="30"
   v:groupContext="shape"
   transform="translate(474.572,-234.473)">
			<title
   id="title116">Sheet.30</title>
			<path
   d="M0 558.08 L64.83 558.08 L64.83 612 L0 612 L0 558.08"
   class="st2"
   id="path118" />
		</g>
		<g
   id="shape31-55"
   v:mID="31"
   v:groupContext="shape"
   transform="translate(503.285,-249.822)">
			<title
   id="title121">Sheet.31</title>
			<desc
   id="desc123">S</desc>
			<v:textBlock
   v:margins="rect(0,0,0,0)" />
			<v:textRect
   cx="6.28431"
   cy="602.436"
   width="12.57"
   height="19.1281" />
			<path
   d="M12.57 592.87 L0 592.87 L0 612 L12.57 612 L12.57 592.87"
   class="st3"
   id="path125" />
			<text
   x="2.62"
   y="607.22"
   class="st4"
   v:langID="1033"
   id="text127"><v:paragraph
   v:horizAlign="1" /><v:tabList />S</text>
		</g>
		<g
   id="shape32-59"
   v:mID="32"
   v:groupContext="shape"
   transform="translate(417.546,-301.472)">
			<title
   id="title130">Sheet.32</title>
			<path
   d="M0 589.13 L0 612"
   class="st11"
   id="path132" />
		</g>
		<g
   id="shape33-62"
   v:mID="33"
   v:groupContext="shape"
   transform="translate(488.979,-301.472)">
			<title
   id="title135">Sheet.33</title>
			<path
   d="M0 589.13 L0 612"
   class="st11"
   id="path137" />
		</g>
		<g
   id="shape34-65"
   v:mID="34"
   v:groupContext="shape"
   transform="translate(603.632,-301.472)">
			<title
   id="title140">Sheet.34</title>
			<path
   d="M0 589.13 L0 612"
   class="st11"
   id="path142" />
		</g>
		<g
   id="shape35-68"
   v:mID="35"
   v:groupContext="shape"
   transform="translate(416.946,-301.816)">
			<title
   id="title145">Sheet.35</title>
			<path
   d="M0 612 L187.29 612"
   class="st11"
   id="path147" />
		</g>
		<g
   id="shape36-71"
   v:mID="36"
   v:groupContext="shape"
   transform="translate(522.594,-281.565)">
			<title
   id="title150">Sheet.36</title>
			<path
   d="M0 591.75 L0 612"
   class="st11"
   id="path152" />
		</g>
		<g
   id="shape37-74"
   v:mID="37"
   v:groupContext="shape"
   transform="translate(384.531,-324.344)">
			<title
   id="title155">Sheet.37</title>
			<path
   d="M0 558.08 L0 612 L64.83 612 L64.83 558.08 L0 558.08 L0 558.08 Z"
   class="st1"
   id="path157" />
		</g>
		<g
   id="shape38-76"
   v:mID="38"
   v:groupContext="shape"
   transform="translate(384.531,-324.344)">
			<title
   id="title160">Sheet.38</title>
			<path
   d="M0 558.08 L64.83 558.08 L64.83 612 L0 612 L0 558.08"
   class="st2"
   id="path162" />
		</g>
		<g
   id="shape39-79"
   v:mID="39"
   v:groupContext="shape"
   transform="translate(412.285,-339.693)">
			<title
   id="title165">Sheet.39</title>
			<desc
   id="desc167">A</desc>
			<v:textBlock
   v:margins="rect(0,0,0,0)" />
			<v:textRect
   cx="7.37607"
   cy="602.436"
   width="14.76"
   height="19.1281" />
			<path
   d="M14.75 592.87 L0 592.87 L0 612 L14.75 612 L14.75 592.87"
   class="st3"
   id="path169" />
			<text
   x="2.77"
   y="607.22"
   class="st4"
   v:langID="1033"
   id="text171"><v:paragraph
   v:horizAlign="1" /><v:tabList />A</text>
		</g>
		<g
   id="shape40-83"
   v:mID="40"
   v:groupContext="shape"
   transform="translate(474.572,-324.344)">
			<title
   id="title174">Sheet.40</title>
			<path
   d="M0 558.08 L0 612 L64.83 612 L64.83 558.08 L0 558.08 L0 558.08 Z"
   class="st1"
   id="path176" />
		</g>
		<g
   id="shape41-85"
   v:mID="41"
   v:groupContext="shape"
   transform="translate(474.572,-324.344)">
			<title
   id="title179">Sheet.41</title>
			<path
   d="M0 558.08 L64.83 558.08 L64.83 612 L0 612 L0 558.08"
   class="st2"
   id="path181" />
		</g>
		<g
   id="shape42-88"
   v:mID="42"
   v:groupContext="shape"
   transform="translate(502.687,-339.693)">
			<title
   id="title184">Sheet.42</title>
			<desc
   id="desc186">B</desc>
			<v:textBlock
   v:margins="rect(0,0,0,0)" />
			<v:textRect
   cx="7.05831"
   cy="602.436"
   width="14.12"
   height="19.1281" />
			<path
   d="M14.12 592.87 L0 592.87 L0 612 L14.12 612 L14.12 592.87"
   class="st3"
   id="path188" />
			<text
   x="2.72"
   y="607.22"
   class="st4"
   v:langID="1033"
   id="text190"><v:paragraph
   v:horizAlign="1" /><v:tabList />B</text>
		</g>
		<g
   id="shape43-92"
   v:mID="43"
   v:groupContext="shape"
   transform="translate(571.817,-324.344)">
			<title
   id="title193">Sheet.43</title>
			<path
   d="M0 558.08 L0 612 L64.83 612 L64.83 558.08 L0 558.08 L0 558.08 Z"
   class="st1"
   id="path195" />
		</g>
		<g
   id="shape44-94"
   v:mID="44"
   v:groupContext="shape"
   transform="translate(571.817,-324.344)">
			<title
   id="title198">Sheet.44</title>
			<path
   d="M0 558.08 L64.83 558.08 L64.83 612 L0 612 L0 558.08"
   class="st2"
   id="path200" />
		</g>
		<g
   id="shape45-97"
   v:mID="45"
   v:groupContext="shape"
   transform="translate(599.918,-339.693)">
			<title
   id="title203">Sheet.45</title>
			<desc
   id="desc205">C</desc>
			<v:textBlock
   v:margins="rect(0,0,0,0)" />
			<v:textRect
   cx="6.95992"
   cy="602.436"
   width="13.92"
   height="19.1281" />
			<path
   d="M13.92 592.87 L0 592.87 L0 612 L13.92 612 L13.92 592.87"
   class="st3"
   id="path207" />
			<text
   x="2.71"
   y="607.22"
   class="st4"
   v:langID="1033"
   id="text209"><v:paragraph
   v:horizAlign="1" /><v:tabList />C</text>
		</g>
		<g
   id="shape46-101"
   v:mID="46"
   v:groupContext="shape"
   transform="translate(549,-286.171)">
			<title
   id="title212">Sheet.46</title>
			<desc
   id="desc214">Multi-point session</desc>
			<v:textBlock
   v:margins="rect(0,0,0,0)" />
			<v:textRect
   cx="42.5956"
   cy="605.671"
   width="85.2"
   height="12.6575" />
			<path
   d="M85.19 599.34 L0 599.34 L0 612 L85.19 612 L85.19 599.34"
   class="st3"
   id="path216" />
			<text
   x="0.39"
   y="608.83"
   class="st10"
   v:langID="1033"
   id="text218"><v:paragraph
   v:horizAlign="1" /><v:tabList />Multi-point session</text>
		</g>
		<g
   id="shape49-105"
   v:mID="49"
   v:groupContext="shape"
   transform="translate(516.712,-281.565)">
			<title
   id="title221">Sheet.49</title>
			<path
   d="M0 606.37 C0 603.27 2.57 600.74 5.7 600.74 C8.85 600.74 11.41 603.27 11.41 606.37 C11.41 609.48 8.85 612 5.7        612 C2.57 612 0 609.48 0 606.37 Z"
   class="st12"
   id="path223" />
		</g>
		<g
   id="shape50-107"
   v:mID="50"
   v:groupContext="shape"
   transform="translate(516.712,-281.565)">
			<title
   id="title226">Sheet.50</title>
			<path
   d="M0 606.37 C0 603.27 2.57 600.74 5.7 600.74 C8.85 600.74 11.41 603.27 11.41 606.37 C11.41 609.48 8.85 612 5.7        612 C2.57 612 0 609.48 0 606.37"
   class="st13"
   id="path228" />
		</g>
		<g
   id="shape51-110"
   v:mID="51"
   v:groupContext="shape"
   transform="translate(518.056,-279.138)">
			<title
   id="title231">Sheet.51</title>
			<desc
   id="desc233">2</desc>
			<v:textBlock
   v:margins="rect(0,0,0,0)" />
			<v:textRect
   cx="5.05183"
   cy="604.809"
   width="10.11"
   height="14.3829" />
			<path
   d="M10.1 597.62 L0 597.62 L0 612 L10.1 612 L10.1 597.62"
   class="st3"
   id="path235" />
			<text
   x="2.02"
   y="608.4"
   class="st8"
   v:langID="1033"
   id="text237"><v:paragraph
   v:horizAlign="1" /><v:tabList />2</text>
		</g>
	</g>
</svg>