<?xml version="1.0" encoding="UTF-8" standalone="no"?>
<!DOCTYPE svg PUBLIC "-//W3C//DTD SVG 1.0//EN" "http://www.w3.org/TR/2001/REC-SVG-20010904/DTD/svg10.dtd">
<!-- Generated by Microsoft Visio 11.0, SVG Export, v1.0 apps-and-routers.svg Page-1 -->
<svg xmlns="http://www.w3.org/2000/svg" xmlns:xlink="http://www.w3.org/1999/xlink" xmlns:ev="http://www.w3.org/2001/xml-events"
		xmlns:v="http://schemas.microsoft.com/visio/2003/SVGExtensions/" width="11in" height="8.5in" viewBox="0 0 792 612"
		xml:space="preserve" color-interpolation-filters="sRGB" class="st12">
	<v:documentProperties v:langID="1033" v:viewMarkup="false">
		<v:userDefs>
			<v:ud v:nameU="msvNoAutoConnect" v:val="VT0(0):26"/>
		</v:userDefs>
	</v:documentProperties>

	<style type="text/css">
	<![CDATA[
		.st1 {fill:#e2f5fc;stroke:none;stroke-linecap:round;stroke-linejoin:round;stroke-width:0.75}
		.st2 {fill:#70cfee;stroke:none;stroke-linecap:round;stroke-linejoin:round;stroke-width:0.75}
		.st3 {stroke:#5098af;stroke-linecap:round;stroke-linejoin:round;stroke-width:2.03901}
		.st4 {stroke:none;stroke-linecap:round;stroke-linejoin:round;stroke-width:0.75}
		.st5 {fill:#ffffff;font-family:Calibri;font-size:1.16833em}
		.st6 {fill:#f7921e;stroke:none;stroke-linecap:round;stroke-linejoin:round;stroke-width:0.75}
		.st7 {stroke:#b66a13;stroke-linecap:round;stroke-linejoin:round;stroke-width:2.03901}
		.st8 {stroke:#70cfee;stroke-linecap:round;stroke-linejoin:round;stroke-width:2.03901}
		.st9 {stroke:#fcb53b;stroke-linecap:round;stroke-linejoin:round;stroke-width:2.03901}
		.st10 {fill:#404040;font-family:Calibri;font-size:1.16833em}
		.st11 {fill:#404040;stroke:none;stroke-linecap:round;stroke-linejoin:round;stroke-width:0.75}
		.st12 {fill:none;fill-rule:evenodd;font-size:12px;overflow:visible;stroke-linecap:square;stroke-miterlimit:3}
	]]>
	</style>

	<defs id="Patterns_And_Gradients">
		<linearGradient id="grad30-144" v:fillPattern="30" v:foreground="#f0f0f0" v:background="#ffffff" x1="0" y1="1" x2="0"
				y2="0">
			<stop offset="0" style="stop-color:#f0f0f0;stop-opacity:1"/>
			<stop offset="1" style="stop-color:#ffffff;stop-opacity:1"/>
		</linearGradient>
	</defs>
	<g v:mID="0" v:index="1" v:groupContext="foregroundPage">
		<v:userDefs>
			<v:ud v:nameU="msvThemeColors" v:val="VT0(36):26"/>
			<v:ud v:nameU="msvThemeEffects" v:val="VT0(16):26"/>
			<v:ud v:nameU="msvThemeOrder" v:val="VT0(0):26"/>
		</v:userDefs>
		<title>Page-1</title>
		<v:pageProperties v:drawingScale="1" v:pageScale="1" v:drawingUnits="0" v:shadowOffsetX="9" v:shadowOffsetY="-9"/>
		<v:layer v:name="Flowchart" v:index="0"/>
		<v:layer v:name="Connector" v:index="1"/>
		<g id="shape3-1" v:mID="3" v:groupContext="shape" transform="translate(489.042,-120.223)">
			<title>Sheet.3</title>
			<path d="M0 396.43 L0 612 L198.09 612 L198.09 396.43 L0 396.43 L0 396.43 Z" class="st1"/>
		</g>
		<g id="shape4-3" v:mID="4" v:groupContext="shape" transform="translate(549.07,-366.71)">
			<title>Sheet.4</title>
			<path d="M0 488.58 L0 612 L113.81 612 L113.81 488.58 L0 488.58 L0 488.58 Z" class="st1"/>
		</g>
		<g id="shape5-5" v:mID="5" v:groupContext="shape" transform="translate(104.864,-149.102)">
			<title>Sheet.5</title>
			<path d="M0 343.11 L0 612 L192.09 612 L192.09 343.11 L0 343.11 L0 343.11 Z" class="st1"/>
		</g>
		<g id="shape6-7" v:mID="6" v:groupContext="shape" transform="translate(203.49,-324.231)">
			<title>Sheet.6</title>
			<path d="M0 546.09 L0 612 L66.03 612 L66.03 546.09 L0 546.09 L0 546.09 Z" class="st2"/>
		</g>
		<g id="shape7-9" v:mID="7" v:groupContext="shape" transform="translate(203.49,-324.231)">
			<title>Sheet.7</title>
			<path d="M0 546.09 L66.03 546.09 L66.03 612 L0 612 L0 546.09" class="st3"/>
		</g>
		<g id="shape8-12" v:mID="8" v:groupContext="shape" transform="translate(221.969,-347.068)">
			<title>Sheet.8</title>
			<desc>App</desc>
			<v:textBlock v:margins="rect(0,0,0,0)"/>
			<v:textRect cx="14.9599" cy="603.586" width="29.92" height="16.8275"/>
			<path d="M29.92 595.17 L0 595.17 L0 612 L29.92 612 L29.92 595.17" class="st4"/>
			<text x="3.54" y="607.79" class="st5" v:langID="1033"><v:paragraph v:horizAlign="1"/><v:tabList/>App</text>		</g>
		<g id="shape9-16" v:mID="9" v:groupContext="shape" transform="translate(200.369,-256.168)">
			<title>Sheet.9</title>
			<path d="M0 578.27 C-0 559.64 15.13 544.54 33.8 544.54 C52.46 544.54 67.59 559.64 67.59 578.27 C67.59 596.9 52.46 612
						 33.8 612 C15.13 612 0 596.9 0 578.27 Z" class="st6"/>
		</g>
		<g id="shape10-18" v:mID="10" v:groupContext="shape" transform="translate(200.369,-256.168)">
			<title>Sheet.10</title>
			<path d="M0 578.27 C-0 559.64 15.13 544.54 33.8 544.54 C52.46 544.54 67.59 559.64 67.59 578.27 C67.59 596.9 52.46 612
						 33.8 612 C15.13 612 0 596.9 0 578.27" class="st7"/>
		</g>
		<g id="shape11-21" v:mID="11" v:groupContext="shape" transform="translate(213.285,-282.646)">
			<title>Sheet.11</title>
			<desc>Router</desc>
			<v:textBlock v:margins="rect(0,0,0,0)"/>
			<v:textRect cx="24.2101" cy="603.586" width="48.43" height="16.8275"/>
			<path d="M48.42 595.17 L0 595.17 L0 612 L48.42 612 L48.42 595.17" class="st4"/>
			<text x="4.74" y="607.79" class="st5" v:langID="1033"><v:paragraph v:horizAlign="1"/><v:tabList/>Router</text>		</g>
		<g id="shape12-25" v:mID="12" v:groupContext="shape" transform="translate(572.901,-384.984)">
			<title>Sheet.12</title>
			<path d="M0 546.09 L0 612 L66.03 612 L66.03 546.09 L0 546.09 L0 546.09 Z" class="st2"/>
		</g>
		<g id="shape13-27" v:mID="13" v:groupContext="shape" transform="translate(572.901,-384.984)">
			<title>Sheet.13</title>
			<path d="M0 546.09 L66.03 546.09 L66.03 612 L0 612 L0 546.09" class="st3"/>
		</g>
		<g id="shape14-30" v:mID="14" v:groupContext="shape" transform="translate(591.373,-407.825)">
			<title>Sheet.14</title>
			<desc>App</desc>
			<v:textBlock v:margins="rect(0,0,0,0)"/>
			<v:textRect cx="14.9599" cy="603.586" width="29.92" height="16.8275"/>
			<path d="M29.92 595.17 L0 595.17 L0 612 L29.92 612 L29.92 595.17" class="st4"/>
			<text x="3.54" y="607.79" class="st5" v:langID="1033"><v:paragraph v:horizAlign="1"/><v:tabList/>App</text>		</g>
		<g id="shape17-34" v:mID="17" v:groupContext="shape" transform="translate(560.775,-286.455)">
			<title>Sheet.17</title>
			<path d="M45.17 513.47 L0 612" class="st8"/>
		</g>
		<g id="shape20-37" v:mID="20" v:groupContext="shape" transform="translate(267.96,-262.534)">
			<title>Sheet.20</title>
			<path d="M235.16 612 L0 584.69" class="st9"/>
		</g>
		<g id="shape21-40" v:mID="21" v:groupContext="shape" transform="translate(503.029,-228.847)">
			<title>Sheet.21</title>
			<path d="M0 578.27 C-0 559.65 15.14 544.54 33.8 544.54 C52.46 544.54 67.59 559.65 67.59 578.27 C67.59 596.9 52.46 612
						 33.8 612 C15.14 612 0 596.9 0 578.27 Z" class="st6"/>
		</g>
		<g id="shape22-42" v:mID="22" v:groupContext="shape" transform="translate(503.029,-228.847)">
			<title>Sheet.22</title>
			<path d="M0 578.27 C-0 559.65 15.14 544.54 33.8 544.54 C52.46 544.54 67.59 559.65 67.59 578.27 C67.59 596.9 52.46 612
						 33.8 612 C15.14 612 0 596.9 0 578.27" class="st7"/>
		</g>
		<g id="shape23-45" v:mID="23" v:groupContext="shape" transform="translate(515.961,-255.346)">
			<title>Sheet.23</title>
			<desc>Router</desc>
			<v:textBlock v:margins="rect(0,0,0,0)"/>
			<v:textRect cx="24.2101" cy="603.586" width="48.43" height="16.8275"/>
			<path d="M48.42 595.17 L0 595.17 L0 612 L48.42 612 L48.42 595.17" class="st4"/>
			<text x="4.74" y="607.79" class="st5" v:langID="1033"><v:paragraph v:horizAlign="1"/><v:tabList/>Router</text>		</g>
		<g id="shape24-49" v:mID="24" v:groupContext="shape" transform="translate(200.969,-161.504)">
			<title>Sheet.24</title>
			<path d="M0 578.33 C-0 559.74 15.11 544.66 33.74 544.66 C52.37 544.66 67.47 559.74 67.47 578.33 C67.47 596.93 52.37 612
						 33.74 612 C15.11 612 0 596.93 0 578.33 Z" class="st6"/>
		</g>
		<g id="shape25-51" v:mID="25" v:groupContext="shape" transform="translate(200.969,-161.504)">
			<title>Sheet.25</title>
			<path d="M0 578.33 C-0 559.74 15.11 544.66 33.74 544.66 C52.37 544.66 67.47 559.74 67.47 578.33 C67.47 596.93 52.37 612
						 33.74 612 C15.11 612 0 596.93 0 578.33" class="st7"/>
		</g>
		<g id="shape26-54" v:mID="26" v:groupContext="shape" transform="translate(213.793,-187.916)">
			<title>Sheet.26</title>
			<desc>Router</desc>
			<v:textBlock v:margins="rect(0,0,0,0)"/>
			<v:textRect cx="24.2101" cy="603.586" width="48.43" height="16.8275"/>
			<path d="M48.42 595.17 L0 595.17 L0 612 L48.42 612 L48.42 595.17" class="st4"/>
			<text x="4.74" y="607.79" class="st5" v:langID="1033"><v:paragraph v:horizAlign="1"/><v:tabList/>Router</text>		</g>
		<g id="shape27-58" v:mID="27" v:groupContext="shape" transform="translate(132.177,-161.025)">
			<title>Sheet.27</title>
			<path d="M0 546.09 L0 612 L66.03 612 L66.03 546.09 L0 546.09 L0 546.09 Z" class="st2"/>
		</g>
		<g id="shape28-60" v:mID="28" v:groupContext="shape" transform="translate(132.177,-161.025)">
			<title>Sheet.28</title>
			<path d="M0 546.09 L66.03 546.09 L66.03 612 L0 612 L0 546.09" class="st3"/>
		</g>
		<g id="shape29-63" v:mID="29" v:groupContext="shape" transform="translate(150.75,-183.903)">
			<title>Sheet.29</title>
			<desc>App</desc>
			<v:textBlock v:margins="rect(0,0,0,0)"/>
			<v:textRect cx="14.9599" cy="603.586" width="29.92" height="16.8275"/>
			<path d="M29.92 595.17 L0 595.17 L0 612 L29.92 612 L29.92 595.17" class="st4"/>
			<text x="3.54" y="607.79" class="st5" v:langID="1033"><v:paragraph v:horizAlign="1"/><v:tabList/>App</text>		</g>
		<g id="shape32-67" v:mID="32" v:groupContext="shape" transform="translate(234.224,-228.832)">
			<title>Sheet.32</title>
			<path d="M0.51 612 L0 584.66" class="st9"/>
		</g>
		<g id="shape33-70" v:mID="33" v:groupContext="shape" transform="translate(506.985,-133.824)">
			<title>Sheet.33</title>
			<path d="M0 546.09 L0 612 L66.03 612 L66.03 546.09 L0 546.09 L0 546.09 Z" class="st2"/>
		</g>
		<g id="shape34-72" v:mID="34" v:groupContext="shape" transform="translate(506.985,-133.824)">
			<title>Sheet.34</title>
			<path d="M0 546.09 L66.03 546.09 L66.03 612 L0 612 L0 546.09" class="st3"/>
		</g>
		<g id="shape35-75" v:mID="35" v:groupContext="shape" transform="translate(525.456,-156.751)">
			<title>Sheet.35</title>
			<desc>App</desc>
			<v:textBlock v:margins="rect(0,0,0,0)"/>
			<v:textRect cx="14.9599" cy="603.586" width="29.92" height="16.8275"/>
			<path d="M29.92 595.17 L0 595.17 L0 612 L29.92 612 L29.92 595.17" class="st4"/>
			<text x="3.54" y="607.79" class="st5" v:langID="1033"><v:paragraph v:horizAlign="1"/><v:tabList/>App</text>		</g>
		<g id="shape36-79" v:mID="36" v:groupContext="shape" transform="translate(604.596,-228.608)">
			<title>Sheet.36</title>
			<path d="M0 546.09 L0 612 L66.03 612 L66.03 546.09 L0 546.09 L0 546.09 Z" class="st2"/>
		</g>
		<g id="shape37-81" v:mID="37" v:groupContext="shape" transform="translate(604.596,-228.608)">
			<title>Sheet.37</title>
			<path d="M0 546.09 L66.03 546.09 L66.03 612 L0 612 L0 546.09" class="st3"/>
		</g>
		<g id="shape38-84" v:mID="38" v:groupContext="shape" transform="translate(623.167,-251.48)">
			<title>Sheet.38</title>
			<desc>App</desc>
			<v:textBlock v:margins="rect(0,0,0,0)"/>
			<v:textRect cx="14.9599" cy="603.586" width="29.92" height="16.8275"/>
			<path d="M29.92 595.17 L0 595.17 L0 612 L29.92 612 L29.92 595.17" class="st4"/>
			<text x="3.54" y="607.79" class="st5" v:langID="1033"><v:paragraph v:horizAlign="1"/><v:tabList/>App</text>		</g>
		<g id="shape47-88" v:mID="47" v:groupContext="shape" transform="translate(268.44,-195.445)">
			<title>Sheet.47</title>
			<path d="M0 612 L234.65 545.88" class="st9"/>
		</g>
		<g id="shape48-91" v:mID="48" v:groupContext="shape" transform="translate(311,-368.028)">
			<title>Sheet.48</title>
			<path d="M0 489.9 L0 612 L113.81 612 L113.81 489.9 L0 489.9 L0 489.9 Z" class="st1"/>
		</g>
		<g id="shape51-93" v:mID="51" v:groupContext="shape" transform="translate(264.838,-304.279)">
			<title>Sheet.51</title>
			<path d="M101.03 531.54 L0 612" class="st8"/>
		</g>
		<g id="shape52-96" v:mID="52" v:groupContext="shape" transform="translate(332.79,-384.744)">
			<title>Sheet.52</title>
			<path d="M0 546.09 L0 612 L66.03 612 L66.03 546.09 L0 546.09 L0 546.09 Z" class="st2"/>
		</g>
		<g id="shape53-98" v:mID="53" v:groupContext="shape" transform="translate(332.79,-384.744)">
			<title>Sheet.53</title>
			<path d="M0 546.09 L66.03 546.09 L66.03 612 L0 612 L0 546.09" class="st3"/>
		</g>
		<g id="shape54-101" v:mID="54" v:groupContext="shape" transform="translate(351.327,-407.658)">
			<title>Sheet.54</title>
			<desc>App</desc>
			<v:textBlock v:margins="rect(0,0,0,0)"/>
			<v:textRect cx="14.9599" cy="603.586" width="29.92" height="16.8275"/>
			<path d="M29.92 595.17 L0 595.17 L0 612 L29.92 612 L29.92 595.17" class="st4"/>
			<text x="3.54" y="607.79" class="st5" v:langID="1033"><v:paragraph v:horizAlign="1"/><v:tabList/>App</text>		</g>
		<g id="shape55-105" v:mID="55" v:groupContext="shape" transform="translate(153.628,-396.818)">
			<title>Sheet.55</title>
			<desc>Mobile App</desc>
			<v:textBlock v:margins="rect(0,0,0,0)"/>
			<v:textRect cx="39.8724" cy="603.586" width="79.75" height="16.8275"/>
			<path d="M79.74 595.17 L0 595.17 L0 612 L79.74 612 L79.74 595.17" class="st4"/>
			<text x="6.79" y="607.79" class="st10" v:langID="1033"><v:paragraph v:horizAlign="1"/><v:tabList/>Mobile App</text>		</g>
		<g id="shape56-109" v:mID="56" v:groupContext="shape" transform="translate(160.768,-399.76)">
			<title>Sheet.56</title>
			<path d="M0 611.04 L33.08 611.04 L66.15 611.04 L66.15 612 L33.08 612 L0 612 L0 611.04 Z" class="st11"/>
		</g>
		<g id="shape57-111" v:mID="57" v:groupContext="shape" transform="translate(330.75,-469.739)">
			<title>Sheet.57</title>
			<desc>Embedded</desc>
			<v:textBlock v:margins="rect(0,0,0,0)"/>
			<v:textRect cx="38.987" cy="603.586" width="77.98" height="16.8275"/>
			<path d="M77.97 595.17 L0 595.17 L0 612 L77.97 612 L77.97 595.17" class="st4"/>
			<text x="8.26" y="607.79" class="st10" v:langID="1033"><v:paragraph v:horizAlign="1"/><v:tabList/>Embedded  </text>		</g>
		<g id="shape58-115" v:mID="58" v:groupContext="shape" transform="translate(338.35,-472.683)">
			<title>Sheet.58</title>
			<path d="M0 611.04 L20.41 611.04 L40.82 611.04 L61.23 611.04 L61.23 612 L40.82 612 L20.41 612 L0 612 L0 611.04 Z"
					class="st11"/>
		</g>
		<g id="shape59-117" v:mID="59" v:groupContext="shape" transform="translate(342.395,-454.64)">
			<title>Sheet.59</title>
			<desc>Device</desc>
			<v:textBlock v:margins="rect(0,0,0,0)"/>
			<v:textRect cx="23.7062" cy="603.586" width="47.42" height="16.8275"/>
			<path d="M47.41 595.17 L0 595.17 L0 612 L47.41 612 L47.41 595.17" class="st4"/>
			<text x="4.68" y="607.79" class="st10" v:langID="1033"><v:paragraph v:horizAlign="1"/><v:tabList/>Device</text>		</g>
		<g id="shape60-121" v:mID="60" v:groupContext="shape" transform="translate(347.295,-457.585)">
			<title>Sheet.60</title>
			<path d="M0 611.04 L18.97 611.04 L37.94 611.04 L37.94 612 L18.97 612 L0 612 L0 611.04 Z" class="st11"/>
		</g>
		<g id="shape61-123" v:mID="61" v:groupContext="shape" transform="translate(566.118,-468.224)">
			<title>Sheet.61</title>
			<desc>Embedded</desc>
			<v:textBlock v:margins="rect(0,0,0,0)"/>
			<v:textRect cx="38.987" cy="603.586" width="77.98" height="16.8275"/>
			<path d="M77.97 595.17 L0 595.17 L0 612 L77.97 612 L77.97 595.17" class="st4"/>
			<text x="8.26" y="607.79" class="st10" v:langID="1033"><v:paragraph v:horizAlign="1"/><v:tabList/>Embedded  </text>		</g>
		<g id="shape62-127" v:mID="62" v:groupContext="shape" transform="translate(574.612,-471.17)">
			<title>Sheet.62</title>
			<path d="M0 611.04 L20.41 611.04 L40.82 611.04 L61.23 611.04 L61.23 612 L40.82 612 L20.41 612 L0 612 L0 611.04 Z"
					class="st11"/>
		</g>
		<g id="shape63-129" v:mID="63" v:groupContext="shape" transform="translate(581.364,-453.125)">
			<title>Sheet.63</title>
			<desc>Device</desc>
			<v:textBlock v:margins="rect(0,0,0,0)"/>
			<v:textRect cx="23.7062" cy="603.586" width="47.42" height="16.8275"/>
			<path d="M47.41 595.17 L0 595.17 L0 612 L47.41 612 L47.41 595.17" class="st4"/>
			<text x="4.68" y="607.79" class="st10" v:langID="1033"><v:paragraph v:horizAlign="1"/><v:tabList/>Device</text>		</g>
		<g id="shape64-133" v:mID="64" v:groupContext="shape" transform="translate(586.257,-456.072)">
			<title>Sheet.64</title>
			<path d="M0 611.04 L18.97 611.04 L37.94 611.04 L37.94 612 L18.97 612 L0 612 L0 611.04 Z" class="st11"/>
		</g>
		<g id="shape65-135" v:mID="65" v:groupContext="shape" transform="translate(496.255,-315.306)">
			<title>Sheet.65</title>
			<desc>Router</desc>
			<v:textBlock v:margins="rect(0,0,0,0)"/>
			<v:textRect cx="24.2101" cy="603.586" width="48.43" height="16.8275"/>
			<path d="M48.42 595.17 L0 595.17 L0 612 L48.42 612 L48.42 595.17" class="st4"/>
			<text x="4.74" y="607.79" class="st10" v:langID="1033"><v:paragraph v:horizAlign="1"/><v:tabList/>Router</text>		</g>
		<g id="shape66-139" v:mID="66" v:groupContext="shape" transform="translate(501.151,-318.254)">
			<title>Sheet.66</title>
			<path d="M0 611.04 L0 612 L38.66 612 L38.66 611.04 L0 611.04 L0 611.04 Z" class="st11"/>
		</g>
		<g id="shape1-141" v:mID="1" v:groupContext="shape" v:layerMember="1" transform="translate(528.75,-228.941)">
			<title>Dynamic connector</title>
			<v:userDefs>
				<v:ud v:nameU="msvThemeColors" v:val="VT0(36):26"/>
				<v:ud v:nameU="msvThemeEffects" v:val="VT0(16):26"/>
			</v:userDefs>
			<path d="M9 612 L9 643.5" class="st8"/>
		</g>
		<g id="shape2-146" v:mID="2" v:groupContext="shape" v:layerMember="1" transform="translate(570.581,-251.936)">
			<title>Dynamic connector.2</title>
			<v:userDefs>
				<v:ud v:nameU="msvThemeColors" v:val="VT0(36):26"/>
				<v:ud v:nameU="msvThemeEffects" v:val="VT0(16):26"/>
			</v:userDefs>
			<path d="M0 603 L0 602.72 L33.75 602.72 L33.75 603" class="st8"/>
		</g>
	</g>
</svg>
