<?xml version="1.0" encoding="UTF-8" standalone="no"?>
<!DOCTYPE svg PUBLIC "-//W3C//DTD SVG 1.0//EN" "http://www.w3.org/TR/2001/REC-SVG-20010904/DTD/svg10.dtd">
<!-- Generated by Microsoft Visio 11.0, SVG Export, v1.0 Drawing295.svg Page-1 -->
<svg xmlns="http://www.w3.org/2000/svg" xmlns:xlink="http://www.w3.org/1999/xlink" xmlns:ev="http://www.w3.org/2001/xml-events"
		xmlns:v="http://schemas.microsoft.com/visio/2003/SVGExtensions/" width="11in" height="8.5in" viewBox="0 0 792 612"
		xml:space="preserve" color-interpolation-filters="sRGB" class="st12">
	<v:documentProperties v:langID="1033" v:viewMarkup="false">
		<v:userDefs>
			<v:ud v:nameU="msvNoAutoConnect" v:val="VT0(0):26"/>
		</v:userDefs>
	</v:documentProperties>

	<style type="text/css">
	<![CDATA[
		.st1 {visibility:visible}
		.st2 {fill:#cdcdcd;fill-opacity:0.5;stroke:#cdcdcd;stroke-linecap:round;stroke-linejoin:round;stroke-opacity:0.5;stroke-width:0.25}
		.st3 {fill:url(#grad30-6);stroke:#404040;stroke-linecap:round;stroke-linejoin:round;stroke-width:0.25}
		.st4 {fill:url(#grad30-12);stroke:#404040;stroke-linecap:round;stroke-linejoin:round;stroke-width:0.25}
		.st5 {fill:none;stroke:none;stroke-linecap:round;stroke-linejoin:round;stroke-width:0.25}
		.st6 {fill:#000000;font-family:Calibri;font-size:1.00001em}
		.st7 {fill:#000000;font-family:Calibri;font-size:0.666664em}
		.st8 {fill:#000000;font-family:Calibri;font-size:0.833336em}
		.st9 {font-size:1em}
		.st10 {fill:url(#grad30-87);stroke:#404040;stroke-linecap:round;stroke-linejoin:round;stroke-width:0.25}
		.st11 {stroke:#404040;stroke-linecap:round;stroke-linejoin:round;stroke-width:1}
		.st12 {fill:none;fill-rule:evenodd;font-size:12px;overflow:visible;stroke-linecap:square;stroke-miterlimit:3}
	]]>
	</style>

	<defs id="Patterns_And_Gradients">
		<linearGradient id="grad30-6" v:fillPattern="30" v:foreground="#c9c9c9" v:background="#d8d8d8" x1="0" y1="1" x2="0" y2="0">
			<stop offset="0" style="stop-color:#c9c9c9;stop-opacity:1"/>
			<stop offset="1" style="stop-color:#d8d8d8;stop-opacity:1"/>
		</linearGradient>
		<linearGradient id="grad30-12" v:fillPattern="30" v:foreground="#f0f0f0" v:background="#ffffff" x1="0" y1="1" x2="0" y2="0">
			<stop offset="0" style="stop-color:#f0f0f0;stop-opacity:1"/>
			<stop offset="1" style="stop-color:#ffffff;stop-opacity:1"/>
		</linearGradient>
		<linearGradient id="grad30-87" v:fillPattern="30" v:foreground="#f2c59f" v:background="#f6d5b9" x1="0" y1="1" x2="0" y2="0">
			<stop offset="0" style="stop-color:#f2c59f;stop-opacity:1"/>
			<stop offset="1" style="stop-color:#f6d5b9;stop-opacity:1"/>
		</linearGradient>
	</defs>
	<g v:mID="0" v:index="1" v:groupContext="foregroundPage">
		<v:userDefs>
			<v:ud v:nameU="msvThemeColors" v:val="VT0(36):26"/>
			<v:ud v:nameU="msvThemeEffects" v:val="VT0(16):26"/>
			<v:ud v:nameU="msvThemeOrder" v:val="VT0(0):26"/>
		</v:userDefs>
		<title>Page-1</title>
		<v:pageProperties v:drawingScale="1" v:pageScale="1" v:drawingUnits="0" v:shadowOffsetX="9" v:shadowOffsetY="-9"/>
		<v:layer v:name="Connector" v:index="0"/>
		<g id="shape1-1" v:mID="1" v:groupContext="shape" transform="translate(149.344,-184.5)">
			<title>Rounded rectangle</title>
			<v:userDefs>
				<v:ud v:nameU="visVersion" v:val="VT0(14):26"/>
				<v:ud v:nameU="msvThemeColors" v:val="VT0(36):26"/>
				<v:ud v:nameU="msvThemeEffects" v:val="VT0(16):26"/>
			</v:userDefs>
			<g id="shadow1-2" v:groupContext="shadow" v:shadowOffsetX="1.44" v:shadowOffsetY="-1.44" v:shadowType="1"
					transform="matrix(1,0,0,1,1.44,1.44)" class="st1">
				<path d="M252.87 612 A9.00007 9.00007 -180 0 0 261.87 603 L261.87 378 A9.00007 9.00007 -180 0 0 252.87 369 L9 369
							 A9.00007 9.00007 -180 0 0 -0 378 L0 603 A9.00007 9.00007 -180 0 0 9 612 L252.87 612 Z" class="st2"/>
			</g>
			<path d="M252.87 612 A9.00007 9.00007 -180 0 0 261.87 603 L261.87 378 A9.00007 9.00007 -180 0 0 252.87 369 L9 369 A9.00007
						 9.00007 -180 0 0 -0 378 L0 603 A9.00007 9.00007 -180 0 0 9 612 L252.87 612 Z" class="st3"/>
		</g>
		<g id="shape2-7" v:mID="2" v:groupContext="shape" transform="translate(159.469,-337.5)">
			<title>Rectangle</title>
			<v:userDefs>
				<v:ud v:nameU="visVersion" v:val="VT0(14):26"/>
				<v:ud v:nameU="msvThemeColors" v:val="VT0(36):26"/>
				<v:ud v:nameU="msvThemeEffects" v:val="VT0(16):26"/>
			</v:userDefs>
			<g id="shadow2-8" v:groupContext="shadow" v:shadowOffsetX="1.44" v:shadowOffsetY="-1.44" v:shadowType="1"
					transform="matrix(1,0,0,1,1.44,1.44)" class="st1">
				<rect x="0" y="559.125" width="121.96" height="52.875" class="st2"/>
			</g>
			<rect x="0" y="559.125" width="121.96" height="52.875" class="st4"/>
		</g>
		<g id="shape3-13" v:mID="3" v:groupContext="shape" transform="translate(184.139,-404.863)">
			<title>Sheet.3</title>
			<desc>AllJoyn Service Device</desc>
			<v:userDefs>
				<v:ud v:nameU="msvThemeColors" v:val="VT0(36):26"/>
				<v:ud v:nameU="msvThemeEffects" v:val="VT0(16):26"/>
			</v:userDefs>
			<v:textBlock v:margins="rect(4,4,4,4)"/>
			<v:textRect cx="95.9397" cy="604" width="191.88" height="16"/>
			<rect x="0" y="596" width="191.879" height="16" class="st5"/>
			<text x="42.33" y="607.6" class="st6" v:langID="1033"><v:paragraph v:horizAlign="1"/><v:tabList/>AllJoyn Service Device</text>		</g>
		<g id="shape4-16" v:mID="4" v:groupContext="shape" transform="translate(162.844,-253.688)">
			<title>Rectangle.4</title>
			<v:userDefs>
				<v:ud v:nameU="visVersion" v:val="VT0(14):26"/>
				<v:ud v:nameU="msvThemeColors" v:val="VT0(36):26"/>
				<v:ud v:nameU="msvThemeEffects" v:val="VT0(16):26"/>
			</v:userDefs>
			<g id="shadow4-17" v:groupContext="shadow" v:shadowOffsetX="1.44" v:shadowOffsetY="-1.44" v:shadowType="1"
					transform="matrix(1,0,0,1,1.44,1.44)" class="st1">
				<rect x="0" y="548.438" width="230.772" height="63.5625" class="st2"/>
			</g>
			<rect x="0" y="548.438" width="230.772" height="63.5625" class="st4"/>
		</g>
		<g id="shape5-21" v:mID="5" v:groupContext="shape" transform="translate(241.292,-342.643)">
			<title>Rectangle.5</title>
			<desc>AJ API</desc>
			<v:userDefs>
				<v:ud v:nameU="visVersion" v:val="VT0(14):26"/>
				<v:ud v:nameU="msvThemeColors" v:val="VT0(36):26"/>
				<v:ud v:nameU="msvThemeEffects" v:val="VT0(16):26"/>
			</v:userDefs>
			<v:textBlock v:margins="rect(4,4,4,4)"/>
			<v:textRect cx="18" cy="603.321" width="36" height="17.3571"/>
			<g id="shadow5-22" v:groupContext="shadow" v:shadowOffsetX="1.44" v:shadowOffsetY="-1.44" v:shadowType="1"
					transform="matrix(1,0,0,1,1.44,1.44)" class="st1">
				<rect x="0" y="594.643" width="36" height="17.3571" class="st2"/>
			</g>
			<rect x="0" y="594.643" width="36" height="17.3571" class="st4"/>
			<text x="8.12" y="605.72" class="st7" v:langID="1033"><v:paragraph v:horizAlign="1"/><v:tabList/>AJ API</text>		</g>
		<g id="shape6-27" v:mID="6" v:groupContext="shape" transform="translate(173.25,-370.929)">
			<title>Sheet.6</title>
			<desc>OEM System App</desc>
			<v:userDefs>
				<v:ud v:nameU="msvThemeColors" v:val="VT0(36):26"/>
				<v:ud v:nameU="msvThemeEffects" v:val="VT0(16):26"/>
			</v:userDefs>
			<v:textBlock v:margins="rect(4,4,4,4)"/>
			<v:textRect cx="49.5" cy="599" width="99" height="26"/>
			<rect x="0" y="586" width="99" height="26" class="st5"/>
			<text x="14.39" y="602" class="st8" v:langID="1033"><v:paragraph v:horizAlign="1"/><v:tabList/>OEM System App</text>		</g>
		<g id="shape7-30" v:mID="7" v:groupContext="shape" transform="translate(223.594,-257.625)">
			<title>Sheet.7</title>
			<desc>AllJoyn Framework</desc>
			<v:userDefs>
				<v:ud v:nameU="msvThemeColors" v:val="VT0(36):26"/>
				<v:ud v:nameU="msvThemeEffects" v:val="VT0(16):26"/>
			</v:userDefs>
			<v:textBlock v:margins="rect(4,4,4,4)"/>
			<v:textRect cx="49.5" cy="607.5" width="99" height="9"/>
			<rect x="0" y="603" width="99" height="9" class="st5"/>
			<text x="10.92" y="610.5" class="st8" v:langID="1033"><v:paragraph v:horizAlign="1"/><v:tabList/>AllJoyn Framework</text>		</g>
		<g id="shape8-33" v:mID="8" v:groupContext="shape" transform="translate(169.594,-272.25)">
			<title>Rectangle.8</title>
			<desc>AllJoyn Core</desc>
			<v:userDefs>
				<v:ud v:nameU="visVersion" v:val="VT0(14):26"/>
				<v:ud v:nameU="msvThemeColors" v:val="VT0(36):26"/>
				<v:ud v:nameU="msvThemeEffects" v:val="VT0(16):26"/>
			</v:userDefs>
			<v:textBlock v:margins="rect(4,4,4,4)"/>
			<v:textRect cx="103.5" cy="596.813" width="207" height="30.375"/>
			<g id="shadow8-34" v:groupContext="shadow" v:shadowOffsetX="1.44" v:shadowOffsetY="-1.44" v:shadowType="1"
					transform="matrix(1,0,0,1,1.44,1.44)" class="st1">
				<rect x="0" y="581.625" width="207" height="30.375" class="st2"/>
			</g>
			<rect x="0" y="581.625" width="207" height="30.375" class="st4"/>
			<text x="83.52" y="599.21" class="st7" v:langID="1033"><v:paragraph v:horizAlign="1"/><v:tabList/>AllJoyn Core</text>		</g>
		<g id="shape9-39" v:mID="9" v:groupContext="shape" transform="translate(201.632,-342)">
			<title>Rectangle.9</title>
			<desc>Config Service</desc>
			<v:userDefs>
				<v:ud v:nameU="visVersion" v:val="VT0(14):26"/>
				<v:ud v:nameU="msvThemeColors" v:val="VT0(36):26"/>
				<v:ud v:nameU="msvThemeEffects" v:val="VT0(16):26"/>
			</v:userDefs>
			<v:textBlock v:margins="rect(4,4,4,4)"/>
			<v:textRect cx="18.231" cy="602.438" width="36.47" height="19.125"/>
			<g id="shadow9-40" v:groupContext="shadow" v:shadowOffsetX="1.44" v:shadowOffsetY="-1.44" v:shadowType="1"
					transform="matrix(1,0,0,1,1.44,1.44)" class="st1">
				<rect x="0" y="592.875" width="36.4619" height="19.125" class="st2"/>
			</g>
			<rect x="0" y="592.875" width="36.4619" height="19.125" class="st4"/>
			<text x="7.87" y="600.04" class="st7" v:langID="1033"><v:paragraph v:horizAlign="1"/><v:tabList/>Config <tspan x="6.6"
						dy="1.2em" class="st9">Service</tspan></text>		</g>
		<g id="shape10-46" v:mID="10" v:groupContext="shape" transform="translate(476.156,-184.5)">
			<title>Rounded rectangle.7</title>
			<v:userDefs>
				<v:ud v:nameU="visVersion" v:val="VT0(14):26"/>
				<v:ud v:nameU="msvThemeColors" v:val="VT0(36):26"/>
				<v:ud v:nameU="msvThemeEffects" v:val="VT0(16):26"/>
			</v:userDefs>
			<g id="shadow10-47" v:groupContext="shadow" v:shadowOffsetX="1.44" v:shadowOffsetY="-1.44" v:shadowType="1"
					transform="matrix(1,0,0,1,1.44,1.44)" class="st1">
				<path d="M157.5 612 A9.00007 9.00007 -180 0 0 166.5 603 L166.5 378 A9.00007 9.00007 -180 0 0 157.5 369 L9 369 A9.00007
							 9.00007 -180 0 0 -0 378 L0 603 A9.00007 9.00007 -180 0 0 9 612 L157.5 612 Z" class="st2"/>
			</g>
			<path d="M157.5 612 A9.00007 9.00007 -180 0 0 166.5 603 L166.5 378 A9.00007 9.00007 -180 0 0 157.5 369 L9 369 A9.00007
						 9.00007 -180 0 0 -0 378 L0 603 A9.00007 9.00007 -180 0 0 9 612 L157.5 612 Z" class="st3"/>
		</g>
		<g id="shape11-51" v:mID="11" v:groupContext="shape" transform="translate(489.656,-337.5)">
			<title>Rectangle.12</title>
			<v:userDefs>
				<v:ud v:nameU="visVersion" v:val="VT0(14):26"/>
				<v:ud v:nameU="msvThemeColors" v:val="VT0(36):26"/>
				<v:ud v:nameU="msvThemeEffects" v:val="VT0(16):26"/>
			</v:userDefs>
			<g id="shadow11-52" v:groupContext="shadow" v:shadowOffsetX="1.44" v:shadowOffsetY="-1.44" v:shadowType="1"
					transform="matrix(1,0,0,1,1.44,1.44)" class="st1">
				<rect x="0" y="559.125" width="139.5" height="52.875" class="st2"/>
			</g>
			<rect x="0" y="559.125" width="139.5" height="52.875" class="st4"/>
		</g>
		<g id="shape12-56" v:mID="12" v:groupContext="shape" transform="translate(491.143,-401.826)">
			<title>Sheet.12</title>
			<desc>AllJoyn Client Device</desc>
			<v:userDefs>
				<v:ud v:nameU="msvThemeColors" v:val="VT0(36):26"/>
				<v:ud v:nameU="msvThemeEffects" v:val="VT0(16):26"/>
			</v:userDefs>
			<v:textBlock v:margins="rect(4,4,4,4)"/>
			<v:textRect cx="68.0985" cy="604" width="136.2" height="16"/>
			<rect x="0" y="596" width="136.197" height="16" class="st5"/>
			<text x="17.83" y="607.6" class="st6" v:langID="1033"><v:paragraph v:horizAlign="1"/><v:tabList/>AllJoyn Client Device</text>		</g>
		<g id="shape13-59" v:mID="13" v:groupContext="shape" transform="translate(489.656,-254.25)">
			<title>Rectangle.13</title>
			<v:userDefs>
				<v:ud v:nameU="visVersion" v:val="VT0(14):26"/>
				<v:ud v:nameU="msvThemeColors" v:val="VT0(36):26"/>
				<v:ud v:nameU="msvThemeEffects" v:val="VT0(16):26"/>
			</v:userDefs>
			<g id="shadow13-60" v:groupContext="shadow" v:shadowOffsetX="1.44" v:shadowOffsetY="-1.44" v:shadowType="1"
					transform="matrix(1,0,0,1,1.44,1.44)" class="st1">
				<rect x="0" y="547.875" width="139.5" height="64.125" class="st2"/>
			</g>
			<rect x="0" y="547.875" width="139.5" height="64.125" class="st4"/>
		</g>
		<g id="shape14-64" v:mID="14" v:groupContext="shape" transform="translate(579.094,-341.438)">
			<title>Rectangle.15</title>
			<desc>AJ API</desc>
			<v:userDefs>
				<v:ud v:nameU="visVersion" v:val="VT0(14):26"/>
				<v:ud v:nameU="msvThemeColors" v:val="VT0(36):26"/>
				<v:ud v:nameU="msvThemeEffects" v:val="VT0(16):26"/>
			</v:userDefs>
			<v:textBlock v:margins="rect(4,4,4,4)"/>
			<v:textRect cx="21.6563" cy="603.321" width="43.32" height="17.3571"/>
			<g id="shadow14-65" v:groupContext="shadow" v:shadowOffsetX="1.44" v:shadowOffsetY="-1.44" v:shadowType="1"
					transform="matrix(1,0,0,1,1.44,1.44)" class="st1">
				<rect x="0" y="594.643" width="43.3125" height="17.3571" class="st2"/>
			</g>
			<rect x="0" y="594.643" width="43.3125" height="17.3571" class="st4"/>
			<text x="11.77" y="605.72" class="st7" v:langID="1033"><v:paragraph v:horizAlign="1"/><v:tabList/>AJ API</text>		</g>
		<g id="shape15-70" v:mID="15" v:groupContext="shape" transform="translate(509.022,-369.643)">
			<title>Sheet.15</title>
			<desc>AllJoyn App</desc>
			<v:userDefs>
				<v:ud v:nameU="msvThemeColors" v:val="VT0(36):26"/>
				<v:ud v:nameU="msvThemeEffects" v:val="VT0(16):26"/>
			</v:userDefs>
			<v:textBlock v:margins="rect(4,4,4,4)"/>
			<v:textRect cx="49.5" cy="599" width="99" height="26"/>
			<rect x="0" y="586" width="99" height="26" class="st5"/>
			<text x="25.91" y="602" class="st8" v:langID="1033"><v:paragraph v:horizAlign="1"/><v:tabList/>AllJoyn App</text>		</g>
		<g id="shape16-73" v:mID="16" v:groupContext="shape" transform="translate(503.156,-257.625)">
			<title>Sheet.16</title>
			<desc>AllJoyn Framework</desc>
			<v:userDefs>
				<v:ud v:nameU="msvThemeColors" v:val="VT0(36):26"/>
				<v:ud v:nameU="msvThemeEffects" v:val="VT0(16):26"/>
			</v:userDefs>
			<v:textBlock v:margins="rect(4,4,4,4)"/>
			<v:textRect cx="49.5" cy="607.5" width="99" height="9"/>
			<rect x="0" y="603" width="99" height="9" class="st5"/>
			<text x="10.92" y="610.5" class="st8" v:langID="1033"><v:paragraph v:horizAlign="1"/><v:tabList/>AllJoyn Framework</text>		</g>
		<g id="shape17-76" v:mID="17" v:groupContext="shape" transform="translate(495.844,-272.813)">
			<title>Rectangle.22</title>
			<desc>AllJoyn Core</desc>
			<v:userDefs>
				<v:ud v:nameU="visVersion" v:val="VT0(14):26"/>
				<v:ud v:nameU="msvThemeColors" v:val="VT0(36):26"/>
				<v:ud v:nameU="msvThemeEffects" v:val="VT0(16):26"/>
			</v:userDefs>
			<v:textBlock v:margins="rect(4,4,4,4)"/>
			<v:textRect cx="63.7763" cy="597.094" width="127.56" height="29.8125"/>
			<g id="shadow17-77" v:groupContext="shadow" v:shadowOffsetX="1.44" v:shadowOffsetY="-1.44" v:shadowType="1"
					transform="matrix(1,0,0,1,1.44,1.44)" class="st1">
				<rect x="0" y="582.188" width="127.552" height="29.8125" class="st2"/>
			</g>
			<rect x="0" y="582.188" width="127.552" height="29.8125" class="st4"/>
			<text x="43.8" y="599.49" class="st7" v:langID="1033"><v:paragraph v:horizAlign="1"/><v:tabList/>AllJoyn Core</text>		</g>
		<g id="shape18-82" v:mID="18" v:groupContext="shape" transform="translate(209.531,-198)">
			<title>Rectangle.19</title>
			<desc>Device OS</desc>
			<v:userDefs>
				<v:ud v:nameU="visVersion" v:val="VT0(14):26"/>
				<v:ud v:nameU="msvThemeColors" v:val="VT0(36):26"/>
				<v:ud v:nameU="msvThemeEffects" v:val="VT0(16):26"/>
			</v:userDefs>
			<v:textBlock v:margins="rect(4,4,4,4)"/>
			<v:textRect cx="69.75" cy="594" width="139.5" height="36"/>
			<g id="shadow18-83" v:groupContext="shadow" v:shadowOffsetX="1.44" v:shadowOffsetY="-1.44" v:shadowType="1"
					transform="matrix(1,0,0,1,1.44,1.44)" class="st1">
				<rect x="0" y="576" width="139.5" height="36" class="st2"/>
			</g>
			<rect x="0" y="576" width="139.5" height="36" class="st10"/>
			<text x="45.38" y="597.6" class="st6" v:langID="1033"><v:paragraph v:horizAlign="1"/><v:tabList/>Device OS</text>		</g>
		<g id="shape19-89" v:mID="19" v:groupContext="shape" v:layerMember="0"
				transform="translate(-332.156,358.313) rotate(-90) scale(-1,1)">
			<title>Line-curve connector.28</title>
			<v:userDefs>
				<v:ud v:nameU="AntiScale" v:val="VT0(1):26"/>
				<v:ud v:nameU="Scale" v:val="VT0(1):26"/>
				<v:ud v:nameU="visVersion" v:val="VT0(14):26"/>
				<v:ud v:nameU="msvThemeColors" v:val="VT0(36):26"/>
				<v:ud v:nameU="msvThemeEffects" v:val="VT0(16):26"/>
			</v:userDefs>
			<path d="M0 612 L10.04 612 L19.12 612 L19.12 612" class="st11"/>
		</g>
		<g id="shape20-93" v:mID="20" v:groupContext="shape" transform="translate(487.969,-198)">
			<title>Rectangle.29</title>
			<desc>Device OS</desc>
			<v:userDefs>
				<v:ud v:nameU="visVersion" v:val="VT0(14):26"/>
				<v:ud v:nameU="msvThemeColors" v:val="VT0(36):26"/>
				<v:ud v:nameU="msvThemeEffects" v:val="VT0(16):26"/>
			</v:userDefs>
			<v:textBlock v:margins="rect(4,4,4,4)"/>
			<v:textRect cx="69.75" cy="594" width="139.5" height="36"/>
			<g id="shadow20-94" v:groupContext="shadow" v:shadowOffsetX="1.44" v:shadowOffsetY="-1.44" v:shadowType="1"
					transform="matrix(1,0,0,1,1.44,1.44)" class="st1">
				<rect x="0" y="576" width="139.5" height="36" class="st2"/>
			</g>
			<rect x="0" y="576" width="139.5" height="36" class="st10"/>
			<text x="45.38" y="597.6" class="st6" v:langID="1033"><v:paragraph v:horizAlign="1"/><v:tabList/>Device OS</text>		</g>
		<g id="shape21-99" v:mID="21" v:groupContext="shape" v:layerMember="0"
				transform="translate(-53.7188,358.313) rotate(-90) scale(-1,1)">
			<title>Line-curve connector.30</title>
			<v:userDefs>
				<v:ud v:nameU="AntiScale" v:val="VT0(1):26"/>
				<v:ud v:nameU="Scale" v:val="VT0(1):26"/>
				<v:ud v:nameU="visVersion" v:val="VT0(14):26"/>
				<v:ud v:nameU="msvThemeColors" v:val="VT0(36):26"/>
				<v:ud v:nameU="msvThemeEffects" v:val="VT0(16):26"/>
			</v:userDefs>
			<path d="M0 612 L10.04 612 L19.12 612 L19.12 612" class="st11"/>
		</g>
		<g id="shape22-103" v:mID="22" v:groupContext="shape" v:layerMember="0"
				transform="translate(-392.243,274.5) rotate(-90) scale(-1,1)">
			<title>Line-curve connector.12</title>
			<v:userDefs>
				<v:ud v:nameU="AntiScale" v:val="VT0(1):26"/>
				<v:ud v:nameU="Scale" v:val="VT0(1):26"/>
				<v:ud v:nameU="visVersion" v:val="VT0(14):26"/>
				<v:ud v:nameU="msvThemeColors" v:val="VT0(36):26"/>
				<v:ud v:nameU="msvThemeEffects" v:val="VT0(16):26"/>
			</v:userDefs>
			<path d="M0 612 L10.04 612 L19.12 612 L19.12 612" class="st11"/>
		</g>
		<g id="shape23-107" v:mID="23" v:groupContext="shape" v:layerMember="0"
				transform="translate(-53.1563,273.938) rotate(-90) scale(-1,1)">
			<title>Line-curve connector.6</title>
			<v:userDefs>
				<v:ud v:nameU="AntiScale" v:val="VT0(1):26"/>
				<v:ud v:nameU="Scale" v:val="VT0(1):26"/>
				<v:ud v:nameU="visVersion" v:val="VT0(14):26"/>
				<v:ud v:nameU="msvThemeColors" v:val="VT0(36):26"/>
				<v:ud v:nameU="msvThemeEffects" v:val="VT0(16):26"/>
			</v:userDefs>
			<path d="M0 612 L10.04 612 L19.12 612 L19.12 612" class="st11"/>
		</g>
		<g id="shape24-111" v:mID="24" v:groupContext="shape" transform="translate(363.094,-281.536)">
			<title>60 degree double</title>
			<v:userDefs>
				<v:ud v:nameU="visVersion" v:val="VT0(14):26"/>
				<v:ud v:nameU="msvThemeColors" v:val="VT0(36):26"/>
				<v:ud v:nameU="msvThemeEffects" v:val="VT0(16):26"/>
			</v:userDefs>
			<g id="shadow24-112" v:groupContext="shadow" v:shadowOffsetX="1.44" v:shadowOffsetY="-1.44" v:shadowType="1"
					transform="matrix(1,0,0,1,1.44,1.44)" class="st1">
				<path d="M0 607.22 L2.76 602.45 L2.76 605.6 L139.31 605.6 L139.31 602.45 L142.07 607.22 L139.31 612 L139.31 608.85
							 L2.76 608.85 L2.76 612 L0 607.22 Z" class="st2"/>
			</g>
			<path d="M0 607.22 L2.76 602.45 L2.76 605.6 L139.31 605.6 L139.31 602.45 L142.07 607.22 L139.31 612 L139.31 608.85 L2.76
						 608.85 L2.76 612 L0 607.22 Z" class="st4"/>
		</g>
		<g id="shape25-116" v:mID="25" v:groupContext="shape" transform="translate(292.62,-338.143)">
			<title>Rectangle.25</title>
			<v:userDefs>
				<v:ud v:nameU="visVersion" v:val="VT0(14):26"/>
				<v:ud v:nameU="msvThemeColors" v:val="VT0(36):26"/>
				<v:ud v:nameU="msvThemeEffects" v:val="VT0(16):26"/>
			</v:userDefs>
			<g id="shadow25-117" v:groupContext="shadow" v:shadowOffsetX="1.44" v:shadowOffsetY="-1.44" v:shadowType="1"
					transform="matrix(1,0,0,1,1.44,1.44)" class="st1">
				<rect x="0" y="559.125" width="108" height="52.875" class="st2"/>
			</g>
			<rect x="0" y="559.125" width="108" height="52.875" class="st4"/>
		</g>
		<g id="shape26-121" v:mID="26" v:groupContext="shape" transform="translate(361.245,-343.286)">
			<title>Rectangle.26</title>
			<desc>AJ API</desc>
			<v:userDefs>
				<v:ud v:nameU="visVersion" v:val="VT0(14):26"/>
				<v:ud v:nameU="msvThemeColors" v:val="VT0(36):26"/>
				<v:ud v:nameU="msvThemeEffects" v:val="VT0(16):26"/>
			</v:userDefs>
			<v:textBlock v:margins="rect(4,4,4,4)"/>
			<v:textRect cx="18" cy="603.321" width="36" height="17.3571"/>
			<g id="shadow26-122" v:groupContext="shadow" v:shadowOffsetX="1.44" v:shadowOffsetY="-1.44" v:shadowType="1"
					transform="matrix(1,0,0,1,1.44,1.44)" class="st1">
				<rect x="0" y="594.643" width="36" height="17.3571" class="st2"/>
			</g>
			<rect x="0" y="594.643" width="36" height="17.3571" class="st4"/>
			<text x="8.12" y="605.72" class="st7" v:langID="1033"><v:paragraph v:horizAlign="1"/><v:tabList/>AJ API</text>		</g>
		<g id="shape27-127" v:mID="27" v:groupContext="shape" transform="translate(294.308,-342.643)">
			<title>Rectangle.27</title>
			<desc>About</desc>
			<v:userDefs>
				<v:ud v:nameU="visVersion" v:val="VT0(14):26"/>
				<v:ud v:nameU="msvThemeColors" v:val="VT0(36):26"/>
				<v:ud v:nameU="msvThemeEffects" v:val="VT0(16):26"/>
			</v:userDefs>
			<v:textBlock v:margins="rect(4,4,4,4)"/>
			<v:textRect cx="32.9063" cy="602.438" width="65.82" height="19.125"/>
			<g id="shadow27-128" v:groupContext="shadow" v:shadowOffsetX="1.44" v:shadowOffsetY="-1.44" v:shadowType="1"
					transform="matrix(1,0,0,1,1.44,1.44)" class="st1">
				<rect x="0" y="592.875" width="65.8125" height="19.125" class="st2"/>
			</g>
			<rect x="0" y="592.875" width="65.8125" height="19.125" class="st4"/>
			<text x="22.94" y="604.84" class="st7" v:langID="1033"><v:paragraph v:horizAlign="1"/><v:tabList/>About</text>		</g>
		<g id="shape28-133" v:mID="28" v:groupContext="shape" transform="translate(295.533,-370.286)">
			<title>Sheet.28</title>
			<desc>Third-Party App</desc>
			<v:userDefs>
				<v:ud v:nameU="msvThemeColors" v:val="VT0(36):26"/>
				<v:ud v:nameU="msvThemeEffects" v:val="VT0(16):26"/>
			</v:userDefs>
			<v:textBlock v:margins="rect(4,4,4,4)"/>
			<v:textRect cx="49.5" cy="599" width="99" height="26"/>
			<rect x="0" y="586" width="99" height="26" class="st5"/>
			<text x="17.45" y="602" class="st8" v:langID="1033"><v:paragraph v:horizAlign="1"/><v:tabList/>Third-Party App</text>		</g>
		<g id="shape29-136" v:mID="29" v:groupContext="shape" v:layerMember="0"
				transform="translate(-265.586,273.857) rotate(-90) scale(-1,1)">
			<title>Line-curve connector.29</title>
			<v:userDefs>
				<v:ud v:nameU="AntiScale" v:val="VT0(1):26"/>
				<v:ud v:nameU="Scale" v:val="VT0(1):26"/>
				<v:ud v:nameU="visVersion" v:val="VT0(14):26"/>
				<v:ud v:nameU="msvThemeColors" v:val="VT0(36):26"/>
				<v:ud v:nameU="msvThemeEffects" v:val="VT0(16):26"/>
			</v:userDefs>
			<path d="M0 612 L11.04 612 L21.03 612 L21.03 612" class="st11"/>
		</g>
		<g id="shape30-140" v:mID="30" v:groupContext="shape" transform="translate(162.422,-342.762)">
			<title>Rectangle.30</title>
			<desc>About Feature</desc>
			<v:userDefs>
				<v:ud v:nameU="visVersion" v:val="VT0(14):26"/>
				<v:ud v:nameU="msvThemeColors" v:val="VT0(36):26"/>
				<v:ud v:nameU="msvThemeEffects" v:val="VT0(16):26"/>
			</v:userDefs>
			<v:textBlock v:margins="rect(4,4,4,4)"/>
			<v:textRect cx="18.6104" cy="602.438" width="37.23" height="19.125"/>
			<g id="shadow30-141" v:groupContext="shadow" v:shadowOffsetX="1.44" v:shadowOffsetY="-1.44" v:shadowType="1"
					transform="matrix(1,0,0,1,1.44,1.44)" class="st1">
				<rect x="0" y="592.875" width="37.2208" height="19.125" class="st2"/>
			</g>
			<rect x="0" y="592.875" width="37.2208" height="19.125" class="st4"/>
			<text x="8.64" y="600.04" class="st7" v:langID="1033"><v:paragraph v:horizAlign="1"/><v:tabList/>About <v:lf/><tspan
						x="6.04" dy="1.2em" class="st9">Feature</tspan></text>		</g>
	</g>
</svg>
