<?xml version="1.0" encoding="UTF-8" standalone="no"?>
<!DOCTYPE svg PUBLIC "-//W3C//DTD SVG 1.0//EN" "http://www.w3.org/TR/2001/REC-SVG-20010904/DTD/svg10.dtd">
<!-- Generated by Microsoft Visio 11.0, SVG Export, v1.0 Drawing304.svg Page-1 -->
<svg xmlns="http://www.w3.org/2000/svg" xmlns:xlink="http://www.w3.org/1999/xlink" xmlns:ev="http://www.w3.org/2001/xml-events"
		xmlns:v="http://schemas.microsoft.com/visio/2003/SVGExtensions/" width="11in" height="8.5in" viewBox="0 0 792 612"
		xml:space="preserve" color-interpolation-filters="sRGB" class="st14">
	<v:documentProperties v:langID="1033" v:viewMarkup="false">
		<v:userDefs>
			<v:ud v:nameU="msvNoAutoConnect" v:val="VT0(0):26"/>
		</v:userDefs>
	</v:documentProperties>

	<style type="text/css">
	<![CDATA[
		.st1 {visibility:visible}
		.st2 {fill:#cdcdcd;fill-opacity:0.5;stroke:#cdcdcd;stroke-linecap:round;stroke-linejoin:round;stroke-opacity:0.5;stroke-width:0.25}
		.st3 {fill:url(#grad30-6);stroke:#404040;stroke-linecap:round;stroke-linejoin:round;stroke-width:0.25}
		.st4 {fill:url(#grad30-12);stroke:#404040;stroke-linecap:round;stroke-linejoin:round;stroke-width:0.25}
		.st5 {fill:none;stroke:none;stroke-linecap:round;stroke-linejoin:round;stroke-width:0.25}
		.st6 {fill:#000000;font-family:Calibri;font-size:1.00001em}
		.st7 {fill:url(#grad30-21);stroke:#404040;stroke-linecap:round;stroke-linejoin:round;stroke-width:0.25}
		.st8 {fill:#000000;font-family:Calibri;font-size:0.666664em}
		.st9 {font-size:1em}
		.st10 {fill:#000000;font-family:Calibri;font-size:0.833336em}
		.st11 {fill:url(#grad30-51);stroke:#404040;stroke-linecap:round;stroke-linejoin:round;stroke-width:0.25}
		.st12 {fill:url(#grad30-90);stroke:#404040;stroke-linecap:round;stroke-linejoin:round;stroke-width:0.25}
		.st13 {stroke:#404040;stroke-linecap:round;stroke-linejoin:round;stroke-width:1}
		.st14 {fill:none;fill-rule:evenodd;font-size:12px;overflow:visible;stroke-linecap:square;stroke-miterlimit:3}
	]]>
	</style>

	<defs id="Patterns_And_Gradients">
		<linearGradient id="grad30-6" v:fillPattern="30" v:foreground="#c9c9c9" v:background="#d8d8d8" x1="0" y1="1" x2="0" y2="0">
			<stop offset="0" style="stop-color:#c9c9c9;stop-opacity:1"/>
			<stop offset="1" style="stop-color:#d8d8d8;stop-opacity:1"/>
		</linearGradient>
		<linearGradient id="grad30-12" v:fillPattern="30" v:foreground="#e78636" v:background="#ea9651" x1="0" y1="1" x2="0" y2="0">
			<stop offset="0" style="stop-color:#e78636;stop-opacity:1"/>
			<stop offset="1" style="stop-color:#ea9651;stop-opacity:1"/>
		</linearGradient>
		<linearGradient id="grad30-21" v:fillPattern="30" v:foreground="#f0f0f0" v:background="#ffffff" x1="0" y1="1" x2="0" y2="0">
			<stop offset="0" style="stop-color:#f0f0f0;stop-opacity:1"/>
			<stop offset="1" style="stop-color:#ffffff;stop-opacity:1"/>
		</linearGradient>
		<linearGradient id="grad30-51" v:fillPattern="30" v:foreground="#717171" v:background="#7f7f7f" x1="0" y1="1" x2="0" y2="0">
			<stop offset="0" style="stop-color:#717171;stop-opacity:1"/>
			<stop offset="1" style="stop-color:#7f7f7f;stop-opacity:1"/>
		</linearGradient>
		<linearGradient id="grad30-90" v:fillPattern="30" v:foreground="#f2c59f" v:background="#f6d5b9" x1="0" y1="1" x2="0" y2="0">
			<stop offset="0" style="stop-color:#f2c59f;stop-opacity:1"/>
			<stop offset="1" style="stop-color:#f6d5b9;stop-opacity:1"/>
		</linearGradient>
	</defs>
	<g v:mID="0" v:index="1" v:groupContext="foregroundPage">
		<v:userDefs>
			<v:ud v:nameU="msvThemeColors" v:val="VT0(36):26"/>
			<v:ud v:nameU="msvThemeEffects" v:val="VT0(16):26"/>
			<v:ud v:nameU="msvThemeOrder" v:val="VT0(0):26"/>
		</v:userDefs>
		<title>Page-1</title>
		<v:pageProperties v:drawingScale="1" v:pageScale="1" v:drawingUnits="0" v:shadowOffsetX="9" v:shadowOffsetY="-9"/>
		<v:layer v:name="Connector" v:index="0"/>
		<g id="shape1-1" v:mID="1" v:groupContext="shape" transform="translate(204.28,-232.875)">
			<title>Rounded rectangle</title>
			<v:userDefs>
				<v:ud v:nameU="visVersion" v:val="VT0(14):26"/>
				<v:ud v:nameU="msvThemeColors" v:val="VT0(36):26"/>
				<v:ud v:nameU="msvThemeEffects" v:val="VT0(16):26"/>
			</v:userDefs>
			<g id="shadow1-2" v:groupContext="shadow" v:shadowOffsetX="1.44" v:shadowOffsetY="-1.44" v:shadowType="1"
					transform="matrix(1,0,0,1,1.44,1.44)" class="st1">
				<path d="M157.5 612 A9.00007 9.00007 -180 0 0 166.5 603 L166.5 378 A9.00007 9.00007 -180 0 0 157.5 369 L9 369 A9.00007
							 9.00007 -180 0 0 -0 378 L0 603 A9.00007 9.00007 -180 0 0 9 612 L157.5 612 Z" class="st2"/>
			</g>
			<path d="M157.5 612 A9.00007 9.00007 -180 0 0 166.5 603 L166.5 378 A9.00007 9.00007 -180 0 0 157.5 369 L9 369 A9.00007
						 9.00007 -180 0 0 -0 378 L0 603 A9.00007 9.00007 -180 0 0 9 612 L157.5 612 Z" class="st3"/>
		</g>
		<g id="shape2-7" v:mID="2" v:groupContext="shape" transform="translate(216.655,-385.875)">
			<title>Rectangle</title>
			<v:userDefs>
				<v:ud v:nameU="visVersion" v:val="VT0(14):26"/>
				<v:ud v:nameU="msvThemeColors" v:val="VT0(36):26"/>
				<v:ud v:nameU="msvThemeEffects" v:val="VT0(16):26"/>
			</v:userDefs>
			<g id="shadow2-8" v:groupContext="shadow" v:shadowOffsetX="1.44" v:shadowOffsetY="-1.44" v:shadowType="1"
					transform="matrix(1,0,0,1,1.44,1.44)" class="st1">
				<rect x="0" y="552.375" width="139.5" height="59.625" class="st2"/>
			</g>
			<rect x="0" y="552.375" width="139.5" height="59.625" class="st4"/>
		</g>
		<g id="shape3-13" v:mID="3" v:groupContext="shape" transform="translate(212.155,-459.114)">
			<title>Sheet.3</title>
			<desc>AllJoyn Controlled Device</desc>
			<v:userDefs>
				<v:ud v:nameU="msvThemeColors" v:val="VT0(36):26"/>
				<v:ud v:nameU="msvThemeEffects" v:val="VT0(16):26"/>
			</v:userDefs>
			<v:textBlock v:margins="rect(4,4,4,4)"/>
			<v:textRect cx="78.2818" cy="604" width="156.57" height="16"/>
			<rect x="0" y="596" width="156.564" height="16" class="st5"/>
			<text x="16.44" y="607.6" class="st6" v:langID="1033"><v:paragraph v:horizAlign="1"/><v:tabList/>AllJoyn Controlled Device</text>		</g>
		<g id="shape4-16" v:mID="4" v:groupContext="shape" transform="translate(218.905,-302.063)">
			<title>Rectangle.4</title>
			<v:userDefs>
				<v:ud v:nameU="visVersion" v:val="VT0(14):26"/>
				<v:ud v:nameU="msvThemeColors" v:val="VT0(36):26"/>
				<v:ud v:nameU="msvThemeEffects" v:val="VT0(16):26"/>
			</v:userDefs>
			<g id="shadow4-17" v:groupContext="shadow" v:shadowOffsetX="1.44" v:shadowOffsetY="-1.44" v:shadowType="1"
					transform="matrix(1,0,0,1,1.44,1.44)" class="st1">
				<rect x="0" y="548.438" width="139.5" height="63.5625" class="st2"/>
			</g>
			<rect x="0" y="548.438" width="139.5" height="63.5625" class="st7"/>
		</g>
		<g id="shape5-22" v:mID="5" v:groupContext="shape" transform="translate(257.718,-386.438)">
			<title>Rectangle.5</title>
			<desc>About Interface</desc>
			<v:userDefs>
				<v:ud v:nameU="visVersion" v:val="VT0(14):26"/>
				<v:ud v:nameU="msvThemeColors" v:val="VT0(36):26"/>
				<v:ud v:nameU="msvThemeEffects" v:val="VT0(16):26"/>
			</v:userDefs>
			<v:textBlock v:margins="rect(4,4,4,4)"/>
			<v:textRect cx="19.9688" cy="602.719" width="39.94" height="18.5625"/>
			<g id="shadow5-23" v:groupContext="shadow" v:shadowOffsetX="1.44" v:shadowOffsetY="-1.44" v:shadowType="1"
					transform="matrix(1,0,0,1,1.44,1.44)" class="st1">
				<rect x="0" y="593.438" width="39.9375" height="18.5625" class="st2"/>
			</g>
			<rect x="0" y="593.438" width="39.9375" height="18.5625" class="st7"/>
			<text x="10" y="600.32" class="st8" v:langID="1033"><v:paragraph v:horizAlign="1"/><v:tabList/>About <tspan x="5.32"
						dy="1.2em" class="st9">Interface</tspan></text>		</g>
		<g id="shape6-29" v:mID="6" v:groupContext="shape" transform="translate(209.343,-189)">
			<title>Rectangle.8</title>
			<v:userDefs>
				<v:ud v:nameU="visVersion" v:val="VT0(14):26"/>
				<v:ud v:nameU="msvThemeColors" v:val="VT0(36):26"/>
				<v:ud v:nameU="msvThemeEffects" v:val="VT0(16):26"/>
			</v:userDefs>
			<g id="shadow6-30" v:groupContext="shadow" v:shadowOffsetX="1.44" v:shadowOffsetY="-1.44" v:shadowType="1"
					transform="matrix(1,0,0,1,1.44,1.44)" class="st1">
				<rect x="0" y="594.643" width="36" height="17.3571" class="st2"/>
			</g>
			<rect x="0" y="594.643" width="36" height="17.3571" class="st7"/>
		</g>
		<g id="shape7-34" v:mID="7" v:groupContext="shape" transform="translate(191.157,-418.817)">
			<title>Sheet.7</title>
			<desc>App</desc>
			<v:userDefs>
				<v:ud v:nameU="msvThemeColors" v:val="VT0(36):26"/>
				<v:ud v:nameU="msvThemeEffects" v:val="VT0(16):26"/>
			</v:userDefs>
			<v:textBlock v:margins="rect(4,4,4,4)"/>
			<v:textRect cx="49.5" cy="599" width="99" height="26"/>
			<rect x="0" y="586" width="99" height="26" class="st5"/>
			<text x="41.35" y="602" class="st10" v:langID="1033"><v:paragraph v:horizAlign="1"/><v:tabList/>App</text>		</g>
		<g id="shape8-37" v:mID="8" v:groupContext="shape" transform="translate(231.28,-306)">
			<title>Sheet.8</title>
			<desc>AllJoyn Platform</desc>
			<v:userDefs>
				<v:ud v:nameU="msvThemeColors" v:val="VT0(36):26"/>
				<v:ud v:nameU="msvThemeEffects" v:val="VT0(16):26"/>
			</v:userDefs>
			<v:textBlock v:margins="rect(4,4,4,4)"/>
			<v:textRect cx="49.5" cy="607.5" width="99" height="9"/>
			<rect x="0" y="603" width="99" height="9" class="st5"/>
			<text x="16.36" y="610.5" class="st10" v:langID="1033"><v:paragraph v:horizAlign="1"/><v:tabList/>AllJoyn Platform</text>		</g>
		<g id="shape9-40" v:mID="9" v:groupContext="shape" transform="translate(223.968,-320.625)">
			<title>Rectangle.11</title>
			<desc>AllJoyn Core</desc>
			<v:userDefs>
				<v:ud v:nameU="visVersion" v:val="VT0(14):26"/>
				<v:ud v:nameU="msvThemeColors" v:val="VT0(36):26"/>
				<v:ud v:nameU="msvThemeEffects" v:val="VT0(16):26"/>
			</v:userDefs>
			<v:textBlock v:margins="rect(4,4,4,4)"/>
			<v:textRect cx="61.245" cy="596.813" width="122.49" height="30.375"/>
			<g id="shadow9-41" v:groupContext="shadow" v:shadowOffsetX="1.44" v:shadowOffsetY="-1.44" v:shadowType="1"
					transform="matrix(1,0,0,1,1.44,1.44)" class="st1">
				<rect x="0" y="581.625" width="122.49" height="30.375" class="st2"/>
			</g>
			<rect x="0" y="581.625" width="122.49" height="30.375" class="st7"/>
			<text x="41.27" y="599.21" class="st8" v:langID="1033"><v:paragraph v:horizAlign="1"/><v:tabList/>AllJoyn Core</text>		</g>
		<g id="shape10-46" v:mID="10" v:groupContext="shape" transform="translate(303.28,-387.563)">
			<title>Rectangle.13</title>
			<desc>Control Interfaces</desc>
			<v:userDefs>
				<v:ud v:nameU="visVersion" v:val="VT0(14):26"/>
				<v:ud v:nameU="msvThemeColors" v:val="VT0(36):26"/>
				<v:ud v:nameU="msvThemeEffects" v:val="VT0(16):26"/>
			</v:userDefs>
			<v:textBlock v:margins="rect(4,4,4,4)"/>
			<v:textRect cx="23.9063" cy="602.438" width="47.82" height="19.125"/>
			<g id="shadow10-47" v:groupContext="shadow" v:shadowOffsetX="1.44" v:shadowOffsetY="-1.44" v:shadowType="1"
					transform="matrix(1,0,0,1,1.44,1.44)" class="st1">
				<rect x="0" y="592.875" width="47.8125" height="19.125" class="st2"/>
			</g>
			<rect x="0" y="592.875" width="47.8125" height="19.125" class="st11"/>
			<text x="11.8" y="600.04" class="st8" v:langID="1033"><v:paragraph v:horizAlign="1"/><v:tabList/>Control <tspan
						x="7.69" dy="1.2em" class="st9">Interfaces</tspan></text>		</g>
		<g id="shape11-54" v:mID="11" v:groupContext="shape" transform="translate(434.343,-232.875)">
			<title>Rounded rectangle.7</title>
			<v:userDefs>
				<v:ud v:nameU="visVersion" v:val="VT0(14):26"/>
				<v:ud v:nameU="msvThemeColors" v:val="VT0(36):26"/>
				<v:ud v:nameU="msvThemeEffects" v:val="VT0(16):26"/>
			</v:userDefs>
			<g id="shadow11-55" v:groupContext="shadow" v:shadowOffsetX="1.44" v:shadowOffsetY="-1.44" v:shadowType="1"
					transform="matrix(1,0,0,1,1.44,1.44)" class="st1">
				<path d="M157.5 612 A9.00007 9.00007 -180 0 0 166.5 603 L166.5 378 A9.00007 9.00007 -180 0 0 157.5 369 L9 369 A9.00007
							 9.00007 -180 0 0 -0 378 L0 603 A9.00007 9.00007 -180 0 0 9 612 L157.5 612 Z" class="st2"/>
			</g>
			<path d="M157.5 612 A9.00007 9.00007 -180 0 0 166.5 603 L166.5 378 A9.00007 9.00007 -180 0 0 157.5 369 L9 369 A9.00007
						 9.00007 -180 0 0 -0 378 L0 603 A9.00007 9.00007 -180 0 0 9 612 L157.5 612 Z" class="st3"/>
		</g>
		<g id="shape12-59" v:mID="12" v:groupContext="shape" transform="translate(447.843,-385.875)">
			<title>Rectangle.15</title>
			<v:userDefs>
				<v:ud v:nameU="visVersion" v:val="VT0(14):26"/>
				<v:ud v:nameU="msvThemeColors" v:val="VT0(36):26"/>
				<v:ud v:nameU="msvThemeEffects" v:val="VT0(16):26"/>
			</v:userDefs>
			<g id="shadow12-60" v:groupContext="shadow" v:shadowOffsetX="1.44" v:shadowOffsetY="-1.44" v:shadowType="1"
					transform="matrix(1,0,0,1,1.44,1.44)" class="st1">
				<rect x="0" y="552.375" width="139.5" height="59.625" class="st2"/>
			</g>
			<rect x="0" y="552.375" width="139.5" height="59.625" class="st4"/>
		</g>
		<g id="shape13-64" v:mID="13" v:groupContext="shape" transform="translate(440.53,-459)">
			<title>Sheet.13</title>
			<desc>AllJoyn Controller Device</desc>
			<v:userDefs>
				<v:ud v:nameU="msvThemeColors" v:val="VT0(36):26"/>
				<v:ud v:nameU="msvThemeEffects" v:val="VT0(16):26"/>
			</v:userDefs>
			<v:textBlock v:margins="rect(4,4,4,4)"/>
			<v:textRect cx="76.2187" cy="604" width="152.44" height="16"/>
			<rect x="0" y="596" width="152.438" height="16" class="st5"/>
			<text x="15.44" y="607.6" class="st6" v:langID="1033"><v:paragraph v:horizAlign="1"/><v:tabList/>AllJoyn Controller Device</text>		</g>
		<g id="shape14-67" v:mID="14" v:groupContext="shape" transform="translate(447.843,-302.625)">
			<title>Rectangle.14</title>
			<v:userDefs>
				<v:ud v:nameU="visVersion" v:val="VT0(14):26"/>
				<v:ud v:nameU="msvThemeColors" v:val="VT0(36):26"/>
				<v:ud v:nameU="msvThemeEffects" v:val="VT0(16):26"/>
			</v:userDefs>
			<g id="shadow14-68" v:groupContext="shadow" v:shadowOffsetX="1.44" v:shadowOffsetY="-1.44" v:shadowType="1"
					transform="matrix(1,0,0,1,1.44,1.44)" class="st1">
				<rect x="0" y="547.875" width="139.5" height="64.125" class="st2"/>
			</g>
			<rect x="0" y="547.875" width="139.5" height="64.125" class="st7"/>
		</g>
		<g id="shape15-72" v:mID="15" v:groupContext="shape" transform="translate(532.78,-417.938)">
			<title>Sheet.15</title>
			<desc>Controller App</desc>
			<v:userDefs>
				<v:ud v:nameU="msvThemeColors" v:val="VT0(36):26"/>
				<v:ud v:nameU="msvThemeEffects" v:val="VT0(16):26"/>
			</v:userDefs>
			<v:textBlock v:margins="rect(4,4,4,4)"/>
			<v:textRect cx="27" cy="599" width="54" height="26"/>
			<rect x="0" y="586" width="54" height="26" class="st5"/>
			<text x="6.49" y="596" class="st10" v:langID="1033"><v:paragraph v:horizAlign="1"/><v:tabList/>Controller <tspan
						x="18.85" dy="1.2em" class="st9">App</tspan></text>		</g>
		<g id="shape16-76" v:mID="16" v:groupContext="shape" transform="translate(461.343,-306)">
			<title>Sheet.16</title>
			<desc>AllJoyn Platform</desc>
			<v:userDefs>
				<v:ud v:nameU="msvThemeColors" v:val="VT0(36):26"/>
				<v:ud v:nameU="msvThemeEffects" v:val="VT0(16):26"/>
			</v:userDefs>
			<v:textBlock v:margins="rect(4,4,4,4)"/>
			<v:textRect cx="49.5" cy="607.5" width="99" height="9"/>
			<rect x="0" y="603" width="99" height="9" class="st5"/>
			<text x="16.36" y="610.5" class="st10" v:langID="1033"><v:paragraph v:horizAlign="1"/><v:tabList/>AllJoyn Platform</text>		</g>
		<g id="shape17-79" v:mID="17" v:groupContext="shape" transform="translate(454.03,-321.188)">
			<title>Rectangle.22</title>
			<desc>AllJoyn Core</desc>
			<v:userDefs>
				<v:ud v:nameU="visVersion" v:val="VT0(14):26"/>
				<v:ud v:nameU="msvThemeColors" v:val="VT0(36):26"/>
				<v:ud v:nameU="msvThemeEffects" v:val="VT0(16):26"/>
			</v:userDefs>
			<v:textBlock v:margins="rect(4,4,4,4)"/>
			<v:textRect cx="63.7763" cy="597.094" width="127.56" height="29.8125"/>
			<g id="shadow17-80" v:groupContext="shadow" v:shadowOffsetX="1.44" v:shadowOffsetY="-1.44" v:shadowType="1"
					transform="matrix(1,0,0,1,1.44,1.44)" class="st1">
				<rect x="0" y="582.188" width="127.552" height="29.8125" class="st2"/>
			</g>
			<rect x="0" y="582.188" width="127.552" height="29.8125" class="st7"/>
			<text x="43.8" y="599.49" class="st8" v:langID="1033"><v:paragraph v:horizAlign="1"/><v:tabList/>AllJoyn Core</text>		</g>
		<g id="shape18-85" v:mID="18" v:groupContext="shape" transform="translate(217.218,-246.375)">
			<title>Rectangle.27</title>
			<desc>Device OS</desc>
			<v:userDefs>
				<v:ud v:nameU="visVersion" v:val="VT0(14):26"/>
				<v:ud v:nameU="msvThemeColors" v:val="VT0(36):26"/>
				<v:ud v:nameU="msvThemeEffects" v:val="VT0(16):26"/>
			</v:userDefs>
			<v:textBlock v:margins="rect(4,4,4,4)"/>
			<v:textRect cx="69.75" cy="594" width="139.5" height="36"/>
			<g id="shadow18-86" v:groupContext="shadow" v:shadowOffsetX="1.44" v:shadowOffsetY="-1.44" v:shadowType="1"
					transform="matrix(1,0,0,1,1.44,1.44)" class="st1">
				<rect x="0" y="576" width="139.5" height="36" class="st2"/>
			</g>
			<rect x="0" y="576" width="139.5" height="36" class="st12"/>
			<text x="45.38" y="597.6" class="st6" v:langID="1033"><v:paragraph v:horizAlign="1"/><v:tabList/>Device OS</text>		</g>
		<g id="shape19-92" v:mID="19" v:groupContext="shape" v:layerMember="0"
				transform="translate(-324.47,309.938) rotate(-90) scale(-1,1)">
			<title>Line-curve connector.28</title>
			<v:userDefs>
				<v:ud v:nameU="AntiScale" v:val="VT0(1):26"/>
				<v:ud v:nameU="Scale" v:val="VT0(1):26"/>
				<v:ud v:nameU="visVersion" v:val="VT0(14):26"/>
				<v:ud v:nameU="msvThemeColors" v:val="VT0(36):26"/>
				<v:ud v:nameU="msvThemeEffects" v:val="VT0(16):26"/>
			</v:userDefs>
			<path d="M0 612 L10.04 612 L19.12 612 L19.12 612" class="st13"/>
		</g>
		<g id="shape20-96" v:mID="20" v:groupContext="shape" transform="translate(446.155,-246.375)">
			<title>Rectangle.29</title>
			<desc>Device OS</desc>
			<v:userDefs>
				<v:ud v:nameU="visVersion" v:val="VT0(14):26"/>
				<v:ud v:nameU="msvThemeColors" v:val="VT0(36):26"/>
				<v:ud v:nameU="msvThemeEffects" v:val="VT0(16):26"/>
			</v:userDefs>
			<v:textBlock v:margins="rect(4,4,4,4)"/>
			<v:textRect cx="69.75" cy="594" width="139.5" height="36"/>
			<g id="shadow20-97" v:groupContext="shadow" v:shadowOffsetX="1.44" v:shadowOffsetY="-1.44" v:shadowType="1"
					transform="matrix(1,0,0,1,1.44,1.44)" class="st1">
				<rect x="0" y="576" width="139.5" height="36" class="st2"/>
			</g>
			<rect x="0" y="576" width="139.5" height="36" class="st12"/>
			<text x="45.38" y="597.6" class="st6" v:langID="1033"><v:paragraph v:horizAlign="1"/><v:tabList/>Device OS</text>		</g>
		<g id="shape21-102" v:mID="21" v:groupContext="shape" v:layerMember="0"
				transform="translate(-95.532,309.938) rotate(-90) scale(-1,1)">
			<title>Line-curve connector.30</title>
			<v:userDefs>
				<v:ud v:nameU="AntiScale" v:val="VT0(1):26"/>
				<v:ud v:nameU="Scale" v:val="VT0(1):26"/>
				<v:ud v:nameU="visVersion" v:val="VT0(14):26"/>
				<v:ud v:nameU="msvThemeColors" v:val="VT0(36):26"/>
				<v:ud v:nameU="msvThemeEffects" v:val="VT0(16):26"/>
			</v:userDefs>
			<path d="M0 612 L10.04 612 L19.12 612 L19.12 612" class="st13"/>
		</g>
		<g id="shape22-106" v:mID="22" v:groupContext="shape" v:layerMember="0"
				transform="translate(-326.157,226.125) rotate(-90) scale(-1,1)">
			<title>Line-curve connector.12</title>
			<v:userDefs>
				<v:ud v:nameU="AntiScale" v:val="VT0(1):26"/>
				<v:ud v:nameU="Scale" v:val="VT0(1):26"/>
				<v:ud v:nameU="visVersion" v:val="VT0(14):26"/>
				<v:ud v:nameU="msvThemeColors" v:val="VT0(36):26"/>
				<v:ud v:nameU="msvThemeEffects" v:val="VT0(16):26"/>
			</v:userDefs>
			<path d="M0 612 L10.04 612 L19.12 612 L19.12 612" class="st13"/>
		</g>
		<g id="shape23-110" v:mID="23" v:groupContext="shape" v:layerMember="0"
				transform="translate(-94.9695,225.563) rotate(-90) scale(-1,1)">
			<title>Line-curve connector.6</title>
			<v:userDefs>
				<v:ud v:nameU="AntiScale" v:val="VT0(1):26"/>
				<v:ud v:nameU="Scale" v:val="VT0(1):26"/>
				<v:ud v:nameU="visVersion" v:val="VT0(14):26"/>
				<v:ud v:nameU="msvThemeColors" v:val="VT0(36):26"/>
				<v:ud v:nameU="msvThemeEffects" v:val="VT0(16):26"/>
			</v:userDefs>
			<path d="M0 612 L10.04 612 L19.12 612 L19.12 612" class="st13"/>
		</g>
		<g id="shape24-114" v:mID="24" v:groupContext="shape" transform="translate(339.843,-329.911)">
			<title>60 degree double</title>
			<v:userDefs>
				<v:ud v:nameU="visVersion" v:val="VT0(14):26"/>
				<v:ud v:nameU="msvThemeColors" v:val="VT0(36):26"/>
				<v:ud v:nameU="msvThemeEffects" v:val="VT0(16):26"/>
			</v:userDefs>
			<g id="shadow24-115" v:groupContext="shadow" v:shadowOffsetX="1.44" v:shadowOffsetY="-1.44" v:shadowType="1"
					transform="matrix(1,0,0,1,1.44,1.44)" class="st1">
				<path d="M0 607.22 L2.76 602.45 L2.76 605.6 L120.99 605.6 L120.99 602.45 L123.75 607.22 L120.99 612 L120.99 608.85
							 L2.76 608.85 L2.76 612 L0 607.22 Z" class="st2"/>
			</g>
			<path d="M0 607.22 L2.76 602.45 L2.76 605.6 L120.99 605.6 L120.99 602.45 L123.75 607.22 L120.99 612 L120.99 608.85 L2.76
						 608.85 L2.76 612 L0 607.22 Z" class="st7"/>
		</g>
		<g id="shape25-119" v:mID="25" v:groupContext="shape" transform="translate(270.96,-410.625)">
			<title>Rectangle.35</title>
			<desc>Control Panel Service Framework Metadata</desc>
			<v:userDefs>
				<v:ud v:nameU="visVersion" v:val="VT0(14):26"/>
				<v:ud v:nameU="msvThemeColors" v:val="VT0(36):26"/>
				<v:ud v:nameU="msvThemeEffects" v:val="VT0(16):26"/>
			</v:userDefs>
			<v:textBlock v:margins="rect(4,4,4,4)"/>
			<v:textRect cx="40.9103" cy="596.25" width="81.83" height="31.5"/>
			<g id="shadow25-120" v:groupContext="shadow" v:shadowOffsetX="1.44" v:shadowOffsetY="-1.44" v:shadowType="1"
					transform="matrix(1,0,0,1,1.44,1.44)" class="st1">
				<rect x="0" y="580.5" width="81.8206" height="31.5" class="st2"/>
			</g>
			<rect x="0" y="580.5" width="81.8206" height="31.5" class="st11"/>
			<text x="6.38" y="593.85" class="st8" v:langID="1033"><v:paragraph v:horizAlign="1"/><v:tabList/>Control Panel Service <tspan
						x="5.55" dy="1.2em" class="st9">Framework Metadata</tspan></text>		</g>
		<g id="shape26-126" v:mID="26" v:groupContext="shape" transform="translate(450.093,-396.761)">
			<title>Rectangle.36</title>
			<desc>Control Panel Service Framework UI Toolkit Adaptation Layer</desc>
			<v:userDefs>
				<v:ud v:nameU="visVersion" v:val="VT0(14):26"/>
				<v:ud v:nameU="msvThemeColors" v:val="VT0(36):26"/>
				<v:ud v:nameU="msvThemeEffects" v:val="VT0(16):26"/>
			</v:userDefs>
			<v:textBlock v:margins="rect(4,4,4,4)"/>
			<v:textRect cx="42.0323" cy="589.881" width="84.07" height="44.2389"/>
			<g id="shadow26-127" v:groupContext="shadow" v:shadowOffsetX="1.44" v:shadowOffsetY="-1.44" v:shadowType="1"
					transform="matrix(1,0,0,1,1.44,1.44)" class="st1">
				<rect x="0" y="567.761" width="84.0646" height="44.2389" class="st2"/>
			</g>
			<rect x="0" y="567.761" width="84.0646" height="44.2389" class="st7"/>
			<text x="7.5" y="582.68" class="st8" v:langID="1033"><v:paragraph v:horizAlign="1"/><v:tabList/>Control Panel Service <tspan
						x="6.97" dy="1.2em" class="st9">Framework UI Toolkit  </tspan><tspan x="14.18" dy="1.2em" class="st9">Adaptation Layer</tspan></text>		</g>
		<g id="shape27-134" v:mID="27" v:groupContext="shape" transform="translate(260.53,-190.125)">
			<title>Sheet.27</title>
			<desc>Existing API and modules</desc>
			<v:userDefs>
				<v:ud v:nameU="msvThemeColors" v:val="VT0(36):26"/>
				<v:ud v:nameU="msvThemeEffects" v:val="VT0(16):26"/>
			</v:userDefs>
			<v:textBlock v:margins="rect(4,4,4,4)"/>
			<v:textRect cx="52" cy="604" width="104" height="16"/>
			<rect x="0" y="596" width="104" height="16" class="st5"/>
			<text x="11.39" y="606.4" class="st8" v:langID="1033"><v:paragraph v:horizAlign="1"/><v:tabList/>Existing API and modules</text>		</g>
		<g id="shape28-137" v:mID="28" v:groupContext="shape" transform="translate(209.343,-162)">
			<title>Rectangle.39</title>
			<v:userDefs>
				<v:ud v:nameU="visVersion" v:val="VT0(14):26"/>
				<v:ud v:nameU="msvThemeColors" v:val="VT0(36):26"/>
				<v:ud v:nameU="msvThemeEffects" v:val="VT0(16):26"/>
			</v:userDefs>
			<g id="shadow28-138" v:groupContext="shadow" v:shadowOffsetX="1.44" v:shadowOffsetY="-1.44" v:shadowType="1"
					transform="matrix(1,0,0,1,1.44,1.44)" class="st1">
				<rect x="0" y="592.875" width="35.4375" height="19.125" class="st2"/>
			</g>
			<rect x="0" y="592.875" width="35.4375" height="19.125" class="st11"/>
		</g>
		<g id="shape29-142" v:mID="29" v:groupContext="shape" transform="translate(252.093,-162.563)">
			<title>Sheet.29</title>
			<desc>CPS Module -- OEM</desc>
			<v:userDefs>
				<v:ud v:nameU="msvThemeColors" v:val="VT0(36):26"/>
				<v:ud v:nameU="msvThemeEffects" v:val="VT0(16):26"/>
			</v:userDefs>
			<v:textBlock v:margins="rect(4,4,4,4)"/>
			<v:textRect cx="52" cy="604" width="104" height="16"/>
			<rect x="0" y="596" width="104" height="16" class="st5"/>
			<text x="20.14" y="606.4" class="st8" v:langID="1033"><v:paragraph v:horizAlign="1"/><v:tabList/>CPS Module -- OEM</text>		</g>
		<g id="shape30-145" v:mID="30" v:groupContext="shape" transform="translate(208.78,-136.125)">
			<title>Rectangle.41</title>
			<v:userDefs>
				<v:ud v:nameU="visVersion" v:val="VT0(14):26"/>
				<v:ud v:nameU="msvThemeColors" v:val="VT0(36):26"/>
				<v:ud v:nameU="msvThemeEffects" v:val="VT0(16):26"/>
			</v:userDefs>
			<g id="shadow30-146" v:groupContext="shadow" v:shadowOffsetX="1.44" v:shadowOffsetY="-1.44" v:shadowType="1"
					transform="matrix(1,0,0,1,1.44,1.44)" class="st1">
				<rect x="0" y="592.875" width="34.875" height="19.125" class="st2"/>
			</g>
			<rect x="0" y="592.875" width="34.875" height="19.125" class="st7"/>
		</g>
		<g id="shape31-150" v:mID="31" v:groupContext="shape" transform="translate(257.611,-140.25)">
			<title>Sheet.31</title>
			<desc>CPS Module -- provided</desc>
			<v:userDefs>
				<v:ud v:nameU="msvThemeColors" v:val="VT0(36):26"/>
				<v:ud v:nameU="msvThemeEffects" v:val="VT0(16):26"/>
			</v:userDefs>
			<v:textBlock v:margins="rect(4,4,4,4)"/>
			<v:textRect cx="52" cy="604" width="104" height="16"/>
			<rect x="0" y="596" width="104" height="16" class="st5"/>
			<text x="13.64" y="606.4" class="st8" v:langID="1033"><v:paragraph v:horizAlign="1"/><v:tabList/>CPS Module -- provided</text>		</g>
	</g>
</svg>
