<?xml version="1.0" encoding="UTF-8" standalone="no"?>
<!DOCTYPE svg PUBLIC "-//W3C//DTD SVG 1.0//EN" "http://www.w3.org/TR/2001/REC-SVG-20010904/DTD/svg10.dtd">
<!-- Generated by Microsoft Visio 11.0, SVG Export, v1.0 Drawing322.svg Page-1 -->
<svg xmlns="http://www.w3.org/2000/svg" xmlns:xlink="http://www.w3.org/1999/xlink" xmlns:ev="http://www.w3.org/2001/xml-events"
		xmlns:v="http://schemas.microsoft.com/visio/2003/SVGExtensions/" width="11in" height="8.5in" viewBox="0 0 792 612"
		xml:space="preserve" color-interpolation-filters="sRGB" class="st12">
	<v:documentProperties v:langID="1033" v:viewMarkup="false">
		<v:userDefs>
			<v:ud v:nameU="msvNoAutoConnect" v:val="VT0(0):26"/>
		</v:userDefs>
	</v:documentProperties>

	<style type="text/css">
	<![CDATA[
		.st1 {visibility:visible}
		.st2 {fill:#cdcdcd;fill-opacity:0.5;stroke:#cdcdcd;stroke-linecap:round;stroke-linejoin:round;stroke-opacity:0.5;stroke-width:0.25}
		.st3 {fill:url(#grad30-6);stroke:#404040;stroke-linecap:round;stroke-linejoin:round;stroke-width:0.25}
		.st4 {fill:url(#grad30-12);stroke:#404040;stroke-linecap:round;stroke-linejoin:round;stroke-width:0.25}
		.st5 {fill:#000000;font-family:Calibri;font-size:0.833336em;font-weight:bold}
		.st6 {fill:none;stroke:none;stroke-linecap:round;stroke-linejoin:round;stroke-width:0.25}
		.st7 {fill:#000000;font-family:Calibri;font-size:1.00001em}
		.st8 {font-size:1em}
		.st9 {fill:#c00000;font-family:Calibri;font-size:0.75em;font-weight:bold}
		.st10 {stroke:#404040;stroke-linecap:round;stroke-linejoin:round;stroke-width:1}
		.st11 {fill:url(#grad30-107);stroke:#404040;stroke-linecap:round;stroke-linejoin:round;stroke-width:0.25}
		.st12 {fill:none;fill-rule:evenodd;font-size:12px;overflow:visible;stroke-linecap:square;stroke-miterlimit:3}
	]]>
	</style>

	<defs id="Patterns_And_Gradients">
		<linearGradient id="grad30-6" v:fillPattern="30" v:foreground="#c9c9c9" v:background="#d8d8d8" x1="0" y1="1" x2="0" y2="0">
			<stop offset="0" style="stop-color:#c9c9c9;stop-opacity:1"/>
			<stop offset="1" style="stop-color:#d8d8d8;stop-opacity:1"/>
		</linearGradient>
		<linearGradient id="grad30-12" v:fillPattern="30" v:foreground="#f0f0f0" v:background="#ffffff" x1="0" y1="1" x2="0" y2="0">
			<stop offset="0" style="stop-color:#f0f0f0;stop-opacity:1"/>
			<stop offset="1" style="stop-color:#ffffff;stop-opacity:1"/>
		</linearGradient>
		<linearGradient id="grad30-107" v:fillPattern="30" v:foreground="#f2c59f" v:background="#f6d5b9" x1="0" y1="1" x2="0"
				y2="0">
			<stop offset="0" style="stop-color:#f2c59f;stop-opacity:1"/>
			<stop offset="1" style="stop-color:#f6d5b9;stop-opacity:1"/>
		</linearGradient>
	</defs>
	<g v:mID="0" v:index="1" v:groupContext="foregroundPage">
		<v:userDefs>
			<v:ud v:nameU="msvThemeColors" v:val="VT0(36):26"/>
			<v:ud v:nameU="msvThemeEffects" v:val="VT0(16):26"/>
			<v:ud v:nameU="msvThemeOrder" v:val="VT0(0):26"/>
		</v:userDefs>
		<title>Page-1</title>
		<v:pageProperties v:drawingScale="1" v:pageScale="1" v:drawingUnits="0" v:shadowOffsetX="9" v:shadowOffsetY="-9"/>
		<v:layer v:name="Connector" v:index="0"/>
		<g id="shape1-1" v:mID="1" v:groupContext="shape" transform="translate(199.125,-176.3)">
			<title>Rounded rectangle</title>
			<v:userDefs>
				<v:ud v:nameU="visVersion" v:val="VT0(14):26"/>
				<v:ud v:nameU="msvThemeColors" v:val="VT0(36):26"/>
				<v:ud v:nameU="msvThemeEffects" v:val="VT0(16):26"/>
			</v:userDefs>
			<g id="shadow1-2" v:groupContext="shadow" v:shadowOffsetX="1.44" v:shadowOffsetY="-1.44" v:shadowType="1"
					transform="matrix(1,0,0,1,1.44,1.44)" class="st1">
				<path d="M151.87 612 A9.00007 9.00007 -180 0 0 160.87 603 L160.87 362 A9.00007 9.00007 -180 0 0 151.87 353 L9 353
							 A9.00007 9.00007 -180 0 0 -0 362 L0 603 A9.00007 9.00007 -180 0 0 9 612 L151.87 612 Z" class="st2"/>
			</g>
			<path d="M151.87 612 A9.00007 9.00007 -180 0 0 160.87 603 L160.87 362 A9.00007 9.00007 -180 0 0 151.87 353 L9 353 A9.00007
						 9.00007 -180 0 0 -0 362 L0 603 A9.00007 9.00007 -180 0 0 9 612 L151.87 612 Z" class="st3"/>
		</g>
		<g id="shape2-7" v:mID="2" v:groupContext="shape" transform="translate(214.714,-256.022)">
			<title>Rectangle.2</title>
			<v:userDefs>
				<v:ud v:nameU="visVersion" v:val="VT0(14):26"/>
				<v:ud v:nameU="msvThemeColors" v:val="VT0(36):26"/>
				<v:ud v:nameU="msvThemeEffects" v:val="VT0(16):26"/>
			</v:userDefs>
			<g id="shadow2-8" v:groupContext="shadow" v:shadowOffsetX="1.44" v:shadowOffsetY="-1.44" v:shadowType="1"
					transform="matrix(1,0,0,1,1.44,1.44)" class="st1">
				<rect x="0" y="540" width="133.313" height="72" class="st2"/>
			</g>
			<rect x="0" y="540" width="133.313" height="72" class="st4"/>
		</g>
		<g id="shape3-13" v:mID="3" v:groupContext="shape" transform="translate(216,-365.308)">
			<title>Rectangle</title>
			<desc>Producer App</desc>
			<v:userDefs>
				<v:ud v:nameU="visVersion" v:val="VT0(14):26"/>
				<v:ud v:nameU="msvThemeColors" v:val="VT0(36):26"/>
				<v:ud v:nameU="msvThemeEffects" v:val="VT0(16):26"/>
			</v:userDefs>
			<v:textBlock v:margins="rect(4,4,4,4)"/>
			<v:textRect cx="66.0938" cy="594" width="132.19" height="36"/>
			<g id="shadow3-14" v:groupContext="shadow" v:shadowOffsetX="1.44" v:shadowOffsetY="-1.44" v:shadowType="1"
					transform="matrix(1,0,0,1,1.44,1.44)" class="st1">
				<rect x="0" y="576" width="132.188" height="36" class="st2"/>
			</g>
			<rect x="0" y="576" width="132.188" height="36" class="st4"/>
			<text x="37.69" y="597.6" class="st5" v:langID="1033"><v:paragraph v:horizAlign="1"/><v:tabList/>Producer App</text>		</g>
		<g id="shape4-19" v:mID="4" v:groupContext="shape" transform="translate(208.929,-417.379)">
			<title>Sheet.4</title>
			<desc>AllJoyn Producer Device</desc>
			<v:userDefs>
				<v:ud v:nameU="msvThemeColors" v:val="VT0(36):26"/>
				<v:ud v:nameU="msvThemeEffects" v:val="VT0(16):26"/>
			</v:userDefs>
			<v:textBlock v:margins="rect(4,4,4,4)"/>
			<v:textRect cx="72" cy="604" width="144" height="16"/>
			<rect x="0" y="596" width="144" height="16" class="st6"/>
			<text x="13.56" y="607.6" class="st7" v:langID="1033"><v:paragraph v:horizAlign="1"/><v:tabList/>AllJoyn Producer Device</text>		</g>
		<g id="shape5-22" v:mID="5" v:groupContext="shape" transform="translate(214.714,-223.879)">
			<title>Rectangle.37</title>
			<desc>AllJoyn Core</desc>
			<v:userDefs>
				<v:ud v:nameU="visVersion" v:val="VT0(14):26"/>
				<v:ud v:nameU="msvThemeColors" v:val="VT0(36):26"/>
				<v:ud v:nameU="msvThemeEffects" v:val="VT0(16):26"/>
			</v:userDefs>
			<v:textBlock v:margins="rect(4,4,4,4)"/>
			<v:textRect cx="66.6563" cy="596.531" width="133.32" height="30.9375"/>
			<g id="shadow5-23" v:groupContext="shadow" v:shadowOffsetX="1.44" v:shadowOffsetY="-1.44" v:shadowType="1"
					transform="matrix(1,0,0,1,1.44,1.44)" class="st1">
				<rect x="0" y="581.063" width="133.313" height="30.9375" class="st2"/>
			</g>
			<rect x="0" y="581.063" width="133.313" height="30.9375" class="st4"/>
			<text x="41.02" y="599.53" class="st5" v:langID="1033"><v:paragraph v:horizAlign="1"/><v:tabList/>AllJoyn Core</text>		</g>
		<g id="shape6-28" v:mID="6" v:groupContext="shape" transform="translate(216,-329.308)">
			<title>Rectangle.17</title>
			<desc>Notification Service Producer API</desc>
			<v:userDefs>
				<v:ud v:nameU="visVersion" v:val="VT0(14):26"/>
				<v:ud v:nameU="msvThemeColors" v:val="VT0(36):26"/>
				<v:ud v:nameU="msvThemeEffects" v:val="VT0(16):26"/>
			</v:userDefs>
			<v:textBlock v:margins="rect(4,4,4,4)"/>
			<v:textRect cx="66.6563" cy="599.061" width="133.32" height="25.879"/>
			<g id="shadow6-29" v:groupContext="shadow" v:shadowOffsetX="1.44" v:shadowOffsetY="-1.44" v:shadowType="1"
					transform="matrix(1,0,0,1,1.44,1.44)" class="st1">
				<rect x="0" y="586.121" width="133.313" height="25.879" class="st2"/>
			</g>
			<rect x="0" y="586.121" width="133.313" height="25.879" class="st4"/>
			<text x="6.01" y="596.06" class="st5" v:langID="1033"><v:paragraph v:horizAlign="1"/><v:tabList/>Notification Service Producer <tspan
						x="59.63" dy="1.2em" class="st8">API</tspan></text>		</g>
		<g id="shape7-35" v:mID="7" v:groupContext="shape" transform="translate(262.286,-266.308)">
			<title>Rectangle.18</title>
			<desc>AllJoyn Notification Interface</desc>
			<v:userDefs>
				<v:ud v:nameU="visVersion" v:val="VT0(14):26"/>
				<v:ud v:nameU="msvThemeColors" v:val="VT0(36):26"/>
				<v:ud v:nameU="msvThemeEffects" v:val="VT0(16):26"/>
			</v:userDefs>
			<v:textBlock v:margins="rect(4,4,4,4)"/>
			<v:textRect cx="35.7188" cy="596.531" width="71.44" height="30.9375"/>
			<g id="shadow7-36" v:groupContext="shadow" v:shadowOffsetX="1.44" v:shadowOffsetY="-1.44" v:shadowType="1"
					transform="matrix(1,0,0,1,1.44,1.44)" class="st1">
				<rect x="0" y="581.063" width="71.4375" height="30.9375" class="st2"/>
			</g>
			<rect x="0" y="581.063" width="71.4375" height="30.9375" class="st4"/>
			<text x="22.33" y="588.43" class="st9" v:langID="1033"><v:paragraph v:horizAlign="1"/><v:tabList/>AllJoyn <tspan
						x="13.54" dy="1.2em" class="st8">Notification </tspan><tspan x="18.89" dy="1.2em" class="st8">Interface</tspan></text>		</g>
		<g id="shape8-43" v:mID="8" v:groupContext="shape" transform="translate(432,-177.425)">
			<title>Rounded rectangle.2</title>
			<v:userDefs>
				<v:ud v:nameU="visVersion" v:val="VT0(14):26"/>
				<v:ud v:nameU="msvThemeColors" v:val="VT0(36):26"/>
				<v:ud v:nameU="msvThemeEffects" v:val="VT0(16):26"/>
			</v:userDefs>
			<g id="shadow8-44" v:groupContext="shadow" v:shadowOffsetX="1.44" v:shadowOffsetY="-1.44" v:shadowType="1"
					transform="matrix(1,0,0,1,1.44,1.44)" class="st1">
				<path d="M151.87 612 A9.00007 9.00007 -180 0 0 160.87 603 L160.87 362.72 A9.00007 9.00007 -180 0 0 151.87 353.72
							 L9 353.72 A9.00007 9.00007 -180 0 0 -0 362.72 L0 603 A9.00007 9.00007 -180 0 0 9 612 L151.87 612 Z"
						class="st2"/>
			</g>
			<path d="M151.87 612 A9.00007 9.00007 -180 0 0 160.87 603 L160.87 362.72 A9.00007 9.00007 -180 0 0 151.87 353.72 L9 353.72
						 A9.00007 9.00007 -180 0 0 -0 362.72 L0 603 A9.00007 9.00007 -180 0 0 9 612 L151.87 612 Z" class="st3"/>
		</g>
		<g id="shape9-48" v:mID="9" v:groupContext="shape" transform="translate(448.875,-365.709)">
			<title>Rectangle.6</title>
			<desc>Consumer App</desc>
			<v:userDefs>
				<v:ud v:nameU="visVersion" v:val="VT0(14):26"/>
				<v:ud v:nameU="msvThemeColors" v:val="VT0(36):26"/>
				<v:ud v:nameU="msvThemeEffects" v:val="VT0(16):26"/>
			</v:userDefs>
			<v:textBlock v:margins="rect(4,4,4,4)"/>
			<v:textRect cx="66.0938" cy="594" width="132.19" height="36"/>
			<g id="shadow9-49" v:groupContext="shadow" v:shadowOffsetX="1.44" v:shadowOffsetY="-1.44" v:shadowType="1"
					transform="matrix(1,0,0,1,1.44,1.44)" class="st1">
				<rect x="0" y="576" width="132.188" height="36" class="st2"/>
			</g>
			<rect x="0" y="576" width="132.188" height="36" class="st4"/>
			<text x="35.51" y="597.6" class="st5" v:langID="1033"><v:paragraph v:horizAlign="1"/><v:tabList/>Consumer App</text>		</g>
		<g id="shape10-54" v:mID="10" v:groupContext="shape" transform="translate(441.804,-417.781)">
			<title>Sheet.10</title>
			<desc>AllJoyn Consumer Device</desc>
			<v:userDefs>
				<v:ud v:nameU="msvThemeColors" v:val="VT0(36):26"/>
				<v:ud v:nameU="msvThemeEffects" v:val="VT0(16):26"/>
			</v:userDefs>
			<v:textBlock v:margins="rect(4,4,4,4)"/>
			<v:textRect cx="72" cy="604" width="144" height="16"/>
			<rect x="0" y="596" width="144" height="16" class="st6"/>
			<text x="10.94" y="607.6" class="st7" v:langID="1033"><v:paragraph v:horizAlign="1"/><v:tabList/>AllJoyn Consumer Device</text>		</g>
		<g id="shape11-57" v:mID="11" v:groupContext="shape" transform="translate(228.214,-305.522)">
			<title>Sheet.11</title>
			<desc>Notification Service</desc>
			<v:userDefs>
				<v:ud v:nameU="msvThemeColors" v:val="VT0(36):26"/>
				<v:ud v:nameU="msvThemeEffects" v:val="VT0(16):26"/>
			</v:userDefs>
			<v:textBlock v:margins="rect(4,4,4,4)"/>
			<v:textRect cx="52" cy="604" width="104" height="16"/>
			<rect x="0" y="596" width="104" height="16" class="st6"/>
			<text x="11.36" y="607" class="st5" v:langID="1033"><v:paragraph v:horizAlign="1"/><v:tabList/>Notification Service</text>		</g>
		<g id="shape12-60" v:mID="12" v:groupContext="shape" v:layerMember="0"
				transform="translate(-329.143,246.05) rotate(-90) scale(-1,1)">
			<title>Line-curve connector</title>
			<v:userDefs>
				<v:ud v:nameU="AntiScale" v:val="VT0(1):26"/>
				<v:ud v:nameU="Scale" v:val="VT0(1):26"/>
				<v:ud v:nameU="visVersion" v:val="VT0(14):26"/>
				<v:ud v:nameU="msvThemeColors" v:val="VT0(36):26"/>
				<v:ud v:nameU="msvThemeEffects" v:val="VT0(16):26"/>
			</v:userDefs>
			<path d="M0 612 L10.04 612 L19.12 612 L19.12 612" class="st10"/>
		</g>
		<g id="shape13-64" v:mID="13" v:groupContext="shape" transform="translate(448.071,-256.022)">
			<title>Rectangle.10</title>
			<v:userDefs>
				<v:ud v:nameU="visVersion" v:val="VT0(14):26"/>
				<v:ud v:nameU="msvThemeColors" v:val="VT0(36):26"/>
				<v:ud v:nameU="msvThemeEffects" v:val="VT0(16):26"/>
			</v:userDefs>
			<g id="shadow13-65" v:groupContext="shadow" v:shadowOffsetX="1.44" v:shadowOffsetY="-1.44" v:shadowType="1"
					transform="matrix(1,0,0,1,1.44,1.44)" class="st1">
				<rect x="0" y="540" width="133.313" height="72" class="st2"/>
			</g>
			<rect x="0" y="540" width="133.313" height="72" class="st4"/>
		</g>
		<g id="shape14-69" v:mID="14" v:groupContext="shape" transform="translate(448.071,-223.879)">
			<title>Rectangle.13</title>
			<desc>AllJoyn Core</desc>
			<v:userDefs>
				<v:ud v:nameU="visVersion" v:val="VT0(14):26"/>
				<v:ud v:nameU="msvThemeColors" v:val="VT0(36):26"/>
				<v:ud v:nameU="msvThemeEffects" v:val="VT0(16):26"/>
			</v:userDefs>
			<v:textBlock v:margins="rect(4,4,4,4)"/>
			<v:textRect cx="66.6563" cy="596.531" width="133.32" height="30.9375"/>
			<g id="shadow14-70" v:groupContext="shadow" v:shadowOffsetX="1.44" v:shadowOffsetY="-1.44" v:shadowType="1"
					transform="matrix(1,0,0,1,1.44,1.44)" class="st1">
				<rect x="0" y="581.063" width="133.313" height="30.9375" class="st2"/>
			</g>
			<rect x="0" y="581.063" width="133.313" height="30.9375" class="st4"/>
			<text x="41.02" y="599.53" class="st5" v:langID="1033"><v:paragraph v:horizAlign="1"/><v:tabList/>AllJoyn Core</text>		</g>
		<g id="shape15-75" v:mID="15" v:groupContext="shape" transform="translate(449.357,-329.308)">
			<title>Rectangle.14</title>
			<desc>Notification Service Consumer API</desc>
			<v:userDefs>
				<v:ud v:nameU="visVersion" v:val="VT0(14):26"/>
				<v:ud v:nameU="msvThemeColors" v:val="VT0(36):26"/>
				<v:ud v:nameU="msvThemeEffects" v:val="VT0(16):26"/>
			</v:userDefs>
			<v:textBlock v:margins="rect(4,4,4,4)"/>
			<v:textRect cx="66.6562" cy="599.061" width="133.32" height="25.879"/>
			<g id="shadow15-76" v:groupContext="shadow" v:shadowOffsetX="1.44" v:shadowOffsetY="-1.44" v:shadowType="1"
					transform="matrix(1,0,0,1,1.44,1.44)" class="st1">
				<rect x="0" y="586.121" width="133.313" height="25.879" class="st2"/>
			</g>
			<rect x="0" y="586.121" width="133.313" height="25.879" class="st4"/>
			<text x="26.02" y="596.06" class="st5" v:langID="1033"><v:paragraph v:horizAlign="1"/><v:tabList/>Notification Service <tspan
						x="37.44" dy="1.2em" class="st8">Consumer API</tspan></text>		</g>
		<g id="shape16-82" v:mID="16" v:groupContext="shape" transform="translate(459.643,-266.308)">
			<title>Rectangle.19</title>
			<desc>AllJoyn Notification Interface</desc>
			<v:userDefs>
				<v:ud v:nameU="visVersion" v:val="VT0(14):26"/>
				<v:ud v:nameU="msvThemeColors" v:val="VT0(36):26"/>
				<v:ud v:nameU="msvThemeEffects" v:val="VT0(16):26"/>
			</v:userDefs>
			<v:textBlock v:margins="rect(4,4,4,4)"/>
			<v:textRect cx="35.7188" cy="596.531" width="71.44" height="30.9375"/>
			<g id="shadow16-83" v:groupContext="shadow" v:shadowOffsetX="1.44" v:shadowOffsetY="-1.44" v:shadowType="1"
					transform="matrix(1,0,0,1,1.44,1.44)" class="st1">
				<rect x="0" y="581.063" width="71.4375" height="30.9375" class="st2"/>
			</g>
			<rect x="0" y="581.063" width="71.4375" height="30.9375" class="st4"/>
			<text x="22.33" y="588.43" class="st9" v:langID="1033"><v:paragraph v:horizAlign="1"/><v:tabList/>AllJoyn <tspan
						x="13.54" dy="1.2em" class="st8">Notification </tspan><tspan x="18.89" dy="1.2em" class="st8">Interface</tspan></text>		</g>
		<g id="shape17-90" v:mID="17" v:groupContext="shape" transform="translate(461.571,-305.522)">
			<title>Sheet.17</title>
			<desc>Notification Service</desc>
			<v:userDefs>
				<v:ud v:nameU="msvThemeColors" v:val="VT0(36):26"/>
				<v:ud v:nameU="msvThemeEffects" v:val="VT0(16):26"/>
			</v:userDefs>
			<v:textBlock v:margins="rect(4,4,4,4)"/>
			<v:textRect cx="52" cy="604" width="104" height="16"/>
			<rect x="0" y="596" width="104" height="16" class="st6"/>
			<text x="11.36" y="607" class="st5" v:langID="1033"><v:paragraph v:horizAlign="1"/><v:tabList/>Notification Service</text>		</g>
		<g id="shape18-93" v:mID="18" v:groupContext="shape" v:layerMember="0"
				transform="translate(-95.7857,246.05) rotate(-90) scale(-1,1)">
			<title>Line-curve connector.18</title>
			<v:userDefs>
				<v:ud v:nameU="AntiScale" v:val="VT0(1):26"/>
				<v:ud v:nameU="Scale" v:val="VT0(1):26"/>
				<v:ud v:nameU="visVersion" v:val="VT0(14):26"/>
				<v:ud v:nameU="msvThemeColors" v:val="VT0(36):26"/>
				<v:ud v:nameU="msvThemeEffects" v:val="VT0(16):26"/>
			</v:userDefs>
			<path d="M0 612 L10.04 612 L19.12 612 L19.12 612" class="st10"/>
		</g>
		<g id="shape19-97" v:mID="19" v:groupContext="shape" transform="translate(334.688,-278.084)">
			<title>60 degree double</title>
			<v:userDefs>
				<v:ud v:nameU="visVersion" v:val="VT0(14):26"/>
				<v:ud v:nameU="msvThemeColors" v:val="VT0(36):26"/>
				<v:ud v:nameU="msvThemeEffects" v:val="VT0(16):26"/>
			</v:userDefs>
			<g id="shadow19-98" v:groupContext="shadow" v:shadowOffsetX="1.44" v:shadowOffsetY="-1.44" v:shadowType="1"
					transform="matrix(1,0,0,1,1.44,1.44)" class="st1">
				<path d="M0 607.22 L2.76 602.45 L2.76 605.6 L122.12 605.6 L122.12 602.45 L124.87 607.22 L122.12 612 L122.12 608.85
							 L2.76 608.85 L2.76 612 L0 607.22 Z" class="st2"/>
			</g>
			<path d="M0 607.22 L2.76 602.45 L2.76 605.6 L122.12 605.6 L122.12 602.45 L124.87 607.22 L122.12 612 L122.12 608.85 L2.76
						 608.85 L2.76 612 L0 607.22 Z" class="st4"/>
		</g>
		<g id="shape20-102" v:mID="20" v:groupContext="shape" transform="translate(215.438,-187.325)">
			<title>Rectangle.12</title>
			<desc>Device OS</desc>
			<v:userDefs>
				<v:ud v:nameU="visVersion" v:val="VT0(14):26"/>
				<v:ud v:nameU="msvThemeColors" v:val="VT0(36):26"/>
				<v:ud v:nameU="msvThemeEffects" v:val="VT0(16):26"/>
			</v:userDefs>
			<v:textBlock v:margins="rect(4,4,4,4)"/>
			<v:textRect cx="66.375" cy="599.906" width="132.75" height="24.1875"/>
			<g id="shadow20-103" v:groupContext="shadow" v:shadowOffsetX="1.44" v:shadowOffsetY="-1.44" v:shadowType="1"
					transform="matrix(1,0,0,1,1.44,1.44)" class="st1">
				<rect x="0" y="587.813" width="132.75" height="24.1875" class="st2"/>
			</g>
			<rect x="0" y="587.813" width="132.75" height="24.1875" class="st11"/>
			<text x="42" y="603.51" class="st7" v:langID="1033"><v:paragraph v:horizAlign="1"/><v:tabList/>Device OS</text>		</g>
		<g id="shape21-109" v:mID="21" v:groupContext="shape" v:layerMember="0"
				transform="translate(-327.262,388.113) rotate(-90) scale(-1,1)">
			<title>Line-curve connector.35</title>
			<v:userDefs>
				<v:ud v:nameU="AntiScale" v:val="VT0(1):26"/>
				<v:ud v:nameU="Scale" v:val="VT0(1):26"/>
				<v:ud v:nameU="visVersion" v:val="VT0(14):26"/>
				<v:ud v:nameU="msvThemeColors" v:val="VT0(36):26"/>
				<v:ud v:nameU="msvThemeEffects" v:val="VT0(16):26"/>
			</v:userDefs>
			<path d="M0 612 L6.79 612 L12.94 612 L12.94 612" class="st10"/>
		</g>
		<g id="shape22-113" v:mID="22" v:groupContext="shape" transform="translate(446.4,-187.325)">
			<title>Rectangle.22</title>
			<desc>Device OS</desc>
			<v:userDefs>
				<v:ud v:nameU="visVersion" v:val="VT0(14):26"/>
				<v:ud v:nameU="msvThemeColors" v:val="VT0(36):26"/>
				<v:ud v:nameU="msvThemeEffects" v:val="VT0(16):26"/>
			</v:userDefs>
			<v:textBlock v:margins="rect(4,4,4,4)"/>
			<v:textRect cx="66.375" cy="599.906" width="132.75" height="24.1875"/>
			<g id="shadow22-114" v:groupContext="shadow" v:shadowOffsetX="1.44" v:shadowOffsetY="-1.44" v:shadowType="1"
					transform="matrix(1,0,0,1,1.44,1.44)" class="st1">
				<rect x="0" y="587.813" width="132.75" height="24.1875" class="st2"/>
			</g>
			<rect x="0" y="587.813" width="132.75" height="24.1875" class="st11"/>
			<text x="42" y="603.51" class="st7" v:langID="1033"><v:paragraph v:horizAlign="1"/><v:tabList/>Device OS</text>		</g>
		<g id="shape23-119" v:mID="23" v:groupContext="shape" v:layerMember="0"
				transform="translate(-96.3,388.113) rotate(-90) scale(-1,1)">
			<title>Line-curve connector.23</title>
			<v:userDefs>
				<v:ud v:nameU="AntiScale" v:val="VT0(1):26"/>
				<v:ud v:nameU="Scale" v:val="VT0(1):26"/>
				<v:ud v:nameU="visVersion" v:val="VT0(14):26"/>
				<v:ud v:nameU="msvThemeColors" v:val="VT0(36):26"/>
				<v:ud v:nameU="msvThemeEffects" v:val="VT0(16):26"/>
			</v:userDefs>
			<path d="M0 612 L6.79 612 L12.94 612 L12.94 612" class="st10"/>
		</g>
	</g>
</svg>
