<?xml version="1.0" encoding="UTF-8" standalone="no"?>
<!DOCTYPE svg PUBLIC "-//W3C//DTD SVG 1.0//EN" "http://www.w3.org/TR/2001/REC-SVG-20010904/DTD/svg10.dtd">
<!-- Generated by Microsoft Visio 11.0, SVG Export, v1.0 Drawing334.svg Page-1 -->
<svg xmlns="http://www.w3.org/2000/svg" xmlns:xlink="http://www.w3.org/1999/xlink" xmlns:ev="http://www.w3.org/2001/xml-events"
		xmlns:v="http://schemas.microsoft.com/visio/2003/SVGExtensions/" width="11in" height="8.5in" viewBox="0 0 792 612"
		xml:space="preserve" color-interpolation-filters="sRGB" class="st11">
	<v:documentProperties v:langID="1033" v:viewMarkup="false">
		<v:userDefs>
			<v:ud v:nameU="msvNoAutoConnect" v:val="VT0(0):26"/>
		</v:userDefs>
	</v:documentProperties>

	<style type="text/css">
	<![CDATA[
		.st1 {visibility:visible}
		.st2 {fill:#cdcdcd;fill-opacity:0.5;stroke:#cdcdcd;stroke-linecap:round;stroke-linejoin:round;stroke-opacity:0.5;stroke-width:0.25}
		.st3 {fill:url(#grad30-6);stroke:#404040;stroke-linecap:round;stroke-linejoin:round;stroke-width:0.25}
		.st4 {fill:url(#grad30-12);stroke:#404040;stroke-linecap:round;stroke-linejoin:round;stroke-width:0.25}
		.st5 {fill:none;stroke:none;stroke-linecap:round;stroke-linejoin:round;stroke-width:0.25}
		.st6 {fill:#000000;font-family:Calibri;font-size:1.00001em}
		.st7 {fill:#000000;font-family:Calibri;font-size:0.666664em}
		.st8 {fill:#000000;font-family:Calibri;font-size:0.833336em}
		.st9 {fill:url(#grad30-80);stroke:#404040;stroke-linecap:round;stroke-linejoin:round;stroke-width:0.25}
		.st10 {stroke:#404040;stroke-linecap:round;stroke-linejoin:round;stroke-width:1}
		.st11 {fill:none;fill-rule:evenodd;font-size:12px;overflow:visible;stroke-linecap:square;stroke-miterlimit:3}
	]]>
	</style>

	<defs id="Patterns_And_Gradients">
		<linearGradient id="grad30-6" v:fillPattern="30" v:foreground="#c9c9c9" v:background="#d8d8d8" x1="0" y1="1" x2="0" y2="0">
			<stop offset="0" style="stop-color:#c9c9c9;stop-opacity:1"/>
			<stop offset="1" style="stop-color:#d8d8d8;stop-opacity:1"/>
		</linearGradient>
		<linearGradient id="grad30-12" v:fillPattern="30" v:foreground="#f0f0f0" v:background="#ffffff" x1="0" y1="1" x2="0" y2="0">
			<stop offset="0" style="stop-color:#f0f0f0;stop-opacity:1"/>
			<stop offset="1" style="stop-color:#ffffff;stop-opacity:1"/>
		</linearGradient>
		<linearGradient id="grad30-80" v:fillPattern="30" v:foreground="#f2c59f" v:background="#f6d5b9" x1="0" y1="1" x2="0" y2="0">
			<stop offset="0" style="stop-color:#f2c59f;stop-opacity:1"/>
			<stop offset="1" style="stop-color:#f6d5b9;stop-opacity:1"/>
		</linearGradient>
	</defs>
	<g v:mID="0" v:index="1" v:groupContext="foregroundPage">
		<v:userDefs>
			<v:ud v:nameU="msvThemeColors" v:val="VT0(36):26"/>
			<v:ud v:nameU="msvThemeEffects" v:val="VT0(16):26"/>
			<v:ud v:nameU="msvThemeOrder" v:val="VT0(0):26"/>
		</v:userDefs>
		<title>Page-1</title>
		<v:pageProperties v:drawingScale="1" v:pageScale="1" v:drawingUnits="0" v:shadowOffsetX="9" v:shadowOffsetY="-9"/>
		<v:layer v:name="Connector" v:index="0"/>
		<g id="shape1-1" v:mID="1" v:groupContext="shape" transform="translate(197.438,-185.344)">
			<title>Rounded rectangle</title>
			<v:userDefs>
				<v:ud v:nameU="visVersion" v:val="VT0(14):26"/>
				<v:ud v:nameU="msvThemeColors" v:val="VT0(36):26"/>
				<v:ud v:nameU="msvThemeEffects" v:val="VT0(16):26"/>
			</v:userDefs>
			<g id="shadow1-2" v:groupContext="shadow" v:shadowOffsetX="1.44" v:shadowOffsetY="-1.44" v:shadowType="1"
					transform="matrix(1,0,0,1,1.44,1.44)" class="st1">
				<path d="M157.5 612 A9.00007 9.00007 -180 0 0 166.5 603 L166.5 378 A9.00007 9.00007 -180 0 0 157.5 369 L9 369 A9.00007
							 9.00007 -180 0 0 -0 378 L0 603 A9.00007 9.00007 -180 0 0 9 612 L157.5 612 Z" class="st2"/>
			</g>
			<path d="M157.5 612 A9.00007 9.00007 -180 0 0 166.5 603 L166.5 378 A9.00007 9.00007 -180 0 0 157.5 369 L9 369 A9.00007
						 9.00007 -180 0 0 -0 378 L0 603 A9.00007 9.00007 -180 0 0 9 612 L157.5 612 Z" class="st3"/>
		</g>
		<g id="shape2-7" v:mID="2" v:groupContext="shape" transform="translate(210.375,-336.656)">
			<title>Rectangle</title>
			<v:userDefs>
				<v:ud v:nameU="visVersion" v:val="VT0(14):26"/>
				<v:ud v:nameU="msvThemeColors" v:val="VT0(36):26"/>
				<v:ud v:nameU="msvThemeEffects" v:val="VT0(16):26"/>
			</v:userDefs>
			<g id="shadow2-8" v:groupContext="shadow" v:shadowOffsetX="1.44" v:shadowOffsetY="-1.44" v:shadowType="1"
					transform="matrix(1,0,0,1,1.44,1.44)" class="st1">
				<rect x="0" y="559.125" width="139.5" height="52.875" class="st2"/>
			</g>
			<rect x="0" y="559.125" width="139.5" height="52.875" class="st4"/>
		</g>
		<g id="shape3-13" v:mID="3" v:groupContext="shape" transform="translate(205.875,-409.219)">
			<title>Sheet.3</title>
			<desc>Onboardee Device</desc>
			<v:userDefs>
				<v:ud v:nameU="msvThemeColors" v:val="VT0(36):26"/>
				<v:ud v:nameU="msvThemeEffects" v:val="VT0(16):26"/>
			</v:userDefs>
			<v:textBlock v:margins="rect(4,4,4,4)"/>
			<v:textRect cx="72" cy="604" width="144" height="16"/>
			<rect x="0" y="596" width="144" height="16" class="st5"/>
			<text x="26.83" y="607.6" class="st6" v:langID="1033"><v:paragraph v:horizAlign="1"/><v:tabList/>Onboardee Device</text>		</g>
		<g id="shape4-16" v:mID="4" v:groupContext="shape" transform="translate(258.75,-253.406)">
			<title>Rectangle.4</title>
			<v:userDefs>
				<v:ud v:nameU="visVersion" v:val="VT0(14):26"/>
				<v:ud v:nameU="msvThemeColors" v:val="VT0(36):26"/>
				<v:ud v:nameU="msvThemeEffects" v:val="VT0(16):26"/>
			</v:userDefs>
			<g id="shadow4-17" v:groupContext="shadow" v:shadowOffsetX="1.44" v:shadowOffsetY="-1.44" v:shadowType="1"
					transform="matrix(1,0,0,1,1.44,1.44)" class="st1">
				<rect x="0" y="548.438" width="93.375" height="63.5625" class="st2"/>
			</g>
			<rect x="0" y="548.438" width="93.375" height="63.5625" class="st4"/>
		</g>
		<g id="shape5-21" v:mID="5" v:groupContext="shape" transform="translate(301.5,-339.469)">
			<title>Rectangle.5</title>
			<desc>AJ API</desc>
			<v:userDefs>
				<v:ud v:nameU="visVersion" v:val="VT0(14):26"/>
				<v:ud v:nameU="msvThemeColors" v:val="VT0(36):26"/>
				<v:ud v:nameU="msvThemeEffects" v:val="VT0(16):26"/>
			</v:userDefs>
			<v:textBlock v:margins="rect(4,4,4,4)"/>
			<v:textRect cx="18" cy="603.321" width="36" height="17.3571"/>
			<g id="shadow5-22" v:groupContext="shadow" v:shadowOffsetX="1.44" v:shadowOffsetY="-1.44" v:shadowType="1"
					transform="matrix(1,0,0,1,1.44,1.44)" class="st1">
				<rect x="0" y="594.643" width="36" height="17.3571" class="st2"/>
			</g>
			<rect x="0" y="594.643" width="36" height="17.3571" class="st4"/>
			<text x="8.12" y="605.72" class="st7" v:langID="1033"><v:paragraph v:horizAlign="1"/><v:tabList/>AJ API</text>		</g>
		<g id="shape6-27" v:mID="6" v:groupContext="shape" transform="translate(201.375,-369.281)">
			<title>Sheet.6</title>
			<desc>App</desc>
			<v:userDefs>
				<v:ud v:nameU="msvThemeColors" v:val="VT0(36):26"/>
				<v:ud v:nameU="msvThemeEffects" v:val="VT0(16):26"/>
			</v:userDefs>
			<v:textBlock v:margins="rect(4,4,4,4)"/>
			<v:textRect cx="49.5" cy="599" width="99" height="26"/>
			<rect x="0" y="586" width="99" height="26" class="st5"/>
			<text x="41.35" y="602" class="st8" v:langID="1033"><v:paragraph v:horizAlign="1"/><v:tabList/>App</text>		</g>
		<g id="shape7-30" v:mID="7" v:groupContext="shape" transform="translate(254.813,-257.344)">
			<title>Sheet.7</title>
			<desc>AllJoyn Platform</desc>
			<v:userDefs>
				<v:ud v:nameU="msvThemeColors" v:val="VT0(36):26"/>
				<v:ud v:nameU="msvThemeEffects" v:val="VT0(16):26"/>
			</v:userDefs>
			<v:textBlock v:margins="rect(4,4,4,4)"/>
			<v:textRect cx="49.5" cy="607.5" width="99" height="9"/>
			<rect x="0" y="603" width="99" height="9" class="st5"/>
			<text x="16.36" y="610.5" class="st8" v:langID="1033"><v:paragraph v:horizAlign="1"/><v:tabList/>AllJoyn Platform</text>		</g>
		<g id="shape8-33" v:mID="8" v:groupContext="shape" transform="translate(270.563,-273.094)">
			<title>Rectangle.11</title>
			<desc>AllJoyn Core</desc>
			<v:userDefs>
				<v:ud v:nameU="visVersion" v:val="VT0(14):26"/>
				<v:ud v:nameU="msvThemeColors" v:val="VT0(36):26"/>
				<v:ud v:nameU="msvThemeEffects" v:val="VT0(16):26"/>
			</v:userDefs>
			<v:textBlock v:margins="rect(4,4,4,4)"/>
			<v:textRect cx="35.7188" cy="596.813" width="71.44" height="30.375"/>
			<g id="shadow8-34" v:groupContext="shadow" v:shadowOffsetX="1.44" v:shadowOffsetY="-1.44" v:shadowType="1"
					transform="matrix(1,0,0,1,1.44,1.44)" class="st1">
				<rect x="0" y="581.625" width="71.4375" height="30.375" class="st2"/>
			</g>
			<rect x="0" y="581.625" width="71.4375" height="30.375" class="st4"/>
			<text x="15.74" y="599.21" class="st7" v:langID="1033"><v:paragraph v:horizAlign="1"/><v:tabList/>AllJoyn Core</text>		</g>
		<g id="shape9-39" v:mID="9" v:groupContext="shape" transform="translate(428.063,-183.656)">
			<title>Rounded rectangle.7</title>
			<v:userDefs>
				<v:ud v:nameU="visVersion" v:val="VT0(14):26"/>
				<v:ud v:nameU="msvThemeColors" v:val="VT0(36):26"/>
				<v:ud v:nameU="msvThemeEffects" v:val="VT0(16):26"/>
			</v:userDefs>
			<g id="shadow9-40" v:groupContext="shadow" v:shadowOffsetX="1.44" v:shadowOffsetY="-1.44" v:shadowType="1"
					transform="matrix(1,0,0,1,1.44,1.44)" class="st1">
				<path d="M157.5 612 A9.00007 9.00007 -180 0 0 166.5 603 L166.5 378 A9.00007 9.00007 -180 0 0 157.5 369 L9 369 A9.00007
							 9.00007 -180 0 0 -0 378 L0 603 A9.00007 9.00007 -180 0 0 9 612 L157.5 612 Z" class="st2"/>
			</g>
			<path d="M157.5 612 A9.00007 9.00007 -180 0 0 166.5 603 L166.5 378 A9.00007 9.00007 -180 0 0 157.5 369 L9 369 A9.00007
						 9.00007 -180 0 0 -0 378 L0 603 A9.00007 9.00007 -180 0 0 9 612 L157.5 612 Z" class="st3"/>
		</g>
		<g id="shape10-44" v:mID="10" v:groupContext="shape" transform="translate(441.563,-336.656)">
			<title>Rectangle.10</title>
			<v:userDefs>
				<v:ud v:nameU="visVersion" v:val="VT0(14):26"/>
				<v:ud v:nameU="msvThemeColors" v:val="VT0(36):26"/>
				<v:ud v:nameU="msvThemeEffects" v:val="VT0(16):26"/>
			</v:userDefs>
			<g id="shadow10-45" v:groupContext="shadow" v:shadowOffsetX="1.44" v:shadowOffsetY="-1.44" v:shadowType="1"
					transform="matrix(1,0,0,1,1.44,1.44)" class="st1">
				<rect x="0" y="559.125" width="139.5" height="52.875" class="st2"/>
			</g>
			<rect x="0" y="559.125" width="139.5" height="52.875" class="st4"/>
		</g>
		<g id="shape11-49" v:mID="11" v:groupContext="shape" transform="translate(434.25,-409.781)">
			<title>Sheet.11</title>
			<desc>Onboarder Device</desc>
			<v:userDefs>
				<v:ud v:nameU="msvThemeColors" v:val="VT0(36):26"/>
				<v:ud v:nameU="msvThemeEffects" v:val="VT0(16):26"/>
			</v:userDefs>
			<v:textBlock v:margins="rect(4,4,4,4)"/>
			<v:textRect cx="76.2188" cy="604" width="152.44" height="16"/>
			<rect x="0" y="596" width="152.438" height="16" class="st5"/>
			<text x="31.94" y="607.6" class="st6" v:langID="1033"><v:paragraph v:horizAlign="1"/><v:tabList/>Onboarder Device</text>		</g>
		<g id="shape12-52" v:mID="12" v:groupContext="shape" transform="translate(441.563,-253.406)">
			<title>Rectangle.12</title>
			<v:userDefs>
				<v:ud v:nameU="visVersion" v:val="VT0(14):26"/>
				<v:ud v:nameU="msvThemeColors" v:val="VT0(36):26"/>
				<v:ud v:nameU="msvThemeEffects" v:val="VT0(16):26"/>
			</v:userDefs>
			<g id="shadow12-53" v:groupContext="shadow" v:shadowOffsetX="1.44" v:shadowOffsetY="-1.44" v:shadowType="1"
					transform="matrix(1,0,0,1,1.44,1.44)" class="st1">
				<rect x="0" y="547.875" width="139.5" height="64.125" class="st2"/>
			</g>
			<rect x="0" y="547.875" width="139.5" height="64.125" class="st4"/>
		</g>
		<g id="shape13-57" v:mID="13" v:groupContext="shape" transform="translate(531,-340.594)">
			<title>Rectangle.15</title>
			<desc>AJ API</desc>
			<v:userDefs>
				<v:ud v:nameU="visVersion" v:val="VT0(14):26"/>
				<v:ud v:nameU="msvThemeColors" v:val="VT0(36):26"/>
				<v:ud v:nameU="msvThemeEffects" v:val="VT0(16):26"/>
			</v:userDefs>
			<v:textBlock v:margins="rect(4,4,4,4)"/>
			<v:textRect cx="21.6563" cy="603.321" width="43.32" height="17.3571"/>
			<g id="shadow13-58" v:groupContext="shadow" v:shadowOffsetX="1.44" v:shadowOffsetY="-1.44" v:shadowType="1"
					transform="matrix(1,0,0,1,1.44,1.44)" class="st1">
				<rect x="0" y="594.643" width="43.3125" height="17.3571" class="st2"/>
			</g>
			<rect x="0" y="594.643" width="43.3125" height="17.3571" class="st4"/>
			<text x="11.77" y="605.72" class="st7" v:langID="1033"><v:paragraph v:horizAlign="1"/><v:tabList/>AJ API</text>		</g>
		<g id="shape14-63" v:mID="14" v:groupContext="shape" transform="translate(435.938,-369.844)">
			<title>Sheet.14</title>
			<desc>Onboarder App</desc>
			<v:userDefs>
				<v:ud v:nameU="msvThemeColors" v:val="VT0(36):26"/>
				<v:ud v:nameU="msvThemeEffects" v:val="VT0(16):26"/>
			</v:userDefs>
			<v:textBlock v:margins="rect(4,4,4,4)"/>
			<v:textRect cx="49.5" cy="599" width="99" height="26"/>
			<rect x="0" y="586" width="99" height="26" class="st5"/>
			<text x="18.03" y="602" class="st8" v:langID="1033"><v:paragraph v:horizAlign="1"/><v:tabList/>Onboarder App</text>		</g>
		<g id="shape15-66" v:mID="15" v:groupContext="shape" transform="translate(455.063,-256.781)">
			<title>Sheet.15</title>
			<desc>AllJoyn Platform</desc>
			<v:userDefs>
				<v:ud v:nameU="msvThemeColors" v:val="VT0(36):26"/>
				<v:ud v:nameU="msvThemeEffects" v:val="VT0(16):26"/>
			</v:userDefs>
			<v:textBlock v:margins="rect(4,4,4,4)"/>
			<v:textRect cx="49.5" cy="607.5" width="99" height="9"/>
			<rect x="0" y="603" width="99" height="9" class="st5"/>
			<text x="16.36" y="610.5" class="st8" v:langID="1033"><v:paragraph v:horizAlign="1"/><v:tabList/>AllJoyn Platform</text>		</g>
		<g id="shape16-69" v:mID="16" v:groupContext="shape" transform="translate(447.75,-271.969)">
			<title>Rectangle.22</title>
			<desc>AllJoyn Core</desc>
			<v:userDefs>
				<v:ud v:nameU="visVersion" v:val="VT0(14):26"/>
				<v:ud v:nameU="msvThemeColors" v:val="VT0(36):26"/>
				<v:ud v:nameU="msvThemeEffects" v:val="VT0(16):26"/>
			</v:userDefs>
			<v:textBlock v:margins="rect(4,4,4,4)"/>
			<v:textRect cx="63.7763" cy="597.094" width="127.56" height="29.8125"/>
			<g id="shadow16-70" v:groupContext="shadow" v:shadowOffsetX="1.44" v:shadowOffsetY="-1.44" v:shadowType="1"
					transform="matrix(1,0,0,1,1.44,1.44)" class="st1">
				<rect x="0" y="582.188" width="127.552" height="29.8125" class="st2"/>
			</g>
			<rect x="0" y="582.188" width="127.552" height="29.8125" class="st4"/>
			<text x="43.8" y="599.49" class="st7" v:langID="1033"><v:paragraph v:horizAlign="1"/><v:tabList/>AllJoyn Core</text>		</g>
		<g id="shape17-75" v:mID="17" v:groupContext="shape" transform="translate(210.938,-197.156)">
			<title>Rectangle.27</title>
			<desc>Device OS</desc>
			<v:userDefs>
				<v:ud v:nameU="visVersion" v:val="VT0(14):26"/>
				<v:ud v:nameU="msvThemeColors" v:val="VT0(36):26"/>
				<v:ud v:nameU="msvThemeEffects" v:val="VT0(16):26"/>
			</v:userDefs>
			<v:textBlock v:margins="rect(4,4,4,4)"/>
			<v:textRect cx="69.75" cy="594" width="139.5" height="36"/>
			<g id="shadow17-76" v:groupContext="shadow" v:shadowOffsetX="1.44" v:shadowOffsetY="-1.44" v:shadowType="1"
					transform="matrix(1,0,0,1,1.44,1.44)" class="st1">
				<rect x="0" y="576" width="139.5" height="36" class="st2"/>
			</g>
			<rect x="0" y="576" width="139.5" height="36" class="st9"/>
			<text x="45.38" y="597.6" class="st6" v:langID="1033"><v:paragraph v:horizAlign="1"/><v:tabList/>Device OS</text>		</g>
		<g id="shape18-82" v:mID="18" v:groupContext="shape" v:layerMember="0"
				transform="translate(-308.25,359.156) rotate(-90) scale(-1,1)">
			<title>Line-curve connector.28</title>
			<v:userDefs>
				<v:ud v:nameU="AntiScale" v:val="VT0(1):26"/>
				<v:ud v:nameU="Scale" v:val="VT0(1):26"/>
				<v:ud v:nameU="visVersion" v:val="VT0(14):26"/>
				<v:ud v:nameU="msvThemeColors" v:val="VT0(36):26"/>
				<v:ud v:nameU="msvThemeEffects" v:val="VT0(16):26"/>
			</v:userDefs>
			<path d="M0 612 L7.37 612 L13.75 612 L19.12 612" class="st10"/>
		</g>
		<g id="shape19-86" v:mID="19" v:groupContext="shape" transform="translate(439.875,-197.156)">
			<title>Rectangle.29</title>
			<desc>Device OS</desc>
			<v:userDefs>
				<v:ud v:nameU="visVersion" v:val="VT0(14):26"/>
				<v:ud v:nameU="msvThemeColors" v:val="VT0(36):26"/>
				<v:ud v:nameU="msvThemeEffects" v:val="VT0(16):26"/>
			</v:userDefs>
			<v:textBlock v:margins="rect(4,4,4,4)"/>
			<v:textRect cx="69.75" cy="594" width="139.5" height="36"/>
			<g id="shadow19-87" v:groupContext="shadow" v:shadowOffsetX="1.44" v:shadowOffsetY="-1.44" v:shadowType="1"
					transform="matrix(1,0,0,1,1.44,1.44)" class="st1">
				<rect x="0" y="576" width="139.5" height="36" class="st2"/>
			</g>
			<rect x="0" y="576" width="139.5" height="36" class="st9"/>
			<text x="45.38" y="597.6" class="st6" v:langID="1033"><v:paragraph v:horizAlign="1"/><v:tabList/>Device OS</text>		</g>
		<g id="shape20-92" v:mID="20" v:groupContext="shape" v:layerMember="0"
				transform="translate(-101.813,359.156) rotate(-90) scale(-1,1)">
			<title>Line-curve connector.30</title>
			<v:userDefs>
				<v:ud v:nameU="AntiScale" v:val="VT0(1):26"/>
				<v:ud v:nameU="Scale" v:val="VT0(1):26"/>
				<v:ud v:nameU="visVersion" v:val="VT0(14):26"/>
				<v:ud v:nameU="msvThemeColors" v:val="VT0(36):26"/>
				<v:ud v:nameU="msvThemeEffects" v:val="VT0(16):26"/>
			</v:userDefs>
			<path d="M0 612 L10.04 612 L19.12 612 L19.12 612" class="st10"/>
		</g>
		<g id="shape21-96" v:mID="21" v:groupContext="shape" v:layerMember="0"
				transform="translate(-309.938,275.344) rotate(-90) scale(-1,1)">
			<title>Line-curve connector.12</title>
			<v:userDefs>
				<v:ud v:nameU="AntiScale" v:val="VT0(1):26"/>
				<v:ud v:nameU="Scale" v:val="VT0(1):26"/>
				<v:ud v:nameU="visVersion" v:val="VT0(14):26"/>
				<v:ud v:nameU="msvThemeColors" v:val="VT0(36):26"/>
				<v:ud v:nameU="msvThemeEffects" v:val="VT0(16):26"/>
			</v:userDefs>
			<path d="M0 612 L10.04 612 L19.12 612 L19.12 612" class="st10"/>
		</g>
		<g id="shape22-100" v:mID="22" v:groupContext="shape" v:layerMember="0"
				transform="translate(-101.25,274.781) rotate(-90) scale(-1,1)">
			<title>Line-curve connector.6</title>
			<v:userDefs>
				<v:ud v:nameU="AntiScale" v:val="VT0(1):26"/>
				<v:ud v:nameU="Scale" v:val="VT0(1):26"/>
				<v:ud v:nameU="visVersion" v:val="VT0(14):26"/>
				<v:ud v:nameU="msvThemeColors" v:val="VT0(36):26"/>
				<v:ud v:nameU="msvThemeEffects" v:val="VT0(16):26"/>
			</v:userDefs>
			<path d="M0 612 L10.04 612 L19.12 612 L19.12 612" class="st10"/>
		</g>
		<g id="shape23-104" v:mID="23" v:groupContext="shape" transform="translate(339.199,-281.248) rotate(0.26649)">
			<title>60 degree double</title>
			<v:userDefs>
				<v:ud v:nameU="visVersion" v:val="VT0(14):26"/>
				<v:ud v:nameU="msvThemeColors" v:val="VT0(36):26"/>
				<v:ud v:nameU="msvThemeEffects" v:val="VT0(16):26"/>
			</v:userDefs>
			<g id="shadow23-105" v:groupContext="shadow" v:shadowOffsetX="1.44" v:shadowOffsetY="-1.44" v:shadowType="1"
					transform="matrix(1,-2.59616E-019,-2.59616E-019,1,1.44668,1.43329)" class="st1">
				<path d="M0 607.22 L2.76 602.45 L2.76 605.6 L118.18 605.6 L118.18 602.45 L120.94 607.22 L118.18 612 L118.18 608.85
							 L2.76 608.85 L2.76 612 L0 607.22 Z" class="st2"/>
			</g>
			<path d="M0 607.22 L2.76 602.45 L2.76 605.6 L118.18 605.6 L118.18 602.45 L120.94 607.22 L118.18 612 L118.18 608.85 L2.76
						 608.85 L2.76 612 L0 607.22 Z" class="st4"/>
		</g>
		<g id="shape24-109" v:mID="24" v:groupContext="shape" transform="translate(830.813,250.031) rotate(90)">
			<title>Rectangle.13</title>
			<desc>Onboarding service</desc>
			<v:userDefs>
				<v:ud v:nameU="visVersion" v:val="VT0(14):26"/>
				<v:ud v:nameU="msvThemeColors" v:val="VT0(36):26"/>
				<v:ud v:nameU="msvThemeEffects" v:val="VT0(16):26"/>
			</v:userDefs>
			<v:textBlock v:margins="rect(4,4,4,4)"/>
			<v:textRect cx="57.0938" cy="595.406" width="114.19" height="33.1875"/>
			<g id="shadow24-110" v:groupContext="shadow" v:shadowOffsetX="1.44" v:shadowOffsetY="-1.44" v:shadowType="1"
					transform="matrix(1,0,0,1,1.44,-1.44)" class="st1">
				<rect x="0" y="578.813" width="114.188" height="33.1875" class="st2"/>
			</g>
			<rect x="0" y="578.813" width="114.188" height="33.1875" class="st4"/>
			<text x="25.56" y="597.81" class="st7" v:langID="1033"><v:paragraph v:horizAlign="1"/><v:tabList/>Onboarding service</text>		</g>
	</g>
</svg>
