<?xml version="1.0" encoding="utf-8"?>
<!-- Generator: Adobe Illustrator 15.0.0, SVG Export Plug-In . SVG Version: 6.00 Build 0)  -->
<!DOCTYPE svg PUBLIC "-//W3C//DTD SVG 1.1//EN" "http://www.w3.org/Graphics/SVG/1.1/DTD/svg11.dtd">
<svg version="1.1" id="Layer_1" xmlns="http://www.w3.org/2000/svg" xmlns:xlink="http://www.w3.org/1999/xlink" x="0px" y="0px"
	 width="330.675px" height="265.645px" viewBox="0 0 330.675 265.645" enable-background="new 0 0 330.675 265.645"
	 xml:space="preserve">
<g id="Layer_2">
	<g>
		
			<line fill="none" stroke="#000000" stroke-width="1.4173" stroke-linecap="round" stroke-linejoin="round" stroke-miterlimit="10" x1="51.17" y1="69.348" x2="118.847" y2="137.025"/>
		<path fill="#FFFFFF" d="M73.847,69.348c0-12.523-10.153-22.678-22.677-22.678S28.493,56.824,28.493,69.348
			S38.646,92.025,51.17,92.025S73.847,81.873,73.847,69.348L73.847,69.348z"/>
		
			<path fill="none" stroke="#000000" stroke-width="0.4724" stroke-linecap="round" stroke-linejoin="round" stroke-miterlimit="10" d="
			M73.847,69.348c0-12.523-10.153-22.678-22.677-22.678S28.493,56.824,28.493,69.348S38.646,92.025,51.17,92.025
			S73.847,81.873,73.847,69.348L73.847,69.348z"/>
		<text transform="matrix(1 0 0 1 42.124 76.1545)" font-family="'ArialMT'" font-size="22.6772">C</text>
		
			<line fill="none" stroke="#000000" stroke-width="1.4173" stroke-linecap="round" stroke-linejoin="round" stroke-miterlimit="10" x1="28.493" y1="137.379" x2="118.847" y2="137.025"/>
		<path fill="#FFFFFF" d="M51.17,137.379c0-12.523-10.153-22.677-22.677-22.677c-12.524,0-22.677,10.152-22.677,22.677
			c0,12.523,10.153,22.679,22.677,22.679C41.017,160.057,51.17,149.904,51.17,137.379L51.17,137.379z"/>
		
			<path fill="none" stroke="#000000" stroke-width="0.4724" stroke-linecap="round" stroke-linejoin="round" stroke-miterlimit="10" d="
			M51.17,137.379c0-12.523-10.153-22.677-22.677-22.677c-12.524,0-22.677,10.152-22.677,22.677
			c0,12.523,10.153,22.679,22.677,22.679C41.017,160.057,51.17,149.904,51.17,137.379L51.17,137.379z"/>
		<text transform="matrix(1 0 0 1 20.2881 144.1819)" font-family="'ArialMT'" font-size="22.6772">S</text>
		
			<line fill="none" stroke="#000000" stroke-width="1.4173" stroke-linecap="round" stroke-linejoin="round" stroke-miterlimit="10" x1="51.17" y1="205.411" x2="118.847" y2="137.025"/>
		<path fill="#FFFFFF" d="M141.879,137.379c0-12.523-10.153-22.677-22.677-22.677c-12.524,0-22.677,10.152-22.677,22.677
			c0,12.523,10.153,22.679,22.677,22.679C131.726,160.057,141.879,149.904,141.879,137.379L141.879,137.379z"/>
		
			<path fill="none" stroke="#000000" stroke-width="0.4724" stroke-linecap="round" stroke-linejoin="round" stroke-miterlimit="10" d="
			M141.879,137.379c0-12.523-10.153-22.677-22.677-22.677c-12.524,0-22.677,10.152-22.677,22.677
			c0,12.523,10.153,22.679,22.677,22.679C131.726,160.057,141.879,149.904,141.879,137.379L141.879,137.379z"/>
		<text transform="matrix(1 0 0 1 112.2334 144.1819)" font-family="'ArialMT'" font-size="22.6772">D</text>
		<path fill="#FFFFFF" d="M73.847,205.411c0-12.522-10.153-22.678-22.677-22.678s-22.677,10.153-22.677,22.678
			c0,12.523,10.153,22.678,22.677,22.678S73.847,217.935,73.847,205.411L73.847,205.411z"/>
		
			<path fill="none" stroke="#000000" stroke-width="0.4724" stroke-linecap="round" stroke-linejoin="round" stroke-miterlimit="10" d="
			M73.847,205.411c0-12.522-10.153-22.678-22.677-22.678s-22.677,10.153-22.677,22.678c0,12.523,10.153,22.678,22.677,22.678
			S73.847,217.935,73.847,205.411L73.847,205.411z"/>
		<text transform="matrix(1 0 0 1 42.124 212.2131)" font-family="'ArialMT'" font-size="22.6772">C</text>
		
			<line fill="none" stroke="#000000" stroke-width="1.4173" stroke-linecap="round" stroke-linejoin="round" stroke-miterlimit="10" x1="277.941" y1="69.348" x2="210.265" y2="137.025"/>
		<path fill="#FFFFFF" d="M255.265,69.348c0-12.523,10.152-22.678,22.677-22.678s22.679,10.153,22.679,22.678
			c0,12.523-10.154,22.677-22.679,22.677S255.265,81.873,255.265,69.348L255.265,69.348z"/>
		
			<path fill="none" stroke="#000000" stroke-width="0.4724" stroke-linecap="round" stroke-linejoin="round" stroke-miterlimit="10" d="
			M255.265,69.348c0-12.523,10.152-22.678,22.677-22.678s22.679,10.153,22.679,22.678c0,12.523-10.154,22.677-22.679,22.677
			S255.265,81.873,255.265,69.348L255.265,69.348z"/>
		<text transform="matrix(1 0 0 1 270.7397 76.1545)" font-family="'ArialMT'" font-size="22.6772">S</text>
		
			<line fill="none" stroke="#000000" stroke-width="1.4173" stroke-linecap="round" stroke-linejoin="round" stroke-miterlimit="10" x1="300.619" y1="137.379" x2="210.265" y2="137.025"/>
		<path fill="#FFFFFF" d="M277.941,137.379c0-12.523,10.152-22.677,22.678-22.677c12.523,0,22.678,10.152,22.678,22.677
			c0,12.523-10.151,22.679-22.678,22.679C288.093,160.057,277.941,149.904,277.941,137.379L277.941,137.379z"/>
		
			<path fill="none" stroke="#000000" stroke-width="0.4724" stroke-linecap="round" stroke-linejoin="round" stroke-miterlimit="10" d="
			M277.941,137.379c0-12.523,10.152-22.677,22.678-22.677c12.523,0,22.678,10.152,22.678,22.677
			c0,12.523-10.151,22.679-22.678,22.679C288.093,160.057,277.941,149.904,277.941,137.379L277.941,137.379z"/>
		<text transform="matrix(1 0 0 1 292.5757 144.1819)" font-family="'ArialMT'" font-size="22.6772">C</text>
		
			<line fill="none" stroke="#000000" stroke-width="1.4173" stroke-linecap="round" stroke-linejoin="round" stroke-miterlimit="10" x1="277.941" y1="205.411" x2="210.265" y2="137.025"/>
		<path fill="#FFFFFF" d="M187.233,137.379c0-12.523,10.151-22.677,22.677-22.677c12.526,0,22.678,10.152,22.678,22.677
			c0,12.523-10.151,22.679-22.678,22.679C197.384,160.058,187.233,149.904,187.233,137.379L187.233,137.379z"/>
		
			<path fill="none" stroke="#000000" stroke-width="0.4724" stroke-linecap="round" stroke-linejoin="round" stroke-miterlimit="10" d="
			M187.233,137.379c0-12.523,10.151-22.677,22.677-22.677c12.526,0,22.678,10.152,22.678,22.677
			c0,12.523-10.151,22.679-22.678,22.679C197.384,160.058,187.233,149.904,187.233,137.379L187.233,137.379z"/>
		<text transform="matrix(1 0 0 1 200.9292 144.1819)" font-family="'ArialMT'" font-size="22.6772">D</text>
		<path fill="#FFFFFF" d="M255.265,205.411c0-12.522,10.152-22.678,22.677-22.678s22.679,10.153,22.679,22.678
			c0,12.523-10.154,22.678-22.679,22.678S255.265,217.935,255.265,205.411L255.265,205.411z"/>
		
			<path fill="none" stroke="#000000" stroke-width="0.4724" stroke-linecap="round" stroke-linejoin="round" stroke-miterlimit="10" d="
			M255.265,205.411c0-12.522,10.152-22.678,22.677-22.678s22.679,10.153,22.679,22.678c0,12.523-10.154,22.678-22.679,22.678
			S255.265,217.935,255.265,205.411L255.265,205.411z"/>
		<text transform="matrix(1 0 0 1 270.7397 212.2131)" font-family="'ArialMT'" font-size="22.6772">S</text>
		<text transform="matrix(1 0 0 1 71.1924 256.4514)" enable-background="new    "><tspan x="0" y="0" font-family="'ArialMT'" font-size="18.8977">Host</tspan><tspan x="38.856" y="0" font-family="'ArialMT'" font-size="18.8977" letter-spacing="-1"> A</tspan></text>
		<text transform="matrix(1 0 0 1 207.5913 256.4514)" font-family="'ArialMT'" font-size="18.8977">Host B</text>
		
			<path fill="none" stroke="#FF0000" stroke-width="1.4173" stroke-linecap="round" stroke-linejoin="round" stroke-miterlimit="10" d="
			M120.582,106.473c-0.202-48.716-23.984-72.355-54.763-54.438"/>
		<polygon fill="#FF0000" points="117.595,105.653 120.394,114.734 123.603,105.791 		"/>
		<text transform="matrix(1 0 0 1 37.8564 34.1936)" fill="#FF0000" font-family="'ArialMT'" font-size="15.1181">Find Name</text>
		
			<line fill="none" stroke="#FF0000" stroke-width="1.4173" stroke-linecap="round" stroke-linejoin="round" stroke-miterlimit="10" x1="173.3" y1="137.379" x2="147.548" y2="137.379"/>
		<polygon fill="#FF0000" points="172.55,134.375 181.563,137.379 172.55,140.384 		"/>
	</g>
</g>
</svg>
