<?xml version="1.0" encoding="utf-8"?>
<!-- Generator: Adobe Illustrator 16.0.3, SVG Export Plug-In . SVG Version: 6.00 Build 0)  -->
<!DOCTYPE svg PUBLIC "-//W3C//DTD SVG 1.1//EN" "http://www.w3.org/Graphics/SVG/1.1/DTD/svg11.dtd">
<svg version="1.1" id="Layer_1" xmlns="http://www.w3.org/2000/svg" xmlns:xlink="http://www.w3.org/1999/xlink" x="0px" y="0px"
	 width="431.5px" height="396.5px" viewBox="0 0 431.5 396.5" enable-background="new 0 0 431.5 396.5" xml:space="preserve">
<line fill="none" stroke="#000000" stroke-width="8.5039" stroke-linecap="round" stroke-linejoin="round" stroke-miterlimit="10" x1="35.922" y1="114.6" x2="385.256" y2="114.6"/>
<path fill="none" stroke="#000000" stroke-width="8.5039" stroke-miterlimit="2" d="M86.866,114.6H43.2 M65.032,114.6v29.111"/>
<path fill="none" stroke="#000000" stroke-width="8.5039" stroke-miterlimit="2" d="M305.199,114.6h43.667 M327.032,114.6V85.49"/>
<polygon fill="#FFFFFF" points="81.841,143.711 48.227,143.711 31.419,172.821 48.227,201.934 81.841,201.934 98.648,172.821 "/>
<polygon fill="none" stroke="#000000" stroke-width="0.1512" stroke-linecap="round" stroke-linejoin="round" stroke-miterlimit="2" points="
	81.841,143.711 48.227,143.711 31.419,172.821 48.227,201.934 81.841,201.934 98.648,172.821 "/>
<text transform="matrix(1 0 0 1 52.4287 178.5762)" font-family="'MyriadPro-Regular'" font-size="16.4315">:</text>
<text transform="matrix(1 0 0 1 56.832 178.5762)" font-family="'MyriadPro-Regular'" font-size="16.4315">1</text>
<text transform="matrix(1 0 0 1 65.1563 178.5762)" font-family="'MyriadPro-Regular'" font-size="16.4315">.</text>
<text transform="matrix(1 0 0 1 69.3076 178.5762)" font-family="'MyriadPro-Regular'" font-size="16.4315">1</text>
<polygon fill="#FFFFFF" points="343.84,27.268 310.225,27.268 293.418,56.377 310.225,85.489 343.84,85.489 360.646,56.377 "/>
<polygon fill="none" stroke="#000000" stroke-width="0.1512" stroke-linecap="round" stroke-linejoin="round" stroke-miterlimit="2" points="
	343.84,27.268 310.225,27.268 293.418,56.377 310.225,85.489 343.84,85.489 360.646,56.377 "/>
<text transform="matrix(1 0 0 1 314.4365 62.1299)" font-family="'MyriadPro-Regular'" font-size="16.4315">:</text>
<text transform="matrix(1 0 0 1 318.8291 62.1299)" font-family="'MyriadPro-Regular'" font-size="16.4315">1</text>
<text transform="matrix(1 0 0 1 327.1641 62.1299)" font-family="'MyriadPro-Regular'" font-size="16.4315">.</text>
<text transform="matrix(1 0 0 1 331.2959 62.1299)" font-family="'MyriadPro-Regular'" font-size="16.4315">4</text>
<line fill="none" stroke="#000000" stroke-width="0.1512" stroke-linecap="round" stroke-linejoin="round" stroke-miterlimit="2" x1="65.032" y1="207.755" x2="65.032" y2="225.873"/>
<line fill="none" stroke="#000000" stroke-width="0.1512" stroke-linecap="round" stroke-linejoin="round" stroke-miterlimit="2" x1="327.032" y1="3.327" x2="327.032" y2="21.444"/>
<polyline fill="none" stroke="#000000" stroke-width="0.1512" stroke-linecap="round" stroke-linejoin="round" stroke-miterlimit="2" points="
	428.921,291.525 148.011,291.525 148.011,391.152 428.921,391.152 "/>
<text transform="matrix(1 0 0 1 151.2441 315.1514)" font-family="'MyriadPro-Regular'" font-size="9.7037">  </text>
<text transform="matrix(1 0 0 1 151.2441 326.7939)" font-family="'MyriadPro-Regular'" font-size="9.7037">  </text>
<text transform="matrix(1 0 0 1 151.2441 350.082)" font-family="'MyriadPro-Regular'" font-size="9.7037">  </text>
<text transform="matrix(1 0 0 1 151.2441 361.7158)" font-family="'MyriadPro-Regular'" font-size="9.7037">  </text>
<text transform="matrix(1 0 0 1 151.2441 385.0137)" font-family="'MyriadPro-Regular'" font-size="9.7037">  </text>
<polyline fill="none" stroke="#000000" stroke-width="0.4724" stroke-linecap="round" stroke-linejoin="round" stroke-miterlimit="2" points="
	267.393,231.045 297.921,231.045 297.921,250.693 86.866,250.693 86.866,296.543 136.955,296.543 "/>
<polygon points="136.295,293.898 144.227,296.543 136.295,299.188 "/>
<line fill="none" stroke="#000000" stroke-width="0.4724" stroke-linecap="round" stroke-linejoin="round" stroke-miterlimit="2" x1="179.658" y1="215.743" x2="208.77" y2="201.188"/>
<polyline fill="none" stroke="#000000" stroke-width="0.4724" stroke-linecap="round" stroke-linejoin="round" stroke-miterlimit="2" points="
	207.587,204.734 208.77,201.188 205.221,200.006 "/>
<line fill="none" stroke="#000000" stroke-width="0.4724" stroke-linecap="round" stroke-linejoin="round" stroke-miterlimit="2" x1="179.658" y1="215.743" x2="208.77" y2="230.299"/>
<polyline fill="none" stroke="#000000" stroke-width="0.4724" stroke-linecap="round" stroke-linejoin="round" stroke-miterlimit="2" points="
	205.221,231.48 208.77,230.299 207.587,226.752 "/>
<line fill="none" stroke="#000000" stroke-width="0.1512" stroke-linecap="round" stroke-linejoin="round" stroke-miterlimit="2" x1="218.775" y1="192.874" x2="218.775" y2="210.991"/>
<line fill="none" stroke="#000000" stroke-width="0.1512" stroke-linecap="round" stroke-linejoin="round" stroke-miterlimit="2" x1="218.775" y1="220.951" x2="218.775" y2="239.064"/>
<text transform="matrix(1 0 0 1 368.1426 62.1992)" font-family="'MyriadPro-Regular'" font-size="19.4073">42</text>
<text transform="matrix(1 0 0 1 6.25 178.6357)" font-family="'MyriadPro-Regular'" font-size="19.4073">42</text>
<text transform="matrix(1 0 0 1 223.9414 15.416)" font-family="'ArialMT'" font-size="9">/org/alljoyn/samples/gps</text>
<text transform="matrix(1 0 0 1 172.6909 59.2119)" font-family="'ArialMT'" font-size="9">AK</text>
<text transform="matrix(1 0 0 1 184.6968 59.2119)" font-family="'ArialMT'" font-size="9">A</text>
<text transform="matrix(1 0 0 1 190.2041 59.2119)" font-family="'ArialMT'" font-size="9"> org.alljoyn.samples.gps</text>
<text transform="matrix(1 0 0 1 102.3931 175.8242)" font-family="'ArialMT'" font-size="9">AK</text>
<text transform="matrix(1 0 0 1 114.3989 175.8242)" font-family="'ArialMT'" font-size="9">A</text>
<text transform="matrix(1 0 0 1 119.9063 175.8242)" font-family="'ArialMT'" font-size="9"> org.alljoyn.samples.chat.a</text>
<text transform="matrix(1 0 0 1 74.4395 218.8945)" font-family="'ArialMT'" font-size="9">/org/alljoyn/samples/chat</text>
<text transform="matrix(1 0 0 1 223.4082 205.0449)" font-family="'ArialMT'" font-size="9">/chat</text>
<text transform="matrix(1 0 0 1 223.4082 233.4648)" font-family="'ArialMT'" font-size="9">/contacts</text>
<text transform="matrix(1 0 0 1 150.7246 306.751)" font-family="'ArialMT'" font-size="9">Implements Interface name org.alljoyn.samples.chat.contacts</text>
<text transform="matrix(1 0 0 1 150.7246 317.5508)" font-family="'ArialMT'" font-size="9">  Methods:</text>
<text transform="matrix(1 0 0 1 150.7246 328.3506)" font-family="'ArialMT'" font-size="9">  -</text>
<text transform="matrix(1 0 0 1 158.7227 328.3506)" font-family="'ArialMT'" font-size="9"> </text>
<text transform="matrix(1 0 0 1 160.7266 328.3506)" font-family="'ArialMT'" font-size="9">AddEntryName (string anem, array of string address, string phone)</text>
<text transform="matrix(1 0 0 1 150.7246 339.1514)" font-family="'ArialMT'" font-size="9">  Properties:</text>
<text transform="matrix(1 0 0 1 150.7246 349.9512)" font-family="'ArialMT'" font-size="9">  - string Name</text>
<text transform="matrix(1 0 0 1 150.7246 360.751)" font-family="'ArialMT'" font-size="9">  - array of string</text>
<text transform="matrix(1 0 0 1 216.2437 360.751)" font-family="'ArialMT'" font-size="9"> </text>
<text transform="matrix(1 0 0 1 218.2461 360.751)" font-family="'ArialMT'" font-size="9">Address</text>
<text transform="matrix(1 0 0 1 150.7246 371.5508)" font-family="'ArialMT'" font-size="9">  Signals</text>
<text transform="matrix(1 0 0 1 150.7246 382.3506)" font-family="'ArialMT'" font-size="9">  - Changed() </text>
</svg>
