<?xml version="1.0" encoding="utf-8"?>
<!-- Generator: Adobe Illustrator 15.0.0, SVG Export Plug-In . SVG Version: 6.00 Build 0)  -->
<!DOCTYPE svg PUBLIC "-//W3C//DTD SVG 1.1//EN" "http://www.w3.org/Graphics/SVG/1.1/DTD/svg11.dtd">
<svg version="1.1" id="Layer_1" xmlns:v="http://schemas.microsoft.com/visio/2003/SVGExtensions/"
	 xmlns="http://www.w3.org/2000/svg" xmlns:xlink="http://www.w3.org/1999/xlink" x="0px" y="0px" width="450px" height="222px"
	 viewBox="0 0 450 222" enable-background="new 0 0 450 222" xml:space="preserve">
<v:documentProperties  v:langID="1033" v:viewMarkup="false">
	<v:userDefs>
		<v:ud  v:nameU="msvNoAutoConnect" v:val="VT0(1):26"></v:ud>
	</v:userDefs>
</v:documentProperties>
<path fill="none" stroke="#000000" stroke-width="13.5" stroke-linecap="round" stroke-linejoin="round" stroke-miterlimit="3" d="
	M10,112h432"/>
<path fill="none" stroke="#000000" stroke-width="13.5" stroke-miterlimit="3" d="M73,112H19"/>
<path fill="none" stroke="#000000" stroke-width="13.5" stroke-miterlimit="3" d="M46,112v36"/>
<path fill="none" stroke="#000000" stroke-width="13.5" stroke-miterlimit="3" d="M55,112h54"/>
<path fill="none" stroke="#000000" stroke-width="13.5" stroke-miterlimit="3" d="M82,112V76"/>
<path fill="none" stroke="#000000" stroke-width="13.5" stroke-miterlimit="3" d="M163,112h54"/>
<path fill="none" stroke="#000000" stroke-width="13.5" stroke-miterlimit="3" d="M190,112V76"/>
<path fill="none" stroke="#000000" stroke-width="13.5" stroke-miterlimit="3" d="M289,112h-54"/>
<path fill="none" stroke="#000000" stroke-width="13.5" stroke-miterlimit="3" d="M262,112v36"/>
<path fill="none" stroke="#000000" stroke-width="13.5" stroke-miterlimit="3" d="M343,112h54"/>
<path fill="none" stroke="#000000" stroke-width="13.5" stroke-miterlimit="3" d="M370,112V76"/>
<path fill="#FFFFFF" stroke="#000000" stroke-width="0.24" stroke-linecap="round" stroke-linejoin="round" stroke-miterlimit="3" d="
	M66.78,148H25.22L4.43,184l20.79,36h41.56l20.79-36L66.78,148z"/>
<text transform="matrix(1 0 0 1 30.4199 191.1104)" font-family="'ArialMT'" font-size="21">:1.1</text>
<path fill="#FFFFFF" stroke="#000000" stroke-width="0.24" stroke-linecap="round" stroke-linejoin="round" stroke-miterlimit="3" d="
	M102.78,4H61.22L40.43,40l20.79,36h41.56l20.79-36L102.78,4z"/>
<text transform="matrix(1 0 0 1 66.4199 47.1104)" font-family="'ArialMT'" font-size="21">:1.2</text>
<path fill="#FFFFFF" stroke="#000000" stroke-width="0.24" stroke-linecap="round" stroke-linejoin="round" stroke-miterlimit="3" d="
	M210.779,4H169.22l-20.79,36l20.791,36h41.559l20.791-36L210.779,4z"/>
<text transform="matrix(1 0 0 1 174.4199 47.1104)" font-family="'ArialMT'" font-size="21">:1.3</text>
<path fill="#FFFFFF" stroke="#000000" stroke-width="0.24" stroke-linecap="round" stroke-linejoin="round" stroke-miterlimit="3" d="
	M282.779,148h-41.559l-20.792,36l20.792,36h41.559l20.791-36L282.779,148z"/>
<text transform="matrix(1 0 0 1 246.4199 191.1104)" font-family="'ArialMT'" font-size="21">:1.4</text>
<path fill="#FFFFFF" stroke="#000000" stroke-width="0.24" stroke-linecap="round" stroke-linejoin="round" stroke-miterlimit="3" d="
	M390.78,4H349.22l-20.79,36l20.79,36h41.563l20.79-36L390.78,4z"/>
<text transform="matrix(1 0 0 1 354.4199 47.1104)" font-family="'ArialMT'" font-size="21">:1.5</text>
</svg>
