<?xml version="1.0" encoding="utf-8"?>
<!-- Generator: Adobe Illustrator 15.0.0, SVG Export Plug-In . SVG Version: 6.00 Build 0)  -->
<!DOCTYPE svg PUBLIC "-//W3C//DTD SVG 1.1//EN" "http://www.w3.org/Graphics/SVG/1.1/DTD/svg11.dtd">
<svg version="1.1" id="Layer_1" xmlns="http://www.w3.org/2000/svg" xmlns:xlink="http://www.w3.org/1999/xlink" x="0px" y="0px"
	 width="433.836px" height="272.671px" viewBox="0 0 433.836 272.671" enable-background="new 0 0 433.836 272.671"
	 xml:space="preserve">
<polygon fill="#FFFFFF" points="133.289,109.838 432.891,109.838 432.891,136.769 133.289,136.769 "/>
<polygon fill="none" stroke="#000000" stroke-width="0.4724" stroke-linecap="round" stroke-linejoin="round" stroke-miterlimit="10" points="
	133.289,136.769 432.891,136.769 432.891,109.838 133.289,109.838 "/>
<text transform="matrix(1 0 0 1 260.2461 126.6753)" font-family="'ArialMT'" font-size="11.2213">Endpoi</text>
<text transform="matrix(1 0 0 1 293.4941 126.6753)" font-family="'ArialMT'" font-size="11.2213">n</text>
<text transform="matrix(1 0 0 1 299.6777 126.6753)" font-family="'ArialMT'" font-size="11.2213">ts</text>
<polygon fill="#FFFFFF" points="133.289,82.906 432.891,82.906 432.891,109.838 133.289,109.838 "/>
<polygon fill="none" stroke="#000000" stroke-width="0.4724" stroke-linecap="round" stroke-linejoin="round" stroke-miterlimit="10" points="
	133.289,109.838 432.891,109.838 432.891,82.906 133.289,82.906 "/>
<polygon fill="#FFFFFF" points="338.634,29.045 432.891,29.045 432.891,82.906 338.634,82.906 "/>
<polygon fill="none" stroke="#000000" stroke-width="0.4724" stroke-linecap="round" stroke-linejoin="round" stroke-miterlimit="10" points="
	338.634,82.906 432.891,82.906 432.891,29.045 338.634,29.045 "/>
<polygon fill="#FFFFFF" points="224.178,29.045 338.634,29.045 338.634,82.906 224.178,82.906 "/>
<polygon fill="none" stroke="#000000" stroke-width="0.4724" stroke-linecap="round" stroke-linejoin="round" stroke-miterlimit="10" points="
	224.178,82.906 338.634,82.906 338.634,29.045 224.178,29.045 "/>
<polygon fill="#FFFFFF" points="2,244.494 432.891,244.494 432.891,271.421 2,271.421 "/>
<polygon fill="none" stroke="#000000" stroke-width="0.4724" stroke-linecap="round" stroke-linejoin="round" stroke-miterlimit="10" points="
	2,271.421 432.891,271.421 432.891,244.494 2,244.494 "/>
<polygon fill="#FFFFFF" points="28.931,2.114 432.891,2.114 432.891,29.045 28.931,29.045 "/>
<polygon fill="none" stroke="#000000" stroke-width="0.4724" stroke-linecap="round" stroke-linejoin="round" stroke-miterlimit="10" points="
	28.931,29.045 432.891,29.045 432.891,2.114 28.931,2.114 "/>
<polygon fill="#FFFFFF" points="28.931,136.769 432.891,136.769 432.891,163.699 28.931,163.699 "/>
<polygon fill="none" stroke="#000000" stroke-width="0.4724" stroke-linecap="round" stroke-linejoin="round" stroke-miterlimit="10" points="
	28.931,163.699 432.891,163.699 432.891,136.769 28.931,136.769 "/>
<text transform="matrix(1 0 0 1 327.6035 180.5444)" enable-background="new    "><tspan x="0" y="0" font-family="'ArialMT'" font-size="11.2213">I</tspan><tspan x="3.117" y="0" font-family="'ArialMT'" font-size="11.2213">P</tspan></text>
<line fill="none" stroke="#000000" stroke-width="0.4724" stroke-linecap="round" stroke-linejoin="round" stroke-miterlimit="10" x1="230.912" y1="163.699" x2="230.912" y2="217.561"/>
<line fill="none" stroke="#000000" stroke-width="0.4724" stroke-linecap="round" stroke-linejoin="round" stroke-miterlimit="10" x1="432.891" y1="163.699" x2="432.891" y2="217.561"/>
<polygon fill="#FFFFFF" points="230.912,190.628 298.24,190.628 298.24,217.561 230.912,217.561 "/>
<polygon fill="none" stroke="#000000" stroke-width="0.4724" stroke-linecap="round" stroke-linejoin="round" stroke-miterlimit="10" points="
	230.912,217.561 298.24,217.561 298.24,190.628 230.912,190.628 "/>
<polygon fill="#FFFFFF" points="298.24,190.628 365.564,190.628 365.564,217.561 298.24,217.561 "/>
<polygon fill="none" stroke="#000000" stroke-width="0.4724" stroke-linecap="round" stroke-linejoin="round" stroke-miterlimit="10" points="
	298.24,217.561 365.564,217.561 365.564,190.628 298.24,190.628 "/>
<polygon fill="#FFFFFF" points="365.564,190.628 432.891,190.628 432.891,217.561 365.564,217.561 "/>
<polygon fill="none" stroke="#000000" stroke-width="0.4724" stroke-linecap="round" stroke-linejoin="round" stroke-miterlimit="10" points="
	365.564,217.561 432.891,217.561 432.891,190.628 365.564,190.628 "/>
<polygon fill="#FFFFFF" points="28.931,163.699 96.258,163.699 96.258,217.561 28.931,217.561 "/>
<polygon fill="none" stroke="#000000" stroke-width="0.4724" stroke-linecap="round" stroke-linejoin="round" stroke-miterlimit="10" points="
	28.931,217.561 96.258,217.561 96.258,163.699 28.931,163.699 "/>
<polygon fill="#FFFFFF" points="163.585,163.699 230.912,163.699 230.912,217.561 163.585,217.561 "/>
<polygon fill="none" stroke="#000000" stroke-width="0.4724" stroke-linecap="round" stroke-linejoin="round" stroke-miterlimit="10" points="
	163.585,217.561 230.912,217.561 230.912,163.699 163.585,163.699 "/>
<polygon fill="#FFFFFF" points="96.258,163.699 163.585,163.699 163.585,217.561 96.258,217.561 "/>
<polygon fill="none" stroke="#000000" stroke-width="0.4724" stroke-linecap="round" stroke-linejoin="round" stroke-miterlimit="10" points="
	96.258,217.561 163.585,217.561 163.585,163.699 96.258,163.699 "/>
<line fill="none" stroke="#000000" stroke-width="0.4724" stroke-linecap="round" stroke-linejoin="round" stroke-miterlimit="10" x1="432.891" y1="217.561" x2="432.891" y2="244.494"/>
<polyline fill="none" stroke="#000000" stroke-width="0.4724" stroke-linecap="round" stroke-linejoin="round" stroke-miterlimit="10" points="
	28.931,2.114 2,2.114 2,244.494 "/>
<polygon fill="#FFFFFF" points="133.289,29.045 224.178,29.045 224.178,82.906 133.289,82.906 "/>
<polygon fill="none" stroke="#000000" stroke-width="0.4724" stroke-linecap="round" stroke-linejoin="round" stroke-miterlimit="10" points="
	133.289,82.906 224.178,82.906 224.178,29.045 133.289,29.045 "/>
<line fill="none" stroke="#000000" stroke-width="0.4724" stroke-linecap="round" stroke-linejoin="round" stroke-miterlimit="10" x1="28.931" y1="29.045" x2="28.931" y2="136.769"/>
<polygon fill="#FFFFFF" points="28.931,29.045 133.289,29.045 133.289,136.769 28.931,136.769 "/>
<polygon fill="none" stroke="#000000" stroke-width="0.4724" stroke-linecap="round" stroke-linejoin="round" stroke-miterlimit="10" points="
	28.931,136.769 133.289,136.769 133.289,29.045 28.931,29.045 "/>
<text transform="matrix(1 0 0 1 221.418 99.8354)" font-family="'ArialMT'" font-size="11.2213">Messaging and Routing</text>
<text transform="matrix(1 0 0 1 156.918 59.3354)" font-family="'ArialMT'" font-size="11.2213">Security</text>
<text transform="matrix(1 0 0 1 231.5215 58.9683)" font-family="'ArialMT'" font-size="11.2213">AllJoyn Bus Objects</text>
<text transform="matrix(1 0 0 1 349.5938 58.3354)" font-family="'ArialMT'" font-size="11.2213">D-Bus Objects</text>
<text transform="matrix(1 0 0 1 197.5371 18.5718)" font-family="'ArialMT'" font-size="11.2213">Configuration</text>
<text transform="matrix(1 0 0 1 182.2695 153.2261)"><tspan x="0" y="0" font-family="'ArialMT'" font-size="11.2213">Network</tspan><tspan x="41.154" y="0" font-family="'ArialMT'" font-size="11.2213"> </tspan><tspan x="44.068" y="0" font-family="'ArialMT'" font-size="11.2213">T</tspan><tspan x="50.507" y="0" font-family="'ArialMT'" font-size="11.2213">ransports</tspan></text>
<text transform="matrix(1 0 0 1 173.5405 193.6226)" font-family="'ArialMT'" font-size="11.2213">Bluetooth</text>
<text transform="matrix(1 0 0 1 47.623 193.6226)" font-family="'ArialMT'" font-size="11.2213">Local </text>
<text transform="matrix(1 0 0 1 115.811 193.6226)" font-family="'ArialMT'" font-size="11.2213">Other</text>
<text transform="matrix(1 0 0 1 249.9248 207.0864)" font-family="'ArialMT'" font-size="11.2213">Wired</text>
<text transform="matrix(1 0 0 1 318.8184 207.0864)" font-family="'ArialMT'" font-size="11.2213">Wi-Fi</text>
<text transform="matrix(1 0 0 1 369.9336 207.0864)" font-family="'ArialMT'" font-size="11.2213">Wi-Fi Direct</text>
<text transform="matrix(1 0 0 1 166.9863 236.3354)"><tspan x="0" y="0" font-family="'ArialMT'" font-size="11.2213">OS</tspan><tspan x="16.213" y="0" font-family="'ArialMT'" font-size="11.2213"> </tspan><tspan x="18.711" y="0" font-family="'ArialMT'" font-size="11.2213">Abstraction Layer</tspan></text>
<text transform="matrix(1 0 0 1 187.8496 261.8354)" font-family="'ArialMT'" font-size="10">Native System</text>
<text transform="matrix(1 0 0 1 63.418 86.3354)" font-family="'ArialMT'" font-size="10">Sessions</text>
</svg>
