<?xml version="1.0" encoding="utf-8"?>
<!-- Generator: Adobe Illustrator 15.0.0, SVG Export Plug-In . SVG Version: 6.00 Build 0)  -->
<!DOCTYPE svg PUBLIC "-//W3C//DTD SVG 1.1//EN" "http://www.w3.org/Graphics/SVG/1.1/DTD/svg11.dtd">
<svg version="1.1" id="Layer_1" xmlns="http://www.w3.org/2000/svg" xmlns:xlink="http://www.w3.org/1999/xlink" x="0px" y="0px"
	 width="330.675px" height="265.645px" viewBox="0 0 330.675 265.645" enable-background="new 0 0 330.675 265.645"
	 xml:space="preserve">
<g id="Layer_3">
	<g>
		
			<line fill="none" stroke="#000000" stroke-width="1.4173" stroke-linecap="round" stroke-linejoin="round" stroke-miterlimit="10" x1="51.17" y1="69.365" x2="118.847" y2="137.042"/>
		<path fill="#FFFFFF" d="M73.847,69.365c0-12.524-10.153-22.679-22.677-22.679S28.493,56.841,28.493,69.365
			c0,12.522,10.153,22.677,22.677,22.677S73.847,81.889,73.847,69.365L73.847,69.365z"/>
		
			<path fill="none" stroke="#000000" stroke-width="0.4724" stroke-linecap="round" stroke-linejoin="round" stroke-miterlimit="10" d="
			M73.847,69.365c0-12.524-10.153-22.679-22.677-22.679S28.493,56.841,28.493,69.365c0,12.522,10.153,22.677,22.677,22.677
			S73.847,81.889,73.847,69.365L73.847,69.365z"/>
		<text transform="matrix(1 0 0 1 45.124 76.1741)" font-family="'ArialMT'" font-size="22.6772">C</text>
		
			<line fill="none" stroke="#000000" stroke-width="1.4173" stroke-linecap="round" stroke-linejoin="round" stroke-miterlimit="10" x1="28.493" y1="137.396" x2="118.847" y2="137.042"/>
		<path fill="#FFFFFF" d="M51.17,137.396c0-12.521-10.153-22.678-22.677-22.678c-12.524,0-22.677,10.153-22.677,22.678
			c0,12.523,10.153,22.68,22.677,22.68C41.017,160.074,51.17,149.92,51.17,137.396L51.17,137.396z"/>
		
			<path fill="none" stroke="#000000" stroke-width="0.4724" stroke-linecap="round" stroke-linejoin="round" stroke-miterlimit="10" d="
			M51.17,137.396c0-12.521-10.153-22.678-22.677-22.678c-12.524,0-22.677,10.153-22.677,22.678c0,12.523,10.153,22.68,22.677,22.68
			C41.017,160.074,51.17,149.92,51.17,137.396L51.17,137.396z"/>
		<text transform="matrix(1 0 0 1 23.2881 144.2014)" font-family="'ArialMT'" font-size="22.6772">S</text>
		
			<line fill="none" stroke="#000000" stroke-width="1.4173" stroke-linecap="round" stroke-linejoin="round" stroke-miterlimit="10" x1="51.17" y1="205.427" x2="118.847" y2="137.042"/>
		<path fill="#FFFFFF" d="M141.879,137.396c0-12.521-10.153-22.678-22.677-22.678c-12.524,0-22.677,10.153-22.677,22.678
			c0,12.523,10.153,22.68,22.677,22.68C131.726,160.074,141.879,149.92,141.879,137.396L141.879,137.396z"/>
		
			<path fill="none" stroke="#000000" stroke-width="0.4724" stroke-linecap="round" stroke-linejoin="round" stroke-miterlimit="10" d="
			M141.879,137.396c0-12.521-10.153-22.678-22.677-22.678c-12.524,0-22.677,10.153-22.677,22.678
			c0,12.523,10.153,22.68,22.677,22.68C131.726,160.074,141.879,149.92,141.879,137.396L141.879,137.396z"/>
		<text transform="matrix(1 0 0 1 112.2334 144.2014)" font-family="'ArialMT'" font-size="22.6772">D</text>
		<path fill="#FFFFFF" d="M73.847,205.427c0-12.523-10.153-22.678-22.677-22.678s-22.677,10.151-22.677,22.678
			s10.153,22.678,22.677,22.678S73.847,217.953,73.847,205.427L73.847,205.427z"/>
		
			<path fill="none" stroke="#000000" stroke-width="0.4724" stroke-linecap="round" stroke-linejoin="round" stroke-miterlimit="10" d="
			M73.847,205.427c0-12.523-10.153-22.678-22.677-22.678s-22.677,10.151-22.677,22.678s10.153,22.678,22.677,22.678
			S73.847,217.953,73.847,205.427L73.847,205.427z"/>
		<text transform="matrix(1 0 0 1 45.124 212.2288)" font-family="'ArialMT'" font-size="22.6772">C</text>
		
			<line fill="none" stroke="#000000" stroke-width="1.4173" stroke-linecap="round" stroke-linejoin="round" stroke-miterlimit="10" x1="277.941" y1="69.365" x2="210.265" y2="137.042"/>
		<path fill="#FFFFFF" d="M255.265,69.365c0-12.524,10.152-22.679,22.677-22.679s22.679,10.152,22.679,22.679
			c0,12.523-10.154,22.677-22.679,22.677S255.265,81.889,255.265,69.365L255.265,69.365z"/>
		
			<path fill="none" stroke="#000000" stroke-width="0.4724" stroke-linecap="round" stroke-linejoin="round" stroke-miterlimit="10" d="
			M255.265,69.365c0-12.524,10.152-22.679,22.677-22.679s22.679,10.152,22.679,22.679c0,12.523-10.154,22.677-22.679,22.677
			S255.265,81.889,255.265,69.365L255.265,69.365z"/>
		<text transform="matrix(1 0 0 1 272.7397 76.1741)" font-family="'ArialMT'" font-size="22.6772">S</text>
		
			<line fill="none" stroke="#000000" stroke-width="1.4173" stroke-linecap="round" stroke-linejoin="round" stroke-miterlimit="10" x1="300.619" y1="137.396" x2="210.265" y2="137.042"/>
		<path fill="#FFFFFF" d="M277.941,137.396c0-12.521,10.152-22.678,22.678-22.678c12.523,0,22.678,10.153,22.678,22.678
			c0,12.523-10.15,22.68-22.678,22.68C288.093,160.074,277.941,149.92,277.941,137.396L277.941,137.396z"/>
		
			<path fill="none" stroke="#000000" stroke-width="0.4724" stroke-linecap="round" stroke-linejoin="round" stroke-miterlimit="10" d="
			M277.941,137.396c0-12.521,10.152-22.678,22.678-22.678c12.523,0,22.678,10.153,22.678,22.678c0,12.523-10.15,22.68-22.678,22.68
			C288.093,160.074,277.941,149.92,277.941,137.396L277.941,137.396z"/>
		<text transform="matrix(1 0 0 1 294.5757 144.2014)" font-family="'ArialMT'" font-size="22.6772">C</text>
		
			<line fill="none" stroke="#000000" stroke-width="1.4173" stroke-linecap="round" stroke-linejoin="round" stroke-miterlimit="10" x1="277.941" y1="205.427" x2="210.265" y2="137.042"/>
		<path fill="#FFFFFF" d="M187.233,137.396c0-12.521,10.151-22.678,22.677-22.678c12.526,0,22.678,10.153,22.678,22.678
			c0,12.523-10.15,22.68-22.678,22.68C197.384,160.074,187.233,149.92,187.233,137.396L187.233,137.396z"/>
		
			<path fill="none" stroke="#000000" stroke-width="0.4724" stroke-linecap="round" stroke-linejoin="round" stroke-miterlimit="10" d="
			M187.233,137.396c0-12.521,10.151-22.678,22.677-22.678c12.526,0,22.678,10.153,22.678,22.678c0,12.523-10.15,22.68-22.678,22.68
			C197.384,160.074,187.233,149.92,187.233,137.396L187.233,137.396z"/>
		<text transform="matrix(1 0 0 1 202.9292 144.2014)" font-family="'ArialMT'" font-size="22.6772">D</text>
		<path fill="#FFFFFF" d="M255.265,205.427c0-12.523,10.152-22.678,22.677-22.678s22.679,10.151,22.679,22.678
			s-10.154,22.678-22.679,22.678S255.265,217.953,255.265,205.427L255.265,205.427z"/>
		
			<path fill="none" stroke="#000000" stroke-width="0.4724" stroke-linecap="round" stroke-linejoin="round" stroke-miterlimit="10" d="
			M255.265,205.427c0-12.523,10.152-22.678,22.677-22.678s22.679,10.151,22.679,22.678s-10.154,22.678-22.679,22.678
			S255.265,217.953,255.265,205.427L255.265,205.427z"/>
		<text transform="matrix(1 0 0 1 272.7397 212.2288)" font-family="'ArialMT'" font-size="22.6772">S</text>
		<text transform="matrix(1 0 0 1 71.1924 256.4514)" font-family="'ArialMT'" font-size="18.8977">Host</text>
		<text transform="matrix(1 0 0 1 110.0483 256.4514)" font-family="'ArialMT'" font-size="18.8977" letter-spacing="-2"> A</text>
		<text transform="matrix(1 0 0 1 207.5913 256.4514)" font-family="'ArialMT'" font-size="18.8977">Host B</text>
		
			<line fill="none" stroke="#FF0000" stroke-width="1.4173" stroke-linecap="round" stroke-linejoin="round" stroke-miterlimit="10" x1="181.563" y1="137.396" x2="155.811" y2="137.396"/>
		<polygon fill="#FF0000" points="156.562,140.401 147.548,137.396 156.562,134.392 		"/>
		<polygon fill="#FFFFFF" points="222.521,63.696 222.521,4.229 168.953,4.229 168.953,63.696 191.272,63.696 204.242,109.05 
			200.201,63.696 		"/>
		
			<polygon fill="none" stroke="#FF0000" stroke-width="0.1512" stroke-linecap="round" stroke-linejoin="round" stroke-miterlimit="10" points="
			222.521,63.696 222.521,4.229 168.953,4.229 168.953,63.696 191.272,63.696 204.242,109.05 200.201,63.696 		"/>
		<text transform="matrix(1 0 0 1 172.7251 20.3567)" fill="#FF0000" font-family="'ArialMT'" font-size="15.1181">I Know </text>
		<text transform="matrix(1 0 0 1 180.7085 38.4983)" fill="#FF0000" font-family="'ArialMT'" font-size="15.1181">That </text>
		<text transform="matrix(1 0 0 1 177.771 56.6389)" fill="#FF0000" font-family="'ArialMT'" font-size="15.1181">Name</text>
	</g>
</g>
</svg>
