<?xml version="1.0" encoding="utf-8"?>
<!-- Generator: Adobe Illustrator 15.0.0, SVG Export Plug-In . SVG Version: 6.00 Build 0)  -->
<!DOCTYPE svg PUBLIC "-//W3C//DTD SVG 1.1//EN" "http://www.w3.org/Graphics/SVG/1.1/DTD/svg11.dtd">
<svg version="1.1" id="Layer_1" xmlns="http://www.w3.org/2000/svg" xmlns:xlink="http://www.w3.org/1999/xlink" x="0px" y="0px"
	 width="330.675px" height="265.645px" viewBox="0 0 330.675 265.645" enable-background="new 0 0 330.675 265.645"
	 xml:space="preserve">
<line fill="none" stroke="#969696" stroke-width="1.4173" stroke-linecap="round" stroke-linejoin="round" stroke-miterlimit="10" x1="51.17" y1="69.354" x2="118.847" y2="137.031"/>
<path fill="#FFFFFF" stroke="#787878" stroke-miterlimit="10" d="M73.847,69.354c0-12.523-10.153-22.678-22.677-22.678
	S28.493,56.83,28.493,69.354S38.646,92.031,51.17,92.031S73.847,81.878,73.847,69.354L73.847,69.354z"/>
<path fill="none" stroke="#969696" stroke-width="0.4724" stroke-linecap="round" stroke-linejoin="round" stroke-miterlimit="10" d="
	M73.847,69.354c0-12.523-10.153-22.678-22.677-22.678S28.493,56.83,28.493,69.354S38.646,92.031,51.17,92.031
	S73.847,81.878,73.847,69.354L73.847,69.354z"/>
<text transform="matrix(1 0 0 1 42.1338 76.1584)" fill="#969696" font-family="'ArialMT'" font-size="22.6772">C</text>
<line fill="none" stroke="#969696" stroke-width="1.4173" stroke-linecap="round" stroke-linejoin="round" stroke-miterlimit="10" x1="28.493" y1="137.385" x2="118.847" y2="137.031"/>
<path fill="#FFFFFF" d="M51.17,137.385c0-12.523-10.153-22.677-22.677-22.677c-12.524,0-22.677,10.152-22.677,22.677
	s10.153,22.679,22.677,22.679C41.017,160.063,51.17,149.91,51.17,137.385L51.17,137.385z"/>
<path fill="none" stroke="#969696" stroke-width="0.4724" stroke-linecap="round" stroke-linejoin="round" stroke-miterlimit="10" d="
	M51.17,137.385c0-12.523-10.153-22.677-22.677-22.677c-12.524,0-22.677,10.152-22.677,22.677s10.153,22.679,22.677,22.679
	C41.017,160.063,51.17,149.91,51.17,137.385L51.17,137.385z"/>
<text transform="matrix(1 0 0 1 20.2959 144.2014)" fill="#969696" font-family="'ArialMT'" font-size="22.6772">S</text>
<line fill="none" stroke="#969696" stroke-width="1.4173" stroke-linecap="round" stroke-linejoin="round" stroke-miterlimit="10" x1="51.17" y1="205.417" x2="118.847" y2="137.031"/>
<path fill="#FFFFFF" stroke="#969696" stroke-miterlimit="10" d="M141.879,137.385c0-12.523-10.153-22.677-22.677-22.677
	c-12.524,0-22.677,10.152-22.677,22.677s10.153,22.679,22.677,22.679C131.726,160.063,141.879,149.91,141.879,137.385
	L141.879,137.385z"/>
<path fill="none" stroke="#969696" stroke-width="0.4724" stroke-linecap="round" stroke-linejoin="round" stroke-miterlimit="10" d="
	M141.879,137.385c0-12.523-10.153-22.677-22.677-22.677c-12.524,0-22.677,10.152-22.677,22.677s10.153,22.679,22.677,22.679
	C131.726,160.063,141.879,149.91,141.879,137.385L141.879,137.385z"/>
<text transform="matrix(1 0 0 1 112.2178 145.2014)" fill="#969696" font-family="'ArialMT'" font-size="22.6772">D</text>
<path fill="#FFFFFF" d="M73.847,205.417c0-12.522-10.153-22.677-22.677-22.677s-22.677,10.152-22.677,22.677
	c0,12.523,10.153,22.679,22.677,22.679C63.694,228.094,73.847,217.941,73.847,205.417L73.847,205.417z"/>
<path fill="none" stroke="#969696" stroke-width="0.4724" stroke-linecap="round" stroke-linejoin="round" stroke-miterlimit="10" d="
	M73.847,205.417c0-12.522-10.153-22.677-22.677-22.677s-22.677,10.152-22.677,22.677c0,12.523,10.153,22.679,22.677,22.679
	C63.694,228.094,73.847,217.941,73.847,205.417L73.847,205.417z"/>
<text transform="matrix(1 0 0 1 42.1338 212.2288)" fill="#969696" font-family="'ArialMT'" font-size="22.6772">C</text>
<line fill="none" stroke="#000000" stroke-width="1.4173" stroke-linecap="round" stroke-linejoin="round" stroke-miterlimit="10" x1="277.941" y1="69.354" x2="210.265" y2="137.031"/>
<path fill="#FFFFFF" d="M255.265,69.354c0-12.523,10.152-22.678,22.677-22.678s22.679,10.153,22.679,22.678
	c0,12.523-10.154,22.678-22.679,22.678S255.265,81.878,255.265,69.354L255.265,69.354z"/>
<path fill="none" stroke="#000000" stroke-width="0.4724" stroke-linecap="round" stroke-linejoin="round" stroke-miterlimit="10" d="
	M255.265,69.354c0-12.523,10.152-22.678,22.677-22.678s22.679,10.153,22.679,22.678c0,12.523-10.154,22.678-22.679,22.678
	S255.265,81.878,255.265,69.354L255.265,69.354z"/>
<text transform="matrix(1 0 0 1 268.7261 76.1584)" font-family="'ArialMT'" font-size="22.6772">S</text>
<line fill="none" stroke="#000000" stroke-width="1.4173" stroke-linecap="round" stroke-linejoin="round" stroke-miterlimit="10" x1="300.619" y1="137.385" x2="210.265" y2="137.031"/>
<path fill="#FFFFFF" d="M277.941,137.385c0-12.523,10.152-22.677,22.678-22.677c12.526,0,22.678,10.152,22.678,22.677
	s-10.151,22.679-22.678,22.679C288.093,160.063,277.941,149.91,277.941,137.385L277.941,137.385z"/>
<path fill="none" stroke="#000000" stroke-width="0.4724" stroke-linecap="round" stroke-linejoin="round" stroke-miterlimit="10" d="
	M277.941,137.385c0-12.523,10.152-22.677,22.678-22.677c12.526,0,22.678,10.152,22.678,22.677s-10.151,22.679-22.678,22.679
	C288.093,160.063,277.941,149.91,277.941,137.385L277.941,137.385z"/>
<text transform="matrix(1 0 0 1 290.5874 144.2014)" font-family="'ArialMT'" font-size="22.6772">C</text>
<line fill="none" stroke="#000000" stroke-width="1.4173" stroke-linecap="round" stroke-linejoin="round" stroke-miterlimit="10" x1="277.941" y1="205.417" x2="210.265" y2="137.031"/>
<path fill="#FFFFFF" d="M187.233,137.385c0-12.523,10.151-22.677,22.677-22.677c12.526,0,22.678,10.152,22.678,22.677
	s-10.151,22.679-22.678,22.679C197.384,160.064,187.233,149.91,187.233,137.385L187.233,137.385z"/>
<path fill="none" stroke="#000000" stroke-width="0.4724" stroke-linecap="round" stroke-linejoin="round" stroke-miterlimit="10" d="
	M187.233,137.385c0-12.523,10.151-22.677,22.677-22.677c12.526,0,22.678,10.152,22.678,22.677s-10.151,22.679-22.678,22.679
	C197.384,160.064,187.233,149.91,187.233,137.385L187.233,137.385z"/>
<text transform="matrix(1 0 0 1 200.9468 145.2014)" font-family="'ArialMT'" font-size="22.6772">D</text>
<path fill="#FFFFFF" d="M255.265,205.417c0-12.522,10.152-22.677,22.677-22.677s22.679,10.152,22.679,22.677
	c0,12.523-10.154,22.679-22.679,22.679C265.417,228.094,255.265,217.941,255.265,205.417L255.265,205.417z"/>
<path fill="none" stroke="#000000" stroke-width="0.4724" stroke-linecap="round" stroke-linejoin="round" stroke-miterlimit="10" d="
	M255.265,205.417c0-12.522,10.152-22.677,22.677-22.677s22.679,10.152,22.679,22.677c0,12.523-10.154,22.679-22.679,22.679
	C265.417,228.094,255.265,217.941,255.265,205.417L255.265,205.417z"/>
<text transform="matrix(1 0 0 1 268.7261 212.2288)" font-family="'ArialMT'" font-size="22.6772">S</text>
<text transform="matrix(1 0 0 1 70.1943 256.4514)" enable-background="new    "><tspan x="0" y="0" fill="#969696" font-family="'ArialMT'" font-size="18.8977">Host</tspan><tspan x="38.856" y="0" fill="#969696" font-family="'ArialMT'" font-size="18.8977" letter-spacing="-1"> A</tspan></text>
<text transform="matrix(1 0 0 1 206.5854 256.4514)" font-family="'ArialMT'" font-size="18.8977">Host B</text>
<path fill="none" stroke="#FF0000" stroke-width="1.4173" stroke-linecap="round" stroke-linejoin="round" stroke-miterlimit="10" d="
	M209.721,103.613c0.241-46.86,23.229-69.014,52.993-51.063"/>
<polygon fill="#FF0000" points="212.708,102.793 209.91,111.874 206.701,102.931 "/>
<text transform="matrix(1 0 0 1 228.9604 37.0374)" fill="#FF0000" font-family="'ArialMT'" font-size="15.1181">Advertise</text>
<line fill="none" stroke="#FF0000" stroke-width="1.4173" stroke-linecap="round" stroke-linejoin="round" stroke-miterlimit="10" x1="181.563" y1="137.385" x2="155.811" y2="137.385"/>
<polygon fill="#FF0000" points="156.562,140.39 147.548,137.385 156.562,134.381 "/>
</svg>
