<?xml version="1.0" encoding="UTF-8" standalone="no"?>
<!DOCTYPE svg PUBLIC "-//W3C//DTD SVG 1.0//EN" "http://www.w3.org/TR/2001/REC-SVG-20010904/DTD/svg10.dtd">
<!-- Generated by Microsoft Visio 11.0, SVG Export, v1.0 events-actions-arch.svg Page-1 -->
<svg xmlns="http://www.w3.org/2000/svg" xmlns:xlink="http://www.w3.org/1999/xlink" xmlns:ev="http://www.w3.org/2001/xml-events"
		xmlns:v="http://schemas.microsoft.com/visio/2003/SVGExtensions/" width="6.89302in" height="5.7861in"
		viewBox="0 0 496.297 416.599" xml:space="preserve" color-interpolation-filters="sRGB" class="st16">
	<v:documentProperties v:langID="1033" v:viewMarkup="false"/>

	<style type="text/css">
	<![CDATA[
		.st1 {fill:url(#grad29-4);stroke:#5b6e7e;stroke-linecap:round;stroke-linejoin:round;stroke-opacity:0.75;stroke-width:1}
		.st2 {fill:url(#grad29-8);stroke:#5b6e7e;stroke-linecap:round;stroke-linejoin:round;stroke-opacity:0.75;stroke-width:1}
		.st3 {fill:url(#grad29-12);stroke:#5b6e7e;stroke-linecap:round;stroke-linejoin:round;stroke-opacity:0.75;stroke-width:1}
		.st4 {fill:#000000;font-family:Cambria;font-size:0.833336em}
		.st5 {fill:url(#grad29-17);stroke:#5b6e7e;stroke-linecap:round;stroke-linejoin:round;stroke-opacity:0.75;stroke-width:1}
		.st6 {fill:#000000;font-family:Cambria;font-size:1.00001em}
		.st7 {font-size:1em}
		.st8 {stroke:#5b6e7e;stroke-linecap:round;stroke-linejoin:round;stroke-opacity:0.75;stroke-width:1}
		.st9 {fill:none;stroke:none;stroke-linecap:round;stroke-linejoin:round;stroke-width:1}
		.st10 {fill:#000000;font-family:Cambria;font-size:1.00001em;font-weight:bold}
		.st11 {fill:#000000;font-family:Cambria;font-size:0.75em}
		.st12 {marker-end:url(#mrkr13-100);stroke:#5b6e7e;stroke-linecap:round;stroke-linejoin:round;stroke-opacity:0.75;stroke-width:1.5}
		.st13 {fill:#5b6e7e;fill-opacity:0.75;stroke:#5b6e7e;stroke-opacity:0.75;stroke-width:0.51020408163265}
		.st14 {marker-start:url(#mrkr13-119);stroke:#5b6e7e;stroke-linecap:round;stroke-linejoin:round;stroke-opacity:0.75;stroke-width:1.5}
		.st15 {marker-end:url(#mrkr13-129);stroke:#5b6e7e;stroke-linecap:round;stroke-linejoin:round;stroke-opacity:0.75;stroke-width:1.5}
		.st16 {fill:none;fill-rule:evenodd;font-size:12px;overflow:visible;stroke-linecap:square;stroke-miterlimit:3}
	]]>
	</style>

	<defs id="Patterns_And_Gradients">
		<linearGradient id="grad29-4" v:fillPattern="29" v:foreground="#e1e1e1" v:background="#d8d8d8" x1="0" y1="0" x2="0" y2="1">
			<stop offset="0" style="stop-color:#d8d8d8;stop-opacity:1"/>
			<stop offset="0.5" style="stop-color:#e1e1e1;stop-opacity:1"/>
			<stop offset="1" style="stop-color:#d8d8d8;stop-opacity:1"/>
		</linearGradient>
		<linearGradient id="grad29-8" v:fillPattern="29" v:foreground="#f5f5f5" v:background="#f2f2f2" x1="0" y1="0" x2="0" y2="1">
			<stop offset="0" style="stop-color:#f2f2f2;stop-opacity:1"/>
			<stop offset="0.5" style="stop-color:#f5f5f5;stop-opacity:1"/>
			<stop offset="1" style="stop-color:#f2f2f2;stop-opacity:1"/>
		</linearGradient>
		<linearGradient id="grad29-12" v:fillPattern="29" v:foreground="#9fb1c1" v:background="#7e97ad" x1="0" y1="0" x2="0" y2="1">
			<stop offset="0" style="stop-color:#7e97ad;stop-opacity:1"/>
			<stop offset="0.5" style="stop-color:#9fb1c1;stop-opacity:1"/>
			<stop offset="1" style="stop-color:#7e97ad;stop-opacity:1"/>
		</linearGradient>
		<linearGradient id="grad29-17" v:fillPattern="29" v:foreground="#efddcf" v:background="#ead1bf" x1="0" y1="0" x2="0" y2="1">
			<stop offset="0" style="stop-color:#ead1bf;stop-opacity:1"/>
			<stop offset="0.5" style="stop-color:#efddcf;stop-opacity:1"/>
			<stop offset="1" style="stop-color:#ead1bf;stop-opacity:1"/>
		</linearGradient>
	</defs>
	<defs id="Markers">
		<g id="lend13">
			<path d="M 3 1 L 0 0 L 3 -1 L 3 1 " style="stroke:none"/>
		</g>
		<marker id="mrkr13-100" class="st13" v:arrowType="13" v:arrowSize="0" v:setback="5.64" refX="-5.64" orient="auto"
				markerUnits="strokeWidth" overflow="visible">
			<use xlink:href="#lend13" transform="scale(-1.96,-1.96) "/>
		</marker>
		<marker id="mrkr13-119" class="st13" v:arrowType="13" v:arrowSize="0" v:setback="5.64" refX="5.64" orient="auto"
				markerUnits="strokeWidth" overflow="visible">
			<use xlink:href="#lend13" transform="scale(1.96) "/>
		</marker>
		<marker id="mrkr13-129" class="st13" v:arrowType="13" v:arrowSize="0" v:setback="5.88" refX="-5.88" orient="auto"
				markerUnits="strokeWidth" overflow="visible">
			<use xlink:href="#lend13" transform="scale(-1.96,-1.96) "/>
		</marker>
	</defs>
	<g v:mID="0" v:index="1" v:groupContext="foregroundPage">
		<title>Page-1</title>
		<v:pageProperties v:drawingScale="1" v:pageScale="1" v:drawingUnits="0" v:shadowOffsetX="9" v:shadowOffsetY="-9"/>
		<v:layer v:name="Connector" v:index="0"/>
		<g id="shape1-1" v:mID="1" v:groupContext="shape" transform="translate(18.94,-253.893)">
			<title>Rectangle.24</title>
			<v:userDefs>
				<v:ud v:nameU="visVersion" v:val="VT0(14):26"/>
				<v:ud v:nameU="msvThemeColors" v:val="VT0(49):26"/>
				<v:ud v:nameU="msvThemeEffects" v:val="VT0(5):26"/>
			</v:userDefs>
			<rect x="0" y="272.031" width="132.542" height="144.568" rx="6.3" ry="6.3" class="st1"/>
		</g>
		<g id="shape2-5" v:mID="2" v:groupContext="shape" transform="translate(36.1513,-268.518)">
			<title>Rectangle.28</title>
			<v:userDefs>
				<v:ud v:nameU="visVersion" v:val="VT0(14):26"/>
				<v:ud v:nameU="msvThemeColors" v:val="VT0(49):26"/>
				<v:ud v:nameU="msvThemeEffects" v:val="VT0(5):26"/>
			</v:userDefs>
			<rect x="0" y="296.039" width="98.8548" height="120.561" rx="6.3" ry="6.3" class="st2"/>
		</g>
		<g id="shape3-9" v:mID="3" v:groupContext="shape" transform="translate(44.3892,-347.784)">
			<title>Rounded rectangle.3</title>
			<desc>App</desc>
			<v:userDefs>
				<v:ud v:nameU="visVersion" v:val="VT0(14):26"/>
				<v:ud v:nameU="msvThemeColors" v:val="VT0(49):26"/>
				<v:ud v:nameU="msvThemeEffects" v:val="VT0(5):26"/>
			</v:userDefs>
			<v:textBlock v:margins="rect(4,4,4,4)"/>
			<v:textRect cx="41.1895" cy="399.499" width="82.38" height="34.2003"/>
			<path d="M73.38 416.6 A9.00007 9.00007 -180 0 0 82.38 407.6 L82.38 391.4 A9.00007 9.00007 -180 0 0 73.38 382.4 L9 382.4
						 A9.00007 9.00007 -180 0 0 -0 391.4 L0 407.6 A9.00007 9.00007 -180 0 0 9 416.6 L73.38 416.6 Z" class="st3"/>
			<text x="32.51" y="402.5" class="st4" v:langID="1033"><v:paragraph v:horizAlign="1"/><v:tabList/>App</text>		</g>
		<g id="shape4-14" v:mID="4" v:groupContext="shape" transform="translate(45.4105,-277.518)">
			<title>Rounded rectangle.26</title>
			<desc>AllJoyn Router</desc>
			<v:userDefs>
				<v:ud v:nameU="visVersion" v:val="VT0(14):26"/>
				<v:ud v:nameU="msvThemeColors" v:val="VT0(49):26"/>
				<v:ud v:nameU="msvThemeEffects" v:val="VT0(5):26"/>
			</v:userDefs>
			<v:textBlock v:margins="rect(4,4,4,4)"/>
			<v:textRect cx="41.1895" cy="400.233" width="82.38" height="32.7313"/>
			<path d="M73.38 416.6 A9.00007 9.00007 -180 0 0 82.38 407.6 L82.38 392.87 A9.00007 9.00007 -180 0 0 73.38 383.87 L9 383.87
						 A9.00007 9.00007 -180 0 0 -0 392.87 L0 407.6 A9.00007 9.00007 -180 0 0 9 416.6 L73.38 416.6 Z" class="st5"/>
			<text x="22.8" y="396.63" class="st6" v:langID="1033"><v:paragraph v:horizAlign="1"/><v:tabList/>AllJoyn <tspan
						x="23.53" dy="1.2em" class="st7">Router</tspan></text>		</g>
		<g id="shape5-20" v:mID="5" v:groupContext="shape" transform="translate(-330.687,106.258) rotate(-89.8401)">
			<title>Sheet.5</title>
			<v:userDefs>
				<v:ud v:nameU="msvThemeColors" v:val="VT0(49):26"/>
				<v:ud v:nameU="msvThemeEffects" v:val="VT0(5):26"/>
			</v:userDefs>
			<path d="M0 416.6 L16.72 416.6" class="st8"/>
		</g>
		<g id="shape6-24" v:mID="6" v:groupContext="shape" transform="translate(15.0828,-403.036)">
			<title>Sheet.6</title>
			<desc>Event-Emitting Device</desc>
			<v:userDefs>
				<v:ud v:nameU="msvThemeColors" v:val="VT0(49):26"/>
				<v:ud v:nameU="msvThemeEffects" v:val="VT0(5):26"/>
			</v:userDefs>
			<v:textBlock v:margins="rect(4,4,4,4)"/>
			<v:textRect cx="70.0222" cy="410.878" width="140.05" height="11.4415"/>
			<rect x="0" y="405.158" width="140.044" height="11.4415" rx="5.72077" ry="5.72077" class="st9"/>
			<text x="8.85" y="414.48" class="st10" v:langID="1033"><v:paragraph v:horizAlign="1"/><v:tabList/>Event-Emitting Device</text>		</g>
		<g id="shape7-27" v:mID="7" v:groupContext="shape" transform="translate(44.7676,-325.898)">
			<title>Rounded rectangle.29</title>
			<desc>AllJoyn Core Library</desc>
			<v:userDefs>
				<v:ud v:nameU="visVersion" v:val="VT0(14):26"/>
				<v:ud v:nameU="msvThemeColors" v:val="VT0(49):26"/>
				<v:ud v:nameU="msvThemeEffects" v:val="VT0(5):26"/>
			</v:userDefs>
			<v:textBlock v:margins="rect(4,4,4,4)"/>
			<v:textRect cx="41.1895" cy="405.776" width="82.38" height="21.6467"/>
			<path d="M73.38 416.6 A9.00007 9.00007 -180 0 0 82.38 407.6 L82.38 403.95 A9.00007 9.00007 -180 0 0 73.38 394.95 L9 394.95
						 A9.00007 9.00007 -180 0 0 -0 403.95 L0 407.6 A9.00007 9.00007 -180 0 0 9 416.6 L73.38 416.6 Z" class="st5"/>
			<text x="17.43" y="403.08" class="st11" v:langID="1033"><v:paragraph v:horizAlign="1"/><v:tabList/>AllJoyn Core <tspan
						x="26.87" dy="1.2em" class="st7">Library</tspan></text>		</g>
		<g id="shape8-32" v:mID="8" v:groupContext="shape" transform="translate(335.869,-253.893)">
			<title>Rectangle.8</title>
			<v:userDefs>
				<v:ud v:nameU="visVersion" v:val="VT0(14):26"/>
				<v:ud v:nameU="msvThemeColors" v:val="VT0(49):26"/>
				<v:ud v:nameU="msvThemeEffects" v:val="VT0(5):26"/>
			</v:userDefs>
			<rect x="0" y="270.424" width="132.542" height="146.175" rx="6.3" ry="6.3" class="st1"/>
		</g>
		<g id="shape9-35" v:mID="9" v:groupContext="shape" transform="translate(353.08,-270.768)">
			<title>Rectangle.9</title>
			<v:userDefs>
				<v:ud v:nameU="visVersion" v:val="VT0(14):26"/>
				<v:ud v:nameU="msvThemeColors" v:val="VT0(49):26"/>
				<v:ud v:nameU="msvThemeEffects" v:val="VT0(5):26"/>
			</v:userDefs>
			<rect x="0" y="296.681" width="98.8548" height="119.918" rx="6.3" ry="6.3" class="st2"/>
		</g>
		<g id="shape10-38" v:mID="10" v:groupContext="shape" transform="translate(361.318,-349.392)">
			<title>Rounded rectangle.10</title>
			<desc>App</desc>
			<v:userDefs>
				<v:ud v:nameU="visVersion" v:val="VT0(14):26"/>
				<v:ud v:nameU="msvThemeColors" v:val="VT0(49):26"/>
				<v:ud v:nameU="msvThemeEffects" v:val="VT0(5):26"/>
			</v:userDefs>
			<v:textBlock v:margins="rect(4,4,4,4)"/>
			<v:textRect cx="41.1895" cy="399.499" width="82.38" height="34.2003"/>
			<path d="M73.38 416.6 A9.00007 9.00007 -180 0 0 82.38 407.6 L82.38 391.4 A9.00007 9.00007 -180 0 0 73.38 382.4 L9 382.4
						 A9.00007 9.00007 -180 0 0 -0 391.4 L0 407.6 A9.00007 9.00007 -180 0 0 9 416.6 L73.38 416.6 Z" class="st3"/>
			<text x="32.51" y="402.5" class="st4" v:langID="1033"><v:paragraph v:horizAlign="1"/><v:tabList/>App</text>		</g>
		<g id="shape11-42" v:mID="11" v:groupContext="shape" transform="translate(362.339,-280.893)">
			<title>Rounded rectangle.11</title>
			<desc>AllJoyn Router</desc>
			<v:userDefs>
				<v:ud v:nameU="visVersion" v:val="VT0(14):26"/>
				<v:ud v:nameU="msvThemeColors" v:val="VT0(49):26"/>
				<v:ud v:nameU="msvThemeEffects" v:val="VT0(5):26"/>
			</v:userDefs>
			<v:textBlock v:margins="rect(4,4,4,4)"/>
			<v:textRect cx="41.1895" cy="401.117" width="82.38" height="30.9634"/>
			<path d="M73.38 416.6 A9.00007 9.00007 -180 0 0 82.38 407.6 L82.38 394.64 A9.00007 9.00007 -180 0 0 73.38 385.64 L9 385.64
						 A9.00007 9.00007 -180 0 0 -0 394.64 L0 407.6 A9.00007 9.00007 -180 0 0 9 416.6 L73.38 416.6 Z" class="st5"/>
			<text x="22.8" y="397.52" class="st6" v:langID="1033"><v:paragraph v:horizAlign="1"/><v:tabList/>AllJoyn <tspan
						x="23.53" dy="1.2em" class="st7">Router</tspan></text>		</g>
		<g id="shape12-47" v:mID="12" v:groupContext="shape" transform="translate(-13.7583,104.593) rotate(-89.8322)">
			<title>Sheet.12</title>
			<v:userDefs>
				<v:ud v:nameU="msvThemeColors" v:val="VT0(49):26"/>
				<v:ud v:nameU="msvThemeEffects" v:val="VT0(5):26"/>
			</v:userDefs>
			<path d="M0 416.6 L15.93 416.6" class="st8"/>
		</g>
		<g id="shape14-51" v:mID="14" v:groupContext="shape" transform="translate(326.936,-403.679)">
			<title>Sheet.14</title>
			<desc>Action-Receiving Device</desc>
			<v:userDefs>
				<v:ud v:nameU="msvThemeColors" v:val="VT0(49):26"/>
				<v:ud v:nameU="msvThemeEffects" v:val="VT0(5):26"/>
			</v:userDefs>
			<v:textBlock v:margins="rect(4,4,4,4)"/>
			<v:textRect cx="76.059" cy="410.878" width="152.12" height="11.4415"/>
			<rect x="0" y="405.158" width="152.118" height="11.4415" rx="5.72077" ry="5.72077" class="st9"/>
			<text x="9.55" y="414.48" class="st10" v:langID="1033"><v:paragraph v:horizAlign="1"/><v:tabList/>Action-Receiving Device</text>		</g>
		<g id="shape15-54" v:mID="15" v:groupContext="shape" transform="translate(100.261,-59.9107)">
			<title>Rectangle.15</title>
			<v:userDefs>
				<v:ud v:nameU="visVersion" v:val="VT0(14):26"/>
				<v:ud v:nameU="msvThemeColors" v:val="VT0(49):26"/>
				<v:ud v:nameU="msvThemeEffects" v:val="VT0(5):26"/>
			</v:userDefs>
			<rect x="0" y="270.906" width="127.125" height="145.693" rx="6.3" ry="6.3" class="st1"/>
		</g>
		<g id="shape16-57" v:mID="16" v:groupContext="shape" transform="translate(112.008,-70.1964)">
			<title>Rectangle.16</title>
			<v:userDefs>
				<v:ud v:nameU="visVersion" v:val="VT0(14):26"/>
				<v:ud v:nameU="msvThemeColors" v:val="VT0(49):26"/>
				<v:ud v:nameU="msvThemeEffects" v:val="VT0(5):26"/>
			</v:userDefs>
			<rect x="0" y="290.574" width="101.878" height="126.025" rx="6.3" ry="6.3" class="st2"/>
		</g>
		<g id="shape17-60" v:mID="17" v:groupContext="shape" transform="translate(122.44,-81.2857)">
			<title>Rounded rectangle.17</title>
			<desc>IFTTT Rules Config App</desc>
			<v:userDefs>
				<v:ud v:nameU="visVersion" v:val="VT0(14):26"/>
				<v:ud v:nameU="msvThemeColors" v:val="VT0(49):26"/>
				<v:ud v:nameU="msvThemeEffects" v:val="VT0(5):26"/>
			</v:userDefs>
			<v:textBlock v:margins="rect(4,4,4,4)"/>
			<v:textRect cx="41.1895" cy="399.499" width="82.38" height="34.2003"/>
			<path d="M73.38 416.6 A9.00007 9.00007 -180 0 0 82.38 407.6 L82.38 391.4 A9.00007 9.00007 -180 0 0 73.38 382.4 L9 382.4
						 A9.00007 9.00007 -180 0 0 -0 391.4 L0 407.6 A9.00007 9.00007 -180 0 0 9 416.6 L73.38 416.6 Z" class="st3"/>
			<text x="15.08" y="396.5" class="st4" v:langID="1033"><v:paragraph v:horizAlign="1"/><v:tabList/>IFTTT Rules <tspan
						x="17.78" dy="1.2em" class="st7">Config App </tspan> </text>		</g>
		<g id="shape21-65" v:mID="21" v:groupContext="shape" transform="translate(92.8685,-44.9643)">
			<title>Sheet.21</title>
			<desc>Authoring App</desc>
			<v:userDefs>
				<v:ud v:nameU="msvThemeColors" v:val="VT0(49):26"/>
				<v:ud v:nameU="msvThemeEffects" v:val="VT0(5):26"/>
			</v:userDefs>
			<v:textBlock v:margins="rect(4,4,4,4)"/>
			<v:textRect cx="70.0222" cy="410.878" width="140.05" height="11.4415"/>
			<rect x="0" y="405.158" width="140.044" height="11.4415" rx="5.72077" ry="5.72077" class="st9"/>
			<text x="29.55" y="414.48" class="st10" v:langID="1033"><v:paragraph v:horizAlign="1"/><v:tabList/>Authoring App</text>		</g>
		<g id="shape22-68" v:mID="22" v:groupContext="shape" transform="translate(-253.65,289.383) rotate(-90)">
			<title>Sheet.22</title>
			<v:userDefs>
				<v:ud v:nameU="msvThemeColors" v:val="VT0(49):26"/>
				<v:ud v:nameU="msvThemeEffects" v:val="VT0(5):26"/>
			</v:userDefs>
			<path d="M0 416.6 L28.86 416.6" class="st8"/>
		</g>
		<g id="shape19-72" v:mID="19" v:groupContext="shape" transform="translate(332.976,-60.5536)">
			<title>Rectangle.19</title>
			<v:userDefs>
				<v:ud v:nameU="visVersion" v:val="VT0(14):26"/>
				<v:ud v:nameU="msvThemeColors" v:val="VT0(49):26"/>
				<v:ud v:nameU="msvThemeEffects" v:val="VT0(5):26"/>
			</v:userDefs>
			<rect x="0" y="270.906" width="127.125" height="145.693" rx="6.3" ry="6.3" class="st1"/>
		</g>
		<g id="shape23-75" v:mID="23" v:groupContext="shape" transform="translate(344.723,-70.8393)">
			<title>Rectangle.23</title>
			<v:userDefs>
				<v:ud v:nameU="visVersion" v:val="VT0(14):26"/>
				<v:ud v:nameU="msvThemeColors" v:val="VT0(49):26"/>
				<v:ud v:nameU="msvThemeEffects" v:val="VT0(5):26"/>
			</v:userDefs>
			<rect x="0" y="290.574" width="101.878" height="126.025" rx="6.3" ry="6.3" class="st2"/>
		</g>
		<g id="shape24-78" v:mID="24" v:groupContext="shape" transform="translate(355.154,-81.9286)">
			<title>Rounded rectangle.24</title>
			<desc>Rules Engine</desc>
			<v:userDefs>
				<v:ud v:nameU="visVersion" v:val="VT0(14):26"/>
				<v:ud v:nameU="msvThemeColors" v:val="VT0(49):26"/>
				<v:ud v:nameU="msvThemeEffects" v:val="VT0(5):26"/>
			</v:userDefs>
			<v:textBlock v:margins="rect(4,4,4,4)"/>
			<v:textRect cx="41.1895" cy="399.499" width="82.38" height="34.2003"/>
			<path d="M73.38 416.6 A9.00007 9.00007 -180 0 0 82.38 407.6 L82.38 391.4 A9.00007 9.00007 -180 0 0 73.38 382.4 L9 382.4
						 A9.00007 9.00007 -180 0 0 -0 391.4 L0 407.6 A9.00007 9.00007 -180 0 0 9 416.6 L73.38 416.6 Z" class="st3"/>
			<text x="13.52" y="402.5" class="st4" v:langID="1033"><v:paragraph v:horizAlign="1"/><v:tabList/>Rules Engine    </text>		</g>
		<g id="shape27-82" v:mID="27" v:groupContext="shape" transform="translate(352.583,-153.929)">
			<title>Rounded rectangle.27</title>
			<desc>AllJoyn Router</desc>
			<v:userDefs>
				<v:ud v:nameU="visVersion" v:val="VT0(14):26"/>
				<v:ud v:nameU="msvThemeColors" v:val="VT0(49):26"/>
				<v:ud v:nameU="msvThemeEffects" v:val="VT0(5):26"/>
			</v:userDefs>
			<v:textBlock v:margins="rect(4,4,4,4)"/>
			<v:textRect cx="41.1895" cy="400.233" width="82.38" height="32.7313"/>
			<path d="M73.38 416.6 A9.00007 9.00007 -180 0 0 82.38 407.6 L82.38 392.87 A9.00007 9.00007 -180 0 0 73.38 383.87 L9 383.87
						 A9.00007 9.00007 -180 0 0 -0 392.87 L0 407.6 A9.00007 9.00007 -180 0 0 9 416.6 L73.38 416.6 Z" class="st5"/>
			<text x="22.8" y="396.63" class="st6" v:langID="1033"><v:paragraph v:horizAlign="1"/><v:tabList/>AllJoyn <tspan
						x="23.53" dy="1.2em" class="st7">Router</tspan></text>		</g>
		<g id="shape28-87" v:mID="28" v:groupContext="shape" transform="translate(-20.8653,288.568) rotate(-90)">
			<title>Sheet.28</title>
			<v:userDefs>
				<v:ud v:nameU="msvThemeColors" v:val="VT0(49):26"/>
				<v:ud v:nameU="msvThemeEffects" v:val="VT0(5):26"/>
			</v:userDefs>
			<path d="M0 416.6 L26.88 416.6" class="st8"/>
		</g>
		<g id="shape26-91" v:mID="26" v:groupContext="shape" transform="translate(355.253,-45.6721)">
			<title>Sheet.26</title>
			<desc>Rule Engine</desc>
			<v:userDefs>
				<v:ud v:nameU="msvThemeColors" v:val="VT0(49):26"/>
				<v:ud v:nameU="msvThemeEffects" v:val="VT0(5):26"/>
			</v:userDefs>
			<v:textBlock v:margins="rect(4,4,4,4)"/>
			<v:textRect cx="70.0222" cy="410.878" width="140.05" height="11.4415"/>
			<rect x="0" y="405.158" width="140.044" height="11.4415" rx="5.72077" ry="5.72077" class="st9"/>
			<text x="37.22" y="414.48" class="st10" v:langID="1033"><v:paragraph v:horizAlign="1"/><v:tabList/>Rule Engine</text>		</g>
		<g id="shape29-94" v:mID="29" v:groupContext="shape" v:layerMember="0"
				transform="translate(470.342,-68.9509) rotate(60.1699)">
			<title>Line-curve connector</title>
			<v:userDefs>
				<v:ud v:nameU="AntiScale" v:val="VT0(1):26"/>
				<v:ud v:nameU="Scale" v:val="VT0(1):26"/>
				<v:ud v:nameU="visVersion" v:val="VT0(14):26"/>
				<v:ud v:nameU="msvThemeColors" v:val="VT0(49):26"/>
				<v:ud v:nameU="msvThemeEffects" v:val="VT0(5):26"/>
			</v:userDefs>
			<path d="M0 416.6 L32.91 417.27 L65.73 417.35 L98.45 416.84 L98.81 416.83" class="st12"/>
		</g>
		<g id="shape30-101" v:mID="30" v:groupContext="shape" transform="translate(474.491,-61.9968) rotate(60)">
			<title>Sheet.30</title>
			<desc>1) Announcement</desc>
			<v:userDefs>
				<v:ud v:nameU="msvThemeColors" v:val="VT0(49):26"/>
				<v:ud v:nameU="msvThemeEffects" v:val="VT0(5):26"/>
			</v:userDefs>
			<v:textBlock v:margins="rect(4,4,4,4)"/>
			<v:textRect cx="52" cy="408.599" width="104" height="16"/>
			<rect x="0" y="400.599" width="104" height="16" rx="6.3" ry="6.3" class="st9"/>
			<text x="17.43" y="411.3" class="st11" v:langID="1033"><v:paragraph v:horizAlign="1"/><v:tabList/>1) Announcement</text>		</g>
		<g id="shape31-104" v:mID="31" v:groupContext="shape" v:layerMember="0"
				transform="translate(140.339,-233.559) rotate(-32.2344) scale(-1,1)">
			<title>Line-curve connector.31</title>
			<v:userDefs>
				<v:ud v:nameU="AntiScale" v:val="VT0(1):26"/>
				<v:ud v:nameU="Scale" v:val="VT0(1):26"/>
				<v:ud v:nameU="visVersion" v:val="VT0(14):26"/>
				<v:ud v:nameU="msvThemeColors" v:val="VT0(49):26"/>
				<v:ud v:nameU="msvThemeEffects" v:val="VT0(5):26"/>
			</v:userDefs>
			<path d="M0 416.6 L66.87 417.28 L133.54 417.32 L199.99 416.73 L200.35 416.72" class="st12"/>
		</g>
		<g id="shape32-110" v:mID="32" v:groupContext="shape" transform="translate(25.263,-162.987) rotate(-30)">
			<title>Sheet.32</title>
			<desc>1) Announcement</desc>
			<v:userDefs>
				<v:ud v:nameU="msvThemeColors" v:val="VT0(49):26"/>
				<v:ud v:nameU="msvThemeEffects" v:val="VT0(5):26"/>
			</v:userDefs>
			<v:textBlock v:margins="rect(4,4,4,4)"/>
			<v:textRect cx="52" cy="408.599" width="104" height="16"/>
			<rect x="0" y="400.599" width="104" height="16" rx="6.3" ry="6.3" class="st9"/>
			<text x="17.43" y="411.3" class="st11" v:langID="1033"><v:paragraph v:horizAlign="1"/><v:tabList/>1) Announcement</text>		</g>
		<g id="shape33-113" v:mID="33" v:groupContext="shape" v:layerMember="0"
				transform="translate(440.699,-63.0092) rotate(61.5107)">
			<title>Line-curve connector.33</title>
			<v:userDefs>
				<v:ud v:nameU="AntiScale" v:val="VT0(1):26"/>
				<v:ud v:nameU="Scale" v:val="VT0(1):26"/>
				<v:ud v:nameU="visVersion" v:val="VT0(14):26"/>
				<v:ud v:nameU="msvThemeColors" v:val="VT0(49):26"/>
				<v:ud v:nameU="msvThemeEffects" v:val="VT0(5):26"/>
			</v:userDefs>
			<path d="M8.46 416.82 L8.82 416.83 L42.37 417.34 L75.82 417.27 L109.17 416.6" class="st14"/>
		</g>
		<g id="shape34-120" v:mID="34" v:groupContext="shape" transform="translate(424.348,-59.4254) rotate(60)">
			<title>Sheet.34</title>
			<desc>2) Introspect</desc>
			<v:userDefs>
				<v:ud v:nameU="msvThemeColors" v:val="VT0(49):26"/>
				<v:ud v:nameU="msvThemeEffects" v:val="VT0(5):26"/>
			</v:userDefs>
			<v:textBlock v:margins="rect(4,4,4,4)"/>
			<v:textRect cx="52" cy="408.599" width="104" height="16"/>
			<rect x="0" y="400.599" width="104" height="16" rx="6.3" ry="6.3" class="st9"/>
			<text x="26.92" y="411.3" class="st11" v:langID="1033"><v:paragraph v:horizAlign="1"/><v:tabList/>2) Introspect</text>		</g>
		<g id="shape35-123" v:mID="35" v:groupContext="shape" v:layerMember="0"
				transform="translate(421.362,602.433) rotate(-31.4625) scale(1,-1)">
			<title>Line-curve connector.35</title>
			<v:userDefs>
				<v:ud v:nameU="AntiScale" v:val="VT0(1):26"/>
				<v:ud v:nameU="Scale" v:val="VT0(1):26"/>
				<v:ud v:nameU="visVersion" v:val="VT0(14):26"/>
				<v:ud v:nameU="msvThemeColors" v:val="VT0(49):26"/>
				<v:ud v:nameU="msvThemeEffects" v:val="VT0(5):26"/>
			</v:userDefs>
			<path d="M0 416.6 L35.28 416.6 L73.26 416.6 L113.93 416.6 L157.28 416.6 L203.33 416.6" class="st15"/>
		</g>
		<g id="shape36-130" v:mID="36" v:groupContext="shape" transform="translate(44.5487,-127.63) rotate(-30)">
			<title>Sheet.36</title>
			<desc>2) Introspect</desc>
			<v:userDefs>
				<v:ud v:nameU="msvThemeColors" v:val="VT0(49):26"/>
				<v:ud v:nameU="msvThemeEffects" v:val="VT0(5):26"/>
			</v:userDefs>
			<v:textBlock v:margins="rect(4,4,4,4)"/>
			<v:textRect cx="52" cy="408.599" width="104" height="16"/>
			<rect x="0" y="400.599" width="104" height="16" rx="6.3" ry="6.3" class="st9"/>
			<text x="26.92" y="411.3" class="st11" v:langID="1033"><v:paragraph v:horizAlign="1"/><v:tabList/>2) Introspect</text>		</g>
		<g id="shape45-133" v:mID="45" v:groupContext="shape" v:layerMember="0" transform="translate(40.4757,-89.3858)">
			<title>Dynamic connector</title>
			<v:userDefs>
				<v:ud v:nameU="visVersion" v:val="VT0(14):26"/>
				<v:ud v:nameU="msvThemeColors" v:val="VT0(49):26"/>
				<v:ud v:nameU="msvThemeEffects" v:val="VT0(5):26"/>
			</v:userDefs>
			<path d="M0 407.6 L73.14 407.6" class="st15"/>
		</g>
		<g id="shape44-139" v:mID="44" v:groupContext="shape" transform="translate(38.2971,-73.8929)">
			<title>Sheet.44</title>
			<desc>3) Define IFTTT rules</desc>
			<v:userDefs>
				<v:ud v:nameU="msvThemeColors" v:val="VT0(49):26"/>
				<v:ud v:nameU="msvThemeEffects" v:val="VT0(5):26"/>
			</v:userDefs>
			<v:textBlock v:margins="rect(4,4,4,4)"/>
			<v:textRect cx="30.5" cy="404.903" width="61" height="23.3929"/>
			<rect x="0" y="393.206" width="61" height="23.3929" rx="6.3" ry="6.3" class="st9"/>
			<text x="4" y="402.2" class="st11" v:langID="1033"><v:paragraph/><v:tabList/>3) Define <v:newlineChar/><tspan x="4"
						dy="1.2em" class="st7">IFTTT rules</tspan></text>		</g>
		<g id="shape46-143" v:mID="46" v:groupContext="shape" transform="translate(254.297,-73)">
			<title>Sheet.46</title>
			<desc>4) Configure IFTTT rules</desc>
			<v:userDefs>
				<v:ud v:nameU="msvThemeColors" v:val="VT0(49):26"/>
				<v:ud v:nameU="msvThemeEffects" v:val="VT0(5):26"/>
			</v:userDefs>
			<v:textBlock v:margins="rect(4,4,4,4)"/>
			<v:textRect cx="30.5" cy="404.903" width="61" height="23.3929"/>
			<rect x="0" y="393.206" width="61" height="23.3929" rx="6.3" ry="6.3" class="st9"/>
			<text x="4" y="402.2" class="st11" v:langID="1033"><v:paragraph/><v:tabList/>4) Configure <v:newlineChar/><tspan x="4"
						dy="1.2em" class="st7">IFTTT rules</tspan></text>		</g>
		<g id="shape47-147" v:mID="47" v:groupContext="shape" v:layerMember="0" transform="translate(204.819,-89.7073)">
			<title>Dynamic connector.47</title>
			<v:userDefs>
				<v:ud v:nameU="visVersion" v:val="VT0(14):26"/>
				<v:ud v:nameU="msvThemeColors" v:val="VT0(49):26"/>
				<v:ud v:nameU="msvThemeEffects" v:val="VT0(5):26"/>
			</v:userDefs>
			<path d="M0 407.92 L141.52 407.32" class="st15"/>
		</g>
		<g id="shape48-153" v:mID="48" v:groupContext="shape" v:layerMember="0" transform="translate(45.4105,-293.883)">
			<title>Dynamic connector.48</title>
			<v:userDefs>
				<v:ud v:nameU="visVersion" v:val="VT0(14):26"/>
				<v:ud v:nameU="msvThemeColors" v:val="VT0(49):26"/>
				<v:ud v:nameU="msvThemeEffects" v:val="VT0(5):26"/>
			</v:userDefs>
			<path d="M0 416.6 L-29.81 416.6 A6.3 6.3 -180 0 0 -36.11 422.9 L-36.11 684.29 A6.3 6.3 -180 0 0 -29.81 690.59 L326.59
						 690.59 A6.3 6.3 -180 0 0 332.89 684.29 L332.89 637.37" class="st15"/>
		</g>
		<g id="shape49-159" v:mID="49" v:groupContext="shape" transform="translate(255.047,-1)">
			<title>Sheet.49</title>
			<desc>5) Event emitted</desc>
			<v:userDefs>
				<v:ud v:nameU="msvThemeColors" v:val="VT0(49):26"/>
				<v:ud v:nameU="msvThemeEffects" v:val="VT0(5):26"/>
			</v:userDefs>
			<v:textBlock v:margins="rect(4,4,4,4)"/>
			<v:textRect cx="42.25" cy="404.903" width="84.5" height="23.3929"/>
			<rect x="0" y="393.206" width="84.5" height="23.3929" rx="6.3" ry="6.3" class="st9"/>
			<text x="4" y="407.6" class="st11" v:langID="1033"><v:paragraph/><v:tabList/>5) Event emitted</text>		</g>
		<g id="shape50-162" v:mID="50" v:groupContext="shape" v:layerMember="0" transform="translate(440.976,-196.864)">
			<title>Dynamic connector.50</title>
			<v:userDefs>
				<v:ud v:nameU="visVersion" v:val="VT0(14):26"/>
				<v:ud v:nameU="msvThemeColors" v:val="VT0(49):26"/>
				<v:ud v:nameU="msvThemeEffects" v:val="VT0(5):26"/>
			</v:userDefs>
			<path d="M-8.68 416.6 L-9.25 341.39" class="st15"/>
		</g>
		<g id="shape51-168" v:mID="51" v:groupContext="shape" transform="translate(392.797,-220.539)">
			<title>Sheet.51</title>
			<desc>6) Execute Action</desc>
			<v:userDefs>
				<v:ud v:nameU="msvThemeColors" v:val="VT0(49):26"/>
				<v:ud v:nameU="msvThemeEffects" v:val="VT0(5):26"/>
			</v:userDefs>
			<v:textBlock v:margins="rect(4,4,4,4)"/>
			<v:textRect cx="42.25" cy="404.903" width="84.5" height="23.3929"/>
			<rect x="0" y="393.206" width="84.5" height="23.3929" rx="6.3" ry="6.3" class="st9"/>
			<text x="4" y="407.6" class="st11" v:langID="1033"><v:paragraph/><v:tabList/>6) Execute Action</text>		</g>
		<g id="shape13-171" v:mID="13" v:groupContext="shape" transform="translate(361.696,-326.714)">
			<title>Rounded rectangle.13</title>
			<desc>AllJoyn Core Library</desc>
			<v:userDefs>
				<v:ud v:nameU="visVersion" v:val="VT0(14):26"/>
				<v:ud v:nameU="msvThemeColors" v:val="VT0(49):26"/>
				<v:ud v:nameU="msvThemeEffects" v:val="VT0(5):26"/>
			</v:userDefs>
			<v:textBlock v:margins="rect(4,4,4,4)"/>
			<v:textRect cx="41.1895" cy="405.776" width="82.38" height="21.6467"/>
			<path d="M73.38 416.6 A9.00007 9.00007 -180 0 0 82.38 407.6 L82.38 403.95 A9.00007 9.00007 -180 0 0 73.38 394.95 L9 394.95
						 A9.00007 9.00007 -180 0 0 -0 403.95 L0 407.6 A9.00007 9.00007 -180 0 0 9 416.6 L73.38 416.6 Z" class="st5"/>
			<text x="17.43" y="403.08" class="st11" v:langID="1033"><v:paragraph v:horizAlign="1"/><v:tabList/>AllJoyn Core <tspan
						x="26.87" dy="1.2em" class="st7">Library</tspan></text>		</g>
		<g id="shape20-176" v:mID="20" v:groupContext="shape" transform="translate(121.76,-116.392)">
			<title>Rounded rectangle.20</title>
			<desc>AllJoyn Core Library</desc>
			<v:userDefs>
				<v:ud v:nameU="visVersion" v:val="VT0(14):26"/>
				<v:ud v:nameU="msvThemeColors" v:val="VT0(49):26"/>
				<v:ud v:nameU="msvThemeEffects" v:val="VT0(5):26"/>
			</v:userDefs>
			<v:textBlock v:margins="rect(4,4,4,4)"/>
			<v:textRect cx="41.1895" cy="405.776" width="82.38" height="21.6467"/>
			<path d="M73.38 416.6 A9.00007 9.00007 -180 0 0 82.38 407.6 L82.38 403.95 A9.00007 9.00007 -180 0 0 73.38 394.95 L9 394.95
						 A9.00007 9.00007 -180 0 0 -0 403.95 L0 407.6 A9.00007 9.00007 -180 0 0 9 416.6 L73.38 416.6 Z" class="st5"/>
			<text x="17.43" y="403.08" class="st11" v:langID="1033"><v:paragraph v:horizAlign="1"/><v:tabList/>AllJoyn Core <tspan
						x="26.87" dy="1.2em" class="st7">Library</tspan></text>		</g>
		<g id="shape25-181" v:mID="25" v:groupContext="shape" transform="translate(354.544,-117.208)">
			<title>Rounded rectangle.25</title>
			<desc>AllJoyn Core Library</desc>
			<v:userDefs>
				<v:ud v:nameU="visVersion" v:val="VT0(14):26"/>
				<v:ud v:nameU="msvThemeColors" v:val="VT0(49):26"/>
				<v:ud v:nameU="msvThemeEffects" v:val="VT0(5):26"/>
			</v:userDefs>
			<v:textBlock v:margins="rect(4,4,4,4)"/>
			<v:textRect cx="41.1895" cy="405.776" width="82.38" height="21.6467"/>
			<path d="M73.38 416.6 A9.00007 9.00007 -180 0 0 82.38 407.6 L82.38 403.95 A9.00007 9.00007 -180 0 0 73.38 394.95 L9 394.95
						 A9.00007 9.00007 -180 0 0 -0 403.95 L0 407.6 A9.00007 9.00007 -180 0 0 9 416.6 L73.38 416.6 Z" class="st5"/>
			<text x="17.43" y="403.08" class="st11" v:langID="1033"><v:paragraph v:horizAlign="1"/><v:tabList/>AllJoyn Core <tspan
						x="26.87" dy="1.2em" class="st7">Library</tspan></text>		</g>
		<g id="shape18-186" v:mID="18" v:groupContext="shape" transform="translate(119.869,-153.286)">
			<title>Rounded rectangle.18</title>
			<desc>AllJoyn Router</desc>
			<v:userDefs>
				<v:ud v:nameU="visVersion" v:val="VT0(14):26"/>
				<v:ud v:nameU="msvThemeColors" v:val="VT0(49):26"/>
				<v:ud v:nameU="msvThemeEffects" v:val="VT0(5):26"/>
			</v:userDefs>
			<v:textBlock v:margins="rect(4,4,4,4)"/>
			<v:textRect cx="41.1895" cy="400.233" width="82.38" height="32.7313"/>
			<path d="M73.38 416.6 A9.00007 9.00007 -180 0 0 82.38 407.6 L82.38 392.87 A9.00007 9.00007 -180 0 0 73.38 383.87 L9 383.87
						 A9.00007 9.00007 -180 0 0 -0 392.87 L0 407.6 A9.00007 9.00007 -180 0 0 9 416.6 L73.38 416.6 Z" class="st5"/>
			<text x="22.8" y="396.63" class="st6" v:langID="1033"><v:paragraph v:horizAlign="1"/><v:tabList/>AllJoyn <tspan
						x="23.53" dy="1.2em" class="st7">Router</tspan></text>		</g>
	</g>
</svg>
