<?xml version="1.0" encoding="UTF-8" standalone="no"?>
<!DOCTYPE svg PUBLIC "-//W3C//DTD SVG 1.0//EN" "http://www.w3.org/TR/2001/REC-SVG-20010904/DTD/svg10.dtd">
<!-- Generated by Microsoft Visio 11.0, SVG Export, v1.0 authorization-data-format-structure.svg authorization-data-format-struc -->
<svg xmlns="http://www.w3.org/2000/svg" xmlns:xlink="http://www.w3.org/1999/xlink" xmlns:ev="http://www.w3.org/2001/xml-events"
		xmlns:v="http://schemas.microsoft.com/visio/2003/SVGExtensions/" width="8.5in" height="11in" viewBox="0 0 612 792"
		xml:space="preserve" color-interpolation-filters="sRGB" class="st7">
	<v:documentProperties v:langID="1033">
		<v:userDefs>
			<v:ud v:nameU="msvNoAutoConnect" v:val="VT0(1):26"/>
		</v:userDefs>
	</v:documentProperties>

	<style type="text/css">
	<![CDATA[
		.st1 {fill:#ffffff;stroke:#000000;stroke-linecap:round;stroke-linejoin:round;stroke-width:0.24}
		.st2 {fill:#000000;font-family:Calibri;font-size:0.666664em}
		.st3 {fill:#ffffff;stroke:#000000;stroke-linecap:round;stroke-linejoin:round;stroke-width:0.24;visibility:hidden}
		.st4 {marker-end:url(#mrkr4-51);marker-start:url(#mrkr10-49);stroke:#000000;stroke-linecap:round;stroke-linejoin:round;stroke-width:0.24}
		.st5 {fill:#000000;fill-opacity:1;stroke:#000000;stroke-opacity:1;stroke-width:0.08695652173913}
		.st6 {fill:#c0c0c0;stroke:#000000;stroke-linecap:round;stroke-linejoin:round;stroke-width:0.24}
		.st7 {fill:none;fill-rule:evenodd;font-size:12px;overflow:visible;stroke-linecap:square;stroke-miterlimit:3}
	]]>
	</style>

	<defs id="Markers">
		<g id="lend10">
			<path
					d="M 0 0.75 C -0.414214 0.75 -0.75 0.414214 -0.75 0 -0.75 -0.414214 -0.414214 -0.75 0 -0.75 0.414214 -0.75 0.75 -0.414214 0.75 0 0.75 0.414214 0.414214 0.75 0 0.75 Z "
					style="stroke:none"/>
		</g>
		<marker id="mrkr10-49" class="st5" v:arrowType="10" v:arrowSize="2" v:setback="0" refX="0" orient="auto"
				markerUnits="strokeWidth" overflow="visible">
			<use xlink:href="#lend10" transform="scale(11.5) "/>
		</marker>
		<g id="lend4">
			<path d="M 2 1 L 0 0 L 2 -1 L 2 1 " style="stroke:none"/>
		</g>
		<marker id="mrkr4-51" class="st5" v:arrowType="4" v:arrowSize="2" v:setback="0" refX="-0" orient="auto"
				markerUnits="strokeWidth" overflow="visible">
			<use xlink:href="#lend4" transform="scale(-11.5,-11.5) "/>
		</marker>
	</defs>
	<g v:mID="0" v:index="1" v:groupContext="foregroundPage">
		<v:userDefs/>
		<title>authorization-data-format-structure</title>
		<v:pageProperties v:drawingScale="1" v:pageScale="1" v:drawingUnits="19" v:shadowOffsetX="9" v:shadowOffsetY="-9"/>
		<g id="shape2-1" v:mID="2" v:groupContext="shape" transform="translate(59.2634,-433.711)">
			<title>Byte or variable</title>
			<desc>serialNumber</desc>
			<v:userDefs>
				<v:ud v:nameU="visVersion" v:val="VT0(14):26"/>
			</v:userDefs>
			<v:textBlock v:margins="rect(1,1,1,1)"/>
			<v:textRect cx="24.7571" cy="783" width="49.52" height="18"/>
			<rect x="0" y="774" width="49.5142" height="18" class="st1"/>
			<text x="2.69" y="785.4" class="st2" v:langID="1033"><v:paragraph v:horizAlign="1"/><v:tabList/>serialNumber</text>		</g>
		<g id="group3-4" transform="translate(241.978,-327.511)" v:mID="3" v:groupContext="group">
			<v:userDefs>
				<v:ud v:nameU="visVersion" v:val="VT0(14):26"/>
			</v:userDefs>
			<title>Array.11</title>
			<g id="shape4-5" v:mID="4" v:groupContext="shape" transform="translate(252,0)">
				<title>Sheet.4</title>
				<rect x="0" y="774" width="36" height="18" class="st3"/>
			</g>
			<g id="shape5-7" v:mID="5" v:groupContext="shape" transform="translate(216,0)">
				<title>Sheet.5</title>
				<rect x="0" y="774" width="36" height="18" class="st3"/>
			</g>
			<g id="shape6-9" v:mID="6" v:groupContext="shape" transform="translate(180,0)">
				<title>Sheet.6</title>
				<rect x="0" y="774" width="36" height="18" class="st3"/>
			</g>
			<g id="shape7-11" v:mID="7" v:groupContext="shape" transform="translate(144,0)">
				<title>Sheet.7</title>
				<rect x="0" y="774" width="36" height="18" class="st3"/>
			</g>
			<g id="shape8-13" v:mID="8" v:groupContext="shape" transform="translate(108,0)">
				<title>Sheet.8</title>
				<rect x="0" y="774" width="36" height="18" class="st1"/>
			</g>
			<g id="shape9-15" v:mID="9" v:groupContext="shape" transform="translate(72,0)">
				<title>Sheet.9</title>
				<rect x="0" y="774" width="36" height="18" class="st1"/>
			</g>
			<g id="shape10-17" v:mID="10" v:groupContext="shape" transform="translate(36,0)">
				<title>Sheet.10</title>
				<desc>rule</desc>
				<v:userDefs/>
				<v:textBlock v:margins="rect(1,1,1,1)"/>
				<v:textRect cx="18" cy="783" width="36" height="18"/>
				<rect x="0" y="774" width="36" height="18" class="st1"/>
				<text x="11.6" y="785.4" class="st2" v:langID="1033"><v:paragraph v:horizAlign="1"/><v:tabList/>rule</text>			</g>
			<g id="shape11-20" v:mID="11" v:groupContext="shape">
				<title>Sheet.11</title>
				<desc>rule</desc>
				<v:userDefs/>
				<v:textBlock v:margins="rect(1,1,1,1)"/>
				<v:textRect cx="18" cy="783" width="36" height="18"/>
				<rect x="0" y="774" width="36" height="18" class="st1"/>
				<text x="11.6" y="785.4" class="st2" v:langID="1033"><v:paragraph v:horizAlign="1"/><v:tabList/>rule</text>			</g>
		</g>
		<g id="group12-23" transform="translate(242.863,-358.111)" v:mID="12" v:groupContext="group">
			<v:userDefs>
				<v:ud v:nameU="visVersion" v:val="VT0(14):26"/>
			</v:userDefs>
			<title>Array.38</title>
			<g id="shape13-24" v:mID="13" v:groupContext="shape" transform="translate(270.999,0)">
				<title>Sheet.13</title>
				<rect x="0" y="774" width="38.7142" height="18" class="st3"/>
			</g>
			<g id="shape14-26" v:mID="14" v:groupContext="shape" transform="translate(232.285,0)">
				<title>Sheet.14</title>
				<rect x="0" y="774" width="38.7142" height="18" class="st3"/>
			</g>
			<g id="shape15-28" v:mID="15" v:groupContext="shape" transform="translate(193.571,0)">
				<title>Sheet.15</title>
				<rect x="0" y="774" width="38.7142" height="18" class="st3"/>
			</g>
			<g id="shape16-30" v:mID="16" v:groupContext="shape" transform="translate(154.857,0)">
				<title>Sheet.16</title>
				<rect x="0" y="774" width="38.7142" height="18" class="st3"/>
			</g>
			<g id="shape17-32" v:mID="17" v:groupContext="shape" transform="translate(116.143,0)">
				<title>Sheet.17</title>
				<rect x="0" y="774" width="38.7142" height="18" class="st1"/>
			</g>
			<g id="shape18-34" v:mID="18" v:groupContext="shape" transform="translate(77.4283,0)">
				<title>Sheet.18</title>
				<desc>sGroupID</desc>
				<v:userDefs/>
				<v:textBlock v:margins="rect(1,1,1,1)"/>
				<v:textRect cx="19.3571" cy="783" width="38.74" height="18"/>
				<rect x="0" y="774" width="38.7142" height="18" class="st1"/>
				<text x="4.09" y="785.4" class="st2" v:langID="1033"><v:paragraph v:horizAlign="1"/><v:tabList/>sGroupID</text>			</g>
			<g id="shape19-37" v:mID="19" v:groupContext="shape" transform="translate(38.7142,0)">
				<title>Sheet.19</title>
				<desc>sGroupID</desc>
				<v:userDefs/>
				<v:textBlock v:margins="rect(1,1,1,1)"/>
				<v:textRect cx="19.3571" cy="783" width="38.74" height="18"/>
				<rect x="0" y="774" width="38.7142" height="18" class="st1"/>
				<text x="4.09" y="785.4" class="st2" v:langID="1033"><v:paragraph v:horizAlign="1"/><v:tabList/>sGroupID</text>			</g>
			<g id="shape20-40" v:mID="20" v:groupContext="shape">
				<title>Sheet.20</title>
				<desc>peerID</desc>
				<v:userDefs/>
				<v:textBlock v:margins="rect(1,1,1,1)"/>
				<v:textRect cx="19.3571" cy="783" width="38.74" height="18"/>
				<rect x="0" y="774" width="38.7142" height="18" class="st1"/>
				<text x="8.41" y="785.4" class="st2" v:langID="1033"><v:paragraph v:horizAlign="1"/><v:tabList/>peerID</text>			</g>
		</g>
		<g id="shape21-43" v:mID="21" v:groupContext="shape" transform="translate(186.813,-367.054) rotate(-0.0801197)">
			<title>Pointer (1-D)</title>
			<v:userDefs>
				<v:ud v:nameU="CH" v:val="VT0(5):26"/>
				<v:ud v:nameU="visVersion" v:val="VT0(14):26"/>
			</v:userDefs>
			<path d="M0 792 L1.71 792 L2.07 792 L35.02 792 L35.38 792 L40.54 792" class="st4"/>
		</g>
		<g id="shape22-52" v:mID="22" v:groupContext="shape" transform="translate(457.299,-303.636) rotate(19.8844)">
			<title>Pointer (1-D).65</title>
			<v:userDefs>
				<v:ud v:nameU="CH" v:val="VT0(5):26"/>
				<v:ud v:nameU="visVersion" v:val="VT0(14):26"/>
			</v:userDefs>
			<path d="M0 792 L1.71 792 L2.07 792 L36.65 792 L37.01 792 L42.17 792" class="st4"/>
		</g>
		<g id="shape23-59" v:mID="23" v:groupContext="shape" transform="translate(1037.58,464.489) rotate(90)">
			<title>Pointer (1-D).83</title>
			<v:userDefs>
				<v:ud v:nameU="CH" v:val="VT0(5):26"/>
				<v:ud v:nameU="visVersion" v:val="VT0(14):26"/>
			</v:userDefs>
			<path d="M0 792 L1.71 792 L2.07 792 L28.68 792 L29.04 792 L34.2 792" class="st4"/>
		</g>
		<g id="group24-66" transform="translate(133.978,-354.511)" v:mID="24" v:groupContext="group">
			<v:userDefs>
				<v:ud v:nameU="visVersion" v:val="VT0(14):26"/>
			</v:userDefs>
			<title>3D stack top</title>
			<desc>peers</desc>
			<g id="shape25-67" v:mID="25" v:groupContext="shape" transform="translate(50.4,0)">
				<title>Sheet.25</title>
				<path d="M0 792 L7.09 784.91 L7.09 766.91 L0 774 L0 792 Z" class="st6"/>
			</g>
			<g id="shape26-69" v:mID="26" v:groupContext="shape" transform="translate(0,-18)">
				<title>Sheet.26</title>
				<path d="M0 792 L50.4 792 L57.49 784.91 L7.09 784.91 L0 792 Z" class="st6"/>
			</g>
			<g id="shape27-71" v:mID="27" v:groupContext="shape">
				<title>Sheet.27</title>
				<rect x="0" y="774" width="50.4" height="18" class="st1"/>
			</g>
			<g id="shape24-73" v:mID="24" v:groupContext="groupContent">
				<v:textBlock v:margins="rect(1,1,1,1)"/>
				<v:textRect cx="25.2" cy="783" width="50.41" height="18"/>
				<text x="16.16" y="785.4" class="st2" v:langID="1033"><v:paragraph v:horizAlign="1"/><v:tabList/>peers</text>			</g>
		</g>
		<g id="group28-75" transform="translate(133.978,-338.311)" v:mID="28" v:groupContext="group">
			<v:userDefs>
				<v:ud v:nameU="visVersion" v:val="VT0(14):26"/>
			</v:userDefs>
			<title>3D stack middle</title>
			<desc>rules</desc>
			<g id="shape29-76" v:mID="29" v:groupContext="shape" transform="translate(50.4,0)">
				<title>Sheet.29</title>
				<path d="M0 792 L7.09 784.91 L7.09 766.91 L0 774 L0 792 Z" class="st6"/>
			</g>
			<g id="shape30-78" v:mID="30" v:groupContext="shape">
				<title>Sheet.30</title>
				<rect x="0" y="774" width="50.4" height="18" class="st1"/>
			</g>
			<g id="shape28-80" v:mID="28" v:groupContext="groupContent">
				<v:textBlock v:margins="rect(1,1,1,1)"/>
				<v:textRect cx="25.2" cy="783" width="50.41" height="18"/>
				<text x="17.23" y="785.4" class="st2" v:langID="1033"><v:paragraph v:horizAlign="1"/><v:tabList/>rules</text>			</g>
		</g>
		<g id="group31-82" transform="translate(209.578,-257.311)" v:mID="31" v:groupContext="group">
			<v:userDefs>
				<v:ud v:nameU="visVersion" v:val="VT0(14):26"/>
			</v:userDefs>
			<title>Stack or heap</title>
			<g id="shape32-83" v:mID="32" v:groupContext="shape" transform="translate(0,-270)">
				<title>Sheet.32</title>
				<rect x="0" y="774" width="72" height="18" class="st3"/>
			</g>
			<g id="shape33-85" v:mID="33" v:groupContext="shape" transform="translate(0,-252)">
				<title>Sheet.33</title>
				<rect x="0" y="774" width="72" height="18" class="st3"/>
			</g>
			<g id="shape34-87" v:mID="34" v:groupContext="shape" transform="translate(0,-234)">
				<title>Sheet.34</title>
				<rect x="0" y="774" width="72" height="18" class="st3"/>
			</g>
			<g id="shape35-89" v:mID="35" v:groupContext="shape" transform="translate(0,-216)">
				<title>Sheet.35</title>
				<rect x="0" y="774" width="72" height="18" class="st3"/>
			</g>
			<g id="shape36-91" v:mID="36" v:groupContext="shape" transform="translate(0,-198)">
				<title>Sheet.36</title>
				<rect x="0" y="774" width="72" height="18" class="st3"/>
			</g>
			<g id="shape37-93" v:mID="37" v:groupContext="shape" transform="translate(0,-180)">
				<title>Sheet.37</title>
				<rect x="0" y="774" width="72" height="18" class="st3"/>
			</g>
			<g id="shape38-95" v:mID="38" v:groupContext="shape" transform="translate(0,-162)">
				<title>Sheet.38</title>
				<rect x="0" y="774" width="72" height="18" class="st3"/>
			</g>
			<g id="shape39-97" v:mID="39" v:groupContext="shape" transform="translate(0,-144)">
				<title>Sheet.39</title>
				<rect x="0" y="774" width="72" height="18" class="st3"/>
			</g>
			<g id="shape40-99" v:mID="40" v:groupContext="shape" transform="translate(0,-126)">
				<title>Sheet.40</title>
				<rect x="0" y="774" width="72" height="18" class="st3"/>
			</g>
			<g id="shape41-101" v:mID="41" v:groupContext="shape" transform="translate(0,-108)">
				<title>Sheet.41</title>
				<rect x="0" y="774" width="72" height="18" class="st3"/>
			</g>
			<g id="shape42-103" v:mID="42" v:groupContext="shape" transform="translate(0,-90)">
				<title>Sheet.42</title>
				<rect x="0" y="774" width="72" height="18" class="st3"/>
			</g>
			<g id="shape43-105" v:mID="43" v:groupContext="shape" transform="translate(0,-72)">
				<title>Sheet.43</title>
				<rect x="0" y="774" width="72" height="18" class="st3"/>
			</g>
			<g id="shape44-107" v:mID="44" v:groupContext="shape" transform="translate(0,-54)">
				<title>Sheet.44</title>
				<rect x="0" y="774" width="72" height="18" class="st3"/>
			</g>
			<g id="shape45-109" v:mID="45" v:groupContext="shape" transform="translate(0,-36)">
				<title>Sheet.45</title>
				<rect x="0" y="774" width="72" height="18" class="st3"/>
			</g>
			<g id="shape46-111" v:mID="46" v:groupContext="shape" transform="translate(0,-18)">
				<title>Sheet.46</title>
				<desc>object path</desc>
				<v:userDefs/>
				<v:textBlock v:margins="rect(1,1,1,1)"/>
				<v:textRect cx="36" cy="783" width="72" height="18"/>
				<rect x="0" y="774" width="72" height="18" class="st1"/>
				<text x="17.45" y="785.4" class="st2" v:langID="1033"><v:paragraph v:horizAlign="1"/><v:tabList/>object path</text>			</g>
			<g id="shape47-114" v:mID="47" v:groupContext="shape">
				<title>Sheet.47</title>
				<desc>interface name</desc>
				<v:userDefs/>
				<v:textBlock v:margins="rect(1,1,1,1)"/>
				<v:textRect cx="36" cy="783" width="72" height="18"/>
				<rect x="0" y="774" width="72" height="18" class="st1"/>
				<text x="11.33" y="785.4" class="st2" v:langID="1033"><v:paragraph v:horizAlign="1"/><v:tabList/>interface name</text>			</g>
		</g>
		<g id="group48-117" transform="translate(313.978,-239.311)" v:mID="48" v:groupContext="group">
			<v:userDefs>
				<v:ud v:nameU="visVersion" v:val="VT0(14):26"/>
			</v:userDefs>
			<title>Stack or heap.20</title>
			<g id="shape49-118" v:mID="49" v:groupContext="shape" transform="translate(0,-252)">
				<title>Sheet.49</title>
				<rect x="0" y="774" width="72" height="18" class="st3"/>
			</g>
			<g id="shape50-120" v:mID="50" v:groupContext="shape" transform="translate(0,-234)">
				<title>Sheet.50</title>
				<rect x="0" y="774" width="72" height="18" class="st3"/>
			</g>
			<g id="shape51-122" v:mID="51" v:groupContext="shape" transform="translate(0,-216)">
				<title>Sheet.51</title>
				<rect x="0" y="774" width="72" height="18" class="st3"/>
			</g>
			<g id="shape52-124" v:mID="52" v:groupContext="shape" transform="translate(0,-198)">
				<title>Sheet.52</title>
				<rect x="0" y="774" width="72" height="18" class="st3"/>
			</g>
			<g id="shape53-126" v:mID="53" v:groupContext="shape" transform="translate(0,-180)">
				<title>Sheet.53</title>
				<rect x="0" y="774" width="72" height="18" class="st3"/>
			</g>
			<g id="shape54-128" v:mID="54" v:groupContext="shape" transform="translate(0,-162)">
				<title>Sheet.54</title>
				<rect x="0" y="774" width="72" height="18" class="st3"/>
			</g>
			<g id="shape55-130" v:mID="55" v:groupContext="shape" transform="translate(0,-144)">
				<title>Sheet.55</title>
				<rect x="0" y="774" width="72" height="18" class="st3"/>
			</g>
			<g id="shape56-132" v:mID="56" v:groupContext="shape" transform="translate(0,-126)">
				<title>Sheet.56</title>
				<rect x="0" y="774" width="72" height="18" class="st3"/>
			</g>
			<g id="shape57-134" v:mID="57" v:groupContext="shape" transform="translate(0,-108)">
				<title>Sheet.57</title>
				<rect x="0" y="774" width="72" height="18" class="st3"/>
			</g>
			<g id="shape58-136" v:mID="58" v:groupContext="shape" transform="translate(0,-90)">
				<title>Sheet.58</title>
				<rect x="0" y="774" width="72" height="18" class="st3"/>
			</g>
			<g id="shape59-138" v:mID="59" v:groupContext="shape" transform="translate(0,-72)">
				<title>Sheet.59</title>
				<rect x="0" y="774" width="72" height="18" class="st3"/>
			</g>
			<g id="shape60-140" v:mID="60" v:groupContext="shape" transform="translate(0,-54)">
				<title>Sheet.60</title>
				<rect x="0" y="774" width="72" height="18" class="st3"/>
			</g>
			<g id="shape61-142" v:mID="61" v:groupContext="shape" transform="translate(0,-36)">
				<title>Sheet.61</title>
				<desc>member name</desc>
				<v:userDefs/>
				<v:textBlock v:margins="rect(1,1,1,1)"/>
				<v:textRect cx="36" cy="783" width="72" height="18"/>
				<rect x="0" y="774" width="72" height="18" class="st1"/>
				<text x="12.03" y="785.4" class="st2" v:langID="1033"><v:paragraph v:horizAlign="1"/><v:tabList/>member name</text>			</g>
			<g id="shape62-145" v:mID="62" v:groupContext="shape" transform="translate(0,-18)">
				<title>Sheet.62</title>
				<desc>type</desc>
				<v:userDefs/>
				<v:textBlock v:margins="rect(1,1,1,1)"/>
				<v:textRect cx="36" cy="783" width="72" height="18"/>
				<rect x="0" y="774" width="72" height="18" class="st1"/>
				<text x="28.76" y="785.4" class="st2" v:langID="1033"><v:paragraph v:horizAlign="1"/><v:tabList/>type</text>			</g>
			<g id="shape63-148" v:mID="63" v:groupContext="shape">
				<title>Sheet.63</title>
				<desc>action</desc>
				<v:userDefs/>
				<v:textBlock v:margins="rect(1,1,1,1)"/>
				<v:textRect cx="36" cy="783" width="72" height="18"/>
				<rect x="0" y="774" width="72" height="18" class="st1"/>
				<text x="25.92" y="785.4" class="st2" v:langID="1033"><v:paragraph v:horizAlign="1"/><v:tabList/>action</text>			</g>
		</g>
		<g id="shape64-151" v:mID="64" v:groupContext="shape" transform="translate(281.578,-266.311)">
			<title>Pointer (1-D).48</title>
			<v:userDefs>
				<v:ud v:nameU="CH" v:val="VT0(5):26"/>
				<v:ud v:nameU="visVersion" v:val="VT0(14):26"/>
			</v:userDefs>
			<path d="M0 792 L1.71 792 L2.07 792 L26.88 792 L27.24 792 L32.4 792" class="st4"/>
		</g>
		<g id="group65-158" transform="translate(58.3775,-408.511)" v:mID="65" v:groupContext="group">
			<v:userDefs>
				<v:ud v:nameU="visVersion" v:val="VT0(14):26"/>
			</v:userDefs>
			<title>Single link. list node.193</title>
			<g id="shape66-159" v:mID="66" v:groupContext="shape" transform="translate(36,0)">
				<title>Sheet.66</title>
				<rect x="0" y="774" width="18" height="18" class="st1"/>
			</g>
			<g id="shape67-161" v:mID="67" v:groupContext="shape" transform="translate(87.2061,-3.69607) rotate(3.04478)">
				<title>Sheet.67</title>
				<path d="M0 787.8 L1.53 788.56 L1.85 788.72 A36.0058 36.0058 -180 0 0 28.83 790.02 L29.16 789.87 L33.86 787.74"
						class="st4"/>
			</g>
			<g id="shape68-168" v:mID="68" v:groupContext="shape">
				<title>Sheet.68</title>
				<desc>ACLs</desc>
				<v:userDefs/>
				<v:textBlock v:margins="rect(1,1,1,1)"/>
				<v:textRect cx="18" cy="783" width="36.01" height="18"/>
				<rect x="0" y="774" width="36" height="18" class="st1"/>
				<text x="10.31" y="785.4" class="st2" v:langID="1033"><v:paragraph v:horizAlign="1"/><v:tabList/>ACLs</text>			</g>
		</g>
		<g id="group69-171" transform="translate(137.578,-404.911)" v:mID="69" v:groupContext="group">
			<v:userDefs>
				<v:ud v:nameU="visVersion" v:val="VT0(14):26"/>
			</v:userDefs>
			<title>Array.49</title>
			<g id="shape70-172" v:mID="70" v:groupContext="shape" transform="translate(252,0)">
				<title>Sheet.70</title>
				<rect x="0" y="770.4" width="36" height="21.6" class="st3"/>
			</g>
			<g id="shape71-174" v:mID="71" v:groupContext="shape" transform="translate(216,0)">
				<title>Sheet.71</title>
				<rect x="0" y="770.4" width="36" height="21.6" class="st3"/>
			</g>
			<g id="shape72-176" v:mID="72" v:groupContext="shape" transform="translate(180,0)">
				<title>Sheet.72</title>
				<rect x="0" y="770.4" width="36" height="21.6" class="st3"/>
			</g>
			<g id="shape73-178" v:mID="73" v:groupContext="shape" transform="translate(144,0)">
				<title>Sheet.73</title>
				<rect x="0" y="770.4" width="36" height="21.6" class="st3"/>
			</g>
			<g id="shape74-180" v:mID="74" v:groupContext="shape" transform="translate(108,0)">
				<title>Sheet.74</title>
				<rect x="0" y="770.4" width="36" height="21.6" class="st1"/>
			</g>
			<g id="shape75-182" v:mID="75" v:groupContext="shape" transform="translate(72,0)">
				<title>Sheet.75</title>
				<rect x="0" y="770.4" width="36" height="21.6" class="st1"/>
			</g>
			<g id="shape76-184" v:mID="76" v:groupContext="shape" transform="translate(36,0)">
				<title>Sheet.76</title>
				<desc>ACL</desc>
				<v:userDefs/>
				<v:textBlock v:margins="rect(1,1,1,1)"/>
				<v:textRect cx="18" cy="781.2" width="36" height="21.6"/>
				<rect x="0" y="770.4" width="36" height="21.6" class="st1"/>
				<text x="11.87" y="783.6" class="st2" v:langID="1033"><v:paragraph v:horizAlign="1"/><v:tabList/>ACL</text>			</g>
			<g id="shape77-187" v:mID="77" v:groupContext="shape">
				<title>Sheet.77</title>
				<desc>ACL</desc>
				<v:userDefs/>
				<v:textBlock v:margins="rect(1,1,1,1)"/>
				<v:textRect cx="18" cy="781.2" width="36" height="21.6"/>
				<rect x="0" y="770.4" width="36" height="21.6" class="st1"/>
				<text x="11.87" y="783.6" class="st2" v:langID="1033"><v:paragraph v:horizAlign="1"/><v:tabList/>ACL</text>			</g>
		</g>
		<g id="shape78-190" v:mID="78" v:groupContext="shape" transform="translate(924.373,196.778) rotate(76.0963)">
			<title>Pointer (1-D).29</title>
			<v:userDefs>
				<v:ud v:nameU="CH" v:val="VT0(5):26"/>
				<v:ud v:nameU="visVersion" v:val="VT0(14):26"/>
			</v:userDefs>
			<path d="M0 792 L1.71 792 L2.07 792 L24.21 792 L24.57 792 L29.73 792" class="st4"/>
		</g>
	</g>
</svg>
