<?xml version="1.0" encoding="UTF-8" standalone="no"?>
<!DOCTYPE svg PUBLIC "-//W3C//DTD SVG 1.1//EN" "http://www.w3.org/Graphics/SVG/1.1/DTD/svg11.dtd">
<!-- Generated by Microsoft Visio, SVG Export building-policy-using-manifest.svg building-policy-using-manifest -->
<svg xmlns="http://www.w3.org/2000/svg" xmlns:xlink="http://www.w3.org/1999/xlink" xmlns:ev="http://www.w3.org/2001/xml-events"
		width="8.5in" height="11in" viewBox="0 0 612 792" xml:space="preserve" color-interpolation-filters="sRGB" class="st18">
	<style type="text/css">
	<![CDATA[
		.st1 {fill:#ffffff;stroke:none;stroke-width:1}
		.st2 {fill:none;stroke:none;stroke-width:1}
		.st3 {fill:none}
		.st4 {stroke:#000000;stroke-linecap:round;stroke-linejoin:round;stroke-width:0.48}
		.st5 {fill:none;stroke:#000000;stroke-linecap:round;stroke-linejoin:round;stroke-width:0.48}
		.st6 {stroke:#000000;stroke-dasharray:3.36,2.4;stroke-linecap:round;stroke-linejoin:round;stroke-width:0.48}
		.st7 {fill:#ffffff;stroke:#000000;stroke-linecap:round;stroke-linejoin:round;stroke-width:0.48}
		.st8 {fill:#000000;font-family:Calibri;font-size:0.666664em}
		.st9 {font-size:1em;text-decoration:underline}
		.st10 {marker-end:url(#mrkr2-69);stroke:#000000;stroke-linecap:round;stroke-linejoin:round;stroke-width:0.48}
		.st11 {fill:#000000;fill-opacity:1;stroke:#000000;stroke-opacity:1;stroke-width:0.12903225806452}
		.st12 {fill:#ffffff;stroke:none;stroke-linecap:butt;stroke-width:7.2}
		.st13 {marker-start:url(#mrkr1-77);stroke:#000000;stroke-dasharray:3.36,2.4;stroke-linecap:round;stroke-linejoin:round;stroke-width:0.48}
		.st14 {fill:#ffffff;stroke:none;stroke-linecap:butt}
		.st15 {marker-end:url(#mrkr1-141);stroke:#000000;stroke-linecap:round;stroke-linejoin:round;stroke-width:0.48}
		.st16 {fill:none;stroke:none;stroke-linecap:round;stroke-linejoin:round;stroke-width:0.75}
		.st17 {fill:#000000;font-family:Calibri;font-size:1.00001em}
		.st18 {fill:none;fill-rule:evenodd;font-size:12px;overflow:visible;stroke-linecap:square;stroke-miterlimit:3}
	]]>
	</style>

	<defs id="Markers">
		<g id="lend2">
			<path d="M 1 1 L 0 0 L 1 -1 L 1 1 " style="stroke:none"/>
		</g>
		<marker id="mrkr2-69" class="st11" refX="-0" orient="auto" markerUnits="strokeWidth" overflow="visible">
			<use xlink:href="#lend2" transform="scale(-7.75,-7.75) "/>
		</marker>
		<g id="lend1">
			<path d="M 1 -1 L 0 0 L 1 1 " style="stroke-linecap:round;stroke-linejoin:round;fill:none"/>
		</g>
		<marker id="mrkr1-77" class="st11" orient="auto" markerUnits="strokeWidth" overflow="visible">
			<use xlink:href="#lend1" transform="scale(7.75) "/>
		</marker>
		<marker id="mrkr1-141" class="st11" orient="auto" markerUnits="strokeWidth" overflow="visible">
			<use xlink:href="#lend1" transform="scale(-7.75,-7.75) "/>
		</marker>
	</defs>
	<g>
		<title>building-policy-using-manifest</title>
		<g id="group1-1" transform="translate(79.569,-477.599)">
			<title>Actor</title>
			<g id="shape2-2" transform="translate(5.76,-51.251)">
				<title>Sheet.2</title>
				<path d="M-0 786.31 A5.76 5.69455 0 1 1 11.52 786.31 A5.76 5.69455 0 1 1 -0 786.31 Z" class="st1"/>
			</g>
			<g id="group3-4" transform="translate(0,-45.56)">
				<title>Sheet.3</title>
				<g id="shape4-5">
					<title>Sheet.4</title>
					<path d="M0 792 L23.04 792 L0 792 Z" class="st2"/>
				</g>
				<g id="shape5-7">
					<title>Sheet.5</title>
					<path d="M0 792 L23.04 792 L0 792 Z" class="st3"/>
					<path d="M0 792 L23.04 792" class="st4"/>
				</g>
			</g>
			<g id="group6-10" transform="translate(11.52,2.27374E-13)">
				<title>Sheet.6</title>
				<g id="shape7-11">
					<title>Sheet.7</title>
					<path d="M0 769.22 L11.52 792 L0 769.22 Z" class="st2"/>
				</g>
				<g id="shape8-13">
					<title>Sheet.8</title>
					<path d="M0 769.22 L11.52 792 L0 769.22 Z" class="st3"/>
					<path d="M0 769.22 L11.52 792" class="st4"/>
				</g>
			</g>
			<g id="group9-16">
				<title>Sheet.9</title>
				<g id="shape10-17">
					<title>Sheet.10</title>
					<path d="M11.52 740.75 L11.52 769.22 L0 792 L11.52 740.75 Z" class="st2"/>
				</g>
				<g id="shape11-19">
					<title>Sheet.11</title>
					<path d="M11.52 740.75 L11.52 769.22 L0 792 L11.52 740.75 Z" class="st3"/>
					<path d="M11.52 740.75 L11.52 769.22 L0 792" class="st4"/>
				</g>
			</g>
			<g id="shape12-22" transform="translate(5.76,-51.251)">
				<title>Sheet.12</title>
				<path d="M-0 786.31 A5.76 5.69455 0 1 1 11.52 786.31 A5.76 5.69455 0 1 1 -0 786.31 Z" class="st5"/>
			</g>
		</g>
		<g id="group13-24" transform="translate(90.369,-175.199)">
			<title>Lifeline</title>
			<g id="shape14-25">
				<title>Sheet.14</title>
				<path d="M0 506.88 L0 568.86 L0 751.27 L0 792 L0 506.88 Z" class="st2"/>
			</g>
			<g id="shape15-27">
				<title>Sheet.15</title>
				<path d="M0 506.88 L0 568.86 L0 751.27 L0 792 L0 506.88 Z" class="st3"/>
				<path d="M0 506.88 L0 568.86 L0 751.27 L0 792" class="st6"/>
			</g>
		</g>
		<g id="group16-30" transform="translate(141.317,-175.197)">
			<title>Object Lifeline</title>
			<g id="group17-31" transform="translate(-752.948,792) rotate(-90)">
				<title>Sheet.17</title>
				<g id="shape18-32">
					<title>Sheet.18</title>
					<path d="M0 792 L337.4 792 L0 792 Z" class="st2"/>
				</g>
				<g id="shape19-34">
					<title>Sheet.19</title>
					<path d="M0 792 L337.4 792 L0 792 Z" class="st3"/>
					<path d="M0 792 L337.4 792" class="st6"/>
				</g>
			</g>
			<g id="shape20-37" transform="translate(0,-337.399)">
				<title>Object</title>
				<desc>Interface Description Server</desc>
				<rect x="0" y="764.797" width="78.1043" height="27.2035" class="st7"/>
				<text x="4.91" y="776" class="st8"><tspan class="st9">Interface Description</tspan> <tspan x="28.64" dy="1.2em"
							class="st9">Server</tspan></text>			</g>
		</g>
		<g id="group21-42" transform="translate(271.739,-175.199)">
			<title>Object Lifeline.11</title>
			<g id="group22-43" transform="translate(-758.485,792) rotate(-90)">
				<title>Sheet.22</title>
				<g id="shape23-44">
					<title>Sheet.23</title>
					<path d="M0 792 L338.4 792 L0 792 Z" class="st2"/>
				</g>
				<g id="shape24-46">
					<title>Sheet.24</title>
					<path d="M0 792 L338.4 792 L0 792 Z" class="st3"/>
					<path d="M0 792 L338.4 792" class="st6"/>
				</g>
			</g>
			<g id="shape25-49" transform="translate(-1.19904E-14,-338.4)">
				<title>Object</title>
				<desc>Security Manager</desc>
				<rect x="0" y="766.8" width="67.0304" height="25.2" class="st7"/>
				<text x="4.91" y="781.8" class="st8"><tspan class="st9">Security Manager</tspan></text>			</g>
		</g>
		<g id="group26-53" transform="translate(416.169,-175.199)">
			<title>Object Lifeline.17</title>
			<g id="group27-54" transform="translate(-765,792) rotate(-90)">
				<title>Sheet.27</title>
				<g id="shape28-55">
					<title>Sheet.28</title>
					<path d="M0 792 L338.4 792 L0 792 Z" class="st2"/>
				</g>
				<g id="shape29-57">
					<title>Sheet.29</title>
					<path d="M0 792 L338.4 792 L0 792 Z" class="st3"/>
					<path d="M0 792 L338.4 792" class="st6"/>
				</g>
			</g>
			<g id="shape30-60" transform="translate(0,-338.4)">
				<title>Object</title>
				<desc>Application</desc>
				<rect x="0" y="766.8" width="54" height="25.2" class="st7"/>
				<text x="8.57" y="781.8" class="st8"><tspan class="st9">Application</tspan></text>			</g>
		</g>
		<g id="shape31-64" transform="translate(305.254,-423.599)">
			<title>Message (call)</title>
			<desc>GetManifestTemplate()</desc>
			<path d="M0 792 L134.2 792 L134.56 792 L137.92 792" class="st10"/>
			<rect x="30.8079" y="776.598" width="76.2995" height="9.59985" class="st12"/>
			<text x="30.81" y="783.8" class="st8">GetManifestTemplate()</text>		</g>
		<g id="shape32-72" transform="translate(305.254,-405.599)">
			<title>Message (return)</title>
			<desc>manifest template</desc>
			<path d="M0 792 L137.92 792" class="st13"/>
			<rect x="39.0168" y="776.598" width="59.8815" height="9.59985" class="st12"/>
			<text x="39.02" y="783.8" class="st8">manifest template</text>		</g>
		<g id="shape33-80" transform="translate(180.374,-368.628)">
			<title>Message (call).25</title>
			<desc>GetDescriptions(manifest, locale)</desc>
			<path d="M124.88 791.03 L3.72 792 L3.36 792 L0 792" class="st10"/>
			<rect x="8.32773" y="779.728" width="108.248" height="9.59985" class="st12"/>
			<text x="8.33" y="786.93" class="st8">GetDescriptions(manifest, locale)</text>		</g>
		<g id="shape34-87" transform="translate(180.374,-350.598)">
			<title>Message (return).30</title>
			<desc>descriptions</desc>
			<path d="M124.88 791 L0 792" class="st13"/>
			<rect x="42.6573" y="779.698" width="39.5892" height="9.59985" class="st12"/>
			<text x="42.66" y="786.9" class="st8">descriptions</text>		</g>
		<g id="shape35-94" transform="translate(91.814,-297.599)">
			<title>Message (call).31</title>
			<desc>Show descriptions and request approval</desc>
			<path d="M213.44 792 L3.72 792 L3.36 792 L0 792" class="st10"/>
			<rect x="41.5331" y="780.198" width="130.37" height="9.59985" class="st12"/>
			<text x="41.53" y="787.4" class="st8">Show descriptions and request approval</text>		</g>
		<g id="shape36-101" transform="translate(90.374,-279.599)">
			<title>Message (return).28</title>
			<desc>Yes/No</desc>
			<path d="M214.88 792 L0 792" class="st13"/>
			<rect x="95.6978" y="780.198" width="23.4805" height="9.59985" class="st12"/>
			<text x="95.7" y="787.4" class="st8">Yes/No</text>		</g>
		<g id="shape37-108" transform="translate(1097.25,512.401) rotate(90)">
			<title>Message (call) </title>
			<desc>Generate Identity cert</desc>
			<path d="M-0 792 A468 23.4 90 0 1 17.54 788.31 L17.59 788.67 L18.05 792" class="st10"/>
			<rect x="-751.093" y="4.20024" width="72.159" height="9.59985" transform="rotate(-90)" class="st12"/>
			<text x="-751.09" y="11.4" transform="rotate(-90)" class="st8">Generate Identity cert</text>		</g>
		<g id="shape38-115" transform="translate(306,-225)">
			<title>Message (call).30</title>
			<desc>InstallIdentity(cert)</desc>
			<path d="M0 792 L134.2 792 L134.56 792 L137.92 792" class="st10"/>
			<rect x="14.741" y="778.002" width="102.358" height="9.59985" class="st14"/>
			<text x="14.74" y="785.2" class="st8">UpdateIdentity(cert, manifests)</text>		</g>
		<g id="shape39-122" transform="translate(1233.04,567) rotate(90)">
			<title>Message (call) .39</title>
			<desc>Validate and install identity cert</desc>
			<path d="M-0 792 A468 23.4 90 0 1 17.54 788.31 L17.59 788.67 L18.05 792" class="st10"/>
			<rect x="-751.094" y="4.20024" width="103.432" height="9.59985" transform="rotate(-90)" class="st12"/>
			<text x="-751.09" y="11.4" transform="rotate(-90)" class="st8">Validate and install identity cert</text>		</g>
		<g id="shape40-129" transform="translate(303.08,-207)">
			<title>Message (return).40</title>
			<desc>OK</desc>
			<path d="M0 792 L137.92 792" class="st13"/>
			<rect x="64.2313" y="776.598" width="9.45291" height="9.59985" class="st12"/>
			<text x="64.23" y="783.8" class="st8">OK</text>		</g>
		<g id="shape44-136" transform="translate(389.169,-470.399)">
			<title>Message (async.)</title>
			<desc>NotifyConfig</desc>
			<path d="M54 766.8 L0 792" class="st15"/>
			<rect x="7.41572" y="767.429" width="40.6912" height="9.59985" class="st12"/>
			<text x="7.42" y="774.63" class="st8">NotifyConfig</text>		</g>
		<g id="shape45-144" transform="translate(305.249,-459.599)">
			<title>Message (async.).27</title>
			<desc>NotifyConfig arrives</desc>
			<path d="M55.12 781.2 L0 792" class="st15"/>
			<rect x="-4.32561" y="774.765" width="64.4686" height="9.59985" class="st12"/>
			<text x="-4.33" y="781.97" class="st8">NotifyConfig arrives</text>		</g>
		<g id="shape46-151" transform="translate(91.809,-441.599)">
			<title>Message (call).28</title>
			<desc>BuildManifest</desc>
			<path d="M0 792 L208.68 792 L209.04 792 L212.4 792" class="st10"/>
			<rect x="83.5151" y="776.598" width="45.3702" height="9.59985" class="st12"/>
			<text x="83.52" y="783.8" class="st8">BuildManifest</text>		</g>
		<g id="shape47-158" transform="translate(88.929,-189.599)">
			<title>Message (return).29</title>
			<desc>OK</desc>
			<path d="M0 792 L216.32 792" class="st13"/>
			<rect x="103.435" y="776.598" width="9.45291" height="9.59985" class="st14"/>
			<text x="103.44" y="783.8" class="st8">OK</text>		</g>
		<g id="shape48-165" transform="translate(42.649,-493.599)">
			<title>Sheet.48</title>
			<desc>Admin</desc>
			<rect x="0" y="772" width="59.44" height="20" class="st16"/>
			<text x="13.77" y="785.6" class="st17">Admin</text>		</g>
		<g id="shape49-168" transform="translate(1098.04,530.95) rotate(90)">
			<title>Message (call) .49</title>
			<desc>Generate Identity cert</desc>
			<path d="M-0 792 A468 23.4 90 0 1 17.54 788.31 L17.59 788.67 L18.05 792" class="st10"/>
			<rect x="-746.974" y="4.20024" width="63.9209" height="9.59985" transform="rotate(-90)" class="st12"/>
			<text x="-746.97" y="11.4" transform="rotate(-90)" class="st8">Generate manifests</text>		</g>
	</g>
</svg>
