<?xml version="1.0" encoding="UTF-8" standalone="no"?>
<!DOCTYPE svg PUBLIC "-//W3C//DTD SVG 1.1//EN" "http://www.w3.org/Graphics/SVG/1.1/DTD/svg11.dtd">
<!-- Generated by Microsoft Visio, SVG Export claim-a-factory-reset-device-without-out-of-band-registration-data.svg claim-a-factory-reset-device-~1 -->
<svg xmlns="http://www.w3.org/2000/svg" xmlns:xlink="http://www.w3.org/1999/xlink" xmlns:ev="http://www.w3.org/2001/xml-events"
		width="8.5in" height="11in" viewBox="0 0 612 792" xml:space="preserve" color-interpolation-filters="sRGB" class="st19">
	<style type="text/css">
	<![CDATA[
		.st1 {fill:#cdcdcd;stroke:#000000;stroke-linecap:round;stroke-linejoin:round;stroke-width:0.75}
		.st2 {fill:#000000;font-family:Calibri;font-size:0.666664em}
		.st3 {fill:#ffffff;stroke:#000000;stroke-linecap:round;stroke-linejoin:round;stroke-width:0.75}
		.st4 {font-size:1em}
		.st5 {fill:none;stroke:none;stroke-width:1}
		.st6 {fill:none}
		.st7 {stroke:#000000;stroke-dasharray:3.36,2.4;stroke-linecap:round;stroke-linejoin:round;stroke-width:0.48}
		.st8 {fill:#ffffff;stroke:#000000;stroke-linecap:round;stroke-linejoin:round;stroke-width:0.48}
		.st9 {font-size:1em;text-decoration:underline}
		.st10 {fill:#e8eef7;stroke:#000000;stroke-linecap:round;stroke-linejoin:round;stroke-width:0.24}
		.st11 {fill:#000000;font-family:Calibri;font-size:0.75em}
		.st12 {marker-end:url(#mrkr2-65);stroke:#000000;stroke-linecap:round;stroke-linejoin:round;stroke-width:0.48}
		.st13 {fill:#000000;fill-opacity:1;stroke:#000000;stroke-opacity:1;stroke-width:0.12903225806452}
		.st14 {fill:#ffffff;stroke:none;stroke-linecap:butt;stroke-width:7.2}
		.st15 {marker-start:url(#mrkr1-80);stroke:#000000;stroke-dasharray:3.36,2.4;stroke-linecap:round;stroke-linejoin:round;stroke-width:0.48}
		.st16 {marker-end:url(#mrkr1-137);stroke:#000000;stroke-linecap:round;stroke-linejoin:round;stroke-width:0.48}
		.st17 {fill:#ffffff;stroke:#000000;stroke-linecap:round;stroke-linejoin:round;stroke-width:0.24}
		.st18 {fill:none;stroke:none;stroke-linecap:round;stroke-linejoin:round;stroke-width:0.75}
		.st19 {fill:none;fill-rule:evenodd;font-size:12px;overflow:visible;stroke-linecap:square;stroke-miterlimit:3}
	]]>
	</style>

	<defs id="Markers">
		<g id="lend2">
			<path d="M 1 1 L 0 0 L 1 -1 L 1 1 " style="stroke:none"/>
		</g>
		<marker id="mrkr2-65" class="st13" refX="-0" orient="auto" markerUnits="strokeWidth" overflow="visible">
			<use xlink:href="#lend2" transform="scale(-7.75,-7.75) "/>
		</marker>
		<g id="lend1">
			<path d="M 1 -1 L 0 0 L 1 1 " style="stroke-linecap:round;stroke-linejoin:round;fill:none"/>
		</g>
		<marker id="mrkr1-80" class="st13" orient="auto" markerUnits="strokeWidth" overflow="visible">
			<use xlink:href="#lend1" transform="scale(7.75) "/>
		</marker>
		<marker id="mrkr1-137" class="st13" orient="auto" markerUnits="strokeWidth" overflow="visible">
			<use xlink:href="#lend1" transform="scale(-7.75,-7.75) "/>
		</marker>
	</defs>
	<g>
		<title>claim-a-factory-reset-device-without-out-of-band-registration-data-2</title>
		<g id="group1-1" transform="translate(49.316,-450.038)">
			<title>Entity.33</title>
			<g id="shape2-2" transform="translate(0,-65.605)">
				<title>Sheet.2</title>
				<desc>Membership Cert</desc>
				<rect x="0" y="774.396" width="100.495" height="17.6036" class="st1"/>
				<text x="21.71" y="785.6" class="st2">Membership Cert</text>			</g>
			<g id="shape3-5">
				<title>Sheet.3</title>
				<desc>Issuer:ca Subject: user SubjectPubKey: userPubKey CA: true Gr...</desc>
				<path d="M0 792 L100.49 792 L100.49 726.4 L0 726.4 L0 792 Z" class="st3"/>
				<text x="3.98" y="737.6" class="st2">Issuer:ca <tspan x="3.98" dy="1.2em" class="st4">Subject: user </tspan><tspan
							x="3.98" dy="1.2em" class="st4">SubjectPubKey: userPubKey </tspan><tspan x="3.98" dy="1.2em"
							class="st4">CA: true </tspan><tspan x="3.98" dy="1.2em" class="st4">Group: adminGUID </tspan><tspan
							x="3.98" dy="1.2em" class="st4">AKI: caPubKeyHash</tspan></text>			</g>
		</g>
		<g id="group4-13" transform="translate(350.661,-129.996)">
			<title>Entity.24</title>
			<g id="shape5-14" transform="translate(-3.19744E-14,-46.4051)">
				<title>Sheet.5</title>
				<desc>Permission Entry</desc>
				<rect x="0" y="774.396" width="111.343" height="17.6036" class="st1"/>
				<text x="28.35" y="785.6" class="st2">Permission Entry</text>			</g>
			<g id="shape6-17">
				<title>Sheet.6</title>
				<desc>PeerType: WITH_MEMBERSHIP PubKey: caPubKey Group: adminGUID I...</desc>
				<path d="M0 792 L111.34 792 L111.34 745.6 L0 745.6 L0 792 Z" class="st3"/>
				<text x="4" y="756.8" class="st2">PeerType: WITH_MEMBERSHIP <tspan x="4" dy="1.2em" class="st4">PubKey: caPubKey </tspan><tspan
							x="4" dy="1.2em" class="st4">Group: adminGUID </tspan><tspan x="4" dy="1.2em" class="st4">Ifn: *</tspan></text>			</g>
		</g>
		<g id="group7-23" transform="translate(125.982,-95.636)">
			<title>Object Lifeline</title>
			<g id="group8-24" transform="translate(-759.389,792) rotate(-90)">
				<title>Sheet.8</title>
				<g id="shape9-25">
					<title>Sheet.9</title>
					<path d="M0 792 L521.41 792 L0 792 Z" class="st5"/>
				</g>
				<g id="group10-27">
					<title>Sheet.10</title>
					<g id="shape11-28">
						<title>Sheet.11</title>
						<path d="M0 792 L521.41 792 L0 792 Z" class="st5"/>
					</g>
					<g id="group12-30">
						<title>Sheet.12</title>
						<g id="shape13-31">
							<title>Sheet.13</title>
							<path d="M0 792 L521.41 792 L0 792 Z" class="st5"/>
						</g>
						<g id="shape14-33">
							<title>Sheet.14</title>
							<path d="M0 792 L521.41 792 L0 792 Z" class="st6"/>
							<path d="M0 792 L521.41 792" class="st7"/>
						</g>
					</g>
				</g>
			</g>
			<g id="shape15-36" transform="translate(0,-521.41)">
				<title>Object</title>
				<desc>SecurityManager</desc>
				<rect x="0" y="766.8" width="65.2218" height="25.2" class="st8"/>
				<text x="4.91" y="781.8" class="st2"><tspan class="st9">SecurityManager</tspan></text>			</g>
		</g>
		<g id="group16-40" transform="translate(314.982,-95.636)">
			<title>Object Lifeline.8</title>
			<g id="group17-41" transform="translate(-765,792) rotate(-90)">
				<title>Sheet.17</title>
				<g id="shape18-42">
					<title>Sheet.18</title>
					<path d="M0 792 L521.41 792 L0 792 Z" class="st5"/>
				</g>
				<g id="group19-44">
					<title>Sheet.19</title>
					<g id="shape20-45">
						<title>Sheet.20</title>
						<path d="M0 792 L521.41 792 L0 792 Z" class="st5"/>
					</g>
					<g id="group21-47">
						<title>Sheet.21</title>
						<g id="shape22-48">
							<title>Sheet.22</title>
							<path d="M0 792 L521.41 792 L0 792 Z" class="st5"/>
						</g>
						<g id="shape23-50">
							<title>Sheet.23</title>
							<path d="M0 792 L521.41 792 L0 792 Z" class="st6"/>
							<path d="M0 792 L521.41 792" class="st7"/>
						</g>
					</g>
				</g>
			</g>
			<g id="shape24-53" transform="translate(0,-521.41)">
				<title>Object</title>
				<desc>Application</desc>
				<rect x="0" y="766.8" width="54" height="25.2" class="st8"/>
				<text x="8.57" y="781.8" class="st2"><tspan class="st9">Application</tspan></text>			</g>
		</g>
		<g id="shape25-57" transform="translate(158.593,-409.796)">
			<title>Double flexi-arrow.24</title>
			<desc>Establish ECDHE_NULL session</desc>
			<path d="M0 782.75 L24.48 773.5 L22.5 773.75 L160.89 773.75 L158.91 773.5 L183.39 782.75 L158.91 792 L160.89 791.75 L22.5
						 791.75 L24.48 792 L0 782.75 Z" class="st10"/>
			<text x="36.01" y="785.45" class="st11">Establish ECDHE_NULL session</text>		</g>
		<g id="shape26-60" transform="translate(158.593,-371.204)">
			<title>Message (call)</title>
			<desc>Claim(caPubKey, caPubKeyHash, adminGUID, caPubKey, caPubKeyHa...</desc>
			<path d="M0 792 L179.67 792 L180.03 792 L183.39 792" class="st12"/>
			<rect x="-62.3629" y="776.598" width="312.317" height="9.59985" class="st14"/>
			<text x="-62.36" y="783.8" class="st2">Claim(caPubKey, caPubKeyHash, adminGUID, caPubKey, caPubKeyHash, IdentityCert, manifests)</text>		</g>
		<g id="shape27-68" transform="translate(1133.98,420.796) rotate(90)">
			<title>Message (call) </title>
			<desc>already claimed?</desc>
			<path d="M-0 792 A468 23.4 90 0 1 17.54 788.31 L17.59 788.67 L18.05 792" class="st12"/>
			<rect x="-751.094" y="4.20024" width="55.0695" height="9.59985" transform="rotate(-90)" class="st14"/>
			<text x="-751.09" y="11.4" transform="rotate(-90)" class="st2">already claimed?</text>		</g>
		<g id="shape28-75" transform="translate(158.593,-353.204)">
			<title>Message (return)</title>
			<desc>Permisison denied</desc>
			<path d="M0 792 L183.39 792" class="st15"/>
			<rect x="61.7655" y="776.598" width="59.8585" height="9.59985" class="st14"/>
			<text x="61.77" y="783.8" class="st2">Permisison denied</text>		</g>
		<g id="shape29-83" transform="translate(158.593,-281.204)">
			<title>Message (return).19</title>
			<desc>appPubKey</desc>
			<path d="M0 792 L183.39 792" class="st15"/>
			<rect x="73.4272" y="776.598" width="36.5348" height="9.59985" class="st14"/>
			<text x="73.43" y="783.8" class="st2">appPubKey</text>		</g>
		<g id="shape30-90" transform="translate(1133.98,438.796) rotate(90)">
			<title>Message (call) .20</title>
			<desc>store certificate authority</desc>
			<path d="M-0 792 A468 23.4 90 0 1 17.54 788.31 L17.59 788.67 L18.05 792" class="st12"/>
			<rect x="-751.094" y="4.20024" width="83.2956" height="9.59985" transform="rotate(-90)" class="st14"/>
			<text x="-751.09" y="11.4" transform="rotate(-90)" class="st2">store certificate authority</text>		</g>
		<g id="shape31-97" transform="translate(950.593,246.954) rotate(90)">
			<title>Message (call) .23</title>
			<desc>From signal Application.State find claimable app and its publ...</desc>
			<path d="M-0 792 A468 23.4 90 0 1 17.54 788.31 L17.59 788.67 L18.05 792" class="st12"/>
			<rect x="-751.094" y="4.20024" width="214.512" height="9.59985" transform="rotate(-90)" class="st14"/>
			<text x="-751.09" y="11.4" transform="rotate(-90)" class="st2">From signal Application.State find claimable app and its public key</text>		</g>
		<g id="shape32-104" transform="translate(1133.98,474.796) rotate(90)">
			<title>Message (call) .24</title>
			<desc>store identity cert</desc>
			<path d="M-0 792 A468 23.4 90 0 1 17.54 788.31 L17.59 788.67 L18.05 792" class="st12"/>
			<rect x="-751.094" y="4.20024" width="58.2841" height="9.59985" transform="rotate(-90)" class="st14"/>
			<text x="-751.09" y="11.4" transform="rotate(-90)" class="st2">store identity cert</text>		</g>
		<g id="shape33-111" transform="translate(1133.98,192.954) rotate(90)">
			<title>Message (call) .22</title>
			<desc>generate DSA key pair appPubKey, appPrivKey</desc>
			<path d="M-0 792 A468 23.4 90 0 1 17.54 788.31 L17.59 788.67 L18.05 792" class="st12"/>
			<rect x="-751.094" y="4.20024" width="150.276" height="9.59985" transform="rotate(-90)" class="st14"/>
			<text x="-751.09" y="11.4" transform="rotate(-90)" class="st2">generate DSA key pair appPubKey, appPrivKey</text>		</g>
		<g id="shape34-118" transform="translate(950.593,283.475) rotate(90)">
			<title>Message (call) .38</title>
			<desc>generate Identity Cert for app to be claimed</desc>
			<path d="M-0 792 A468 23.4 90 0 1 17.54 788.31 L17.59 788.67 L18.05 792" class="st12"/>
			<rect x="-752.002" y="4.20024" width="96.3581" height="9.59985" transform="rotate(-90)" class="st14"/>
			<text x="-752" y="11.4" transform="rotate(-90)" class="st2">Request identity cert from CA</text>		</g>
		<g id="shape35-125" transform="translate(1133.98,456.796) rotate(90)">
			<title>Message (call) .39</title>
			<desc>store admin group</desc>
			<path d="M-0 792 A468 23.4 90 0 1 17.54 788.31 L17.59 788.67 L18.05 792" class="st12"/>
			<rect x="-751.094" y="4.20024" width="60.0581" height="9.59985" transform="rotate(-90)" class="st14"/>
			<text x="-751.09" y="11.4" transform="rotate(-90)" class="st2">store admin group</text>		</g>
		<g id="shape36-132" transform="translate(287.982,-561.045)">
			<title>Message (async.)</title>
			<desc>Emit signal Application.State</desc>
			<path d="M54 790 L0 792" class="st16"/>
			<rect x="-19.3113" y="779.197" width="92.7559" height="9.59985" class="st14"/>
			<text x="-19.31" y="786.4" class="st2">Emit signal Application.State</text>		</g>
		<g id="group37-140" transform="translate(190.213,-434.438)">
			<title>Note</title>
			<g id="shape38-141">
				<title>Name</title>
				<desc>In this example ECHDE_NULL is an acceptable key exchange</desc>
				<path d="M77.59 756.4 L68.59 745.6 L68.59 756.4 L77.59 756.4 ZM0 792 L77.59 792 L77.59 756.4 L68.59 756.4 L68.59
							 745.6 L0 745.6 L0 792 Z" class="st17"/>
				<text x="3.99" y="756.8" class="st2">In this example <tspan x="3.99" dy="1.2em" class="st4">ECHDE_NULL is  </tspan><tspan
							x="3.99" dy="1.2em" class="st4">an acceptable </tspan><tspan x="3.99" dy="1.2em" class="st4">key exchange</tspan></text>			</g>
		</g>
		<g id="group39-147" transform="translate(49.316,-538.034)">
			<title>Entity.53</title>
			<g id="shape40-148" transform="translate(0,-56.005)">
				<title>Sheet.40</title>
				<desc>Identity Cert</desc>
				<rect x="0" y="774.396" width="100.495" height="17.6036" class="st1"/>
				<text x="29.88" y="785.6" class="st2">Identity Cert</text>			</g>
			<g id="shape41-151">
				<title>Sheet.41</title>
				<desc>Issuer:ca Subject: user SubjectPubKey: userPubKey SubjectAltN...</desc>
				<path d="M0 792 L100.49 792 L100.49 736 L0 736 L0 792 Z" class="st3"/>
				<text x="3.98" y="747.2" class="st2">Issuer:ca <tspan x="3.98" dy="1.2em" class="st4">Subject: user </tspan><tspan
							x="3.98" dy="1.2em" class="st4">SubjectPubKey: userPubKey </tspan><tspan x="3.98" dy="1.2em"
							class="st4">SubjectAltName: userAlias </tspan><tspan x="3.98" dy="1.2em" class="st4">AKI: caPubKeyHash</tspan></text>			</g>
		</g>
		<g id="group42-158" transform="translate(350.661,-201.399)">
			<title>Entity.20</title>
			<g id="shape43-159" transform="translate(2.79776E-13,-56.005)">
				<title>Sheet.43</title>
				<desc>Identity Cert</desc>
				<rect x="0" y="774.396" width="102.299" height="17.6036" class="st1"/>
				<text x="30.78" y="785.6" class="st2">Identity Cert</text>			</g>
			<g id="shape44-162">
				<title>Sheet.44</title>
				<desc>Issuer:user Subject: app SubjectPubKey: appPubKey SubjectAltN...</desc>
				<path d="M0 792 L102.3 792 L102.3 736 L0 736 L0 792 Z" class="st3"/>
				<text x="4" y="747.2" class="st2">Issuer:ca <tspan x="4" dy="1.2em" class="st4">Subject: app </tspan><tspan x="4"
							dy="1.2em" class="st4">SubjectPubKey: appPubKey </tspan><tspan x="4" dy="1.2em" class="st4">SubjectAltName: controller1 </tspan><tspan
							x="4" dy="1.2em" class="st4">AKI:caPubKeyHash</tspan></text>			</g>
		</g>
		<g id="group45-169" transform="translate(467.739,-158.796)">
			<title>Entity.2</title>
			<g id="shape46-170" transform="translate(-3.9968E-14,-17.6052)">
				<title>Sheet.46</title>
				<desc>Manifest Entry</desc>
				<rect x="0" y="774.396" width="96.2219" height="17.6036" class="st1"/>
				<text x="24.14" y="785.6" class="st2">Manifest Entry</text>			</g>
			<g id="shape47-173">
				<title>Sheet.47</title>
				<desc>Ifn:Control.VolumeControl</desc>
				<path d="M0 792 L96.22 792 L96.22 774.4 L0 774.4 L0 792 Z" class="st3"/>
				<text x="3.98" y="785.6" class="st2">Ifn:Control.VolumeControl</text>			</g>
		</g>
		<g id="shape48-176" transform="translate(1133.98,492.796) rotate(90)">
			<title>Message (call) .48</title>
			<desc>store manifest</desc>
			<path d="M-0 792 A468 23.4 90 0 1 17.54 788.31 L17.59 788.67 L18.05 792" class="st12"/>
			<rect x="-749.603" y="4.20024" width="50.2259" height="9.59985" transform="rotate(-90)" class="st14"/>
			<text x="-749.6" y="11.4" transform="rotate(-90)" class="st2">store manifests</text>		</g>
		<g id="shape49-183" transform="translate(950.593,265.45) rotate(90)">
			<title>Message (call) .67</title>
			<desc>generate manifest</desc>
			<path d="M-0 792 A468 23.4 90 0 1 17.54 788.31 L17.59 788.67 L18.05 792" class="st12"/>
			<rect x="-747.552" y="4.20024" width="67.4912" height="9.59985" transform="rotate(-90)" class="st14"/>
			<text x="-747.55" y="11.4" transform="rotate(-90)" class="st2">generate manifest(s)</text>		</g>
		<g id="group50-190" transform="translate(459.15,-219.999)">
			<title>Entity.43</title>
			<g id="shape51-191" transform="translate(0,-37.4055)">
				<title>Sheet.51</title>
				<desc>Permission Entry</desc>
				<rect x="0" y="774.396" width="122.811" height="17.6036" class="st1"/>
				<text x="34.08" y="785.6" class="st2">Permission Entry</text>			</g>
			<g id="shape52-194">
				<title>Sheet.52</title>
				<desc>PeerType: WITH_MEMBERSHIP PubKey: caPubKey Group: adminGUID I...</desc>
				<path d="M0 792 L122.81 792 L122.81 754.6 L0 754.6 L0 792 Z" class="st3"/>
				<text x="4" y="765.8" class="st2">PeerType:  <tspan x="11.2" dy="1.2em" class="st4">FROM_CERTIFICATE_AUTHORITY </tspan><tspan
							x="4" dy="1.2em" class="st4">PubKey: caPubKey</tspan></text>			</g>
		</g>
		<g id="group53-199" transform="translate(27,-391.5)">
			<title>Entity.44</title>
			<g id="shape54-200" transform="translate(0,-36.3976)">
				<title>Sheet.54</title>
				<desc>Permission Entry</desc>
				<rect x="0" y="774.396" width="122.811" height="17.6036" class="st1"/>
				<text x="34.08" y="785.6" class="st2">Permission Entry</text>			</g>
			<g id="shape55-203">
				<title>Sheet.55</title>
				<desc>PeerType: WITH_MEMBERSHIP PubKey: caPubKey Group: adminGUID I...</desc>
				<path d="M0 792 L122.81 792 L122.81 754.6 L0 754.6 L0 792 Z" class="st3"/>
				<text x="4" y="765.8" class="st2">PeerType:  <tspan x="11.2" dy="1.2em" class="st4">FROM_CERTIFICATE_AUTHORITY </tspan><tspan
							x="4" dy="1.2em" class="st4">PubKey: caPubKey</tspan></text>			</g>
		</g>
		<g id="shape59-208" transform="translate(461,-440)">
			<title>Sheet.59</title>
			<rect x="0" y="772" width="152" height="20" class="st18"/>
		</g>
	</g>
</svg>
