<?xml version="1.0" encoding="UTF-8" standalone="no"?>
<!DOCTYPE svg PUBLIC "-//W3C//DTD SVG 1.1//EN" "http://www.w3.org/Graphics/SVG/1.1/DTD/svg11.dtd">
<!-- Generated by Microsoft Visio, SVG Export claiming-a-factory-reset-device-using-out-of-band-registration-data.svg claiming-a-factory-reset-device -->
<svg xmlns="http://www.w3.org/2000/svg" xmlns:xlink="http://www.w3.org/1999/xlink" xmlns:ev="http://www.w3.org/2001/xml-events"
		width="8.5in" height="11in" viewBox="0 0 612 792" xml:space="preserve" color-interpolation-filters="sRGB" class="st19">
	<style type="text/css">
	<![CDATA[
		.st1 {fill:#e8eef7;stroke:#000000;stroke-linecap:round;stroke-linejoin:round;stroke-width:0.24}
		.st2 {fill:#000000;font-family:Calibri;font-size:0.75em}
		.st3 {fill:#ffffff;stroke:#000000;stroke-linecap:round;stroke-linejoin:round;stroke-width:0.24}
		.st4 {fill:#000000;font-family:Calibri;font-size:0.666664em}
		.st5 {font-size:1em}
		.st6 {fill:#cdcdcd;stroke:#000000;stroke-linecap:round;stroke-linejoin:round;stroke-width:0.75}
		.st7 {fill:#ffffff;stroke:#000000;stroke-linecap:round;stroke-linejoin:round;stroke-width:0.75}
		.st8 {fill:none;stroke:none;stroke-width:1}
		.st9 {fill:none}
		.st10 {stroke:#000000;stroke-dasharray:3.36,2.4;stroke-linecap:round;stroke-linejoin:round;stroke-width:0.48}
		.st11 {fill:#ffffff;stroke:#000000;stroke-linecap:round;stroke-linejoin:round;stroke-width:0.48}
		.st12 {font-size:1em;text-decoration:underline}
		.st13 {marker-end:url(#mrkr2-70);stroke:#000000;stroke-linecap:round;stroke-linejoin:round;stroke-width:0.48}
		.st14 {fill:#000000;fill-opacity:1;stroke:#000000;stroke-opacity:1;stroke-width:0.12903225806452}
		.st15 {fill:#ffffff;stroke:none;stroke-linecap:butt;stroke-width:7.2}
		.st16 {marker-start:url(#mrkr1-85);stroke:#000000;stroke-dasharray:3.36,2.4;stroke-linecap:round;stroke-linejoin:round;stroke-width:0.48}
		.st17 {fill:#ffffff;stroke:none;stroke-linecap:butt}
		.st18 {marker-end:url(#mrkr1-135);stroke:#000000;stroke-linecap:round;stroke-linejoin:round;stroke-width:0.48}
		.st19 {fill:none;fill-rule:evenodd;font-size:12px;overflow:visible;stroke-linecap:square;stroke-miterlimit:3}
	]]>
	</style>

	<defs id="Markers">
		<g id="lend2">
			<path d="M 1 1 L 0 0 L 1 -1 L 1 1 " style="stroke:none"/>
		</g>
		<marker id="mrkr2-70" class="st14" refX="-0" orient="auto" markerUnits="strokeWidth" overflow="visible">
			<use xlink:href="#lend2" transform="scale(-7.75,-7.75) "/>
		</marker>
		<g id="lend1">
			<path d="M 1 -1 L 0 0 L 1 1 " style="stroke-linecap:round;stroke-linejoin:round;fill:none"/>
		</g>
		<marker id="mrkr1-85" class="st14" orient="auto" markerUnits="strokeWidth" overflow="visible">
			<use xlink:href="#lend1" transform="scale(7.75) "/>
		</marker>
		<marker id="mrkr1-135" class="st14" orient="auto" markerUnits="strokeWidth" overflow="visible">
			<use xlink:href="#lend1" transform="scale(-7.75,-7.75) "/>
		</marker>
	</defs>
	<g>
		<title>claiming-a-factory-reset-device-using-out-of-band-registration-data</title>
		<g id="shape1-1" transform="translate(163.226,-428.094)">
			<title>Double flexi-arrow.24</title>
			<desc>Establish ECDHE_PSK session using OOB key</desc>
			<path d="M0 782.75 L24.48 773.5 L22.5 773.75 L160.89 773.75 L158.91 773.5 L183.39 782.75 L158.91 792 L160.89 791.75 L22.5
						 791.75 L24.48 792 L0 782.75 Z" class="st1"/>
			<text x="11.44" y="785.45" class="st2">Establish ECDHE_PSK session using OOB key</text>		</g>
		<g id="group2-4" transform="translate(184.347,-451.744)">
			<title>Note</title>
			<g id="shape3-5">
				<title>Name</title>
				<desc>In this example ECHDE_PSK is an acceptable key exchange</desc>
				<path d="M121.81 766.8 L112.81 756 L112.81 766.8 L121.81 766.8 ZM0 792 L121.81 792 L121.81 766.8 L112.81 766.8 L112.81
							 756 L0 756 L0 792 Z" class="st3"/>
				<text x="3.98" y="771.6" class="st4">In this example ECHDE_PSK <tspan x="3.98" dy="1.2em" class="st5">is an acceptable key exchange</tspan></text>			</g>
		</g>
		<g id="group4-9" transform="translate(53.9491,-450.335)">
			<title>Entity.33</title>
			<g id="shape5-10" transform="translate(0,-65.605)">
				<title>Sheet.5</title>
				<desc>Membership Cert</desc>
				<rect x="0" y="774.396" width="100.495" height="17.6036" class="st6"/>
				<text x="21.71" y="785.6" class="st4">Membership Cert</text>			</g>
			<g id="shape6-13">
				<title>Sheet.6</title>
				<desc>Issuer:ca Subject: user SubjectPubKey: userPubKey CA: true Gr...</desc>
				<path d="M0 792 L100.49 792 L100.49 726.4 L0 726.4 L0 792 Z" class="st7"/>
				<text x="3.98" y="737.6" class="st4">Issuer:ca <tspan x="3.98" dy="1.2em" class="st5">Subject: user </tspan><tspan
							x="3.98" dy="1.2em" class="st5">SubjectPubKey: userPubKey </tspan><tspan x="3.98" dy="1.2em"
							class="st5">CA: true </tspan><tspan x="3.98" dy="1.2em" class="st5">Group: adminGUID </tspan><tspan
							x="3.98" dy="1.2em" class="st5">AKI: caPubKeyHash</tspan></text>			</g>
		</g>
		<g id="group7-21" transform="translate(356.852,-130.446)">
			<title>Entity.24</title>
			<g id="shape8-22" transform="translate(-3.19744E-14,-46.4051)">
				<title>Sheet.8</title>
				<desc>Permission Entry</desc>
				<rect x="0" y="774.396" width="111.343" height="17.6036" class="st6"/>
				<text x="28.35" y="785.6" class="st4">Permission Entry</text>			</g>
			<g id="shape9-25">
				<title>Sheet.9</title>
				<desc>PeerType: WITH_MEMBERSHIP PubKey: caPubKey Group: adminGUID I...</desc>
				<path d="M0 792 L111.34 792 L111.34 745.6 L0 745.6 L0 792 Z" class="st7"/>
				<text x="4" y="756.8" class="st4">PeerType: WITH_MEMBERSHIP <tspan x="4" dy="1.2em" class="st5">PubKey: caPubKey </tspan><tspan
							x="4" dy="1.2em" class="st5">Group: adminGUID </tspan><tspan x="4" dy="1.2em" class="st5">Ifn: *</tspan></text>			</g>
		</g>
		<g id="group10-31" transform="translate(130.615,-95.934)">
			<title>Object Lifeline</title>
			<g id="group11-32" transform="translate(-759.389,792) rotate(-90)">
				<title>Sheet.11</title>
				<g id="shape12-33">
					<title>Sheet.12</title>
					<path d="M0 792 L521.41 792 L0 792 Z" class="st8"/>
				</g>
				<g id="group13-35">
					<title>Sheet.13</title>
					<g id="shape14-36">
						<title>Sheet.14</title>
						<path d="M0 792 L521.41 792 L0 792 Z" class="st8"/>
					</g>
					<g id="group15-38">
						<title>Sheet.15</title>
						<g id="shape16-39">
							<title>Sheet.16</title>
							<path d="M0 792 L521.41 792 L0 792 Z" class="st8"/>
						</g>
						<g id="shape17-41">
							<title>Sheet.17</title>
							<path d="M0 792 L521.41 792 L0 792 Z" class="st9"/>
							<path d="M0 792 L521.41 792" class="st10"/>
						</g>
					</g>
				</g>
			</g>
			<g id="shape18-44" transform="translate(0,-521.41)">
				<title>Object</title>
				<desc>SecurityManager</desc>
				<rect x="0" y="766.8" width="65.2218" height="25.2" class="st11"/>
				<text x="4.91" y="781.8" class="st4"><tspan class="st12">SecurityManager</tspan></text>			</g>
		</g>
		<g id="group19-48" transform="translate(319.616,-95.934)">
			<title>Object Lifeline.8</title>
			<g id="group20-49" transform="translate(-765,792) rotate(-90)">
				<title>Sheet.20</title>
				<g id="shape21-50">
					<title>Sheet.21</title>
					<path d="M0 792 L521.41 792 L0 792 Z" class="st8"/>
				</g>
				<g id="group22-52">
					<title>Sheet.22</title>
					<g id="shape23-53">
						<title>Sheet.23</title>
						<path d="M0 792 L521.41 792 L0 792 Z" class="st8"/>
					</g>
					<g id="group24-55">
						<title>Sheet.24</title>
						<g id="shape25-56">
							<title>Sheet.25</title>
							<path d="M0 792 L521.41 792 L0 792 Z" class="st8"/>
						</g>
						<g id="shape26-58">
							<title>Sheet.26</title>
							<path d="M0 792 L521.41 792 L0 792 Z" class="st9"/>
							<path d="M0 792 L521.41 792" class="st10"/>
						</g>
					</g>
				</g>
			</g>
			<g id="shape27-61" transform="translate(0,-521.41)">
				<title>Object</title>
				<desc>Application</desc>
				<rect x="0" y="766.8" width="54" height="25.2" class="st11"/>
				<text x="8.57" y="781.8" class="st4"><tspan class="st12">Application</tspan></text>			</g>
		</g>
		<g id="shape28-65" transform="translate(163.226,-371.25)">
			<title>Message (call)</title>
			<desc>Claim(caPubKey, caPubKeyHash, adminGUID, caPubKey, caPubKeyHa...</desc>
			<path d="M0 792 L179.67 792 L180.03 792 L183.39 792" class="st13"/>
			<rect x="-60.1794" y="776.598" width="312.317" height="9.59985" class="st15"/>
			<text x="-60.18" y="783.8" class="st4">Claim(caPubKey, caPubKeyHash, adminGUID, caPubKey, caPubKeyHash, IdentityCert, manifests)</text>		</g>
		<g id="shape29-73" transform="translate(1138.61,420.75) rotate(90)">
			<title>Message (call) </title>
			<desc>already claimed?</desc>
			<path d="M-0 792 A468 23.4 90 0 1 17.54 788.31 L17.59 788.67 L18.05 792" class="st13"/>
			<rect x="-751.094" y="4.20024" width="55.0695" height="9.59985" transform="rotate(-90)" class="st15"/>
			<text x="-751.09" y="11.4" transform="rotate(-90)" class="st4">already claimed?</text>		</g>
		<g id="shape30-80" transform="translate(163.226,-353.25)">
			<title>Message (return)</title>
			<desc>Permisison denied</desc>
			<path d="M0 792 L183.39 792" class="st16"/>
			<rect x="61.7655" y="776.598" width="59.8585" height="9.59985" class="st17"/>
			<text x="61.77" y="783.8" class="st4">Permisison denied</text>		</g>
		<g id="shape31-88" transform="translate(163.226,-281.25)">
			<title>Message (return).19</title>
			<desc>appPubKey</desc>
			<path d="M0 792 L183.39 792" class="st16"/>
			<rect x="73.4272" y="776.598" width="36.5348" height="9.59985" class="st15"/>
			<text x="73.43" y="783.8" class="st4">appPubKey</text>		</g>
		<g id="shape32-95" transform="translate(1138.61,438.75) rotate(90)">
			<title>Message (call) .20</title>
			<desc>store certificate authority</desc>
			<path d="M-0 792 A468 23.4 90 0 1 17.54 788.31 L17.59 788.67 L18.05 792" class="st13"/>
			<rect x="-751.094" y="4.20024" width="83.2956" height="9.59985" transform="rotate(-90)" class="st17"/>
			<text x="-751.09" y="11.4" transform="rotate(-90)" class="st4">store certificate authority</text>		</g>
		<g id="shape33-102" transform="translate(955.226,246.656) rotate(90)">
			<title>Message (call) .23</title>
			<desc>From signal Application.State find claimable app and its publ...</desc>
			<path d="M-0 792 A468 23.4 90 0 1 17.54 788.31 L17.59 788.67 L18.05 792" class="st13"/>
			<rect x="-751.094" y="4.20024" width="214.512" height="9.59985" transform="rotate(-90)" class="st17"/>
			<text x="-751.09" y="11.4" transform="rotate(-90)" class="st4">From signal Application.State find claimable app and its public key</text>		</g>
		<g id="shape34-109" transform="translate(1138.61,474.75) rotate(90)">
			<title>Message (call) .24</title>
			<desc>store identity cert</desc>
			<path d="M-0 792 A468 23.4 90 0 1 17.54 788.31 L17.59 788.67 L18.05 792" class="st13"/>
			<rect x="-751.094" y="4.20024" width="58.2841" height="9.59985" transform="rotate(-90)" class="st15"/>
			<text x="-751.09" y="11.4" transform="rotate(-90)" class="st4">store identity cert</text>		</g>
		<g id="shape35-116" transform="translate(1138.61,192.656) rotate(90)">
			<title>Message (call) .22</title>
			<desc>generate DSA key pair appPubKey, appPrivKey</desc>
			<path d="M-0 792 A468 23.4 90 0 1 17.54 788.31 L17.59 788.67 L18.05 792" class="st13"/>
			<rect x="-751.094" y="4.20024" width="150.276" height="9.59985" transform="rotate(-90)" class="st15"/>
			<text x="-751.09" y="11.4" transform="rotate(-90)" class="st4">generate DSA key pair appPubKey, appPrivKey</text>		</g>
		<g id="shape36-123" transform="translate(1138.61,456.75) rotate(90)">
			<title>Message (call) .39</title>
			<desc>store admin group</desc>
			<path d="M-0 792 A468 23.4 90 0 1 17.54 788.31 L17.59 788.67 L18.05 792" class="st13"/>
			<rect x="-751.094" y="4.20024" width="60.0581" height="9.59985" transform="rotate(-90)" class="st15"/>
			<text x="-751.09" y="11.4" transform="rotate(-90)" class="st4">store admin group</text>		</g>
		<g id="shape37-130" transform="translate(292.616,-561.342)">
			<title>Message (async.)</title>
			<desc>Emit signal Application.State</desc>
			<path d="M54 790 L0 792" class="st18"/>
			<rect x="-19.3113" y="779.197" width="92.7559" height="9.59985" class="st15"/>
			<text x="-19.31" y="786.4" class="st4">Emit signal Application.State</text>		</g>
		<g id="group38-138" transform="translate(53.9491,-538.331)">
			<title>Entity.53</title>
			<g id="shape39-139" transform="translate(0,-56.005)">
				<title>Sheet.39</title>
				<desc>Identity Cert</desc>
				<rect x="0" y="774.396" width="100.495" height="17.6036" class="st6"/>
				<text x="29.88" y="785.6" class="st4">Identity Cert</text>			</g>
			<g id="shape40-142">
				<title>Sheet.40</title>
				<desc>Issuer:ca Subject: user SubjectPubKey: userPubKey SubjectAltN...</desc>
				<path d="M0 792 L100.49 792 L100.49 736 L0 736 L0 792 Z" class="st7"/>
				<text x="3.98" y="747.2" class="st4">Issuer:ca <tspan x="3.98" dy="1.2em" class="st5">Subject: user </tspan><tspan
							x="3.98" dy="1.2em" class="st5">SubjectPubKey: userPubKey </tspan><tspan x="3.98" dy="1.2em"
							class="st5">SubjectAltName: userAlias </tspan><tspan x="3.98" dy="1.2em" class="st5">AKI: caPubKeyHash</tspan></text>			</g>
		</g>
		<g id="group41-149" transform="translate(357.829,-87.8408)">
			<title>Entity.2</title>
			<g id="shape42-150" transform="translate(-3.9968E-14,-17.6052)">
				<title>Sheet.42</title>
				<desc>Manifest Entry</desc>
				<rect x="0" y="774.396" width="96.2219" height="17.6036" class="st6"/>
				<text x="24.14" y="785.6" class="st4">Manifest Entry</text>			</g>
			<g id="shape43-153">
				<title>Sheet.43</title>
				<desc>Ifn:Control.VolumeControl</desc>
				<path d="M0 792 L96.22 792 L96.22 774.4 L0 774.4 L0 792 Z" class="st7"/>
				<text x="3.98" y="785.6" class="st4">Ifn:Control.VolumeControl</text>			</g>
		</g>
		<g id="shape44-156" transform="translate(1138.61,492.75) rotate(90)">
			<title>Message (call) .48</title>
			<desc>store manifest</desc>
			<path d="M-0 792 A468 23.4 90 0 1 17.54 788.31 L17.59 788.67 L18.05 792" class="st13"/>
			<rect x="-751.918" y="4.20024" width="50.2259" height="9.59985" transform="rotate(-90)" class="st15"/>
			<text x="-751.92" y="11.4" transform="rotate(-90)" class="st4">store manifests</text>		</g>
		<g id="group45-163" transform="translate(31.7835,-391.5)">
			<title>Entity.43</title>
			<g id="shape46-164" transform="translate(0,-37.4055)">
				<title>Sheet.46</title>
				<desc>Permission Entry</desc>
				<rect x="0" y="774.396" width="122.811" height="17.6036" class="st6"/>
				<text x="34.08" y="785.6" class="st4">Permission Entry</text>			</g>
			<g id="shape47-167">
				<title>Sheet.47</title>
				<desc>PeerType: WITH_MEMBERSHIP PubKey: caPubKey Group: adminGUID I...</desc>
				<path d="M0 792 L122.81 792 L122.81 754.6 L0 754.6 L0 792 Z" class="st7"/>
				<text x="4" y="765.8" class="st4">PeerType:  <tspan x="11.2" dy="1.2em" class="st5">FROM_CERTIFICATE_AUTHORITY </tspan><tspan
							x="4" dy="1.2em" class="st5">PubKey: caPubKey</tspan></text>			</g>
		</g>
		<g id="group48-172" transform="translate(462.189,-220.5)">
			<title>Entity.55</title>
			<g id="shape49-173" transform="translate(3.9968E-14,-37.4055)">
				<title>Sheet.49</title>
				<desc>Permission Entry</desc>
				<rect x="0" y="774.396" width="122.811" height="17.6036" class="st6"/>
				<text x="34.08" y="785.6" class="st4">Permission Entry</text>			</g>
			<g id="shape50-176">
				<title>Sheet.50</title>
				<desc>PeerType: WITH_MEMBERSHIP PubKey: caPubKey Group: adminGUID I...</desc>
				<path d="M0 792 L122.81 792 L122.81 754.6 L0 754.6 L0 792 Z" class="st7"/>
				<text x="4" y="765.8" class="st4">PeerType:  <tspan x="11.2" dy="1.2em" class="st5">FROM_CERTIFICATE_AUTHORITY </tspan><tspan
							x="4" dy="1.2em" class="st5">PubKey: caPubKey</tspan></text>			</g>
		</g>
		<g id="shape51-181" transform="translate(955.316,283.475) rotate(90)">
			<title>Message (call) .38</title>
			<desc>generate Identity Cert for app to be claimed</desc>
			<path d="M-0 792 A468 23.4 90 0 1 17.54 788.31 L17.59 788.67 L18.05 792" class="st13"/>
			<rect x="-752.002" y="4.20024" width="96.3581" height="9.59985" transform="rotate(-90)" class="st15"/>
			<text x="-752" y="11.4" transform="rotate(-90)" class="st4">Request identity cert from CA</text>		</g>
		<g id="group52-188" transform="translate(355.384,-201.399)">
			<title>Entity.20</title>
			<g id="shape53-189" transform="translate(2.79776E-13,-56.005)">
				<title>Sheet.53</title>
				<desc>Identity Cert</desc>
				<rect x="0" y="774.396" width="102.299" height="17.6036" class="st6"/>
				<text x="30.78" y="785.6" class="st4">Identity Cert</text>			</g>
			<g id="shape54-192">
				<title>Sheet.54</title>
				<desc>Issuer:user Subject: app SubjectPubKey: appPubKey SubjectAltN...</desc>
				<path d="M0 792 L102.3 792 L102.3 736 L0 736 L0 792 Z" class="st7"/>
				<text x="4" y="747.2" class="st4">Issuer:ca <tspan x="4" dy="1.2em" class="st5">Subject: app </tspan><tspan x="4"
							dy="1.2em" class="st5">SubjectPubKey: appPubKey </tspan><tspan x="4" dy="1.2em" class="st5">SubjectAltName: controller1 </tspan><tspan
							x="4" dy="1.2em" class="st5">AKI:caPubKeyHash</tspan></text>			</g>
		</g>
		<g id="shape55-199" transform="translate(955.316,265.45) rotate(90)">
			<title>Message (call) .67</title>
			<desc>generate manifest</desc>
			<path d="M-0 792 A468 23.4 90 0 1 17.54 788.31 L17.59 788.67 L18.05 792" class="st13"/>
			<rect x="-749.737" y="4.20024" width="62.6396" height="9.59985" transform="rotate(-90)" class="st15"/>
			<text x="-749.74" y="11.4" transform="rotate(-90)" class="st4">generate manifests</text>		</g>
	</g>
</svg>
