<?xml version="1.0" encoding="UTF-8" standalone="no"?>
<!DOCTYPE svg PUBLIC "-//W3C//DTD SVG 1.1//EN" "http://www.w3.org/Graphics/SVG/1.1/DTD/svg11.dtd">
<!-- Generated by Microsoft Visio, SVG Export install-addl-manifest.svg update-manifest -->
<svg xmlns="http://www.w3.org/2000/svg" xmlns:xlink="http://www.w3.org/1999/xlink" xmlns:ev="http://www.w3.org/2001/xml-events"
		width="8.5in" height="11in" viewBox="0 0 612 792" xml:space="preserve" color-interpolation-filters="sRGB" class="st16">
	<style type="text/css">
	<![CDATA[
		.st1 {fill:none;stroke:none;stroke-width:1}
		.st2 {fill:none}
		.st3 {stroke:#000000;stroke-dasharray:3.36,2.4;stroke-linecap:round;stroke-linejoin:round;stroke-width:0.48}
		.st4 {fill:#ffffff;stroke:#000000;stroke-linecap:round;stroke-linejoin:round;stroke-width:0.48}
		.st5 {fill:#000000;font-family:Calibri;font-size:0.666664em}
		.st6 {font-size:1em;text-decoration:underline}
		.st7 {fill:#e8eef7;stroke:#000000;stroke-linecap:round;stroke-linejoin:round;stroke-width:0.24}
		.st8 {fill:#000000;font-family:Calibri;font-size:0.75em}
		.st9 {marker-end:url(#mrkr2-43);stroke:#000000;stroke-linecap:round;stroke-linejoin:round;stroke-width:0.48}
		.st10 {fill:#000000;fill-opacity:1;stroke:#000000;stroke-opacity:1;stroke-width:0.12903225806452}
		.st11 {fill:#ffffff;stroke:none;stroke-linecap:butt;stroke-width:7.2}
		.st12 {marker-start:url(#mrkr1-51);stroke:#000000;stroke-dasharray:3.36,2.4;stroke-linecap:round;stroke-linejoin:round;stroke-width:0.48}
		.st13 {fill:#cdcdcd;stroke:#000000;stroke-linecap:round;stroke-linejoin:round;stroke-width:0.75}
		.st14 {fill:#ffffff;stroke:#000000;stroke-linecap:round;stroke-linejoin:round;stroke-width:0.75}
		.st15 {font-size:1em}
		.st16 {fill:none;fill-rule:evenodd;font-size:12px;overflow:visible;stroke-linecap:square;stroke-miterlimit:3}
	]]>
	</style>

	<defs id="Markers">
		<g id="lend2">
			<path d="M 1 1 L 0 0 L 1 -1 L 1 1 " style="stroke:none"/>
		</g>
		<marker id="mrkr2-43" class="st10" refX="-0" orient="auto" markerUnits="strokeWidth" overflow="visible">
			<use xlink:href="#lend2" transform="scale(-7.75,-7.75) "/>
		</marker>
		<g id="lend1">
			<path d="M 1 -1 L 0 0 L 1 1 " style="stroke-linecap:round;stroke-linejoin:round;fill:none"/>
		</g>
		<marker id="mrkr1-51" class="st10" orient="auto" markerUnits="strokeWidth" overflow="visible">
			<use xlink:href="#lend1" transform="scale(7.75) "/>
		</marker>
	</defs>
	<g>
		<title>install-addl-manifest</title>
		<g id="group1-1" transform="translate(142.485,-192.841)">
			<title>Object Lifeline</title>
			<g id="group2-2" transform="translate(-759.389,792) rotate(-90)">
				<title>Sheet.2</title>
				<g id="shape3-3">
					<title>Sheet.3</title>
					<path d="M0 792 L306 792 L0 792 Z" class="st1"/>
				</g>
				<g id="group4-5">
					<title>Sheet.4</title>
					<g id="shape5-6">
						<title>Sheet.5</title>
						<path d="M0 792 L306 792 L0 792 Z" class="st1"/>
					</g>
					<g id="group6-8">
						<title>Sheet.6</title>
						<g id="shape7-9">
							<title>Sheet.7</title>
							<path d="M0 792 L306 792 L0 792 Z" class="st1"/>
						</g>
						<g id="shape8-11">
							<title>Sheet.8</title>
							<path d="M0 792 L306 792 L0 792 Z" class="st2"/>
							<path d="M0 792 L306 792" class="st3"/>
						</g>
					</g>
				</g>
			</g>
			<g id="shape9-14" transform="translate(0,-306)">
				<title>Object</title>
				<desc>SecurityManager</desc>
				<rect x="0" y="766.8" width="65.2218" height="25.2" class="st4"/>
				<text x="4.91" y="781.8" class="st5"><tspan class="st6">SecurityManager</tspan></text>			</g>
		</g>
		<g id="group10-18" transform="translate(322.696,-192.841)">
			<title>Object Lifeline.8</title>
			<g id="group11-19" transform="translate(-765,792) rotate(-90)">
				<title>Sheet.11</title>
				<g id="shape12-20">
					<title>Sheet.12</title>
					<path d="M0 792 L306 792 L0 792 Z" class="st1"/>
				</g>
				<g id="group13-22">
					<title>Sheet.13</title>
					<g id="shape14-23">
						<title>Sheet.14</title>
						<path d="M0 792 L306 792 L0 792 Z" class="st1"/>
					</g>
					<g id="group15-25">
						<title>Sheet.15</title>
						<g id="shape16-26">
							<title>Sheet.16</title>
							<path d="M0 792 L306 792 L0 792 Z" class="st1"/>
						</g>
						<g id="shape17-28">
							<title>Sheet.17</title>
							<path d="M0 792 L306 792 L0 792 Z" class="st2"/>
							<path d="M0 792 L306 792" class="st3"/>
						</g>
					</g>
				</g>
			</g>
			<g id="shape18-31" transform="translate(0,-306)">
				<title>Object</title>
				<desc>Application</desc>
				<rect x="0" y="766.8" width="54" height="25.2" class="st4"/>
				<text x="8.57" y="781.8" class="st5"><tspan class="st6">Application</tspan></text>			</g>
		</g>
		<g id="shape19-35" transform="translate(175.096,-471.591)">
			<title>Double flexi-arrow.24</title>
			<desc>Establish ECDHE_ECDSA session</desc>
			<path d="M0 782.75 L24.48 773.5 L22.5 773.75 L152.1 773.75 L150.12 773.5 L174.6 782.75 L150.12 792 L152.1 791.75 L22.5
						 791.75 L24.48 792 L0 782.75 Z" class="st7"/>
			<text x="29.16" y="785.45" class="st8">Establish ECDHE_ECDSA session</text>		</g>
		<g id="shape21-38" transform="translate(175.096,-336.841)">
			<title>Message (call).22</title>
			<desc>UpdateIdentity(identityCertChain, manifest)</desc>
			<path d="M0 792 L170.88 792 L171.24 792 L174.6 792" class="st9"/>
			<rect x="43.2636" y="776.598" width="88.073" height="9.59985" class="st11"/>
			<text x="43.26" y="783.8" class="st5">InstallManifests(manifests)</text>		</g>
		<g id="shape22-46" transform="translate(173.7,-288)">
			<title>Message (return).27</title>
			<desc>OK</desc>
			<path d="M0 792 L174.6 792" class="st12"/>
			<rect x="82.5737" y="776.598" width="9.45291" height="9.59985" class="st11"/>
			<text x="82.57" y="783.8" class="st5">OK</text>		</g>
		<g id="shape23-54" transform="translate(967.5,377.95) rotate(90)">
			<title>Message (call) .22</title>
			<desc>generate the manifest</desc>
			<path d="M-0 792 A468 23.4 90 0 1 17.54 788.31 L17.59 788.67 L18.05 792" class="st9"/>
			<rect x="-750.705" y="4.20024" width="75.3113" height="9.59985" transform="rotate(-90)" class="st11"/>
			<text x="-750.71" y="11.4" transform="rotate(-90)" class="st5">generate the manifests</text>		</g>
		<g id="shape24-61" transform="translate(1141.7,455.159) rotate(90)">
			<title>Message (call) .25</title>
			<desc>Is peer authorized by any ACL?</desc>
			<path d="M-0 792 A468 23.4 90 0 1 17.54 788.31 L17.59 788.67 L18.05 792" class="st9"/>
			<rect x="-751.093" y="4.20024" width="99.691" height="9.59985" transform="rotate(-90)" class="st11"/>
			<text x="-751.09" y="11.4" transform="rotate(-90)" class="st5">Is peer authorized by any ACL?</text>		</g>
		<g id="shape25-68" transform="translate(175.096,-318.841)">
			<title>Message (return).26</title>
			<desc>Permission denied</desc>
			<path d="M0 792 L174.6 792" class="st12"/>
			<rect x="57.3708" y="776.598" width="59.8585" height="9.59985" class="st11"/>
			<text x="57.37" y="783.8" class="st5">Permission denied</text>		</g>
		<g id="shape26-75" transform="translate(175.096,-444.841)">
			<title>Message (call)</title>
			<desc>GetManifestTemplate()</desc>
			<path d="M0 792 L170.88 792 L171.24 792 L174.6 792" class="st9"/>
			<rect x="49.1503" y="776.598" width="76.2995" height="9.59985" class="st11"/>
			<text x="49.15" y="783.8" class="st5">GetManifestTemplate()</text>		</g>
		<g id="shape27-82" transform="translate(175.096,-426.841)">
			<title>Message (return)</title>
			<desc>manifest template</desc>
			<path d="M0 792 L174.6 792" class="st12"/>
			<rect x="57.3592" y="776.598" width="59.8815" height="9.59985" class="st11"/>
			<text x="57.36" y="783.8" class="st5">manifest template</text>		</g>
		<g id="group28-89" transform="translate(67.2488,-327.236)">
			<title>Entity.33</title>
			<g id="shape29-90" transform="translate(0,-65.605)">
				<title>Sheet.29</title>
				<desc>Membership Cert</desc>
				<rect x="0" y="774.396" width="100.495" height="17.6036" class="st13"/>
				<text x="21.71" y="785.6" class="st5">Membership Cert</text>			</g>
			<g id="shape30-93">
				<title>Sheet.30</title>
				<desc>Issuer:ca Subject: user SubjectPubKey: userPubKey CA: true Gr...</desc>
				<path d="M0 792 L100.49 792 L100.49 726.4 L0 726.4 L0 792 Z" class="st14"/>
				<text x="3.98" y="737.6" class="st5">Issuer:ca <tspan x="3.98" dy="1.2em" class="st15">Subject: user </tspan><tspan
							x="3.98" dy="1.2em" class="st15">SubjectPubKey: userPubKey </tspan><tspan x="3.98" dy="1.2em"
							class="st15">CA: true </tspan><tspan x="3.98" dy="1.2em" class="st15">Group: adminGUID </tspan><tspan
							x="3.98" dy="1.2em" class="st15">AKI: caPubKeyHash</tspan></text>			</g>
		</g>
		<g id="group31-101" transform="translate(67.2488,-415.232)">
			<title>Entity.64</title>
			<g id="shape32-102" transform="translate(0,-56.005)">
				<title>Sheet.32</title>
				<desc>Identity Cert</desc>
				<rect x="0" y="774.396" width="100.495" height="17.6036" class="st13"/>
				<text x="29.88" y="785.6" class="st5">Identity Cert</text>			</g>
			<g id="shape33-105">
				<title>Sheet.33</title>
				<desc>Issuer:ca Subject: user SubjectPubKey: userPubKey SubjectAltN...</desc>
				<path d="M0 792 L100.49 792 L100.49 736 L0 736 L0 792 Z" class="st14"/>
				<text x="3.98" y="747.2" class="st5">Issuer:ca <tspan x="3.98" dy="1.2em" class="st15">Subject: user </tspan><tspan
							x="3.98" dy="1.2em" class="st15">SubjectPubKey: userPubKey </tspan><tspan x="3.98" dy="1.2em"
							class="st15">SubjectAltName: userAlias </tspan><tspan x="3.98" dy="1.2em" class="st15">AKI: caPubKeyHash</tspan></text>			</g>
		</g>
		<g id="group34-112" transform="translate(355.5,-415.232)">
			<title>Entity.40</title>
			<g id="shape35-113" transform="translate(2.79776E-13,-56.005)">
				<title>Sheet.35</title>
				<desc>Identity Cert</desc>
				<rect x="0" y="774.396" width="102.299" height="17.6036" class="st13"/>
				<text x="30.78" y="785.6" class="st5">Identity Cert</text>			</g>
			<g id="shape36-116">
				<title>Sheet.36</title>
				<desc>Issuer:user Subject: app SubjectPubKey: appPubKey SubjectAltN...</desc>
				<path d="M0 792 L102.3 792 L102.3 736 L0 736 L0 792 Z" class="st14"/>
				<text x="4" y="747.2" class="st5">Issuer:ca <tspan x="4" dy="1.2em" class="st15">Subject: app </tspan><tspan x="4"
							dy="1.2em" class="st15">SubjectPubKey: appPubKey </tspan><tspan x="4" dy="1.2em" class="st15">SubjectAltName: controller1 </tspan><tspan
							x="4" dy="1.2em" class="st15">AKI: caPubKeyHash</tspan></text>			</g>
		</g>
		<g id="group40-123" transform="translate(362.778,-252.791)">
			<title>Entity.41</title>
			<g id="shape41-124" transform="translate(-3.9968E-14,-17.6052)">
				<title>Sheet.41</title>
				<desc>Manifest Entry</desc>
				<rect x="0" y="774.396" width="96.2219" height="17.6036" class="st13"/>
				<text x="24.14" y="785.6" class="st5">Manifest Entry</text>			</g>
			<g id="shape42-127">
				<title>Sheet.42</title>
				<desc>Ifn:Control.VolumeControl</desc>
				<path d="M0 792 L96.22 792 L96.22 774.4 L0 774.4 L0 792 Z" class="st14"/>
				<text x="3.98" y="785.6" class="st5">Ifn:Control.VolumeControl</text>			</g>
		</g>
		<g id="shape44-130" transform="translate(1143,477) rotate(90)">
			<title>Message (call) .56</title>
			<desc>store manifest</desc>
			<path d="M-0 792 A468 23.4 90 0 1 17.54 788.31 L17.59 788.67 L18.05 792" class="st9"/>
			<rect x="-748.377" y="4.20024" width="58.054" height="9.59985" transform="rotate(-90)" class="st11"/>
			<text x="-748.38" y="11.4" transform="rotate(-90)" class="st5">append manifests</text>		</g>
		<g id="shape45-137" transform="translate(967.5,395.95) rotate(90)">
			<title>Message (call) .53</title>
			<desc>Retrieve peer&#39;s identity cert chain from keystore</desc>
			<path d="M-0 792 A468 23.4 90 0 1 17.54 788.31 L17.59 788.67 L18.05 792" class="st9"/>
			<rect x="-751.094" y="4.20024" width="157.103" height="9.59985" transform="rotate(-90)" class="st11"/>
			<text x="-751.09" y="11.4" transform="rotate(-90)" class="st5">Retrieve peer&#39;s identity cert chain from keystore</text>		</g>
		<g id="group46-144" transform="translate(400.114,-344.438)">
			<title>Entity.73</title>
			<g id="shape47-145" transform="translate(-3.19744E-14,-46.4051)">
				<title>Sheet.47</title>
				<desc>Permission Entry</desc>
				<rect x="0" y="774.396" width="111.343" height="17.6036" class="st13"/>
				<text x="28.35" y="785.6" class="st5">Permission Entry</text>			</g>
			<g id="shape48-148">
				<title>Sheet.48</title>
				<desc>PeerType: WITH_MEMBERSHIP PubKey: caPubKey Group: adminGUID I...</desc>
				<path d="M0 792 L111.34 792 L111.34 745.6 L0 745.6 L0 792 Z" class="st14"/>
				<text x="4" y="756.8" class="st5">PeerType: WITH_MEMBERSHIP <tspan x="4" dy="1.2em" class="st15">PubKey: caPubKey </tspan><tspan
							x="4" dy="1.2em" class="st15">Group: adminGUID </tspan><tspan x="4" dy="1.2em" class="st15">Ifn: *</tspan></text>			</g>
		</g>
		<g id="group49-154" transform="translate(45,-267.246)">
			<title>Entity.43</title>
			<g id="shape50-155" transform="translate(0,-37.4055)">
				<title>Sheet.50</title>
				<desc>Permission Entry</desc>
				<rect x="0" y="774.396" width="122.811" height="17.6036" class="st13"/>
				<text x="34.08" y="785.6" class="st5">Permission Entry</text>			</g>
			<g id="shape51-158">
				<title>Sheet.51</title>
				<desc>PeerType: WITH_MEMBERSHIP PubKey: caPubKey Group: adminGUID I...</desc>
				<path d="M0 792 L122.81 792 L122.81 754.6 L0 754.6 L0 792 Z" class="st14"/>
				<text x="4" y="765.8" class="st5">PeerType:  <tspan x="11.2" dy="1.2em" class="st15">FROM_CERTIFICATE_AUTHORITY </tspan><tspan
							x="4" dy="1.2em" class="st15">PubKey: caPubKey</tspan></text>			</g>
		</g>
		<g id="group52-163" transform="translate(462.844,-433.242)">
			<title>Entity.29</title>
			<g id="shape53-164" transform="translate(0,-37.4055)">
				<title>Sheet.53</title>
				<desc>Permission Entry</desc>
				<rect x="0" y="774.396" width="122.811" height="17.6036" class="st13"/>
				<text x="34.08" y="785.6" class="st5">Permission Entry</text>			</g>
			<g id="shape54-167">
				<title>Sheet.54</title>
				<desc>PeerType: WITH_MEMBERSHIP PubKey: caPubKey Group: adminGUID I...</desc>
				<path d="M0 792 L122.81 792 L122.81 754.6 L0 754.6 L0 792 Z" class="st14"/>
				<text x="4" y="765.8" class="st5">PeerType:  <tspan x="11.2" dy="1.2em" class="st15">FROM_CERTIFICATE_AUTHORITY </tspan><tspan
							x="4" dy="1.2em" class="st15">PubKey: caPubKey</tspan></text>			</g>
		</g>
		<g id="shape56-172" transform="translate(967.5,418.45) rotate(90)">
			<title>Sheet.56</title>
			<desc>Retrieve peer&#39;s identity cert chain from keystore</desc>
			<path d="M-0 792 A468 23.4 90 0 1 17.54 788.31 L17.59 788.67 L18.05 792" class="st9"/>
			<rect x="-752.012" y="4.20024" width="172.845" height="9.59985" transform="rotate(-90)" class="st11"/>
			<text x="-752.01" y="11.4" transform="rotate(-90)" class="st5">Compute identity cert thumbprint and sign manifests</text>		</g>
	</g>
</svg>
