<?xml version="1.0" encoding="UTF-8" standalone="no"?>
<!DOCTYPE svg PUBLIC "-//W3C//DTD SVG 1.0//EN" "http://www.w3.org/TR/2001/REC-SVG-20010904/DTD/svg10.dtd">
<!-- Generated by Microsoft Visio 11.0, SVG Export, v1.0 security-system-diagram.svg security-system-diagram -->
<svg xmlns="http://www.w3.org/2000/svg" xmlns:xlink="http://www.w3.org/1999/xlink" xmlns:ev="http://www.w3.org/2001/xml-events"
		xmlns:v="http://schemas.microsoft.com/visio/2003/SVGExtensions/" width="8.5in" height="11in" viewBox="0 0 612 792"
		xml:space="preserve" color-interpolation-filters="sRGB" class="st15">
	<v:documentProperties v:langID="1033">
		<v:userDefs>
			<v:ud v:nameU="msvNoAutoConnect" v:val="VT0(1):26"/>
		</v:userDefs>
	</v:documentProperties>

	<style type="text/css">
	<![CDATA[
		.st1 {fill:url(#grad29-4);stroke:#5b6e7e;stroke-linecap:round;stroke-linejoin:round;stroke-opacity:0.75;stroke-width:1}
		.st2 {fill:url(#grad29-8);stroke:#5b6e7e;stroke-linecap:round;stroke-linejoin:round;stroke-opacity:0.75;stroke-width:1}
		.st3 {fill:url(#grad29-15);stroke:#5b6e7e;stroke-linecap:round;stroke-linejoin:round;stroke-opacity:0.75;stroke-width:1}
		.st4 {fill:#000000;font-family:Cambria;font-size:0.833336em}
		.st5 {font-size:1em}
		.st6 {fill:none;stroke:none;stroke-linecap:round;stroke-linejoin:round;stroke-width:1}
		.st7 {fill:#000000;font-family:Cambria;font-size:1.00001em}
		.st8 {fill:none}
		.st9 {stroke:#000000;stroke-linecap:round;stroke-linejoin:round;stroke-width:0.24}
		.st10 {fill:#ffffff;stroke:none;stroke-linecap:butt;stroke-width:7.2}
		.st11 {fill:#000000;font-family:Calibri;font-size:0.666664em}
		.st12 {marker-start:url(#mrkr13-75);stroke:#000000;stroke-linecap:round;stroke-linejoin:round;stroke-width:0.24}
		.st13 {fill:#000000;fill-opacity:1;stroke:#000000;stroke-opacity:1;stroke-width:0.08695652173913}
		.st14 {font-size:0.799995em}
		.st15 {fill:none;fill-rule:evenodd;font-size:12px;overflow:visible;stroke-linecap:square;stroke-miterlimit:3}
	]]>
	</style>

	<defs id="Patterns_And_Gradients">
		<linearGradient id="grad29-4" v:fillPattern="29" v:foreground="#cbd3da" v:background="#bac5cd" x1="0" y1="0" x2="0" y2="1">
			<stop offset="0" style="stop-color:#bac5cd;stop-opacity:1"/>
			<stop offset="0.5" style="stop-color:#cbd3da;stop-opacity:1"/>
			<stop offset="1" style="stop-color:#bac5cd;stop-opacity:1"/>
		</linearGradient>
		<linearGradient id="grad29-8" v:fillPattern="29" v:foreground="#f7eee8" v:background="#f4e8df" x1="0" y1="0" x2="0" y2="1">
			<stop offset="0" style="stop-color:#f4e8df;stop-opacity:1"/>
			<stop offset="0.5" style="stop-color:#f7eee8;stop-opacity:1"/>
			<stop offset="1" style="stop-color:#f4e8df;stop-opacity:1"/>
		</linearGradient>
		<linearGradient id="grad29-15" v:fillPattern="29" v:foreground="#e6eaec" v:background="#dce2e6" x1="0" y1="0" x2="0" y2="1">
			<stop offset="0" style="stop-color:#dce2e6;stop-opacity:1"/>
			<stop offset="0.5" style="stop-color:#e6eaec;stop-opacity:1"/>
			<stop offset="1" style="stop-color:#dce2e6;stop-opacity:1"/>
		</linearGradient>
	</defs>
	<defs id="Markers">
		<g id="lend13">
			<path d="M 3 1 L 0 0 L 3 -1 L 3 1 " style="stroke:none"/>
		</g>
		<marker id="mrkr13-75" class="st13" v:arrowType="13" v:arrowSize="2" v:setback="0" refX="0" orient="auto"
				markerUnits="strokeWidth" overflow="visible">
			<use xlink:href="#lend13" transform="scale(11.5) "/>
		</marker>
	</defs>
	<g v:mID="0" v:index="1" v:groupContext="foregroundPage">
		<title>security-system-diagram</title>
		<v:pageProperties v:drawingScale="1" v:pageScale="1" v:drawingUnits="19" v:shadowOffsetX="9" v:shadowOffsetY="-9"/>
		<v:layer v:name="Connector" v:index="0"/>
		<g id="shape1-1" v:mID="1" v:groupContext="shape" transform="translate(365.151,-391.341)">
			<title>Rounded rectangle</title>
			<v:userDefs>
				<v:ud v:nameU="visVersion" v:val="VT0(14):26"/>
				<v:ud v:nameU="msvThemeColors" v:val="VT0(49):26"/>
				<v:ud v:nameU="msvThemeEffects" v:val="VT0(5):26"/>
			</v:userDefs>
			<path d="M196.87 792 A9.00007 9.00007 -180 0 0 205.87 783 L205.87 603 A9.00007 9.00007 -180 0 0 196.87 594 L9 594 A9.00007
						 9.00007 -180 0 0 0 603 L0 783 A9.00007 9.00007 -180 0 0 9 792 L196.87 792 Z" class="st1"/>
		</g>
		<g id="shape2-5" v:mID="2" v:groupContext="shape" transform="translate(383.826,-519.141)">
			<title>Rectangle</title>
			<v:userDefs>
				<v:ud v:nameU="visVersion" v:val="VT0(14):26"/>
				<v:ud v:nameU="msvThemeColors" v:val="VT0(49):26"/>
				<v:ud v:nameU="msvThemeEffects" v:val="VT0(5):26"/>
			</v:userDefs>
			<path d="M0 785.7 A6.30015 6.30015 -180 0 0 6.3 792 L164.7 792 A6.30015 6.30015 -180 0 0 171 785.7 L171 736.2 A6.30015
						 6.30015 -180 0 0 164.7 729.9 L6.3 729.9 A6.30015 6.30015 -180 0 0 -0 736.2 L0 785.7 Z" class="st2"/>
		</g>
		<g id="shape3-9" v:mID="3" v:groupContext="shape" transform="translate(384.726,-418.341)">
			<title>Rectangle.3</title>
			<v:userDefs>
				<v:ud v:nameU="visVersion" v:val="VT0(14):26"/>
				<v:ud v:nameU="msvThemeColors" v:val="VT0(49):26"/>
				<v:ud v:nameU="msvThemeEffects" v:val="VT0(5):26"/>
			</v:userDefs>
			<path d="M-0 785.7 A6.30015 6.30015 -180 0 0 6.3 792 L164.7 792 A6.30015 6.30015 -180 0 0 171 785.7 L171 699.3 A6.30015
						 6.30015 -180 0 0 164.7 693 L6.3 693 A6.30015 6.30015 -180 0 0 -0 699.3 L0 785.7 Z" class="st2"/>
		</g>
		<g id="shape5-12" v:mID="5" v:groupContext="shape" transform="translate(393.276,-486.741)">
			<title>Rectangle.5</title>
			<desc>Permission Module</desc>
			<v:userDefs>
				<v:ud v:nameU="visVersion" v:val="VT0(14):26"/>
				<v:ud v:nameU="msvThemeColors" v:val="VT0(49):26"/>
				<v:ud v:nameU="msvThemeEffects" v:val="VT0(5):26"/>
			</v:userDefs>
			<v:textBlock v:margins="rect(4,4,4,4)"/>
			<v:textRect cx="34.875" cy="778.5" width="69.75" height="27"/>
			<path d="M-0 785.7 A6.30015 6.30015 -180 0 0 6.3 792 L63.45 792 A6.30015 6.30015 -180 0 0 69.75 785.7 L69.75 771.3 A6.30015
						 6.30015 -180 0 0 63.45 765 L6.3 765 A6.30015 6.30015 -180 0 0 0 771.3 L0 785.7 Z" class="st3"/>
			<text x="10.85" y="775.5" class="st4" v:langID="1033"><v:paragraph v:horizAlign="1"/><v:tabList/>Permission <tspan
						x="18.81" dy="1.2em" class="st5">Module</tspan></text>		</g>
		<g id="shape6-18" v:mID="6" v:groupContext="shape" transform="translate(410.826,-527.241)">
			<title>Rectangle.20</title>
			<desc>App Specific Interfaces</desc>
			<v:userDefs>
				<v:ud v:nameU="visVersion" v:val="VT0(14):26"/>
				<v:ud v:nameU="msvThemeColors" v:val="VT0(49):26"/>
				<v:ud v:nameU="msvThemeEffects" v:val="VT0(5):26"/>
			</v:userDefs>
			<v:textBlock v:margins="rect(4,4,4,4)"/>
			<v:textRect cx="63" cy="778.5" width="126" height="27"/>
			<path d="M0 785.7 A6.30015 6.30015 -180 0 0 6.3 792 L119.7 792 A6.30015 6.30015 -180 0 0 126 785.7 L126 771.3 A6.30015
						 6.30015 -180 0 0 119.7 765 L6.3 765 A6.30015 6.30015 -180 0 0 -0 771.3 L0 785.7 Z" class="st3"/>
			<text x="14.36" y="781.5" class="st4" v:langID="1033"><v:paragraph v:horizAlign="1"/><v:tabList/>App Specific Interfaces</text>		</g>
		<g id="shape7-22" v:mID="7" v:groupContext="shape" transform="translate(470.226,-490.341)">
			<title>Sheet.7</title>
			<desc>AllJoyn Core</desc>
			<v:userDefs>
				<v:ud v:nameU="msvThemeColors" v:val="VT0(49):26"/>
				<v:ud v:nameU="msvThemeEffects" v:val="VT0(5):26"/>
			</v:userDefs>
			<v:textBlock v:margins="rect(4,4,4,4)"/>
			<v:textRect cx="36" cy="784" width="72" height="16"/>
			<path d="M0 785.7 A6.30015 6.30015 -180 0 0 6.3 792 L65.7 792 A6.30015 6.30015 -180 0 0 72 785.7 L72 782.3 A6.30015 6.30015
						 -180 0 0 65.7 776 L6.3 776 A6.30015 6.30015 -180 0 0 -0 782.3 L0 785.7 Z" class="st6"/>
			<text x="4.32" y="787.6" class="st7" v:langID="1033"><v:paragraph v:horizAlign="1"/><v:tabList/>AllJoyn Core</text>		</g>
		<g id="shape8-25" v:mID="8" v:groupContext="shape" transform="translate(427.026,-558.841)">
			<title>Sheet.8</title>
			<desc>App</desc>
			<v:userDefs>
				<v:ud v:nameU="msvThemeColors" v:val="VT0(49):26"/>
				<v:ud v:nameU="msvThemeEffects" v:val="VT0(5):26"/>
			</v:userDefs>
			<v:textBlock v:margins="rect(4,4,4,4)"/>
			<v:textRect cx="36" cy="784" width="72" height="16"/>
			<path d="M0 785.7 A6.30015 6.30015 -180 0 0 6.3 792 L65.7 792 A6.30015 6.30015 -180 0 0 72 785.7 L72 782.3 A6.30015 6.30015
						 -180 0 0 65.7 776 L6.3 776 A6.30015 6.30015 -180 0 0 -0 782.3 L0 785.7 Z" class="st6"/>
			<text x="25.59" y="787.6" class="st7" v:langID="1033"><v:paragraph v:horizAlign="1"/><v:tabList/>App</text>		</g>
		<g id="shape9-28" v:mID="9" v:groupContext="shape" transform="translate(437.826,-398.741)">
			<title>Sheet.9</title>
			<desc>Producer</desc>
			<v:userDefs>
				<v:ud v:nameU="msvThemeColors" v:val="VT0(49):26"/>
				<v:ud v:nameU="msvThemeEffects" v:val="VT0(5):26"/>
			</v:userDefs>
			<v:textBlock v:margins="rect(4,4,4,4)"/>
			<v:textRect cx="36" cy="784" width="72" height="16"/>
			<path d="M0 785.7 A6.30015 6.30015 -180 0 0 6.3 792 L65.7 792 A6.30015 6.30015 -180 0 0 72 785.7 L72 782.3 A6.30015 6.30015
						 -180 0 0 65.7 776 L6.3 776 A6.30015 6.30015 -180 0 0 -0 782.3 L0 785.7 Z" class="st6"/>
			<text x="12.23" y="787.6" class="st7" v:langID="1033"><v:paragraph v:horizAlign="1"/><v:tabList/>Producer</text>		</g>
		<g id="shape10-31" v:mID="10" v:groupContext="shape" transform="translate(39.6884,-391.341)">
			<title>Rounded rectangle.9</title>
			<v:userDefs>
				<v:ud v:nameU="visVersion" v:val="VT0(14):26"/>
				<v:ud v:nameU="msvThemeColors" v:val="VT0(49):26"/>
				<v:ud v:nameU="msvThemeEffects" v:val="VT0(5):26"/>
			</v:userDefs>
			<path d="M196.87 792 A9.00007 9.00007 -180 0 0 205.87 783 L205.87 603 A9.00007 9.00007 -180 0 0 196.87 594 L9 594 A9.00007
						 9.00007 -180 0 0 0 603 L0 783 A9.00007 9.00007 -180 0 0 9 792 L196.87 792 Z" class="st1"/>
		</g>
		<g id="shape11-34" v:mID="11" v:groupContext="shape" transform="translate(58.3634,-520.941)">
			<title>Rectangle.11</title>
			<v:userDefs>
				<v:ud v:nameU="visVersion" v:val="VT0(14):26"/>
				<v:ud v:nameU="msvThemeColors" v:val="VT0(49):26"/>
				<v:ud v:nameU="msvThemeEffects" v:val="VT0(5):26"/>
			</v:userDefs>
			<path d="M-0 785.7 A6.30015 6.30015 -180 0 0 6.3 792 L164.7 792 A6.30015 6.30015 -180 0 0 171 785.7 L171 738 A6.30015
						 6.30015 -180 0 0 164.7 731.7 L6.3 731.7 A6.30015 6.30015 -180 0 0 -0 738 L0 785.7 Z" class="st2"/>
		</g>
		<g id="shape12-37" v:mID="12" v:groupContext="shape" transform="translate(58.0259,-417.441)">
			<title>Rectangle.12</title>
			<v:userDefs>
				<v:ud v:nameU="visVersion" v:val="VT0(14):26"/>
				<v:ud v:nameU="msvThemeColors" v:val="VT0(49):26"/>
				<v:ud v:nameU="msvThemeEffects" v:val="VT0(5):26"/>
			</v:userDefs>
			<path d="M-0 785.7 A6.30015 6.30015 -180 0 0 6.3 792 L164.7 792 A6.30015 6.30015 -180 0 0 171 785.7 L171 699.3 A6.30015
						 6.30015 -180 0 0 164.7 693 L6.3 693 A6.30015 6.30015 -180 0 0 -0 699.3 L0 785.7 Z" class="st2"/>
		</g>
		<g id="shape13-40" v:mID="13" v:groupContext="shape" transform="translate(88.6259,-529.041)">
			<title>Rectangle.14</title>
			<desc>App Specific Interfaces</desc>
			<v:userDefs>
				<v:ud v:nameU="visVersion" v:val="VT0(14):26"/>
				<v:ud v:nameU="msvThemeColors" v:val="VT0(49):26"/>
				<v:ud v:nameU="msvThemeEffects" v:val="VT0(5):26"/>
			</v:userDefs>
			<v:textBlock v:margins="rect(4,4,4,4)"/>
			<v:textRect cx="55.125" cy="778.5" width="110.25" height="27"/>
			<path d="M-0 785.7 A6.30015 6.30015 -180 0 0 6.3 792 L103.95 792 A6.30015 6.30015 -180 0 0 110.25 785.7 L110.25 771.3
						 A6.30015 6.30015 -180 0 0 103.95 765 L6.3 765 A6.30015 6.30015 -180 0 0 -0 771.3 L0 785.7 Z" class="st3"/>
			<text x="6.49" y="781.5" class="st4" v:langID="1033"><v:paragraph v:horizAlign="1"/><v:tabList/>App Specific Interfaces</text>		</g>
		<g id="shape14-44" v:mID="14" v:groupContext="shape" transform="translate(67.0259,-489.541)">
			<title>Sheet.14</title>
			<desc>AllJoyn Core</desc>
			<v:userDefs>
				<v:ud v:nameU="msvThemeColors" v:val="VT0(49):26"/>
				<v:ud v:nameU="msvThemeEffects" v:val="VT0(5):26"/>
			</v:userDefs>
			<v:textBlock v:margins="rect(4,4,4,4)"/>
			<v:textRect cx="36" cy="784" width="72" height="16"/>
			<path d="M0 785.7 A6.30015 6.30015 -180 0 0 6.3 792 L65.7 792 A6.30015 6.30015 -180 0 0 72 785.7 L72 782.3 A6.30015 6.30015
						 -180 0 0 65.7 776 L6.3 776 A6.30015 6.30015 -180 0 0 -0 782.3 L0 785.7 Z" class="st6"/>
			<text x="4.32" y="787.6" class="st7" v:langID="1033"><v:paragraph v:horizAlign="1"/><v:tabList/>AllJoyn Core</text>		</g>
		<g id="shape15-47" v:mID="15" v:groupContext="shape" transform="translate(101.563,-560.541)">
			<title>Sheet.15</title>
			<desc>App</desc>
			<v:userDefs>
				<v:ud v:nameU="msvThemeColors" v:val="VT0(49):26"/>
				<v:ud v:nameU="msvThemeEffects" v:val="VT0(5):26"/>
			</v:userDefs>
			<v:textBlock v:margins="rect(4,4,4,4)"/>
			<v:textRect cx="36" cy="784" width="72" height="16"/>
			<path d="M0 785.7 A6.30015 6.30015 -180 0 0 6.3 792 L65.7 792 A6.30015 6.30015 -180 0 0 72 785.7 L72 782.3 A6.30015 6.30015
						 -180 0 0 65.7 776 L6.3 776 A6.30015 6.30015 -180 0 0 -0 782.3 L0 785.7 Z" class="st6"/>
			<text x="25.59" y="787.6" class="st7" v:langID="1033"><v:paragraph v:horizAlign="1"/><v:tabList/>App</text>		</g>
		<g id="shape16-50" v:mID="16" v:groupContext="shape" transform="translate(106.626,-398.541)">
			<title>Sheet.16</title>
			<desc>Consumer</desc>
			<v:userDefs>
				<v:ud v:nameU="msvThemeColors" v:val="VT0(49):26"/>
				<v:ud v:nameU="msvThemeEffects" v:val="VT0(5):26"/>
			</v:userDefs>
			<v:textBlock v:margins="rect(4,4,4,4)"/>
			<v:textRect cx="36" cy="784" width="72" height="16"/>
			<path d="M0 785.7 A6.30015 6.30015 -180 0 0 6.3 792 L65.7 792 A6.30015 6.30015 -180 0 0 72 785.7 L72 782.3 A6.30015 6.30015
						 -180 0 0 65.7 776 L6.3 776 A6.30015 6.30015 -180 0 0 -0 782.3 L0 785.7 Z" class="st6"/>
			<text x="9.8" y="787.6" class="st7" v:langID="1033"><v:paragraph v:horizAlign="1"/><v:tabList/>Consumer</text>		</g>
		<g id="shape17-53" v:mID="17" v:groupContext="shape" v:layerMember="0" transform="translate(223.176,-500.241)">
			<title>Dynamic connector.44</title>
			<desc>Exchange credentials</desc>
			<v:userDefs>
				<v:ud v:nameU="visVersion" v:val="VT0(14):26"/>
			</v:userDefs>
			<v:textBlock v:margins="rect(4,4,4,4)"/>
			<v:textRect cx="85.05" cy="792" width="78.21" height="17.6036"/>
			<path d="M0 792 L170.1 792 L0 792 Z" class="st8"/>
			<path d="M0 792 L170.1 792" class="st9"/>
			<rect v:rectContext="textBkgnd" x="50.8515" y="787.2" width="68.3973" height="9.59985" class="st10"/>
			<text x="50.85" y="794.4" class="st11" v:langID="1033"><v:paragraph v:horizAlign="1"/><v:tabList/>Exchange credentials</text>		</g>
		<g id="shape18-58" v:mID="18" v:groupContext="shape" transform="translate(210.351,-114.141)">
			<title>Rounded rectangle.20</title>
			<v:userDefs>
				<v:ud v:nameU="visVersion" v:val="VT0(14):26"/>
				<v:ud v:nameU="msvThemeColors" v:val="VT0(49):26"/>
				<v:ud v:nameU="msvThemeEffects" v:val="VT0(5):26"/>
			</v:userDefs>
			<path d="M196.87 792 A9.00007 9.00007 -180 0 0 205.87 783 L205.87 599.4 A9.00007 9.00007 -180 0 0 196.87 590.4 L9 590.4
						 A9.00007 9.00007 -180 0 0 -0 599.4 L0 783 A9.00007 9.00007 -180 0 0 9 792 L196.87 792 Z" class="st1"/>
		</g>
		<g id="shape19-61" v:mID="19" v:groupContext="shape" transform="translate(229.026,-245.541)">
			<title>Rectangle.21</title>
			<v:userDefs>
				<v:ud v:nameU="visVersion" v:val="VT0(14):26"/>
				<v:ud v:nameU="msvThemeColors" v:val="VT0(49):26"/>
				<v:ud v:nameU="msvThemeEffects" v:val="VT0(5):26"/>
			</v:userDefs>
			<path d="M-0 785.7 A6.30015 6.30015 -180 0 0 6.3 792 L164.7 792 A6.30015 6.30015 -180 0 0 171 785.7 L171 735.3 A6.30015
						 6.30015 -180 0 0 164.7 729 L6.3 729 A6.30015 6.30015 -180 0 0 -0 735.3 L0 785.7 Z" class="st2"/>
		</g>
		<g id="shape20-64" v:mID="20" v:groupContext="shape" transform="translate(272.226,-286.141)">
			<title>Sheet.20</title>
			<desc>App</desc>
			<v:userDefs>
				<v:ud v:nameU="msvThemeColors" v:val="VT0(49):26"/>
				<v:ud v:nameU="msvThemeEffects" v:val="VT0(5):26"/>
			</v:userDefs>
			<v:textBlock v:margins="rect(4,4,4,4)"/>
			<v:textRect cx="36" cy="784" width="72" height="16"/>
			<path d="M0 785.7 A6.30015 6.30015 -180 0 0 6.3 792 L65.7 792 A6.30015 6.30015 -180 0 0 72 785.7 L72 782.3 A6.30015 6.30015
						 -180 0 0 65.7 776 L6.3 776 A6.30015 6.30015 -180 0 0 -0 782.3 L0 785.7 Z" class="st6"/>
			<text x="25.59" y="787.6" class="st7" v:langID="1033"><v:paragraph v:horizAlign="1"/><v:tabList/>App</text>		</g>
		<g id="shape21-67" v:mID="21" v:groupContext="shape" transform="translate(233.751,-120.541)">
			<title>Sheet.21</title>
			<desc>End-User Security Manager</desc>
			<v:userDefs>
				<v:ud v:nameU="msvThemeColors" v:val="VT0(49):26"/>
				<v:ud v:nameU="msvThemeEffects" v:val="VT0(5):26"/>
			</v:userDefs>
			<v:textBlock v:margins="rect(4,4,4,4)"/>
			<v:textRect cx="84.6" cy="784" width="169.2" height="16"/>
			<path d="M0 785.7 A6.30015 6.30015 -180 0 0 6.3 792 L162.9 792 A6.30015 6.30015 -180 0 0 169.2 785.7 L169.2 782.3 A6.30015
						 6.30015 -180 0 0 162.9 776 L6.3 776 A6.30015 6.30015 -180 0 0 0 782.3 L0 785.7 Z" class="st6"/>
			<text x="14.43" y="787.6" class="st7" v:langID="1033"><v:paragraph v:horizAlign="1"/><v:tabList/>End-User Security Manager</text>		</g>
		<g id="shape22-70" v:mID="22" v:groupContext="shape" v:layerMember="0" transform="translate(142.575,-315.741)">
			<title>Dynamic connector.34</title>
			<desc>Issue policy &#38; membership certs</desc>
			<v:userDefs>
				<v:ud v:nameU="visVersion" v:val="VT0(14):26"/>
			</v:userDefs>
			<v:textBlock v:margins="rect(4,4,4,4)"/>
			<v:textRect cx="85.3823" cy="754.2" width="115.13" height="17.6036"/>
			<path d="M0 716.52 L7.29 719.61 L7.62 719.75 L170.71 792" class="st12"/>
			<rect v:rectContext="textBkgnd" x="32.7268" y="749.4" width="105.311" height="9.59985" class="st10"/>
			<text x="32.73" y="756.6" class="st11" v:langID="1033"><v:paragraph v:horizAlign="1"/><v:tabList/>Issue policy &#38; membership certs</text>		</g>
		<g id="shape23-78" v:mID="23" v:groupContext="shape" v:layerMember="0" transform="translate(229.363,-550.191)">
			<title>Dynamic connector.23</title>
			<desc>Invoke method calls</desc>
			<v:userDefs>
				<v:ud v:nameU="visVersion" v:val="VT0(14):26"/>
			</v:userDefs>
			<v:textBlock v:margins="rect(4,4,4,4)"/>
			<v:textRect cx="77.2313" cy="791.55" width="74.8" height="17.6036"/>
			<path d="M0 791.1 L154.46 792 L0 791.1 Z" class="st8"/>
			<path d="M0 791.1 L154.46 792" class="st9"/>
			<rect v:rectContext="textBkgnd" x="44.7433" y="786.75" width="64.9759" height="9.59985" class="st10"/>
			<text x="44.74" y="793.95" class="st11" v:langID="1033"><v:paragraph v:horizAlign="1"/><v:tabList/>Invoke method calls</text>		</g>
		<g id="shape24-83" v:mID="24" v:groupContext="shape" transform="translate(153.426,-486.741)">
			<title>Rectangle.24</title>
			<desc>Permission Module</desc>
			<v:userDefs>
				<v:ud v:nameU="visVersion" v:val="VT0(14):26"/>
				<v:ud v:nameU="msvThemeColors" v:val="VT0(49):26"/>
				<v:ud v:nameU="msvThemeEffects" v:val="VT0(5):26"/>
			</v:userDefs>
			<v:textBlock v:margins="rect(4,4,4,4)"/>
			<v:textRect cx="34.875" cy="778.5" width="69.75" height="27"/>
			<path d="M-0 785.7 A6.30015 6.30015 -180 0 0 6.3 792 L63.45 792 A6.30015 6.30015 -180 0 0 69.75 785.7 L69.75 771.3 A6.30015
						 6.30015 -180 0 0 63.45 765 L6.3 765 A6.30015 6.30015 -180 0 0 0 771.3 L0 785.7 Z" class="st3"/>
			<text x="10.85" y="775.5" class="st4" v:langID="1033"><v:paragraph v:horizAlign="1"/><v:tabList/>Permission <tspan
						x="18.81" dy="1.2em" class="st5">Module</tspan></text>		</g>
		<g id="shape25-88" v:mID="25" v:groupContext="shape" v:layerMember="0" transform="translate(313.288,-315.741)">
			<title>Dynamic connector.36</title>
			<desc>Issue policy&#38; membership certs</desc>
			<v:userDefs>
				<v:ud v:nameU="visVersion" v:val="VT0(14):26"/>
			</v:userDefs>
			<v:textBlock v:margins="rect(4,4,4,4)"/>
			<v:textRect cx="77.4" cy="754.2" width="113.33" height="17.6036"/>
			<path d="M154.85 716.52 L147.68 719.88 L147.36 720.03 L0 792" class="st12"/>
			<rect v:rectContext="textBkgnd" x="25.6487" y="749.4" width="103.502" height="9.59985" class="st10"/>
			<text x="25.65" y="756.6" class="st11" v:langID="1033"><v:paragraph v:horizAlign="1"/><v:tabList/>Issue policy&#38; membership certs</text>		</g>
		<g id="shape26-95" v:mID="26" v:groupContext="shape" transform="translate(230.151,-139.341)">
			<title>Rectangle.8</title>
			<v:userDefs>
				<v:ud v:nameU="visVersion" v:val="VT0(14):26"/>
				<v:ud v:nameU="msvThemeColors" v:val="VT0(49):26"/>
				<v:ud v:nameU="msvThemeEffects" v:val="VT0(5):26"/>
			</v:userDefs>
			<path d="M0 785.7 A6.30015 6.30015 -180 0 0 6.3 792 L164.7 792 A6.30015 6.30015 -180 0 0 171 785.7 L171 694.8 A6.30015
						 6.30015 -180 0 0 164.7 688.5 L6.3 688.5 A6.30015 6.30015 -180 0 0 0 694.8 L0 785.7 Z" class="st2"/>
		</g>
		<g id="shape27-98" v:mID="27" v:groupContext="shape" transform="translate(239.151,-212.241)">
			<title>Rectangle.38</title>
			<desc>Permission Module</desc>
			<v:userDefs>
				<v:ud v:nameU="visVersion" v:val="VT0(14):26"/>
				<v:ud v:nameU="msvThemeColors" v:val="VT0(49):26"/>
				<v:ud v:nameU="msvThemeEffects" v:val="VT0(5):26"/>
			</v:userDefs>
			<v:textBlock v:margins="rect(4,4,4,4)"/>
			<v:textRect cx="34.875" cy="778.5" width="69.75" height="27"/>
			<path d="M-0 785.7 A6.30015 6.30015 -180 0 0 6.3 792 L63.45 792 A6.30015 6.30015 -180 0 0 69.75 785.7 L69.75 771.3 A6.30015
						 6.30015 -180 0 0 63.45 765 L6.3 765 A6.30015 6.30015 -180 0 0 0 771.3 L0 785.7 Z" class="st3"/>
			<text x="10.85" y="775.5" class="st4" v:langID="1033"><v:paragraph v:horizAlign="1"/><v:tabList/>Permission <tspan
						x="18.81" dy="1.2em" class="st5">Module</tspan></text>		</g>
		<g id="shape28-103" v:mID="28" v:groupContext="shape" transform="translate(315.651,-215.841)">
			<title>Sheet.28</title>
			<desc>AllJoyn Core</desc>
			<v:userDefs>
				<v:ud v:nameU="msvThemeColors" v:val="VT0(49):26"/>
				<v:ud v:nameU="msvThemeEffects" v:val="VT0(5):26"/>
			</v:userDefs>
			<v:textBlock v:margins="rect(4,4,4,4)"/>
			<v:textRect cx="36" cy="784" width="72" height="16"/>
			<path d="M0 785.7 A6.30015 6.30015 -180 0 0 6.3 792 L65.7 792 A6.30015 6.30015 -180 0 0 72 785.7 L72 782.3 A6.30015 6.30015
						 -180 0 0 65.7 776 L6.3 776 A6.30015 6.30015 -180 0 0 -0 782.3 L0 785.7 Z" class="st6"/>
			<text x="4.32" y="787.6" class="st7" v:langID="1033"><v:paragraph v:horizAlign="1"/><v:tabList/>AllJoyn Core</text>		</g>
		<g id="shape29-106" v:mID="29" v:groupContext="shape" transform="translate(247.026,-255.441)">
			<title>Rectangle.22</title>
			<desc>App Specific Interfaces</desc>
			<v:userDefs>
				<v:ud v:nameU="visVersion" v:val="VT0(14):26"/>
				<v:ud v:nameU="msvThemeColors" v:val="VT0(49):26"/>
				<v:ud v:nameU="msvThemeEffects" v:val="VT0(5):26"/>
			</v:userDefs>
			<v:textBlock v:margins="rect(4,4,4,4)"/>
			<v:textRect cx="69.8625" cy="778.5" width="139.73" height="27"/>
			<path d="M0 785.7 A6.30015 6.30015 -180 0 0 6.3 792 L133.42 792 A6.30015 6.30015 -180 0 0 139.72 785.7 L139.72 771.3
						 A6.30015 6.30015 -180 0 0 133.43 765 L6.3 765 A6.30015 6.30015 -180 0 0 0 771.3 L0 785.7 Z" class="st3"/>
			<text x="21.22" y="781.5" class="st4" v:langID="1033"><v:paragraph v:horizAlign="1"/><v:tabList/>App Specific Interfaces</text>		</g>
		<g id="shape30-110" v:mID="30" v:groupContext="shape" transform="translate(394.626,-429.141)">
			<title>Rectangle.41</title>
			<desc>ACL DB Producer Policy Membership Certs CA List</desc>
			<v:userDefs>
				<v:ud v:nameU="visVersion" v:val="VT0(14):26"/>
				<v:ud v:nameU="msvThemeColors" v:val="VT0(49):26"/>
				<v:ud v:nameU="msvThemeEffects" v:val="VT0(5):26"/>
			</v:userDefs>
			<v:textBlock v:margins="rect(4,4,4,4)"/>
			<v:textRect cx="43.2" cy="766.8" width="86.4" height="50.4"/>
			<path d="M0 785.7 A6.30015 6.30015 -180 0 0 6.3 792 L80.1 792 A6.30015 6.30015 -180 0 0 86.4 785.7 L86.4 747.9 A6.30015
						 6.30015 -180 0 0 80.1 741.6 L6.3 741.6 A6.30015 6.30015 -180 0 0 -0 747.9 L0 785.7 Z" class="st3"/>
			<text x="27.12" y="755.4" class="st4" v:langID="1033"><v:paragraph v:horizAlign="1"/><v:tabList/>ACL DB<v:newlineChar/><tspan
						x="16.1" dy="1.275em" class="st14">Producer Policy<v:newlineChar/></tspan><tspan x="11.79" dy="1.2em"
						class="st14">Membership Certs<v:newlineChar/></tspan><tspan x="31.25" dy="1.2em" class="st14">CA List</tspan></text>		</g>
		<g id="shape31-117" v:mID="31" v:groupContext="shape" transform="translate(135.426,-427.341)">
			<title>Rectangle.42</title>
			<desc>ACL DB Consumer Policy Membership Certs CA List</desc>
			<v:userDefs>
				<v:ud v:nameU="visVersion" v:val="VT0(14):26"/>
				<v:ud v:nameU="msvThemeColors" v:val="VT0(49):26"/>
				<v:ud v:nameU="msvThemeEffects" v:val="VT0(5):26"/>
			</v:userDefs>
			<v:textBlock v:margins="rect(4,4,4,4)"/>
			<v:textRect cx="43.2" cy="766.8" width="86.4" height="50.4"/>
			<path d="M0 785.7 A6.30015 6.30015 -180 0 0 6.3 792 L80.1 792 A6.30015 6.30015 -180 0 0 86.4 785.7 L86.4 747.9 A6.30015
						 6.30015 -180 0 0 80.1 741.6 L6.3 741.6 A6.30015 6.30015 -180 0 0 -0 747.9 L0 785.7 Z" class="st3"/>
			<text x="27.12" y="755.4" class="st4" v:langID="1033"><v:paragraph v:horizAlign="1"/><v:tabList/>ACL DB<v:newlineChar/><tspan
						x="14.48" dy="1.275em" class="st14">Consumer Policy<v:newlineChar/></tspan><tspan x="11.79" dy="1.2em"
						class="st14">Membership Certs<v:newlineChar/></tspan><tspan x="31.25" dy="1.2em" class="st14">CA List</tspan></text>		</g>
		<g id="shape32-124" v:mID="32" v:groupContext="shape" transform="translate(239.826,-146.541)">
			<title>Rectangle.43</title>
			<desc>ACL DB Consumer Policy Producer Policy Membership Certs CA List</desc>
			<v:userDefs>
				<v:ud v:nameU="visVersion" v:val="VT0(14):26"/>
				<v:ud v:nameU="msvThemeColors" v:val="VT0(49):26"/>
				<v:ud v:nameU="msvThemeEffects" v:val="VT0(5):26"/>
			</v:userDefs>
			<v:textBlock v:margins="rect(4,4,4,4)"/>
			<v:textRect cx="43.2" cy="763.2" width="86.4" height="57.6"/>
			<path d="M0 785.7 A6.30015 6.30015 -180 0 0 6.3 792 L80.1 792 A6.30015 6.30015 -180 0 0 86.4 785.7 L86.4 740.7 A6.30015
						 6.30015 -180 0 0 80.1 734.4 L6.3 734.4 A6.30015 6.30015 -180 0 0 0 740.7 L0 785.7 Z" class="st3"/>
			<text x="27.12" y="747" class="st4" v:langID="1033"><v:paragraph v:horizAlign="1"/><v:tabList/>ACL DB<v:newlineChar/><tspan
						x="14.48" dy="1.275em" class="st14">Consumer Policy<v:newlineChar/></tspan><tspan x="16.1" dy="1.2em"
						class="st14">Producer Policy<v:newlineChar/></tspan><tspan x="11.79" dy="1.2em" class="st14">Membership Certs<v:newlineChar/></tspan><tspan
						x="31.25" dy="1.2em" class="st14">CA List</tspan></text>		</g>
	</g>
</svg>
