<?xml version="1.0" encoding="UTF-8" standalone="no"?>
<!DOCTYPE svg PUBLIC "-//W3C//DTD SVG 1.0//EN" "http://www.w3.org/TR/2001/REC-SVG-20010904/DTD/svg10.dtd">
<!-- Generated by Microsoft Visio 11.0, SVG Export, v1.0 Drawing187.svg Page-1 -->
<svg xmlns="http://www.w3.org/2000/svg" xmlns:xlink="http://www.w3.org/1999/xlink" xmlns:ev="http://www.w3.org/2001/xml-events"
		xmlns:v="http://schemas.microsoft.com/visio/2003/SVGExtensions/" width="11in" height="8.5in" viewBox="0 0 792 612"
		xml:space="preserve" color-interpolation-filters="sRGB" class="st14">
	<v:documentProperties v:langID="1033" v:viewMarkup="false">
		<v:userDefs>
			<v:ud v:nameU="msvNoAutoConnect" v:val="VT0(0):26"/>
		</v:userDefs>
	</v:documentProperties>

	<style type="text/css">
	<![CDATA[
		.st1 {visibility:visible}
		.st2 {fill:#cdcdcd;fill-opacity:0.5;stroke:#cdcdcd;stroke-linecap:round;stroke-linejoin:round;stroke-opacity:0.5;stroke-width:0.25}
		.st3 {fill:url(#grad30-6);stroke:#404040;stroke-linecap:round;stroke-linejoin:round;stroke-width:0.25}
		.st4 {fill:#000000;font-family:Calibri;font-size:1.00001em}
		.st5 {fill:url(#grad30-18);stroke:#404040;stroke-linecap:round;stroke-linejoin:round;stroke-width:0.25}
		.st6 {stroke:#cdcdcd;stroke-linecap:round;stroke-linejoin:round;stroke-opacity:0.5;stroke-width:0.25}
		.st7 {stroke:#404040;stroke-linecap:round;stroke-linejoin:round;stroke-width:0.25}
		.st8 {fill:none;stroke:none;stroke-linecap:round;stroke-linejoin:round;stroke-width:0.25}
		.st9 {fill:#c00000;font-family:Calibri;font-size:0.833336em;font-weight:bold}
		.st10 {fill:#000000;font-family:Calibri;font-size:0.833336em}
		.st11 {marker-end:url(#mrkr13-117);marker-start:url(#mrkr13-115);stroke:#000000;stroke-linecap:round;stroke-linejoin:round;stroke-width:1}
		.st12 {fill:#000000;fill-opacity:1;stroke:#000000;stroke-opacity:1;stroke-width:0.28409090909091}
		.st13 {font-size:1em}
		.st14 {fill:none;fill-rule:evenodd;font-size:12px;overflow:visible;stroke-linecap:square;stroke-miterlimit:3}
	]]>
	</style>

	<defs id="Patterns_And_Gradients">
		<linearGradient id="grad30-6" v:fillPattern="30" v:foreground="#f0f0f0" v:background="#ffffff" x1="0" y1="1" x2="0" y2="0">
			<stop offset="0" style="stop-color:#f0f0f0;stop-opacity:1"/>
			<stop offset="1" style="stop-color:#ffffff;stop-opacity:1"/>
		</linearGradient>
		<linearGradient id="grad30-18" v:fillPattern="30" v:foreground="#f2c59f" v:background="#f6d5b9" x1="0" y1="1" x2="0" y2="0">
			<stop offset="0" style="stop-color:#f2c59f;stop-opacity:1"/>
			<stop offset="1" style="stop-color:#f6d5b9;stop-opacity:1"/>
		</linearGradient>
	</defs>
	<defs id="Markers">
		<g id="lend13">
			<path d="M 3 1 L 0 0 L 3 -1 L 3 1 " style="stroke:none"/>
		</g>
		<marker id="mrkr13-115" class="st12" v:arrowType="13" v:arrowSize="2" v:setback="10.2" refX="10.2" orient="auto"
				markerUnits="strokeWidth" overflow="visible">
			<use xlink:href="#lend13" transform="scale(3.52) "/>
		</marker>
		<marker id="mrkr13-117" class="st12" v:arrowType="13" v:arrowSize="2" v:setback="10.56" refX="-10.56" orient="auto"
				markerUnits="strokeWidth" overflow="visible">
			<use xlink:href="#lend13" transform="scale(-3.52,-3.52) "/>
		</marker>
	</defs>
	<g v:mID="0" v:index="1" v:groupContext="foregroundPage">
		<v:userDefs>
			<v:ud v:nameU="msvThemeColors" v:val="VT0(36):26"/>
			<v:ud v:nameU="msvThemeEffects" v:val="VT0(16):26"/>
			<v:ud v:nameU="msvThemeOrder" v:val="VT0(0):26"/>
		</v:userDefs>
		<title>Page-1</title>
		<v:pageProperties v:drawingScale="1" v:pageScale="1" v:drawingUnits="0" v:shadowOffsetX="9" v:shadowOffsetY="-9"/>
		<v:layer v:name="Connector" v:index="0"/>
		<g id="shape1-1" v:mID="1" v:groupContext="shape" transform="translate(177.849,-230.197)">
			<title>Rectangle.33</title>
			<v:userDefs>
				<v:ud v:nameU="visVersion" v:val="VT0(14):26"/>
				<v:ud v:nameU="msvThemeColors" v:val="VT0(36):26"/>
				<v:ud v:nameU="msvThemeEffects" v:val="VT0(16):26"/>
			</v:userDefs>
			<g id="shadow1-2" v:groupContext="shadow" v:shadowOffsetX="1.44" v:shadowOffsetY="-1.44" v:shadowType="1"
					transform="matrix(1,0,0,1,1.44,1.44)" class="st1">
				<rect x="0" y="459" width="182.25" height="153" class="st2"/>
			</g>
			<rect x="0" y="459" width="182.25" height="153" class="st3"/>
		</g>
		<g id="shape2-7" v:mID="2" v:groupContext="shape" transform="translate(195.526,-323.5)">
			<title>Rounded rectangle.23</title>
			<desc>App1</desc>
			<v:userDefs>
				<v:ud v:nameU="visVersion" v:val="VT0(14):26"/>
				<v:ud v:nameU="msvThemeColors" v:val="VT0(36):26"/>
				<v:ud v:nameU="msvThemeEffects" v:val="VT0(16):26"/>
			</v:userDefs>
			<v:textBlock v:margins="rect(4,4,4,4)"/>
			<v:textRect cx="31.9834" cy="599.509" width="63.97" height="24.9828"/>
			<g id="shadow2-8" v:groupContext="shadow" v:shadowOffsetX="1.44" v:shadowOffsetY="-1.44" v:shadowType="1"
					transform="matrix(1,0,0,1,1.44,1.44)" class="st1">
				<path d="M54.97 612 A9.00007 9.00007 -180 0 0 63.97 603 L63.97 596.02 A9.00007 9.00007 -180 0 0 54.97 587.02 L9 587.02
							 A9.00007 9.00007 -180 0 0 -0 596.02 L0 603 A9.00007 9.00007 -180 0 0 9 612 L54.97 612 Z" class="st2"/>
			</g>
			<path d="M54.97 612 A9.00007 9.00007 -180 0 0 63.97 603 L63.97 596.02 A9.00007 9.00007 -180 0 0 54.97 587.02 L9 587.02
						 A9.00007 9.00007 -180 0 0 -0 596.02 L0 603 A9.00007 9.00007 -180 0 0 9 612 L54.97 612 Z" class="st3"/>
			<text x="19.17" y="603.11" class="st4" v:langID="1033"><v:paragraph v:horizAlign="1"/><v:tabList/>App1</text>		</g>
		<g id="shape3-13" v:mID="3" v:groupContext="shape" transform="translate(191.51,-241.447)">
			<title>Rounded rectangle.24</title>
			<v:userDefs>
				<v:ud v:nameU="visVersion" v:val="VT0(14):26"/>
				<v:ud v:nameU="msvThemeColors" v:val="VT0(36):26"/>
				<v:ud v:nameU="msvThemeEffects" v:val="VT0(16):26"/>
			</v:userDefs>
			<g id="shadow3-14" v:groupContext="shadow" v:shadowOffsetX="1.44" v:shadowOffsetY="-1.44" v:shadowType="1"
					transform="matrix(1,0,0,1,1.44,1.44)" class="st1">
				<path d="M144 612 A9.00007 9.00007 -180 0 0 153 603 L153 569.25 A9.00007 9.00007 -180 0 0 144 560.25 L9 560.25 A9.00007
							 9.00007 -180 0 0 -0 569.25 L0 603 A9.00007 9.00007 -180 0 0 9 612 L144 612 Z" class="st2"/>
			</g>
			<path d="M144 612 A9.00007 9.00007 -180 0 0 153 603 L153 569.25 A9.00007 9.00007 -180 0 0 144 560.25 L9 560.25 A9.00007
						 9.00007 -180 0 0 -0 569.25 L0 603 A9.00007 9.00007 -180 0 0 9 612 L144 612 Z" class="st5"/>
		</g>
		<g id="shape4-19" v:mID="4" v:groupContext="shape" transform="translate(-384.49,319.534) rotate(-90)">
			<title>Sheet.4</title>
			<v:userDefs>
				<v:ud v:nameU="msvThemeColors" v:val="VT0(36):26"/>
				<v:ud v:nameU="msvThemeEffects" v:val="VT0(16):26"/>
			</v:userDefs>
			<g id="shadow4-20" v:groupContext="shadow" v:shadowOffsetX="1.44" v:shadowOffsetY="-1.44" v:shadowType="1"
					transform="matrix(1,0,0,1,-1.44,1.44)" class="st1">
				<path d="M0 612 L31.03 612" class="st6"/>
			</g>
			<path d="M0 612 L31.03 612" class="st7"/>
		</g>
		<g id="shape5-26" v:mID="5" v:groupContext="shape" transform="translate(-303.49,317.468) rotate(-90)">
			<title>Sheet.5</title>
			<v:userDefs>
				<v:ud v:nameU="msvThemeColors" v:val="VT0(36):26"/>
				<v:ud v:nameU="msvThemeEffects" v:val="VT0(16):26"/>
			</v:userDefs>
			<g id="shadow5-27" v:groupContext="shadow" v:shadowOffsetX="1.44" v:shadowOffsetY="-1.44" v:shadowType="1"
					transform="matrix(1,0,0,1,-1.44,1.44)" class="st1">
				<path d="M0 612 L28.97 612" class="st6"/>
			</g>
			<path d="M0 612 L28.97 612" class="st7"/>
		</g>
		<g id="shape6-33" v:mID="6" v:groupContext="shape" transform="translate(209.51,-366.483)">
			<title>Sheet.6</title>
			<desc>AllJoyn Provider Device</desc>
			<v:userDefs>
				<v:ud v:nameU="msvThemeColors" v:val="VT0(36):26"/>
				<v:ud v:nameU="msvThemeEffects" v:val="VT0(16):26"/>
			</v:userDefs>
			<v:textBlock v:margins="rect(4,4,4,4)"/>
			<v:textRect cx="63.5346" cy="605.75" width="127.07" height="12.5"/>
			<rect x="0" y="599.5" width="127.069" height="12.5" class="st8"/>
			<text x="6.69" y="609.35" class="st4" v:langID="1033"><v:paragraph v:horizAlign="1"/><v:tabList/>AllJoyn Provider Device</text>		</g>
		<g id="shape7-36" v:mID="7" v:groupContext="shape" transform="translate(276.526,-323.5)">
			<title>Rounded rectangle.21</title>
			<desc>App2</desc>
			<v:userDefs>
				<v:ud v:nameU="visVersion" v:val="VT0(14):26"/>
				<v:ud v:nameU="msvThemeColors" v:val="VT0(36):26"/>
				<v:ud v:nameU="msvThemeEffects" v:val="VT0(16):26"/>
			</v:userDefs>
			<v:textBlock v:margins="rect(4,4,4,4)"/>
			<v:textRect cx="31.9834" cy="599.509" width="63.97" height="24.9828"/>
			<g id="shadow7-37" v:groupContext="shadow" v:shadowOffsetX="1.44" v:shadowOffsetY="-1.44" v:shadowType="1"
					transform="matrix(1,0,0,1,1.44,1.44)" class="st1">
				<path d="M54.97 612 A9.00007 9.00007 -180 0 0 63.97 603 L63.97 596.02 A9.00007 9.00007 -180 0 0 54.97 587.02 L9 587.02
							 A9.00007 9.00007 -180 0 0 -0 596.02 L0 603 A9.00007 9.00007 -180 0 0 9 612 L54.97 612 Z" class="st2"/>
			</g>
			<path d="M54.97 612 A9.00007 9.00007 -180 0 0 63.97 603 L63.97 596.02 A9.00007 9.00007 -180 0 0 54.97 587.02 L9 587.02
						 A9.00007 9.00007 -180 0 0 -0 596.02 L0 603 A9.00007 9.00007 -180 0 0 9 612 L54.97 612 Z" class="st3"/>
			<text x="19.17" y="603.11" class="st4" v:langID="1033"><v:paragraph v:horizAlign="1"/><v:tabList/>App2</text>		</g>
		<g id="shape8-42" v:mID="8" v:groupContext="shape" transform="translate(190.867,-241.769)">
			<title>Sheet.8</title>
			<desc>:100.1</desc>
			<v:userDefs>
				<v:ud v:nameU="msvThemeColors" v:val="VT0(36):26"/>
				<v:ud v:nameU="msvThemeEffects" v:val="VT0(16):26"/>
			</v:userDefs>
			<v:textBlock v:margins="rect(4,4,4,4)"/>
			<v:textRect cx="21.2143" cy="604.125" width="42.43" height="15.75"/>
			<rect x="0" y="596.25" width="42.4286" height="15.75" class="st8"/>
			<text x="8.36" y="607.13" class="st9" v:langID="1033"><v:paragraph v:horizAlign="1"/><v:tabList/>:100.1</text>		</g>
		<g id="shape9-45" v:mID="9" v:groupContext="shape" transform="translate(223.652,-291.912)">
			<title>Sheet.9</title>
			<desc>:100.2</desc>
			<v:userDefs>
				<v:ud v:nameU="msvThemeColors" v:val="VT0(36):26"/>
				<v:ud v:nameU="msvThemeEffects" v:val="VT0(16):26"/>
			</v:userDefs>
			<v:textBlock v:margins="rect(4,4,4,4)"/>
			<v:textRect cx="21.2143" cy="604.125" width="42.43" height="15.75"/>
			<rect x="0" y="596.25" width="42.4286" height="15.75" class="st8"/>
			<text x="8.36" y="607.13" class="st9" v:langID="1033"><v:paragraph v:horizAlign="1"/><v:tabList/>:100.2</text>		</g>
		<g id="shape10-48" v:mID="10" v:groupContext="shape" transform="translate(305.938,-291.912)">
			<title>Sheet.10</title>
			<desc>:100.3</desc>
			<v:userDefs>
				<v:ud v:nameU="msvThemeColors" v:val="VT0(36):26"/>
				<v:ud v:nameU="msvThemeEffects" v:val="VT0(16):26"/>
			</v:userDefs>
			<v:textBlock v:margins="rect(4,4,4,4)"/>
			<v:textRect cx="21.2143" cy="604.125" width="42.43" height="15.75"/>
			<rect x="0" y="596.25" width="42.4286" height="15.75" class="st8"/>
			<text x="8.36" y="607.13" class="st9" v:langID="1033"><v:paragraph v:horizAlign="1"/><v:tabList/>:100.3</text>		</g>
		<g id="shape11-51" v:mID="11" v:groupContext="shape" transform="translate(192.152,-272.626)">
			<title>Sheet.11</title>
			<desc>GUID=100</desc>
			<v:userDefs>
				<v:ud v:nameU="msvThemeColors" v:val="VT0(36):26"/>
				<v:ud v:nameU="msvThemeEffects" v:val="VT0(16):26"/>
			</v:userDefs>
			<v:textBlock v:margins="rect(4,4,4,4)"/>
			<v:textRect cx="29.5313" cy="604.125" width="59.07" height="15.75"/>
			<rect x="0" y="596.25" width="59.0625" height="15.75" class="st8"/>
			<text x="8.74" y="607.13" class="st10" v:langID="1033"><v:paragraph v:horizAlign="1"/><v:tabList/>GUID=100</text>		</g>
		<g id="shape12-54" v:mID="12" v:groupContext="shape" transform="translate(235.224,-256.555)">
			<title>Sheet.12</title>
			<desc>AllJoyn Router</desc>
			<v:userDefs>
				<v:ud v:nameU="msvThemeColors" v:val="VT0(36):26"/>
				<v:ud v:nameU="msvThemeEffects" v:val="VT0(16):26"/>
			</v:userDefs>
			<v:textBlock v:margins="rect(4,4,4,4)"/>
			<v:textRect cx="52" cy="604" width="104" height="16"/>
			<rect x="0" y="596" width="104" height="16" class="st8"/>
			<text x="16.81" y="607.6" class="st4" v:langID="1033"><v:paragraph v:horizAlign="1"/><v:tabList/>AllJoyn Router</text>		</g>
		<g id="shape13-57" v:mID="13" v:groupContext="shape" transform="translate(430.652,-230.197)">
			<title>Rectangle.13</title>
			<v:userDefs>
				<v:ud v:nameU="visVersion" v:val="VT0(14):26"/>
				<v:ud v:nameU="msvThemeColors" v:val="VT0(36):26"/>
				<v:ud v:nameU="msvThemeEffects" v:val="VT0(16):26"/>
			</v:userDefs>
			<g id="shadow13-58" v:groupContext="shadow" v:shadowOffsetX="1.44" v:shadowOffsetY="-1.44" v:shadowType="1"
					transform="matrix(1,0,0,1,1.44,1.44)" class="st1">
				<rect x="0" y="459" width="182.25" height="153" class="st2"/>
			</g>
			<rect x="0" y="459" width="182.25" height="153" class="st3"/>
		</g>
		<g id="shape14-62" v:mID="14" v:groupContext="shape" transform="translate(448.33,-323.5)">
			<title>Rounded rectangle.14</title>
			<desc>App3</desc>
			<v:userDefs>
				<v:ud v:nameU="visVersion" v:val="VT0(14):26"/>
				<v:ud v:nameU="msvThemeColors" v:val="VT0(36):26"/>
				<v:ud v:nameU="msvThemeEffects" v:val="VT0(16):26"/>
			</v:userDefs>
			<v:textBlock v:margins="rect(4,4,4,4)"/>
			<v:textRect cx="31.9834" cy="599.509" width="63.97" height="24.9828"/>
			<g id="shadow14-63" v:groupContext="shadow" v:shadowOffsetX="1.44" v:shadowOffsetY="-1.44" v:shadowType="1"
					transform="matrix(1,0,0,1,1.44,1.44)" class="st1">
				<path d="M54.97 612 A9.00007 9.00007 -180 0 0 63.97 603 L63.97 596.02 A9.00007 9.00007 -180 0 0 54.97 587.02 L9 587.02
							 A9.00007 9.00007 -180 0 0 -0 596.02 L0 603 A9.00007 9.00007 -180 0 0 9 612 L54.97 612 Z" class="st2"/>
			</g>
			<path d="M54.97 612 A9.00007 9.00007 -180 0 0 63.97 603 L63.97 596.02 A9.00007 9.00007 -180 0 0 54.97 587.02 L9 587.02
						 A9.00007 9.00007 -180 0 0 -0 596.02 L0 603 A9.00007 9.00007 -180 0 0 9 612 L54.97 612 Z" class="st3"/>
			<text x="19.17" y="603.11" class="st4" v:langID="1033"><v:paragraph v:horizAlign="1"/><v:tabList/>App3</text>		</g>
		<g id="shape15-68" v:mID="15" v:groupContext="shape" transform="translate(444.313,-241.447)">
			<title>Rounded rectangle.15</title>
			<v:userDefs>
				<v:ud v:nameU="visVersion" v:val="VT0(14):26"/>
				<v:ud v:nameU="msvThemeColors" v:val="VT0(36):26"/>
				<v:ud v:nameU="msvThemeEffects" v:val="VT0(16):26"/>
			</v:userDefs>
			<g id="shadow15-69" v:groupContext="shadow" v:shadowOffsetX="1.44" v:shadowOffsetY="-1.44" v:shadowType="1"
					transform="matrix(1,0,0,1,1.44,1.44)" class="st1">
				<path d="M144 612 A9.00007 9.00007 -180 0 0 153 603 L153 569.25 A9.00007 9.00007 -180 0 0 144 560.25 L9 560.25 A9.00007
							 9.00007 -180 0 0 -0 569.25 L0 603 A9.00007 9.00007 -180 0 0 9 612 L144 612 Z" class="st2"/>
			</g>
			<path d="M144 612 A9.00007 9.00007 -180 0 0 153 603 L153 569.25 A9.00007 9.00007 -180 0 0 144 560.25 L9 560.25 A9.00007
						 9.00007 -180 0 0 -0 569.25 L0 603 A9.00007 9.00007 -180 0 0 9 612 L144 612 Z" class="st5"/>
		</g>
		<g id="shape16-73" v:mID="16" v:groupContext="shape" transform="translate(-131.687,319.534) rotate(-90)">
			<title>Sheet.16</title>
			<v:userDefs>
				<v:ud v:nameU="msvThemeColors" v:val="VT0(36):26"/>
				<v:ud v:nameU="msvThemeEffects" v:val="VT0(16):26"/>
			</v:userDefs>
			<g id="shadow16-74" v:groupContext="shadow" v:shadowOffsetX="1.44" v:shadowOffsetY="-1.44" v:shadowType="1"
					transform="matrix(1,0,0,1,-1.44,1.44)" class="st1">
				<path d="M0 612 L31.03 612" class="st6"/>
			</g>
			<path d="M0 612 L31.03 612" class="st7"/>
		</g>
		<g id="shape17-80" v:mID="17" v:groupContext="shape" transform="translate(-50.6869,317.468) rotate(-90)">
			<title>Sheet.17</title>
			<v:userDefs>
				<v:ud v:nameU="msvThemeColors" v:val="VT0(36):26"/>
				<v:ud v:nameU="msvThemeEffects" v:val="VT0(16):26"/>
			</v:userDefs>
			<g id="shadow17-81" v:groupContext="shadow" v:shadowOffsetX="1.44" v:shadowOffsetY="-1.44" v:shadowType="1"
					transform="matrix(1,0,0,1,-1.44,1.44)" class="st1">
				<path d="M0 612 L28.97 612" class="st6"/>
			</g>
			<path d="M0 612 L28.97 612" class="st7"/>
		</g>
		<g id="shape18-87" v:mID="18" v:groupContext="shape" transform="translate(529.33,-323.5)">
			<title>Rounded rectangle.18</title>
			<desc>App4</desc>
			<v:userDefs>
				<v:ud v:nameU="visVersion" v:val="VT0(14):26"/>
				<v:ud v:nameU="msvThemeColors" v:val="VT0(36):26"/>
				<v:ud v:nameU="msvThemeEffects" v:val="VT0(16):26"/>
			</v:userDefs>
			<v:textBlock v:margins="rect(4,4,4,4)"/>
			<v:textRect cx="31.9834" cy="599.509" width="63.97" height="24.9828"/>
			<g id="shadow18-88" v:groupContext="shadow" v:shadowOffsetX="1.44" v:shadowOffsetY="-1.44" v:shadowType="1"
					transform="matrix(1,0,0,1,1.44,1.44)" class="st1">
				<path d="M54.97 612 A9.00007 9.00007 -180 0 0 63.97 603 L63.97 596.02 A9.00007 9.00007 -180 0 0 54.97 587.02 L9 587.02
							 A9.00007 9.00007 -180 0 0 -0 596.02 L0 603 A9.00007 9.00007 -180 0 0 9 612 L54.97 612 Z" class="st2"/>
			</g>
			<path d="M54.97 612 A9.00007 9.00007 -180 0 0 63.97 603 L63.97 596.02 A9.00007 9.00007 -180 0 0 54.97 587.02 L9 587.02
						 A9.00007 9.00007 -180 0 0 -0 596.02 L0 603 A9.00007 9.00007 -180 0 0 9 612 L54.97 612 Z" class="st3"/>
			<text x="19.17" y="603.11" class="st4" v:langID="1033"><v:paragraph v:horizAlign="1"/><v:tabList/>App4</text>		</g>
		<g id="shape19-93" v:mID="19" v:groupContext="shape" transform="translate(443.67,-241.769)">
			<title>Sheet.19</title>
			<desc>:200.1</desc>
			<v:userDefs>
				<v:ud v:nameU="msvThemeColors" v:val="VT0(36):26"/>
				<v:ud v:nameU="msvThemeEffects" v:val="VT0(16):26"/>
			</v:userDefs>
			<v:textBlock v:margins="rect(4,4,4,4)"/>
			<v:textRect cx="21.2143" cy="604.125" width="42.43" height="15.75"/>
			<rect x="0" y="596.25" width="42.4286" height="15.75" class="st8"/>
			<text x="8.36" y="607.13" class="st9" v:langID="1033"><v:paragraph v:horizAlign="1"/><v:tabList/>:200.1</text>		</g>
		<g id="shape20-96" v:mID="20" v:groupContext="shape" transform="translate(476.456,-291.912)">
			<title>Sheet.20</title>
			<desc>:200.2</desc>
			<v:userDefs>
				<v:ud v:nameU="msvThemeColors" v:val="VT0(36):26"/>
				<v:ud v:nameU="msvThemeEffects" v:val="VT0(16):26"/>
			</v:userDefs>
			<v:textBlock v:margins="rect(4,4,4,4)"/>
			<v:textRect cx="21.2143" cy="604.125" width="42.43" height="15.75"/>
			<rect x="0" y="596.25" width="42.4286" height="15.75" class="st8"/>
			<text x="8.36" y="607.13" class="st9" v:langID="1033"><v:paragraph v:horizAlign="1"/><v:tabList/>:200.2</text>		</g>
		<g id="shape21-99" v:mID="21" v:groupContext="shape" transform="translate(558.742,-291.912)">
			<title>Sheet.21</title>
			<desc>:200.3</desc>
			<v:userDefs>
				<v:ud v:nameU="msvThemeColors" v:val="VT0(36):26"/>
				<v:ud v:nameU="msvThemeEffects" v:val="VT0(16):26"/>
			</v:userDefs>
			<v:textBlock v:margins="rect(4,4,4,4)"/>
			<v:textRect cx="21.2143" cy="604.125" width="42.43" height="15.75"/>
			<rect x="0" y="596.25" width="42.4286" height="15.75" class="st8"/>
			<text x="8.36" y="607.13" class="st9" v:langID="1033"><v:paragraph v:horizAlign="1"/><v:tabList/>:200.3</text>		</g>
		<g id="shape22-102" v:mID="22" v:groupContext="shape" transform="translate(444.956,-272.626)">
			<title>Sheet.22</title>
			<desc>GUID=200</desc>
			<v:userDefs>
				<v:ud v:nameU="msvThemeColors" v:val="VT0(36):26"/>
				<v:ud v:nameU="msvThemeEffects" v:val="VT0(16):26"/>
			</v:userDefs>
			<v:textBlock v:margins="rect(4,4,4,4)"/>
			<v:textRect cx="29.5313" cy="604.125" width="59.07" height="15.75"/>
			<rect x="0" y="596.25" width="59.0625" height="15.75" class="st8"/>
			<text x="8.74" y="607.13" class="st10" v:langID="1033"><v:paragraph v:horizAlign="1"/><v:tabList/>GUID=200</text>		</g>
		<g id="shape23-105" v:mID="23" v:groupContext="shape" transform="translate(488.027,-256.555)">
			<title>Sheet.23</title>
			<desc>AllJoyn Router</desc>
			<v:userDefs>
				<v:ud v:nameU="msvThemeColors" v:val="VT0(36):26"/>
				<v:ud v:nameU="msvThemeEffects" v:val="VT0(16):26"/>
			</v:userDefs>
			<v:textBlock v:margins="rect(4,4,4,4)"/>
			<v:textRect cx="52" cy="604" width="104" height="16"/>
			<rect x="0" y="596" width="104" height="16" class="st8"/>
			<text x="16.81" y="607.6" class="st4" v:langID="1033"><v:paragraph v:horizAlign="1"/><v:tabList/>AllJoyn Router</text>		</g>
		<g id="shape24-108" v:mID="24" v:groupContext="shape" v:layerMember="0"
				transform="translate(349.604,956.49) rotate(-0.537132) scale(1,-1)">
			<title>Line-curve connector.37</title>
			<v:userDefs>
				<v:ud v:nameU="AntiScale" v:val="VT0(1):26"/>
				<v:ud v:nameU="Scale" v:val="VT0(1):26"/>
				<v:ud v:nameU="visVersion" v:val="VT0(14):26"/>
				<v:ud v:nameU="msvThemeColors" v:val="VT0(36):26"/>
				<v:ud v:nameU="msvThemeEffects" v:val="VT0(16):26"/>
			</v:userDefs>
			<path d="M10.2 612 L10.56 612 L39.25 612 L66.49 612 L92.3 612" class="st11"/>
		</g>
		<g id="shape25-118" v:mID="25" v:groupContext="shape" transform="translate(347.081,-272.626)">
			<title>Sheet.25</title>
			<desc>AllJoyn Session (sessionId = 10)</desc>
			<v:userDefs>
				<v:ud v:nameU="msvThemeColors" v:val="VT0(36):26"/>
				<v:ud v:nameU="msvThemeEffects" v:val="VT0(16):26"/>
			</v:userDefs>
			<v:textBlock v:margins="rect(4,4,4,4)"/>
			<v:textRect cx="48.5357" cy="604.125" width="97.08" height="15.75"/>
			<rect x="0" y="596.25" width="97.0714" height="15.75" class="st8"/>
			<text x="17.99" y="601.13" class="st10" v:langID="1033"><v:paragraph v:horizAlign="1"/><v:tabList/>AllJoyn Session<v:newlineChar/><tspan
						x="17.03" dy="1.2em" class="st13">(</tspan>sessionId = 10)</text>		</g>
		<g id="shape26-122" v:mID="26" v:groupContext="shape" transform="translate(454.86,-365.198)">
			<title>Sheet.26</title>
			<desc>AllJoyn Consumer Device</desc>
			<v:userDefs>
				<v:ud v:nameU="msvThemeColors" v:val="VT0(36):26"/>
				<v:ud v:nameU="msvThemeEffects" v:val="VT0(16):26"/>
			</v:userDefs>
			<v:textBlock v:margins="rect(4,4,4,4)"/>
			<v:textRect cx="68.6831" cy="604.143" width="137.37" height="15.7143"/>
			<rect x="0" y="596.286" width="137.366" height="15.7143" class="st8"/>
			<text x="7.63" y="607.74" class="st4" v:langID="1033"><v:paragraph v:horizAlign="1"/><v:tabList/>AllJoyn Consumer Device</text>		</g>
		<g id="shape27-125" v:mID="27" v:groupContext="shape" transform="translate(352.786,-244.983)">
			<title>Sheet.27</title>
			<desc>B2B endpoint= :100.4</desc>
			<v:userDefs>
				<v:ud v:nameU="msvThemeColors" v:val="VT0(36):26"/>
				<v:ud v:nameU="msvThemeEffects" v:val="VT0(16):26"/>
			</v:userDefs>
			<v:textBlock v:margins="rect(4,4,4,4)"/>
			<v:textRect cx="43.2723" cy="604.125" width="86.55" height="15.75"/>
			<rect x="0" y="596.25" width="86.5446" height="15.75" class="st8"/>
			<text x="12.61" y="601.13" class="st9" v:langID="1033"><v:paragraph v:horizAlign="1"/><v:tabList/>B2B endpoint= <tspan
						x="30.42" dy="1.2em" class="st13">:</tspan>100.4</text>		</g>
	</g>
</svg>
