<?xml version="1.0" encoding="UTF-8" standalone="no"?>
<!DOCTYPE svg PUBLIC "-//W3C//DTD SVG 1.0//EN" "http://www.w3.org/TR/2001/REC-SVG-20010904/DTD/svg10.dtd">
<!-- Generated by Microsoft Visio 11.0, SVG Export, v1.0 Drawing64.svg Page-1 -->
<svg xmlns="http://www.w3.org/2000/svg" xmlns:xlink="http://www.w3.org/1999/xlink" xmlns:ev="http://www.w3.org/2001/xml-events"
		xmlns:v="http://schemas.microsoft.com/visio/2003/SVGExtensions/" width="11in" height="8.5in" viewBox="0 0 792 612"
		xml:space="preserve" color-interpolation-filters="sRGB" class="st14">
	<v:documentProperties v:langID="1033" v:viewMarkup="false">
		<v:userDefs>
			<v:ud v:nameU="msvNoAutoConnect" v:val="VT0(0):26"/>
		</v:userDefs>
	</v:documentProperties>

	<style type="text/css">
	<![CDATA[
		.st1 {visibility:visible}
		.st2 {fill:#cdcdcd;fill-opacity:0.5;stroke:#cdcdcd;stroke-linecap:round;stroke-linejoin:round;stroke-opacity:0.5;stroke-width:0.25}
		.st3 {fill:url(#grad30-6);stroke:#404040;stroke-linecap:round;stroke-linejoin:round;stroke-width:0.25}
		.st4 {fill:none;stroke:none;stroke-linecap:round;stroke-linejoin:round;stroke-width:0.25}
		.st5 {fill:#000000;font-family:Calibri;font-size:1.16666em}
		.st6 {fill:url(#grad30-15);stroke:#404040;stroke-linecap:round;stroke-linejoin:round;stroke-width:0.25}
		.st7 {fill:#000000;font-family:Calibri;font-size:1.00001em}
		.st8 {font-size:1em}
		.st9 {fill:url(#grad30-48);stroke:#404040;stroke-linecap:round;stroke-linejoin:round;stroke-width:0.25}
		.st10 {fill:#000000;font-family:Calibri;font-size:0.833336em}
		.st11 {stroke:#404040;stroke-linecap:round;stroke-linejoin:round;stroke-width:1}
		.st12 {marker-end:url(#mrkr13-100);stroke:#404040;stroke-linecap:round;stroke-linejoin:round;stroke-width:1}
		.st13 {fill:#404040;fill-opacity:1;stroke:#404040;stroke-opacity:1;stroke-width:0.28409090909091}
		.st14 {fill:none;fill-rule:evenodd;font-size:12px;overflow:visible;stroke-linecap:square;stroke-miterlimit:3}
	]]>
	</style>

	<defs id="Patterns_And_Gradients">
		<linearGradient id="grad30-6" v:fillPattern="30" v:foreground="#c9c9c9" v:background="#d8d8d8" x1="0" y1="1" x2="0" y2="0">
			<stop offset="0" style="stop-color:#c9c9c9;stop-opacity:1"/>
			<stop offset="1" style="stop-color:#d8d8d8;stop-opacity:1"/>
		</linearGradient>
		<linearGradient id="grad30-15" v:fillPattern="30" v:foreground="#f0f0f0" v:background="#ffffff" x1="0" y1="1" x2="0" y2="0">
			<stop offset="0" style="stop-color:#f0f0f0;stop-opacity:1"/>
			<stop offset="1" style="stop-color:#ffffff;stop-opacity:1"/>
		</linearGradient>
		<linearGradient id="grad30-48" v:fillPattern="30" v:foreground="#e78636" v:background="#ea9651" x1="0" y1="1" x2="0" y2="0">
			<stop offset="0" style="stop-color:#e78636;stop-opacity:1"/>
			<stop offset="1" style="stop-color:#ea9651;stop-opacity:1"/>
		</linearGradient>
	</defs>
	<defs id="Markers">
		<g id="lend13">
			<path d="M 3 1 L 0 0 L 3 -1 L 3 1 " style="stroke:none"/>
		</g>
		<marker id="mrkr13-100" class="st13" v:arrowType="13" v:arrowSize="2" v:setback="10.56" refX="-10.56" orient="auto"
				markerUnits="strokeWidth" overflow="visible">
			<use xlink:href="#lend13" transform="scale(-3.52,-3.52) "/>
		</marker>
	</defs>
	<g v:mID="0" v:index="1" v:groupContext="foregroundPage">
		<v:userDefs>
			<v:ud v:nameU="msvThemeColors" v:val="VT0(36):26"/>
			<v:ud v:nameU="msvThemeEffects" v:val="VT0(16):26"/>
			<v:ud v:nameU="msvThemeOrder" v:val="VT0(0):26"/>
		</v:userDefs>
		<title>Page-1</title>
		<v:pageProperties v:drawingScale="1" v:pageScale="1" v:drawingUnits="0" v:shadowOffsetX="9" v:shadowOffsetY="-9"/>
		<v:layer v:name="Connector" v:index="0"/>
		<g id="shape1-1" v:mID="1" v:groupContext="shape" transform="translate(146.25,-202.5)">
			<title>Rounded rectangle.32</title>
			<v:userDefs>
				<v:ud v:nameU="visVersion" v:val="VT0(14):26"/>
				<v:ud v:nameU="msvThemeColors" v:val="VT0(36):26"/>
				<v:ud v:nameU="msvThemeEffects" v:val="VT0(16):26"/>
			</v:userDefs>
			<g id="shadow1-2" v:groupContext="shadow" v:shadowOffsetX="1.44" v:shadowOffsetY="-1.44" v:shadowType="1"
					transform="matrix(1,0,0,1,1.44,1.44)" class="st1">
				<path d="M202.5 612 A9.00007 9.00007 -180 0 0 211.5 603 L211.5 445.5 A9.00007 9.00007 -180 0 0 202.5 436.5 L9 436.5
							 A9.00007 9.00007 -180 0 0 -0 445.5 L0 603 A9.00007 9.00007 -180 0 0 9 612 L202.5 612 Z" class="st2"/>
			</g>
			<path d="M202.5 612 A9.00007 9.00007 -180 0 0 211.5 603 L211.5 445.5 A9.00007 9.00007 -180 0 0 202.5 436.5 L9 436.5 A9.00007
						 9.00007 -180 0 0 -0 445.5 L0 603 A9.00007 9.00007 -180 0 0 9 612 L202.5 612 Z" class="st3"/>
		</g>
		<g id="shape2-7" v:mID="2" v:groupContext="shape" transform="translate(173.531,-384.5)">
			<title>Sheet.2</title>
			<desc>Thin AllJoyn Device</desc>
			<v:userDefs>
				<v:ud v:nameU="msvThemeColors" v:val="VT0(36):26"/>
				<v:ud v:nameU="msvThemeEffects" v:val="VT0(16):26"/>
			</v:userDefs>
			<v:textBlock v:margins="rect(4,4,4,4)"/>
			<v:textRect cx="87.6094" cy="604" width="175.22" height="16"/>
			<rect x="0" y="596" width="175.219" height="16" class="st4"/>
			<text x="34.62" y="608.2" class="st5" v:langID="1033"><v:paragraph v:horizAlign="1"/><v:tabList/>Thin AllJoyn Device</text>		</g>
		<g id="shape3-10" v:mID="3" v:groupContext="shape" transform="translate(161.438,-267.75)">
			<title>Rectangle.32</title>
			<v:userDefs>
				<v:ud v:nameU="visVersion" v:val="VT0(14):26"/>
				<v:ud v:nameU="msvThemeColors" v:val="VT0(36):26"/>
				<v:ud v:nameU="msvThemeEffects" v:val="VT0(16):26"/>
			</v:userDefs>
			<g id="shadow3-11" v:groupContext="shadow" v:shadowOffsetX="1.44" v:shadowOffsetY="-1.44" v:shadowType="1"
					transform="matrix(1,0,0,1,1.44,1.44)" class="st1">
				<rect x="0" y="524.25" width="173.813" height="87.75" class="st2"/>
			</g>
			<rect x="0" y="524.25" width="173.813" height="87.75" class="st6"/>
		</g>
		<g id="shape4-16" v:mID="4" v:groupContext="shape" transform="translate(204.75,-333.5)">
			<title>Sheet.4</title>
			<desc>App</desc>
			<v:userDefs>
				<v:ud v:nameU="msvThemeColors" v:val="VT0(36):26"/>
				<v:ud v:nameU="msvThemeEffects" v:val="VT0(16):26"/>
			</v:userDefs>
			<v:textBlock v:margins="rect(4,4,4,4)"/>
			<v:textRect cx="49.5" cy="599" width="99" height="26"/>
			<rect x="0" y="586" width="99" height="26" class="st4"/>
			<text x="39.72" y="602.6" class="st7" v:langID="1033"><v:paragraph v:horizAlign="1"/><v:tabList/>App</text>		</g>
		<g id="shape5-19" v:mID="5" v:groupContext="shape" transform="translate(168.188,-274.5)">
			<title>Rectangle.27</title>
			<desc>Service Frameworks</desc>
			<v:userDefs>
				<v:ud v:nameU="visVersion" v:val="VT0(14):26"/>
				<v:ud v:nameU="msvThemeColors" v:val="VT0(36):26"/>
				<v:ud v:nameU="msvThemeEffects" v:val="VT0(16):26"/>
			</v:userDefs>
			<v:textBlock v:margins="rect(4,4,4,4)"/>
			<v:textRect cx="38.5313" cy="594" width="77.07" height="36"/>
			<g id="shadow5-20" v:groupContext="shadow" v:shadowOffsetX="1.44" v:shadowOffsetY="-1.44" v:shadowType="1"
					transform="matrix(1,0,0,1,1.44,1.44)" class="st1">
				<rect x="0" y="576" width="77.0625" height="36" class="st2"/>
			</g>
			<rect x="0" y="576" width="77.0625" height="36" class="st6"/>
			<text x="21.09" y="590.4" class="st7" v:langID="1033"><v:paragraph v:horizAlign="1"/><v:tabList/>Service <tspan
						x="8.41" dy="1.2em" class="st8">Frameworks</tspan></text>		</g>
		<g id="shape6-26" v:mID="6" v:groupContext="shape" transform="translate(254.25,-274.5)">
			<title>Rectangle.20</title>
			<desc>App-Specific Services</desc>
			<v:userDefs>
				<v:ud v:nameU="visVersion" v:val="VT0(14):26"/>
				<v:ud v:nameU="msvThemeColors" v:val="VT0(36):26"/>
				<v:ud v:nameU="msvThemeEffects" v:val="VT0(16):26"/>
			</v:userDefs>
			<v:textBlock v:margins="rect(4,4,4,4)"/>
			<v:textRect cx="37.125" cy="594" width="74.25" height="36"/>
			<g id="shadow6-27" v:groupContext="shadow" v:shadowOffsetX="1.44" v:shadowOffsetY="-1.44" v:shadowType="1"
					transform="matrix(1,0,0,1,1.44,1.44)" class="st1">
				<rect x="0" y="576" width="74.25" height="36" class="st2"/>
			</g>
			<rect x="0" y="576" width="74.25" height="36" class="st6"/>
			<text x="6.96" y="590.4" class="st7" v:langID="1033"><v:paragraph v:horizAlign="1"/><v:tabList/>App-Specific <tspan
						x="17.33" dy="1.2em" class="st8">Services</tspan></text>		</g>
		<g id="shape7-33" v:mID="7" v:groupContext="shape" transform="translate(402.75,-175.5)">
			<title>Rounded rectangle.14</title>
			<v:userDefs>
				<v:ud v:nameU="visVersion" v:val="VT0(14):26"/>
				<v:ud v:nameU="msvThemeColors" v:val="VT0(36):26"/>
				<v:ud v:nameU="msvThemeEffects" v:val="VT0(16):26"/>
			</v:userDefs>
			<g id="shadow7-34" v:groupContext="shadow" v:shadowOffsetX="1.44" v:shadowOffsetY="-1.44" v:shadowType="1"
					transform="matrix(1,0,0,1,1.44,1.44)" class="st1">
				<path d="M234 612 A9.00007 9.00007 -180 0 0 243 603 L243 378 A9.00007 9.00007 -180 0 0 234 369 L9 369 A9.00007 9.00007
							 -180 0 0 -0 378 L0 603 A9.00007 9.00007 -180 0 0 9 612 L234 612 Z" class="st2"/>
			</g>
			<path d="M234 612 A9.00007 9.00007 -180 0 0 243 603 L243 378 A9.00007 9.00007 -180 0 0 234 369 L9 369 A9.00007 9.00007
						 -180 0 0 -0 378 L0 603 A9.00007 9.00007 -180 0 0 9 612 L234 612 Z" class="st3"/>
		</g>
		<g id="shape8-38" v:mID="8" v:groupContext="shape" transform="translate(426.094,-189)">
			<title>Rectangle.15</title>
			<v:userDefs>
				<v:ud v:nameU="visVersion" v:val="VT0(14):26"/>
				<v:ud v:nameU="msvThemeColors" v:val="VT0(36):26"/>
				<v:ud v:nameU="msvThemeEffects" v:val="VT0(16):26"/>
			</v:userDefs>
			<g id="shadow8-39" v:groupContext="shadow" v:shadowOffsetX="1.44" v:shadowOffsetY="-1.44" v:shadowType="1"
					transform="matrix(1,0,0,1,1.44,1.44)" class="st1">
				<rect x="0" y="400.5" width="192.656" height="211.5" class="st2"/>
			</g>
			<rect x="0" y="400.5" width="192.656" height="211.5" class="st3"/>
		</g>
		<g id="shape9-43" v:mID="9" v:groupContext="shape" transform="translate(438.75,-265.5)">
			<title>Rectangle.9</title>
			<desc>AllJoyn Thin Core Library</desc>
			<v:userDefs>
				<v:ud v:nameU="visVersion" v:val="VT0(14):26"/>
				<v:ud v:nameU="msvThemeColors" v:val="VT0(36):26"/>
				<v:ud v:nameU="msvThemeEffects" v:val="VT0(16):26"/>
			</v:userDefs>
			<v:textBlock v:margins="rect(4,4,4,4)"/>
			<v:textRect cx="83.25" cy="601.875" width="166.5" height="20.25"/>
			<g id="shadow9-44" v:groupContext="shadow" v:shadowOffsetX="1.44" v:shadowOffsetY="-1.44" v:shadowType="1"
					transform="matrix(1,0,0,1,1.44,1.44)" class="st1">
				<rect x="0" y="591.75" width="166.5" height="20.25" class="st2"/>
			</g>
			<rect x="0" y="591.75" width="166.5" height="20.25" class="st9"/>
			<text x="33.16" y="604.88" class="st10" v:langID="1033"><v:paragraph v:horizAlign="1"/><v:tabList/>AllJoyn Thin Core Library</text>		</g>
		<g id="shape10-50" v:mID="10" v:groupContext="shape" transform="translate(447.75,-420.5)">
			<title>Sheet.10</title>
			<desc>Standard AllJoyn Device</desc>
			<v:userDefs>
				<v:ud v:nameU="msvThemeColors" v:val="VT0(36):26"/>
				<v:ud v:nameU="msvThemeEffects" v:val="VT0(16):26"/>
			</v:userDefs>
			<v:textBlock v:margins="rect(4,4,4,4)"/>
			<v:textRect cx="76.2188" cy="604" width="152.44" height="16"/>
			<rect x="0" y="596" width="152.438" height="16" class="st4"/>
			<text x="8.28" y="608.2" class="st5" v:langID="1033"><v:paragraph v:horizAlign="1"/><v:tabList/>Standard AllJoyn Device</text>		</g>
		<g id="shape11-53" v:mID="11" v:groupContext="shape" transform="translate(438.75,-283.5)">
			<title>Rectangle.11</title>
			<v:userDefs>
				<v:ud v:nameU="visVersion" v:val="VT0(14):26"/>
				<v:ud v:nameU="msvThemeColors" v:val="VT0(36):26"/>
				<v:ud v:nameU="msvThemeEffects" v:val="VT0(16):26"/>
			</v:userDefs>
			<g id="shadow11-54" v:groupContext="shadow" v:shadowOffsetX="1.44" v:shadowOffsetY="-1.44" v:shadowType="1"
					transform="matrix(1,0,0,1,1.44,1.44)" class="st1">
				<rect x="0" y="522" width="166.5" height="90" class="st2"/>
			</g>
			<rect x="0" y="522" width="166.5" height="90" class="st6"/>
		</g>
		<g id="shape12-58" v:mID="12" v:groupContext="shape" transform="translate(438.75,-199.487)">
			<title>Rectangle.19</title>
			<desc>AllJoyn Router</desc>
			<v:userDefs>
				<v:ud v:nameU="visVersion" v:val="VT0(14):26"/>
				<v:ud v:nameU="msvThemeColors" v:val="VT0(36):26"/>
				<v:ud v:nameU="msvThemeEffects" v:val="VT0(16):26"/>
			</v:userDefs>
			<v:textBlock v:margins="rect(4,4,4,4)"/>
			<v:textRect cx="83.25" cy="592.493" width="166.5" height="39.0134"/>
			<g id="shadow12-59" v:groupContext="shadow" v:shadowOffsetX="1.44" v:shadowOffsetY="-1.44" v:shadowType="1"
					transform="matrix(1,0,0,1,1.44,1.44)" class="st1">
				<rect x="0" y="572.987" width="166.5" height="39.0134" class="st2"/>
			</g>
			<rect x="0" y="572.987" width="166.5" height="39.0134" class="st6"/>
			<text x="48.06" y="596.09" class="st7" v:langID="1033"><v:paragraph v:horizAlign="1"/><v:tabList/>AllJoyn Router</text>		</g>
		<g id="shape13-64" v:mID="13" v:groupContext="shape" v:layerMember="0"
				transform="translate(-90,346.5) rotate(-90) scale(-1,1)">
			<title>Line-curve connector.22</title>
			<v:userDefs>
				<v:ud v:nameU="AntiScale" v:val="VT0(1):26"/>
				<v:ud v:nameU="Scale" v:val="VT0(1):26"/>
				<v:ud v:nameU="visVersion" v:val="VT0(14):26"/>
				<v:ud v:nameU="msvThemeColors" v:val="VT0(36):26"/>
				<v:ud v:nameU="msvThemeEffects" v:val="VT0(16):26"/>
			</v:userDefs>
			<path d="M0 612 L14.17 612 L27 612 L27 612" class="st11"/>
		</g>
		<g id="shape14-68" v:mID="14" v:groupContext="shape" transform="translate(474.75,-351.5)">
			<title>Sheet.14</title>
			<desc>App</desc>
			<v:userDefs>
				<v:ud v:nameU="msvThemeColors" v:val="VT0(36):26"/>
				<v:ud v:nameU="msvThemeEffects" v:val="VT0(16):26"/>
			</v:userDefs>
			<v:textBlock v:margins="rect(4,4,4,4)"/>
			<v:textRect cx="49.5" cy="599" width="99" height="26"/>
			<rect x="0" y="586" width="99" height="26" class="st4"/>
			<text x="39.72" y="602.6" class="st7" v:langID="1033"><v:paragraph v:horizAlign="1"/><v:tabList/>App</text>		</g>
		<g id="shape15-71" v:mID="15" v:groupContext="shape" transform="translate(494.847,-389.25)">
			<title>Sheet.15</title>
			<desc>AllJoyn App Package</desc>
			<v:userDefs>
				<v:ud v:nameU="msvThemeColors" v:val="VT0(36):26"/>
				<v:ud v:nameU="msvThemeEffects" v:val="VT0(16):26"/>
			</v:userDefs>
			<v:textBlock v:margins="rect(4,4,4,4)"/>
			<v:textRect cx="57.3197" cy="609.75" width="114.64" height="4.5"/>
			<rect x="0" y="607.5" width="114.639" height="4.5" class="st4"/>
			<text x="7.74" y="613.35" class="st7" v:langID="1033"><v:paragraph v:horizAlign="1"/><v:tabList/>AllJoyn App Package</text>		</g>
		<g id="shape16-74" v:mID="16" v:groupContext="shape" transform="translate(445.5,-292.5)">
			<title>Rectangle.25</title>
			<desc>Service Frameworks</desc>
			<v:userDefs>
				<v:ud v:nameU="visVersion" v:val="VT0(14):26"/>
				<v:ud v:nameU="msvThemeColors" v:val="VT0(36):26"/>
				<v:ud v:nameU="msvThemeEffects" v:val="VT0(16):26"/>
			</v:userDefs>
			<v:textBlock v:margins="rect(4,4,4,4)"/>
			<v:textRect cx="37.4063" cy="594" width="74.82" height="36"/>
			<g id="shadow16-75" v:groupContext="shadow" v:shadowOffsetX="1.44" v:shadowOffsetY="-1.44" v:shadowType="1"
					transform="matrix(1,0,0,1,1.44,1.44)" class="st1">
				<rect x="0" y="576" width="74.8125" height="36" class="st2"/>
			</g>
			<rect x="0" y="576" width="74.8125" height="36" class="st6"/>
			<text x="19.96" y="590.4" class="st7" v:langID="1033"><v:paragraph v:horizAlign="1"/><v:tabList/>Service <tspan
						x="7.29" dy="1.2em" class="st8">Frameworks</tspan></text>		</g>
		<g id="shape17-81" v:mID="17" v:groupContext="shape" transform="translate(524.25,-292.5)">
			<title>Rectangle.26</title>
			<desc>App-Specific Services</desc>
			<v:userDefs>
				<v:ud v:nameU="visVersion" v:val="VT0(14):26"/>
				<v:ud v:nameU="msvThemeColors" v:val="VT0(36):26"/>
				<v:ud v:nameU="msvThemeEffects" v:val="VT0(16):26"/>
			</v:userDefs>
			<v:textBlock v:margins="rect(4,4,4,4)"/>
			<v:textRect cx="37.125" cy="594" width="74.25" height="36"/>
			<g id="shadow17-82" v:groupContext="shadow" v:shadowOffsetX="1.44" v:shadowOffsetY="-1.44" v:shadowType="1"
					transform="matrix(1,0,0,1,1.44,1.44)" class="st1">
				<rect x="0" y="576" width="74.25" height="36" class="st2"/>
			</g>
			<rect x="0" y="576" width="74.25" height="36" class="st6"/>
			<text x="6.96" y="590.4" class="st7" v:langID="1033"><v:paragraph v:horizAlign="1"/><v:tabList/>App-Specific <tspan
						x="17.33" dy="1.2em" class="st8">Services</tspan></text>		</g>
		<g id="shape18-88" v:mID="18" v:groupContext="shape" transform="translate(161.438,-247.5)">
			<title>Rectangle</title>
			<desc>AllJoyn Thin Core Library</desc>
			<v:userDefs>
				<v:ud v:nameU="visVersion" v:val="VT0(14):26"/>
				<v:ud v:nameU="msvThemeColors" v:val="VT0(36):26"/>
				<v:ud v:nameU="msvThemeEffects" v:val="VT0(16):26"/>
			</v:userDefs>
			<v:textBlock v:margins="rect(4,4,4,4)"/>
			<v:textRect cx="86.9063" cy="601.875" width="173.82" height="20.25"/>
			<g id="shadow18-89" v:groupContext="shadow" v:shadowOffsetX="1.44" v:shadowOffsetY="-1.44" v:shadowType="1"
					transform="matrix(1,0,0,1,1.44,1.44)" class="st1">
				<rect x="0" y="591.75" width="173.813" height="20.25" class="st2"/>
			</g>
			<rect x="0" y="591.75" width="173.813" height="20.25" class="st9"/>
			<text x="36.81" y="604.88" class="st10" v:langID="1033"><v:paragraph v:horizAlign="1"/><v:tabList/>AllJoyn Thin Core Library</text>		</g>
		<g id="shape19-94" v:mID="19" v:groupContext="shape" v:layerMember="0" transform="translate(248.344,-247.5)">
			<title>Dynamic connector</title>
			<v:userDefs>
				<v:ud v:nameU="visVersion" v:val="VT0(14):26"/>
				<v:ud v:nameU="msvThemeColors" v:val="VT0(36):26"/>
				<v:ud v:nameU="msvThemeEffects" v:val="VT0(16):26"/>
			</v:userDefs>
			<path d="M0 612 L0 640.51 L179.85 640.51" class="st12"/>
		</g>
	</g>
</svg>
