<?xml version="1.0" encoding="UTF-8" standalone="no"?>
<!DOCTYPE svg PUBLIC "-//W3C//DTD SVG 1.0//EN" "http://www.w3.org/TR/2001/REC-SVG-20010904/DTD/svg10.dtd">
<!-- Generated by Microsoft Visio 11.0, SVG Export, v1.0 Drawing28.svg Page-1 -->
<svg xmlns="http://www.w3.org/2000/svg" xmlns:xlink="http://www.w3.org/1999/xlink" xmlns:ev="http://www.w3.org/2001/xml-events"
		xmlns:v="http://schemas.microsoft.com/visio/2003/SVGExtensions/" width="11in" height="8.5in" viewBox="0 0 792 612"
		xml:space="preserve" color-interpolation-filters="sRGB" class="st16">
	<v:documentProperties v:langID="1033" v:viewMarkup="false">
		<v:userDefs>
			<v:ud v:nameU="msvNoAutoConnect" v:val="VT0(0):26"/>
		</v:userDefs>
	</v:documentProperties>

	<style type="text/css">
	<![CDATA[
		.st1 {visibility:visible}
		.st2 {fill:#cdcdcd;fill-opacity:0.5;stroke:#cdcdcd;stroke-linecap:round;stroke-linejoin:round;stroke-opacity:0.5;stroke-width:0.25}
		.st3 {fill:url(#grad30-6);stroke:#404040;stroke-linecap:round;stroke-linejoin:round;stroke-width:0.25}
		.st4 {fill:url(#grad30-17);stroke:#404040;stroke-linecap:round;stroke-linejoin:round;stroke-width:0.25}
		.st5 {fill:#000000;font-family:Calibri;font-size:1.00001em}
		.st6 {font-size:1em}
		.st7 {fill:none;stroke:none;stroke-linecap:round;stroke-linejoin:round;stroke-width:0.25}
		.st8 {fill:#000000;font-family:Calibri;font-size:1.16666em}
		.st9 {stroke:#cdcdcd;stroke-linecap:round;stroke-linejoin:round;stroke-opacity:0.5;stroke-width:0.25}
		.st10 {stroke:#404040;stroke-linecap:round;stroke-linejoin:round;stroke-width:0.25}
		.st11 {fill:url(#grad30-54);stroke:#404040;stroke-linecap:round;stroke-linejoin:round;stroke-width:0.25}
		.st12 {marker-end:url(#mrkr5-85);marker-start:url(#mrkr5-83);stroke:#cdcdcd;stroke-linecap:round;stroke-linejoin:round;stroke-opacity:0.5;stroke-width:0.25}
		.st13 {fill:#cdcdcd;fill-opacity:0.5;stroke:#cdcdcd;stroke-opacity:0.5;stroke-width:0.090252707581227}
		.st14 {marker-end:url(#mrkr5-94);marker-start:url(#mrkr5-92);stroke:#404040;stroke-linecap:round;stroke-linejoin:round;stroke-width:0.25}
		.st15 {fill:#404040;fill-opacity:1;stroke:#404040;stroke-opacity:1;stroke-width:0.090252707581227}
		.st16 {fill:none;fill-rule:evenodd;font-size:12px;overflow:visible;stroke-linecap:square;stroke-miterlimit:3}
	]]>
	</style>

	<defs id="Patterns_And_Gradients">
		<linearGradient id="grad30-6" v:fillPattern="30" v:foreground="#f0f0f0" v:background="#ffffff" x1="0" y1="1" x2="0" y2="0">
			<stop offset="0" style="stop-color:#f0f0f0;stop-opacity:1"/>
			<stop offset="1" style="stop-color:#ffffff;stop-opacity:1"/>
		</linearGradient>
		<linearGradient id="grad30-17" v:fillPattern="30" v:foreground="#f2c59f" v:background="#f6d5b9" x1="0" y1="1" x2="0" y2="0">
			<stop offset="0" style="stop-color:#f2c59f;stop-opacity:1"/>
			<stop offset="1" style="stop-color:#f6d5b9;stop-opacity:1"/>
		</linearGradient>
		<linearGradient id="grad30-54" v:fillPattern="30" v:foreground="#445a9d" v:background="#4e66b2" x1="0" y1="1" x2="0" y2="0">
			<stop offset="0" style="stop-color:#445a9d;stop-opacity:1"/>
			<stop offset="1" style="stop-color:#4e66b2;stop-opacity:1"/>
		</linearGradient>
	</defs>
	<defs id="Markers">
		<g id="lend5">
			<path d="M 2 1 L 0 0 L 1.98117 -0.993387 C 1.67173 -0.364515 1.67301 0.372641 1.98465 1.00043 " style="stroke:none"/>
		</g>
		<marker id="mrkr5-83" class="st13" v:arrowType="5" v:arrowSize="2" v:setback="17.95" refX="17.95" orient="auto"
				markerUnits="strokeWidth" overflow="visible">
			<use xlink:href="#lend5" transform="scale(11.08) "/>
		</marker>
		<marker id="mrkr5-85" class="st13" v:arrowType="5" v:arrowSize="2" v:setback="19.39" refX="-19.39" orient="auto"
				markerUnits="strokeWidth" overflow="visible">
			<use xlink:href="#lend5" transform="scale(-11.08,-11.08) "/>
		</marker>
		<marker id="mrkr5-92" class="st15" v:arrowType="5" v:arrowSize="2" v:setback="17.95" refX="17.95" orient="auto"
				markerUnits="strokeWidth" overflow="visible">
			<use xlink:href="#lend5" transform="scale(11.08) "/>
		</marker>
		<marker id="mrkr5-94" class="st15" v:arrowType="5" v:arrowSize="2" v:setback="19.39" refX="-19.39" orient="auto"
				markerUnits="strokeWidth" overflow="visible">
			<use xlink:href="#lend5" transform="scale(-11.08,-11.08) "/>
		</marker>
	</defs>
	<g v:mID="0" v:index="1" v:groupContext="foregroundPage">
		<v:userDefs>
			<v:ud v:nameU="msvThemeColors" v:val="VT0(36):26"/>
			<v:ud v:nameU="msvThemeEffects" v:val="VT0(16):26"/>
			<v:ud v:nameU="msvThemeOrder" v:val="VT0(0):26"/>
		</v:userDefs>
		<title>Page-1</title>
		<v:pageProperties v:drawingScale="1" v:pageScale="1" v:drawingUnits="0" v:shadowOffsetX="9" v:shadowOffsetY="-9"/>
		<g id="shape1-1" v:mID="1" v:groupContext="shape" transform="translate(199.125,-205.75)">
			<title>Rectangle.1</title>
			<v:userDefs>
				<v:ud v:nameU="visVersion" v:val="VT0(14):26"/>
				<v:ud v:nameU="msvThemeColors" v:val="VT0(36):26"/>
				<v:ud v:nameU="msvThemeEffects" v:val="VT0(16):26"/>
			</v:userDefs>
			<g id="shadow1-2" v:groupContext="shadow" v:shadowOffsetX="1.44" v:shadowOffsetY="-1.44" v:shadowType="1"
					transform="matrix(1,0,0,1,1.44,1.44)" class="st1">
				<rect x="0" y="429.975" width="148.5" height="182.025" class="st2"/>
			</g>
			<rect x="0" y="429.975" width="148.5" height="182.025" class="st3"/>
		</g>
		<g id="shape2-7" v:mID="2" v:groupContext="shape" transform="translate(215.775,-268.3)">
			<title>Rounded rectangle.5</title>
			<v:userDefs>
				<v:ud v:nameU="visVersion" v:val="VT0(14):26"/>
				<v:ud v:nameU="msvThemeColors" v:val="VT0(36):26"/>
				<v:ud v:nameU="msvThemeEffects" v:val="VT0(16):26"/>
			</v:userDefs>
			<g id="shadow2-8" v:groupContext="shadow" v:shadowOffsetX="1.44" v:shadowOffsetY="-1.44" v:shadowType="1"
					transform="matrix(1,0,0,1,1.44,1.44)" class="st1">
				<path d="M106.2 612 A9.00007 9.00007 -180 0 0 115.2 603 L115.2 519.75 A9.00007 9.00007 -180 0 0 106.2 510.75 L9 510.75
							 A9.00007 9.00007 -180 0 0 -0 519.75 L0 603 A9.00007 9.00007 -180 0 0 9 612 L106.2 612 Z" class="st2"/>
			</g>
			<path d="M106.2 612 A9.00007 9.00007 -180 0 0 115.2 603 L115.2 519.75 A9.00007 9.00007 -180 0 0 106.2 510.75 L9 510.75
						 A9.00007 9.00007 -180 0 0 -0 519.75 L0 603 A9.00007 9.00007 -180 0 0 9 612 L106.2 612 Z" class="st3"/>
		</g>
		<g id="shape3-12" v:mID="3" v:groupContext="shape" transform="translate(245.475,-278.2)">
			<title>Rounded rectangle</title>
			<desc>Service Object</desc>
			<v:userDefs>
				<v:ud v:nameU="visVersion" v:val="VT0(14):26"/>
				<v:ud v:nameU="msvThemeColors" v:val="VT0(36):26"/>
				<v:ud v:nameU="msvThemeEffects" v:val="VT0(16):26"/>
			</v:userDefs>
			<v:textBlock v:margins="rect(4,4,4,4)"/>
			<v:textRect cx="29.925" cy="582.975" width="59.86" height="58.05"/>
			<g id="shadow3-13" v:groupContext="shadow" v:shadowOffsetX="1.44" v:shadowOffsetY="-1.44" v:shadowType="1"
					transform="matrix(1,0,0,1,1.44,1.44)" class="st1">
				<path d="M50.85 612 A9.00007 9.00007 -180 0 0 59.85 603 L59.85 562.95 A9.00007 9.00007 -180 0 0 50.85 553.95 L9 553.95
							 A9.00007 9.00007 -180 0 0 -0 562.95 L0 603 A9.00007 9.00007 -180 0 0 9 612 L50.85 612 Z" class="st2"/>
			</g>
			<path d="M50.85 612 A9.00007 9.00007 -180 0 0 59.85 603 L59.85 562.95 A9.00007 9.00007 -180 0 0 50.85 553.95 L9 553.95
						 A9.00007 9.00007 -180 0 0 -0 562.95 L0 603 A9.00007 9.00007 -180 0 0 9 612 L50.85 612 Z" class="st4"/>
			<text x="12.48" y="579.38" class="st5" v:langID="1033"><v:paragraph v:horizAlign="1"/><v:tabList/>Service <tspan
						x="13.83" dy="1.2em" class="st6">Object</tspan></text>		</g>
		<g id="shape4-20" v:mID="4" v:groupContext="shape" transform="translate(205.875,-390.7)">
			<title>Sheet.4</title>
			<desc>Producer Device</desc>
			<v:userDefs>
				<v:ud v:nameU="msvThemeColors" v:val="VT0(36):26"/>
				<v:ud v:nameU="msvThemeEffects" v:val="VT0(16):26"/>
			</v:userDefs>
			<v:textBlock v:margins="rect(4,4,4,4)"/>
			<v:textRect cx="69.75" cy="604" width="139.5" height="16"/>
			<rect x="0" y="596" width="139.5" height="16" class="st7"/>
			<text x="23.18" y="608.2" class="st8" v:langID="1033"><v:paragraph v:horizAlign="1"/><v:tabList/>Producer Device</text>		</g>
		<g id="shape5-23" v:mID="5" v:groupContext="shape" transform="translate(218.475,-222.4)">
			<title>Rectangle.33</title>
			<desc>AllJoyn Bus</desc>
			<v:userDefs>
				<v:ud v:nameU="visVersion" v:val="VT0(14):26"/>
				<v:ud v:nameU="msvThemeColors" v:val="VT0(36):26"/>
				<v:ud v:nameU="msvThemeEffects" v:val="VT0(16):26"/>
			</v:userDefs>
			<v:textBlock v:margins="rect(4,4,4,4)"/>
			<v:textRect cx="55.575" cy="600.075" width="111.15" height="23.85"/>
			<g id="shadow5-24" v:groupContext="shadow" v:shadowOffsetX="1.44" v:shadowOffsetY="-1.44" v:shadowType="1"
					transform="matrix(1,0,0,1,1.44,1.44)" class="st1">
				<rect x="0" y="588.15" width="111.15" height="23.85" class="st2"/>
			</g>
			<rect x="0" y="588.15" width="111.15" height="23.85" class="st3"/>
			<text x="28.28" y="603.68" class="st5" v:langID="1033"><v:paragraph v:horizAlign="1"/><v:tabList/>AllJoyn Bus</text>		</g>
		<g id="shape6-29" v:mID="6" v:groupContext="shape" transform="translate(222.975,-348.4)">
			<title>Sheet.6</title>
			<desc>AllJoyn App</desc>
			<v:userDefs>
				<v:ud v:nameU="msvThemeColors" v:val="VT0(36):26"/>
				<v:ud v:nameU="msvThemeEffects" v:val="VT0(16):26"/>
			</v:userDefs>
			<v:textBlock v:margins="rect(4,4,4,4)"/>
			<v:textRect cx="52" cy="604" width="104" height="16"/>
			<rect x="0" y="596" width="104" height="16" class="st7"/>
			<text x="18.98" y="608.2" class="st8" v:langID="1033"><v:paragraph v:horizAlign="1"/><v:tabList/>AllJoyn App</text>		</g>
		<g id="shape7-32" v:mID="7" v:groupContext="shape" transform="translate(-338.625,365.3) rotate(-90)">
			<title>Sheet.7</title>
			<v:userDefs>
				<v:ud v:nameU="msvThemeColors" v:val="VT0(36):26"/>
				<v:ud v:nameU="msvThemeEffects" v:val="VT0(16):26"/>
			</v:userDefs>
			<g id="shadow7-33" v:groupContext="shadow" v:shadowOffsetX="1.44" v:shadowOffsetY="-1.44" v:shadowType="1"
					transform="matrix(1,0,0,1,-1.44,1.44)" class="st1">
				<path d="M0 612 L21 612" class="st9"/>
			</g>
			<path d="M0 612 L21 612" class="st10"/>
		</g>
		<g id="shape8-39" v:mID="8" v:groupContext="shape" transform="translate(444.375,-205.3)">
			<title>Rectangle.8</title>
			<v:userDefs>
				<v:ud v:nameU="visVersion" v:val="VT0(14):26"/>
				<v:ud v:nameU="msvThemeColors" v:val="VT0(36):26"/>
				<v:ud v:nameU="msvThemeEffects" v:val="VT0(16):26"/>
			</v:userDefs>
			<g id="shadow8-40" v:groupContext="shadow" v:shadowOffsetX="1.44" v:shadowOffsetY="-1.44" v:shadowType="1"
					transform="matrix(1,0,0,1,1.44,1.44)" class="st1">
				<rect x="0" y="429.975" width="148.5" height="182.025" class="st2"/>
			</g>
			<rect x="0" y="429.975" width="148.5" height="182.025" class="st3"/>
		</g>
		<g id="shape9-44" v:mID="9" v:groupContext="shape" transform="translate(461.025,-267.85)">
			<title>Rounded rectangle.9</title>
			<v:userDefs>
				<v:ud v:nameU="visVersion" v:val="VT0(14):26"/>
				<v:ud v:nameU="msvThemeColors" v:val="VT0(36):26"/>
				<v:ud v:nameU="msvThemeEffects" v:val="VT0(16):26"/>
			</v:userDefs>
			<g id="shadow9-45" v:groupContext="shadow" v:shadowOffsetX="1.44" v:shadowOffsetY="-1.44" v:shadowType="1"
					transform="matrix(1,0,0,1,1.44,1.44)" class="st1">
				<path d="M106.2 612 A9.00007 9.00007 -180 0 0 115.2 603 L115.2 519.75 A9.00007 9.00007 -180 0 0 106.2 510.75 L9 510.75
							 A9.00007 9.00007 -180 0 0 -0 519.75 L0 603 A9.00007 9.00007 -180 0 0 9 612 L106.2 612 Z" class="st2"/>
			</g>
			<path d="M106.2 612 A9.00007 9.00007 -180 0 0 115.2 603 L115.2 519.75 A9.00007 9.00007 -180 0 0 106.2 510.75 L9 510.75
						 A9.00007 9.00007 -180 0 0 -0 519.75 L0 603 A9.00007 9.00007 -180 0 0 9 612 L106.2 612 Z" class="st3"/>
		</g>
		<g id="shape10-49" v:mID="10" v:groupContext="shape" transform="translate(490.725,-277.75)">
			<title>Rounded rectangle.10</title>
			<desc>Proxy Object</desc>
			<v:userDefs>
				<v:ud v:nameU="visVersion" v:val="VT0(14):26"/>
				<v:ud v:nameU="msvThemeColors" v:val="VT0(36):26"/>
				<v:ud v:nameU="msvThemeEffects" v:val="VT0(16):26"/>
			</v:userDefs>
			<v:textBlock v:margins="rect(4,4,4,4)"/>
			<v:textRect cx="29.925" cy="582.975" width="59.86" height="58.05"/>
			<g id="shadow10-50" v:groupContext="shadow" v:shadowOffsetX="1.44" v:shadowOffsetY="-1.44" v:shadowType="1"
					transform="matrix(1,0,0,1,1.44,1.44)" class="st1">
				<path d="M50.85 612 A9.00007 9.00007 -180 0 0 59.85 603 L59.85 562.95 A9.00007 9.00007 -180 0 0 50.85 553.95 L9 553.95
							 A9.00007 9.00007 -180 0 0 -0 562.95 L0 603 A9.00007 9.00007 -180 0 0 9 612 L50.85 612 Z" class="st2"/>
			</g>
			<path d="M50.85 612 A9.00007 9.00007 -180 0 0 59.85 603 L59.85 562.95 A9.00007 9.00007 -180 0 0 50.85 553.95 L9 553.95
						 A9.00007 9.00007 -180 0 0 -0 562.95 L0 603 A9.00007 9.00007 -180 0 0 9 612 L50.85 612 Z" class="st11"/>
			<text x="16.26" y="579.38" class="st5" v:langID="1033"><v:paragraph v:horizAlign="1"/><v:tabList/>Proxy <tspan
						x="13.83" dy="1.2em" class="st6">Object</tspan></text>		</g>
		<g id="shape11-57" v:mID="11" v:groupContext="shape" transform="translate(444.375,-390)">
			<title>Sheet.11</title>
			<desc>Consumer Device</desc>
			<v:userDefs>
				<v:ud v:nameU="msvThemeColors" v:val="VT0(36):26"/>
				<v:ud v:nameU="msvThemeEffects" v:val="VT0(16):26"/>
			</v:userDefs>
			<v:textBlock v:margins="rect(4,4,4,4)"/>
			<v:textRect cx="73.125" cy="604" width="146.25" height="16"/>
			<rect x="0" y="596" width="146.25" height="16" class="st7"/>
			<text x="23.51" y="608.2" class="st8" v:langID="1033"><v:paragraph v:horizAlign="1"/><v:tabList/>Consumer Device</text>		</g>
		<g id="shape12-60" v:mID="12" v:groupContext="shape" transform="translate(463.725,-221.95)">
			<title>Rectangle.12</title>
			<desc>AllJoyn Bus</desc>
			<v:userDefs>
				<v:ud v:nameU="visVersion" v:val="VT0(14):26"/>
				<v:ud v:nameU="msvThemeColors" v:val="VT0(36):26"/>
				<v:ud v:nameU="msvThemeEffects" v:val="VT0(16):26"/>
			</v:userDefs>
			<v:textBlock v:margins="rect(4,4,4,4)"/>
			<v:textRect cx="55.575" cy="600.075" width="111.15" height="23.85"/>
			<g id="shadow12-61" v:groupContext="shadow" v:shadowOffsetX="1.44" v:shadowOffsetY="-1.44" v:shadowType="1"
					transform="matrix(1,0,0,1,1.44,1.44)" class="st1">
				<rect x="0" y="588.15" width="111.15" height="23.85" class="st2"/>
			</g>
			<rect x="0" y="588.15" width="111.15" height="23.85" class="st3"/>
			<text x="28.28" y="603.68" class="st5" v:langID="1033"><v:paragraph v:horizAlign="1"/><v:tabList/>AllJoyn Bus</text>		</g>
		<g id="shape13-66" v:mID="13" v:groupContext="shape" transform="translate(468.225,-347.95)">
			<title>Sheet.13</title>
			<desc>AllJoyn App</desc>
			<v:userDefs>
				<v:ud v:nameU="msvThemeColors" v:val="VT0(36):26"/>
				<v:ud v:nameU="msvThemeEffects" v:val="VT0(16):26"/>
			</v:userDefs>
			<v:textBlock v:margins="rect(4,4,4,4)"/>
			<v:textRect cx="52" cy="604" width="104" height="16"/>
			<rect x="0" y="596" width="104" height="16" class="st7"/>
			<text x="18.98" y="608.2" class="st8" v:langID="1033"><v:paragraph v:horizAlign="1"/><v:tabList/>AllJoyn App</text>		</g>
		<g id="shape14-69" v:mID="14" v:groupContext="shape" transform="translate(-93.375,365.75) rotate(-90)">
			<title>Sheet.14</title>
			<v:userDefs>
				<v:ud v:nameU="msvThemeColors" v:val="VT0(36):26"/>
				<v:ud v:nameU="msvThemeEffects" v:val="VT0(16):26"/>
			</v:userDefs>
			<g id="shadow14-70" v:groupContext="shadow" v:shadowOffsetX="1.44" v:shadowOffsetY="-1.44" v:shadowType="1"
					transform="matrix(1,0,0,1,-1.44,1.44)" class="st1">
				<path d="M0 612 L21 612" class="st9"/>
			</g>
			<path d="M0 612 L21 612" class="st10"/>
		</g>
		<g id="shape15-76" v:mID="15" v:groupContext="shape" transform="translate(304.138,-307.9) rotate(-0.069031)">
			<title>Sheet.15</title>
			<v:userDefs>
				<v:ud v:nameU="msvThemeColors" v:val="VT0(36):26"/>
				<v:ud v:nameU="msvThemeEffects" v:val="VT0(16):26"/>
			</v:userDefs>
			<g id="shadow15-77" v:groupContext="shadow" v:shadowOffsetX="1.44" v:shadowOffsetY="-1.44" v:shadowType="1"
					transform="matrix(1,5.781E-020,-2.51992E-020,1,1.43826,1.44173)" class="st1">
				<path d="M4.49 612 L4.85 612 L181.9 612" class="st12"/>
			</g>
			<path d="M4.49 612 L4.85 612 L181.9 612" class="st14"/>
		</g>
		<g id="shape16-95" v:mID="16" v:groupContext="shape" transform="translate(329.625,-232.75)">
			<title>Sheet.16</title>
			<v:userDefs>
				<v:ud v:nameU="msvThemeColors" v:val="VT0(36):26"/>
				<v:ud v:nameU="msvThemeEffects" v:val="VT0(16):26"/>
			</v:userDefs>
			<g id="shadow16-96" v:groupContext="shadow" v:shadowOffsetX="1.44" v:shadowOffsetY="-1.44" v:shadowType="1"
					transform="matrix(1,0,0,1,1.44,1.44)" class="st1">
				<path d="M0 612 L135 612" class="st9"/>
			</g>
			<path d="M0 612 L135 612" class="st10"/>
		</g>
	</g>
</svg>
