<?xml version="1.0" encoding="UTF-8" standalone="no"?>
<!DOCTYPE svg PUBLIC "-//W3C//DTD SVG 1.0//EN" "http://www.w3.org/TR/2001/REC-SVG-20010904/DTD/svg10.dtd">
<!-- Generated by Microsoft Visio 11.0, SVG Export, v1.0 Drawing4.svg Page-1 -->
<svg xmlns="http://www.w3.org/2000/svg" xmlns:xlink="http://www.w3.org/1999/xlink" xmlns:ev="http://www.w3.org/2001/xml-events"
		xmlns:v="http://schemas.microsoft.com/visio/2003/SVGExtensions/" width="11in" height="8.5in" viewBox="0 0 792 612"
		xml:space="preserve" color-interpolation-filters="sRGB" class="st19">
	<v:documentProperties v:langID="1033" v:viewMarkup="false">
		<v:userDefs>
			<v:ud v:nameU="msvNoAutoConnect" v:val="VT0(0):26"/>
		</v:userDefs>
	</v:documentProperties>

	<style type="text/css">
	<![CDATA[
		.st1 {fill:#fae9dc;stroke:#404040;stroke-linecap:round;stroke-linejoin:round;stroke-width:0.5}
		.st2 {visibility:visible}
		.st3 {fill:#cdcdcd;fill-opacity:0.5;stroke:#cdcdcd;stroke-linecap:round;stroke-linejoin:round;stroke-opacity:0.5;stroke-width:0.25}
		.st4 {fill:url(#grad30-8);stroke:#404040;stroke-linecap:round;stroke-linejoin:round;stroke-width:0.25}
		.st5 {marker-start:url(#mrkr5-15);stroke:#cdcdcd;stroke-linecap:round;stroke-linejoin:round;stroke-opacity:0.5;stroke-width:0.25}
		.st6 {fill:#cdcdcd;fill-opacity:0.5;stroke:#cdcdcd;stroke-opacity:0.5;stroke-width:0.090252707581227}
		.st7 {marker-start:url(#mrkr5-22);stroke:#404040;stroke-linecap:round;stroke-linejoin:round;stroke-width:0.25}
		.st8 {fill:#404040;fill-opacity:1;stroke:#404040;stroke-opacity:1;stroke-width:0.090252707581227}
		.st9 {fill:none;stroke:none;stroke-linecap:round;stroke-linejoin:round;stroke-width:0.25}
		.st10 {fill:#000000;font-family:Calibri;font-size:1.16666em;font-weight:bold}
		.st11 {font-size:1em}
		.st12 {fill:url(#grad30-19);stroke:#404040;stroke-linecap:round;stroke-linejoin:round;stroke-width:0.25}
		.st13 {fill:#000000;font-family:Calibri;font-size:0.916672em}
		.st14 {fill:#000000;font-family:Calibri;font-size:1.00001em}
		.st15 {fill:url(#grad30-80);stroke:#404040;stroke-linecap:round;stroke-linejoin:round;stroke-width:0.25}
		.st16 {stroke:#cdcdcd;stroke-linecap:round;stroke-linejoin:round;stroke-opacity:0.5;stroke-width:0.25}
		.st17 {stroke:#404040;stroke-linecap:round;stroke-linejoin:round;stroke-width:0.25}
		.st18 {fill:#000000;font-family:Calibri;font-size:0.833336em;font-weight:bold}
		.st19 {fill:none;fill-rule:evenodd;font-size:12px;overflow:visible;stroke-linecap:square;stroke-miterlimit:3}
	]]>
	</style>

	<defs id="Patterns_And_Gradients">
		<linearGradient id="grad30-8" v:fillPattern="30" v:foreground="#a4a4a4" v:background="#b2b2b2" x1="0" y1="1" x2="0" y2="0">
			<stop offset="0" style="stop-color:#a4a4a4;stop-opacity:1"/>
			<stop offset="1" style="stop-color:#b2b2b2;stop-opacity:1"/>
		</linearGradient>
		<linearGradient id="grad30-19" v:fillPattern="30" v:foreground="#f0f0f0" v:background="#ffffff" x1="0" y1="1" x2="0" y2="0">
			<stop offset="0" style="stop-color:#f0f0f0;stop-opacity:1"/>
			<stop offset="1" style="stop-color:#ffffff;stop-opacity:1"/>
		</linearGradient>
		<linearGradient id="grad30-80" v:fillPattern="30" v:foreground="#0060a6" v:background="#0070c0" x1="0" y1="1" x2="0" y2="0">
			<stop offset="0" style="stop-color:#0060a6;stop-opacity:1"/>
			<stop offset="1" style="stop-color:#0070c0;stop-opacity:1"/>
		</linearGradient>
	</defs>
	<defs id="Markers">
		<g id="lend5">
			<path d="M 2 1 L 0 0 L 1.98117 -0.993387 C 1.67173 -0.364515 1.67301 0.372641 1.98465 1.00043 " style="stroke:none"/>
		</g>
		<marker id="mrkr5-15" class="st6" v:arrowType="5" v:arrowSize="2" v:setback="17.95" refX="17.95" orient="auto"
				markerUnits="strokeWidth" overflow="visible">
			<use xlink:href="#lend5" transform="scale(11.08) "/>
		</marker>
		<marker id="mrkr5-22" class="st8" v:arrowType="5" v:arrowSize="2" v:setback="17.95" refX="17.95" orient="auto"
				markerUnits="strokeWidth" overflow="visible">
			<use xlink:href="#lend5" transform="scale(11.08) "/>
		</marker>
	</defs>
	<g v:mID="0" v:index="1" v:groupContext="foregroundPage">
		<v:userDefs>
			<v:ud v:nameU="msvThemeColors" v:val="VT0(36):26"/>
			<v:ud v:nameU="msvThemeEffects" v:val="VT0(16):26"/>
			<v:ud v:nameU="msvThemeOrder" v:val="VT0(0):26"/>
		</v:userDefs>
		<title>Page-1</title>
		<v:pageProperties v:drawingScale="1" v:pageScale="1" v:drawingUnits="0" v:shadowOffsetX="9" v:shadowOffsetY="-9"/>
		<v:layer v:name="Annotations" v:index="0"/>
		<g id="shape1-1" v:mID="1" v:groupContext="shape" v:layerMember="0" transform="translate(162,-144.375)">
			<title>Revision cloud.41</title>
			<v:userDefs>
				<v:ud v:nameU="AntiScale" v:val="VT0(1):26"/>
				<v:ud v:nameU="visVersion" v:val="VT0(14):26"/>
				<v:ud v:nameU="msvThemeColors" v:val="VT0(36):26"/>
			</v:userDefs>
			<path d="M17.88 436.65 A58.4138 50.5926 -180 0 0 46.07 522.52 A71.3626 61.8076 -180 0 0 155.69 576.2 A72.2112 62.5426
						 -180 0 0 282.98 581.51 A85.8697 74.3723 -180 0 0 416.4 519.28 A66.3106 57.4321 -180 0 0 447.19 421.5 A52.0183
						 45.0535 -180 0 0 406.14 350.39 A88.9651 77.0533 -180 0 0 252.19 323.72 A87.4311 75.7247 -180 0 0 98.24 332.61
						 A81.894 70.929 -180 0 0 17.88 436.65 Z" class="st1"/>
		</g>
		<g id="shape2-3" v:mID="2" v:groupContext="shape" transform="translate(182.531,-252.375)">
			<title>Rounded rectangle.42</title>
			<v:userDefs>
				<v:ud v:nameU="visVersion" v:val="VT0(14):26"/>
				<v:ud v:nameU="msvThemeColors" v:val="VT0(36):26"/>
				<v:ud v:nameU="msvThemeEffects" v:val="VT0(16):26"/>
			</v:userDefs>
			<g id="shadow2-4" v:groupContext="shadow" v:shadowOffsetX="1.44" v:shadowOffsetY="-1.44" v:shadowType="1"
					transform="matrix(1,0,0,1,1.44,1.44)" class="st2">
				<path d="M112.22 612 A9.00007 9.00007 -180 0 0 121.22 603 L121.22 522 A9.00007 9.00007 -180 0 0 112.22 513 L9 513
							 A9.00007 9.00007 -180 0 0 -0 522 L0 603 A9.00007 9.00007 -180 0 0 9 612 L112.22 612 Z" class="st3"/>
			</g>
			<path d="M112.22 612 A9.00007 9.00007 -180 0 0 121.22 603 L121.22 522 A9.00007 9.00007 -180 0 0 112.22 513 L9 513 A9.00007
						 9.00007 -180 0 0 -0 522 L0 603 A9.00007 9.00007 -180 0 0 9 612 L112.22 612 Z" class="st4"/>
		</g>
		<g id="shape3-9" v:mID="3" v:groupContext="shape" transform="translate(101.276,-336.991) rotate(-13.9)">
			<title>Sheet.3</title>
			<v:userDefs>
				<v:ud v:nameU="msvThemeColors" v:val="VT0(36):26"/>
				<v:ud v:nameU="msvThemeEffects" v:val="VT0(16):26"/>
			</v:userDefs>
			<g id="shadow3-10" v:groupContext="shadow" v:shadowOffsetX="1.44" v:shadowOffsetY="-1.44" v:shadowType="1"
					transform="matrix(1,-1.25767E-017,-1.28478E-017,1,1.0519,1.74376)" class="st2">
				<path d="M4.49 612 L4.85 612 L87.26 612" class="st5"/>
			</g>
			<path d="M4.49 612 L4.85 612 L87.26 612" class="st7"/>
		</g>
		<g id="shape4-23" v:mID="4" v:groupContext="shape" transform="translate(303.75,-301.875)">
			<title>Sheet.4</title>
			<v:userDefs>
				<v:ud v:nameU="msvThemeColors" v:val="VT0(36):26"/>
				<v:ud v:nameU="msvThemeEffects" v:val="VT0(16):26"/>
			</v:userDefs>
			<g id="shadow4-24" v:groupContext="shadow" v:shadowOffsetX="1.44" v:shadowOffsetY="-1.44" v:shadowType="1"
					transform="matrix(1,0,0,1,1.44,1.44)" class="st2">
				<path d="M4.49 612 L4.85 612 L227.25 612" class="st5"/>
			</g>
			<path d="M4.49 612 L4.85 612 L227.25 612" class="st7"/>
		</g>
		<g id="shape5-34" v:mID="5" v:groupContext="shape" transform="translate(384.494,-235.827) rotate(13.3542)">
			<title>Sheet.5</title>
			<v:userDefs>
				<v:ud v:nameU="msvThemeColors" v:val="VT0(36):26"/>
				<v:ud v:nameU="msvThemeEffects" v:val="VT0(16):26"/>
			</v:userDefs>
			<g id="shadow5-35" v:groupContext="shadow" v:shadowOffsetX="1.44" v:shadowOffsetY="-1.44" v:shadowType="1"
					transform="matrix(1,1.17907E-017,1.17907E-017,1,1.73366,1.06847)" class="st2">
				<path d="M4.49 612 L4.85 612 L97.42 612" class="st5"/>
			</g>
			<path d="M4.49 612 L4.85 612 L97.42 612" class="st7"/>
		</g>
		<g id="shape6-45" v:mID="6" v:groupContext="shape" transform="translate(313.651,-213.179) rotate(-13.4139)">
			<title>Sheet.6</title>
			<v:userDefs>
				<v:ud v:nameU="msvThemeColors" v:val="VT0(36):26"/>
				<v:ud v:nameU="msvThemeEffects" v:val="VT0(16):26"/>
			</v:userDefs>
			<g id="shadow6-46" v:groupContext="shadow" v:shadowOffsetX="1.44" v:shadowOffsetY="-1.44" v:shadowType="1"
					transform="matrix(1,-7.99599E-018,-7.99599E-018,1,1.06666,1.73477)" class="st2">
				<path d="M4.49 612 L4.85 612 L96.99 612" class="st5"/>
			</g>
			<path d="M4.49 612 L4.85 612 L96.99 612" class="st7"/>
		</g>
		<g id="shape7-56" v:mID="7" v:groupContext="shape" transform="translate(450,-407.375)">
			<title>Sheet.7</title>
			<desc>AllJoyn Proximal Network</desc>
			<v:userDefs>
				<v:ud v:nameU="msvThemeColors" v:val="VT0(36):26"/>
				<v:ud v:nameU="msvThemeEffects" v:val="VT0(16):26"/>
			</v:userDefs>
			<v:textBlock v:margins="rect(4,4,4,4)"/>
			<v:textRect cx="54" cy="599.5" width="108" height="25"/>
			<rect x="0" y="587" width="108" height="25" class="st9"/>
			<text x="5.8" y="595.3" class="st10" v:langID="1033"><v:paragraph v:horizAlign="1"/><v:tabList/>AllJoyn Proximal <tspan
						x="28.61" dy="1.2em" class="st11">Network</tspan></text>		</g>
		<g id="shape8-60" v:mID="8" v:groupContext="shape" transform="translate(498.5,-252.375)">
			<title>Rounded rectangle.48</title>
			<v:userDefs>
				<v:ud v:nameU="visVersion" v:val="VT0(14):26"/>
				<v:ud v:nameU="msvThemeColors" v:val="VT0(36):26"/>
				<v:ud v:nameU="msvThemeEffects" v:val="VT0(16):26"/>
			</v:userDefs>
			<g id="shadow8-61" v:groupContext="shadow" v:shadowOffsetX="1.44" v:shadowOffsetY="-1.44" v:shadowType="1"
					transform="matrix(1,0,0,1,1.44,1.44)" class="st2">
				<path d="M93.94 612 A9.00007 9.00007 -180 0 0 102.94 603 L102.94 522 A9.00007 9.00007 -180 0 0 93.94 513 L9 513 A9.00007
							 9.00007 -180 0 0 -0 522 L0 603 A9.00007 9.00007 -180 0 0 9 612 L93.94 612 Z" class="st3"/>
			</g>
			<path d="M93.94 612 A9.00007 9.00007 -180 0 0 102.94 603 L102.94 522 A9.00007 9.00007 -180 0 0 93.94 513 L9 513 A9.00007
						 9.00007 -180 0 0 -0 522 L0 603 A9.00007 9.00007 -180 0 0 9 612 L93.94 612 Z" class="st4"/>
		</g>
		<g id="shape9-65" v:mID="9" v:groupContext="shape" transform="translate(515.938,-254.457)">
			<title>Rectangle.49</title>
			<desc>AllJoyn Framework</desc>
			<v:userDefs>
				<v:ud v:nameU="visVersion" v:val="VT0(14):26"/>
				<v:ud v:nameU="msvThemeColors" v:val="VT0(36):26"/>
				<v:ud v:nameU="msvThemeEffects" v:val="VT0(16):26"/>
			</v:userDefs>
			<v:textBlock v:margins="rect(4,4,4,4)"/>
			<v:textRect cx="33.75" cy="599.541" width="67.5" height="24.9179"/>
			<g id="shadow9-66" v:groupContext="shadow" v:shadowOffsetX="1.44" v:shadowOffsetY="-1.44" v:shadowType="1"
					transform="matrix(1,0,0,1,1.44,1.44)" class="st2">
				<rect x="0" y="587.082" width="67.5" height="24.9179" class="st3"/>
			</g>
			<rect x="0" y="587.082" width="67.5" height="24.9179" class="st12"/>
			<text x="18.01" y="596.24" class="st13" v:langID="1033"><v:paragraph v:horizAlign="1"/><v:tabList/>AllJoyn <tspan
						x="8.29" dy="1.2em" class="st11">Framework</tspan></text>		</g>
		<g id="shape10-72" v:mID="10" v:groupContext="shape" transform="translate(502.719,-333.375)">
			<title>Sheet.10</title>
			<desc>Provider Device</desc>
			<v:userDefs>
				<v:ud v:nameU="msvThemeColors" v:val="VT0(36):26"/>
				<v:ud v:nameU="msvThemeEffects" v:val="VT0(16):26"/>
			</v:userDefs>
			<v:textBlock v:margins="rect(4,4,4,4)"/>
			<v:textRect cx="47.1094" cy="603" width="94.22" height="18"/>
			<rect x="0" y="594" width="94.2188" height="18" class="st9"/>
			<text x="8.79" y="606.6" class="st14" v:langID="1033"><v:paragraph v:horizAlign="1"/><v:tabList/>Provider Device</text>		</g>
		<g id="shape11-75" v:mID="11" v:groupContext="shape" transform="translate(524.938,-301.875)">
			<title>Rounded rectangle.51</title>
			<desc>App</desc>
			<v:userDefs>
				<v:ud v:nameU="visVersion" v:val="VT0(14):26"/>
				<v:ud v:nameU="msvThemeColors" v:val="VT0(36):26"/>
				<v:ud v:nameU="msvThemeEffects" v:val="VT0(16):26"/>
			</v:userDefs>
			<v:textBlock v:margins="rect(4,4,4,4)"/>
			<v:textRect cx="22.5" cy="600.75" width="45" height="22.5"/>
			<g id="shadow11-76" v:groupContext="shadow" v:shadowOffsetX="1.44" v:shadowOffsetY="-1.44" v:shadowType="1"
					transform="matrix(1,0,0,1,1.44,1.44)" class="st2">
				<path d="M36 612 A9.00007 9.00007 -180 0 0 45 603 L45 598.5 A9.00007 9.00007 -180 0 0 36 589.5 L9 589.5 A9.00007
							 9.00007 -180 0 0 -0 598.5 L0 603 A9.00007 9.00007 -180 0 0 9 612 L36 612 Z" class="st3"/>
			</g>
			<path d="M36 612 A9.00007 9.00007 -180 0 0 45 603 L45 598.5 A9.00007 9.00007 -180 0 0 36 589.5 L9 589.5 A9.00007 9.00007
						 -180 0 0 -0 598.5 L0 603 A9.00007 9.00007 -180 0 0 9 612 L36 612 Z" class="st15"/>
			<text x="12.72" y="604.35" class="st14" v:langID="1033"><v:paragraph v:horizAlign="1"/><v:tabList/>App</text>		</g>
		<g id="shape12-82" v:mID="12" v:groupContext="shape" transform="translate(-64.5625,332.625) rotate(-90)">
			<title>Sheet.12</title>
			<v:userDefs>
				<v:ud v:nameU="msvThemeColors" v:val="VT0(36):26"/>
				<v:ud v:nameU="msvThemeEffects" v:val="VT0(16):26"/>
			</v:userDefs>
			<g id="shadow12-83" v:groupContext="shadow" v:shadowOffsetX="1.44" v:shadowOffsetY="-1.44" v:shadowType="1"
					transform="matrix(1,0,0,1,-1.44,1.44)" class="st2">
				<path d="M0 612 L22.5 612" class="st16"/>
			</g>
			<path d="M0 612 L22.5 612" class="st17"/>
		</g>
		<g id="shape13-89" v:mID="13" v:groupContext="shape" transform="translate(333,-326.375)">
			<title>Rounded rectangle.53</title>
			<v:userDefs>
				<v:ud v:nameU="visVersion" v:val="VT0(14):26"/>
				<v:ud v:nameU="msvThemeColors" v:val="VT0(36):26"/>
				<v:ud v:nameU="msvThemeEffects" v:val="VT0(16):26"/>
			</v:userDefs>
			<g id="shadow13-90" v:groupContext="shadow" v:shadowOffsetX="1.44" v:shadowOffsetY="-1.44" v:shadowType="1"
					transform="matrix(1,0,0,1,1.44,1.44)" class="st2">
				<path d="M111.94 612 A9.00007 9.00007 -180 0 0 120.94 603 L120.94 522 A9.00007 9.00007 -180 0 0 111.94 513 L9 513
							 A9.00007 9.00007 -180 0 0 -0 522 L0 603 A9.00007 9.00007 -180 0 0 9 612 L111.94 612 Z" class="st3"/>
			</g>
			<path d="M111.94 612 A9.00007 9.00007 -180 0 0 120.94 603 L120.94 522 A9.00007 9.00007 -180 0 0 111.94 513 L9 513 A9.00007
						 9.00007 -180 0 0 -0 522 L0 603 A9.00007 9.00007 -180 0 0 9 612 L111.94 612 Z" class="st4"/>
		</g>
		<g id="shape14-94" v:mID="14" v:groupContext="shape" transform="translate(346.359,-407.375)">
			<title>Sheet.14</title>
			<desc>Provider Device</desc>
			<v:userDefs>
				<v:ud v:nameU="msvThemeColors" v:val="VT0(36):26"/>
				<v:ud v:nameU="msvThemeEffects" v:val="VT0(16):26"/>
			</v:userDefs>
			<v:textBlock v:margins="rect(4,4,4,4)"/>
			<v:textRect cx="47.1094" cy="603" width="94.22" height="18"/>
			<rect x="0" y="594" width="94.2188" height="18" class="st9"/>
			<text x="8.79" y="606.6" class="st14" v:langID="1033"><v:paragraph v:horizAlign="1"/><v:tabList/>Provider Device</text>		</g>
		<g id="shape15-97" v:mID="15" v:groupContext="shape" transform="translate(341.438,-371.375)">
			<title>Rounded rectangle.56</title>
			<desc>App</desc>
			<v:userDefs>
				<v:ud v:nameU="visVersion" v:val="VT0(14):26"/>
				<v:ud v:nameU="msvThemeColors" v:val="VT0(36):26"/>
				<v:ud v:nameU="msvThemeEffects" v:val="VT0(16):26"/>
			</v:userDefs>
			<v:textBlock v:margins="rect(4,4,4,4)"/>
			<v:textRect cx="22.5" cy="600.75" width="45" height="22.5"/>
			<g id="shadow15-98" v:groupContext="shadow" v:shadowOffsetX="1.44" v:shadowOffsetY="-1.44" v:shadowType="1"
					transform="matrix(1,0,0,1,1.44,1.44)" class="st2">
				<path d="M36 612 A9.00007 9.00007 -180 0 0 45 603 L45 598.5 A9.00007 9.00007 -180 0 0 36 589.5 L9 589.5 A9.00007
							 9.00007 -180 0 0 -0 598.5 L0 603 A9.00007 9.00007 -180 0 0 9 612 L36 612 Z" class="st3"/>
			</g>
			<path d="M36 612 A9.00007 9.00007 -180 0 0 45 603 L45 598.5 A9.00007 9.00007 -180 0 0 36 589.5 L9 589.5 A9.00007 9.00007
						 -180 0 0 -0 598.5 L0 603 A9.00007 9.00007 -180 0 0 9 612 L36 612 Z" class="st15"/>
			<text x="12.72" y="604.35" class="st14" v:langID="1033"><v:paragraph v:horizAlign="1"/><v:tabList/>App</text>		</g>
		<g id="shape16-103" v:mID="16" v:groupContext="shape" transform="translate(399.938,-371.375)">
			<title>Rounded rectangle.57</title>
			<desc>App</desc>
			<v:userDefs>
				<v:ud v:nameU="visVersion" v:val="VT0(14):26"/>
				<v:ud v:nameU="msvThemeColors" v:val="VT0(36):26"/>
				<v:ud v:nameU="msvThemeEffects" v:val="VT0(16):26"/>
			</v:userDefs>
			<v:textBlock v:margins="rect(4,4,4,4)"/>
			<v:textRect cx="22.5" cy="600.75" width="45" height="22.5"/>
			<g id="shadow16-104" v:groupContext="shadow" v:shadowOffsetX="1.44" v:shadowOffsetY="-1.44" v:shadowType="1"
					transform="matrix(1,0,0,1,1.44,1.44)" class="st2">
				<path d="M36 612 A9.00007 9.00007 -180 0 0 45 603 L45 598.5 A9.00007 9.00007 -180 0 0 36 589.5 L9 589.5 A9.00007
							 9.00007 -180 0 0 -0 598.5 L0 603 A9.00007 9.00007 -180 0 0 9 612 L36 612 Z" class="st3"/>
			</g>
			<path d="M36 612 A9.00007 9.00007 -180 0 0 45 603 L45 598.5 A9.00007 9.00007 -180 0 0 36 589.5 L9 589.5 A9.00007 9.00007
						 -180 0 0 -0 598.5 L0 603 A9.00007 9.00007 -180 0 0 9 612 L36 612 Z" class="st15"/>
			<text x="12.72" y="604.35" class="st14" v:langID="1033"><v:paragraph v:horizAlign="1"/><v:tabList/>App</text>		</g>
		<g id="shape17-109" v:mID="17" v:groupContext="shape" transform="translate(-248.063,261.625) rotate(-90)">
			<title>Sheet.17</title>
			<v:userDefs>
				<v:ud v:nameU="msvThemeColors" v:val="VT0(36):26"/>
				<v:ud v:nameU="msvThemeEffects" v:val="VT0(16):26"/>
			</v:userDefs>
			<g id="shadow17-110" v:groupContext="shadow" v:shadowOffsetX="1.44" v:shadowOffsetY="-1.44" v:shadowType="1"
					transform="matrix(1,0,0,1,-1.44,1.44)" class="st2">
				<path d="M0 612 L21 612" class="st16"/>
			</g>
			<path d="M0 612 L21 612" class="st17"/>
		</g>
		<g id="shape18-116" v:mID="18" v:groupContext="shape" transform="translate(-189.563,261.625) rotate(-90)">
			<title>Sheet.18</title>
			<v:userDefs>
				<v:ud v:nameU="msvThemeColors" v:val="VT0(36):26"/>
				<v:ud v:nameU="msvThemeEffects" v:val="VT0(16):26"/>
			</v:userDefs>
			<g id="shadow18-117" v:groupContext="shadow" v:shadowOffsetX="1.44" v:shadowOffsetY="-1.44" v:shadowType="1"
					transform="matrix(1,0,0,1,-1.44,1.44)" class="st2">
				<path d="M0 612 L21 612" class="st16"/>
			</g>
			<path d="M0 612 L21 612" class="st17"/>
		</g>
		<g id="shape19-123" v:mID="19" v:groupContext="shape" transform="translate(337.922,-180.375)">
			<title>Rounded rectangle.60</title>
			<v:userDefs>
				<v:ud v:nameU="visVersion" v:val="VT0(14):26"/>
				<v:ud v:nameU="msvThemeColors" v:val="VT0(36):26"/>
				<v:ud v:nameU="msvThemeEffects" v:val="VT0(16):26"/>
			</v:userDefs>
			<g id="shadow19-124" v:groupContext="shadow" v:shadowOffsetX="1.44" v:shadowOffsetY="-1.44" v:shadowType="1"
					transform="matrix(1,0,0,1,1.44,1.44)" class="st2">
				<path d="M108.7 612 A9.00007 9.00007 -180 0 0 117.7 603 L117.7 522 A9.00007 9.00007 -180 0 0 108.7 513 L9 513 A9.00007
							 9.00007 -180 0 0 -0 522 L0 603 A9.00007 9.00007 -180 0 0 9 612 L108.7 612 Z" class="st3"/>
			</g>
			<path d="M108.7 612 A9.00007 9.00007 -180 0 0 117.7 603 L117.7 522 A9.00007 9.00007 -180 0 0 108.7 513 L9 513 A9.00007
						 9.00007 -180 0 0 -0 522 L0 603 A9.00007 9.00007 -180 0 0 9 612 L108.7 612 Z" class="st4"/>
		</g>
		<g id="shape20-128" v:mID="20" v:groupContext="shape" transform="translate(366,-183.004)">
			<title>Rectangle.61</title>
			<desc>AllJoyn Framework</desc>
			<v:userDefs>
				<v:ud v:nameU="visVersion" v:val="VT0(14):26"/>
				<v:ud v:nameU="msvThemeColors" v:val="VT0(36):26"/>
				<v:ud v:nameU="msvThemeEffects" v:val="VT0(16):26"/>
			</v:userDefs>
			<v:textBlock v:margins="rect(4,4,4,4)"/>
			<v:textRect cx="33.75" cy="598.763" width="67.5" height="26.4747"/>
			<g id="shadow20-129" v:groupContext="shadow" v:shadowOffsetX="1.44" v:shadowOffsetY="-1.44" v:shadowType="1"
					transform="matrix(1,0,0,1,1.44,1.44)" class="st2">
				<rect x="0" y="585.525" width="67.5" height="26.4747" class="st3"/>
			</g>
			<rect x="0" y="585.525" width="67.5" height="26.4747" class="st12"/>
			<text x="18.01" y="595.46" class="st13" v:langID="1033"><v:paragraph v:horizAlign="1"/><v:tabList/>AllJoyn <tspan
						x="8.29" dy="1.2em" class="st11">Framework</tspan></text>		</g>
		<g id="shape21-135" v:mID="21" v:groupContext="shape" transform="translate(332.25,-259.875)">
			<title>Sheet.21</title>
			<desc>Provider+Consumer Device</desc>
			<v:userDefs>
				<v:ud v:nameU="msvThemeColors" v:val="VT0(36):26"/>
				<v:ud v:nameU="msvThemeEffects" v:val="VT0(16):26"/>
			</v:userDefs>
			<v:textBlock v:margins="rect(4,4,4,4)"/>
			<v:textRect cx="65.0391" cy="607.5" width="130.08" height="9"/>
			<rect x="0" y="603" width="130.078" height="9" class="st9"/>
			<text x="16.49" y="603.9" class="st14" v:langID="1033"><v:paragraph v:horizAlign="1"/><v:tabList/>Provider+Consumer <tspan
						x="48.75" dy="1.2em" class="st11">Device</tspan></text>		</g>
		<g id="shape22-139" v:mID="22" v:groupContext="shape" transform="translate(375,-224.625)">
			<title>Rounded rectangle.63</title>
			<desc>App</desc>
			<v:userDefs>
				<v:ud v:nameU="visVersion" v:val="VT0(14):26"/>
				<v:ud v:nameU="msvThemeColors" v:val="VT0(36):26"/>
				<v:ud v:nameU="msvThemeEffects" v:val="VT0(16):26"/>
			</v:userDefs>
			<v:textBlock v:margins="rect(4,4,4,4)"/>
			<v:textRect cx="22.5" cy="600.75" width="45" height="22.5"/>
			<g id="shadow22-140" v:groupContext="shadow" v:shadowOffsetX="1.44" v:shadowOffsetY="-1.44" v:shadowType="1"
					transform="matrix(1,0,0,1,1.44,1.44)" class="st2">
				<path d="M36 612 A9.00007 9.00007 -180 0 0 45 603 L45 598.5 A9.00007 9.00007 -180 0 0 36 589.5 L9 589.5 A9.00007
							 9.00007 -180 0 0 -0 598.5 L0 603 A9.00007 9.00007 -180 0 0 9 612 L36 612 Z" class="st3"/>
			</g>
			<path d="M36 612 A9.00007 9.00007 -180 0 0 45 603 L45 598.5 A9.00007 9.00007 -180 0 0 36 589.5 L9 589.5 A9.00007 9.00007
						 -180 0 0 -0 598.5 L0 603 A9.00007 9.00007 -180 0 0 9 612 L36 612 Z" class="st15"/>
			<text x="12.72" y="604.35" class="st14" v:langID="1033"><v:paragraph v:horizAlign="1"/><v:tabList/>App</text>		</g>
		<g id="shape23-145" v:mID="23" v:groupContext="shape" transform="translate(-214.774,396.875) rotate(-88.9584)">
			<title>Sheet.23</title>
			<v:userDefs>
				<v:ud v:nameU="msvThemeColors" v:val="VT0(36):26"/>
				<v:ud v:nameU="msvThemeEffects" v:val="VT0(16):26"/>
			</v:userDefs>
			<g id="shadow23-146" v:groupContext="shadow" v:shadowOffsetX="1.44" v:shadowOffsetY="-1.44" v:shadowType="1"
					transform="matrix(1,7.33531E-019,1.66018E-019,1,-1.41358,1.46594)" class="st2">
				<path d="M0 612 L20.63 612" class="st16"/>
			</g>
			<path d="M0 612 L20.63 612" class="st17"/>
		</g>
		<g id="shape24-152" v:mID="24" v:groupContext="shape" transform="translate(-338.25,331.125) rotate(-90)">
			<title>Sheet.24</title>
			<v:userDefs>
				<v:ud v:nameU="msvThemeColors" v:val="VT0(36):26"/>
				<v:ud v:nameU="msvThemeEffects" v:val="VT0(16):26"/>
			</v:userDefs>
			<g id="shadow24-153" v:groupContext="shadow" v:shadowOffsetX="1.44" v:shadowOffsetY="-1.44" v:shadowType="1"
					transform="matrix(1,0,0,1,-1.44,1.44)" class="st2">
				<path d="M0 612 L21 612" class="st16"/>
			</g>
			<path d="M0 612 L21 612" class="st17"/>
		</g>
		<g id="shape25-159" v:mID="25" v:groupContext="shape" transform="translate(204.302,-254.457)">
			<title>Rectangle.66</title>
			<desc>AllJoyn Framework</desc>
			<v:userDefs>
				<v:ud v:nameU="visVersion" v:val="VT0(14):26"/>
				<v:ud v:nameU="msvThemeColors" v:val="VT0(36):26"/>
				<v:ud v:nameU="msvThemeEffects" v:val="VT0(16):26"/>
			</v:userDefs>
			<v:textBlock v:margins="rect(4,4,4,4)"/>
			<v:textRect cx="42.8906" cy="598.791" width="85.79" height="26.4179"/>
			<g id="shadow25-160" v:groupContext="shadow" v:shadowOffsetX="1.44" v:shadowOffsetY="-1.44" v:shadowType="1"
					transform="matrix(1,0,0,1,1.44,1.44)" class="st2">
				<rect x="0" y="585.582" width="85.7813" height="26.4179" class="st3"/>
			</g>
			<rect x="0" y="585.582" width="85.7813" height="26.4179" class="st12"/>
			<text x="27.15" y="595.49" class="st13" v:langID="1033"><v:paragraph v:horizAlign="1"/><v:tabList/>AllJoyn <tspan
						x="17.43" dy="1.2em" class="st11">Framework</tspan></text>		</g>
		<g id="shape26-166" v:mID="26" v:groupContext="shape" transform="translate(182.109,-333.375)">
			<title>Sheet.26</title>
			<desc>Consumer Device</desc>
			<v:userDefs>
				<v:ud v:nameU="msvThemeColors" v:val="VT0(36):26"/>
				<v:ud v:nameU="msvThemeEffects" v:val="VT0(16):26"/>
			</v:userDefs>
			<v:textBlock v:margins="rect(4,4,4,4)"/>
			<v:textRect cx="51.8906" cy="603" width="103.79" height="18"/>
			<rect x="0" y="594" width="103.781" height="18" class="st9"/>
			<text x="9.36" y="606.6" class="st14" v:langID="1033"><v:paragraph v:horizAlign="1"/><v:tabList/>Consumer Device</text>		</g>
		<g id="shape27-169" v:mID="27" v:groupContext="shape" transform="translate(198.75,-301.875)">
			<title>Rounded rectangle.68</title>
			<desc>App</desc>
			<v:userDefs>
				<v:ud v:nameU="visVersion" v:val="VT0(14):26"/>
				<v:ud v:nameU="msvThemeColors" v:val="VT0(36):26"/>
				<v:ud v:nameU="msvThemeEffects" v:val="VT0(16):26"/>
			</v:userDefs>
			<v:textBlock v:margins="rect(4,4,4,4)"/>
			<v:textRect cx="22.5" cy="600.75" width="45" height="22.5"/>
			<g id="shadow27-170" v:groupContext="shadow" v:shadowOffsetX="1.44" v:shadowOffsetY="-1.44" v:shadowType="1"
					transform="matrix(1,0,0,1,1.44,1.44)" class="st2">
				<path d="M36 612 A9.00007 9.00007 -180 0 0 45 603 L45 598.5 A9.00007 9.00007 -180 0 0 36 589.5 L9 589.5 A9.00007
							 9.00007 -180 0 0 -0 598.5 L0 603 A9.00007 9.00007 -180 0 0 9 612 L36 612 Z" class="st3"/>
			</g>
			<path d="M36 612 A9.00007 9.00007 -180 0 0 45 603 L45 598.5 A9.00007 9.00007 -180 0 0 36 589.5 L9 589.5 A9.00007 9.00007
						 -180 0 0 -0 598.5 L0 603 A9.00007 9.00007 -180 0 0 9 612 L36 612 Z" class="st15"/>
			<text x="12.72" y="604.35" class="st14" v:langID="1033"><v:paragraph v:horizAlign="1"/><v:tabList/>App</text>		</g>
		<g id="shape28-175" v:mID="28" v:groupContext="shape" transform="translate(333,-425.375)">
			<title>Sheet.28</title>
			<desc>Device1</desc>
			<v:userDefs>
				<v:ud v:nameU="msvThemeColors" v:val="VT0(36):26"/>
				<v:ud v:nameU="msvThemeEffects" v:val="VT0(16):26"/>
			</v:userDefs>
			<v:textBlock v:margins="rect(4,4,4,4)"/>
			<v:textRect cx="22.5" cy="604" width="45" height="16"/>
			<rect x="0" y="596" width="45" height="16" class="st9"/>
			<text x="6.09" y="607" class="st18" v:langID="1033"><v:paragraph v:horizAlign="1"/><v:tabList/>Device1</text>		</g>
		<g id="shape29-178" v:mID="29" v:groupContext="shape" transform="translate(495,-352.375)">
			<title>Sheet.29</title>
			<desc>Device2</desc>
			<v:userDefs>
				<v:ud v:nameU="msvThemeColors" v:val="VT0(36):26"/>
				<v:ud v:nameU="msvThemeEffects" v:val="VT0(16):26"/>
			</v:userDefs>
			<v:textBlock v:margins="rect(4,4,4,4)"/>
			<v:textRect cx="27" cy="603.5" width="54" height="17"/>
			<rect x="0" y="595" width="54" height="17" class="st9"/>
			<text x="10.59" y="606.5" class="st18" v:langID="1033"><v:paragraph v:horizAlign="1"/><v:tabList/>Device2</text>		</g>
		<g id="shape30-181" v:mID="30" v:groupContext="shape" transform="translate(337.922,-279.375)">
			<title>Sheet.30</title>
			<desc>Device4</desc>
			<v:userDefs>
				<v:ud v:nameU="msvThemeColors" v:val="VT0(36):26"/>
				<v:ud v:nameU="msvThemeEffects" v:val="VT0(16):26"/>
			</v:userDefs>
			<v:textBlock v:margins="rect(4,4,4,4)"/>
			<v:textRect cx="24.5391" cy="603" width="49.08" height="18"/>
			<rect x="0" y="594" width="49.0781" height="18" class="st9"/>
			<text x="8.13" y="606" class="st18" v:langID="1033"><v:paragraph v:horizAlign="1"/><v:tabList/>Device4</text>		</g>
		<g id="shape31-184" v:mID="31" v:groupContext="shape" transform="translate(182.531,-351.375)">
			<title>Sheet.31</title>
			<desc>Device3</desc>
			<v:userDefs>
				<v:ud v:nameU="msvThemeColors" v:val="VT0(36):26"/>
				<v:ud v:nameU="msvThemeEffects" v:val="VT0(16):26"/>
			</v:userDefs>
			<v:textBlock v:margins="rect(4,4,4,4)"/>
			<v:textRect cx="25.7344" cy="603" width="51.47" height="18"/>
			<rect x="0" y="594" width="51.4688" height="18" class="st9"/>
			<text x="9.33" y="606" class="st18" v:langID="1033"><v:paragraph v:horizAlign="1"/><v:tabList/>Device3</text>		</g>
		<g id="shape32-187" v:mID="32" v:groupContext="shape" transform="translate(249.75,-301.875)">
			<title>Rounded rectangle.73</title>
			<desc>App</desc>
			<v:userDefs>
				<v:ud v:nameU="visVersion" v:val="VT0(14):26"/>
				<v:ud v:nameU="msvThemeColors" v:val="VT0(36):26"/>
				<v:ud v:nameU="msvThemeEffects" v:val="VT0(16):26"/>
			</v:userDefs>
			<v:textBlock v:margins="rect(4,4,4,4)"/>
			<v:textRect cx="22.5" cy="600.75" width="45" height="22.5"/>
			<g id="shadow32-188" v:groupContext="shadow" v:shadowOffsetX="1.44" v:shadowOffsetY="-1.44" v:shadowType="1"
					transform="matrix(1,0,0,1,1.44,1.44)" class="st2">
				<path d="M36 612 A9.00007 9.00007 -180 0 0 45 603 L45 598.5 A9.00007 9.00007 -180 0 0 36 589.5 L9 589.5 A9.00007
							 9.00007 -180 0 0 -0 598.5 L0 603 A9.00007 9.00007 -180 0 0 9 612 L36 612 Z" class="st3"/>
			</g>
			<path d="M36 612 A9.00007 9.00007 -180 0 0 45 603 L45 598.5 A9.00007 9.00007 -180 0 0 36 589.5 L9 589.5 A9.00007 9.00007
						 -180 0 0 -0 598.5 L0 603 A9.00007 9.00007 -180 0 0 9 612 L36 612 Z" class="st15"/>
			<text x="12.72" y="604.35" class="st14" v:langID="1033"><v:paragraph v:horizAlign="1"/><v:tabList/>App</text>		</g>
		<g id="shape33-193" v:mID="33" v:groupContext="shape" transform="translate(-390.75,330.375) rotate(-90)">
			<title>Sheet.33</title>
			<v:userDefs>
				<v:ud v:nameU="msvThemeColors" v:val="VT0(36):26"/>
				<v:ud v:nameU="msvThemeEffects" v:val="VT0(16):26"/>
			</v:userDefs>
			<g id="shadow33-194" v:groupContext="shadow" v:shadowOffsetX="1.44" v:shadowOffsetY="-1.44" v:shadowType="1"
					transform="matrix(1,0,0,1,-1.44,1.44)" class="st2">
				<path d="M0 612 L21 612" class="st16"/>
			</g>
			<path d="M0 612 L21 612" class="st17"/>
		</g>
		<g id="shape34-200" v:mID="34" v:groupContext="shape" transform="translate(343.969,-326.761)">
			<title>Rectangle.54</title>
			<desc>AllJoyn Framework</desc>
			<v:userDefs>
				<v:ud v:nameU="visVersion" v:val="VT0(14):26"/>
				<v:ud v:nameU="msvThemeColors" v:val="VT0(36):26"/>
				<v:ud v:nameU="msvThemeEffects" v:val="VT0(16):26"/>
			</v:userDefs>
			<v:textBlock v:margins="rect(4,4,4,4)"/>
			<v:textRect cx="49.5" cy="598.066" width="99" height="27.8673"/>
			<g id="shadow34-201" v:groupContext="shadow" v:shadowOffsetX="1.44" v:shadowOffsetY="-1.44" v:shadowType="1"
					transform="matrix(1,0,0,1,1.44,1.44)" class="st2">
				<rect x="0" y="584.133" width="99" height="27.8673" class="st3"/>
			</g>
			<rect x="0" y="584.133" width="99" height="27.8673" class="st12"/>
			<text x="7.06" y="601.37" class="st13" v:langID="1033"><v:paragraph v:horizAlign="1"/><v:tabList/>AllJoyn Framework</text>		</g>
	</g>
</svg>
