<?xml version="1.0" encoding="UTF-8" standalone="no"?>
<!DOCTYPE svg PUBLIC "-//W3C//DTD SVG 1.0//EN" "http://www.w3.org/TR/2001/REC-SVG-20010904/DTD/svg10.dtd">
<!-- Generated by Microsoft Visio 11.0, SVG Export, v1.0 Drawing142.svg Page-1 -->
<svg xmlns="http://www.w3.org/2000/svg" xmlns:xlink="http://www.w3.org/1999/xlink" xmlns:ev="http://www.w3.org/2001/xml-events"
		xmlns:v="http://schemas.microsoft.com/visio/2003/SVGExtensions/" width="11in" height="8.5in" viewBox="0 0 792 612"
		xml:space="preserve" color-interpolation-filters="sRGB" class="st18">
	<v:documentProperties v:langID="1033" v:viewMarkup="false">
		<v:userDefs>
			<v:ud v:nameU="msvNoAutoConnect" v:val="VT0(0):26"/>
		</v:userDefs>
	</v:documentProperties>

	<style type="text/css">
	<![CDATA[
		.st1 {visibility:visible}
		.st2 {fill:#cdcdcd;fill-opacity:0.5;stroke:#cdcdcd;stroke-linecap:round;stroke-linejoin:round;stroke-opacity:0.5;stroke-width:0.25}
		.st3 {fill:url(#grad30-6);stroke:#404040;stroke-linecap:round;stroke-linejoin:round;stroke-width:0.25}
		.st4 {fill:url(#grad30-12);stroke:#404040;stroke-linecap:round;stroke-linejoin:round;stroke-width:0.25}
		.st5 {fill:none;stroke:none;stroke-linecap:round;stroke-linejoin:round;stroke-width:0.25}
		.st6 {fill:#000000;font-family:Calibri;font-size:1.00001em}
		.st7 {fill:#000000;font-family:Calibri;font-size:0.75em;font-weight:bold}
		.st8 {fill:#000000;font-family:Calibri;font-size:0.75em}
		.st9 {font-size:1em}
		.st10 {fill:url(#grad30-33);stroke:#404040;stroke-linecap:round;stroke-linejoin:round;stroke-width:0.25}
		.st11 {marker-end:url(#mrkr13-41);stroke:#c00000;stroke-linecap:round;stroke-linejoin:round;stroke-width:1}
		.st12 {fill:#c00000;fill-opacity:1;stroke:#c00000;stroke-opacity:1;stroke-width:0.28409090909091}
		.st13 {marker-start:url(#mrkr13-76);stroke:#c00000;stroke-linecap:round;stroke-linejoin:round;stroke-width:1}
		.st14 {marker-end:url(#mrkr13-90);marker-start:url(#mrkr13-88);stroke:#cdcdcd;stroke-linecap:round;stroke-linejoin:round;stroke-opacity:0.5;stroke-width:0.25}
		.st15 {fill:#cdcdcd;fill-opacity:0.5;stroke:#cdcdcd;stroke-opacity:0.5;stroke-width:0.090252707581227}
		.st16 {marker-end:url(#mrkr13-99);marker-start:url(#mrkr13-97);stroke:#404040;stroke-linecap:round;stroke-linejoin:round;stroke-width:0.25}
		.st17 {fill:#404040;fill-opacity:1;stroke:#404040;stroke-opacity:1;stroke-width:0.090252707581227}
		.st18 {fill:none;fill-rule:evenodd;font-size:12px;overflow:visible;stroke-linecap:square;stroke-miterlimit:3}
	]]>
	</style>

	<defs id="Patterns_And_Gradients">
		<linearGradient id="grad30-6" v:fillPattern="30" v:foreground="#c9c9c9" v:background="#d8d8d8" x1="0" y1="1" x2="0" y2="0">
			<stop offset="0" style="stop-color:#c9c9c9;stop-opacity:1"/>
			<stop offset="1" style="stop-color:#d8d8d8;stop-opacity:1"/>
		</linearGradient>
		<linearGradient id="grad30-12" v:fillPattern="30" v:foreground="#f0f0f0" v:background="#ffffff" x1="0" y1="1" x2="0" y2="0">
			<stop offset="0" style="stop-color:#f0f0f0;stop-opacity:1"/>
			<stop offset="1" style="stop-color:#ffffff;stop-opacity:1"/>
		</linearGradient>
		<linearGradient id="grad30-33" v:fillPattern="30" v:foreground="#efaf7a" v:background="#f2bf96" x1="0" y1="1" x2="0" y2="0">
			<stop offset="0" style="stop-color:#efaf7a;stop-opacity:1"/>
			<stop offset="1" style="stop-color:#f2bf96;stop-opacity:1"/>
		</linearGradient>
	</defs>
	<defs id="Markers">
		<g id="lend13">
			<path d="M 3 1 L 0 0 L 3 -1 L 3 1 " style="stroke:none"/>
		</g>
		<marker id="mrkr13-41" class="st12" v:arrowType="13" v:arrowSize="2" v:setback="10.56" refX="-10.56" orient="auto"
				markerUnits="strokeWidth" overflow="visible">
			<use xlink:href="#lend13" transform="scale(-3.52,-3.52) "/>
		</marker>
		<marker id="mrkr13-76" class="st12" v:arrowType="13" v:arrowSize="2" v:setback="10.2" refX="10.2" orient="auto"
				markerUnits="strokeWidth" overflow="visible">
			<use xlink:href="#lend13" transform="scale(3.52) "/>
		</marker>
		<marker id="mrkr13-88" class="st15" v:arrowType="13" v:arrowSize="2" v:setback="31.8" refX="31.8" orient="auto"
				markerUnits="strokeWidth" overflow="visible">
			<use xlink:href="#lend13" transform="scale(11.08) "/>
		</marker>
		<marker id="mrkr13-90" class="st15" v:arrowType="13" v:arrowSize="2" v:setback="33.24" refX="-33.24" orient="auto"
				markerUnits="strokeWidth" overflow="visible">
			<use xlink:href="#lend13" transform="scale(-11.08,-11.08) "/>
		</marker>
		<marker id="mrkr13-97" class="st17" v:arrowType="13" v:arrowSize="2" v:setback="31.8" refX="31.8" orient="auto"
				markerUnits="strokeWidth" overflow="visible">
			<use xlink:href="#lend13" transform="scale(11.08) "/>
		</marker>
		<marker id="mrkr13-99" class="st17" v:arrowType="13" v:arrowSize="2" v:setback="33.24" refX="-33.24" orient="auto"
				markerUnits="strokeWidth" overflow="visible">
			<use xlink:href="#lend13" transform="scale(-11.08,-11.08) "/>
		</marker>
	</defs>
	<g v:mID="0" v:index="1" v:groupContext="foregroundPage">
		<v:userDefs>
			<v:ud v:nameU="msvThemeColors" v:val="VT0(36):26"/>
			<v:ud v:nameU="msvThemeEffects" v:val="VT0(16):26"/>
			<v:ud v:nameU="msvThemeOrder" v:val="VT0(0):26"/>
		</v:userDefs>
		<title>Page-1</title>
		<v:pageProperties v:drawingScale="1" v:pageScale="1" v:drawingUnits="0" v:shadowOffsetX="9" v:shadowOffsetY="-9"/>
		<v:layer v:name="Connector" v:index="0"/>
		<g id="shape1-1" v:mID="1" v:groupContext="shape" transform="translate(174.054,-197.896)">
			<title>Rounded rectangle</title>
			<v:userDefs>
				<v:ud v:nameU="visVersion" v:val="VT0(14):26"/>
				<v:ud v:nameU="msvThemeColors" v:val="VT0(36):26"/>
				<v:ud v:nameU="msvThemeEffects" v:val="VT0(16):26"/>
			</v:userDefs>
			<g id="shadow1-2" v:groupContext="shadow" v:shadowOffsetX="1.44" v:shadowOffsetY="-1.44" v:shadowType="1"
					transform="matrix(1,0,0,1,1.44,1.44)" class="st1">
				<path d="M151.39 612 A9.00007 9.00007 -180 0 0 160.39 603 L160.39 404.95 A9.00007 9.00007 -180 0 0 151.39 395.95
							 L9 395.95 A9.00007 9.00007 -180 0 0 -0 404.95 L0 603 A9.00007 9.00007 -180 0 0 9 612 L151.39 612 Z"
						class="st2"/>
			</g>
			<path d="M151.39 612 A9.00007 9.00007 -180 0 0 160.39 603 L160.39 404.95 A9.00007 9.00007 -180 0 0 151.39 395.95 L9 395.95
						 A9.00007 9.00007 -180 0 0 -0 404.95 L0 603 A9.00007 9.00007 -180 0 0 9 612 L151.39 612 Z" class="st3"/>
		</g>
		<g id="shape2-7" v:mID="2" v:groupContext="shape" transform="translate(190.666,-328.396)">
			<title>Rectangle</title>
			<v:userDefs>
				<v:ud v:nameU="visVersion" v:val="VT0(14):26"/>
				<v:ud v:nameU="msvThemeColors" v:val="VT0(36):26"/>
				<v:ud v:nameU="msvThemeEffects" v:val="VT0(16):26"/>
			</v:userDefs>
			<g id="shadow2-8" v:groupContext="shadow" v:shadowOffsetX="1.44" v:shadowOffsetY="-1.44" v:shadowType="1"
					transform="matrix(1,0,0,1,1.44,1.44)" class="st1">
				<rect x="0" y="556.875" width="127.312" height="55.125" class="st2"/>
			</g>
			<rect x="0" y="556.875" width="127.312" height="55.125" class="st4"/>
		</g>
		<g id="shape3-13" v:mID="3" v:groupContext="shape" transform="translate(188.374,-393.163)">
			<title>Sheet.3</title>
			<desc>AllJoyn Provider Device</desc>
			<v:userDefs>
				<v:ud v:nameU="msvThemeColors" v:val="VT0(36):26"/>
				<v:ud v:nameU="msvThemeEffects" v:val="VT0(16):26"/>
			</v:userDefs>
			<v:textBlock v:margins="rect(4,4,4,4)"/>
			<v:textRect cx="69.0985" cy="604" width="138.2" height="16"/>
			<rect x="0" y="596" width="138.197" height="16" class="st5"/>
			<text x="12.26" y="607.6" class="st6" v:langID="1033"><v:paragraph v:horizAlign="1"/><v:tabList/>AllJoyn Provider Device</text>		</g>
		<g id="shape4-16" v:mID="4" v:groupContext="shape" transform="translate(190.666,-208.021)">
			<title>Rectangle.37</title>
			<v:userDefs>
				<v:ud v:nameU="visVersion" v:val="VT0(14):26"/>
				<v:ud v:nameU="msvThemeColors" v:val="VT0(36):26"/>
				<v:ud v:nameU="msvThemeEffects" v:val="VT0(16):26"/>
			</v:userDefs>
			<g id="shadow4-17" v:groupContext="shadow" v:shadowOffsetX="1.44" v:shadowOffsetY="-1.44" v:shadowType="1"
					transform="matrix(1,0,0,1,1.44,1.44)" class="st1">
				<rect x="0" y="520.714" width="128.314" height="91.2857" class="st2"/>
			</g>
			<rect x="0" y="520.714" width="128.314" height="91.2857" class="st4"/>
		</g>
		<g id="shape5-21" v:mID="5" v:groupContext="shape" transform="translate(211.982,-207.378)">
			<title>Sheet.5</title>
			<desc>AllJoyn Router</desc>
			<v:userDefs>
				<v:ud v:nameU="msvThemeColors" v:val="VT0(36):26"/>
				<v:ud v:nameU="msvThemeEffects" v:val="VT0(16):26"/>
			</v:userDefs>
			<v:textBlock v:margins="rect(4,4,4,4)"/>
			<v:textRect cx="40.8214" cy="603.482" width="81.65" height="17.0357"/>
			<rect x="0" y="594.964" width="81.6429" height="17.0357" class="st5"/>
			<text x="13.62" y="606.18" class="st7" v:langID="1033"><v:paragraph v:horizAlign="1"/><v:tabList/>AllJoyn Router</text>		</g>
		<g id="shape6-24" v:mID="6" v:groupContext="shape" transform="translate(265.982,-307.021)">
			<title>Sheet.6</title>
			<desc>Bind Session Port</desc>
			<v:userDefs>
				<v:ud v:nameU="msvThemeColors" v:val="VT0(36):26"/>
				<v:ud v:nameU="msvThemeEffects" v:val="VT0(16):26"/>
			</v:userDefs>
			<v:textBlock v:margins="rect(4,4,4,4)"/>
			<v:textRect cx="29.25" cy="607.5" width="58.5" height="9"/>
			<rect x="0" y="603" width="58.5" height="9" class="st5"/>
			<text x="6.43" y="604.8" class="st8" v:langID="1033"><v:paragraph v:horizAlign="1"/><v:tabList/>Bind Session <tspan
						x="21.48" dy="1.2em" class="st9">Port</tspan></text>		</g>
		<g id="shape7-28" v:mID="7" v:groupContext="shape" transform="translate(206.196,-237.271)">
			<title>Rounded rectangle.4</title>
			<desc>AllJoyn Session Object</desc>
			<v:userDefs>
				<v:ud v:nameU="visVersion" v:val="VT0(14):26"/>
				<v:ud v:nameU="msvThemeColors" v:val="VT0(36):26"/>
				<v:ud v:nameU="msvThemeEffects" v:val="VT0(16):26"/>
			</v:userDefs>
			<v:textBlock v:margins="rect(4,4,4,4)"/>
			<v:textRect cx="48.4554" cy="587.25" width="96.92" height="49.5"/>
			<g id="shadow7-29" v:groupContext="shadow" v:shadowOffsetX="1.44" v:shadowOffsetY="-1.44" v:shadowType="1"
					transform="matrix(1,0,0,1,1.44,1.44)" class="st1">
				<path d="M87.91 612 A9.00007 9.00007 -180 0 0 96.91 603 L96.91 571.5 A9.00007 9.00007 -180 0 0 87.91 562.5 L9 562.5
							 A9.00007 9.00007 -180 0 0 -0 571.5 L0 603 A9.00007 9.00007 -180 0 0 9 612 L87.91 612 Z" class="st2"/>
			</g>
			<path d="M87.91 612 A9.00007 9.00007 -180 0 0 96.91 603 L96.91 571.5 A9.00007 9.00007 -180 0 0 87.91 562.5 L9 562.5 A9.00007
						 9.00007 -180 0 0 -0 571.5 L0 603 A9.00007 9.00007 -180 0 0 9 612 L87.91 612 Z" class="st10"/>
			<text x="6.79" y="589.95" class="st7" v:langID="1033"><v:paragraph v:horizAlign="1"/><v:tabList/>AllJoyn Session Object</text>		</g>
		<g id="shape8-35" v:mID="8" v:groupContext="shape" v:layerMember="0"
				transform="translate(-346.179,283.604) rotate(-90) scale(-1,1)">
			<title>Line-curve connector.10</title>
			<v:userDefs>
				<v:ud v:nameU="AntiScale" v:val="VT0(1):26"/>
				<v:ud v:nameU="Scale" v:val="VT0(1):26"/>
				<v:ud v:nameU="visVersion" v:val="VT0(14):26"/>
				<v:ud v:nameU="msvThemeColors" v:val="VT0(36):26"/>
				<v:ud v:nameU="msvThemeEffects" v:val="VT0(16):26"/>
			</v:userDefs>
			<path d="M0 612 L32.19 612 L32.19 612" class="st11"/>
		</g>
		<g id="shape9-42" v:mID="9" v:groupContext="shape" transform="translate(459.482,-199.021)">
			<title>Rounded rectangle.9</title>
			<v:userDefs>
				<v:ud v:nameU="visVersion" v:val="VT0(14):26"/>
				<v:ud v:nameU="msvThemeColors" v:val="VT0(36):26"/>
				<v:ud v:nameU="msvThemeEffects" v:val="VT0(16):26"/>
			</v:userDefs>
			<g id="shadow9-43" v:groupContext="shadow" v:shadowOffsetX="1.44" v:shadowOffsetY="-1.44" v:shadowType="1"
					transform="matrix(1,0,0,1,1.44,1.44)" class="st1">
				<path d="M149.46 612 A9.00007 9.00007 -180 0 0 158.46 603 L158.46 405.92 A9.00007 9.00007 -180 0 0 149.46 396.92
							 L9 396.92 A9.00007 9.00007 -180 0 0 -0 405.92 L0 603 A9.00007 9.00007 -180 0 0 9 612 L149.46 612 Z"
						class="st2"/>
			</g>
			<path d="M149.46 612 A9.00007 9.00007 -180 0 0 158.46 603 L158.46 405.92 A9.00007 9.00007 -180 0 0 149.46 396.92 L9 396.92
						 A9.00007 9.00007 -180 0 0 -0 405.92 L0 603 A9.00007 9.00007 -180 0 0 9 612 L149.46 612 Z" class="st3"/>
		</g>
		<g id="shape10-47" v:mID="10" v:groupContext="shape" transform="translate(475.621,-326.467)">
			<title>Rectangle.21</title>
			<v:userDefs>
				<v:ud v:nameU="visVersion" v:val="VT0(14):26"/>
				<v:ud v:nameU="msvThemeColors" v:val="VT0(36):26"/>
				<v:ud v:nameU="msvThemeEffects" v:val="VT0(16):26"/>
			</v:userDefs>
			<g id="shadow10-48" v:groupContext="shadow" v:shadowOffsetX="1.44" v:shadowOffsetY="-1.44" v:shadowType="1"
					transform="matrix(1,0,0,1,1.44,1.44)" class="st1">
				<rect x="0" y="558.112" width="124.656" height="53.8875" class="st2"/>
			</g>
			<rect x="0" y="558.112" width="124.656" height="53.8875" class="st4"/>
		</g>
		<g id="shape11-52" v:mID="11" v:groupContext="shape" transform="translate(473.395,-393.324)">
			<title>Sheet.11</title>
			<desc>AllJoyn Consumer Device</desc>
			<v:userDefs>
				<v:ud v:nameU="msvThemeColors" v:val="VT0(36):26"/>
				<v:ud v:nameU="msvThemeEffects" v:val="VT0(16):26"/>
			</v:userDefs>
			<v:textBlock v:margins="rect(4,4,4,4)"/>
			<v:textRect cx="70.3913" cy="604" width="140.79" height="16"/>
			<rect x="0" y="596" width="140.783" height="16" class="st5"/>
			<text x="9.34" y="607.6" class="st6" v:langID="1033"><v:paragraph v:horizAlign="1"/><v:tabList/>AllJoyn Consumer Device</text>		</g>
		<g id="shape12-55" v:mID="12" v:groupContext="shape" transform="translate(475.621,-206.896)">
			<title>Rectangle.23</title>
			<v:userDefs>
				<v:ud v:nameU="visVersion" v:val="VT0(14):26"/>
				<v:ud v:nameU="msvThemeColors" v:val="VT0(36):26"/>
				<v:ud v:nameU="msvThemeEffects" v:val="VT0(16):26"/>
			</v:userDefs>
			<g id="shadow12-56" v:groupContext="shadow" v:shadowOffsetX="1.44" v:shadowOffsetY="-1.44" v:shadowType="1"
					transform="matrix(1,0,0,1,1.44,1.44)" class="st1">
				<rect x="0" y="519.429" width="124.656" height="92.5714" class="st2"/>
			</g>
			<rect x="0" y="519.429" width="124.656" height="92.5714" class="st4"/>
		</g>
		<g id="shape13-60" v:mID="13" v:groupContext="shape" transform="translate(507.054,-208.021)">
			<title>Sheet.13</title>
			<desc>AllJoyn Router</desc>
			<v:userDefs>
				<v:ud v:nameU="msvThemeColors" v:val="VT0(36):26"/>
				<v:ud v:nameU="msvThemeEffects" v:val="VT0(16):26"/>
			</v:userDefs>
			<v:textBlock v:margins="rect(4,4,4,4)"/>
			<v:textRect cx="37.6071" cy="604.607" width="75.22" height="14.7857"/>
			<rect x="0" y="597.214" width="75.2143" height="14.7857" class="st5"/>
			<text x="10.41" y="607.31" class="st7" v:langID="1033"><v:paragraph v:horizAlign="1"/><v:tabList/>AllJoyn Router</text>		</g>
		<g id="shape14-63" v:mID="14" v:groupContext="shape" transform="translate(485.445,-306.538)">
			<title>Sheet.14</title>
			<desc>Join Session</desc>
			<v:userDefs>
				<v:ud v:nameU="msvThemeColors" v:val="VT0(36):26"/>
				<v:ud v:nameU="msvThemeEffects" v:val="VT0(16):26"/>
			</v:userDefs>
			<v:textBlock v:margins="rect(4,4,4,4)"/>
			<v:textRect cx="21.777" cy="607.5" width="43.56" height="9"/>
			<rect x="0" y="603" width="43.554" height="9" class="st5"/>
			<text x="14.57" y="604.8" class="st8" v:langID="1033"><v:paragraph v:horizAlign="1"/><v:tabList/>Join <tspan x="8.18"
						dy="1.2em" class="st9">Session</tspan></text>		</g>
		<g id="shape15-67" v:mID="15" v:groupContext="shape" transform="translate(333.482,-278.735)">
			<title>Sheet.15</title>
			<desc>Establish physical connection</desc>
			<v:userDefs>
				<v:ud v:nameU="msvThemeColors" v:val="VT0(36):26"/>
				<v:ud v:nameU="msvThemeEffects" v:val="VT0(16):26"/>
			</v:userDefs>
			<v:textBlock v:margins="rect(4,4,4,4)"/>
			<v:textRect cx="64.0446" cy="607.5" width="128.09" height="9"/>
			<rect x="0" y="603" width="128.089" height="9" class="st5"/>
			<text x="10.76" y="610.2" class="st8" v:langID="1033"><v:paragraph v:horizAlign="1"/><v:tabList/>Establish physical connection  </text>		</g>
		<g id="shape16-70" v:mID="16" v:groupContext="shape" v:layerMember="0"
				transform="translate(-366.589,282.479) rotate(-90) scale(-1,1)">
			<title>Line-curve connector.34</title>
			<v:userDefs>
				<v:ud v:nameU="AntiScale" v:val="VT0(1):26"/>
				<v:ud v:nameU="Scale" v:val="VT0(1):26"/>
				<v:ud v:nameU="visVersion" v:val="VT0(14):26"/>
				<v:ud v:nameU="msvThemeColors" v:val="VT0(36):26"/>
				<v:ud v:nameU="msvThemeEffects" v:val="VT0(16):26"/>
			</v:userDefs>
			<path d="M10.2 612 L10.56 612 L41.62 612 L41.62 612" class="st13"/>
		</g>
		<g id="shape17-77" v:mID="17" v:groupContext="shape" transform="translate(178.554,-307.663)">
			<title>Sheet.17</title>
			<desc>Session Joined (seesionId)</desc>
			<v:userDefs>
				<v:ud v:nameU="msvThemeColors" v:val="VT0(36):26"/>
				<v:ud v:nameU="msvThemeEffects" v:val="VT0(16):26"/>
			</v:userDefs>
			<v:textBlock v:margins="rect(4,4,4,4)"/>
			<v:textRect cx="36" cy="607.5" width="72" height="9"/>
			<rect x="0" y="603" width="72" height="9" class="st5"/>
			<text x="9.58" y="604.8" class="st8" v:langID="1033"><v:paragraph v:horizAlign="1"/><v:tabList/>Session Joined <tspan
						x="16" dy="1.2em" class="st9">(</tspan>seesionId)</text>		</g>
		<g id="shape18-81" v:mID="18" v:groupContext="shape" transform="translate(304.078,-276.16) rotate(0.196218)">
			<title>Sheet.18</title>
			<v:userDefs>
				<v:ud v:nameU="msvThemeColors" v:val="VT0(36):26"/>
				<v:ud v:nameU="msvThemeEffects" v:val="VT0(16):26"/>
			</v:userDefs>
			<g id="shadow18-82" v:groupContext="shadow" v:shadowOffsetX="1.44" v:shadowOffsetY="-1.44" v:shadowType="1"
					transform="matrix(1,1.88041E-019,1.88041E-019,1,1.44492,1.43506)" class="st1">
				<path d="M7.95 612 L8.31 612 L179.41 612" class="st14"/>
			</g>
			<path d="M7.95 612 L8.31 612 L179.41 612" class="st16"/>
		</g>
		<g id="shape19-100" v:mID="19" v:groupContext="shape" transform="translate(489.945,-237.11)">
			<title>Rounded rectangle.7</title>
			<desc>AllJoyn Session Object</desc>
			<v:userDefs>
				<v:ud v:nameU="visVersion" v:val="VT0(14):26"/>
				<v:ud v:nameU="msvThemeColors" v:val="VT0(36):26"/>
				<v:ud v:nameU="msvThemeEffects" v:val="VT0(16):26"/>
			</v:userDefs>
			<v:textBlock v:margins="rect(4,4,4,4)"/>
			<v:textRect cx="47.1696" cy="586.366" width="94.34" height="51.2679"/>
			<g id="shadow19-101" v:groupContext="shadow" v:shadowOffsetX="1.44" v:shadowOffsetY="-1.44" v:shadowType="1"
					transform="matrix(1,0,0,1,1.44,1.44)" class="st1">
				<path d="M85.34 612 A9.00007 9.00007 -180 0 0 94.34 603 L94.34 569.73 A9.00007 9.00007 -180 0 0 85.34 560.73 L9 560.73
							 A9.00007 9.00007 -180 0 0 -0 569.73 L0 603 A9.00007 9.00007 -180 0 0 9 612 L85.34 612 Z" class="st2"/>
			</g>
			<path d="M85.34 612 A9.00007 9.00007 -180 0 0 94.34 603 L94.34 569.73 A9.00007 9.00007 -180 0 0 85.34 560.73 L9 560.73
						 A9.00007 9.00007 -180 0 0 -0 569.73 L0 603 A9.00007 9.00007 -180 0 0 9 612 L85.34 612 Z" class="st10"/>
			<text x="5.51" y="589.07" class="st7" v:langID="1033"><v:paragraph v:horizAlign="1"/><v:tabList/>AllJoyn Session Object</text>		</g>
		<g id="shape20-106" v:mID="20" v:groupContext="shape" v:layerMember="0"
				transform="translate(1136.01,282.972) rotate(89.7603)">
			<title>Line-curve connector.9</title>
			<v:userDefs>
				<v:ud v:nameU="AntiScale" v:val="VT0(1):26"/>
				<v:ud v:nameU="Scale" v:val="VT0(1):26"/>
				<v:ud v:nameU="visVersion" v:val="VT0(14):26"/>
				<v:ud v:nameU="msvThemeColors" v:val="VT0(36):26"/>
				<v:ud v:nameU="msvThemeEffects" v:val="VT0(16):26"/>
			</v:userDefs>
			<path d="M0 612 L27.85 612 L27.85 612" class="st11"/>
		</g>
		<g id="shape21-112" v:mID="21" v:groupContext="shape" v:layerMember="0" transform="translate(-67.4121,323.462) rotate(-90)">
			<title>Line-curve connector.11</title>
			<v:userDefs>
				<v:ud v:nameU="AntiScale" v:val="VT0(1):26"/>
				<v:ud v:nameU="Scale" v:val="VT0(1):26"/>
				<v:ud v:nameU="visVersion" v:val="VT0(14):26"/>
				<v:ud v:nameU="msvThemeColors" v:val="VT0(36):26"/>
				<v:ud v:nameU="msvThemeEffects" v:val="VT0(16):26"/>
			</v:userDefs>
			<path d="M0 612 L27.69 612 L27.69 612" class="st11"/>
		</g>
		<g id="shape22-118" v:mID="22" v:groupContext="shape" transform="translate(540.731,-306.538)">
			<title>Sheet.22</title>
			<desc>Status OK (sessionId)</desc>
			<v:userDefs>
				<v:ud v:nameU="msvThemeColors" v:val="VT0(36):26"/>
				<v:ud v:nameU="msvThemeEffects" v:val="VT0(16):26"/>
			</v:userDefs>
			<v:textBlock v:margins="rect(4,4,4,4)"/>
			<v:textRect cx="29.25" cy="607.5" width="58.5" height="9"/>
			<rect x="0" y="603" width="58.5" height="9" class="st5"/>
			<text x="11.55" y="604.8" class="st8" v:langID="1033"><v:paragraph v:horizAlign="1"/><v:tabList/>Status OK<v:newlineChar/><tspan
						x="9.73" dy="1.2em" class="st9">(</tspan>sessionId)</text>		</g>
		<g id="shape23-122" v:mID="23" v:groupContext="shape" transform="translate(299.886,-252.374) rotate(-0.196218)">
			<title>Sheet.23</title>
			<v:userDefs>
				<v:ud v:nameU="msvThemeColors" v:val="VT0(36):26"/>
				<v:ud v:nameU="msvThemeEffects" v:val="VT0(16):26"/>
			</v:userDefs>
			<g id="shadow23-123" v:groupContext="shadow" v:shadowOffsetX="1.44" v:shadowOffsetY="-1.44" v:shadowType="1"
					transform="matrix(1,-1.02703E-019,-1.02703E-019,1,1.43506,1.44492)" class="st1">
				<path d="M7.95 612 L8.31 612 L179.41 612" class="st14"/>
			</g>
			<path d="M7.95 612 L8.31 612 L179.41 612" class="st16"/>
		</g>
		<g id="shape24-137" v:mID="24" v:groupContext="shape" transform="translate(334.125,-253.663)">
			<title>Sheet.24</title>
			<desc>Establish AllJoyn Session</desc>
			<v:userDefs>
				<v:ud v:nameU="msvThemeColors" v:val="VT0(36):26"/>
				<v:ud v:nameU="msvThemeEffects" v:val="VT0(16):26"/>
			</v:userDefs>
			<v:textBlock v:margins="rect(4,4,4,4)"/>
			<v:textRect cx="64.6071" cy="607.5" width="129.22" height="9"/>
			<rect x="0" y="603" width="129.214" height="9" class="st5"/>
			<text x="19.92" y="610.2" class="st8" v:langID="1033"><v:paragraph v:horizAlign="1"/><v:tabList/>Establish AllJoyn Session</text>		</g>
		<g id="shape25-140" v:mID="25" v:groupContext="shape" transform="translate(208.446,-328.396)">
			<title>Rectangle.25</title>
			<desc>AllJoyn Core Library</desc>
			<v:userDefs>
				<v:ud v:nameU="visVersion" v:val="VT0(14):26"/>
				<v:ud v:nameU="msvThemeColors" v:val="VT0(36):26"/>
				<v:ud v:nameU="msvThemeEffects" v:val="VT0(16):26"/>
			</v:userDefs>
			<v:textBlock v:margins="rect(4,4,4,4)"/>
			<v:textRect cx="47.25" cy="601.554" width="94.5" height="20.8929"/>
			<g id="shadow25-141" v:groupContext="shadow" v:shadowOffsetX="1.44" v:shadowOffsetY="-1.44" v:shadowType="1"
					transform="matrix(1,0,0,1,1.44,1.44)" class="st1">
				<rect x="0" y="591.107" width="94.5" height="20.8929" class="st2"/>
			</g>
			<rect x="0" y="591.107" width="94.5" height="20.8929" class="st4"/>
			<text x="11.14" y="604.25" class="st8" v:langID="1033"><v:paragraph v:horizAlign="1"/><v:tabList/>AllJoyn Core Library</text>		</g>
		<g id="shape26-146" v:mID="26" v:groupContext="shape" transform="translate(204.268,-359.092)">
			<title>Sheet.26</title>
			<desc>Provider App</desc>
			<v:userDefs>
				<v:ud v:nameU="msvThemeColors" v:val="VT0(36):26"/>
				<v:ud v:nameU="msvThemeEffects" v:val="VT0(16):26"/>
			</v:userDefs>
			<v:textBlock v:margins="rect(4,4,4,4)"/>
			<v:textRect cx="52" cy="604" width="104" height="16"/>
			<rect x="0" y="596" width="104" height="16" class="st5"/>
			<text x="20.2" y="607.6" class="st6" v:langID="1033"><v:paragraph v:horizAlign="1"/><v:tabList/>Provider App</text>		</g>
		<g id="shape27-149" v:mID="27" v:groupContext="shape" transform="translate(483.516,-355.396)">
			<title>Sheet.27</title>
			<desc>Consumer App</desc>
			<v:userDefs>
				<v:ud v:nameU="msvThemeColors" v:val="VT0(36):26"/>
				<v:ud v:nameU="msvThemeEffects" v:val="VT0(16):26"/>
			</v:userDefs>
			<v:textBlock v:margins="rect(4,4,4,4)"/>
			<v:textRect cx="52" cy="604" width="104" height="16"/>
			<rect x="0" y="596" width="104" height="16" class="st5"/>
			<text x="15.98" y="607.6" class="st6" v:langID="1033"><v:paragraph v:horizAlign="1"/><v:tabList/>Consumer App</text>		</g>
		<g id="shape28-152" v:mID="28" v:groupContext="shape" transform="translate(488.177,-325.824)">
			<title>Rectangle.31</title>
			<desc>AllJoyn Core Library</desc>
			<v:userDefs>
				<v:ud v:nameU="visVersion" v:val="VT0(14):26"/>
				<v:ud v:nameU="msvThemeColors" v:val="VT0(36):26"/>
				<v:ud v:nameU="msvThemeEffects" v:val="VT0(16):26"/>
			</v:userDefs>
			<v:textBlock v:margins="rect(4,4,4,4)"/>
			<v:textRect cx="48.9375" cy="601.554" width="97.88" height="20.8929"/>
			<g id="shadow28-153" v:groupContext="shadow" v:shadowOffsetX="1.44" v:shadowOffsetY="-1.44" v:shadowType="1"
					transform="matrix(1,0,0,1,1.44,1.44)" class="st1">
				<rect x="0" y="591.107" width="97.875" height="20.8929" class="st2"/>
			</g>
			<rect x="0" y="591.107" width="97.875" height="20.8929" class="st4"/>
			<text x="12.83" y="604.25" class="st8" v:langID="1033"><v:paragraph v:horizAlign="1"/><v:tabList/>AllJoyn Core Library</text>		</g>
	</g>
</svg>
