<?xml version="1.0" encoding="UTF-8" standalone="no"?>
<!DOCTYPE svg PUBLIC "-//W3C//DTD SVG 1.0//EN" "http://www.w3.org/TR/2001/REC-SVG-20010904/DTD/svg10.dtd">
<!-- Generated by Microsoft Visio 11.0, SVG Export, v1.0 Drawing31.svg Page-1 -->
<svg xmlns="http://www.w3.org/2000/svg" xmlns:xlink="http://www.w3.org/1999/xlink" xmlns:ev="http://www.w3.org/2001/xml-events"
		xmlns:v="http://schemas.microsoft.com/visio/2003/SVGExtensions/" width="11in" height="8.5in" viewBox="0 0 792 612"
		xml:space="preserve" color-interpolation-filters="sRGB" class="st12">
	<v:documentProperties v:langID="1033" v:viewMarkup="false">
		<v:userDefs>
			<v:ud v:nameU="msvNoAutoConnect" v:val="VT0(0):26"/>
		</v:userDefs>
	</v:documentProperties>

	<style type="text/css">
	<![CDATA[
		.st1 {fill:#ffffff}
		.st2 {stroke:#404040;stroke-linecap:round;stroke-linejoin:round;stroke-width:3}
		.st3 {visibility:visible}
		.st4 {fill:#cdcdcd;fill-opacity:0.5;stroke:#cdcdcd;stroke-linecap:round;stroke-linejoin:round;stroke-opacity:0.5;stroke-width:0.25}
		.st5 {fill:url(#grad30-14);stroke:#404040;stroke-linecap:round;stroke-linejoin:round;stroke-width:0.25}
		.st6 {fill:#000000;font-family:Calibri;font-size:1.00001em}
		.st7 {font-size:1em}
		.st8 {fill:url(#grad30-22);stroke:#404040;stroke-linecap:round;stroke-linejoin:round;stroke-width:0.25}
		.st9 {fill:#000000;font-family:Calibri;font-size:0.833336em}
		.st10 {fill:none;stroke:none;stroke-linecap:round;stroke-linejoin:round;stroke-width:0.25}
		.st11 {fill:#c00000;font-family:Calibri;font-size:0.833336em;font-weight:bold}
		.st12 {fill:none;fill-rule:evenodd;font-size:12px;overflow:visible;stroke-linecap:square;stroke-miterlimit:3}
	]]>
	</style>

	<defs id="Patterns_And_Gradients">
		<linearGradient id="grad30-14" v:fillPattern="30" v:foreground="#f0f0f0" v:background="#ffffff" x1="0" y1="1" x2="0" y2="0">
			<stop offset="0" style="stop-color:#f0f0f0;stop-opacity:1"/>
			<stop offset="1" style="stop-color:#ffffff;stop-opacity:1"/>
		</linearGradient>
		<linearGradient id="grad30-22" v:fillPattern="30" v:foreground="#e78636" v:background="#ea9651" x1="0" y1="1" x2="0" y2="0">
			<stop offset="0" style="stop-color:#e78636;stop-opacity:1"/>
			<stop offset="1" style="stop-color:#ea9651;stop-opacity:1"/>
		</linearGradient>
	</defs>
	<g v:mID="0" v:index="1" v:groupContext="foregroundPage">
		<v:userDefs>
			<v:ud v:nameU="msvThemeColors" v:val="VT0(36):26"/>
			<v:ud v:nameU="msvThemeEffects" v:val="VT0(16):26"/>
			<v:ud v:nameU="msvThemeOrder" v:val="VT0(0):26"/>
		</v:userDefs>
		<title>Page-1</title>
		<v:pageProperties v:drawingScale="1" v:pageScale="1" v:drawingUnits="0" v:shadowOffsetX="9" v:shadowOffsetY="-9"/>
		<v:layer v:name="Connector" v:index="0"/>
		<g id="shape1-1" v:mID="1" v:groupContext="shape" v:layerMember="0" transform="translate(252,-305.437)">
			<title>Bus.5</title>
			<v:userDefs>
				<v:ud v:nameU="Scale" v:val="VT0(1):26"/>
				<v:ud v:nameU="AntiScale" v:val="VT0(1):26"/>
				<v:ud v:nameU="visVersion" v:val="VT0(14):26"/>
				<v:ud v:nameU="msvThemeColors" v:val="VT0(36):26"/>
			</v:userDefs>
			<path d="M0 612 L0 610.87 L288 610.87 L288 612 L0 612 Z" class="st1"/>
			<path d="M243 612 L144 612" class="st2"/>
			<path d="M0 612 L0 610.87 L288 610.87 L288 612 L0 612" class="st2"/>
			<path d="M144 559.69 L144 610.87" class="st2"/>
			<path d="M234 664.31 L234 612 L144 612" class="st2"/>
			<path d="M54 664.31 L54 612 L144 612" class="st2"/>
			<path d="M53.34 612 L144 612" class="st2"/>
		</g>
		<g id="shape2-9" v:mID="2" v:groupContext="shape" transform="translate(342,-378)">
			<title>Rounded rectangle</title>
			<desc>AllJoyn Application 1</desc>
			<v:userDefs>
				<v:ud v:nameU="visVersion" v:val="VT0(14):26"/>
				<v:ud v:nameU="msvThemeColors" v:val="VT0(36):26"/>
				<v:ud v:nameU="msvThemeEffects" v:val="VT0(16):26"/>
			</v:userDefs>
			<v:textBlock v:margins="rect(4,4,4,4)"/>
			<v:textRect cx="54" cy="585" width="108" height="54"/>
			<g id="shadow2-10" v:groupContext="shadow" v:shadowOffsetX="1.44" v:shadowOffsetY="-1.44" v:shadowType="1"
					transform="matrix(1,0,0,1,1.44,1.44)" class="st3">
				<path d="M99 612 A9.00007 9.00007 -180 0 0 108 603 L108 567 A9.00007 9.00007 -180 0 0 99 558 L9 558 A9.00007 9.00007
							 -180 0 0 -0 567 L0 603 A9.00007 9.00007 -180 0 0 9 612 L99 612 Z" class="st4"/>
			</g>
			<path d="M99 612 A9.00007 9.00007 -180 0 0 108 603 L108 567 A9.00007 9.00007 -180 0 0 99 558 L9 558 A9.00007 9.00007
						 -180 0 0 -0 567 L0 603 A9.00007 9.00007 -180 0 0 9 612 L99 612 Z" class="st5"/>
			<text x="36.83" y="581.4" class="st6" v:langID="1033"><v:paragraph v:horizAlign="1"/><v:tabList/>AllJoyn <v:newlineChar/><tspan
						x="21.96" dy="1.2em" class="st7">Application </tspan>1</text>		</g>
		<g id="shape3-17" v:mID="3" v:groupContext="shape" transform="translate(342,-357.75)">
			<title>Rectangle</title>
			<desc>AllJoyn Core Library</desc>
			<v:userDefs>
				<v:ud v:nameU="visVersion" v:val="VT0(14):26"/>
				<v:ud v:nameU="msvThemeColors" v:val="VT0(36):26"/>
				<v:ud v:nameU="msvThemeEffects" v:val="VT0(16):26"/>
			</v:userDefs>
			<v:textBlock v:margins="rect(4,4,4,4)"/>
			<v:textRect cx="54" cy="601.875" width="108" height="20.25"/>
			<g id="shadow3-18" v:groupContext="shadow" v:shadowOffsetX="1.44" v:shadowOffsetY="-1.44" v:shadowType="1"
					transform="matrix(1,0,0,1,1.44,1.44)" class="st3">
				<rect x="0" y="591.75" width="108" height="20.25" class="st4"/>
			</g>
			<rect x="0" y="591.75" width="108" height="20.25" class="st8"/>
			<text x="13.88" y="604.88" class="st9" v:langID="1033"><v:paragraph v:horizAlign="1"/><v:tabList/>AllJoyn Core Library</text>		</g>
		<g id="shape4-24" v:mID="4" v:groupContext="shape" transform="translate(252,-180)">
			<title>Rounded rectangle.4</title>
			<desc>AllJoyn Application 2</desc>
			<v:userDefs>
				<v:ud v:nameU="visVersion" v:val="VT0(14):26"/>
				<v:ud v:nameU="msvThemeColors" v:val="VT0(36):26"/>
				<v:ud v:nameU="msvThemeEffects" v:val="VT0(16):26"/>
			</v:userDefs>
			<v:textBlock v:margins="rect(4,4,4,4)"/>
			<v:textRect cx="54" cy="585" width="108" height="54"/>
			<g id="shadow4-25" v:groupContext="shadow" v:shadowOffsetX="1.44" v:shadowOffsetY="-1.44" v:shadowType="1"
					transform="matrix(1,0,0,1,1.44,1.44)" class="st3">
				<path d="M99 612 A9.00007 9.00007 -180 0 0 108 603 L108 567 A9.00007 9.00007 -180 0 0 99 558 L9 558 A9.00007 9.00007
							 -180 0 0 -0 567 L0 603 A9.00007 9.00007 -180 0 0 9 612 L99 612 Z" class="st4"/>
			</g>
			<path d="M99 612 A9.00007 9.00007 -180 0 0 108 603 L108 567 A9.00007 9.00007 -180 0 0 99 558 L9 558 A9.00007 9.00007
						 -180 0 0 -0 567 L0 603 A9.00007 9.00007 -180 0 0 9 612 L99 612 Z" class="st5"/>
			<text x="36.83" y="581.4" class="st6" v:langID="1033"><v:paragraph v:horizAlign="1"/><v:tabList/>AllJoyn <v:newlineChar/><tspan
						x="21.96" dy="1.2em" class="st7">Application </tspan>2</text>		</g>
		<g id="shape5-31" v:mID="5" v:groupContext="shape" transform="translate(252,-232.875)">
			<title>Rectangle.5</title>
			<desc>AllJoyn Core Library</desc>
			<v:userDefs>
				<v:ud v:nameU="visVersion" v:val="VT0(14):26"/>
				<v:ud v:nameU="msvThemeColors" v:val="VT0(36):26"/>
				<v:ud v:nameU="msvThemeEffects" v:val="VT0(16):26"/>
			</v:userDefs>
			<v:textBlock v:margins="rect(4,4,4,4)"/>
			<v:textRect cx="54" cy="601.875" width="108" height="20.25"/>
			<g id="shadow5-32" v:groupContext="shadow" v:shadowOffsetX="1.44" v:shadowOffsetY="-1.44" v:shadowType="1"
					transform="matrix(1,0,0,1,1.44,1.44)" class="st3">
				<rect x="0" y="591.75" width="108" height="20.25" class="st4"/>
			</g>
			<rect x="0" y="591.75" width="108" height="20.25" class="st8"/>
			<text x="13.88" y="604.88" class="st9" v:langID="1033"><v:paragraph v:horizAlign="1"/><v:tabList/>AllJoyn Core Library</text>		</g>
		<g id="shape6-37" v:mID="6" v:groupContext="shape" transform="translate(432,-180)">
			<title>Rounded rectangle.6</title>
			<desc>AllJoyn Application 3</desc>
			<v:userDefs>
				<v:ud v:nameU="visVersion" v:val="VT0(14):26"/>
				<v:ud v:nameU="msvThemeColors" v:val="VT0(36):26"/>
				<v:ud v:nameU="msvThemeEffects" v:val="VT0(16):26"/>
			</v:userDefs>
			<v:textBlock v:margins="rect(4,4,4,4)"/>
			<v:textRect cx="54" cy="585" width="108" height="54"/>
			<g id="shadow6-38" v:groupContext="shadow" v:shadowOffsetX="1.44" v:shadowOffsetY="-1.44" v:shadowType="1"
					transform="matrix(1,0,0,1,1.44,1.44)" class="st3">
				<path d="M99 612 A9.00007 9.00007 -180 0 0 108 603 L108 567 A9.00007 9.00007 -180 0 0 99 558 L9 558 A9.00007 9.00007
							 -180 0 0 -0 567 L0 603 A9.00007 9.00007 -180 0 0 9 612 L99 612 Z" class="st4"/>
			</g>
			<path d="M99 612 A9.00007 9.00007 -180 0 0 108 603 L108 567 A9.00007 9.00007 -180 0 0 99 558 L9 558 A9.00007 9.00007
						 -180 0 0 -0 567 L0 603 A9.00007 9.00007 -180 0 0 9 612 L99 612 Z" class="st5"/>
			<text x="36.83" y="581.4" class="st6" v:langID="1033"><v:paragraph v:horizAlign="1"/><v:tabList/>AllJoyn <v:newlineChar/><tspan
						x="21.96" dy="1.2em" class="st7">Application </tspan>3</text>		</g>
		<g id="shape7-44" v:mID="7" v:groupContext="shape" transform="translate(432,-232.875)">
			<title>Rectangle.7</title>
			<desc>AllJoyn Core Library</desc>
			<v:userDefs>
				<v:ud v:nameU="visVersion" v:val="VT0(14):26"/>
				<v:ud v:nameU="msvThemeColors" v:val="VT0(36):26"/>
				<v:ud v:nameU="msvThemeEffects" v:val="VT0(16):26"/>
			</v:userDefs>
			<v:textBlock v:margins="rect(4,4,4,4)"/>
			<v:textRect cx="54" cy="601.875" width="108" height="20.25"/>
			<g id="shadow7-45" v:groupContext="shadow" v:shadowOffsetX="1.44" v:shadowOffsetY="-1.44" v:shadowType="1"
					transform="matrix(1,0,0,1,1.44,1.44)" class="st3">
				<rect x="0" y="591.75" width="108" height="20.25" class="st4"/>
			</g>
			<rect x="0" y="591.75" width="108" height="20.25" class="st8"/>
			<text x="13.88" y="604.88" class="st9" v:langID="1033"><v:paragraph v:horizAlign="1"/><v:tabList/>AllJoyn Core Library</text>		</g>
		<g id="shape8-50" v:mID="8" v:groupContext="shape" transform="translate(343.286,-288)">
			<title>Sheet.8</title>
			<desc>AllJoyn Bus</desc>
			<v:userDefs>
				<v:ud v:nameU="msvThemeColors" v:val="VT0(36):26"/>
				<v:ud v:nameU="msvThemeEffects" v:val="VT0(16):26"/>
			</v:userDefs>
			<v:textBlock v:margins="rect(4,4,4,4)"/>
			<v:textRect cx="52" cy="605.25" width="104" height="13.5"/>
			<rect x="0" y="598.5" width="104" height="13.5" class="st10"/>
			<text x="24.71" y="608.85" class="st6" v:langID="1033"><v:paragraph v:horizAlign="1"/><v:tabList/>AllJoyn Bus</text>		</g>
		<g id="shape9-53" v:mID="9" v:groupContext="shape" transform="translate(396,-342)">
			<title>Sheet.9</title>
			<desc>:100.2</desc>
			<v:userDefs>
				<v:ud v:nameU="msvThemeColors" v:val="VT0(36):26"/>
				<v:ud v:nameU="msvThemeEffects" v:val="VT0(16):26"/>
			</v:userDefs>
			<v:textBlock v:margins="rect(4,4,4,4)"/>
			<v:textRect cx="21.2143" cy="604.125" width="42.43" height="15.75"/>
			<rect x="0" y="596.25" width="42.4286" height="15.75" class="st10"/>
			<text x="8.36" y="607.13" class="st11" v:langID="1033"><v:paragraph v:horizAlign="1"/><v:tabList/>:100.2</text>		</g>
		<g id="shape10-56" v:mID="10" v:groupContext="shape" transform="translate(306,-254.25)">
			<title>Sheet.10</title>
			<desc>:100.3</desc>
			<v:userDefs>
				<v:ud v:nameU="msvThemeColors" v:val="VT0(36):26"/>
				<v:ud v:nameU="msvThemeEffects" v:val="VT0(16):26"/>
			</v:userDefs>
			<v:textBlock v:margins="rect(4,4,4,4)"/>
			<v:textRect cx="21.5357" cy="605.25" width="43.08" height="13.5"/>
			<rect x="0" y="598.5" width="43.0714" height="13.5" class="st10"/>
			<text x="8.68" y="608.25" class="st11" v:langID="1033"><v:paragraph v:horizAlign="1"/><v:tabList/>:100.3</text>		</g>
		<g id="shape11-59" v:mID="11" v:groupContext="shape" transform="translate(486,-254.25)">
			<title>Sheet.11</title>
			<desc>:100.4</desc>
			<v:userDefs>
				<v:ud v:nameU="msvThemeColors" v:val="VT0(36):26"/>
				<v:ud v:nameU="msvThemeEffects" v:val="VT0(16):26"/>
			</v:userDefs>
			<v:textBlock v:margins="rect(4,4,4,4)"/>
			<v:textRect cx="20.25" cy="605.25" width="40.5" height="13.5"/>
			<rect x="0" y="598.5" width="40.5" height="13.5" class="st10"/>
			<text x="7.4" y="608.25" class="st11" v:langID="1033"><v:paragraph v:horizAlign="1"/><v:tabList/>:100.4</text>		</g>
	</g>
</svg>
