<?xml version="1.0" encoding="UTF-8" standalone="no"?>
<!DOCTYPE svg PUBLIC "-//W3C//DTD SVG 1.0//EN" "http://www.w3.org/TR/2001/REC-SVG-20010904/DTD/svg10.dtd">
<!-- Generated by Microsoft Visio 11.0, SVG Export, v1.0 Drawing7.svg Page-1 -->
<svg xmlns="http://www.w3.org/2000/svg" xmlns:xlink="http://www.w3.org/1999/xlink" xmlns:ev="http://www.w3.org/2001/xml-events"
		xmlns:v="http://schemas.microsoft.com/visio/2003/SVGExtensions/" width="11in" height="8.5in" viewBox="0 0 792 612"
		xml:space="preserve" color-interpolation-filters="sRGB" class="st12">
	<v:documentProperties v:langID="1033" v:viewMarkup="false">
		<v:userDefs>
			<v:ud v:nameU="msvNoAutoConnect" v:val="VT0(0):26"/>
		</v:userDefs>
	</v:documentProperties>

	<style type="text/css">
	<![CDATA[
		.st1 {visibility:visible}
		.st2 {fill:#cdcdcd;fill-opacity:0.5;stroke:#cdcdcd;stroke-linecap:round;stroke-linejoin:round;stroke-opacity:0.5;stroke-width:0.25}
		.st3 {fill:url(#grad30-6);stroke:#404040;stroke-linecap:round;stroke-linejoin:round;stroke-width:0.25}
		.st4 {fill:url(#grad30-17);stroke:#404040;stroke-linecap:round;stroke-linejoin:round;stroke-width:0.25}
		.st5 {fill:#000000;font-family:Calibri;font-size:1.00001em}
		.st6 {fill:url(#grad30-29);stroke:#404040;stroke-linecap:round;stroke-linejoin:round;stroke-width:0.25}
		.st7 {font-size:1em}
		.st8 {stroke:#cdcdcd;stroke-linecap:round;stroke-linejoin:round;stroke-opacity:0.5;stroke-width:0.25}
		.st9 {stroke:#404040;stroke-linecap:round;stroke-linejoin:round;stroke-width:0.25}
		.st10 {fill:none;stroke:none;stroke-linecap:round;stroke-linejoin:round;stroke-width:0.25}
		.st11 {fill:#000000;font-family:Calibri;font-size:1.00001em;font-weight:bold}
		.st12 {fill:none;fill-rule:evenodd;font-size:12px;overflow:visible;stroke-linecap:square;stroke-miterlimit:3}
	]]>
	</style>

	<defs id="Patterns_And_Gradients">
		<linearGradient id="grad30-6" v:fillPattern="30" v:foreground="#f0f0f0" v:background="#ffffff" x1="0" y1="1" x2="0" y2="0">
			<stop offset="0" style="stop-color:#f0f0f0;stop-opacity:1"/>
			<stop offset="1" style="stop-color:#ffffff;stop-opacity:1"/>
		</linearGradient>
		<linearGradient id="grad30-17" v:fillPattern="30" v:foreground="#a4afd7" v:background="#b8c1e0" x1="0" y1="1" x2="0" y2="0">
			<stop offset="0" style="stop-color:#a4afd7;stop-opacity:1"/>
			<stop offset="1" style="stop-color:#b8c1e0;stop-opacity:1"/>
		</linearGradient>
		<linearGradient id="grad30-29" v:fillPattern="30" v:foreground="#f2c59f" v:background="#f6d5b9" x1="0" y1="1" x2="0" y2="0">
			<stop offset="0" style="stop-color:#f2c59f;stop-opacity:1"/>
			<stop offset="1" style="stop-color:#f6d5b9;stop-opacity:1"/>
		</linearGradient>
	</defs>
	<g v:mID="0" v:index="1" v:groupContext="foregroundPage">
		<v:userDefs>
			<v:ud v:nameU="msvThemeColors" v:val="VT0(36):26"/>
			<v:ud v:nameU="msvThemeEffects" v:val="VT0(16):26"/>
			<v:ud v:nameU="msvThemeOrder" v:val="VT0(0):26"/>
		</v:userDefs>
		<title>Page-1</title>
		<v:pageProperties v:drawingScale="1" v:pageScale="1" v:drawingUnits="0" v:shadowOffsetX="9" v:shadowOffsetY="-9"/>
		<g id="shape1-1" v:mID="1" v:groupContext="shape" transform="translate(445.5,-231.125)">
			<title>Rectangle.33</title>
			<v:userDefs>
				<v:ud v:nameU="visVersion" v:val="VT0(14):26"/>
				<v:ud v:nameU="msvThemeColors" v:val="VT0(36):26"/>
				<v:ud v:nameU="msvThemeEffects" v:val="VT0(16):26"/>
			</v:userDefs>
			<g id="shadow1-2" v:groupContext="shadow" v:shadowOffsetX="1.44" v:shadowOffsetY="-1.44" v:shadowType="1"
					transform="matrix(1,0,0,1,1.44,1.44)" class="st1">
				<rect x="0" y="477" width="171" height="135" class="st2"/>
			</g>
			<rect x="0" y="477" width="171" height="135" class="st3"/>
		</g>
		<g id="shape2-7" v:mID="2" v:groupContext="shape" transform="translate(175.5,-231.125)">
			<title>Rectangle.17</title>
			<v:userDefs>
				<v:ud v:nameU="visVersion" v:val="VT0(14):26"/>
				<v:ud v:nameU="msvThemeColors" v:val="VT0(36):26"/>
				<v:ud v:nameU="msvThemeEffects" v:val="VT0(16):26"/>
			</v:userDefs>
			<g id="shadow2-8" v:groupContext="shadow" v:shadowOffsetX="1.44" v:shadowOffsetY="-1.44" v:shadowType="1"
					transform="matrix(1,0,0,1,1.44,1.44)" class="st1">
				<rect x="0" y="477" width="216" height="135" class="st2"/>
			</g>
			<rect x="0" y="477" width="216" height="135" class="st3"/>
		</g>
		<g id="shape3-12" v:mID="3" v:groupContext="shape" transform="translate(189.5,-253.625)">
			<title>Rectangle.27</title>
			<v:userDefs>
				<v:ud v:nameU="visVersion" v:val="VT0(14):26"/>
				<v:ud v:nameU="msvThemeColors" v:val="VT0(36):26"/>
				<v:ud v:nameU="msvThemeEffects" v:val="VT0(16):26"/>
			</v:userDefs>
			<g id="shadow3-13" v:groupContext="shadow" v:shadowOffsetX="1.44" v:shadowOffsetY="-1.44" v:shadowType="1"
					transform="matrix(1,0,0,1,1.44,1.44)" class="st1">
				<rect x="0" y="513" width="81" height="99" class="st2"/>
			</g>
			<rect x="0" y="513" width="81" height="99" class="st4"/>
		</g>
		<g id="shape4-18" v:mID="4" v:groupContext="shape" transform="translate(198.5,-318.324)">
			<title>Rounded rectangle.4</title>
			<desc>App1</desc>
			<v:userDefs>
				<v:ud v:nameU="visVersion" v:val="VT0(14):26"/>
				<v:ud v:nameU="msvThemeColors" v:val="VT0(36):26"/>
				<v:ud v:nameU="msvThemeEffects" v:val="VT0(16):26"/>
			</v:userDefs>
			<v:textBlock v:margins="rect(4,4,4,4)"/>
			<v:textRect cx="30.8558" cy="601.599" width="61.72" height="20.8013"/>
			<g id="shadow4-19" v:groupContext="shadow" v:shadowOffsetX="1.44" v:shadowOffsetY="-1.44" v:shadowType="1"
					transform="matrix(1,0,0,1,1.44,1.44)" class="st1">
				<path d="M52.71 612 A9.00007 9.00007 -180 0 0 61.71 603 L61.71 600.2 A9.00007 9.00007 -180 0 0 52.71 591.2 L9 591.2
							 A9.00007 9.00007 -180 0 0 -0 600.2 L0 603 A9.00007 9.00007 -180 0 0 9 612 L52.71 612 Z" class="st2"/>
			</g>
			<path d="M52.71 612 A9.00007 9.00007 -180 0 0 61.71 603 L61.71 600.2 A9.00007 9.00007 -180 0 0 52.71 591.2 L9 591.2 A9.00007
						 9.00007 -180 0 0 -0 600.2 L0 603 A9.00007 9.00007 -180 0 0 9 612 L52.71 612 Z" class="st3"/>
			<text x="18.04" y="605.2" class="st5" v:langID="1033"><v:paragraph v:horizAlign="1"/><v:tabList/>App1</text>		</g>
		<g id="shape5-24" v:mID="5" v:groupContext="shape" transform="translate(198.5,-267.125)">
			<title>Rounded rectangle.5</title>
			<desc>AllJoyn Router</desc>
			<v:userDefs>
				<v:ud v:nameU="visVersion" v:val="VT0(14):26"/>
				<v:ud v:nameU="msvThemeColors" v:val="VT0(36):26"/>
				<v:ud v:nameU="msvThemeEffects" v:val="VT0(16):26"/>
			</v:userDefs>
			<v:textBlock v:margins="rect(4,4,4,4)"/>
			<v:textRect cx="30.8558" cy="599.631" width="61.72" height="24.7372"/>
			<g id="shadow5-25" v:groupContext="shadow" v:shadowOffsetX="1.44" v:shadowOffsetY="-1.44" v:shadowType="1"
					transform="matrix(1,0,0,1,1.44,1.44)" class="st1">
				<path d="M52.71 612 A9.00007 9.00007 -180 0 0 61.71 603 L61.71 596.26 A9.00007 9.00007 -180 0 0 52.71 587.26 L9 587.26
							 A9.00007 9.00007 -180 0 0 -0 596.26 L0 603 A9.00007 9.00007 -180 0 0 9 612 L52.71 612 Z" class="st2"/>
			</g>
			<path d="M52.71 612 A9.00007 9.00007 -180 0 0 61.71 603 L61.71 596.26 A9.00007 9.00007 -180 0 0 52.71 587.26 L9 587.26
						 A9.00007 9.00007 -180 0 0 -0 596.26 L0 603 A9.00007 9.00007 -180 0 0 9 612 L52.71 612 Z" class="st6"/>
			<text x="13.68" y="596.03" class="st5" v:langID="1033"><v:paragraph v:horizAlign="1"/><v:tabList/>AllJoyn <v:newlineChar/><tspan
						x="14.19" dy="1.2em" class="st7">Router</tspan></text>		</g>
		<g id="shape6-32" v:mID="6" v:groupContext="shape" transform="translate(-382.644,320.138) rotate(-90)">
			<title>Sheet.6</title>
			<v:userDefs>
				<v:ud v:nameU="msvThemeColors" v:val="VT0(36):26"/>
				<v:ud v:nameU="msvThemeEffects" v:val="VT0(16):26"/>
			</v:userDefs>
			<g id="shadow6-33" v:groupContext="shadow" v:shadowOffsetX="1.44" v:shadowOffsetY="-1.44" v:shadowType="1"
					transform="matrix(1,0,0,1,-1.44,1.44)" class="st1">
				<path d="M0 612 L26.46 612" class="st8"/>
			</g>
			<path d="M0 612 L26.46 612" class="st9"/>
		</g>
		<g id="shape7-39" v:mID="7" v:groupContext="shape" transform="translate(458.517,-314.142)">
			<title>Rounded rectangle.23</title>
			<desc>App1</desc>
			<v:userDefs>
				<v:ud v:nameU="visVersion" v:val="VT0(14):26"/>
				<v:ud v:nameU="msvThemeColors" v:val="VT0(36):26"/>
				<v:ud v:nameU="msvThemeEffects" v:val="VT0(16):26"/>
			</v:userDefs>
			<v:textBlock v:margins="rect(4,4,4,4)"/>
			<v:textRect cx="31.9834" cy="599.509" width="63.97" height="24.9828"/>
			<g id="shadow7-40" v:groupContext="shadow" v:shadowOffsetX="1.44" v:shadowOffsetY="-1.44" v:shadowType="1"
					transform="matrix(1,0,0,1,1.44,1.44)" class="st1">
				<path d="M54.97 612 A9.00007 9.00007 -180 0 0 63.97 603 L63.97 596.02 A9.00007 9.00007 -180 0 0 54.97 587.02 L9 587.02
							 A9.00007 9.00007 -180 0 0 -0 596.02 L0 603 A9.00007 9.00007 -180 0 0 9 612 L54.97 612 Z" class="st2"/>
			</g>
			<path d="M54.97 612 A9.00007 9.00007 -180 0 0 63.97 603 L63.97 596.02 A9.00007 9.00007 -180 0 0 54.97 587.02 L9 587.02
						 A9.00007 9.00007 -180 0 0 -0 596.02 L0 603 A9.00007 9.00007 -180 0 0 9 612 L54.97 612 Z" class="st3"/>
			<text x="19.17" y="603.11" class="st5" v:langID="1033"><v:paragraph v:horizAlign="1"/><v:tabList/>App1</text>		</g>
		<g id="shape8-45" v:mID="8" v:groupContext="shape" transform="translate(454.5,-253.625)">
			<title>Rounded rectangle.24</title>
			<desc>AllJoyn Router</desc>
			<v:userDefs>
				<v:ud v:nameU="visVersion" v:val="VT0(14):26"/>
				<v:ud v:nameU="msvThemeColors" v:val="VT0(36):26"/>
				<v:ud v:nameU="msvThemeEffects" v:val="VT0(16):26"/>
			</v:userDefs>
			<v:textBlock v:margins="rect(4,4,4,4)"/>
			<v:textRect cx="76.5" cy="599.509" width="153" height="24.9828"/>
			<g id="shadow8-46" v:groupContext="shadow" v:shadowOffsetX="1.44" v:shadowOffsetY="-1.44" v:shadowType="1"
					transform="matrix(1,0,0,1,1.44,1.44)" class="st1">
				<path d="M144 612 A9.00007 9.00007 -180 0 0 153 603 L153 596.02 A9.00007 9.00007 -180 0 0 144 587.02 L9 587.02 A9.00007
							 9.00007 -180 0 0 -0 596.02 L0 603 A9.00007 9.00007 -180 0 0 9 612 L144 612 Z" class="st2"/>
			</g>
			<path d="M144 612 A9.00007 9.00007 -180 0 0 153 603 L153 596.02 A9.00007 9.00007 -180 0 0 144 587.02 L9 587.02 A9.00007
						 9.00007 -180 0 0 -0 596.02 L0 603 A9.00007 9.00007 -180 0 0 9 612 L144 612 Z" class="st6"/>
			<text x="41.31" y="603.11" class="st5" v:langID="1033"><v:paragraph v:horizAlign="1"/><v:tabList/>AllJoyn Router</text>		</g>
		<g id="shape9-51" v:mID="9" v:groupContext="shape" transform="translate(-121.5,334.75) rotate(-90)">
			<title>Sheet.9</title>
			<v:userDefs>
				<v:ud v:nameU="msvThemeColors" v:val="VT0(36):26"/>
				<v:ud v:nameU="msvThemeEffects" v:val="VT0(16):26"/>
			</v:userDefs>
			<g id="shadow9-52" v:groupContext="shadow" v:shadowOffsetX="1.44" v:shadowOffsetY="-1.44" v:shadowType="1"
					transform="matrix(1,0,0,1,-1.44,1.44)" class="st1">
				<path d="M0 612 L36.89 612" class="st8"/>
			</g>
			<path d="M0 612 L36.89 612" class="st9"/>
		</g>
		<g id="shape10-58" v:mID="10" v:groupContext="shape" transform="translate(-40.5,333.625) rotate(-90)">
			<title>Sheet.10</title>
			<v:userDefs>
				<v:ud v:nameU="msvThemeColors" v:val="VT0(36):26"/>
				<v:ud v:nameU="msvThemeEffects" v:val="VT0(16):26"/>
			</v:userDefs>
			<g id="shadow10-59" v:groupContext="shadow" v:shadowOffsetX="1.44" v:shadowOffsetY="-1.44" v:shadowType="1"
					transform="matrix(1,0,0,1,-1.44,1.44)" class="st1">
				<path d="M0 612 L35.77 612" class="st8"/>
			</g>
			<path d="M0 612 L35.77 612" class="st9"/>
		</g>
		<g id="shape11-65" v:mID="11" v:groupContext="shape" transform="translate(208.152,-366.125)">
			<title>Sheet.11</title>
			<desc>Bundled AllJoyn Router</desc>
			<v:userDefs>
				<v:ud v:nameU="msvThemeColors" v:val="VT0(36):26"/>
				<v:ud v:nameU="msvThemeEffects" v:val="VT0(16):26"/>
			</v:userDefs>
			<v:textBlock v:margins="rect(4,4,4,4)"/>
			<v:textRect cx="71.6663" cy="605.25" width="143.34" height="13.5"/>
			<rect x="0" y="598.5" width="143.333" height="13.5" class="st10"/>
			<text x="13.3" y="608.85" class="st11" v:langID="1033"><v:paragraph v:horizAlign="1"/><v:tabList/>Bundled AllJoyn Router</text>		</g>
		<g id="shape12-68" v:mID="12" v:groupContext="shape" transform="translate(539.517,-314.142)">
			<title>Rounded rectangle.21</title>
			<desc>App2</desc>
			<v:userDefs>
				<v:ud v:nameU="visVersion" v:val="VT0(14):26"/>
				<v:ud v:nameU="msvThemeColors" v:val="VT0(36):26"/>
				<v:ud v:nameU="msvThemeEffects" v:val="VT0(16):26"/>
			</v:userDefs>
			<v:textBlock v:margins="rect(4,4,4,4)"/>
			<v:textRect cx="31.9834" cy="599.509" width="63.97" height="24.9828"/>
			<g id="shadow12-69" v:groupContext="shadow" v:shadowOffsetX="1.44" v:shadowOffsetY="-1.44" v:shadowType="1"
					transform="matrix(1,0,0,1,1.44,1.44)" class="st1">
				<path d="M54.97 612 A9.00007 9.00007 -180 0 0 63.97 603 L63.97 596.02 A9.00007 9.00007 -180 0 0 54.97 587.02 L9 587.02
							 A9.00007 9.00007 -180 0 0 -0 596.02 L0 603 A9.00007 9.00007 -180 0 0 9 612 L54.97 612 Z" class="st2"/>
			</g>
			<path d="M54.97 612 A9.00007 9.00007 -180 0 0 63.97 603 L63.97 596.02 A9.00007 9.00007 -180 0 0 54.97 587.02 L9 587.02
						 A9.00007 9.00007 -180 0 0 -0 596.02 L0 603 A9.00007 9.00007 -180 0 0 9 612 L54.97 612 Z" class="st3"/>
			<text x="19.17" y="603.11" class="st5" v:langID="1033"><v:paragraph v:horizAlign="1"/><v:tabList/>App2</text>		</g>
		<g id="shape13-74" v:mID="13" v:groupContext="shape" transform="translate(295,-253.625)">
			<title>Rectangle.25</title>
			<v:userDefs>
				<v:ud v:nameU="visVersion" v:val="VT0(14):26"/>
				<v:ud v:nameU="msvThemeColors" v:val="VT0(36):26"/>
				<v:ud v:nameU="msvThemeEffects" v:val="VT0(16):26"/>
			</v:userDefs>
			<g id="shadow13-75" v:groupContext="shadow" v:shadowOffsetX="1.44" v:shadowOffsetY="-1.44" v:shadowType="1"
					transform="matrix(1,0,0,1,1.44,1.44)" class="st1">
				<rect x="0" y="513" width="81" height="99" class="st2"/>
			</g>
			<rect x="0" y="513" width="81" height="99" class="st4"/>
		</g>
		<g id="shape14-79" v:mID="14" v:groupContext="shape" transform="translate(304,-318.324)">
			<title>Rounded rectangle.26</title>
			<desc>App2</desc>
			<v:userDefs>
				<v:ud v:nameU="visVersion" v:val="VT0(14):26"/>
				<v:ud v:nameU="msvThemeColors" v:val="VT0(36):26"/>
				<v:ud v:nameU="msvThemeEffects" v:val="VT0(16):26"/>
			</v:userDefs>
			<v:textBlock v:margins="rect(4,4,4,4)"/>
			<v:textRect cx="30.8558" cy="601.599" width="61.72" height="20.8013"/>
			<g id="shadow14-80" v:groupContext="shadow" v:shadowOffsetX="1.44" v:shadowOffsetY="-1.44" v:shadowType="1"
					transform="matrix(1,0,0,1,1.44,1.44)" class="st1">
				<path d="M52.71 612 A9.00007 9.00007 -180 0 0 61.71 603 L61.71 600.2 A9.00007 9.00007 -180 0 0 52.71 591.2 L9 591.2
							 A9.00007 9.00007 -180 0 0 -0 600.2 L0 603 A9.00007 9.00007 -180 0 0 9 612 L52.71 612 Z" class="st2"/>
			</g>
			<path d="M52.71 612 A9.00007 9.00007 -180 0 0 61.71 603 L61.71 600.2 A9.00007 9.00007 -180 0 0 52.71 591.2 L9 591.2 A9.00007
						 9.00007 -180 0 0 -0 600.2 L0 603 A9.00007 9.00007 -180 0 0 9 612 L52.71 612 Z" class="st3"/>
			<text x="18.04" y="605.2" class="st5" v:langID="1033"><v:paragraph v:horizAlign="1"/><v:tabList/>App2</text>		</g>
		<g id="shape15-85" v:mID="15" v:groupContext="shape" transform="translate(304,-267.125)">
			<title>Rounded rectangle.27</title>
			<desc>AllJoyn Router</desc>
			<v:userDefs>
				<v:ud v:nameU="visVersion" v:val="VT0(14):26"/>
				<v:ud v:nameU="msvThemeColors" v:val="VT0(36):26"/>
				<v:ud v:nameU="msvThemeEffects" v:val="VT0(16):26"/>
			</v:userDefs>
			<v:textBlock v:margins="rect(4,4,4,4)"/>
			<v:textRect cx="30.8558" cy="599.631" width="61.72" height="24.7372"/>
			<g id="shadow15-86" v:groupContext="shadow" v:shadowOffsetX="1.44" v:shadowOffsetY="-1.44" v:shadowType="1"
					transform="matrix(1,0,0,1,1.44,1.44)" class="st1">
				<path d="M52.71 612 A9.00007 9.00007 -180 0 0 61.71 603 L61.71 596.26 A9.00007 9.00007 -180 0 0 52.71 587.26 L9 587.26
							 A9.00007 9.00007 -180 0 0 -0 596.26 L0 603 A9.00007 9.00007 -180 0 0 9 612 L52.71 612 Z" class="st2"/>
			</g>
			<path d="M52.71 612 A9.00007 9.00007 -180 0 0 61.71 603 L61.71 596.26 A9.00007 9.00007 -180 0 0 52.71 587.26 L9 587.26
						 A9.00007 9.00007 -180 0 0 -0 596.26 L0 603 A9.00007 9.00007 -180 0 0 9 612 L52.71 612 Z" class="st6"/>
			<text x="13.68" y="596.03" class="st5" v:langID="1033"><v:paragraph v:horizAlign="1"/><v:tabList/>AllJoyn <v:newlineChar/><tspan
						x="14.19" dy="1.2em" class="st7">Router</tspan></text>		</g>
		<g id="shape16-92" v:mID="16" v:groupContext="shape" transform="translate(-277.144,320.138) rotate(-90)">
			<title>Sheet.16</title>
			<v:userDefs>
				<v:ud v:nameU="msvThemeColors" v:val="VT0(36):26"/>
				<v:ud v:nameU="msvThemeEffects" v:val="VT0(16):26"/>
			</v:userDefs>
			<g id="shadow16-93" v:groupContext="shadow" v:shadowOffsetX="1.44" v:shadowOffsetY="-1.44" v:shadowType="1"
					transform="matrix(1,0,0,1,-1.44,1.44)" class="st1">
				<path d="M0 612 L26.46 612" class="st8"/>
			</g>
			<path d="M0 612 L26.46 612" class="st9"/>
		</g>
		<g id="shape17-99" v:mID="17" v:groupContext="shape" transform="translate(447.797,-369.125)">
			<title>Sheet.17</title>
			<desc>Standalone AllJoyn Router</desc>
			<v:userDefs>
				<v:ud v:nameU="msvThemeColors" v:val="VT0(36):26"/>
				<v:ud v:nameU="msvThemeEffects" v:val="VT0(16):26"/>
			</v:userDefs>
			<v:textBlock v:margins="rect(4,4,4,4)"/>
			<v:textRect cx="80.2904" cy="605.75" width="160.59" height="12.5"/>
			<rect x="0" y="599.5" width="160.581" height="12.5" class="st10"/>
			<text x="14.44" y="609.35" class="st11" v:langID="1033"><v:paragraph v:horizAlign="1"/><v:tabList/>Standalone AllJoyn Router</text>		</g>
	</g>
</svg>
