<?xml version="1.0" encoding="UTF-8" standalone="no"?>
<!DOCTYPE svg PUBLIC "-//W3C//DTD SVG 1.0//EN" "http://www.w3.org/TR/2001/REC-SVG-20010904/DTD/svg10.dtd">
<!-- Generated by Microsoft Visio 11.0, SVG Export, v1.0 Drawing34.svg Page-1 -->
<svg xmlns="http://www.w3.org/2000/svg" xmlns:xlink="http://www.w3.org/1999/xlink" xmlns:ev="http://www.w3.org/2001/xml-events"
		xmlns:v="http://schemas.microsoft.com/visio/2003/SVGExtensions/" width="11in" height="8.5in" viewBox="0 0 792 612"
		xml:space="preserve" color-interpolation-filters="sRGB" class="st15">
	<v:documentProperties v:langID="1033" v:viewMarkup="false">
		<v:userDefs>
			<v:ud v:nameU="msvNoAutoConnect" v:val="VT0(0):26"/>
		</v:userDefs>
	</v:documentProperties>

	<style type="text/css">
	<![CDATA[
		.st1 {visibility:visible}
		.st2 {fill:#cdcdcd;fill-opacity:0.5;stroke:#cdcdcd;stroke-linecap:round;stroke-linejoin:round;stroke-opacity:0.5;stroke-width:0.25}
		.st3 {fill:url(#grad30-6);stroke:#404040;stroke-linecap:round;stroke-linejoin:round;stroke-width:0.25}
		.st4 {stroke:#404040;stroke-linecap:round;stroke-linejoin:round;stroke-width:1}
		.st5 {fill:url(#grad30-26);stroke:#404040;stroke-linecap:round;stroke-linejoin:round;stroke-width:0.25}
		.st6 {fill:#000000;font-family:Calibri;font-size:0.833336em}
		.st7 {fill:none;stroke:none;stroke-linecap:round;stroke-linejoin:round;stroke-width:0.25}
		.st8 {fill:#000000;font-family:Calibri;font-size:1.16666em}
		.st9 {fill:url(#grad30-15);stroke:#404040;stroke-linecap:round;stroke-linejoin:round;stroke-width:0.25}
		.st10 {fill:#000000;font-family:Calibri;font-size:1.00001em}
		.st11 {fill:url(#grad30-47);stroke:#404040;stroke-linecap:round;stroke-linejoin:round;stroke-width:0.25}
		.st12 {fill:url(#grad30-63);stroke:#404040;stroke-linecap:round;stroke-linejoin:round;stroke-width:0.25}
		.st13 {fill:#000000;font-family:Calibri;font-size:1.00001em;font-weight:bold}
		.st14 {font-size:1em}
		.st15 {fill:none;fill-rule:evenodd;font-size:12px;overflow:visible;stroke-linecap:square;stroke-miterlimit:3}
	]]>
	</style>

	<defs id="Patterns_And_Gradients">
		<linearGradient id="grad30-6" v:fillPattern="30" v:foreground="#e2e8d2" v:background="#eff2e6" x1="0" y1="1" x2="0" y2="0">
			<stop offset="0" style="stop-color:#e2e8d2;stop-opacity:1"/>
			<stop offset="1" style="stop-color:#eff2e6;stop-opacity:1"/>
		</linearGradient>
		<linearGradient id="grad30-15" v:fillPattern="30" v:foreground="#f0f0f0" v:background="#ffffff" x1="0" y1="1" x2="0" y2="0">
			<stop offset="0" style="stop-color:#f0f0f0;stop-opacity:1"/>
			<stop offset="1" style="stop-color:#ffffff;stop-opacity:1"/>
		</linearGradient>
		<linearGradient id="grad30-26" v:fillPattern="30" v:foreground="#e78636" v:background="#ea9651" x1="0" y1="1" x2="0" y2="0">
			<stop offset="0" style="stop-color:#e78636;stop-opacity:1"/>
			<stop offset="1" style="stop-color:#ea9651;stop-opacity:1"/>
		</linearGradient>
		<linearGradient id="grad30-47" v:fillPattern="30" v:foreground="#000000" v:background="#000000" x1="0" y1="1" x2="0" y2="0">
			<stop offset="0" style="stop-color:#000000;stop-opacity:1"/>
			<stop offset="1" style="stop-color:#000000;stop-opacity:1"/>
		</linearGradient>
		<linearGradient id="grad30-63" v:fillPattern="30" v:foreground="#f2c59f" v:background="#f6d5b9" x1="0" y1="1" x2="0" y2="0">
			<stop offset="0" style="stop-color:#f2c59f;stop-opacity:1"/>
			<stop offset="1" style="stop-color:#f6d5b9;stop-opacity:1"/>
		</linearGradient>
	</defs>
	<g v:mID="0" v:index="1" v:groupContext="foregroundPage">
		<v:userDefs>
			<v:ud v:nameU="msvThemeColors" v:val="VT0(36):26"/>
			<v:ud v:nameU="msvThemeEffects" v:val="VT0(16):26"/>
			<v:ud v:nameU="msvThemeOrder" v:val="VT0(0):26"/>
		</v:userDefs>
		<title>Page-1</title>
		<v:pageProperties v:drawingScale="1" v:pageScale="1" v:drawingUnits="0" v:shadowOffsetX="9" v:shadowOffsetY="-9"/>
		<v:layer v:name="Connector" v:index="0"/>
		<g id="shape1-1" v:mID="1" v:groupContext="shape" transform="translate(430.313,-168.75)">
			<title>Rounded rectangle.8</title>
			<v:userDefs>
				<v:ud v:nameU="visVersion" v:val="VT0(14):26"/>
				<v:ud v:nameU="msvThemeColors" v:val="VT0(36):26"/>
				<v:ud v:nameU="msvThemeEffects" v:val="VT0(16):26"/>
			</v:userDefs>
			<g id="shadow1-2" v:groupContext="shadow" v:shadowOffsetX="1.44" v:shadowOffsetY="-1.44" v:shadowType="1"
					transform="matrix(1,0,0,1,1.44,1.44)" class="st1">
				<path d="M179.44 612 A9.00007 9.00007 -180 0 0 188.44 603 L188.44 346.5 A9.00007 9.00007 -180 0 0 179.44 337.5 L9
							 337.5 A9.00007 9.00007 -180 0 0 -0 346.5 L0 603 A9.00007 9.00007 -180 0 0 9 612 L179.44 612 Z"
						class="st2"/>
			</g>
			<path d="M179.44 612 A9.00007 9.00007 -180 0 0 188.44 603 L188.44 346.5 A9.00007 9.00007 -180 0 0 179.44 337.5 L9 337.5
						 A9.00007 9.00007 -180 0 0 -0 346.5 L0 603 A9.00007 9.00007 -180 0 0 9 612 L179.44 612 Z" class="st3"/>
		</g>
		<g id="shape2-7" v:mID="2" v:groupContext="shape" transform="translate(173.25,-168.75)">
			<title>Rounded rectangle.32</title>
			<v:userDefs>
				<v:ud v:nameU="visVersion" v:val="VT0(14):26"/>
				<v:ud v:nameU="msvThemeColors" v:val="VT0(36):26"/>
				<v:ud v:nameU="msvThemeEffects" v:val="VT0(16):26"/>
			</v:userDefs>
			<g id="shadow2-8" v:groupContext="shadow" v:shadowOffsetX="1.44" v:shadowOffsetY="-1.44" v:shadowType="1"
					transform="matrix(1,0,0,1,1.44,1.44)" class="st1">
				<path d="M178.87 612 A9.00007 9.00007 -180 0 0 187.87 603 L187.87 346.5 A9.00007 9.00007 -180 0 0 178.87 337.5 L9
							 337.5 A9.00007 9.00007 -180 0 0 -0 346.5 L0 603 A9.00007 9.00007 -180 0 0 9 612 L178.87 612 Z"
						class="st2"/>
			</g>
			<path d="M178.87 612 A9.00007 9.00007 -180 0 0 187.87 603 L187.87 346.5 A9.00007 9.00007 -180 0 0 178.87 337.5 L9 337.5
						 A9.00007 9.00007 -180 0 0 -0 346.5 L0 603 A9.00007 9.00007 -180 0 0 9 612 L178.87 612 Z" class="st3"/>
		</g>
		<g id="shape3-12" v:mID="3" v:groupContext="shape" v:layerMember="0" transform="translate(342,-249.75)">
			<title>Line-curve connector.37</title>
			<v:userDefs>
				<v:ud v:nameU="AntiScale" v:val="VT0(1):26"/>
				<v:ud v:nameU="Scale" v:val="VT0(1):26"/>
				<v:ud v:nameU="visVersion" v:val="VT0(14):26"/>
				<v:ud v:nameU="msvThemeColors" v:val="VT0(36):26"/>
				<v:ud v:nameU="msvThemeEffects" v:val="VT0(16):26"/>
			</v:userDefs>
			<path d="M0 612 L38 612 L73.62 612 L106.87 612" class="st4"/>
		</g>
		<g id="shape4-17" v:mID="4" v:groupContext="shape" v:layerMember="0"
				transform="translate(-348.398,243.018) rotate(-89.4299) scale(-1,1)">
			<title>Line-curve connector.30</title>
			<v:userDefs>
				<v:ud v:nameU="AntiScale" v:val="VT0(1):26"/>
				<v:ud v:nameU="Scale" v:val="VT0(1):26"/>
				<v:ud v:nameU="visVersion" v:val="VT0(14):26"/>
				<v:ud v:nameU="msvThemeColors" v:val="VT0(36):26"/>
				<v:ud v:nameU="msvThemeEffects" v:val="VT0(16):26"/>
			</v:userDefs>
			<path d="M0 612 L22.97 612 L44.51 612 L64.61 612" class="st4"/>
		</g>
		<g id="shape5-21" v:mID="5" v:groupContext="shape" transform="translate(223.393,-324.964)">
			<title>Rectangle</title>
			<desc>App Endpoint</desc>
			<v:userDefs>
				<v:ud v:nameU="visVersion" v:val="VT0(14):26"/>
				<v:ud v:nameU="msvThemeColors" v:val="VT0(36):26"/>
				<v:ud v:nameU="msvThemeEffects" v:val="VT0(16):26"/>
			</v:userDefs>
			<v:textBlock v:margins="rect(4,4,4,4)"/>
			<v:textRect cx="39.375" cy="603" width="78.75" height="18"/>
			<g id="shadow5-22" v:groupContext="shadow" v:shadowOffsetX="1.44" v:shadowOffsetY="-1.44" v:shadowType="1"
					transform="matrix(1,0,0,1,1.44,1.44)" class="st1">
				<rect x="0" y="594" width="78.75" height="18" class="st2"/>
			</g>
			<rect x="0" y="594" width="78.75" height="18" class="st5"/>
			<text x="11.69" y="606" class="st6" v:langID="1033"><v:paragraph v:horizAlign="1"/><v:tabList/>App Endpoint  </text>		</g>
		<g id="shape6-28" v:mID="6" v:groupContext="shape" transform="translate(195.75,-422.75)">
			<title>Sheet.6</title>
			<desc>AllJoyn Device 1</desc>
			<v:userDefs>
				<v:ud v:nameU="msvThemeColors" v:val="VT0(36):26"/>
				<v:ud v:nameU="msvThemeEffects" v:val="VT0(16):26"/>
			</v:userDefs>
			<v:textBlock v:margins="rect(4,4,4,4)"/>
			<v:textRect cx="69.75" cy="604" width="139.5" height="16"/>
			<rect x="0" y="596" width="139.5" height="16" class="st7"/>
			<text x="24" y="608.2" class="st8" v:langID="1033"><v:paragraph v:horizAlign="1"/><v:tabList/>AllJoyn Device 1</text>		</g>
		<g id="shape7-31" v:mID="7" v:groupContext="shape" transform="translate(186.75,-366.75)">
			<title>Rectangle.32</title>
			<desc>App</desc>
			<v:userDefs>
				<v:ud v:nameU="visVersion" v:val="VT0(14):26"/>
				<v:ud v:nameU="msvThemeColors" v:val="VT0(36):26"/>
				<v:ud v:nameU="msvThemeEffects" v:val="VT0(16):26"/>
			</v:userDefs>
			<v:textBlock v:margins="rect(4,4,4,4)"/>
			<v:textRect cx="78.75" cy="589.5" width="157.5" height="45"/>
			<g id="shadow7-32" v:groupContext="shadow" v:shadowOffsetX="1.44" v:shadowOffsetY="-1.44" v:shadowType="1"
					transform="matrix(1,0,0,1,1.44,1.44)" class="st1">
				<rect x="0" y="567" width="157.5" height="45" class="st2"/>
			</g>
			<rect x="0" y="567" width="157.5" height="45" class="st9"/>
			<text x="68.97" y="593.1" class="st10" v:langID="1033"><v:paragraph v:horizAlign="1"/><v:tabList/>App</text>		</g>
		<g id="shape8-37" v:mID="8" v:groupContext="shape" transform="translate(186.75,-186.75)">
			<title>Rectangle.42</title>
			<v:userDefs>
				<v:ud v:nameU="visVersion" v:val="VT0(14):26"/>
				<v:ud v:nameU="msvThemeColors" v:val="VT0(36):26"/>
				<v:ud v:nameU="msvThemeEffects" v:val="VT0(16):26"/>
			</v:userDefs>
			<g id="shadow8-38" v:groupContext="shadow" v:shadowOffsetX="1.44" v:shadowOffsetY="-1.44" v:shadowType="1"
					transform="matrix(1,0,0,1,1.44,1.44)" class="st1">
				<rect x="0" y="499.5" width="157.5" height="112.5" class="st2"/>
			</g>
			<rect x="0" y="499.5" width="157.5" height="112.5" class="st9"/>
		</g>
		<g id="shape9-42" v:mID="9" v:groupContext="shape" transform="translate(260.036,-362.893)">
			<title>Circle.8</title>
			<v:userDefs>
				<v:ud v:nameU="visVersion" v:val="VT0(14):26"/>
				<v:ud v:nameU="msvThemeColors" v:val="VT0(36):26"/>
				<v:ud v:nameU="msvThemeEffects" v:val="VT0(16):26"/>
			</v:userDefs>
			<g id="shadow9-43" v:groupContext="shadow" v:shadowOffsetX="1.44" v:shadowOffsetY="-1.44" v:shadowType="1"
					transform="matrix(1,0,0,1,1.44,1.44)" class="st1">
				<path d="M0 608.46 A3.53571 3.53571 0 0 1 7.07 608.46 A3.53571 3.53571 0 0 1 0 608.46 Z" class="st2"/>
			</g>
			<path d="M0 608.46 A3.53571 3.53571 0 0 1 7.07 608.46 A3.53571 3.53571 0 0 1 0 608.46 Z" class="st11"/>
		</g>
		<g id="shape10-48" v:mID="10" v:groupContext="shape" transform="translate(259.393,-294.75)">
			<title>Circle.12</title>
			<v:userDefs>
				<v:ud v:nameU="visVersion" v:val="VT0(14):26"/>
				<v:ud v:nameU="msvThemeColors" v:val="VT0(36):26"/>
				<v:ud v:nameU="msvThemeEffects" v:val="VT0(16):26"/>
			</v:userDefs>
			<g id="shadow10-49" v:groupContext="shadow" v:shadowOffsetX="1.44" v:shadowOffsetY="-1.44" v:shadowType="1"
					transform="matrix(1,0,0,1,1.44,1.44)" class="st1">
				<path d="M0 608.46 A3.53571 3.53571 0 0 1 7.07 608.46 A3.53571 3.53571 0 0 1 0 608.46 Z" class="st2"/>
			</g>
			<path d="M0 608.46 A3.53571 3.53571 0 0 1 7.07 608.46 A3.53571 3.53571 0 0 1 0 608.46 Z" class="st11"/>
		</g>
		<g id="shape11-53" v:mID="11" v:groupContext="shape" transform="translate(341.679,-246.214)">
			<title>Circle.15</title>
			<v:userDefs>
				<v:ud v:nameU="visVersion" v:val="VT0(14):26"/>
				<v:ud v:nameU="msvThemeColors" v:val="VT0(36):26"/>
				<v:ud v:nameU="msvThemeEffects" v:val="VT0(16):26"/>
			</v:userDefs>
			<g id="shadow11-54" v:groupContext="shadow" v:shadowOffsetX="1.44" v:shadowOffsetY="-1.44" v:shadowType="1"
					transform="matrix(1,0,0,1,1.44,1.44)" class="st1">
				<path d="M0 608.46 A3.53571 3.53571 0 0 1 7.07 608.46 A3.53571 3.53571 0 0 1 0 608.46 Z" class="st2"/>
			</g>
			<path d="M0 608.46 A3.53571 3.53571 0 0 1 7.07 608.46 A3.53571 3.53571 0 0 1 0 608.46 Z" class="st11"/>
		</g>
		<g id="shape12-58" v:mID="12" v:groupContext="shape" transform="translate(195.75,-222.75)">
			<title>Sheet.12</title>
			<desc>Routing Table</desc>
			<v:userDefs>
				<v:ud v:nameU="msvThemeColors" v:val="VT0(36):26"/>
				<v:ud v:nameU="msvThemeEffects" v:val="VT0(16):26"/>
			</v:userDefs>
			<v:textBlock v:margins="rect(4,4,4,4)"/>
			<v:textRect cx="42.75" cy="596.25" width="85.5" height="31.5"/>
			<g id="shadow12-59" v:groupContext="shadow" v:shadowOffsetX="1.44" v:shadowOffsetY="-1.44" v:shadowType="1"
					transform="matrix(1,0,0,1,1.44,1.44)" class="st1">
				<rect x="0" y="580.5" width="85.5" height="31.5" class="st2"/>
			</g>
			<rect x="0" y="580.5" width="85.5" height="31.5" class="st12"/>
			<text x="14.74" y="599.25" class="st6" v:langID="1033"><v:paragraph v:horizAlign="1"/><v:tabList/>Routing Table</text>		</g>
		<g id="shape13-65" v:mID="13" v:groupContext="shape" transform="translate(189,-285.75)">
			<title>Sheet.13</title>
			<desc>AllJoyn Router</desc>
			<v:userDefs>
				<v:ud v:nameU="msvThemeColors" v:val="VT0(36):26"/>
				<v:ud v:nameU="msvThemeEffects" v:val="VT0(16):26"/>
			</v:userDefs>
			<v:textBlock v:margins="rect(4,4,4,4)"/>
			<v:textRect cx="48.9375" cy="609.75" width="97.88" height="4.5"/>
			<rect x="0" y="607.5" width="97.875" height="4.5" class="st7"/>
			<text x="12.67" y="613.35" class="st13" v:langID="1033"><v:paragraph v:horizAlign="1"/><v:tabList/>AllJoyn Router</text>		</g>
		<g id="shape14-68" v:mID="14" v:groupContext="shape" transform="translate(197.679,-187.393)">
			<title>Rectangle.46</title>
			<desc>Local Endpoint</desc>
			<v:userDefs>
				<v:ud v:nameU="visVersion" v:val="VT0(14):26"/>
				<v:ud v:nameU="msvThemeColors" v:val="VT0(36):26"/>
				<v:ud v:nameU="msvThemeEffects" v:val="VT0(16):26"/>
			</v:userDefs>
			<v:textBlock v:margins="rect(4,4,4,4)"/>
			<v:textRect cx="27" cy="599.143" width="54" height="25.7143"/>
			<g id="shadow14-69" v:groupContext="shadow" v:shadowOffsetX="1.44" v:shadowOffsetY="-1.44" v:shadowType="1"
					transform="matrix(1,0,0,1,1.44,1.44)" class="st1">
				<rect x="0" y="586.286" width="54" height="25.7143" class="st2"/>
			</g>
			<rect x="0" y="586.286" width="54" height="25.7143" class="st5"/>
			<text x="16.6" y="596.14" class="st6" v:langID="1033"><v:paragraph v:horizAlign="1"/><v:tabList/>Local <tspan x="8.59"
						dy="1.2em" class="st14">Endpoint</tspan></text>		</g>
		<g id="shape15-75" v:mID="15" v:groupContext="shape" transform="translate(999.321,324.321) rotate(90)">
			<title>Rectangle.11</title>
			<desc>B2B Endpoint</desc>
			<v:userDefs>
				<v:ud v:nameU="visVersion" v:val="VT0(14):26"/>
				<v:ud v:nameU="msvThemeColors" v:val="VT0(36):26"/>
				<v:ud v:nameU="msvThemeEffects" v:val="VT0(16):26"/>
			</v:userDefs>
			<v:textBlock v:margins="rect(4,4,4,4)"/>
			<v:textRect cx="36" cy="603" width="72" height="18"/>
			<g id="shadow15-76" v:groupContext="shadow" v:shadowOffsetX="1.44" v:shadowOffsetY="-1.44" v:shadowType="1"
					transform="matrix(1,0,0,1,1.44,-1.44)" class="st1">
				<rect x="0" y="594" width="72" height="18" class="st2"/>
			</g>
			<rect x="0" y="594" width="72" height="18" class="st5"/>
			<text x="8.49" y="606" class="st6" v:langID="1033"><v:paragraph v:horizAlign="1"/><v:tabList/>B2B Endpoint  </text>		</g>
		<g id="shape16-81" v:mID="16" v:groupContext="shape" transform="translate(456.75,-422.75)">
			<title>Sheet.16</title>
			<desc>AllJoyn Device 2</desc>
			<v:userDefs>
				<v:ud v:nameU="msvThemeColors" v:val="VT0(36):26"/>
				<v:ud v:nameU="msvThemeEffects" v:val="VT0(16):26"/>
			</v:userDefs>
			<v:textBlock v:margins="rect(4,4,4,4)"/>
			<v:textRect cx="69.75" cy="604" width="139.5" height="16"/>
			<rect x="0" y="596" width="139.5" height="16" class="st7"/>
			<text x="24" y="608.2" class="st8" v:langID="1033"><v:paragraph v:horizAlign="1"/><v:tabList/>AllJoyn Device 2</text>		</g>
		<g id="shape17-84" v:mID="17" v:groupContext="shape" transform="translate(447.75,-366.75)">
			<title>Rectangle.17</title>
			<desc>App</desc>
			<v:userDefs>
				<v:ud v:nameU="visVersion" v:val="VT0(14):26"/>
				<v:ud v:nameU="msvThemeColors" v:val="VT0(36):26"/>
				<v:ud v:nameU="msvThemeEffects" v:val="VT0(16):26"/>
			</v:userDefs>
			<v:textBlock v:margins="rect(4,4,4,4)"/>
			<v:textRect cx="78.75" cy="589.5" width="157.5" height="45"/>
			<g id="shadow17-85" v:groupContext="shadow" v:shadowOffsetX="1.44" v:shadowOffsetY="-1.44" v:shadowType="1"
					transform="matrix(1,0,0,1,1.44,1.44)" class="st1">
				<rect x="0" y="567" width="157.5" height="45" class="st2"/>
			</g>
			<rect x="0" y="567" width="157.5" height="45" class="st9"/>
			<text x="68.97" y="593.1" class="st10" v:langID="1033"><v:paragraph v:horizAlign="1"/><v:tabList/>App</text>		</g>
		<g id="shape18-90" v:mID="18" v:groupContext="shape" transform="translate(447.75,-186.75)">
			<title>Rectangle.20</title>
			<v:userDefs>
				<v:ud v:nameU="visVersion" v:val="VT0(14):26"/>
				<v:ud v:nameU="msvThemeColors" v:val="VT0(36):26"/>
				<v:ud v:nameU="msvThemeEffects" v:val="VT0(16):26"/>
			</v:userDefs>
			<g id="shadow18-91" v:groupContext="shadow" v:shadowOffsetX="1.44" v:shadowOffsetY="-1.44" v:shadowType="1"
					transform="matrix(1,0,0,1,1.44,1.44)" class="st1">
				<rect x="0" y="499.5" width="157.5" height="112.5" class="st2"/>
			</g>
			<rect x="0" y="499.5" width="157.5" height="112.5" class="st9"/>
		</g>
		<g id="shape19-95" v:mID="19" v:groupContext="shape" transform="translate(444.214,-246.214)">
			<title>Circle.19</title>
			<v:userDefs>
				<v:ud v:nameU="visVersion" v:val="VT0(14):26"/>
				<v:ud v:nameU="msvThemeColors" v:val="VT0(36):26"/>
				<v:ud v:nameU="msvThemeEffects" v:val="VT0(16):26"/>
			</v:userDefs>
			<g id="shadow19-96" v:groupContext="shadow" v:shadowOffsetX="1.44" v:shadowOffsetY="-1.44" v:shadowType="1"
					transform="matrix(1,0,0,1,1.44,1.44)" class="st1">
				<path d="M0 608.46 A3.53571 3.53571 0 0 1 7.07 608.46 A3.53571 3.53571 0 0 1 0 608.46 Z" class="st2"/>
			</g>
			<path d="M0 608.46 A3.53571 3.53571 0 0 1 7.07 608.46 A3.53571 3.53571 0 0 1 0 608.46 Z" class="st11"/>
		</g>
		<g id="shape20-100" v:mID="20" v:groupContext="shape" transform="translate(510.75,-225)">
			<title>Sheet.20</title>
			<desc>Routing Table</desc>
			<v:userDefs>
				<v:ud v:nameU="msvThemeColors" v:val="VT0(36):26"/>
				<v:ud v:nameU="msvThemeEffects" v:val="VT0(16):26"/>
			</v:userDefs>
			<v:textBlock v:margins="rect(4,4,4,4)"/>
			<v:textRect cx="42.75" cy="596.25" width="85.5" height="31.5"/>
			<g id="shadow20-101" v:groupContext="shadow" v:shadowOffsetX="1.44" v:shadowOffsetY="-1.44" v:shadowType="1"
					transform="matrix(1,0,0,1,1.44,1.44)" class="st1">
				<rect x="0" y="580.5" width="85.5" height="31.5" class="st2"/>
			</g>
			<rect x="0" y="580.5" width="85.5" height="31.5" class="st12"/>
			<text x="14.74" y="599.25" class="st6" v:langID="1033"><v:paragraph v:horizAlign="1"/><v:tabList/>Routing Table</text>		</g>
		<g id="shape21-106" v:mID="21" v:groupContext="shape" v:layerMember="0"
				transform="translate(-86.1126,242.375) rotate(-89.4299) scale(-1,1)">
			<title>Line-curve connector.7</title>
			<v:userDefs>
				<v:ud v:nameU="AntiScale" v:val="VT0(1):26"/>
				<v:ud v:nameU="Scale" v:val="VT0(1):26"/>
				<v:ud v:nameU="visVersion" v:val="VT0(14):26"/>
				<v:ud v:nameU="msvThemeColors" v:val="VT0(36):26"/>
				<v:ud v:nameU="msvThemeEffects" v:val="VT0(16):26"/>
			</v:userDefs>
			<path d="M0 612 L22.97 612 L44.51 612 L64.61 612" class="st4"/>
		</g>
		<g id="shape22-110" v:mID="22" v:groupContext="shape" transform="translate(485.679,-325.607)">
			<title>Rectangle.9</title>
			<desc>App Endpoint</desc>
			<v:userDefs>
				<v:ud v:nameU="visVersion" v:val="VT0(14):26"/>
				<v:ud v:nameU="msvThemeColors" v:val="VT0(36):26"/>
				<v:ud v:nameU="msvThemeEffects" v:val="VT0(16):26"/>
			</v:userDefs>
			<v:textBlock v:margins="rect(4,4,4,4)"/>
			<v:textRect cx="39.375" cy="603" width="78.75" height="18"/>
			<g id="shadow22-111" v:groupContext="shadow" v:shadowOffsetX="1.44" v:shadowOffsetY="-1.44" v:shadowType="1"
					transform="matrix(1,0,0,1,1.44,1.44)" class="st1">
				<rect x="0" y="594" width="78.75" height="18" class="st2"/>
			</g>
			<rect x="0" y="594" width="78.75" height="18" class="st5"/>
			<text x="11.69" y="606" class="st6" v:langID="1033"><v:paragraph v:horizAlign="1"/><v:tabList/>App Endpoint  </text>		</g>
		<g id="shape23-116" v:mID="23" v:groupContext="shape" transform="translate(522.321,-363.536)">
			<title>Circle.31</title>
			<v:userDefs>
				<v:ud v:nameU="visVersion" v:val="VT0(14):26"/>
				<v:ud v:nameU="msvThemeColors" v:val="VT0(36):26"/>
				<v:ud v:nameU="msvThemeEffects" v:val="VT0(16):26"/>
			</v:userDefs>
			<g id="shadow23-117" v:groupContext="shadow" v:shadowOffsetX="1.44" v:shadowOffsetY="-1.44" v:shadowType="1"
					transform="matrix(1,0,0,1,1.44,1.44)" class="st1">
				<path d="M0 608.46 A3.53571 3.53571 0 0 1 7.07 608.46 A3.53571 3.53571 0 0 1 0 608.46 Z" class="st2"/>
			</g>
			<path d="M0 608.46 A3.53571 3.53571 0 0 1 7.07 608.46 A3.53571 3.53571 0 0 1 0 608.46 Z" class="st11"/>
		</g>
		<g id="shape24-121" v:mID="24" v:groupContext="shape" transform="translate(521.679,-295.393)">
			<title>Circle.32</title>
			<v:userDefs>
				<v:ud v:nameU="visVersion" v:val="VT0(14):26"/>
				<v:ud v:nameU="msvThemeColors" v:val="VT0(36):26"/>
				<v:ud v:nameU="msvThemeEffects" v:val="VT0(16):26"/>
			</v:userDefs>
			<g id="shadow24-122" v:groupContext="shadow" v:shadowOffsetX="1.44" v:shadowOffsetY="-1.44" v:shadowType="1"
					transform="matrix(1,0,0,1,1.44,1.44)" class="st1">
				<path d="M0 608.46 A3.53571 3.53571 0 0 1 7.07 608.46 A3.53571 3.53571 0 0 1 0 608.46 Z" class="st2"/>
			</g>
			<path d="M0 608.46 A3.53571 3.53571 0 0 1 7.07 608.46 A3.53571 3.53571 0 0 1 0 608.46 Z" class="st11"/>
		</g>
		<g id="shape25-126" v:mID="25" v:groupContext="shape" transform="translate(221.464,-182.893)">
			<title>Circle.2</title>
			<v:userDefs>
				<v:ud v:nameU="visVersion" v:val="VT0(14):26"/>
				<v:ud v:nameU="msvThemeColors" v:val="VT0(36):26"/>
				<v:ud v:nameU="msvThemeEffects" v:val="VT0(16):26"/>
			</v:userDefs>
			<g id="shadow25-127" v:groupContext="shadow" v:shadowOffsetX="1.44" v:shadowOffsetY="-1.44" v:shadowType="1"
					transform="matrix(1,0,0,1,1.44,1.44)" class="st1">
				<path d="M0 608.46 A3.53571 3.53571 0 0 1 7.07 608.46 A3.53571 3.53571 0 0 1 0 608.46 Z" class="st2"/>
			</g>
			<path d="M0 608.46 A3.53571 3.53571 0 0 1 7.07 608.46 A3.53571 3.53571 0 0 1 0 608.46 Z" class="st11"/>
		</g>
		<g id="shape26-131" v:mID="26" v:groupContext="shape" transform="translate(532.607,-186.75)">
			<title>Rectangle.26</title>
			<desc>Local Endpoint</desc>
			<v:userDefs>
				<v:ud v:nameU="visVersion" v:val="VT0(14):26"/>
				<v:ud v:nameU="msvThemeColors" v:val="VT0(36):26"/>
				<v:ud v:nameU="msvThemeEffects" v:val="VT0(16):26"/>
			</v:userDefs>
			<v:textBlock v:margins="rect(4,4,4,4)"/>
			<v:textRect cx="27" cy="599.143" width="54" height="25.7143"/>
			<g id="shadow26-132" v:groupContext="shadow" v:shadowOffsetX="1.44" v:shadowOffsetY="-1.44" v:shadowType="1"
					transform="matrix(1,0,0,1,1.44,1.44)" class="st1">
				<rect x="0" y="586.286" width="54" height="25.7143" class="st2"/>
			</g>
			<rect x="0" y="586.286" width="54" height="25.7143" class="st5"/>
			<text x="16.6" y="596.14" class="st6" v:langID="1033"><v:paragraph v:horizAlign="1"/><v:tabList/>Local <tspan x="8.59"
						dy="1.2em" class="st14">Endpoint</tspan></text>		</g>
		<g id="shape27-138" v:mID="27" v:groupContext="shape" transform="translate(556.393,-182.25)">
			<title>Circle.21</title>
			<v:userDefs>
				<v:ud v:nameU="visVersion" v:val="VT0(14):26"/>
				<v:ud v:nameU="msvThemeColors" v:val="VT0(36):26"/>
				<v:ud v:nameU="msvThemeEffects" v:val="VT0(16):26"/>
			</v:userDefs>
			<g id="shadow27-139" v:groupContext="shadow" v:shadowOffsetX="1.44" v:shadowOffsetY="-1.44" v:shadowType="1"
					transform="matrix(1,0,0,1,1.44,1.44)" class="st1">
				<path d="M0 608.46 A3.53571 3.53571 0 0 1 7.07 608.46 A3.53571 3.53571 0 0 1 0 608.46 Z" class="st2"/>
			</g>
			<path d="M0 608.46 A3.53571 3.53571 0 0 1 7.07 608.46 A3.53571 3.53571 0 0 1 0 608.46 Z" class="st11"/>
		</g>
		<g id="shape28-143" v:mID="28" v:groupContext="shape" transform="translate(508.821,-283.821)">
			<title>Sheet.28</title>
			<desc>AllJoyn Router</desc>
			<v:userDefs>
				<v:ud v:nameU="msvThemeColors" v:val="VT0(36):26"/>
				<v:ud v:nameU="msvThemeEffects" v:val="VT0(16):26"/>
			</v:userDefs>
			<v:textBlock v:margins="rect(4,4,4,4)"/>
			<v:textRect cx="48.9375" cy="609.75" width="97.88" height="4.5"/>
			<rect x="0" y="607.5" width="97.875" height="4.5" class="st7"/>
			<text x="12.67" y="613.35" class="st13" v:langID="1033"><v:paragraph v:horizAlign="1"/><v:tabList/>AllJoyn Router</text>		</g>
	</g>
</svg>
