<?xml version="1.0" encoding="UTF-8" standalone="no"?>
<!DOCTYPE svg PUBLIC "-//W3C//DTD SVG 1.0//EN" "http://www.w3.org/TR/2001/REC-SVG-20010904/DTD/svg10.dtd">
<!-- Generated by Microsoft Visio 11.0, SVG Export, v1.0 Drawing104.svg Page-1 -->
<svg xmlns="http://www.w3.org/2000/svg" xmlns:xlink="http://www.w3.org/1999/xlink" xmlns:ev="http://www.w3.org/2001/xml-events"
		xmlns:v="http://schemas.microsoft.com/visio/2003/SVGExtensions/" width="11in" height="8.5in" viewBox="0 0 792 612"
		xml:space="preserve" color-interpolation-filters="sRGB" class="st21">
	<v:documentProperties v:langID="1033" v:viewMarkup="false">
		<v:userDefs>
			<v:ud v:nameU="msvNoAutoConnect" v:val="VT0(0):26"/>
		</v:userDefs>
	</v:documentProperties>

	<style type="text/css">
	<![CDATA[
		.st1 {visibility:visible}
		.st2 {fill:#cdcdcd;fill-opacity:0.5;stroke:#cdcdcd;stroke-linecap:round;stroke-linejoin:round;stroke-opacity:0.5;stroke-width:0.25}
		.st3 {fill:url(#grad30-6);stroke:#404040;stroke-linecap:round;stroke-linejoin:round;stroke-width:0.25}
		.st4 {fill:url(#grad30-12);stroke:#404040;stroke-linecap:round;stroke-linejoin:round;stroke-width:0.25}
		.st5 {fill:#000000;font-family:Calibri;font-size:1.00001em}
		.st6 {fill:none;stroke:none;stroke-linecap:round;stroke-linejoin:round;stroke-width:0.25}
		.st7 {fill:#000000;font-family:Calibri;font-size:0.75em;font-weight:bold}
		.st8 {font-size:1em}
		.st9 {fill:#000000;font-family:Calibri;font-size:0.75em}
		.st10 {fill:url(#grad30-35);stroke:#404040;stroke-linecap:round;stroke-linejoin:round;stroke-width:0.25}
		.st11 {stroke:#404040;stroke-linecap:round;stroke-linejoin:round;stroke-width:1}
		.st12 {marker-end:url(#mrkr5-53);stroke:#404040;stroke-linecap:round;stroke-linejoin:round;stroke-width:1}
		.st13 {fill:#404040;fill-opacity:1;stroke:#404040;stroke-opacity:1;stroke-width:0.28409090909091}
		.st14 {marker-start:url(#mrkr5-91);stroke:#404040;stroke-linecap:round;stroke-linejoin:round;stroke-width:1}
		.st15 {fill:#000000;font-family:Calibri;font-size:0.666664em}
		.st16 {marker-end:url(#mrkr13-132);marker-start:url(#mrkr13-130);stroke:#404040;stroke-linecap:round;stroke-linejoin:round;stroke-width:1}
		.st17 {marker-end:url(#mrkr13-139);stroke:#cdcdcd;stroke-linecap:round;stroke-linejoin:round;stroke-opacity:0.5;stroke-width:0.25}
		.st18 {fill:#cdcdcd;fill-opacity:0.5;stroke:#cdcdcd;stroke-opacity:0.5;stroke-width:0.090252707581227}
		.st19 {marker-end:url(#mrkr13-145);stroke:#404040;stroke-linecap:round;stroke-linejoin:round;stroke-width:0.25}
		.st20 {fill:#404040;fill-opacity:1;stroke:#404040;stroke-opacity:1;stroke-width:0.090252707581227}
		.st21 {fill:none;fill-rule:evenodd;font-size:12px;overflow:visible;stroke-linecap:square;stroke-miterlimit:3}
	]]>
	</style>

	<defs id="Patterns_And_Gradients">
		<linearGradient id="grad30-6" v:fillPattern="30" v:foreground="#c9c9c9" v:background="#d8d8d8" x1="0" y1="1" x2="0" y2="0">
			<stop offset="0" style="stop-color:#c9c9c9;stop-opacity:1"/>
			<stop offset="1" style="stop-color:#d8d8d8;stop-opacity:1"/>
		</linearGradient>
		<linearGradient id="grad30-12" v:fillPattern="30" v:foreground="#f0f0f0" v:background="#ffffff" x1="0" y1="1" x2="0" y2="0">
			<stop offset="0" style="stop-color:#f0f0f0;stop-opacity:1"/>
			<stop offset="1" style="stop-color:#ffffff;stop-opacity:1"/>
		</linearGradient>
		<linearGradient id="grad30-35" v:fillPattern="30" v:foreground="#efaf7a" v:background="#f2bf96" x1="0" y1="1" x2="0" y2="0">
			<stop offset="0" style="stop-color:#efaf7a;stop-opacity:1"/>
			<stop offset="1" style="stop-color:#f2bf96;stop-opacity:1"/>
		</linearGradient>
	</defs>
	<defs id="Markers">
		<g id="lend5">
			<path d="M 2 1 L 0 0 L 1.98117 -0.993387 C 1.67173 -0.364515 1.67301 0.372641 1.98465 1.00043 " style="stroke:none"/>
		</g>
		<marker id="mrkr5-53" class="st13" v:arrowType="5" v:arrowSize="2" v:setback="6.16" refX="-6.16" orient="auto"
				markerUnits="strokeWidth" overflow="visible">
			<use xlink:href="#lend5" transform="scale(-3.52,-3.52) "/>
		</marker>
		<marker id="mrkr5-91" class="st13" v:arrowType="5" v:arrowSize="2" v:setback="5.8" refX="5.8" orient="auto"
				markerUnits="strokeWidth" overflow="visible">
			<use xlink:href="#lend5" transform="scale(3.52) "/>
		</marker>
		<g id="lend13">
			<path d="M 3 1 L 0 0 L 3 -1 L 3 1 " style="stroke:none"/>
		</g>
		<marker id="mrkr13-130" class="st13" v:arrowType="13" v:arrowSize="2" v:setback="10.2" refX="10.2" orient="auto"
				markerUnits="strokeWidth" overflow="visible">
			<use xlink:href="#lend13" transform="scale(3.52) "/>
		</marker>
		<marker id="mrkr13-132" class="st13" v:arrowType="13" v:arrowSize="2" v:setback="10.56" refX="-10.56" orient="auto"
				markerUnits="strokeWidth" overflow="visible">
			<use xlink:href="#lend13" transform="scale(-3.52,-3.52) "/>
		</marker>
		<marker id="mrkr13-139" class="st18" v:arrowType="13" v:arrowSize="2" v:setback="33.24" refX="-33.24" orient="auto"
				markerUnits="strokeWidth" overflow="visible">
			<use xlink:href="#lend13" transform="scale(-11.08,-11.08) "/>
		</marker>
		<marker id="mrkr13-145" class="st20" v:arrowType="13" v:arrowSize="2" v:setback="33.24" refX="-33.24" orient="auto"
				markerUnits="strokeWidth" overflow="visible">
			<use xlink:href="#lend13" transform="scale(-11.08,-11.08) "/>
		</marker>
	</defs>
	<g v:mID="0" v:index="1" v:groupContext="foregroundPage">
		<v:userDefs>
			<v:ud v:nameU="msvThemeColors" v:val="VT0(36):26"/>
			<v:ud v:nameU="msvThemeEffects" v:val="VT0(16):26"/>
			<v:ud v:nameU="msvThemeOrder" v:val="VT0(0):26"/>
		</v:userDefs>
		<title>Page-1</title>
		<v:pageProperties v:drawingScale="1" v:pageScale="1" v:drawingUnits="0" v:shadowOffsetX="9" v:shadowOffsetY="-9"/>
		<v:layer v:name="Connector" v:index="0"/>
		<g id="shape1-1" v:mID="1" v:groupContext="shape" transform="translate(170.679,-197.054)">
			<title>Rounded rectangle</title>
			<v:userDefs>
				<v:ud v:nameU="visVersion" v:val="VT0(14):26"/>
				<v:ud v:nameU="msvThemeColors" v:val="VT0(36):26"/>
				<v:ud v:nameU="msvThemeEffects" v:val="VT0(16):26"/>
			</v:userDefs>
			<g id="shadow1-2" v:groupContext="shadow" v:shadowOffsetX="1.44" v:shadowOffsetY="-1.44" v:shadowType="1"
					transform="matrix(1,0,0,1,1.44,1.44)" class="st1">
				<path d="M151.39 612 A9.00007 9.00007 -180 0 0 160.39 603 L160.39 379.08 A9.00007 9.00007 -180 0 0 151.39 370.08
							 L9 370.08 A9.00007 9.00007 -180 0 0 -0 379.08 L0 603 A9.00007 9.00007 -180 0 0 9 612 L151.39 612 Z"
						class="st2"/>
			</g>
			<path d="M151.39 612 A9.00007 9.00007 -180 0 0 160.39 603 L160.39 379.08 A9.00007 9.00007 -180 0 0 151.39 370.08 L9 370.08
						 A9.00007 9.00007 -180 0 0 -0 379.08 L0 603 A9.00007 9.00007 -180 0 0 9 612 L151.39 612 Z" class="st3"/>
		</g>
		<g id="shape2-7" v:mID="2" v:groupContext="shape" transform="translate(187.291,-356.804)">
			<title>Rectangle</title>
			<desc>Provider App</desc>
			<v:userDefs>
				<v:ud v:nameU="visVersion" v:val="VT0(14):26"/>
				<v:ud v:nameU="msvThemeColors" v:val="VT0(36):26"/>
				<v:ud v:nameU="msvThemeEffects" v:val="VT0(16):26"/>
			</v:userDefs>
			<v:textBlock v:margins="rect(4,4,4,4)"/>
			<v:textRect cx="63.6559" cy="587.788" width="127.32" height="48.4232"/>
			<g id="shadow2-8" v:groupContext="shadow" v:shadowOffsetX="1.44" v:shadowOffsetY="-1.44" v:shadowType="1"
					transform="matrix(1,0,0,1,1.44,1.44)" class="st1">
				<rect x="0" y="563.577" width="127.312" height="48.4232" class="st2"/>
			</g>
			<rect x="0" y="563.577" width="127.312" height="48.4232" class="st4"/>
			<text x="31.85" y="591.39" class="st5" v:langID="1033"><v:paragraph v:horizAlign="1"/><v:tabList/>Provider App</text>		</g>
		<g id="shape3-14" v:mID="3" v:groupContext="shape" transform="translate(184.999,-418.197)">
			<title>Sheet.3</title>
			<desc>AllJoyn Provider Device</desc>
			<v:userDefs>
				<v:ud v:nameU="msvThemeColors" v:val="VT0(36):26"/>
				<v:ud v:nameU="msvThemeEffects" v:val="VT0(16):26"/>
			</v:userDefs>
			<v:textBlock v:margins="rect(4,4,4,4)"/>
			<v:textRect cx="67.411" cy="604" width="134.83" height="16"/>
			<rect x="0" y="596" width="134.822" height="16" class="st6"/>
			<text x="10.57" y="607.6" class="st5" v:langID="1033"><v:paragraph v:horizAlign="1"/><v:tabList/>AllJoyn Provider Device</text>		</g>
		<g id="shape4-17" v:mID="4" v:groupContext="shape" transform="translate(187.291,-209.429)">
			<title>Rectangle.37</title>
			<v:userDefs>
				<v:ud v:nameU="visVersion" v:val="VT0(14):26"/>
				<v:ud v:nameU="msvThemeColors" v:val="VT0(36):26"/>
				<v:ud v:nameU="msvThemeEffects" v:val="VT0(16):26"/>
			</v:userDefs>
			<g id="shadow4-18" v:groupContext="shadow" v:shadowOffsetX="1.44" v:shadowOffsetY="-1.44" v:shadowType="1"
					transform="matrix(1,0,0,1,1.44,1.44)" class="st1">
				<rect x="0" y="497.089" width="128.314" height="114.911" class="st2"/>
			</g>
			<rect x="0" y="497.089" width="128.314" height="114.911" class="st4"/>
		</g>
		<g id="shape5-22" v:mID="5" v:groupContext="shape" transform="translate(189.321,-216.34)">
			<title>Sheet.5</title>
			<desc>AllJoyn Router</desc>
			<v:userDefs>
				<v:ud v:nameU="msvThemeColors" v:val="VT0(36):26"/>
				<v:ud v:nameU="msvThemeEffects" v:val="VT0(16):26"/>
			</v:userDefs>
			<v:textBlock v:margins="rect(4,4,4,4)"/>
			<v:textRect cx="19.7985" cy="599.795" width="39.6" height="24.4107"/>
			<rect x="0" y="587.589" width="39.597" height="24.4107" class="st6"/>
			<text x="6.41" y="597.09" class="st7" v:langID="1033"><v:paragraph v:horizAlign="1"/><v:tabList/>AllJoyn <tspan
						x="7.01" dy="1.2em" class="st8">Router</tspan></text>		</g>
		<g id="shape6-26" v:mID="6" v:groupContext="shape" transform="translate(184.821,-335.269)">
			<title>Sheet.6</title>
			<desc>Announcement Message</desc>
			<v:userDefs>
				<v:ud v:nameU="msvThemeColors" v:val="VT0(36):26"/>
				<v:ud v:nameU="msvThemeEffects" v:val="VT0(16):26"/>
			</v:userDefs>
			<v:textBlock v:margins="rect(4,4,4,4)"/>
			<v:textRect cx="37.125" cy="607.5" width="74.25" height="9"/>
			<rect x="0" y="603" width="74.25" height="9" class="st6"/>
			<text x="8.84" y="604.8" class="st9" v:langID="1033"><v:paragraph v:horizAlign="1"/><v:tabList/>Announcement <tspan
						x="21.01" dy="1.2em" class="st8">Message</tspan></text>		</g>
		<g id="shape7-30" v:mID="7" v:groupContext="shape" transform="translate(206.196,-273.554)">
			<title>Rounded rectangle.4</title>
			<v:userDefs>
				<v:ud v:nameU="visVersion" v:val="VT0(14):26"/>
				<v:ud v:nameU="msvThemeColors" v:val="VT0(36):26"/>
				<v:ud v:nameU="msvThemeEffects" v:val="VT0(16):26"/>
			</v:userDefs>
			<g id="shadow7-31" v:groupContext="shadow" v:shadowOffsetX="1.44" v:shadowOffsetY="-1.44" v:shadowType="1"
					transform="matrix(1,0,0,1,1.44,1.44)" class="st1">
				<path d="M76.35 612 A9.00007 9.00007 -180 0 0 85.35 603 L85.35 578.25 A9.00007 9.00007 -180 0 0 76.35 569.25 L9 569.25
							 A9.00007 9.00007 -180 0 0 -0 578.25 L0 603 A9.00007 9.00007 -180 0 0 9 612 L76.35 612 Z" class="st2"/>
			</g>
			<path d="M76.35 612 A9.00007 9.00007 -180 0 0 85.35 603 L85.35 578.25 A9.00007 9.00007 -180 0 0 76.35 569.25 L9 569.25
						 A9.00007 9.00007 -180 0 0 -0 578.25 L0 603 A9.00007 9.00007 -180 0 0 9 612 L76.35 612 Z" class="st10"/>
		</g>
		<g id="shape8-36" v:mID="8" v:groupContext="shape" transform="translate(243.321,-227.269)">
			<title>Rounded rectangle.7</title>
			<desc>Name Service</desc>
			<v:userDefs>
				<v:ud v:nameU="visVersion" v:val="VT0(14):26"/>
				<v:ud v:nameU="msvThemeColors" v:val="VT0(36):26"/>
				<v:ud v:nameU="msvThemeEffects" v:val="VT0(16):26"/>
			</v:userDefs>
			<v:textBlock v:margins="rect(4,4,4,4)"/>
			<v:textRect cx="24.0589" cy="596.25" width="48.12" height="31.5"/>
			<g id="shadow8-37" v:groupContext="shadow" v:shadowOffsetX="1.44" v:shadowOffsetY="-1.44" v:shadowType="1"
					transform="matrix(1,0,0,1,1.44,1.44)" class="st1">
				<path d="M39.12 612 A9.00007 9.00007 -180 0 0 48.12 603 L48.12 589.5 A9.00007 9.00007 -180 0 0 39.12 580.5 L9 580.5
							 A9.00007 9.00007 -180 0 0 -0 589.5 L0 603 A9.00007 9.00007 -180 0 0 9 612 L39.12 612 Z" class="st2"/>
			</g>
			<path d="M39.12 612 A9.00007 9.00007 -180 0 0 48.12 603 L48.12 589.5 A9.00007 9.00007 -180 0 0 39.12 580.5 L9 580.5 A9.00007
						 9.00007 -180 0 0 -0 589.5 L0 603 A9.00007 9.00007 -180 0 0 9 612 L39.12 612 Z" class="st10"/>
			<text x="12.95" y="593.55" class="st7" v:langID="1033"><v:paragraph v:horizAlign="1"/><v:tabList/>Name <tspan x="10.68"
						dy="1.2em" class="st8">Service</tspan></text>		</g>
		<g id="shape9-43" v:mID="9" v:groupContext="shape" v:layerMember="0"
				transform="translate(-345.054,338.446) rotate(-90) scale(-1,1)">
			<title>Line-curve connector</title>
			<v:userDefs>
				<v:ud v:nameU="AntiScale" v:val="VT0(1):26"/>
				<v:ud v:nameU="Scale" v:val="VT0(1):26"/>
				<v:ud v:nameU="visVersion" v:val="VT0(14):26"/>
				<v:ud v:nameU="msvThemeColors" v:val="VT0(36):26"/>
				<v:ud v:nameU="msvThemeEffects" v:val="VT0(16):26"/>
			</v:userDefs>
			<path d="M0 612 L14.62 612 L14.62 612" class="st11"/>
		</g>
		<g id="shape10-47" v:mID="10" v:groupContext="shape" v:layerMember="0"
				transform="translate(862.935,251.42) rotate(89.6466)">
			<title>Line-curve connector.10</title>
			<v:userDefs>
				<v:ud v:nameU="AntiScale" v:val="VT0(1):26"/>
				<v:ud v:nameU="Scale" v:val="VT0(1):26"/>
				<v:ud v:nameU="visVersion" v:val="VT0(14):26"/>
				<v:ud v:nameU="msvThemeColors" v:val="VT0(36):26"/>
				<v:ud v:nameU="msvThemeEffects" v:val="VT0(16):26"/>
			</v:userDefs>
			<path d="M0 612 L34.34 612 L34.34 612" class="st12"/>
		</g>
		<g id="shape11-54" v:mID="11" v:groupContext="shape" transform="translate(328.821,-260.054)">
			<title>Sheet.11</title>
			<desc>IS-AT multicast (includes WKN for the SLS)</desc>
			<v:userDefs>
				<v:ud v:nameU="msvThemeColors" v:val="VT0(36):26"/>
				<v:ud v:nameU="msvThemeEffects" v:val="VT0(16):26"/>
			</v:userDefs>
			<v:textBlock v:margins="rect(4,4,4,4)"/>
			<v:textRect cx="36.7232" cy="607.5" width="73.45" height="9"/>
			<rect x="0" y="603" width="73.4464" height="9" class="st6"/>
			<text x="9.47" y="599.4" class="st9" v:langID="1033"><v:paragraph v:horizAlign="1"/><v:tabList/>IS-AT multicast <v:newlineChar/><tspan
						x="10.04" dy="1.2em" class="st8">(</tspan>includes WKN <tspan x="15.87" dy="1.2em" class="st8">for the SLS</tspan>)</text>		</g>
		<g id="shape12-59" v:mID="12" v:groupContext="shape" transform="translate(465.501,-197.054)">
			<title>Rounded rectangle.13</title>
			<v:userDefs>
				<v:ud v:nameU="visVersion" v:val="VT0(14):26"/>
				<v:ud v:nameU="msvThemeColors" v:val="VT0(36):26"/>
				<v:ud v:nameU="msvThemeEffects" v:val="VT0(16):26"/>
			</v:userDefs>
			<g id="shadow12-60" v:groupContext="shadow" v:shadowOffsetX="1.44" v:shadowOffsetY="-1.44" v:shadowType="1"
					transform="matrix(1,0,0,1,1.44,1.44)" class="st1">
				<path d="M146.82 612 A9.00007 9.00007 -180 0 0 155.82 603 L155.82 378.43 A9.00007 9.00007 -180 0 0 146.82 369.43
							 L9 369.43 A9.00007 9.00007 -180 0 0 -0 378.43 L0 603 A9.00007 9.00007 -180 0 0 9 612 L146.82 612 Z"
						class="st2"/>
			</g>
			<path d="M146.82 612 A9.00007 9.00007 -180 0 0 155.82 603 L155.82 378.43 A9.00007 9.00007 -180 0 0 146.82 369.43 L9 369.43
						 A9.00007 9.00007 -180 0 0 -0 378.43 L0 603 A9.00007 9.00007 -180 0 0 9 612 L146.82 612 Z" class="st3"/>
		</g>
		<g id="shape13-64" v:mID="13" v:groupContext="shape" transform="translate(481.64,-351.983)">
			<title>Rectangle.21</title>
			<desc>Consumer App</desc>
			<v:userDefs>
				<v:ud v:nameU="visVersion" v:val="VT0(14):26"/>
				<v:ud v:nameU="msvThemeColors" v:val="VT0(36):26"/>
				<v:ud v:nameU="msvThemeEffects" v:val="VT0(16):26"/>
			</v:userDefs>
			<v:textBlock v:margins="rect(4,4,4,4)"/>
			<v:textRect cx="62.328" cy="585.056" width="124.66" height="53.8875"/>
			<g id="shadow13-65" v:groupContext="shadow" v:shadowOffsetX="1.44" v:shadowOffsetY="-1.44" v:shadowType="1"
					transform="matrix(1,0,0,1,1.44,1.44)" class="st1">
				<rect x="0" y="558.112" width="124.656" height="53.8875" class="st2"/>
			</g>
			<rect x="0" y="558.112" width="124.656" height="53.8875" class="st4"/>
			<text x="26.31" y="588.66" class="st5" v:langID="1033"><v:paragraph v:horizAlign="1"/><v:tabList/>Consumer App</text>		</g>
		<g id="shape14-70" v:mID="14" v:groupContext="shape" transform="translate(473.464,-418.197)">
			<title>Sheet.14</title>
			<desc>AllJoyn Consumer Device</desc>
			<v:userDefs>
				<v:ud v:nameU="msvThemeColors" v:val="VT0(36):26"/>
				<v:ud v:nameU="msvThemeEffects" v:val="VT0(16):26"/>
			</v:userDefs>
			<v:textBlock v:margins="rect(4,4,4,4)"/>
			<v:textRect cx="70.3913" cy="604" width="140.79" height="16"/>
			<rect x="0" y="596" width="140.783" height="16" class="st6"/>
			<text x="9.34" y="607.6" class="st5" v:langID="1033"><v:paragraph v:horizAlign="1"/><v:tabList/>AllJoyn Consumer Device</text>		</g>
		<g id="shape15-73" v:mID="15" v:groupContext="shape" transform="translate(481.64,-213.929)">
			<title>Rectangle.23</title>
			<v:userDefs>
				<v:ud v:nameU="visVersion" v:val="VT0(14):26"/>
				<v:ud v:nameU="msvThemeColors" v:val="VT0(36):26"/>
				<v:ud v:nameU="msvThemeEffects" v:val="VT0(16):26"/>
			</v:userDefs>
			<g id="shadow15-74" v:groupContext="shadow" v:shadowOffsetX="1.44" v:shadowOffsetY="-1.44" v:shadowType="1"
					transform="matrix(1,0,0,1,1.44,1.44)" class="st1">
				<rect x="0" y="500.946" width="124.656" height="111.054" class="st2"/>
			</g>
			<rect x="0" y="500.946" width="124.656" height="111.054" class="st4"/>
		</g>
		<g id="shape16-78" v:mID="16" v:groupContext="shape" transform="translate(569.01,-222.126)">
			<title>Sheet.16</title>
			<desc>AllJoyn Router</desc>
			<v:userDefs>
				<v:ud v:nameU="msvThemeColors" v:val="VT0(36):26"/>
				<v:ud v:nameU="msvThemeEffects" v:val="VT0(16):26"/>
			</v:userDefs>
			<v:textBlock v:margins="rect(4,4,4,4)"/>
			<v:textRect cx="19.234" cy="596.5" width="38.47" height="31"/>
			<rect x="0" y="581" width="38.4681" height="31" class="st6"/>
			<text x="5.84" y="593.8" class="st7" v:langID="1033"><v:paragraph v:horizAlign="1"/><v:tabList/>AllJoyn <tspan x="6.44"
						dy="1.2em" class="st8">Router</tspan></text>		</g>
		<g id="shape17-82" v:mID="17" v:groupContext="shape" transform="translate(319.179,-182.912)">
			<title>Sheet.17</title>
			<desc>Fetch Announcement Message</desc>
			<v:userDefs>
				<v:ud v:nameU="msvThemeColors" v:val="VT0(36):26"/>
				<v:ud v:nameU="msvThemeEffects" v:val="VT0(16):26"/>
			</v:userDefs>
			<v:textBlock v:margins="rect(4,4,4,4)"/>
			<v:textRect cx="77.5446" cy="607.5" width="155.09" height="9"/>
			<rect x="0" y="603" width="155.089" height="9" class="st6"/>
			<text x="21.03" y="610.2" class="st9" v:langID="1033"><v:paragraph v:horizAlign="1"/><v:tabList/>Fetch Announcement Message</text>		</g>
		<g id="shape18-85" v:mID="18" v:groupContext="shape" v:layerMember="0"
				transform="translate(-68.4643,259.374) rotate(-90) scale(-1,1)">
			<title>Line-curve connector.30</title>
			<v:userDefs>
				<v:ud v:nameU="AntiScale" v:val="VT0(1):26"/>
				<v:ud v:nameU="Scale" v:val="VT0(1):26"/>
				<v:ud v:nameU="visVersion" v:val="VT0(14):26"/>
				<v:ud v:nameU="msvThemeColors" v:val="VT0(36):26"/>
				<v:ud v:nameU="msvThemeEffects" v:val="VT0(16):26"/>
			</v:userDefs>
			<path d="M5.8 612 L6.16 612 L35.84 612 L35.84 612" class="st14"/>
		</g>
		<g id="shape19-92" v:mID="19" v:groupContext="shape" transform="translate(240.75,-279.983)">
			<title>Rectangle.26</title>
			<desc>SLS Cache</desc>
			<v:userDefs>
				<v:ud v:nameU="visVersion" v:val="VT0(14):26"/>
				<v:ud v:nameU="msvThemeColors" v:val="VT0(36):26"/>
				<v:ud v:nameU="msvThemeEffects" v:val="VT0(16):26"/>
			</v:userDefs>
			<v:textBlock v:margins="rect(4,4,4,4)"/>
			<v:textRect cx="21.9375" cy="602.839" width="43.88" height="18.3214"/>
			<g id="shadow19-93" v:groupContext="shadow" v:shadowOffsetX="1.44" v:shadowOffsetY="-1.44" v:shadowType="1"
					transform="matrix(1,0,0,1,1.44,1.44)" class="st1">
				<rect x="0" y="593.679" width="43.875" height="18.3214" class="st2"/>
			</g>
			<rect x="0" y="593.679" width="43.875" height="18.3214" class="st4"/>
			<text x="5.84" y="605.24" class="st15" v:langID="1033"><v:paragraph v:horizAlign="1"/><v:tabList/>SLS Cache</text>		</g>
		<g id="shape20-98" v:mID="20" v:groupContext="shape" transform="translate(197.679,-300.554)">
			<title>Sheet.20</title>
			<desc>SLS Module</desc>
			<v:userDefs>
				<v:ud v:nameU="msvThemeColors" v:val="VT0(36):26"/>
				<v:ud v:nameU="msvThemeEffects" v:val="VT0(16):26"/>
			</v:userDefs>
			<v:textBlock v:margins="rect(4,4,4,4)"/>
			<v:textRect cx="52" cy="604" width="104" height="16"/>
			<rect x="0" y="596" width="104" height="16" class="st6"/>
			<text x="30.27" y="606.7" class="st7" v:langID="1033"><v:paragraph v:horizAlign="1"/><v:tabList/>SLS Module</text>		</g>
		<g id="shape21-101" v:mID="21" v:groupContext="shape" transform="translate(412.875,-249.126)">
			<title>Sheet.21</title>
			<desc>IS-AT received</desc>
			<v:userDefs>
				<v:ud v:nameU="msvThemeColors" v:val="VT0(36):26"/>
				<v:ud v:nameU="msvThemeEffects" v:val="VT0(16):26"/>
			</v:userDefs>
			<v:textBlock v:margins="rect(4,4,4,4)"/>
			<v:textRect cx="36.7232" cy="607.5" width="73.45" height="9"/>
			<rect x="0" y="603" width="73.4464" height="9" class="st6"/>
			<text x="10.71" y="610.2" class="st9" v:langID="1033"><v:paragraph v:horizAlign="1"/><v:tabList/>IS-AT received</text>		</g>
		<g id="shape22-104" v:mID="22" v:groupContext="shape" transform="translate(492.911,-272.912)">
			<title>Rounded rectangle.19</title>
			<v:userDefs>
				<v:ud v:nameU="visVersion" v:val="VT0(14):26"/>
				<v:ud v:nameU="msvThemeColors" v:val="VT0(36):26"/>
				<v:ud v:nameU="msvThemeEffects" v:val="VT0(16):26"/>
			</v:userDefs>
			<g id="shadow22-105" v:groupContext="shadow" v:shadowOffsetX="1.44" v:shadowOffsetY="-1.44" v:shadowType="1"
					transform="matrix(1,0,0,1,1.44,1.44)" class="st1">
				<path d="M76.35 612 A9.00007 9.00007 -180 0 0 85.35 603 L85.35 578.25 A9.00007 9.00007 -180 0 0 76.35 569.25 L9 569.25
							 A9.00007 9.00007 -180 0 0 -0 578.25 L0 603 A9.00007 9.00007 -180 0 0 9 612 L76.35 612 Z" class="st2"/>
			</g>
			<path d="M76.35 612 A9.00007 9.00007 -180 0 0 85.35 603 L85.35 578.25 A9.00007 9.00007 -180 0 0 76.35 569.25 L9 569.25
						 A9.00007 9.00007 -180 0 0 -0 578.25 L0 603 A9.00007 9.00007 -180 0 0 9 612 L76.35 612 Z" class="st10"/>
		</g>
		<g id="shape23-109" v:mID="23" v:groupContext="shape" transform="translate(490.821,-226.626)">
			<title>Rounded rectangle.20</title>
			<desc>Name Service</desc>
			<v:userDefs>
				<v:ud v:nameU="visVersion" v:val="VT0(14):26"/>
				<v:ud v:nameU="msvThemeColors" v:val="VT0(36):26"/>
				<v:ud v:nameU="msvThemeEffects" v:val="VT0(16):26"/>
			</v:userDefs>
			<v:textBlock v:margins="rect(4,4,4,4)"/>
			<v:textRect cx="24.0589" cy="596.25" width="48.12" height="31.5"/>
			<g id="shadow23-110" v:groupContext="shadow" v:shadowOffsetX="1.44" v:shadowOffsetY="-1.44" v:shadowType="1"
					transform="matrix(1,0,0,1,1.44,1.44)" class="st1">
				<path d="M39.12 612 A9.00007 9.00007 -180 0 0 48.12 603 L48.12 589.5 A9.00007 9.00007 -180 0 0 39.12 580.5 L9 580.5
							 A9.00007 9.00007 -180 0 0 -0 589.5 L0 603 A9.00007 9.00007 -180 0 0 9 612 L39.12 612 Z" class="st2"/>
			</g>
			<path d="M39.12 612 A9.00007 9.00007 -180 0 0 48.12 603 L48.12 589.5 A9.00007 9.00007 -180 0 0 39.12 580.5 L9 580.5 A9.00007
						 9.00007 -180 0 0 -0 589.5 L0 603 A9.00007 9.00007 -180 0 0 9 612 L39.12 612 Z" class="st10"/>
			<text x="12.95" y="593.55" class="st7" v:langID="1033"><v:paragraph v:horizAlign="1"/><v:tabList/>Name <tspan x="10.68"
						dy="1.2em" class="st8">Service</tspan></text>		</g>
		<g id="shape24-116" v:mID="24" v:groupContext="shape" v:layerMember="0"
				transform="translate(-97.5536,339.088) rotate(-90) scale(-1,1)">
			<title>Line-curve connector.21</title>
			<v:userDefs>
				<v:ud v:nameU="AntiScale" v:val="VT0(1):26"/>
				<v:ud v:nameU="Scale" v:val="VT0(1):26"/>
				<v:ud v:nameU="visVersion" v:val="VT0(14):26"/>
				<v:ud v:nameU="msvThemeColors" v:val="VT0(36):26"/>
				<v:ud v:nameU="msvThemeEffects" v:val="VT0(16):26"/>
			</v:userDefs>
			<path d="M0 612 L14.62 612 L14.62 612" class="st11"/>
		</g>
		<g id="shape25-120" v:mID="25" v:groupContext="shape" transform="translate(484.393,-284.483)">
			<title>Sheet.25</title>
			<desc>SLS Module</desc>
			<v:userDefs>
				<v:ud v:nameU="msvThemeColors" v:val="VT0(36):26"/>
				<v:ud v:nameU="msvThemeEffects" v:val="VT0(16):26"/>
			</v:userDefs>
			<v:textBlock v:margins="rect(4,4,4,4)"/>
			<v:textRect cx="52" cy="602.277" width="104" height="19.4464"/>
			<rect x="0" y="592.554" width="104" height="19.4464" class="st6"/>
			<text x="30.27" y="604.98" class="st7" v:langID="1033"><v:paragraph v:horizAlign="1"/><v:tabList/>SLS Module</text>		</g>
		<g id="shape26-123" v:mID="26" v:groupContext="shape" v:layerMember="0" transform="translate(229.821,-281.429)">
			<title>Dynamic connector</title>
			<v:userDefs>
				<v:ud v:nameU="visVersion" v:val="VT0(14):26"/>
				<v:ud v:nameU="msvThemeColors" v:val="VT0(36):26"/>
				<v:ud v:nameU="msvThemeEffects" v:val="VT0(16):26"/>
			</v:userDefs>
			<path d="M0 630.08 L0 630.43 L0 713.25 L324 713.25 L324 632.68" class="st16"/>
		</g>
		<g id="shape27-133" v:mID="27" v:groupContext="shape" transform="translate(291.439,-243.019)">
			<title>Sheet.27</title>
			<v:userDefs>
				<v:ud v:nameU="msvThemeColors" v:val="VT0(36):26"/>
				<v:ud v:nameU="msvThemeEffects" v:val="VT0(16):26"/>
			</v:userDefs>
			<g id="shadow27-134" v:groupContext="shadow" v:shadowOffsetX="1.44" v:shadowOffsetY="-1.44" v:shadowType="1"
					transform="matrix(1,0,0,1,1.44,1.44)" class="st1">
				<path d="M0 612 L78.57 612" class="st17"/>
			</g>
			<path d="M0 612 L78.57 612" class="st19"/>
		</g>
		<g id="shape28-146" v:mID="28" v:groupContext="shape" transform="translate(423.321,-242.054)">
			<title>Sheet.28</title>
			<v:userDefs>
				<v:ud v:nameU="msvThemeColors" v:val="VT0(36):26"/>
				<v:ud v:nameU="msvThemeEffects" v:val="VT0(16):26"/>
			</v:userDefs>
			<g id="shadow28-147" v:groupContext="shadow" v:shadowOffsetX="1.44" v:shadowOffsetY="-1.44" v:shadowType="1"
					transform="matrix(1,0,0,1,1.44,1.44)" class="st1">
				<path d="M0 612 L50.01 612" class="st17"/>
			</g>
			<path d="M0 612 L50.01 612" class="st19"/>
		</g>
		<g id="shape29-157" v:mID="29" v:groupContext="shape" transform="translate(539.036,-332.697)">
			<title>Sheet.29</title>
			<desc>Announcement Message</desc>
			<v:userDefs>
				<v:ud v:nameU="msvThemeColors" v:val="VT0(36):26"/>
				<v:ud v:nameU="msvThemeEffects" v:val="VT0(16):26"/>
			</v:userDefs>
			<v:textBlock v:margins="rect(4,4,4,4)"/>
			<v:textRect cx="37.125" cy="607.5" width="74.25" height="9"/>
			<rect x="0" y="603" width="74.25" height="9" class="st6"/>
			<text x="8.84" y="604.8" class="st9" v:langID="1033"><v:paragraph v:horizAlign="1"/><v:tabList/>Announcement <tspan
						x="21.01" dy="1.2em" class="st8">Message</tspan></text>		</g>
	</g>
</svg>
