<?xml version="1.0" encoding="UTF-8" standalone="no"?>
<!DOCTYPE svg PUBLIC "-//W3C//DTD SVG 1.0//EN" "http://www.w3.org/TR/2001/REC-SVG-20010904/DTD/svg10.dtd">
<!-- Generated by Microsoft Visio 11.0, SVG Export, v1.0 Drawing46.svg Page-1 -->
<svg xmlns="http://www.w3.org/2000/svg" xmlns:xlink="http://www.w3.org/1999/xlink" xmlns:ev="http://www.w3.org/2001/xml-events"
		xmlns:v="http://schemas.microsoft.com/visio/2003/SVGExtensions/" width="11in" height="8.5in" viewBox="0 0 792 612"
		xml:space="preserve" color-interpolation-filters="sRGB" class="st14">
	<v:documentProperties v:langID="1033" v:viewMarkup="false">
		<v:userDefs>
			<v:ud v:nameU="msvNoAutoConnect" v:val="VT0(0):26"/>
		</v:userDefs>
	</v:documentProperties>

	<style type="text/css">
	<![CDATA[
		.st1 {visibility:visible}
		.st2 {fill:#cdcdcd;fill-opacity:0.5;stroke:#cdcdcd;stroke-linecap:round;stroke-linejoin:round;stroke-opacity:0.5;stroke-width:0.25}
		.st3 {fill:url(#grad30-6);stroke:#404040;stroke-linecap:round;stroke-linejoin:round;stroke-width:0.25}
		.st4 {fill:url(#grad30-12);stroke:#404040;stroke-linecap:round;stroke-linejoin:round;stroke-width:0.25}
		.st5 {fill:#000000;font-family:Calibri;font-size:1.00001em}
		.st6 {font-size:1em}
		.st7 {fill:none;stroke:none;stroke-linecap:round;stroke-linejoin:round;stroke-width:0.25}
		.st8 {fill:#000000;font-family:Calibri;font-size:1.16666em;font-weight:bold}
		.st9 {fill:url(#grad30-56);stroke:#404040;stroke-linecap:round;stroke-linejoin:round;stroke-width:0.25}
		.st10 {fill:url(#grad26-62);stroke:#000000;stroke-linecap:round;stroke-linejoin:round;stroke-width:0.25}
		.st11 {stroke:#404040;stroke-linecap:round;stroke-linejoin:round;stroke-width:1}
		.st12 {fill:#ffffff;stroke:none;stroke-linecap:butt;stroke-width:7.2}
		.st13 {fill:#000000;font-family:Calibri;font-size:0.833336em}
		.st14 {fill:none;fill-rule:evenodd;font-size:12px;overflow:visible;stroke-linecap:square;stroke-miterlimit:3}
	]]>
	</style>

	<defs id="Patterns_And_Gradients">
		<linearGradient id="grad30-6" v:fillPattern="30" v:foreground="#f7d8c1" v:background="#fae9dc" x1="0" y1="1" x2="0" y2="0">
			<stop offset="0" style="stop-color:#f7d8c1;stop-opacity:1"/>
			<stop offset="1" style="stop-color:#fae9dc;stop-opacity:1"/>
		</linearGradient>
		<linearGradient id="grad30-12" v:fillPattern="30" v:foreground="#f0f0f0" v:background="#ffffff" x1="0" y1="1" x2="0" y2="0">
			<stop offset="0" style="stop-color:#f0f0f0;stop-opacity:1"/>
			<stop offset="1" style="stop-color:#ffffff;stop-opacity:1"/>
		</linearGradient>
		<linearGradient id="grad30-56" v:fillPattern="30" v:foreground="#e78636" v:background="#ea9651" x1="0" y1="1" x2="0" y2="0">
			<stop offset="0" style="stop-color:#e78636;stop-opacity:1"/>
			<stop offset="1" style="stop-color:#ea9651;stop-opacity:1"/>
		</linearGradient>
		<linearGradient id="grad26-62" v:fillPattern="26" v:foreground="#eff3f8" v:background="#eaeff5" x1="0" y1="0" x2="1" y2="0">
			<stop offset="0" style="stop-color:#eaeff5;stop-opacity:1"/>
			<stop offset="0.5" style="stop-color:#eff3f8;stop-opacity:1"/>
			<stop offset="1" style="stop-color:#eaeff5;stop-opacity:1"/>
		</linearGradient>
	</defs>
	<g v:mID="0" v:index="1" v:groupContext="foregroundPage">
		<v:userDefs>
			<v:ud v:nameU="msvThemeColors" v:val="VT0(36):26"/>
			<v:ud v:nameU="msvThemeEffects" v:val="VT0(16):26"/>
			<v:ud v:nameU="msvThemeOrder" v:val="VT0(0):26"/>
		</v:userDefs>
		<title>Page-1</title>
		<v:pageProperties v:drawingScale="1" v:pageScale="1" v:drawingUnits="0" v:shadowOffsetX="9" v:shadowOffsetY="-9"/>
		<v:layer v:name="Connector" v:index="0"/>
		<g id="shape1-1" v:mID="1" v:groupContext="shape" transform="translate(153,-148.793)">
			<title>Cloud.11</title>
			<v:userDefs>
				<v:ud v:nameU="solsh"/>
				<v:ud v:nameU="shapetype" v:val="VT0(1):26"/>
				<v:ud v:nameU="shapelook" v:val="VT0(2):26"/>
				<v:ud v:nameU="visVersion" v:val="VT0(14):26"/>
				<v:ud v:nameU="msvThemeColors" v:val="VT0(36):26"/>
				<v:ud v:nameU="msvThemeEffects" v:val="VT0(16):26"/>
			</v:userDefs>
			<g id="shadow1-2" v:groupContext="shadow" v:shadowOffsetX="1.44" v:shadowOffsetY="-1.44" v:shadowType="1"
					transform="matrix(1,0,0,1,1.44,1.44)" class="st1">
				<path d="M180.52 340.36 A76.9251 80.9594 0 0 1 316.24 339.31 A56.4616 59.4226 0 0 1 413.35 358.96 A56.7838 59.7618
							 0 0 1 480.41 389.09 A42.8347 45.0811 0 0 1 457.63 443.77 A48.3736 50.9104 0 0 1 420.52 537.74 A87.108
							 91.6763 0 0 1 299.24 585.02 A109.708 115.461 0 0 1 147.02 573.55 A60.3743 63.5406 0 0 1 40.81 522.32
							 A43.6267 45.9146 0 0 1 41.01 430.67 A37.3281 39.2857 0 1 1 71.13 358.8 A58.5183 61.5872 0 0 1 180.52
							 340.36 Z" class="st2"/>
			</g>
			<path d="M180.52 340.36 A76.9251 80.9594 0 0 1 316.24 339.31 A56.4616 59.4226 0 0 1 413.35 358.96 A56.7838 59.7618 0
						 0 1 480.41 389.09 A42.8347 45.0811 0 0 1 457.63 443.77 A48.3736 50.9104 0 0 1 420.52 537.74 A87.108 91.6763
						 0 0 1 299.24 585.02 A109.708 115.461 0 0 1 147.02 573.55 A60.3743 63.5406 0 0 1 40.81 522.32 A43.6267 45.9146
						 0 0 1 41.01 430.67 A37.3281 39.2857 0 1 1 71.13 358.8 A58.5183 61.5872 0 0 1 180.52 340.36 Z" class="st3"/>
		</g>
		<g id="shape2-7" v:mID="2" v:groupContext="shape" transform="translate(526.875,-256.793)">
			<title>Rounded rectangle.2</title>
			<desc>AllJoyn Device 4 (Consumer)</desc>
			<v:userDefs>
				<v:ud v:nameU="visVersion" v:val="VT0(14):26"/>
				<v:ud v:nameU="msvThemeColors" v:val="VT0(36):26"/>
				<v:ud v:nameU="msvThemeEffects" v:val="VT0(16):26"/>
			</v:userDefs>
			<v:textBlock v:margins="rect(4,4,4,4)"/>
			<v:textRect cx="38.0625" cy="586.625" width="76.13" height="50.75"/>
			<g id="shadow2-8" v:groupContext="shadow" v:shadowOffsetX="1.44" v:shadowOffsetY="-1.44" v:shadowType="1"
					transform="matrix(1,0,0,1,1.44,1.44)" class="st1">
				<path d="M67.13 612 A9.00007 9.00007 -180 0 0 76.13 603 L76.13 570.25 A9.00007 9.00007 -180 0 0 67.13 561.25 L9 561.25
							 A9.00007 9.00007 -180 0 0 -0 570.25 L0 603 A9.00007 9.00007 -180 0 0 9 612 L67.13 612 Z" class="st2"/>
			</g>
			<path d="M67.13 612 A9.00007 9.00007 -180 0 0 76.13 603 L76.13 570.25 A9.00007 9.00007 -180 0 0 67.13 561.25 L9 561.25
						 A9.00007 9.00007 -180 0 0 -0 570.25 L0 603 A9.00007 9.00007 -180 0 0 9 612 L67.13 612 Z" class="st4"/>
			<text x="20.89" y="575.83" class="st5" v:langID="1033"><v:paragraph v:horizAlign="1"/><v:tabList/>AllJoyn <tspan
						x="17.38" dy="1.2em" class="st6">Device </tspan>4<v:newlineChar/><tspan x="9.54" dy="1.2em" class="st6">(</tspan>Consumer)</text>		</g>
		<g id="shape3-16" v:mID="3" v:groupContext="shape" transform="translate(195.937,-224.043)">
			<title>Rounded rectangle.10</title>
			<desc>AllJoyn Device 2 (Consumer)</desc>
			<v:userDefs>
				<v:ud v:nameU="visVersion" v:val="VT0(14):26"/>
				<v:ud v:nameU="msvThemeColors" v:val="VT0(36):26"/>
				<v:ud v:nameU="msvThemeEffects" v:val="VT0(16):26"/>
			</v:userDefs>
			<v:textBlock v:margins="rect(4,4,4,4)"/>
			<v:textRect cx="38.0625" cy="586.625" width="76.13" height="50.75"/>
			<g id="shadow3-17" v:groupContext="shadow" v:shadowOffsetX="1.44" v:shadowOffsetY="-1.44" v:shadowType="1"
					transform="matrix(1,0,0,1,1.44,1.44)" class="st1">
				<path d="M67.13 612 A9.00007 9.00007 -180 0 0 76.13 603 L76.13 570.25 A9.00007 9.00007 -180 0 0 67.13 561.25 L9 561.25
							 A9.00007 9.00007 -180 0 0 -0 570.25 L0 603 A9.00007 9.00007 -180 0 0 9 612 L67.13 612 Z" class="st2"/>
			</g>
			<path d="M67.13 612 A9.00007 9.00007 -180 0 0 76.13 603 L76.13 570.25 A9.00007 9.00007 -180 0 0 67.13 561.25 L9 561.25
						 A9.00007 9.00007 -180 0 0 -0 570.25 L0 603 A9.00007 9.00007 -180 0 0 9 612 L67.13 612 Z" class="st4"/>
			<text x="20.89" y="575.83" class="st5" v:langID="1033"><v:paragraph v:horizAlign="1"/><v:tabList/>AllJoyn <tspan
						x="17.38" dy="1.2em" class="st6">Device </tspan>2<v:newlineChar/><tspan x="9.54" dy="1.2em" class="st6">(</tspan>Consumer)</text>		</g>
		<g id="shape4-24" v:mID="4" v:groupContext="shape" transform="translate(345.844,-169.293)">
			<title>Rounded rectangle.11</title>
			<desc>AllJoyn Device 3 (Provider)</desc>
			<v:userDefs>
				<v:ud v:nameU="visVersion" v:val="VT0(14):26"/>
				<v:ud v:nameU="msvThemeColors" v:val="VT0(36):26"/>
				<v:ud v:nameU="msvThemeEffects" v:val="VT0(16):26"/>
			</v:userDefs>
			<v:textBlock v:margins="rect(4,4,4,4)"/>
			<v:textRect cx="41.1563" cy="586.25" width="82.32" height="51.5"/>
			<g id="shadow4-25" v:groupContext="shadow" v:shadowOffsetX="1.44" v:shadowOffsetY="-1.44" v:shadowType="1"
					transform="matrix(1,0,0,1,1.44,1.44)" class="st1">
				<path d="M73.31 612 A9.00007 9.00007 -180 0 0 82.31 603 L82.31 569.5 A9.00007 9.00007 -180 0 0 73.31 560.5 L9 560.5
							 A9.00007 9.00007 -180 0 0 -0 569.5 L0 603 A9.00007 9.00007 -180 0 0 9 612 L73.31 612 Z" class="st2"/>
			</g>
			<path d="M73.31 612 A9.00007 9.00007 -180 0 0 82.31 603 L82.31 569.5 A9.00007 9.00007 -180 0 0 73.31 560.5 L9 560.5 A9.00007
						 9.00007 -180 0 0 -0 569.5 L0 603 A9.00007 9.00007 -180 0 0 9 612 L73.31 612 Z" class="st4"/>
			<text x="23.99" y="575.45" class="st5" v:langID="1033"><v:paragraph v:horizAlign="1"/><v:tabList/>AllJoyn <v:newlineChar/><tspan
						x="20.47" dy="1.2em" class="st6">Device </tspan>3 <v:newlineChar/><tspan x="16.85" dy="1.2em" class="st6">(</tspan>Provider)</text>		</g>
		<g id="shape5-32" v:mID="5" v:groupContext="shape" transform="translate(522,-350.043)">
			<title>Rounded rectangle.12</title>
			<desc>AllJoyn Device N (Provider)</desc>
			<v:userDefs>
				<v:ud v:nameU="visVersion" v:val="VT0(14):26"/>
				<v:ud v:nameU="msvThemeColors" v:val="VT0(36):26"/>
				<v:ud v:nameU="msvThemeEffects" v:val="VT0(16):26"/>
			</v:userDefs>
			<v:textBlock v:margins="rect(4,4,4,4)"/>
			<v:textRect cx="38.0625" cy="586.625" width="76.13" height="50.75"/>
			<g id="shadow5-33" v:groupContext="shadow" v:shadowOffsetX="1.44" v:shadowOffsetY="-1.44" v:shadowType="1"
					transform="matrix(1,0,0,1,1.44,1.44)" class="st1">
				<path d="M67.13 612 A9.00007 9.00007 -180 0 0 76.13 603 L76.13 570.25 A9.00007 9.00007 -180 0 0 67.13 561.25 L9 561.25
							 A9.00007 9.00007 -180 0 0 -0 570.25 L0 603 A9.00007 9.00007 -180 0 0 9 612 L67.13 612 Z" class="st2"/>
			</g>
			<path d="M67.13 612 A9.00007 9.00007 -180 0 0 76.13 603 L76.13 570.25 A9.00007 9.00007 -180 0 0 67.13 561.25 L9 561.25
						 A9.00007 9.00007 -180 0 0 -0 570.25 L0 603 A9.00007 9.00007 -180 0 0 9 612 L67.13 612 Z" class="st4"/>
			<text x="20.89" y="575.83" class="st5" v:langID="1033"><v:paragraph v:horizAlign="1"/><v:tabList/>AllJoyn <tspan
						x="16.55" dy="1.2em" class="st6">Device N<v:newlineChar/></tspan><tspan x="13.75" dy="1.2em" class="st6">(</tspan>Provider)</text>		</g>
		<g id="shape6-40" v:mID="6" v:groupContext="shape" transform="translate(193.5,-325.578)">
			<title>Rounded rectangle.13</title>
			<desc>AllJoyn Device 1 (Provider)</desc>
			<v:userDefs>
				<v:ud v:nameU="visVersion" v:val="VT0(14):26"/>
				<v:ud v:nameU="msvThemeColors" v:val="VT0(36):26"/>
				<v:ud v:nameU="msvThemeEffects" v:val="VT0(16):26"/>
			</v:userDefs>
			<v:textBlock v:margins="rect(4,4,4,4)"/>
			<v:textRect cx="38.0625" cy="586.625" width="76.13" height="50.75"/>
			<g id="shadow6-41" v:groupContext="shadow" v:shadowOffsetX="1.44" v:shadowOffsetY="-1.44" v:shadowType="1"
					transform="matrix(1,0,0,1,1.44,1.44)" class="st1">
				<path d="M67.13 612 A9.00007 9.00007 -180 0 0 76.13 603 L76.13 570.25 A9.00007 9.00007 -180 0 0 67.13 561.25 L9 561.25
							 A9.00007 9.00007 -180 0 0 -0 570.25 L0 603 A9.00007 9.00007 -180 0 0 9 612 L67.13 612 Z" class="st2"/>
			</g>
			<path d="M67.13 612 A9.00007 9.00007 -180 0 0 76.13 603 L76.13 570.25 A9.00007 9.00007 -180 0 0 67.13 561.25 L9 561.25
						 A9.00007 9.00007 -180 0 0 -0 570.25 L0 603 A9.00007 9.00007 -180 0 0 9 612 L67.13 612 Z" class="st4"/>
			<text x="20.89" y="575.83" class="st5" v:langID="1033"><v:paragraph v:horizAlign="1"/><v:tabList/>AllJoyn <tspan
						x="17.38" dy="1.2em" class="st6">Device </tspan>1<v:newlineChar/><tspan x="13.75" dy="1.2em" class="st6">(</tspan>Provider)</text>		</g>
		<g id="shape7-48" v:mID="7" v:groupContext="shape" transform="translate(346.5,-415.293)">
			<title>Sheet.7</title>
			<desc>AllJoyn Network</desc>
			<v:userDefs>
				<v:ud v:nameU="msvThemeColors" v:val="VT0(36):26"/>
				<v:ud v:nameU="msvThemeEffects" v:val="VT0(16):26"/>
			</v:userDefs>
			<v:textBlock v:margins="rect(4,4,4,4)"/>
			<v:textRect cx="54" cy="599.5" width="108" height="25"/>
			<rect x="0" y="587" width="108" height="25" class="st7"/>
			<text x="6.2" y="603.7" class="st8" v:langID="1033"><v:paragraph v:horizAlign="1"/><v:tabList/>AllJoyn Network</text>		</g>
		<g id="shape8-51" v:mID="8" v:groupContext="shape" transform="translate(372.857,-342.293)">
			<title>Rectangle</title>
			<desc>Wi-Fi Access Point</desc>
			<v:userDefs>
				<v:ud v:nameU="visVersion" v:val="VT0(14):26"/>
				<v:ud v:nameU="msvThemeColors" v:val="VT0(36):26"/>
				<v:ud v:nameU="msvThemeEffects" v:val="VT0(16):26"/>
			</v:userDefs>
			<v:textBlock v:margins="rect(4,4,4,4)"/>
			<v:textRect cx="41.9063" cy="591" width="83.82" height="42"/>
			<g id="shadow8-52" v:groupContext="shadow" v:shadowOffsetX="1.44" v:shadowOffsetY="-1.44" v:shadowType="1"
					transform="matrix(1,0,0,1,1.44,1.44)" class="st1">
				<rect x="0" y="570" width="83.8125" height="42" class="st2"/>
			</g>
			<rect x="0" y="570" width="83.8125" height="42" class="st9"/>
			<text x="11.64" y="587.4" class="st5" v:langID="1033"><v:paragraph v:horizAlign="1"/><v:tabList/>Wi-Fi Access <tspan
						x="29.1" dy="1.2em" class="st6">Point</tspan></text>		</g>
		<g id="shape9-59" v:mID="9" v:groupContext="shape" transform="translate(156.349,-324.299) rotate(-11.0817)">
			<title>Comm-link</title>
			<v:userDefs>
				<v:ud v:nameU="visVersion" v:val="VT0(14):26"/>
			</v:userDefs>
			<path d="M0 603 L60.42 594 L53.67 606.6 L102.85 603 L42.42 612 L49.17 599.4 L0 603 Z" class="st10"/>
		</g>
		<g id="shape10-63" v:mID="10" v:groupContext="shape" transform="translate(-131.473,-85.4888) rotate(-42.0064)">
			<title>Comm-link.20</title>
			<v:userDefs>
				<v:ud v:nameU="visVersion" v:val="VT0(14):26"/>
			</v:userDefs>
			<path d="M0 603 L78.39 594 L71.64 606.6 L138.78 603 L60.39 612 L67.14 599.4 L0 603 Z" class="st10"/>
		</g>
		<g id="shape11-66" v:mID="11" v:groupContext="shape" transform="translate(-197.673,243.673) rotate(-75.8378)">
			<title>Comm-link.21</title>
			<v:userDefs>
				<v:ud v:nameU="visVersion" v:val="VT0(14):26"/>
			</v:userDefs>
			<path d="M0 603 L71.07 594 L64.32 606.6 L124.15 603 L53.07 612 L59.82 599.4 L0 603 Z" class="st10"/>
		</g>
		<g id="shape12-69" v:mID="12" v:groupContext="shape" v:layerMember="0" transform="translate(522,-383.605)">
			<title>Dynamic connector</title>
			<desc>PLC</desc>
			<v:userDefs>
				<v:ud v:nameU="visVersion" v:val="VT0(14):26"/>
				<v:ud v:nameU="msvThemeColors" v:val="VT0(36):26"/>
				<v:ud v:nameU="msvThemeEffects" v:val="VT0(16):26"/>
			</v:userDefs>
			<v:textBlock v:margins="rect(4,4,4,4)"/>
			<v:textRect cx="-32.6652" cy="621" width="50" height="20.0036"/>
			<path d="M0 620.19 L-65.33 621.81" class="st11"/>
			<rect v:rectContext="textBkgnd" x="-40.0162" y="615" width="14.7022" height="12.0001" class="st12"/>
			<text x="-40.02" y="624" class="st13" v:langID="1033"><v:paragraph v:horizAlign="1"/><v:tabList/>PLC</text>		</g>
		<g id="shape13-75" v:mID="13" v:groupContext="shape" v:layerMember="0" transform="translate(526.875,-282.168)">
			<title>Dynamic connector.24</title>
			<desc>eth</desc>
			<v:userDefs>
				<v:ud v:nameU="visVersion" v:val="VT0(14):26"/>
				<v:ud v:nameU="msvThemeColors" v:val="VT0(36):26"/>
				<v:ud v:nameU="msvThemeEffects" v:val="VT0(16):26"/>
			</v:userDefs>
			<v:textBlock v:margins="rect(4,4,4,4)"/>
			<v:textRect cx="-38.3036" cy="578.817" width="60" height="22.4037"/>
			<path d="M0 612 L-38.3 612 L-38.3 540.52 L-71.49 540.52" class="st11"/>
			<rect v:rectContext="textBkgnd" x="-46.4512" y="571.617" width="16.2952" height="14.4001" class="st12"/>
			<text x="-46.45" y="582.42" class="st5" v:langID="1033"><v:paragraph v:horizAlign="1"/><v:tabList/>eth</text>		</g>
	</g>
</svg>
