<?xml version="1.0" encoding="UTF-8" standalone="no"?>
<!DOCTYPE svg PUBLIC "-//W3C//DTD SVG 1.0//EN" "http://www.w3.org/TR/2001/REC-SVG-20010904/DTD/svg10.dtd">
<!-- Generated by Microsoft Visio 11.0, SVG Export, v1.0 Drawing172.svg Page-1 -->
<svg xmlns="http://www.w3.org/2000/svg" xmlns:xlink="http://www.w3.org/1999/xlink" xmlns:ev="http://www.w3.org/2001/xml-events"
		xmlns:v="http://schemas.microsoft.com/visio/2003/SVGExtensions/" width="11in" height="8.5in" viewBox="0 0 792 612"
		xml:space="preserve" color-interpolation-filters="sRGB" class="st21">
	<v:documentProperties v:langID="1033" v:viewMarkup="false">
		<v:userDefs>
			<v:ud v:nameU="msvNoAutoConnect" v:val="VT0(0):26"/>
		</v:userDefs>
	</v:documentProperties>

	<style type="text/css">
	<![CDATA[
		.st1 {visibility:visible}
		.st2 {fill:#cdcdcd;fill-opacity:0.5;stroke:#cdcdcd;stroke-linecap:round;stroke-linejoin:round;stroke-opacity:0.5;stroke-width:0.25}
		.st3 {fill:url(#grad30-6);stroke:#404040;stroke-linecap:round;stroke-linejoin:round;stroke-width:0.25}
		.st4 {fill:url(#grad30-12);stroke:#404040;stroke-linecap:round;stroke-linejoin:round;stroke-width:0.25}
		.st5 {fill:#000000;font-family:Calibri;font-size:1.00001em}
		.st6 {fill:none;stroke:none;stroke-linecap:round;stroke-linejoin:round;stroke-width:0.25}
		.st7 {fill:#000000;font-family:Calibri;font-size:1.16666em}
		.st8 {fill:#000000;font-family:Calibri;font-size:0.833336em;font-weight:bold}
		.st9 {fill:url(#grad30-30);stroke:#404040;stroke-linecap:round;stroke-linejoin:round;stroke-width:0.25}
		.st10 {fill:url(#grad30-36);stroke:#404040;stroke-linecap:round;stroke-linejoin:round;stroke-width:0.25}
		.st11 {fill:#000000;font-family:Calibri;font-size:0.75em;font-weight:bold}
		.st12 {font-size:1em}
		.st13 {fill:#000000;font-family:Calibri;font-size:0.833336em}
		.st14 {fill:#000000;font-family:Calibri;font-size:1.00001em;font-weight:bold}
		.st15 {font-size:1em;text-decoration:underline}
		.st16 {font-size:1em;font-weight:normal}
		.st17 {stroke:#cdcdcd;stroke-linecap:round;stroke-linejoin:round;stroke-opacity:0.5;stroke-width:0.25}
		.st18 {stroke:#404040;stroke-linecap:round;stroke-linejoin:round;stroke-width:0.25}
		.st19 {fill:url(#grad30-167);stroke:#404040;stroke-linecap:round;stroke-linejoin:round;stroke-width:0.25}
		.st20 {fill:#000000;font-family:Calibri;font-size:0.75em}
		.st21 {fill:none;fill-rule:evenodd;font-size:12px;overflow:visible;stroke-linecap:square;stroke-miterlimit:3}
	]]>
	</style>

	<defs id="Patterns_And_Gradients">
		<linearGradient id="grad30-6" v:fillPattern="30" v:foreground="#c9c9c9" v:background="#d8d8d8" x1="0" y1="1" x2="0" y2="0">
			<stop offset="0" style="stop-color:#c9c9c9;stop-opacity:1"/>
			<stop offset="1" style="stop-color:#d8d8d8;stop-opacity:1"/>
		</linearGradient>
		<linearGradient id="grad30-12" v:fillPattern="30" v:foreground="#f0f0f0" v:background="#ffffff" x1="0" y1="1" x2="0" y2="0">
			<stop offset="0" style="stop-color:#f0f0f0;stop-opacity:1"/>
			<stop offset="1" style="stop-color:#ffffff;stop-opacity:1"/>
		</linearGradient>
		<linearGradient id="grad30-30" v:fillPattern="30" v:foreground="#adc9e0" v:background="#c3d7e8" x1="0" y1="1" x2="0" y2="0">
			<stop offset="0" style="stop-color:#adc9e0;stop-opacity:1"/>
			<stop offset="1" style="stop-color:#c3d7e8;stop-opacity:1"/>
		</linearGradient>
		<linearGradient id="grad30-36" v:fillPattern="30" v:foreground="#efaf7a" v:background="#f2bf96" x1="0" y1="1" x2="0" y2="0">
			<stop offset="0" style="stop-color:#efaf7a;stop-opacity:1"/>
			<stop offset="1" style="stop-color:#f2bf96;stop-opacity:1"/>
		</linearGradient>
		<linearGradient id="grad30-167" v:fillPattern="30" v:foreground="#a4a4a4" v:background="#b2b2b2" x1="0" y1="1" x2="0"
				y2="0">
			<stop offset="0" style="stop-color:#a4a4a4;stop-opacity:1"/>
			<stop offset="1" style="stop-color:#b2b2b2;stop-opacity:1"/>
		</linearGradient>
	</defs>
	<g v:mID="0" v:index="1" v:groupContext="foregroundPage">
		<v:userDefs>
			<v:ud v:nameU="msvThemeColors" v:val="VT0(36):26"/>
			<v:ud v:nameU="msvThemeEffects" v:val="VT0(16):26"/>
			<v:ud v:nameU="msvThemeOrder" v:val="VT0(0):26"/>
		</v:userDefs>
		<title>Page-1</title>
		<v:pageProperties v:drawingScale="1" v:pageScale="1" v:drawingUnits="0" v:shadowOffsetX="9" v:shadowOffsetY="-9"/>
		<g id="shape1-1" v:mID="1" v:groupContext="shape" transform="translate(220.093,-245.281)">
			<title>Rounded rectangle.21</title>
			<v:userDefs>
				<v:ud v:nameU="visVersion" v:val="VT0(14):26"/>
				<v:ud v:nameU="msvThemeColors" v:val="VT0(36):26"/>
				<v:ud v:nameU="msvThemeEffects" v:val="VT0(16):26"/>
			</v:userDefs>
			<g id="shadow1-2" v:groupContext="shadow" v:shadowOffsetX="1.44" v:shadowOffsetY="-1.44" v:shadowType="1"
					transform="matrix(1,0,0,1,1.44,1.44)" class="st1">
				<path d="M343.12 612 A9.00007 9.00007 -180 0 0 352.13 603 L352.12 372.37 A9.00007 9.00007 -180 0 0 343.12 363.37
							 L9 363.37 A9.00007 9.00007 -180 0 0 -0 372.37 L0 603 A9.00007 9.00007 -180 0 0 9 612 L343.12 612 Z"
						class="st2"/>
			</g>
			<path d="M343.12 612 A9.00007 9.00007 -180 0 0 352.13 603 L352.12 372.37 A9.00007 9.00007 -180 0 0 343.12 363.37 L9 363.37
						 A9.00007 9.00007 -180 0 0 -0 372.37 L0 603 A9.00007 9.00007 -180 0 0 9 612 L343.12 612 Z" class="st3"/>
		</g>
		<g id="shape2-7" v:mID="2" v:groupContext="shape" transform="translate(228.553,-334.156)">
			<title>Rectangle.24</title>
			<v:userDefs>
				<v:ud v:nameU="visVersion" v:val="VT0(14):26"/>
				<v:ud v:nameU="msvThemeColors" v:val="VT0(36):26"/>
				<v:ud v:nameU="msvThemeEffects" v:val="VT0(16):26"/>
			</v:userDefs>
			<g id="shadow2-8" v:groupContext="shadow" v:shadowOffsetX="1.44" v:shadowOffsetY="-1.44" v:shadowType="1"
					transform="matrix(1,0,0,1,1.44,1.44)" class="st1">
				<rect x="0" y="461.25" width="95.04" height="150.75" class="st2"/>
			</g>
			<rect x="0" y="461.25" width="95.04" height="150.75" class="st4"/>
		</g>
		<g id="shape3-13" v:mID="3" v:groupContext="shape" transform="translate(219.289,-215.228)">
			<title>Rectangle.3</title>
			<desc>AllJoyn Core Library</desc>
			<v:userDefs>
				<v:ud v:nameU="visVersion" v:val="VT0(14):26"/>
				<v:ud v:nameU="msvThemeColors" v:val="VT0(36):26"/>
				<v:ud v:nameU="msvThemeEffects" v:val="VT0(16):26"/>
			</v:userDefs>
			<v:textBlock v:margins="rect(4,4,4,4)"/>
			<v:textRect cx="176.062" cy="596.813" width="352.13" height="30.375"/>
			<g id="shadow3-14" v:groupContext="shadow" v:shadowOffsetX="1.44" v:shadowOffsetY="-1.44" v:shadowType="1"
					transform="matrix(1,0,0,1,1.44,1.44)" class="st1">
				<rect x="0" y="581.625" width="352.125" height="30.375" class="st2"/>
			</g>
			<rect x="0" y="581.625" width="352.125" height="30.375" class="st4"/>
			<text x="127.91" y="600.41" class="st5" v:langID="1033"><v:paragraph v:horizAlign="1"/><v:tabList/>AllJoyn Core Library</text>		</g>
		<g id="shape4-19" v:mID="4" v:groupContext="shape" transform="translate(221.86,-499.692)">
			<title>Sheet.4</title>
			<desc>Consumer App</desc>
			<v:userDefs>
				<v:ud v:nameU="msvThemeColors" v:val="VT0(36):26"/>
				<v:ud v:nameU="msvThemeEffects" v:val="VT0(16):26"/>
			</v:userDefs>
			<v:textBlock v:margins="rect(4,4,4,4)"/>
			<v:textRect cx="175.5" cy="608.625" width="351" height="6.75"/>
			<rect x="0" y="605.25" width="351" height="6.75" class="st6"/>
			<text x="133.48" y="612.83" class="st7" v:langID="1033"><v:paragraph v:horizAlign="1"/><v:tabList/>Consumer App</text>		</g>
		<g id="shape5-22" v:mID="5" v:groupContext="shape" transform="translate(224.593,-468.906)">
			<title>Sheet.5</title>
			<desc>Proxy Object 1</desc>
			<v:userDefs>
				<v:ud v:nameU="msvThemeColors" v:val="VT0(36):26"/>
				<v:ud v:nameU="msvThemeEffects" v:val="VT0(16):26"/>
			</v:userDefs>
			<v:textBlock v:margins="rect(4,4,4,4)"/>
			<v:textRect cx="41.625" cy="604" width="83.25" height="16"/>
			<rect x="0" y="596" width="83.25" height="16" class="st6"/>
			<text x="11.35" y="607" class="st8" v:langID="1033"><v:paragraph v:horizAlign="1"/><v:tabList/>Proxy Object 1</text>		</g>
		<g id="shape6-25" v:mID="6" v:groupContext="shape" transform="translate(236.473,-381.406)">
			<title>Rectangle.6</title>
			<v:userDefs>
				<v:ud v:nameU="visVersion" v:val="VT0(14):26"/>
				<v:ud v:nameU="msvThemeColors" v:val="VT0(36):26"/>
				<v:ud v:nameU="msvThemeEffects" v:val="VT0(16):26"/>
			</v:userDefs>
			<g id="shadow6-26" v:groupContext="shadow" v:shadowOffsetX="1.44" v:shadowOffsetY="-1.44" v:shadowType="1"
					transform="matrix(1,0,0,1,1.44,1.44)" class="st1">
				<rect x="0" y="528.75" width="79.2" height="83.25" class="st2"/>
			</g>
			<rect x="0" y="528.75" width="79.2" height="83.25" class="st9"/>
		</g>
		<g id="shape7-31" v:mID="7" v:groupContext="shape" transform="translate(242.872,-390.406)">
			<title>Rounded rectangle.35</title>
			<desc>Methods Signals Properties</desc>
			<v:userDefs>
				<v:ud v:nameU="visVersion" v:val="VT0(14):26"/>
				<v:ud v:nameU="msvThemeColors" v:val="VT0(36):26"/>
				<v:ud v:nameU="msvThemeEffects" v:val="VT0(16):26"/>
			</v:userDefs>
			<v:textBlock v:margins="rect(4,4,4,4)"/>
			<v:textRect cx="33.2004" cy="582.75" width="66.41" height="58.5"/>
			<g id="shadow7-32" v:groupContext="shadow" v:shadowOffsetX="1.44" v:shadowOffsetY="-1.44" v:shadowType="1"
					transform="matrix(1,0,0,1,1.44,1.44)" class="st1">
				<path d="M57.4 612 A9.00007 9.00007 -180 0 0 66.4 603 L66.4 562.5 A9.00007 9.00007 -180 0 0 57.4 553.5 L9 553.5 A9.00007
							 9.00007 -180 0 0 -0 562.5 L0 603 A9.00007 9.00007 -180 0 0 9 612 L57.4 612 Z" class="st2"/>
			</g>
			<path d="M57.4 612 A9.00007 9.00007 -180 0 0 66.4 603 L66.4 562.5 A9.00007 9.00007 -180 0 0 57.4 553.5 L9 553.5 A9.00007
						 9.00007 -180 0 0 -0 562.5 L0 603 A9.00007 9.00007 -180 0 0 9 612 L57.4 612 Z" class="st10"/>
			<text x="8.07" y="563.85" class="st11" v:langID="1033"><v:paragraph/><v:tabList/>Methods<v:newlineChar/><v:newlineChar/><tspan
						x="4" dy="2.4em" class="st12">  </tspan>Signals<v:newlineChar/><v:newlineChar/><tspan x="4" dy="2.4em"
						class="st12">  </tspan>Properties</text>		</g>
		<g id="shape8-40" v:mID="8" v:groupContext="shape" transform="translate(234.732,-448.906)">
			<title>Sheet.8</title>
			<desc>Bus Interface A1</desc>
			<v:userDefs>
				<v:ud v:nameU="msvThemeColors" v:val="VT0(36):26"/>
				<v:ud v:nameU="msvThemeEffects" v:val="VT0(16):26"/>
			</v:userDefs>
			<v:textBlock v:margins="rect(4,4,4,4)"/>
			<v:textRect cx="39.82" cy="604" width="79.65" height="16"/>
			<rect x="0" y="596" width="79.64" height="16" class="st6"/>
			<text x="6.51" y="607" class="st13" v:langID="1033"><v:paragraph v:horizAlign="1"/><v:tabList/>Bus Interface A1</text>		</g>
		<g id="shape9-43" v:mID="9" v:groupContext="shape" transform="translate(235.8,-342.192)">
			<title>Rectangle.37</title>
			<v:userDefs>
				<v:ud v:nameU="visVersion" v:val="VT0(14):26"/>
				<v:ud v:nameU="msvThemeColors" v:val="VT0(36):26"/>
				<v:ud v:nameU="msvThemeEffects" v:val="VT0(16):26"/>
			</v:userDefs>
			<g id="shadow9-44" v:groupContext="shadow" v:shadowOffsetX="1.44" v:shadowOffsetY="-1.44" v:shadowType="1"
					transform="matrix(1,0,0,1,1.44,1.44)" class="st1">
				<rect x="0" y="588.375" width="79.2" height="23.625" class="st2"/>
			</g>
			<rect x="0" y="588.375" width="79.2" height="23.625" class="st9"/>
		</g>
		<g id="shape10-48" v:mID="10" v:groupContext="shape" transform="translate(235.36,-346.005)">
			<title>Sheet.10</title>
			<desc>Bus Interface An</desc>
			<v:userDefs>
				<v:ud v:nameU="msvThemeColors" v:val="VT0(36):26"/>
				<v:ud v:nameU="msvThemeEffects" v:val="VT0(16):26"/>
			</v:userDefs>
			<v:textBlock v:margins="rect(4,4,4,4)"/>
			<v:textRect cx="39.82" cy="604" width="79.65" height="16"/>
			<rect x="0" y="596" width="79.64" height="16" class="st6"/>
			<text x="6.42" y="607" class="st13" v:langID="1033"><v:paragraph v:horizAlign="1"/><v:tabList/>Bus Interface An</text>		</g>
		<g id="shape11-51" v:mID="11" v:groupContext="shape" transform="translate(259.133,-365.656)">
			<title>Sheet.11</title>
			<desc>:</desc>
			<v:userDefs>
				<v:ud v:nameU="msvThemeColors" v:val="VT0(36):26"/>
				<v:ud v:nameU="msvThemeEffects" v:val="VT0(16):26"/>
			</v:userDefs>
			<v:textBlock v:margins="rect(4,4,4,4)"/>
			<v:textRect cx="16.94" cy="605.125" width="33.88" height="13.75"/>
			<rect x="0" y="598.25" width="33.88" height="13.75" class="st6"/>
			<text x="15.33" y="608.73" class="st5" v:langID="1033"><v:paragraph v:horizAlign="1"/><v:tabList/>:</text>		</g>
		<g id="shape12-54" v:mID="12" v:groupContext="shape" transform="translate(321.664,-389.121)">
			<title>Sheet.12</title>
			<desc>...</desc>
			<v:userDefs>
				<v:ud v:nameU="msvThemeColors" v:val="VT0(36):26"/>
				<v:ud v:nameU="msvThemeEffects" v:val="VT0(16):26"/>
			</v:userDefs>
			<v:textBlock v:margins="rect(4,4,4,4)"/>
			<v:textRect cx="12.6786" cy="604" width="25.36" height="16"/>
			<rect x="0" y="596" width="25.3571" height="16" class="st6"/>
			<text x="7.87" y="607.6" class="st14" v:langID="1033"><v:paragraph v:horizAlign="1"/><v:tabList/>...</text>		</g>
		<g id="shape13-57" v:mID="13" v:groupContext="shape" transform="translate(229.575,-257.335)">
			<title>Rectangle.41</title>
			<v:userDefs>
				<v:ud v:nameU="visVersion" v:val="VT0(14):26"/>
				<v:ud v:nameU="msvThemeColors" v:val="VT0(36):26"/>
				<v:ud v:nameU="msvThemeEffects" v:val="VT0(16):26"/>
			</v:userDefs>
			<g id="shadow13-58" v:groupContext="shadow" v:shadowOffsetX="1.44" v:shadowOffsetY="-1.44" v:shadowType="1"
					transform="matrix(1,0,0,1,1.44,1.44)" class="st1">
				<rect x="0" y="550.125" width="211.5" height="61.875" class="st2"/>
			</g>
			<rect x="0" y="550.125" width="211.5" height="61.875" class="st4"/>
		</g>
		<g id="shape14-62" v:mID="14" v:groupContext="shape" transform="translate(236.003,-268.585)">
			<title>Ellipse.42</title>
			<desc>Session 1 Session Port Session Id</desc>
			<v:userDefs>
				<v:ud v:nameU="visVersion" v:val="VT0(14):26"/>
				<v:ud v:nameU="msvThemeColors" v:val="VT0(36):26"/>
				<v:ud v:nameU="msvThemeEffects" v:val="VT0(16):26"/>
			</v:userDefs>
			<v:textBlock v:margins="rect(4,4,4,4)"/>
			<v:textRect cx="39.375" cy="588.643" width="68.91" height="40.875"/>
			<g id="shadow14-63" v:groupContext="shadow" v:shadowOffsetX="1.44" v:shadowOffsetY="-1.44" v:shadowType="1"
					transform="matrix(1,0,0,1,1.44,1.44)" class="st1">
				<path d="M0 588.64 A39.375 23.3571 0 1 1 78.75 588.64 A39.375 23.3571 0 1 1 0 588.64 Z" class="st2"/>
			</g>
			<path d="M0 588.64 A39.375 23.3571 0 1 1 78.75 588.64 A39.375 23.3571 0 1 1 0 588.64 Z" class="st4"/>
			<text x="20.24" y="573.64" class="st8" v:langID="1033"><v:paragraph v:horizAlign="1"/><v:tabList/><tspan class="st15">Session </tspan><tspan
						class="st15">1<v:newlineChar/><v:newlineChar/></tspan><tspan x="14.5" dy="2.4em" class="st16">Session Port<v:newlineChar/></tspan><tspan
						x="19.25" dy="1.2em" class="st16">Session Id</tspan></text>		</g>
		<g id="shape15-72" v:mID="15" v:groupContext="shape" transform="translate(353.003,-268.585)">
			<title>Ellipse.43</title>
			<desc>Session N Session Port Session Id</desc>
			<v:userDefs>
				<v:ud v:nameU="visVersion" v:val="VT0(14):26"/>
				<v:ud v:nameU="msvThemeColors" v:val="VT0(36):26"/>
				<v:ud v:nameU="msvThemeEffects" v:val="VT0(16):26"/>
			</v:userDefs>
			<v:textBlock v:margins="rect(4,4,4,4)"/>
			<v:textRect cx="39.375" cy="588.643" width="68.91" height="40.875"/>
			<g id="shadow15-73" v:groupContext="shadow" v:shadowOffsetX="1.44" v:shadowOffsetY="-1.44" v:shadowType="1"
					transform="matrix(1,0,0,1,1.44,1.44)" class="st1">
				<path d="M0 588.64 A39.375 23.3571 0 1 1 78.75 588.64 A39.375 23.3571 0 1 1 0 588.64 Z" class="st2"/>
			</g>
			<path d="M0 588.64 A39.375 23.3571 0 1 1 78.75 588.64 A39.375 23.3571 0 1 1 0 588.64 Z" class="st4"/>
			<text x="19.48" y="573.64" class="st8" v:langID="1033"><v:paragraph v:horizAlign="1"/><v:tabList/><tspan class="st15">Session N</tspan><v:newlineChar/><v:newlineChar/><tspan
						x="14.5" dy="2.4em" class="st16">Session Port<v:newlineChar/></tspan><tspan x="19.25" dy="1.2em"
						class="st16">Session Id</tspan></text>		</g>
		<g id="shape16-81" v:mID="16" v:groupContext="shape" transform="translate(320.218,-284.014)">
			<title>Sheet.16</title>
			<desc>...</desc>
			<v:userDefs>
				<v:ud v:nameU="msvThemeColors" v:val="VT0(36):26"/>
				<v:ud v:nameU="msvThemeEffects" v:val="VT0(16):26"/>
			</v:userDefs>
			<v:textBlock v:margins="rect(4,4,4,4)"/>
			<v:textRect cx="12.6786" cy="604" width="25.36" height="16"/>
			<rect x="0" y="596" width="25.3571" height="16" class="st6"/>
			<text x="7.87" y="607.6" class="st14" v:langID="1033"><v:paragraph v:horizAlign="1"/><v:tabList/>...</text>		</g>
		<g id="shape17-84" v:mID="17" v:groupContext="shape" transform="translate(291.128,-257.656)">
			<title>Sheet.17</title>
			<desc>Joined Sessions</desc>
			<v:userDefs>
				<v:ud v:nameU="msvThemeColors" v:val="VT0(36):26"/>
				<v:ud v:nameU="msvThemeEffects" v:val="VT0(16):26"/>
			</v:userDefs>
			<v:textBlock v:margins="rect(4,4,4,4)"/>
			<v:textRect cx="45.25" cy="604" width="90.5" height="16"/>
			<rect x="0" y="596" width="90.5" height="16" class="st6"/>
			<text x="13.2" y="607" class="st8" v:langID="1033"><v:paragraph v:horizAlign="1"/><v:tabList/>Joined Sessions</text>		</g>
		<g id="shape18-87" v:mID="18" v:groupContext="shape" transform="translate(1007.35,399.508) rotate(90.2561)">
			<title>Sheet.18</title>
			<v:userDefs>
				<v:ud v:nameU="msvThemeColors" v:val="VT0(36):26"/>
				<v:ud v:nameU="msvThemeEffects" v:val="VT0(16):26"/>
			</v:userDefs>
			<g id="shadow18-88" v:groupContext="shadow" v:shadowOffsetX="1.44" v:shadowOffsetY="-1.44" v:shadowType="1"
					transform="matrix(1,-4.23516E-022,-1.25784E-019,1,1.43355,-1.44642)" class="st1">
				<path d="M0 612 L33.43 612" class="st17"/>
			</g>
			<path d="M0 612 L33.43 612" class="st18"/>
		</g>
		<g id="shape19-94" v:mID="19" v:groupContext="shape" transform="translate(219.14,-103.049)">
			<title>Rectangle.47</title>
			<v:userDefs>
				<v:ud v:nameU="visVersion" v:val="VT0(14):26"/>
				<v:ud v:nameU="msvThemeColors" v:val="VT0(36):26"/>
				<v:ud v:nameU="msvThemeEffects" v:val="VT0(16):26"/>
			</v:userDefs>
			<g id="shadow19-95" v:groupContext="shadow" v:shadowOffsetX="1.44" v:shadowOffsetY="-1.44" v:shadowType="1"
					transform="matrix(1,0,0,1,1.44,1.44)" class="st1">
				<rect x="0" y="533.25" width="352.125" height="78.75" class="st2"/>
			</g>
			<rect x="0" y="533.25" width="352.125" height="78.75" class="st10"/>
		</g>
		<g id="shape20-99" v:mID="20" v:groupContext="shape" transform="translate(397.843,-192.728)">
			<title>Sheet.20</title>
			<desc>Unique Name</desc>
			<v:userDefs>
				<v:ud v:nameU="msvThemeColors" v:val="VT0(36):26"/>
				<v:ud v:nameU="msvThemeEffects" v:val="VT0(16):26"/>
			</v:userDefs>
			<v:textBlock v:margins="rect(4,4,4,4)"/>
			<v:textRect cx="40.75" cy="604" width="81.5" height="16"/>
			<rect x="0" y="596" width="81.5" height="16" class="st6"/>
			<text x="4" y="607" class="st13" v:langID="1033"><v:paragraph/><v:tabList/>Unique Name</text>		</g>
		<g id="shape21-102" v:mID="21" v:groupContext="shape" transform="translate(344.91,-334.156)">
			<title>Rectangle.49</title>
			<v:userDefs>
				<v:ud v:nameU="visVersion" v:val="VT0(14):26"/>
				<v:ud v:nameU="msvThemeColors" v:val="VT0(36):26"/>
				<v:ud v:nameU="msvThemeEffects" v:val="VT0(16):26"/>
			</v:userDefs>
			<g id="shadow21-103" v:groupContext="shadow" v:shadowOffsetX="1.44" v:shadowOffsetY="-1.44" v:shadowType="1"
					transform="matrix(1,0,0,1,1.44,1.44)" class="st1">
				<rect x="0" y="461.25" width="95.04" height="150.75" class="st2"/>
			</g>
			<rect x="0" y="461.25" width="95.04" height="150.75" class="st4"/>
		</g>
		<g id="shape22-107" v:mID="22" v:groupContext="shape" transform="translate(340.95,-468.906)">
			<title>Sheet.22</title>
			<desc>Proxy Object N</desc>
			<v:userDefs>
				<v:ud v:nameU="msvThemeColors" v:val="VT0(36):26"/>
				<v:ud v:nameU="msvThemeEffects" v:val="VT0(16):26"/>
			</v:userDefs>
			<v:textBlock v:margins="rect(4,4,4,4)"/>
			<v:textRect cx="41.9464" cy="604" width="83.9" height="16"/>
			<rect x="0" y="596" width="83.8929" height="16" class="st6"/>
			<text x="10.92" y="607" class="st8" v:langID="1033"><v:paragraph v:horizAlign="1"/><v:tabList/>Proxy Object N</text>		</g>
		<g id="shape23-110" v:mID="23" v:groupContext="shape" transform="translate(352.83,-381.406)">
			<title>Rectangle.51</title>
			<v:userDefs>
				<v:ud v:nameU="visVersion" v:val="VT0(14):26"/>
				<v:ud v:nameU="msvThemeColors" v:val="VT0(36):26"/>
				<v:ud v:nameU="msvThemeEffects" v:val="VT0(16):26"/>
			</v:userDefs>
			<g id="shadow23-111" v:groupContext="shadow" v:shadowOffsetX="1.44" v:shadowOffsetY="-1.44" v:shadowType="1"
					transform="matrix(1,0,0,1,1.44,1.44)" class="st1">
				<rect x="0" y="528.75" width="79.2" height="83.25" class="st2"/>
			</g>
			<rect x="0" y="528.75" width="79.2" height="83.25" class="st9"/>
		</g>
		<g id="shape24-115" v:mID="24" v:groupContext="shape" transform="translate(359.229,-390.406)">
			<title>Rounded rectangle.52</title>
			<desc>Methods Signals Properties</desc>
			<v:userDefs>
				<v:ud v:nameU="visVersion" v:val="VT0(14):26"/>
				<v:ud v:nameU="msvThemeColors" v:val="VT0(36):26"/>
				<v:ud v:nameU="msvThemeEffects" v:val="VT0(16):26"/>
			</v:userDefs>
			<v:textBlock v:margins="rect(4,4,4,4)"/>
			<v:textRect cx="33.2004" cy="582.75" width="66.41" height="58.5"/>
			<g id="shadow24-116" v:groupContext="shadow" v:shadowOffsetX="1.44" v:shadowOffsetY="-1.44" v:shadowType="1"
					transform="matrix(1,0,0,1,1.44,1.44)" class="st1">
				<path d="M57.4 612 A9.00007 9.00007 -180 0 0 66.4 603 L66.4 562.5 A9.00007 9.00007 -180 0 0 57.4 553.5 L9 553.5 A9.00007
							 9.00007 -180 0 0 -0 562.5 L0 603 A9.00007 9.00007 -180 0 0 9 612 L57.4 612 Z" class="st2"/>
			</g>
			<path d="M57.4 612 A9.00007 9.00007 -180 0 0 66.4 603 L66.4 562.5 A9.00007 9.00007 -180 0 0 57.4 553.5 L9 553.5 A9.00007
						 9.00007 -180 0 0 -0 562.5 L0 603 A9.00007 9.00007 -180 0 0 9 612 L57.4 612 Z" class="st10"/>
			<text x="8.07" y="563.85" class="st11" v:langID="1033"><v:paragraph/><v:tabList/>Methods<v:newlineChar/><v:newlineChar/><tspan
						x="4" dy="2.4em" class="st12">  </tspan>Signals<v:newlineChar/><v:newlineChar/><tspan x="4" dy="2.4em"
						class="st12">  </tspan>Properties</text>		</g>
		<g id="shape25-123" v:mID="25" v:groupContext="shape" transform="translate(351.089,-448.906)">
			<title>Sheet.25</title>
			<desc>Bus Interface B1</desc>
			<v:userDefs>
				<v:ud v:nameU="msvThemeColors" v:val="VT0(36):26"/>
				<v:ud v:nameU="msvThemeEffects" v:val="VT0(16):26"/>
			</v:userDefs>
			<v:textBlock v:margins="rect(4,4,4,4)"/>
			<v:textRect cx="39.82" cy="604" width="79.65" height="16"/>
			<rect x="0" y="596" width="79.64" height="16" class="st6"/>
			<text x="6.69" y="607" class="st13" v:langID="1033"><v:paragraph v:horizAlign="1"/><v:tabList/>Bus Interface B1</text>		</g>
		<g id="shape26-126" v:mID="26" v:groupContext="shape" transform="translate(352.158,-342.192)">
			<title>Rectangle.54</title>
			<v:userDefs>
				<v:ud v:nameU="visVersion" v:val="VT0(14):26"/>
				<v:ud v:nameU="msvThemeColors" v:val="VT0(36):26"/>
				<v:ud v:nameU="msvThemeEffects" v:val="VT0(16):26"/>
			</v:userDefs>
			<g id="shadow26-127" v:groupContext="shadow" v:shadowOffsetX="1.44" v:shadowOffsetY="-1.44" v:shadowType="1"
					transform="matrix(1,0,0,1,1.44,1.44)" class="st1">
				<rect x="0" y="588.375" width="79.2" height="23.625" class="st2"/>
			</g>
			<rect x="0" y="588.375" width="79.2" height="23.625" class="st9"/>
		</g>
		<g id="shape27-131" v:mID="27" v:groupContext="shape" transform="translate(351.718,-346.005)">
			<title>Sheet.27</title>
			<desc>Bus Interface Bn</desc>
			<v:userDefs>
				<v:ud v:nameU="msvThemeColors" v:val="VT0(36):26"/>
				<v:ud v:nameU="msvThemeEffects" v:val="VT0(16):26"/>
			</v:userDefs>
			<v:textBlock v:margins="rect(4,4,4,4)"/>
			<v:textRect cx="39.82" cy="604" width="79.65" height="16"/>
			<rect x="0" y="596" width="79.64" height="16" class="st6"/>
			<text x="6.59" y="607" class="st13" v:langID="1033"><v:paragraph v:horizAlign="1"/><v:tabList/>Bus Interface Bn</text>		</g>
		<g id="shape28-134" v:mID="28" v:groupContext="shape" transform="translate(375.49,-366.781)">
			<title>Sheet.28</title>
			<desc>:</desc>
			<v:userDefs>
				<v:ud v:nameU="msvThemeColors" v:val="VT0(36):26"/>
				<v:ud v:nameU="msvThemeEffects" v:val="VT0(16):26"/>
			</v:userDefs>
			<v:textBlock v:margins="rect(4,4,4,4)"/>
			<v:textRect cx="16.94" cy="605.688" width="33.88" height="12.625"/>
			<rect x="0" y="599.375" width="33.88" height="12.625" class="st6"/>
			<text x="15.33" y="609.29" class="st5" v:langID="1033"><v:paragraph v:horizAlign="1"/><v:tabList/>:</text>		</g>
		<g id="shape29-137" v:mID="29" v:groupContext="shape" transform="translate(459.178,-430.906)">
			<title>Rectangle.29</title>
			<desc>Signal Handler 1</desc>
			<v:userDefs>
				<v:ud v:nameU="visVersion" v:val="VT0(14):26"/>
				<v:ud v:nameU="msvThemeColors" v:val="VT0(36):26"/>
				<v:ud v:nameU="msvThemeEffects" v:val="VT0(16):26"/>
			</v:userDefs>
			<v:textBlock v:margins="rect(4,4,4,4)"/>
			<v:textRect cx="47.52" cy="585" width="95.04" height="54"/>
			<g id="shadow29-138" v:groupContext="shadow" v:shadowOffsetX="1.44" v:shadowOffsetY="-1.44" v:shadowType="1"
					transform="matrix(1,0,0,1,1.44,1.44)" class="st1">
				<rect x="0" y="558" width="95.04" height="54" class="st2"/>
			</g>
			<rect x="0" y="558" width="95.04" height="54" class="st4"/>
			<text x="13.87" y="588.6" class="st8" v:langID="1033"><v:paragraph v:horizAlign="1"/><v:tabList/>Signal Handler 1</text>		</g>
		<g id="shape30-143" v:mID="30" v:groupContext="shape" transform="translate(459.178,-334.156)">
			<title>Rectangle.31</title>
			<desc>Signal Handler N</desc>
			<v:userDefs>
				<v:ud v:nameU="visVersion" v:val="VT0(14):26"/>
				<v:ud v:nameU="msvThemeColors" v:val="VT0(36):26"/>
				<v:ud v:nameU="msvThemeEffects" v:val="VT0(16):26"/>
			</v:userDefs>
			<v:textBlock v:margins="rect(4,4,4,4)"/>
			<v:textRect cx="47.52" cy="583.875" width="95.04" height="56.25"/>
			<g id="shadow30-144" v:groupContext="shadow" v:shadowOffsetX="1.44" v:shadowOffsetY="-1.44" v:shadowType="1"
					transform="matrix(1,0,0,1,1.44,1.44)" class="st1">
				<rect x="0" y="555.75" width="95.04" height="56.25" class="st2"/>
			</g>
			<rect x="0" y="555.75" width="95.04" height="56.25" class="st4"/>
			<text x="13.11" y="587.48" class="st8" v:langID="1033"><v:paragraph v:horizAlign="1"/><v:tabList/>Signal Handler N</text>		</g>
		<g id="shape31-149" v:mID="31" v:groupContext="shape" transform="translate(489.289,-397.478)">
			<title>Sheet.31</title>
			<desc>: :</desc>
			<v:userDefs>
				<v:ud v:nameU="msvThemeColors" v:val="VT0(36):26"/>
				<v:ud v:nameU="msvThemeEffects" v:val="VT0(16):26"/>
			</v:userDefs>
			<v:textBlock v:margins="rect(4,4,4,4)"/>
			<v:textRect cx="16.94" cy="596.25" width="33.88" height="31.5"/>
			<rect x="0" y="580.5" width="33.88" height="31.5" class="st6"/>
			<text x="15.33" y="592.65" class="st5" v:langID="1033"><v:paragraph v:horizAlign="1"/><v:tabList/>:<v:newlineChar/><tspan
						x="15.33" dy="1.2em" class="st12">:</tspan></text>		</g>
		<g id="shape32-153" v:mID="32" v:groupContext="shape" transform="translate(492.343,-107.871)">
			<title>Rectangle.21</title>
			<v:userDefs>
				<v:ud v:nameU="visVersion" v:val="VT0(14):26"/>
				<v:ud v:nameU="msvThemeColors" v:val="VT0(36):26"/>
				<v:ud v:nameU="msvThemeEffects" v:val="VT0(16):26"/>
			</v:userDefs>
			<g id="shadow32-154" v:groupContext="shadow" v:shadowOffsetX="1.44" v:shadowOffsetY="-1.44" v:shadowType="1"
					transform="matrix(1,0,0,1,1.44,1.44)" class="st1">
				<rect x="0" y="542.25" width="72" height="69.75" class="st2"/>
			</g>
			<rect x="0" y="542.25" width="72" height="69.75" class="st4"/>
		</g>
		<g id="shape33-158" v:mID="33" v:groupContext="shape" transform="translate(492.343,-164.335)">
			<title>Sheet.33</title>
			<desc>Session State</desc>
			<v:userDefs>
				<v:ud v:nameU="msvThemeColors" v:val="VT0(36):26"/>
				<v:ud v:nameU="msvThemeEffects" v:val="VT0(16):26"/>
			</v:userDefs>
			<v:textBlock v:margins="rect(4,4,4,4)"/>
			<v:textRect cx="35.2301" cy="606.095" width="70.47" height="11.8095"/>
			<rect x="0" y="600.19" width="70.4601" height="11.8095" class="st6"/>
			<text x="10.56" y="608.8" class="st11" v:langID="1033"><v:paragraph v:horizAlign="1"/><v:tabList/><tspan class="st15">Session State</tspan></text>		</g>
		<g id="shape34-162" v:mID="34" v:groupContext="shape" transform="translate(496.343,-142.746)">
			<title>Rectangle.34</title>
			<desc>Session 1 Info</desc>
			<v:userDefs>
				<v:ud v:nameU="visVersion" v:val="VT0(14):26"/>
				<v:ud v:nameU="msvThemeColors" v:val="VT0(36):26"/>
				<v:ud v:nameU="msvThemeEffects" v:val="VT0(16):26"/>
			</v:userDefs>
			<v:textBlock v:margins="rect(4,4,4,4)"/>
			<v:textRect cx="32" cy="603.696" width="64.01" height="16.6071"/>
			<g id="shadow34-163" v:groupContext="shadow" v:shadowOffsetX="1.44" v:shadowOffsetY="-1.44" v:shadowType="1"
					transform="matrix(1,0,0,1,1.44,1.44)" class="st1">
				<rect x="0" y="595.393" width="64" height="16.6071" class="st2"/>
			</g>
			<rect x="0" y="595.393" width="64" height="16.6071" class="st19"/>
			<text x="6.84" y="606.4" class="st20" v:langID="1033"><v:paragraph v:horizAlign="1"/><v:tabList/>Session 1 Info</text>		</g>
		<g id="shape35-169" v:mID="35" v:groupContext="shape" transform="translate(496.343,-111.192)">
			<title>Rectangle.32</title>
			<desc>Session N Info</desc>
			<v:userDefs>
				<v:ud v:nameU="visVersion" v:val="VT0(14):26"/>
				<v:ud v:nameU="msvThemeColors" v:val="VT0(36):26"/>
				<v:ud v:nameU="msvThemeEffects" v:val="VT0(16):26"/>
			</v:userDefs>
			<v:textBlock v:margins="rect(4,4,4,4)"/>
			<v:textRect cx="32" cy="603.696" width="64.01" height="16.6071"/>
			<g id="shadow35-170" v:groupContext="shadow" v:shadowOffsetX="1.44" v:shadowOffsetY="-1.44" v:shadowType="1"
					transform="matrix(1,0,0,1,1.44,1.44)" class="st1">
				<rect x="0" y="595.393" width="64" height="16.6071" class="st2"/>
			</g>
			<rect x="0" y="595.393" width="64" height="16.6071" class="st19"/>
			<text x="6.22" y="606.4" class="st20" v:langID="1033"><v:paragraph v:horizAlign="1"/><v:tabList/>Session N Info</text>		</g>
		<g id="shape36-175" v:mID="36" v:groupContext="shape" transform="translate(511.654,-131.121)">
			<title>Sheet.36</title>
			<desc>:</desc>
			<v:userDefs>
				<v:ud v:nameU="msvThemeColors" v:val="VT0(36):26"/>
				<v:ud v:nameU="msvThemeEffects" v:val="VT0(16):26"/>
			</v:userDefs>
			<v:textBlock v:margins="rect(4,4,4,4)"/>
			<v:textRect cx="16.689" cy="607.756" width="33.38" height="8.4881"/>
			<rect x="0" y="603.512" width="33.3781" height="8.4881" class="st6"/>
			<text x="15.35" y="610.76" class="st13" v:langID="1033"><v:paragraph v:horizAlign="1"/><v:tabList/>:</text>		</g>
		<g id="shape37-178" v:mID="37" v:groupContext="shape" transform="translate(297.768,-134.228)">
			<title>Sheet.37</title>
			<desc>AllJoyn Router</desc>
			<v:userDefs>
				<v:ud v:nameU="msvThemeColors" v:val="VT0(36):26"/>
				<v:ud v:nameU="msvThemeEffects" v:val="VT0(16):26"/>
			</v:userDefs>
			<v:textBlock v:margins="rect(4,4,4,4)"/>
			<v:textRect cx="46.9357" cy="601.25" width="93.88" height="21.5"/>
			<rect x="0" y="590.5" width="93.8713" height="21.5" class="st6"/>
			<text x="5.88" y="605.45" class="st7" v:langID="1033"><v:paragraph v:horizAlign="1"/><v:tabList/>AllJoyn Router</text>		</g>
	</g>
</svg>
