<?xml version="1.0" encoding="UTF-8" standalone="no"?>
<!DOCTYPE svg PUBLIC "-//W3C//DTD SVG 1.0//EN" "http://www.w3.org/TR/2001/REC-SVG-20010904/DTD/svg10.dtd">
<!-- Generated by Microsoft Visio 11.0, SVG Export, v1.0 Drawing280.svg Page-1 -->
<svg xmlns="http://www.w3.org/2000/svg" xmlns:xlink="http://www.w3.org/1999/xlink" xmlns:ev="http://www.w3.org/2001/xml-events"
		xmlns:v="http://schemas.microsoft.com/visio/2003/SVGExtensions/" width="11in" height="8.5in" viewBox="0 0 792 612"
		xml:space="preserve" color-interpolation-filters="sRGB" class="st19">
	<v:documentProperties v:langID="1033" v:viewMarkup="false">
		<v:userDefs>
			<v:ud v:nameU="msvNoAutoConnect" v:val="VT0(0):26"/>
		</v:userDefs>
	</v:documentProperties>

	<style type="text/css">
	<![CDATA[
		.st1 {visibility:visible}
		.st2 {fill:#cdcdcd;fill-opacity:0.5;stroke:#cdcdcd;stroke-linecap:round;stroke-linejoin:round;stroke-opacity:0.5;stroke-width:0.25}
		.st3 {fill:url(#grad30-6);stroke:#404040;stroke-linecap:round;stroke-linejoin:round;stroke-width:0.25}
		.st4 {fill:url(#grad30-12);stroke:#404040;stroke-linecap:round;stroke-linejoin:round;stroke-width:0.25}
		.st5 {fill:url(#grad30-18);stroke:#404040;stroke-linecap:round;stroke-linejoin:round;stroke-width:0.25}
		.st6 {fill:#000000;font-family:Calibri;font-size:0.833336em}
		.st7 {fill:url(#grad30-25);stroke:#404040;stroke-linecap:round;stroke-linejoin:round;stroke-width:0.25}
		.st8 {fill:#000000;font-family:Calibri;font-size:1.00001em}
		.st9 {stroke:#cdcdcd;stroke-linecap:round;stroke-linejoin:round;stroke-opacity:0.5;stroke-width:0.25}
		.st10 {stroke:#404040;stroke-linecap:round;stroke-linejoin:round;stroke-width:0.25}
		.st11 {fill:none;stroke:none;stroke-linecap:round;stroke-linejoin:round;stroke-width:0.25}
		.st12 {fill:#000000;font-family:Calibri;font-size:1.00001em;font-weight:bold}
		.st13 {fill:#000000;font-family:Calibri;font-size:0.75em}
		.st14 {font-size:1em}
		.st15 {marker-end:url(#mrkr13-146);stroke:#404040;stroke-linecap:round;stroke-linejoin:round;stroke-width:1}
		.st16 {fill:#404040;fill-opacity:1;stroke:#404040;stroke-opacity:1;stroke-width:0.28409090909091}
		.st17 {marker-start:url(#mrkr13-165);stroke:#404040;stroke-linecap:round;stroke-linejoin:round;stroke-width:1}
		.st18 {marker-end:url(#mrkr13-175);stroke:#404040;stroke-linecap:round;stroke-linejoin:round;stroke-width:1}
		.st19 {fill:none;fill-rule:evenodd;font-size:12px;overflow:visible;stroke-linecap:square;stroke-miterlimit:3}
	]]>
	</style>

	<defs id="Patterns_And_Gradients">
		<linearGradient id="grad30-6" v:fillPattern="30" v:foreground="#c9c9c9" v:background="#d8d8d8" x1="0" y1="1" x2="0" y2="0">
			<stop offset="0" style="stop-color:#c9c9c9;stop-opacity:1"/>
			<stop offset="1" style="stop-color:#d8d8d8;stop-opacity:1"/>
		</linearGradient>
		<linearGradient id="grad30-12" v:fillPattern="30" v:foreground="#e3e3e3" v:background="#f2f2f2" x1="0" y1="1" x2="0" y2="0">
			<stop offset="0" style="stop-color:#e3e3e3;stop-opacity:1"/>
			<stop offset="1" style="stop-color:#f2f2f2;stop-opacity:1"/>
		</linearGradient>
		<linearGradient id="grad30-18" v:fillPattern="30" v:foreground="#f0f0f0" v:background="#ffffff" x1="0" y1="1" x2="0" y2="0">
			<stop offset="0" style="stop-color:#f0f0f0;stop-opacity:1"/>
			<stop offset="1" style="stop-color:#ffffff;stop-opacity:1"/>
		</linearGradient>
		<linearGradient id="grad30-25" v:fillPattern="30" v:foreground="#f2c59f" v:background="#f6d5b9" x1="0" y1="1" x2="0" y2="0">
			<stop offset="0" style="stop-color:#f2c59f;stop-opacity:1"/>
			<stop offset="1" style="stop-color:#f6d5b9;stop-opacity:1"/>
		</linearGradient>
	</defs>
	<defs id="Markers">
		<g id="lend13">
			<path d="M 3 1 L 0 0 L 3 -1 L 3 1 " style="stroke:none"/>
		</g>
		<marker id="mrkr13-146" class="st16" v:arrowType="13" v:arrowSize="2" v:setback="10.2" refX="-10.2" orient="auto"
				markerUnits="strokeWidth" overflow="visible">
			<use xlink:href="#lend13" transform="scale(-3.52,-3.52) "/>
		</marker>
		<marker id="mrkr13-165" class="st16" v:arrowType="13" v:arrowSize="2" v:setback="10.2" refX="10.2" orient="auto"
				markerUnits="strokeWidth" overflow="visible">
			<use xlink:href="#lend13" transform="scale(3.52) "/>
		</marker>
		<marker id="mrkr13-175" class="st16" v:arrowType="13" v:arrowSize="2" v:setback="10.56" refX="-10.56" orient="auto"
				markerUnits="strokeWidth" overflow="visible">
			<use xlink:href="#lend13" transform="scale(-3.52,-3.52) "/>
		</marker>
	</defs>
	<g v:mID="0" v:index="1" v:groupContext="foregroundPage">
		<v:userDefs>
			<v:ud v:nameU="msvThemeColors" v:val="VT0(36):26"/>
			<v:ud v:nameU="msvThemeEffects" v:val="VT0(16):26"/>
			<v:ud v:nameU="msvThemeOrder" v:val="VT0(0):26"/>
		</v:userDefs>
		<title>Page-1</title>
		<v:pageProperties v:drawingScale="1" v:pageScale="1" v:drawingUnits="0" v:shadowOffsetX="9" v:shadowOffsetY="-9"/>
		<v:layer v:name="Connector" v:index="0"/>
		<g id="shape1-1" v:mID="1" v:groupContext="shape" transform="translate(166.791,-351.593)">
			<title>Rectangle.24</title>
			<v:userDefs>
				<v:ud v:nameU="visVersion" v:val="VT0(14):26"/>
				<v:ud v:nameU="msvThemeColors" v:val="VT0(36):26"/>
				<v:ud v:nameU="msvThemeEffects" v:val="VT0(16):26"/>
			</v:userDefs>
			<g id="shadow1-2" v:groupContext="shadow" v:shadowOffsetX="1.44" v:shadowOffsetY="-1.44" v:shadowType="1"
					transform="matrix(1,0,0,1,1.44,1.44)" class="st1">
				<rect x="0" y="467.432" width="132.542" height="144.568" class="st2"/>
			</g>
			<rect x="0" y="467.432" width="132.542" height="144.568" class="st3"/>
		</g>
		<g id="shape2-7" v:mID="2" v:groupContext="shape" transform="translate(184.003,-366.218)">
			<title>Rectangle.28</title>
			<v:userDefs>
				<v:ud v:nameU="visVersion" v:val="VT0(14):26"/>
				<v:ud v:nameU="msvThemeColors" v:val="VT0(36):26"/>
				<v:ud v:nameU="msvThemeEffects" v:val="VT0(16):26"/>
			</v:userDefs>
			<g id="shadow2-8" v:groupContext="shadow" v:shadowOffsetX="1.44" v:shadowOffsetY="-1.44" v:shadowType="1"
					transform="matrix(1,0,0,1,1.44,1.44)" class="st1">
				<rect x="0" y="491.439" width="98.8548" height="120.561" class="st2"/>
			</g>
			<rect x="0" y="491.439" width="98.8548" height="120.561" class="st4"/>
		</g>
		<g id="shape3-13" v:mID="3" v:groupContext="shape" transform="translate(192.241,-445.485)">
			<title>Rounded rectangle.3</title>
			<desc>App</desc>
			<v:userDefs>
				<v:ud v:nameU="visVersion" v:val="VT0(14):26"/>
				<v:ud v:nameU="msvThemeColors" v:val="VT0(36):26"/>
				<v:ud v:nameU="msvThemeEffects" v:val="VT0(16):26"/>
			</v:userDefs>
			<v:textBlock v:margins="rect(4,4,4,4)"/>
			<v:textRect cx="41.1895" cy="594.9" width="82.38" height="34.2003"/>
			<g id="shadow3-14" v:groupContext="shadow" v:shadowOffsetX="1.44" v:shadowOffsetY="-1.44" v:shadowType="1"
					transform="matrix(1,0,0,1,1.44,1.44)" class="st1">
				<path d="M73.38 612 A9.00007 9.00007 -180 0 0 82.38 603 L82.38 586.8 A9.00007 9.00007 -180 0 0 73.38 577.8 L9 577.8
							 A9.00007 9.00007 -180 0 0 -0 586.8 L0 603 A9.00007 9.00007 -180 0 0 9 612 L73.38 612 Z" class="st2"/>
			</g>
			<path d="M73.38 612 A9.00007 9.00007 -180 0 0 82.38 603 L82.38 586.8 A9.00007 9.00007 -180 0 0 73.38 577.8 L9 577.8 A9.00007
						 9.00007 -180 0 0 -0 586.8 L0 603 A9.00007 9.00007 -180 0 0 9 612 L73.38 612 Z" class="st5"/>
			<text x="33.04" y="597.9" class="st6" v:langID="1033"><v:paragraph v:horizAlign="1"/><v:tabList/>App</text>		</g>
		<g id="shape4-20" v:mID="4" v:groupContext="shape" transform="translate(193.262,-375.218)">
			<title>Rounded rectangle.26</title>
			<desc>AllJoyn Router</desc>
			<v:userDefs>
				<v:ud v:nameU="visVersion" v:val="VT0(14):26"/>
				<v:ud v:nameU="msvThemeColors" v:val="VT0(36):26"/>
				<v:ud v:nameU="msvThemeEffects" v:val="VT0(16):26"/>
			</v:userDefs>
			<v:textBlock v:margins="rect(4,4,4,4)"/>
			<v:textRect cx="41.1895" cy="595.634" width="82.38" height="32.7313"/>
			<g id="shadow4-21" v:groupContext="shadow" v:shadowOffsetX="1.44" v:shadowOffsetY="-1.44" v:shadowType="1"
					transform="matrix(1,0,0,1,1.44,1.44)" class="st1">
				<path d="M73.38 612 A9.00007 9.00007 -180 0 0 82.38 603 L82.38 588.27 A9.00007 9.00007 -180 0 0 73.38 579.27 L9 579.27
							 A9.00007 9.00007 -180 0 0 -0 588.27 L0 603 A9.00007 9.00007 -180 0 0 9 612 L73.38 612 Z" class="st2"/>
			</g>
			<path d="M73.38 612 A9.00007 9.00007 -180 0 0 82.38 603 L82.38 588.27 A9.00007 9.00007 -180 0 0 73.38 579.27 L9 579.27
						 A9.00007 9.00007 -180 0 0 -0 588.27 L0 603 A9.00007 9.00007 -180 0 0 9 612 L73.38 612 Z" class="st7"/>
			<text x="6" y="599.23" class="st8" v:langID="1033"><v:paragraph v:horizAlign="1"/><v:tabList/>AllJoyn Router</text>		</g>
		<g id="shape5-27" v:mID="5" v:groupContext="shape" transform="translate(-378.236,203.413) rotate(-89.8401)">
			<title>Sheet.5</title>
			<v:userDefs>
				<v:ud v:nameU="msvThemeColors" v:val="VT0(36):26"/>
				<v:ud v:nameU="msvThemeEffects" v:val="VT0(16):26"/>
			</v:userDefs>
			<g id="shadow5-28" v:groupContext="shadow" v:shadowOffsetX="1.44" v:shadowOffsetY="-1.44" v:shadowType="1"
					transform="matrix(1,6.24687E-020,-1.23455E-019,1,-1.43598,1.44401)" class="st1">
				<path d="M0 612 L16.72 612" class="st9"/>
			</g>
			<path d="M0 612 L16.72 612" class="st10"/>
		</g>
		<g id="shape6-34" v:mID="6" v:groupContext="shape" transform="translate(162.934,-500.736)">
			<title>Sheet.6</title>
			<desc>Event Emitting Device</desc>
			<v:userDefs>
				<v:ud v:nameU="msvThemeColors" v:val="VT0(36):26"/>
				<v:ud v:nameU="msvThemeEffects" v:val="VT0(16):26"/>
			</v:userDefs>
			<v:textBlock v:margins="rect(4,4,4,4)"/>
			<v:textRect cx="70.0222" cy="606.279" width="140.05" height="11.4415"/>
			<rect x="0" y="600.558" width="140.044" height="11.4415" class="st11"/>
			<text x="15.6" y="609.88" class="st12" v:langID="1033"><v:paragraph v:horizAlign="1"/><v:tabList/>Event Emitting Device</text>		</g>
		<g id="shape7-37" v:mID="7" v:groupContext="shape" transform="translate(192.619,-423.599)">
			<title>Rounded rectangle.29</title>
			<desc>AllJoyn Core Library</desc>
			<v:userDefs>
				<v:ud v:nameU="visVersion" v:val="VT0(14):26"/>
				<v:ud v:nameU="msvThemeColors" v:val="VT0(36):26"/>
				<v:ud v:nameU="msvThemeEffects" v:val="VT0(16):26"/>
			</v:userDefs>
			<v:textBlock v:margins="rect(4,4,4,4)"/>
			<v:textRect cx="41.1895" cy="601.177" width="82.38" height="21.6467"/>
			<g id="shadow7-38" v:groupContext="shadow" v:shadowOffsetX="1.44" v:shadowOffsetY="-1.44" v:shadowType="1"
					transform="matrix(1,0,0,1,1.44,1.44)" class="st1">
				<path d="M73.38 612 A9.00007 9.00007 -180 0 0 82.38 603 L82.38 599.35 A9.00007 9.00007 -180 0 0 73.38 590.35 L9 590.35
							 A9.00007 9.00007 -180 0 0 -0 599.35 L0 603 A9.00007 9.00007 -180 0 0 9 612 L73.38 612 Z" class="st2"/>
			</g>
			<path d="M73.38 612 A9.00007 9.00007 -180 0 0 82.38 603 L82.38 599.35 A9.00007 9.00007 -180 0 0 73.38 590.35 L9 590.35
						 A9.00007 9.00007 -180 0 0 -0 599.35 L0 603 A9.00007 9.00007 -180 0 0 9 612 L73.38 612 Z" class="st7"/>
			<text x="5.08" y="603.88" class="st13" v:langID="1033"><v:paragraph v:horizAlign="1"/><v:tabList/>AllJoyn Core Library</text>		</g>
		<g id="shape8-43" v:mID="8" v:groupContext="shape" transform="translate(483.72,-351.593)">
			<title>Rectangle.8</title>
			<v:userDefs>
				<v:ud v:nameU="visVersion" v:val="VT0(14):26"/>
				<v:ud v:nameU="msvThemeColors" v:val="VT0(36):26"/>
				<v:ud v:nameU="msvThemeEffects" v:val="VT0(16):26"/>
			</v:userDefs>
			<g id="shadow8-44" v:groupContext="shadow" v:shadowOffsetX="1.44" v:shadowOffsetY="-1.44" v:shadowType="1"
					transform="matrix(1,0,0,1,1.44,1.44)" class="st1">
				<rect x="0" y="465.825" width="132.542" height="146.175" class="st2"/>
			</g>
			<rect x="0" y="465.825" width="132.542" height="146.175" class="st3"/>
		</g>
		<g id="shape9-48" v:mID="9" v:groupContext="shape" transform="translate(500.931,-368.468)">
			<title>Rectangle.9</title>
			<v:userDefs>
				<v:ud v:nameU="visVersion" v:val="VT0(14):26"/>
				<v:ud v:nameU="msvThemeColors" v:val="VT0(36):26"/>
				<v:ud v:nameU="msvThemeEffects" v:val="VT0(16):26"/>
			</v:userDefs>
			<g id="shadow9-49" v:groupContext="shadow" v:shadowOffsetX="1.44" v:shadowOffsetY="-1.44" v:shadowType="1"
					transform="matrix(1,0,0,1,1.44,1.44)" class="st1">
				<rect x="0" y="492.082" width="98.8548" height="119.918" class="st2"/>
			</g>
			<rect x="0" y="492.082" width="98.8548" height="119.918" class="st4"/>
		</g>
		<g id="shape10-53" v:mID="10" v:groupContext="shape" transform="translate(509.169,-447.092)">
			<title>Rounded rectangle.10</title>
			<desc>App</desc>
			<v:userDefs>
				<v:ud v:nameU="visVersion" v:val="VT0(14):26"/>
				<v:ud v:nameU="msvThemeColors" v:val="VT0(36):26"/>
				<v:ud v:nameU="msvThemeEffects" v:val="VT0(16):26"/>
			</v:userDefs>
			<v:textBlock v:margins="rect(4,4,4,4)"/>
			<v:textRect cx="41.1895" cy="594.9" width="82.38" height="34.2003"/>
			<g id="shadow10-54" v:groupContext="shadow" v:shadowOffsetX="1.44" v:shadowOffsetY="-1.44" v:shadowType="1"
					transform="matrix(1,0,0,1,1.44,1.44)" class="st1">
				<path d="M73.38 612 A9.00007 9.00007 -180 0 0 82.38 603 L82.38 586.8 A9.00007 9.00007 -180 0 0 73.38 577.8 L9 577.8
							 A9.00007 9.00007 -180 0 0 -0 586.8 L0 603 A9.00007 9.00007 -180 0 0 9 612 L73.38 612 Z" class="st2"/>
			</g>
			<path d="M73.38 612 A9.00007 9.00007 -180 0 0 82.38 603 L82.38 586.8 A9.00007 9.00007 -180 0 0 73.38 577.8 L9 577.8 A9.00007
						 9.00007 -180 0 0 -0 586.8 L0 603 A9.00007 9.00007 -180 0 0 9 612 L73.38 612 Z" class="st5"/>
			<text x="33.04" y="597.9" class="st6" v:langID="1033"><v:paragraph v:horizAlign="1"/><v:tabList/>App</text>		</g>
		<g id="shape11-59" v:mID="11" v:groupContext="shape" transform="translate(510.191,-378.593)">
			<title>Rounded rectangle.11</title>
			<desc>AllJoyn Router</desc>
			<v:userDefs>
				<v:ud v:nameU="visVersion" v:val="VT0(14):26"/>
				<v:ud v:nameU="msvThemeColors" v:val="VT0(36):26"/>
				<v:ud v:nameU="msvThemeEffects" v:val="VT0(16):26"/>
			</v:userDefs>
			<v:textBlock v:margins="rect(4,4,4,4)"/>
			<v:textRect cx="41.1895" cy="596.518" width="82.38" height="30.9634"/>
			<g id="shadow11-60" v:groupContext="shadow" v:shadowOffsetX="1.44" v:shadowOffsetY="-1.44" v:shadowType="1"
					transform="matrix(1,0,0,1,1.44,1.44)" class="st1">
				<path d="M73.38 612 A9.00007 9.00007 -180 0 0 82.38 603 L82.38 590.04 A9.00007 9.00007 -180 0 0 73.38 581.04 L9 581.04
							 A9.00007 9.00007 -180 0 0 -0 590.04 L0 603 A9.00007 9.00007 -180 0 0 9 612 L73.38 612 Z" class="st2"/>
			</g>
			<path d="M73.38 612 A9.00007 9.00007 -180 0 0 82.38 603 L82.38 590.04 A9.00007 9.00007 -180 0 0 73.38 581.04 L9 581.04
						 A9.00007 9.00007 -180 0 0 -0 590.04 L0 603 A9.00007 9.00007 -180 0 0 9 612 L73.38 612 Z" class="st7"/>
			<text x="6" y="600.12" class="st8" v:langID="1033"><v:paragraph v:horizAlign="1"/><v:tabList/>AllJoyn Router</text>		</g>
		<g id="shape12-65" v:mID="12" v:groupContext="shape" transform="translate(-61.3068,201.721) rotate(-89.8322)">
			<title>Sheet.12</title>
			<v:userDefs>
				<v:ud v:nameU="msvThemeColors" v:val="VT0(36):26"/>
				<v:ud v:nameU="msvThemeEffects" v:val="VT0(16):26"/>
			</v:userDefs>
			<g id="shadow12-66" v:groupContext="shadow" v:shadowOffsetX="1.44" v:shadowOffsetY="-1.44" v:shadowType="1"
					transform="matrix(1,-3.45166E-020,-1.42725E-019,1,-1.43578,1.44421)" class="st1">
				<path d="M0 612 L15.93 612" class="st9"/>
			</g>
			<path d="M0 612 L15.93 612" class="st10"/>
		</g>
		<g id="shape13-72" v:mID="13" v:groupContext="shape" transform="translate(479.863,-501.379)">
			<title>Sheet.13</title>
			<desc>Action Receiving Device</desc>
			<v:userDefs>
				<v:ud v:nameU="msvThemeColors" v:val="VT0(36):26"/>
				<v:ud v:nameU="msvThemeEffects" v:val="VT0(16):26"/>
			</v:userDefs>
			<v:textBlock v:margins="rect(4,4,4,4)"/>
			<v:textRect cx="70.0222" cy="606.279" width="140.05" height="11.4415"/>
			<rect x="0" y="600.558" width="140.044" height="11.4415" class="st11"/>
			<text x="10.74" y="609.88" class="st12" v:langID="1033"><v:paragraph v:horizAlign="1"/><v:tabList/>Action Receiving Device</text>		</g>
		<g id="shape14-75" v:mID="14" v:groupContext="shape" transform="translate(248.113,-157.611)">
			<title>Rectangle.14</title>
			<v:userDefs>
				<v:ud v:nameU="visVersion" v:val="VT0(14):26"/>
				<v:ud v:nameU="msvThemeColors" v:val="VT0(36):26"/>
				<v:ud v:nameU="msvThemeEffects" v:val="VT0(16):26"/>
			</v:userDefs>
			<g id="shadow14-76" v:groupContext="shadow" v:shadowOffsetX="1.44" v:shadowOffsetY="-1.44" v:shadowType="1"
					transform="matrix(1,0,0,1,1.44,1.44)" class="st1">
				<rect x="0" y="466.307" width="127.125" height="145.693" class="st2"/>
			</g>
			<rect x="0" y="466.307" width="127.125" height="145.693" class="st3"/>
		</g>
		<g id="shape15-80" v:mID="15" v:groupContext="shape" transform="translate(259.86,-167.897)">
			<title>Rectangle.16</title>
			<v:userDefs>
				<v:ud v:nameU="visVersion" v:val="VT0(14):26"/>
				<v:ud v:nameU="msvThemeColors" v:val="VT0(36):26"/>
				<v:ud v:nameU="msvThemeEffects" v:val="VT0(16):26"/>
			</v:userDefs>
			<g id="shadow15-81" v:groupContext="shadow" v:shadowOffsetX="1.44" v:shadowOffsetY="-1.44" v:shadowType="1"
					transform="matrix(1,0,0,1,1.44,1.44)" class="st1">
				<rect x="0" y="485.975" width="101.878" height="126.025" class="st2"/>
			</g>
			<rect x="0" y="485.975" width="101.878" height="126.025" class="st4"/>
		</g>
		<g id="shape16-85" v:mID="16" v:groupContext="shape" transform="translate(270.291,-178.986)">
			<title>Rounded rectangle.17</title>
			<desc>IFTTT Rules Config App</desc>
			<v:userDefs>
				<v:ud v:nameU="visVersion" v:val="VT0(14):26"/>
				<v:ud v:nameU="msvThemeColors" v:val="VT0(36):26"/>
				<v:ud v:nameU="msvThemeEffects" v:val="VT0(16):26"/>
			</v:userDefs>
			<v:textBlock v:margins="rect(4,4,4,4)"/>
			<v:textRect cx="41.1895" cy="594.9" width="82.38" height="34.2003"/>
			<g id="shadow16-86" v:groupContext="shadow" v:shadowOffsetX="1.44" v:shadowOffsetY="-1.44" v:shadowType="1"
					transform="matrix(1,0,0,1,1.44,1.44)" class="st1">
				<path d="M73.38 612 A9.00007 9.00007 -180 0 0 82.38 603 L82.38 586.8 A9.00007 9.00007 -180 0 0 73.38 577.8 L9 577.8
							 A9.00007 9.00007 -180 0 0 -0 586.8 L0 603 A9.00007 9.00007 -180 0 0 9 612 L73.38 612 Z" class="st2"/>
			</g>
			<path d="M73.38 612 A9.00007 9.00007 -180 0 0 82.38 603 L82.38 586.8 A9.00007 9.00007 -180 0 0 73.38 577.8 L9 577.8 A9.00007
						 9.00007 -180 0 0 -0 586.8 L0 603 A9.00007 9.00007 -180 0 0 9 612 L73.38 612 Z" class="st5"/>
			<text x="4.17" y="591.9" class="st6" v:langID="1033"><v:paragraph v:horizAlign="1"/><v:tabList/>IFTTT Rules Config <tspan
						x="33.04" dy="1.2em" class="st14">App </tspan> </text>		</g>
		<g id="shape17-92" v:mID="17" v:groupContext="shape" transform="translate(240.72,-142.665)">
			<title>Sheet.17</title>
			<desc>Authoring App</desc>
			<v:userDefs>
				<v:ud v:nameU="msvThemeColors" v:val="VT0(36):26"/>
				<v:ud v:nameU="msvThemeEffects" v:val="VT0(16):26"/>
			</v:userDefs>
			<v:textBlock v:margins="rect(4,4,4,4)"/>
			<v:textRect cx="70.0222" cy="606.279" width="140.05" height="11.4415"/>
			<rect x="0" y="600.558" width="140.044" height="11.4415" class="st11"/>
			<text x="33.54" y="609.88" class="st12" v:langID="1033"><v:paragraph v:horizAlign="1"/><v:tabList/>Authoring App</text>		</g>
		<g id="shape18-95" v:mID="18" v:groupContext="shape" transform="translate(267.72,-250.986)">
			<title>Rounded rectangle.18</title>
			<desc>AllJoyn Router</desc>
			<v:userDefs>
				<v:ud v:nameU="visVersion" v:val="VT0(14):26"/>
				<v:ud v:nameU="msvThemeColors" v:val="VT0(36):26"/>
				<v:ud v:nameU="msvThemeEffects" v:val="VT0(16):26"/>
			</v:userDefs>
			<v:textBlock v:margins="rect(4,4,4,4)"/>
			<v:textRect cx="41.1895" cy="595.634" width="82.38" height="32.7313"/>
			<g id="shadow18-96" v:groupContext="shadow" v:shadowOffsetX="1.44" v:shadowOffsetY="-1.44" v:shadowType="1"
					transform="matrix(1,0,0,1,1.44,1.44)" class="st1">
				<path d="M73.38 612 A9.00007 9.00007 -180 0 0 82.38 603 L82.38 588.27 A9.00007 9.00007 -180 0 0 73.38 579.27 L9 579.27
							 A9.00007 9.00007 -180 0 0 -0 588.27 L0 603 A9.00007 9.00007 -180 0 0 9 612 L73.38 612 Z" class="st2"/>
			</g>
			<path d="M73.38 612 A9.00007 9.00007 -180 0 0 82.38 603 L82.38 588.27 A9.00007 9.00007 -180 0 0 73.38 579.27 L9 579.27
						 A9.00007 9.00007 -180 0 0 -0 588.27 L0 603 A9.00007 9.00007 -180 0 0 9 612 L73.38 612 Z" class="st7"/>
			<text x="6" y="599.23" class="st8" v:langID="1033"><v:paragraph v:horizAlign="1"/><v:tabList/>AllJoyn Router</text>		</g>
		<g id="shape19-101" v:mID="19" v:groupContext="shape" transform="translate(-300.532,415.653) rotate(-92.6756)">
			<title>Sheet.19</title>
			<v:userDefs>
				<v:ud v:nameU="msvThemeColors" v:val="VT0(36):26"/>
				<v:ud v:nameU="msvThemeEffects" v:val="VT0(16):26"/>
			</v:userDefs>
			<g id="shadow19-102" v:groupContext="shadow" v:shadowOffsetX="1.44" v:shadowOffsetY="-1.44" v:shadowType="1"
					transform="matrix(1,-5.76321E-018,4.61125E-018,1,-1.50565,1.37121)" class="st1">
				<path d="M0 612 L26.74 612" class="st9"/>
			</g>
			<path d="M0 612 L26.74 612" class="st10"/>
		</g>
		<g id="shape20-108" v:mID="20" v:groupContext="shape" transform="translate(480.827,-158.254)">
			<title>Rectangle.19</title>
			<v:userDefs>
				<v:ud v:nameU="visVersion" v:val="VT0(14):26"/>
				<v:ud v:nameU="msvThemeColors" v:val="VT0(36):26"/>
				<v:ud v:nameU="msvThemeEffects" v:val="VT0(16):26"/>
			</v:userDefs>
			<g id="shadow20-109" v:groupContext="shadow" v:shadowOffsetX="1.44" v:shadowOffsetY="-1.44" v:shadowType="1"
					transform="matrix(1,0,0,1,1.44,1.44)" class="st1">
				<rect x="0" y="466.307" width="127.125" height="145.693" class="st2"/>
			</g>
			<rect x="0" y="466.307" width="127.125" height="145.693" class="st3"/>
		</g>
		<g id="shape21-113" v:mID="21" v:groupContext="shape" transform="translate(492.574,-168.54)">
			<title>Rectangle.23</title>
			<v:userDefs>
				<v:ud v:nameU="visVersion" v:val="VT0(14):26"/>
				<v:ud v:nameU="msvThemeColors" v:val="VT0(36):26"/>
				<v:ud v:nameU="msvThemeEffects" v:val="VT0(16):26"/>
			</v:userDefs>
			<g id="shadow21-114" v:groupContext="shadow" v:shadowOffsetX="1.44" v:shadowOffsetY="-1.44" v:shadowType="1"
					transform="matrix(1,0,0,1,1.44,1.44)" class="st1">
				<rect x="0" y="485.975" width="101.878" height="126.025" class="st2"/>
			</g>
			<rect x="0" y="485.975" width="101.878" height="126.025" class="st4"/>
		</g>
		<g id="shape22-118" v:mID="22" v:groupContext="shape" transform="translate(503.006,-179.629)">
			<title>Rounded rectangle.24</title>
			<desc>Rules Engine</desc>
			<v:userDefs>
				<v:ud v:nameU="visVersion" v:val="VT0(14):26"/>
				<v:ud v:nameU="msvThemeColors" v:val="VT0(36):26"/>
				<v:ud v:nameU="msvThemeEffects" v:val="VT0(16):26"/>
			</v:userDefs>
			<v:textBlock v:margins="rect(4,4,4,4)"/>
			<v:textRect cx="41.1895" cy="594.9" width="82.38" height="34.2003"/>
			<g id="shadow22-119" v:groupContext="shadow" v:shadowOffsetX="1.44" v:shadowOffsetY="-1.44" v:shadowType="1"
					transform="matrix(1,0,0,1,1.44,1.44)" class="st1">
				<path d="M73.38 612 A9.00007 9.00007 -180 0 0 82.38 603 L82.38 586.8 A9.00007 9.00007 -180 0 0 73.38 577.8 L9 577.8
							 A9.00007 9.00007 -180 0 0 -0 586.8 L0 603 A9.00007 9.00007 -180 0 0 9 612 L73.38 612 Z" class="st2"/>
			</g>
			<path d="M73.38 612 A9.00007 9.00007 -180 0 0 82.38 603 L82.38 586.8 A9.00007 9.00007 -180 0 0 73.38 577.8 L9 577.8 A9.00007
						 9.00007 -180 0 0 -0 586.8 L0 603 A9.00007 9.00007 -180 0 0 9 612 L73.38 612 Z" class="st5"/>
			<text x="15.44" y="597.9" class="st6" v:langID="1033"><v:paragraph v:horizAlign="1"/><v:tabList/>Rules Engine    </text>		</g>
		<g id="shape23-124" v:mID="23" v:groupContext="shape" transform="translate(500.434,-251.629)">
			<title>Rounded rectangle.27</title>
			<desc>AllJoyn Router</desc>
			<v:userDefs>
				<v:ud v:nameU="visVersion" v:val="VT0(14):26"/>
				<v:ud v:nameU="msvThemeColors" v:val="VT0(36):26"/>
				<v:ud v:nameU="msvThemeEffects" v:val="VT0(16):26"/>
			</v:userDefs>
			<v:textBlock v:margins="rect(4,4,4,4)"/>
			<v:textRect cx="41.1895" cy="595.634" width="82.38" height="32.7313"/>
			<g id="shadow23-125" v:groupContext="shadow" v:shadowOffsetX="1.44" v:shadowOffsetY="-1.44" v:shadowType="1"
					transform="matrix(1,0,0,1,1.44,1.44)" class="st1">
				<path d="M73.38 612 A9.00007 9.00007 -180 0 0 82.38 603 L82.38 588.27 A9.00007 9.00007 -180 0 0 73.38 579.27 L9 579.27
							 A9.00007 9.00007 -180 0 0 -0 588.27 L0 603 A9.00007 9.00007 -180 0 0 9 612 L73.38 612 Z" class="st2"/>
			</g>
			<path d="M73.38 612 A9.00007 9.00007 -180 0 0 82.38 603 L82.38 588.27 A9.00007 9.00007 -180 0 0 73.38 579.27 L9 579.27
						 A9.00007 9.00007 -180 0 0 -0 588.27 L0 603 A9.00007 9.00007 -180 0 0 9 612 L73.38 612 Z" class="st7"/>
			<text x="6" y="599.23" class="st8" v:langID="1033"><v:paragraph v:horizAlign="1"/><v:tabList/>AllJoyn Router</text>		</g>
		<g id="shape24-130" v:mID="24" v:groupContext="shape" transform="translate(-67.6606,416.639) rotate(-92.8445)">
			<title>Sheet.24</title>
			<v:userDefs>
				<v:ud v:nameU="msvThemeColors" v:val="VT0(36):26"/>
				<v:ud v:nameU="msvThemeEffects" v:val="VT0(16):26"/>
			</v:userDefs>
			<g id="shadow24-131" v:groupContext="shadow" v:shadowOffsetX="1.44" v:shadowOffsetY="-1.44" v:shadowType="1"
					transform="matrix(1,-5.52604E-018,4.0827E-018,1,-1.50969,1.36676)" class="st1">
				<path d="M0 612 L26.57 612" class="st9"/>
			</g>
			<path d="M0 612 L26.57 612" class="st10"/>
		</g>
		<g id="shape25-137" v:mID="25" v:groupContext="shape" transform="translate(503.104,-143.373)">
			<title>Sheet.25</title>
			<desc>Rule Engine</desc>
			<v:userDefs>
				<v:ud v:nameU="msvThemeColors" v:val="VT0(36):26"/>
				<v:ud v:nameU="msvThemeEffects" v:val="VT0(16):26"/>
			</v:userDefs>
			<v:textBlock v:margins="rect(4,4,4,4)"/>
			<v:textRect cx="70.0222" cy="606.279" width="140.05" height="11.4415"/>
			<rect x="0" y="600.558" width="140.044" height="11.4415" class="st11"/>
			<text x="40.87" y="609.88" class="st12" v:langID="1033"><v:paragraph v:horizAlign="1"/><v:tabList/>Rule Engine</text>		</g>
		<g id="shape26-140" v:mID="26" v:groupContext="shape" v:layerMember="0"
				transform="translate(787.704,-68.4485) rotate(60.1699)">
			<title>Line-curve connector</title>
			<v:userDefs>
				<v:ud v:nameU="AntiScale" v:val="VT0(1):26"/>
				<v:ud v:nameU="Scale" v:val="VT0(1):26"/>
				<v:ud v:nameU="visVersion" v:val="VT0(14):26"/>
				<v:ud v:nameU="msvThemeColors" v:val="VT0(36):26"/>
				<v:ud v:nameU="msvThemeEffects" v:val="VT0(16):26"/>
			</v:userDefs>
			<path d="M0 612 L32.33 612.66 L64.57 612.75 L96.71 612.28 L97.07 612.27" class="st15"/>
		</g>
		<g id="shape27-147" v:mID="27" v:groupContext="shape" transform="translate(791.564,-61.9968) rotate(60)">
			<title>Sheet.27</title>
			<desc>1) Announcement</desc>
			<v:userDefs>
				<v:ud v:nameU="msvThemeColors" v:val="VT0(36):26"/>
				<v:ud v:nameU="msvThemeEffects" v:val="VT0(16):26"/>
			</v:userDefs>
			<v:textBlock v:margins="rect(4,4,4,4)"/>
			<v:textRect cx="52" cy="604" width="104" height="16"/>
			<rect x="0" y="596" width="104" height="16" class="st11"/>
			<text x="19.06" y="606.7" class="st13" v:langID="1033"><v:paragraph v:horizAlign="1"/><v:tabList/>1) Announcement</text>		</g>
		<g id="shape28-150" v:mID="28" v:groupContext="shape" v:layerMember="0"
				transform="translate(183.967,-301.142) rotate(-32.2344) scale(-1,1)">
			<title>Line-curve connector.31</title>
			<v:userDefs>
				<v:ud v:nameU="AntiScale" v:val="VT0(1):26"/>
				<v:ud v:nameU="Scale" v:val="VT0(1):26"/>
				<v:ud v:nameU="visVersion" v:val="VT0(14):26"/>
				<v:ud v:nameU="msvThemeColors" v:val="VT0(36):26"/>
				<v:ud v:nameU="msvThemeEffects" v:val="VT0(16):26"/>
			</v:userDefs>
			<path d="M0 612 L66.29 612.68 L132.37 612.73 L198.25 612.15 L198.61 612.15" class="st15"/>
		</g>
		<g id="shape29-156" v:mID="29" v:groupContext="shape" transform="translate(75.414,-234.509) rotate(-30)">
			<title>Sheet.29</title>
			<desc>1) Announcement</desc>
			<v:userDefs>
				<v:ud v:nameU="msvThemeColors" v:val="VT0(36):26"/>
				<v:ud v:nameU="msvThemeEffects" v:val="VT0(16):26"/>
			</v:userDefs>
			<v:textBlock v:margins="rect(4,4,4,4)"/>
			<v:textRect cx="52" cy="604" width="104" height="16"/>
			<rect x="0" y="596" width="104" height="16" class="st11"/>
			<text x="19.06" y="606.7" class="st13" v:langID="1033"><v:paragraph v:horizAlign="1"/><v:tabList/>1) Announcement</text>		</g>
		<g id="shape30-159" v:mID="30" v:groupContext="shape" v:layerMember="0"
				transform="translate(760.289,-58.5139) rotate(61.5107)">
			<title>Line-curve connector.33</title>
			<v:userDefs>
				<v:ud v:nameU="AntiScale" v:val="VT0(1):26"/>
				<v:ud v:nameU="Scale" v:val="VT0(1):26"/>
				<v:ud v:nameU="visVersion" v:val="VT0(14):26"/>
				<v:ud v:nameU="msvThemeColors" v:val="VT0(36):26"/>
				<v:ud v:nameU="msvThemeEffects" v:val="VT0(16):26"/>
			</v:userDefs>
			<path d="M10.2 612.26 L10.56 612.27 L43.52 612.75 L76.39 612.66 L109.17 612" class="st17"/>
		</g>
		<g id="shape31-166" v:mID="31" v:groupContext="shape" transform="translate(741.422,-59.4254) rotate(60)">
			<title>Sheet.31</title>
			<desc>2) Introspect</desc>
			<v:userDefs>
				<v:ud v:nameU="msvThemeColors" v:val="VT0(36):26"/>
				<v:ud v:nameU="msvThemeEffects" v:val="VT0(16):26"/>
			</v:userDefs>
			<v:textBlock v:margins="rect(4,4,4,4)"/>
			<v:textRect cx="52" cy="604" width="104" height="16"/>
			<rect x="0" y="596" width="104" height="16" class="st11"/>
			<text x="28.62" y="606.7" class="st13" v:langID="1033"><v:paragraph v:horizAlign="1"/><v:tabList/>2) Introspect</text>		</g>
		<g id="shape32-169" v:mID="32" v:groupContext="shape" v:layerMember="0"
				transform="translate(671.201,866.807) rotate(-31.4625) scale(1,-1)">
			<title>Line-curve connector.35</title>
			<v:userDefs>
				<v:ud v:nameU="AntiScale" v:val="VT0(1):26"/>
				<v:ud v:nameU="Scale" v:val="VT0(1):26"/>
				<v:ud v:nameU="visVersion" v:val="VT0(14):26"/>
				<v:ud v:nameU="msvThemeColors" v:val="VT0(36):26"/>
				<v:ud v:nameU="msvThemeEffects" v:val="VT0(16):26"/>
			</v:userDefs>
			<path d="M0 612 L35.01 612 L72.68 612 L113 612 L155.97 612 L201.59 612" class="st18"/>
		</g>
		<g id="shape33-176" v:mID="33" v:groupContext="shape" transform="translate(94.6997,-199.152) rotate(-30)">
			<title>Sheet.33</title>
			<desc>2) Introspect</desc>
			<v:userDefs>
				<v:ud v:nameU="msvThemeColors" v:val="VT0(36):26"/>
				<v:ud v:nameU="msvThemeEffects" v:val="VT0(16):26"/>
			</v:userDefs>
			<v:textBlock v:margins="rect(4,4,4,4)"/>
			<v:textRect cx="52" cy="604" width="104" height="16"/>
			<rect x="0" y="596" width="104" height="16" class="st11"/>
			<text x="28.62" y="606.7" class="st13" v:langID="1033"><v:paragraph v:horizAlign="1"/><v:tabList/>2) Introspect</text>		</g>
		<g id="shape34-179" v:mID="34" v:groupContext="shape" v:layerMember="0" transform="translate(188.327,-187.086)">
			<title>Dynamic connector</title>
			<v:userDefs>
				<v:ud v:nameU="visVersion" v:val="VT0(14):26"/>
				<v:ud v:nameU="msvThemeColors" v:val="VT0(36):26"/>
				<v:ud v:nameU="msvThemeEffects" v:val="VT0(16):26"/>
			</v:userDefs>
			<path d="M0 603 L71.4 603" class="st18"/>
		</g>
		<g id="shape35-185" v:mID="35" v:groupContext="shape" transform="translate(186.149,-171.593)">
			<title>Sheet.35</title>
			<desc>3) Define IFTTT rules</desc>
			<v:userDefs>
				<v:ud v:nameU="msvThemeColors" v:val="VT0(36):26"/>
				<v:ud v:nameU="msvThemeEffects" v:val="VT0(16):26"/>
			</v:userDefs>
			<v:textBlock v:margins="rect(4,4,4,4)"/>
			<v:textRect cx="30.5" cy="600.304" width="61" height="23.3929"/>
			<rect x="0" y="588.607" width="61" height="23.3929" class="st11"/>
			<text x="4" y="597.6" class="st13" v:langID="1033"><v:paragraph/><v:tabList/>3) Define <v:newlineChar/><tspan x="4"
						dy="1.2em" class="st14">IFTTT rules</tspan></text>		</g>
		<g id="shape36-189" v:mID="36" v:groupContext="shape" transform="translate(402.149,-170.7)">
			<title>Sheet.36</title>
			<desc>4) Configure IFTTT rules</desc>
			<v:userDefs>
				<v:ud v:nameU="msvThemeColors" v:val="VT0(36):26"/>
				<v:ud v:nameU="msvThemeEffects" v:val="VT0(16):26"/>
			</v:userDefs>
			<v:textBlock v:margins="rect(4,4,4,4)"/>
			<v:textRect cx="30.5" cy="600.304" width="61" height="23.3929"/>
			<rect x="0" y="588.607" width="61" height="23.3929" class="st11"/>
			<text x="4" y="597.6" class="st13" v:langID="1033"><v:paragraph/><v:tabList/>4) Configure <v:newlineChar/><tspan x="4"
						dy="1.2em" class="st14">IFTTT rules</tspan></text>		</g>
		<g id="shape37-193" v:mID="37" v:groupContext="shape" v:layerMember="0" transform="translate(352.67,-187.408)">
			<title>Dynamic connector.47</title>
			<v:userDefs>
				<v:ud v:nameU="visVersion" v:val="VT0(14):26"/>
				<v:ud v:nameU="msvThemeColors" v:val="VT0(36):26"/>
				<v:ud v:nameU="msvThemeEffects" v:val="VT0(16):26"/>
			</v:userDefs>
			<path d="M0 603.32 L139.78 602.72" class="st18"/>
		</g>
		<g id="shape38-199" v:mID="38" v:groupContext="shape" v:layerMember="0" transform="translate(193.262,-391.584)">
			<title>Dynamic connector.48</title>
			<v:userDefs>
				<v:ud v:nameU="visVersion" v:val="VT0(14):26"/>
				<v:ud v:nameU="msvThemeColors" v:val="VT0(36):26"/>
				<v:ud v:nameU="msvThemeEffects" v:val="VT0(16):26"/>
			</v:userDefs>
			<path d="M0 612 L-36.11 612 L-36.11 885.99 L332.89 885.99 L332.89 834.51" class="st18"/>
		</g>
		<g id="shape39-205" v:mID="39" v:groupContext="shape" transform="translate(402.899,-98.7004)">
			<title>Sheet.39</title>
			<desc>5) Event emitted</desc>
			<v:userDefs>
				<v:ud v:nameU="msvThemeColors" v:val="VT0(36):26"/>
				<v:ud v:nameU="msvThemeEffects" v:val="VT0(16):26"/>
			</v:userDefs>
			<v:textBlock v:margins="rect(4,4,4,4)"/>
			<v:textRect cx="42.25" cy="600.304" width="84.5" height="23.3929"/>
			<rect x="0" y="588.607" width="84.5" height="23.3929" class="st11"/>
			<text x="4" y="603" class="st13" v:langID="1033"><v:paragraph/><v:tabList/>5) Event emitted</text>		</g>
		<g id="shape40-208" v:mID="40" v:groupContext="shape" v:layerMember="0" transform="translate(588.827,-294.565)">
			<title>Dynamic connector.50</title>
			<v:userDefs>
				<v:ud v:nameU="visVersion" v:val="VT0(14):26"/>
				<v:ud v:nameU="msvThemeColors" v:val="VT0(36):26"/>
				<v:ud v:nameU="msvThemeEffects" v:val="VT0(16):26"/>
			</v:userDefs>
			<path d="M-8.68 612 L-9.24 538.53" class="st18"/>
		</g>
		<g id="shape41-214" v:mID="41" v:groupContext="shape" transform="translate(540.649,-318.24)">
			<title>Sheet.41</title>
			<desc>6) Execute Action</desc>
			<v:userDefs>
				<v:ud v:nameU="msvThemeColors" v:val="VT0(36):26"/>
				<v:ud v:nameU="msvThemeEffects" v:val="VT0(16):26"/>
			</v:userDefs>
			<v:textBlock v:margins="rect(4,4,4,4)"/>
			<v:textRect cx="42.25" cy="600.304" width="84.5" height="23.3929"/>
			<rect x="0" y="588.607" width="84.5" height="23.3929" class="st11"/>
			<text x="4" y="603" class="st13" v:langID="1033"><v:paragraph/><v:tabList/>6) Execute Action</text>		</g>
		<g id="shape42-217" v:mID="42" v:groupContext="shape" transform="translate(509.548,-424.415)">
			<title>Rounded rectangle.13</title>
			<desc>AllJoyn Core Library</desc>
			<v:userDefs>
				<v:ud v:nameU="visVersion" v:val="VT0(14):26"/>
				<v:ud v:nameU="msvThemeColors" v:val="VT0(36):26"/>
				<v:ud v:nameU="msvThemeEffects" v:val="VT0(16):26"/>
			</v:userDefs>
			<v:textBlock v:margins="rect(4,4,4,4)"/>
			<v:textRect cx="41.1895" cy="601.177" width="82.38" height="21.6467"/>
			<g id="shadow42-218" v:groupContext="shadow" v:shadowOffsetX="1.44" v:shadowOffsetY="-1.44" v:shadowType="1"
					transform="matrix(1,0,0,1,1.44,1.44)" class="st1">
				<path d="M73.38 612 A9.00007 9.00007 -180 0 0 82.38 603 L82.38 599.35 A9.00007 9.00007 -180 0 0 73.38 590.35 L9 590.35
							 A9.00007 9.00007 -180 0 0 -0 599.35 L0 603 A9.00007 9.00007 -180 0 0 9 612 L73.38 612 Z" class="st2"/>
			</g>
			<path d="M73.38 612 A9.00007 9.00007 -180 0 0 82.38 603 L82.38 599.35 A9.00007 9.00007 -180 0 0 73.38 590.35 L9 590.35
						 A9.00007 9.00007 -180 0 0 -0 599.35 L0 603 A9.00007 9.00007 -180 0 0 9 612 L73.38 612 Z" class="st7"/>
			<text x="5.08" y="603.88" class="st13" v:langID="1033"><v:paragraph v:horizAlign="1"/><v:tabList/>AllJoyn Core Library</text>		</g>
		<g id="shape43-223" v:mID="43" v:groupContext="shape" transform="translate(269.611,-214.093)">
			<title>Rounded rectangle.20</title>
			<desc>AllJoyn Core Library</desc>
			<v:userDefs>
				<v:ud v:nameU="visVersion" v:val="VT0(14):26"/>
				<v:ud v:nameU="msvThemeColors" v:val="VT0(36):26"/>
				<v:ud v:nameU="msvThemeEffects" v:val="VT0(16):26"/>
			</v:userDefs>
			<v:textBlock v:margins="rect(4,4,4,4)"/>
			<v:textRect cx="41.1895" cy="601.177" width="82.38" height="21.6467"/>
			<g id="shadow43-224" v:groupContext="shadow" v:shadowOffsetX="1.44" v:shadowOffsetY="-1.44" v:shadowType="1"
					transform="matrix(1,0,0,1,1.44,1.44)" class="st1">
				<path d="M73.38 612 A9.00007 9.00007 -180 0 0 82.38 603 L82.38 599.35 A9.00007 9.00007 -180 0 0 73.38 590.35 L9 590.35
							 A9.00007 9.00007 -180 0 0 -0 599.35 L0 603 A9.00007 9.00007 -180 0 0 9 612 L73.38 612 Z" class="st2"/>
			</g>
			<path d="M73.38 612 A9.00007 9.00007 -180 0 0 82.38 603 L82.38 599.35 A9.00007 9.00007 -180 0 0 73.38 590.35 L9 590.35
						 A9.00007 9.00007 -180 0 0 -0 599.35 L0 603 A9.00007 9.00007 -180 0 0 9 612 L73.38 612 Z" class="st7"/>
			<text x="5.08" y="603.88" class="st13" v:langID="1033"><v:paragraph v:horizAlign="1"/><v:tabList/>AllJoyn Core Library</text>		</g>
		<g id="shape44-229" v:mID="44" v:groupContext="shape" transform="translate(502.396,-214.909)">
			<title>Rounded rectangle.25</title>
			<desc>AllJoyn Core Library</desc>
			<v:userDefs>
				<v:ud v:nameU="visVersion" v:val="VT0(14):26"/>
				<v:ud v:nameU="msvThemeColors" v:val="VT0(36):26"/>
				<v:ud v:nameU="msvThemeEffects" v:val="VT0(16):26"/>
			</v:userDefs>
			<v:textBlock v:margins="rect(4,4,4,4)"/>
			<v:textRect cx="41.1895" cy="601.177" width="82.38" height="21.6467"/>
			<g id="shadow44-230" v:groupContext="shadow" v:shadowOffsetX="1.44" v:shadowOffsetY="-1.44" v:shadowType="1"
					transform="matrix(1,0,0,1,1.44,1.44)" class="st1">
				<path d="M73.38 612 A9.00007 9.00007 -180 0 0 82.38 603 L82.38 599.35 A9.00007 9.00007 -180 0 0 73.38 590.35 L9 590.35
							 A9.00007 9.00007 -180 0 0 -0 599.35 L0 603 A9.00007 9.00007 -180 0 0 9 612 L73.38 612 Z" class="st2"/>
			</g>
			<path d="M73.38 612 A9.00007 9.00007 -180 0 0 82.38 603 L82.38 599.35 A9.00007 9.00007 -180 0 0 73.38 590.35 L9 590.35
						 A9.00007 9.00007 -180 0 0 -0 599.35 L0 603 A9.00007 9.00007 -180 0 0 9 612 L73.38 612 Z" class="st7"/>
			<text x="5.08" y="603.88" class="st13" v:langID="1033"><v:paragraph v:horizAlign="1"/><v:tabList/>AllJoyn Core Library</text>		</g>
	</g>
</svg>
