<?xml version="1.0" encoding="UTF-8" standalone="no"?>
<!DOCTYPE svg PUBLIC "-//W3C//DTD SVG 1.0//EN" "http://www.w3.org/TR/2001/REC-SVG-20010904/DTD/svg10.dtd">
<!-- Generated by Microsoft Visio 11.0, SVG Export, v1.0 Drawing1.svg Page-1 -->
<svg xmlns="http://www.w3.org/2000/svg" xmlns:xlink="http://www.w3.org/1999/xlink" xmlns:ev="http://www.w3.org/2001/xml-events"
		xmlns:v="http://schemas.microsoft.com/visio/2003/SVGExtensions/" width="11in" height="8.5in" viewBox="0 0 792 612"
		xml:space="preserve" color-interpolation-filters="sRGB" class="st15">
	<v:documentProperties v:langID="1033" v:viewMarkup="false">
		<v:userDefs>
			<v:ud v:nameU="msvNoAutoConnect" v:val="VT0(0):26"/>
		</v:userDefs>
	</v:documentProperties>

	<style type="text/css">
	<![CDATA[
		.st1 {visibility:visible}
		.st2 {fill:#cdcdcd;fill-opacity:0.5;stroke:#cdcdcd;stroke-linecap:round;stroke-linejoin:round;stroke-opacity:0.5;stroke-width:0.25}
		.st3 {fill:url(#grad30-6);stroke:#404040;stroke-linecap:round;stroke-linejoin:round;stroke-width:0.25}
		.st4 {fill:url(#grad30-12);stroke:#404040;stroke-linecap:round;stroke-linejoin:round;stroke-width:0.25}
		.st5 {fill:#000000;font-family:Calibri;font-size:1.33333em;font-weight:bold}
		.st6 {font-size:0.874996em;font-weight:normal}
		.st7 {fill:#b2b2b2;stroke:#404040;stroke-linecap:round;stroke-linejoin:round;stroke-width:2.16}
		.st8 {fill:#000000;font-family:Calibri;font-size:1.5em}
		.st9 {fill:#000000;font-family:Calibri;font-size:1.16666em}
		.st10 {font-size:1em}
		.st11 {stroke:#cdcdcd;stroke-linecap:round;stroke-linejoin:round;stroke-opacity:0.5;stroke-width:0.25}
		.st12 {stroke:#404040;stroke-linecap:round;stroke-linejoin:round;stroke-width:0.25}
		.st13 {fill:url(#grad30-95);stroke:#404040;stroke-linecap:round;stroke-linejoin:round;stroke-width:0.25}
		.st14 {stroke:#404040;stroke-linecap:round;stroke-linejoin:round;stroke-width:1}
		.st15 {fill:none;fill-rule:evenodd;font-size:12px;overflow:visible;stroke-linecap:square;stroke-miterlimit:3}
	]]>
	</style>

	<defs id="Patterns_And_Gradients">
		<linearGradient id="grad30-6" v:fillPattern="30" v:foreground="#efaf7a" v:background="#f2bf96" x1="0" y1="1" x2="0" y2="0">
			<stop offset="0" style="stop-color:#efaf7a;stop-opacity:1"/>
			<stop offset="1" style="stop-color:#f2bf96;stop-opacity:1"/>
		</linearGradient>
		<linearGradient id="grad30-12" v:fillPattern="30" v:foreground="#f0f0f0" v:background="#ffffff" x1="0" y1="1" x2="0" y2="0">
			<stop offset="0" style="stop-color:#f0f0f0;stop-opacity:1"/>
			<stop offset="1" style="stop-color:#ffffff;stop-opacity:1"/>
		</linearGradient>
		<linearGradient id="grad30-95" v:fillPattern="30" v:foreground="#85ca39" v:background="#92d050" x1="0" y1="1" x2="0" y2="0">
			<stop offset="0" style="stop-color:#85ca39;stop-opacity:1"/>
			<stop offset="1" style="stop-color:#92d050;stop-opacity:1"/>
		</linearGradient>
	</defs>
	<g v:mID="0" v:index="1" v:groupContext="foregroundPage">
		<v:userDefs>
			<v:ud v:nameU="msvThemeColors" v:val="VT0(36):26"/>
			<v:ud v:nameU="msvThemeEffects" v:val="VT0(16):26"/>
			<v:ud v:nameU="msvThemeOrder" v:val="VT0(0):26"/>
		</v:userDefs>
		<title>Page-1</title>
		<v:pageProperties v:drawingScale="1" v:pageScale="1" v:drawingUnits="0" v:shadowOffsetX="9" v:shadowOffsetY="-9"/>
		<v:layer v:name="Annotations" v:index="0"/>
		<v:layer v:name="Connector" v:index="1"/>
		<g id="shape1-1" v:mID="1" v:groupContext="shape" transform="translate(515.65,-324.922)">
			<title>Rectangle.12</title>
			<v:userDefs>
				<v:ud v:nameU="visVersion" v:val="VT0(14):26"/>
				<v:ud v:nameU="msvThemeColors" v:val="VT0(36):26"/>
				<v:ud v:nameU="msvThemeEffects" v:val="VT0(16):26"/>
			</v:userDefs>
			<g id="shadow1-2" v:groupContext="shadow" v:shadowOffsetX="1.44" v:shadowOffsetY="-1.44" v:shadowType="1"
					transform="matrix(1,0,0,1,1.44,1.44)" class="st1">
				<rect x="0" y="560.25" width="85.05" height="51.75" class="st2"/>
			</g>
			<rect x="0" y="560.25" width="85.05" height="51.75" class="st3"/>
		</g>
		<g id="shape2-7" v:mID="2" v:groupContext="shape" transform="translate(156.55,-409.972)">
			<title>Cloud</title>
			<desc>IoE Proximal Net 1 (at Home)</desc>
			<v:userDefs>
				<v:ud v:nameU="solsh"/>
				<v:ud v:nameU="shapetype" v:val="VT0(1):26"/>
				<v:ud v:nameU="shapelook" v:val="VT0(2):26"/>
				<v:ud v:nameU="visVersion" v:val="VT0(14):26"/>
				<v:ud v:nameU="msvThemeColors" v:val="VT0(36):26"/>
				<v:ud v:nameU="msvThemeEffects" v:val="VT0(16):26"/>
			</v:userDefs>
			<v:textBlock v:margins="rect(0,0,0,0)"/>
			<v:textRect cx="103.5" cy="555.847" width="207" height="112.305"/>
			<g id="shadow2-8" v:groupContext="shadow" v:shadowOffsetX="1.44" v:shadowOffsetY="-1.44" v:shadowType="1"
					transform="matrix(1,0,0,1,1.44,1.44)" class="st1">
				<path d="M76.89 515.15 A32.7644 28.864 0 0 1 134.69 514.78 A24.0485 21.1856 0 0 1 176.06 521.79 A24.1857 21.3065
							 0 0 1 204.62 532.53 A18.2444 16.0725 0 0 1 194.92 552.02 A20.6036 18.1508 0 0 1 179.11 585.52 A37.1016
							 32.6848 0 0 1 127.46 602.38 A46.7275 41.1648 0 0 1 62.62 598.29 A25.715 22.6538 0 0 1 17.38 580.03 A18.5817
							 16.3697 0 0 1 17.47 547.35 A15.899 14.0063 0 1 1 30.3 521.73 A24.9245 21.9573 0 0 1 76.89 515.15 Z"
						class="st2"/>
			</g>
			<path d="M76.89 515.15 A32.7644 28.864 0 0 1 134.69 514.78 A24.0485 21.1856 0 0 1 176.06 521.79 A24.1857 21.3065 0 0
						 1 204.62 532.53 A18.2444 16.0725 0 0 1 194.92 552.02 A20.6036 18.1508 0 0 1 179.11 585.52 A37.1016 32.6848
						 0 0 1 127.46 602.38 A46.7275 41.1648 0 0 1 62.62 598.29 A25.715 22.6538 0 0 1 17.38 580.03 A18.5817 16.3697
						 0 0 1 17.47 547.35 A15.899 14.0063 0 1 1 30.3 521.73 A24.9245 21.9573 0 0 1 76.89 515.15 Z" class="st4"/>
			<text x="42.15" y="552.25" class="st5" v:langID="1033"><v:paragraph v:horizAlign="1"/><v:tabList/>IoE Proximal Net 1<v:newlineChar/><tspan
						x="74.85" dy="1.243em" class="st6">(</tspan><tspan class="st6">at Home</tspan><tspan class="st6">)</tspan></text>		</g>
		<g id="shape3-17" v:mID="3" v:groupContext="shape" transform="translate(414.85,-411.772)">
			<title>Cloud.2</title>
			<desc>IoE Proximal Net 2 (in Office)</desc>
			<v:userDefs>
				<v:ud v:nameU="solsh"/>
				<v:ud v:nameU="shapetype" v:val="VT0(1):26"/>
				<v:ud v:nameU="shapelook" v:val="VT0(2):26"/>
				<v:ud v:nameU="visVersion" v:val="VT0(14):26"/>
				<v:ud v:nameU="msvThemeColors" v:val="VT0(36):26"/>
				<v:ud v:nameU="msvThemeEffects" v:val="VT0(16):26"/>
			</v:userDefs>
			<v:textBlock v:margins="rect(0,0,0,0)"/>
			<v:textRect cx="100.125" cy="555.847" width="200.25" height="112.305"/>
			<g id="shadow3-18" v:groupContext="shadow" v:shadowOffsetX="1.44" v:shadowOffsetY="-1.44" v:shadowType="1"
					transform="matrix(1,0,0,1,1.44,1.44)" class="st1">
				<path d="M74.38 515.15 A31.696 28.864 0 0 1 130.3 514.78 A23.2643 21.1856 0 0 1 170.32 521.79 A23.397 21.3065 0 0
							 1 197.94 532.53 A17.6495 16.0725 0 0 1 188.56 552.02 A19.9317 18.1508 0 0 1 173.27 585.52 A35.8917 32.6848
							 0 0 1 123.3 602.38 A45.2037 41.1648 0 0 1 60.58 598.29 A24.8765 22.6538 0 0 1 16.82 580.03 A17.9758
							 16.3697 0 0 1 16.9 547.35 A15.3806 14.0063 0 1 1 29.31 521.73 A24.1117 21.9573 0 0 1 74.38 515.15 Z"
						class="st2"/>
			</g>
			<path d="M74.38 515.15 A31.696 28.864 0 0 1 130.3 514.78 A23.2643 21.1856 0 0 1 170.32 521.79 A23.397 21.3065 0 0 1 197.94
						 532.53 A17.6495 16.0725 0 0 1 188.56 552.02 A19.9317 18.1508 0 0 1 173.27 585.52 A35.8917 32.6848 0 0 1
						 123.3 602.38 A45.2037 41.1648 0 0 1 60.58 598.29 A24.8765 22.6538 0 0 1 16.82 580.03 A17.9758 16.3697 0
						 0 1 16.9 547.35 A15.3806 14.0063 0 1 1 29.31 521.73 A24.1117 21.9573 0 0 1 74.38 515.15 Z" class="st4"/>
			<text x="38.77" y="551.05" class="st5" v:langID="1033"><v:paragraph v:horizAlign="1"/><v:tabList/>IoE Proximal Net 2<v:newlineChar/><tspan
						x="72.06" dy="1.371em" class="st6">(</tspan><tspan class="st6">in Office</tspan><tspan class="st6">)</tspan></text>		</g>
		<g id="shape4-26" v:mID="4" v:groupContext="shape" v:layerMember="0" transform="translate(305.95,-248.422)">
			<title>Revision cloud.16</title>
			<desc>Internet</desc>
			<v:userDefs>
				<v:ud v:nameU="AntiScale" v:val="VT0(1):26"/>
				<v:ud v:nameU="visVersion" v:val="VT0(14):26"/>
				<v:ud v:nameU="msvThemeColors" v:val="VT0(36):26"/>
			</v:userDefs>
			<v:textBlock v:margins="rect(0,0,0,0)"/>
			<v:textRect cx="81" cy="557.55" width="162" height="108.9"/>
			<path d="M6.19 553.06 A20.2202 17.0047 -180 0 0 15.95 581.93 A24.7024 20.7742 -180 0 0 53.89 599.97 A24.9962 21.0213
						 -180 0 0 97.95 601.75 A29.7241 24.9974 -180 0 0 144.14 580.84 A22.9537 19.3036 -180 0 0 154.8 547.97 A18.0064
						 15.143 -180 0 0 140.59 524.07 A30.7956 25.8985 -180 0 0 87.3 515.11 A30.2646 25.4519 -180 0 0 34.01 518.09
						 A28.3479 23.84 -180 0 0 6.19 553.06 Z" class="st7"/>
			<text x="51.15" y="562.95" class="st8" v:langID="1033"><v:paragraph v:horizAlign="1"/><v:tabList/>Internet</text>		</g>
		<g id="shape5-29" v:mID="5" v:groupContext="shape" transform="translate(161.95,-88.6724)">
			<title>Cloud.4</title>
			<desc>IoE Proximal Net 3 (in Car)</desc>
			<v:userDefs>
				<v:ud v:nameU="solsh"/>
				<v:ud v:nameU="shapetype" v:val="VT0(1):26"/>
				<v:ud v:nameU="shapelook" v:val="VT0(2):26"/>
				<v:ud v:nameU="visVersion" v:val="VT0(14):26"/>
				<v:ud v:nameU="msvThemeColors" v:val="VT0(36):26"/>
				<v:ud v:nameU="msvThemeEffects" v:val="VT0(16):26"/>
			</v:userDefs>
			<v:textBlock v:margins="rect(0,0,0,0)"/>
			<v:textRect cx="100.125" cy="555.847" width="200.25" height="112.305"/>
			<g id="shadow5-30" v:groupContext="shadow" v:shadowOffsetX="1.44" v:shadowOffsetY="-1.44" v:shadowType="1"
					transform="matrix(1,0,0,1,1.44,1.44)" class="st1">
				<path d="M74.38 515.15 A31.696 28.864 0 0 1 130.3 514.78 A23.2643 21.1856 0 0 1 170.32 521.79 A23.397 21.3065 0 0
							 1 197.94 532.53 A17.6495 16.0725 0 0 1 188.56 552.02 A19.9317 18.1508 0 0 1 173.27 585.52 A35.8917 32.6848
							 0 0 1 123.3 602.38 A45.2037 41.1648 0 0 1 60.58 598.29 A24.8765 22.6538 0 0 1 16.82 580.03 A17.9758
							 16.3697 0 0 1 16.9 547.35 A15.3806 14.0063 0 1 1 29.31 521.73 A24.1117 21.9573 0 0 1 74.38 515.15 Z"
						class="st2"/>
			</g>
			<path d="M74.38 515.15 A31.696 28.864 0 0 1 130.3 514.78 A23.2643 21.1856 0 0 1 170.32 521.79 A23.397 21.3065 0 0 1 197.94
						 532.53 A17.6495 16.0725 0 0 1 188.56 552.02 A19.9317 18.1508 0 0 1 173.27 585.52 A35.8917 32.6848 0 0 1
						 123.3 602.38 A45.2037 41.1648 0 0 1 60.58 598.29 A24.8765 22.6538 0 0 1 16.82 580.03 A17.9758 16.3697 0
						 0 1 16.9 547.35 A15.3806 14.0063 0 1 1 29.31 521.73 A24.1117 21.9573 0 0 1 74.38 515.15 Z" class="st4"/>
			<text x="38.77" y="551.05" class="st5" v:langID="1033"><v:paragraph v:horizAlign="1"/><v:tabList/>IoE Proximal Net 3<v:newlineChar/><tspan
						x="79.49" dy="1.371em" class="st6">(</tspan><tspan class="st6">in Car</tspan><tspan class="st6">)</tspan></text>		</g>
		<g id="shape6-38" v:mID="6" v:groupContext="shape" transform="translate(419.35,-93.1724)">
			<title>Cloud.5</title>
			<desc>IoE Proximal Net 4 (personal mobile network)</desc>
			<v:userDefs>
				<v:ud v:nameU="solsh"/>
				<v:ud v:nameU="shapetype" v:val="VT0(1):26"/>
				<v:ud v:nameU="shapelook" v:val="VT0(2):26"/>
				<v:ud v:nameU="visVersion" v:val="VT0(14):26"/>
				<v:ud v:nameU="msvThemeColors" v:val="VT0(36):26"/>
				<v:ud v:nameU="msvThemeEffects" v:val="VT0(16):26"/>
			</v:userDefs>
			<v:textBlock v:margins="rect(0,0,0,0)"/>
			<v:textRect cx="98.55" cy="555.847" width="197.1" height="112.305"/>
			<g id="shadow6-39" v:groupContext="shadow" v:shadowOffsetX="1.44" v:shadowOffsetY="-1.44" v:shadowType="1"
					transform="matrix(1,0,0,1,1.44,1.44)" class="st1">
				<path d="M73.21 515.15 A31.1974 28.864 0 0 1 128.25 514.78 A22.8983 21.1856 0 0 1 167.64 521.79 A23.029 21.3065 0
							 0 1 194.83 532.53 A17.3719 16.0725 0 0 1 185.59 552.02 A19.6182 18.1508 0 0 1 170.54 585.52 A35.3271
							 32.6848 0 0 1 121.36 602.38 A44.4927 41.1648 0 0 1 59.62 598.29 A24.4851 22.6538 0 0 1 16.55 580.03
							 A17.693 16.3697 0 0 1 16.63 547.35 A15.1386 14.0063 0 1 1 28.85 521.73 A23.7324 21.9573 0 0 1 73.21
							 515.15 Z" class="st2"/>
			</g>
			<path d="M73.21 515.15 A31.1974 28.864 0 0 1 128.25 514.78 A22.8983 21.1856 0 0 1 167.64 521.79 A23.029 21.3065 0 0 1
						 194.83 532.53 A17.3719 16.0725 0 0 1 185.59 552.02 A19.6182 18.1508 0 0 1 170.54 585.52 A35.3271 32.6848
						 0 0 1 121.36 602.38 A44.4927 41.1648 0 0 1 59.62 598.29 A24.4851 22.6538 0 0 1 16.55 580.03 A17.693 16.3697
						 0 0 1 16.63 547.35 A15.1386 14.0063 0 1 1 28.85 521.73 A23.7324 21.9573 0 0 1 73.21 515.15 Z" class="st4"/>
			<text x="37.2" y="543.85" class="st5" v:langID="1033"><v:paragraph v:horizAlign="1"/><v:tabList/>IoE Proximal Net 4<v:newlineChar/><tspan
						x="50.52" dy="1.243em" class="st6">(</tspan><tspan class="st6">personal mobile <v:newlineChar/></tspan><tspan
						x="72.6" dy="1.2em" class="st6">network</tspan><tspan class="st6">)</tspan></text>		</g>
		<g id="shape7-48" v:mID="7" v:groupContext="shape" transform="translate(510.25,-323.797)">
			<title>Rectangle</title>
			<desc>IoE Cloud Services</desc>
			<v:userDefs>
				<v:ud v:nameU="visVersion" v:val="VT0(14):26"/>
				<v:ud v:nameU="msvThemeColors" v:val="VT0(36):26"/>
				<v:ud v:nameU="msvThemeEffects" v:val="VT0(16):26"/>
			</v:userDefs>
			<v:textBlock v:margins="rect(4,4,4,4)"/>
			<v:textRect cx="42.525" cy="588.038" width="85.05" height="47.925"/>
			<g id="shadow7-49" v:groupContext="shadow" v:shadowOffsetX="1.44" v:shadowOffsetY="-1.44" v:shadowType="1"
					transform="matrix(1,0,0,1,1.44,1.44)" class="st1">
				<rect x="0" y="564.075" width="85.05" height="47.925" class="st2"/>
			</g>
			<rect x="0" y="564.075" width="85.05" height="47.925" class="st3"/>
			<text x="15.68" y="583.84" class="st9" v:langID="1033"><v:paragraph v:horizAlign="1"/><v:tabList/>IoE Cloud <tspan
						x="19.44" dy="1.2em" class="st10">Services</tspan></text>		</g>
		<g id="shape8-55" v:mID="8" v:groupContext="shape" transform="translate(694.901,-236.65) rotate(44.27)">
			<title>Sheet.8</title>
			<v:userDefs>
				<v:ud v:nameU="msvThemeColors" v:val="VT0(36):26"/>
				<v:ud v:nameU="msvThemeEffects" v:val="VT0(16):26"/>
			</v:userDefs>
			<g id="shadow8-56" v:groupContext="shadow" v:shadowOffsetX="1.44" v:shadowOffsetY="-1.44" v:shadowType="1"
					transform="matrix(1,6.55942E-018,8.5652E-018,1,2.0363,0.0259458)" class="st1">
				<path d="M0 612 L97.38 612" class="st11"/>
			</g>
			<path d="M0 612 L97.38 612" class="st12"/>
		</g>
		<g id="shape9-62" v:mID="9" v:groupContext="shape" transform="translate(904.892,666.52) rotate(139.764)">
			<title>Sheet.9</title>
			<v:userDefs>
				<v:ud v:nameU="msvThemeColors" v:val="VT0(36):26"/>
				<v:ud v:nameU="msvThemeEffects" v:val="VT0(16):26"/>
			</v:userDefs>
			<g id="shadow9-63" v:groupContext="shadow" v:shadowOffsetX="1.44" v:shadowOffsetY="-1.44" v:shadowType="1"
					transform="matrix(1,1.71575E-017,1.71575E-017,1,-0.169119,-2.02943)" class="st1">
				<path d="M0 612 L95.79 612" class="st11"/>
			</g>
			<path d="M0 612 L95.79 612" class="st12"/>
		</g>
		<g id="shape10-69" v:mID="10" v:groupContext="shape" transform="translate(-143.582,-47.4149) rotate(-41.5167)">
			<title>Sheet.10</title>
			<v:userDefs>
				<v:ud v:nameU="msvThemeColors" v:val="VT0(36):26"/>
				<v:ud v:nameU="msvThemeEffects" v:val="VT0(16):26"/>
			</v:userDefs>
			<g id="shadow10-70" v:groupContext="shadow" v:shadowOffsetX="1.44" v:shadowOffsetY="-1.44" v:shadowType="1"
					transform="matrix(1,-2.24701E-017,-2.24701E-017,1,0.12373,2.03271)" class="st1">
				<path d="M0 612 L91.65 612" class="st11"/>
			</g>
			<path d="M0 612 L91.65 612" class="st12"/>
		</g>
		<g id="shape11-76" v:mID="11" v:groupContext="shape" transform="translate(87.8582,848.851) rotate(-136.005)">
			<title>Sheet.11</title>
			<v:userDefs>
				<v:ud v:nameU="msvThemeColors" v:val="VT0(36):26"/>
				<v:ud v:nameU="msvThemeEffects" v:val="VT0(16):26"/>
			</v:userDefs>
			<g id="shadow11-77" v:groupContext="shadow" v:shadowOffsetX="1.44" v:shadowOffsetY="-1.44" v:shadowType="1"
					transform="matrix(1,-8.48388E-018,-8.48388E-018,1,-2.03615,-0.035722)" class="st1">
				<path d="M0 612 L90.7 612" class="st11"/>
			</g>
			<path d="M0 612 L90.7 612" class="st12"/>
		</g>
		<g id="shape12-83" v:mID="12" v:groupContext="shape" transform="translate(520.381,892.251) rotate(179.094)">
			<title>Sheet.12</title>
			<v:userDefs>
				<v:ud v:nameU="msvThemeColors" v:val="VT0(36):26"/>
				<v:ud v:nameU="msvThemeEffects" v:val="VT0(16):26"/>
			</v:userDefs>
			<g id="shadow12-84" v:groupContext="shadow" v:shadowOffsetX="1.44" v:shadowOffsetY="-1.44" v:shadowType="1"
					transform="matrix(1,-1.00628E-018,-1.00628E-018,1,-1.41704,-1.4626)" class="st1">
				<path d="M0 612 L50.77 612" class="st11"/>
			</g>
			<path d="M0 612 L50.77 612" class="st12"/>
		</g>
		<g id="shape13-90" v:mID="13" v:groupContext="shape" transform="translate(514.75,-257.422)">
			<title>Rectangle.13</title>
			<v:userDefs>
				<v:ud v:nameU="visVersion" v:val="VT0(14):26"/>
				<v:ud v:nameU="msvThemeColors" v:val="VT0(36):26"/>
				<v:ud v:nameU="msvThemeEffects" v:val="VT0(16):26"/>
			</v:userDefs>
			<g id="shadow13-91" v:groupContext="shadow" v:shadowOffsetX="1.44" v:shadowOffsetY="-1.44" v:shadowType="1"
					transform="matrix(1,0,0,1,1.44,1.44)" class="st1">
				<rect x="0" y="560.25" width="85.05" height="51.75" class="st2"/>
			</g>
			<rect x="0" y="560.25" width="85.05" height="51.75" class="st13"/>
		</g>
		<g id="shape14-96" v:mID="14" v:groupContext="shape" transform="translate(509.35,-255.172)">
			<title>Rectangle.14</title>
			<desc>Existing Cloud Services</desc>
			<v:userDefs>
				<v:ud v:nameU="visVersion" v:val="VT0(14):26"/>
				<v:ud v:nameU="msvThemeColors" v:val="VT0(36):26"/>
				<v:ud v:nameU="msvThemeEffects" v:val="VT0(16):26"/>
			</v:userDefs>
			<v:textBlock v:margins="rect(4,4,4,4)"/>
			<v:textRect cx="42.525" cy="587.475" width="85.05" height="49.05"/>
			<g id="shadow14-97" v:groupContext="shadow" v:shadowOffsetX="1.44" v:shadowOffsetY="-1.44" v:shadowType="1"
					transform="matrix(1,0,0,1,1.44,1.44)" class="st1">
				<rect x="0" y="562.95" width="85.05" height="49.05" class="st2"/>
			</g>
			<rect x="0" y="562.95" width="85.05" height="49.05" class="st13"/>
			<text x="20.81" y="574.88" class="st9" v:langID="1033"><v:paragraph v:horizAlign="1"/><v:tabList/>Existing <tspan
						x="26.14" dy="1.2em" class="st10">Cloud </tspan><tspan x="19.44" dy="1.2em" class="st10">Services</tspan></text>		</g>
		<g id="shape15-104" v:mID="15" v:groupContext="shape" transform="translate(509.575,935.078) rotate(180)">
			<title>Sheet.15</title>
			<v:userDefs>
				<v:ud v:nameU="msvThemeColors" v:val="VT0(36):26"/>
				<v:ud v:nameU="msvThemeEffects" v:val="VT0(16):26"/>
			</v:userDefs>
			<g id="shadow15-105" v:groupContext="shadow" v:shadowOffsetX="1.44" v:shadowOffsetY="-1.44" v:shadowType="1"
					transform="matrix(1,0,0,1,-1.44,-1.44)" class="st1">
				<path d="M0 612 L46.12 612" class="st11"/>
			</g>
			<path d="M0 612 L46.12 612" class="st12"/>
		</g>
		<g id="shape16-111" v:mID="16" v:groupContext="shape" v:layerMember="1" transform="translate(609.25,-350.797)">
			<title>Dynamic connector</title>
			<v:userDefs>
				<v:ud v:nameU="visVersion" v:val="VT0(14):26"/>
				<v:ud v:nameU="msvThemeColors" v:val="VT0(36):26"/>
				<v:ud v:nameU="msvThemeEffects" v:val="VT0(16):26"/>
			</v:userDefs>
			<path d="M-8.55 612 L7.2 612 L7.2 679.5 L-9.45 679.5" class="st14"/>
		</g>
	</g>
</svg>
