<?xml version="1.0" encoding="UTF-8" standalone="no"?>
<!DOCTYPE svg PUBLIC "-//W3C//DTD SVG 1.0//EN" "http://www.w3.org/TR/2001/REC-SVG-20010904/DTD/svg10.dtd">
<!-- Generated by Microsoft Visio 11.0, SVG Export, v1.0 Drawing10.svg Page-1 -->
<svg xmlns="http://www.w3.org/2000/svg" xmlns:xlink="http://www.w3.org/1999/xlink" xmlns:ev="http://www.w3.org/2001/xml-events"
		xmlns:v="http://schemas.microsoft.com/visio/2003/SVGExtensions/" width="11in" height="8.5in" viewBox="0 0 792 612"
		xml:space="preserve" color-interpolation-filters="sRGB" class="st18">
	<v:documentProperties v:langID="1033" v:viewMarkup="false">
		<v:userDefs>
			<v:ud v:nameU="msvNoAutoConnect" v:val="VT0(0):26"/>
		</v:userDefs>
	</v:documentProperties>

	<style type="text/css">
	<![CDATA[
		.st1 {visibility:visible}
		.st2 {fill:#cdcdcd;fill-opacity:0.5;stroke:#cdcdcd;stroke-linecap:round;stroke-linejoin:round;stroke-opacity:0.5;stroke-width:0.25}
		.st3 {fill:url(#grad30-6);stroke:#404040;stroke-linecap:round;stroke-linejoin:round;stroke-width:0.25}
		.st4 {fill:url(#grad30-17);stroke:#404040;stroke-linecap:round;stroke-linejoin:round;stroke-width:0.25}
		.st5 {fill:#000000;font-family:Calibri;font-size:1.00001em}
		.st6 {fill:url(#grad30-29);stroke:#404040;stroke-linecap:round;stroke-linejoin:round;stroke-width:0.25}
		.st7 {font-size:1em}
		.st8 {stroke:#cdcdcd;stroke-linecap:round;stroke-linejoin:round;stroke-opacity:0.5;stroke-width:0.25}
		.st9 {stroke:#404040;stroke-linecap:round;stroke-linejoin:round;stroke-width:0.25}
		.st10 {fill:none;stroke:none;stroke-linecap:round;stroke-linejoin:round;stroke-width:0.25}
		.st11 {fill:#000000;font-family:Calibri;font-size:1.00001em;font-weight:bold}
		.st12 {fill:#c00000;font-family:Calibri;font-size:1.00001em;font-weight:bold}
		.st13 {fill:none;stroke:#cdcdcd;stroke-linecap:round;stroke-linejoin:round;stroke-opacity:0.5;stroke-width:0.25}
		.st14 {fill:none;stroke:#c00000;stroke-linecap:round;stroke-linejoin:round;stroke-width:0.25}
		.st15 {fill:none;stroke:#ffffff;stroke-linecap:round;stroke-linejoin:round;stroke-opacity:0.5;stroke-width:0.25}
		.st16 {marker-end:url(#mrkr5-169);stroke:#404040;stroke-linecap:round;stroke-linejoin:round;stroke-width:1}
		.st17 {fill:#404040;fill-opacity:1;stroke:#404040;stroke-opacity:1;stroke-width:0.28409090909091}
		.st18 {fill:none;fill-rule:evenodd;font-size:12px;overflow:visible;stroke-linecap:square;stroke-miterlimit:3}
	]]>
	</style>

	<defs id="Patterns_And_Gradients">
		<linearGradient id="grad30-6" v:fillPattern="30" v:foreground="#f0f0f0" v:background="#ffffff" x1="0" y1="1" x2="0" y2="0">
			<stop offset="0" style="stop-color:#f0f0f0;stop-opacity:1"/>
			<stop offset="1" style="stop-color:#ffffff;stop-opacity:1"/>
		</linearGradient>
		<linearGradient id="grad30-17" v:fillPattern="30" v:foreground="#a4afd7" v:background="#b8c1e0" x1="0" y1="1" x2="0" y2="0">
			<stop offset="0" style="stop-color:#a4afd7;stop-opacity:1"/>
			<stop offset="1" style="stop-color:#b8c1e0;stop-opacity:1"/>
		</linearGradient>
		<linearGradient id="grad30-29" v:fillPattern="30" v:foreground="#f2c59f" v:background="#f6d5b9" x1="0" y1="1" x2="0" y2="0">
			<stop offset="0" style="stop-color:#f2c59f;stop-opacity:1"/>
			<stop offset="1" style="stop-color:#f6d5b9;stop-opacity:1"/>
		</linearGradient>
	</defs>
	<defs id="Markers">
		<g id="lend5">
			<path d="M 2 1 L 0 0 L 1.98117 -0.993387 C 1.67173 -0.364515 1.67301 0.372641 1.98465 1.00043 " style="stroke:none"/>
		</g>
		<marker id="mrkr5-169" class="st17" v:arrowType="5" v:arrowSize="2" v:setback="0" refX="-0" orient="auto"
				markerUnits="strokeWidth" overflow="visible">
			<use xlink:href="#lend5" transform="scale(-3.52,-3.52) "/>
		</marker>
	</defs>
	<g v:mID="0" v:index="1" v:groupContext="foregroundPage">
		<v:userDefs>
			<v:ud v:nameU="msvThemeColors" v:val="VT0(36):26"/>
			<v:ud v:nameU="msvThemeEffects" v:val="VT0(16):26"/>
			<v:ud v:nameU="msvThemeOrder" v:val="VT0(0):26"/>
		</v:userDefs>
		<title>Page-1</title>
		<v:pageProperties v:drawingScale="1" v:pageScale="1" v:drawingUnits="0" v:shadowOffsetX="9" v:shadowOffsetY="-9"/>
		<v:layer v:name="Connector" v:index="0"/>
		<g id="shape1-1" v:mID="1" v:groupContext="shape" transform="translate(193.613,-316.5)">
			<title>Rectangle.21</title>
			<v:userDefs>
				<v:ud v:nameU="visVersion" v:val="VT0(14):26"/>
				<v:ud v:nameU="msvThemeColors" v:val="VT0(36):26"/>
				<v:ud v:nameU="msvThemeEffects" v:val="VT0(16):26"/>
			</v:userDefs>
			<g id="shadow1-2" v:groupContext="shadow" v:shadowOffsetX="1.44" v:shadowOffsetY="-1.44" v:shadowType="1"
					transform="matrix(1,0,0,1,1.44,1.44)" class="st1">
				<rect x="0" y="477" width="216" height="135" class="st2"/>
			</g>
			<rect x="0" y="477" width="216" height="135" class="st3"/>
		</g>
		<g id="shape2-7" v:mID="2" v:groupContext="shape" transform="translate(300.863,-147)">
			<title>Rectangle.20</title>
			<v:userDefs>
				<v:ud v:nameU="visVersion" v:val="VT0(14):26"/>
				<v:ud v:nameU="msvThemeColors" v:val="VT0(36):26"/>
				<v:ud v:nameU="msvThemeEffects" v:val="VT0(16):26"/>
			</v:userDefs>
			<g id="shadow2-8" v:groupContext="shadow" v:shadowOffsetX="1.44" v:shadowOffsetY="-1.44" v:shadowType="1"
					transform="matrix(1,0,0,1,1.44,1.44)" class="st1">
				<rect x="0" y="477" width="171" height="135" class="st2"/>
			</g>
			<rect x="0" y="477" width="171" height="135" class="st3"/>
		</g>
		<g id="shape3-12" v:mID="3" v:groupContext="shape" transform="translate(207.613,-339)">
			<title>Rectangle.22</title>
			<v:userDefs>
				<v:ud v:nameU="visVersion" v:val="VT0(14):26"/>
				<v:ud v:nameU="msvThemeColors" v:val="VT0(36):26"/>
				<v:ud v:nameU="msvThemeEffects" v:val="VT0(16):26"/>
			</v:userDefs>
			<g id="shadow3-13" v:groupContext="shadow" v:shadowOffsetX="1.44" v:shadowOffsetY="-1.44" v:shadowType="1"
					transform="matrix(1,0,0,1,1.44,1.44)" class="st1">
				<rect x="0" y="513" width="81" height="99" class="st2"/>
			</g>
			<rect x="0" y="513" width="81" height="99" class="st4"/>
		</g>
		<g id="shape4-18" v:mID="4" v:groupContext="shape" transform="translate(216.613,-403.699)">
			<title>Rounded rectangle.23</title>
			<desc>App1</desc>
			<v:userDefs>
				<v:ud v:nameU="visVersion" v:val="VT0(14):26"/>
				<v:ud v:nameU="msvThemeColors" v:val="VT0(36):26"/>
				<v:ud v:nameU="msvThemeEffects" v:val="VT0(16):26"/>
			</v:userDefs>
			<v:textBlock v:margins="rect(4,4,4,4)"/>
			<v:textRect cx="30.8558" cy="601.599" width="61.72" height="20.8013"/>
			<g id="shadow4-19" v:groupContext="shadow" v:shadowOffsetX="1.44" v:shadowOffsetY="-1.44" v:shadowType="1"
					transform="matrix(1,0,0,1,1.44,1.44)" class="st1">
				<path d="M52.71 612 A9.00007 9.00007 -180 0 0 61.71 603 L61.71 600.2 A9.00007 9.00007 -180 0 0 52.71 591.2 L9 591.2
							 A9.00007 9.00007 -180 0 0 -0 600.2 L0 603 A9.00007 9.00007 -180 0 0 9 612 L52.71 612 Z" class="st2"/>
			</g>
			<path d="M52.71 612 A9.00007 9.00007 -180 0 0 61.71 603 L61.71 600.2 A9.00007 9.00007 -180 0 0 52.71 591.2 L9 591.2 A9.00007
						 9.00007 -180 0 0 -0 600.2 L0 603 A9.00007 9.00007 -180 0 0 9 612 L52.71 612 Z" class="st3"/>
			<text x="18.04" y="605.2" class="st5" v:langID="1033"><v:paragraph v:horizAlign="1"/><v:tabList/>App1</text>		</g>
		<g id="shape5-24" v:mID="5" v:groupContext="shape" transform="translate(216.613,-352.5)">
			<title>Rounded rectangle.24</title>
			<desc>AllJoyn Router</desc>
			<v:userDefs>
				<v:ud v:nameU="visVersion" v:val="VT0(14):26"/>
				<v:ud v:nameU="msvThemeColors" v:val="VT0(36):26"/>
				<v:ud v:nameU="msvThemeEffects" v:val="VT0(16):26"/>
			</v:userDefs>
			<v:textBlock v:margins="rect(4,4,4,4)"/>
			<v:textRect cx="30.8558" cy="599.631" width="61.72" height="24.7372"/>
			<g id="shadow5-25" v:groupContext="shadow" v:shadowOffsetX="1.44" v:shadowOffsetY="-1.44" v:shadowType="1"
					transform="matrix(1,0,0,1,1.44,1.44)" class="st1">
				<path d="M52.71 612 A9.00007 9.00007 -180 0 0 61.71 603 L61.71 596.26 A9.00007 9.00007 -180 0 0 52.71 587.26 L9 587.26
							 A9.00007 9.00007 -180 0 0 -0 596.26 L0 603 A9.00007 9.00007 -180 0 0 9 612 L52.71 612 Z" class="st2"/>
			</g>
			<path d="M52.71 612 A9.00007 9.00007 -180 0 0 61.71 603 L61.71 596.26 A9.00007 9.00007 -180 0 0 52.71 587.26 L9 587.26
						 A9.00007 9.00007 -180 0 0 -0 596.26 L0 603 A9.00007 9.00007 -180 0 0 9 612 L52.71 612 Z" class="st6"/>
			<text x="13.68" y="596.03" class="st5" v:langID="1033"><v:paragraph v:horizAlign="1"/><v:tabList/>AllJoyn <v:newlineChar/><tspan
						x="14.19" dy="1.2em" class="st7">Router</tspan></text>		</g>
		<g id="shape6-32" v:mID="6" v:groupContext="shape" transform="translate(-364.531,234.763) rotate(-90)">
			<title>Sheet.6</title>
			<v:userDefs>
				<v:ud v:nameU="msvThemeColors" v:val="VT0(36):26"/>
				<v:ud v:nameU="msvThemeEffects" v:val="VT0(16):26"/>
			</v:userDefs>
			<g id="shadow6-33" v:groupContext="shadow" v:shadowOffsetX="1.44" v:shadowOffsetY="-1.44" v:shadowType="1"
					transform="matrix(1,0,0,1,-1.44,1.44)" class="st1">
				<path d="M0 612 L26.46 612" class="st8"/>
			</g>
			<path d="M0 612 L26.46 612" class="st9"/>
		</g>
		<g id="shape7-39" v:mID="7" v:groupContext="shape" transform="translate(313.88,-230.017)">
			<title>Rounded rectangle.7</title>
			<desc>App1</desc>
			<v:userDefs>
				<v:ud v:nameU="visVersion" v:val="VT0(14):26"/>
				<v:ud v:nameU="msvThemeColors" v:val="VT0(36):26"/>
				<v:ud v:nameU="msvThemeEffects" v:val="VT0(16):26"/>
			</v:userDefs>
			<v:textBlock v:margins="rect(4,4,4,4)"/>
			<v:textRect cx="31.9834" cy="599.509" width="63.97" height="24.9828"/>
			<g id="shadow7-40" v:groupContext="shadow" v:shadowOffsetX="1.44" v:shadowOffsetY="-1.44" v:shadowType="1"
					transform="matrix(1,0,0,1,1.44,1.44)" class="st1">
				<path d="M54.97 612 A9.00007 9.00007 -180 0 0 63.97 603 L63.97 596.02 A9.00007 9.00007 -180 0 0 54.97 587.02 L9 587.02
							 A9.00007 9.00007 -180 0 0 -0 596.02 L0 603 A9.00007 9.00007 -180 0 0 9 612 L54.97 612 Z" class="st2"/>
			</g>
			<path d="M54.97 612 A9.00007 9.00007 -180 0 0 63.97 603 L63.97 596.02 A9.00007 9.00007 -180 0 0 54.97 587.02 L9 587.02
						 A9.00007 9.00007 -180 0 0 -0 596.02 L0 603 A9.00007 9.00007 -180 0 0 9 612 L54.97 612 Z" class="st3"/>
			<text x="19.17" y="603.11" class="st5" v:langID="1033"><v:paragraph v:horizAlign="1"/><v:tabList/>App1</text>		</g>
		<g id="shape8-45" v:mID="8" v:groupContext="shape" transform="translate(309.863,-174)">
			<title>Rounded rectangle.27</title>
			<desc>AllJoyn Router</desc>
			<v:userDefs>
				<v:ud v:nameU="visVersion" v:val="VT0(14):26"/>
				<v:ud v:nameU="msvThemeColors" v:val="VT0(36):26"/>
				<v:ud v:nameU="msvThemeEffects" v:val="VT0(16):26"/>
			</v:userDefs>
			<v:textBlock v:margins="rect(4,4,4,4)"/>
			<v:textRect cx="76.5" cy="599.509" width="153" height="24.9828"/>
			<g id="shadow8-46" v:groupContext="shadow" v:shadowOffsetX="1.44" v:shadowOffsetY="-1.44" v:shadowType="1"
					transform="matrix(1,0,0,1,1.44,1.44)" class="st1">
				<path d="M144 612 A9.00007 9.00007 -180 0 0 153 603 L153 596.02 A9.00007 9.00007 -180 0 0 144 587.02 L9 587.02 A9.00007
							 9.00007 -180 0 0 -0 596.02 L0 603 A9.00007 9.00007 -180 0 0 9 612 L144 612 Z" class="st2"/>
			</g>
			<path d="M144 612 A9.00007 9.00007 -180 0 0 153 603 L153 596.02 A9.00007 9.00007 -180 0 0 144 587.02 L9 587.02 A9.00007
						 9.00007 -180 0 0 -0 596.02 L0 603 A9.00007 9.00007 -180 0 0 9 612 L144 612 Z" class="st6"/>
			<text x="41.31" y="603.11" class="st5" v:langID="1033"><v:paragraph v:horizAlign="1"/><v:tabList/>AllJoyn Router</text>		</g>
		<g id="shape9-51" v:mID="9" v:groupContext="shape" transform="translate(-266.137,413.017) rotate(-90)">
			<title>Sheet.9</title>
			<v:userDefs>
				<v:ud v:nameU="msvThemeColors" v:val="VT0(36):26"/>
				<v:ud v:nameU="msvThemeEffects" v:val="VT0(16):26"/>
			</v:userDefs>
			<g id="shadow9-52" v:groupContext="shadow" v:shadowOffsetX="1.44" v:shadowOffsetY="-1.44" v:shadowType="1"
					transform="matrix(1,0,0,1,-1.44,1.44)" class="st1">
				<path d="M0 612 L31.03 612" class="st8"/>
			</g>
			<path d="M0 612 L31.03 612" class="st9"/>
		</g>
		<g id="shape10-58" v:mID="10" v:groupContext="shape" transform="translate(-185.137,410.951) rotate(-90)">
			<title>Sheet.10</title>
			<v:userDefs>
				<v:ud v:nameU="msvThemeColors" v:val="VT0(36):26"/>
				<v:ud v:nameU="msvThemeEffects" v:val="VT0(16):26"/>
			</v:userDefs>
			<g id="shadow10-59" v:groupContext="shadow" v:shadowOffsetX="1.44" v:shadowOffsetY="-1.44" v:shadowType="1"
					transform="matrix(1,0,0,1,-1.44,1.44)" class="st1">
				<path d="M0 612 L28.97 612" class="st8"/>
			</g>
			<path d="M0 612 L28.97 612" class="st9"/>
		</g>
		<g id="shape11-65" v:mID="11" v:groupContext="shape" transform="translate(214.77,-452.25)">
			<title>Sheet.11</title>
			<desc>Bundled AllJoyn Router (UC1)</desc>
			<v:userDefs>
				<v:ud v:nameU="msvThemeColors" v:val="VT0(36):26"/>
				<v:ud v:nameU="msvThemeEffects" v:val="VT0(16):26"/>
			</v:userDefs>
			<v:textBlock v:margins="rect(4,4,4,4)"/>
			<v:textRect cx="87.1825" cy="605.25" width="174.37" height="13.5"/>
			<rect x="0" y="598.5" width="174.365" height="13.5" class="st10"/>
			<text x="13.59" y="608.85" class="st11" v:langID="1033"><v:paragraph v:horizAlign="1"/><v:tabList/>Bundled AllJoyn Router (UC1)</text>		</g>
		<g id="shape12-68" v:mID="12" v:groupContext="shape" transform="translate(291.883,-280.5)">
			<title>Sheet.12</title>
			<desc>Standalone AllJoyn Router (UC3)</desc>
			<v:userDefs>
				<v:ud v:nameU="msvThemeColors" v:val="VT0(36):26"/>
				<v:ud v:nameU="msvThemeEffects" v:val="VT0(16):26"/>
			</v:userDefs>
			<v:textBlock v:margins="rect(4,4,4,4)"/>
			<v:textRect cx="95.1706" cy="604.125" width="190.35" height="15.75"/>
			<rect x="0" y="596.25" width="190.341" height="15.75" class="st10"/>
			<text x="14.1" y="607.73" class="st11" v:langID="1033"><v:paragraph v:horizAlign="1"/><v:tabList/>Standalone AllJoyn Router (UC3)</text>		</g>
		<g id="shape13-71" v:mID="13" v:groupContext="shape" transform="translate(394.88,-230.017)">
			<title>Rounded rectangle.32</title>
			<desc>App2</desc>
			<v:userDefs>
				<v:ud v:nameU="visVersion" v:val="VT0(14):26"/>
				<v:ud v:nameU="msvThemeColors" v:val="VT0(36):26"/>
				<v:ud v:nameU="msvThemeEffects" v:val="VT0(16):26"/>
			</v:userDefs>
			<v:textBlock v:margins="rect(4,4,4,4)"/>
			<v:textRect cx="31.9834" cy="599.509" width="63.97" height="24.9828"/>
			<g id="shadow13-72" v:groupContext="shadow" v:shadowOffsetX="1.44" v:shadowOffsetY="-1.44" v:shadowType="1"
					transform="matrix(1,0,0,1,1.44,1.44)" class="st1">
				<path d="M54.97 612 A9.00007 9.00007 -180 0 0 63.97 603 L63.97 596.02 A9.00007 9.00007 -180 0 0 54.97 587.02 L9 587.02
							 A9.00007 9.00007 -180 0 0 -0 596.02 L0 603 A9.00007 9.00007 -180 0 0 9 612 L54.97 612 Z" class="st2"/>
			</g>
			<path d="M54.97 612 A9.00007 9.00007 -180 0 0 63.97 603 L63.97 596.02 A9.00007 9.00007 -180 0 0 54.97 587.02 L9 587.02
						 A9.00007 9.00007 -180 0 0 -0 596.02 L0 603 A9.00007 9.00007 -180 0 0 9 612 L54.97 612 Z" class="st3"/>
			<text x="19.17" y="603.11" class="st5" v:langID="1033"><v:paragraph v:horizAlign="1"/><v:tabList/>App2</text>		</g>
		<g id="shape14-77" v:mID="14" v:groupContext="shape" transform="translate(313.113,-339)">
			<title>Rectangle.33</title>
			<v:userDefs>
				<v:ud v:nameU="visVersion" v:val="VT0(14):26"/>
				<v:ud v:nameU="msvThemeColors" v:val="VT0(36):26"/>
				<v:ud v:nameU="msvThemeEffects" v:val="VT0(16):26"/>
			</v:userDefs>
			<g id="shadow14-78" v:groupContext="shadow" v:shadowOffsetX="1.44" v:shadowOffsetY="-1.44" v:shadowType="1"
					transform="matrix(1,0,0,1,1.44,1.44)" class="st1">
				<rect x="0" y="513" width="81" height="99" class="st2"/>
			</g>
			<rect x="0" y="513" width="81" height="99" class="st4"/>
		</g>
		<g id="shape15-82" v:mID="15" v:groupContext="shape" transform="translate(322.113,-403.699)">
			<title>Rounded rectangle.34</title>
			<desc>App2</desc>
			<v:userDefs>
				<v:ud v:nameU="visVersion" v:val="VT0(14):26"/>
				<v:ud v:nameU="msvThemeColors" v:val="VT0(36):26"/>
				<v:ud v:nameU="msvThemeEffects" v:val="VT0(16):26"/>
			</v:userDefs>
			<v:textBlock v:margins="rect(4,4,4,4)"/>
			<v:textRect cx="30.8558" cy="601.599" width="61.72" height="20.8013"/>
			<g id="shadow15-83" v:groupContext="shadow" v:shadowOffsetX="1.44" v:shadowOffsetY="-1.44" v:shadowType="1"
					transform="matrix(1,0,0,1,1.44,1.44)" class="st1">
				<path d="M52.71 612 A9.00007 9.00007 -180 0 0 61.71 603 L61.71 600.2 A9.00007 9.00007 -180 0 0 52.71 591.2 L9 591.2
							 A9.00007 9.00007 -180 0 0 -0 600.2 L0 603 A9.00007 9.00007 -180 0 0 9 612 L52.71 612 Z" class="st2"/>
			</g>
			<path d="M52.71 612 A9.00007 9.00007 -180 0 0 61.71 603 L61.71 600.2 A9.00007 9.00007 -180 0 0 52.71 591.2 L9 591.2 A9.00007
						 9.00007 -180 0 0 -0 600.2 L0 603 A9.00007 9.00007 -180 0 0 9 612 L52.71 612 Z" class="st3"/>
			<text x="18.04" y="605.2" class="st5" v:langID="1033"><v:paragraph v:horizAlign="1"/><v:tabList/>App2</text>		</g>
		<g id="shape16-88" v:mID="16" v:groupContext="shape" transform="translate(322.113,-352.5)">
			<title>Rounded rectangle.35</title>
			<desc>AllJoyn Router</desc>
			<v:userDefs>
				<v:ud v:nameU="visVersion" v:val="VT0(14):26"/>
				<v:ud v:nameU="msvThemeColors" v:val="VT0(36):26"/>
				<v:ud v:nameU="msvThemeEffects" v:val="VT0(16):26"/>
			</v:userDefs>
			<v:textBlock v:margins="rect(4,4,4,4)"/>
			<v:textRect cx="30.8558" cy="599.631" width="61.72" height="24.7372"/>
			<g id="shadow16-89" v:groupContext="shadow" v:shadowOffsetX="1.44" v:shadowOffsetY="-1.44" v:shadowType="1"
					transform="matrix(1,0,0,1,1.44,1.44)" class="st1">
				<path d="M52.71 612 A9.00007 9.00007 -180 0 0 61.71 603 L61.71 596.26 A9.00007 9.00007 -180 0 0 52.71 587.26 L9 587.26
							 A9.00007 9.00007 -180 0 0 -0 596.26 L0 603 A9.00007 9.00007 -180 0 0 9 612 L52.71 612 Z" class="st2"/>
			</g>
			<path d="M52.71 612 A9.00007 9.00007 -180 0 0 61.71 603 L61.71 596.26 A9.00007 9.00007 -180 0 0 52.71 587.26 L9 587.26
						 A9.00007 9.00007 -180 0 0 -0 596.26 L0 603 A9.00007 9.00007 -180 0 0 9 612 L52.71 612 Z" class="st6"/>
			<text x="13.68" y="596.03" class="st5" v:langID="1033"><v:paragraph v:horizAlign="1"/><v:tabList/>AllJoyn <v:newlineChar/><tspan
						x="14.19" dy="1.2em" class="st7">Router</tspan></text>		</g>
		<g id="shape17-95" v:mID="17" v:groupContext="shape" transform="translate(-259.031,234.763) rotate(-90)">
			<title>Sheet.17</title>
			<v:userDefs>
				<v:ud v:nameU="msvThemeColors" v:val="VT0(36):26"/>
				<v:ud v:nameU="msvThemeEffects" v:val="VT0(16):26"/>
			</v:userDefs>
			<g id="shadow17-96" v:groupContext="shadow" v:shadowOffsetX="1.44" v:shadowOffsetY="-1.44" v:shadowType="1"
					transform="matrix(1,0,0,1,-1.44,1.44)" class="st1">
				<path d="M0 612 L26.46 612" class="st8"/>
			</g>
			<path d="M0 612 L26.46 612" class="st9"/>
		</g>
		<g id="shape18-102" v:mID="18" v:groupContext="shape" transform="translate(247.613,-327.75)">
			<title>Sheet.18</title>
			<desc>AllJoyn Bus</desc>
			<v:userDefs>
				<v:ud v:nameU="msvThemeColors" v:val="VT0(36):26"/>
				<v:ud v:nameU="msvThemeEffects" v:val="VT0(16):26"/>
			</v:userDefs>
			<v:textBlock v:margins="rect(4,4,4,4)"/>
			<v:textRect cx="52" cy="604" width="104" height="16"/>
			<rect x="0" y="596" width="104" height="16" class="st10"/>
			<text x="23.81" y="607.6" class="st12" v:langID="1033"><v:paragraph v:horizAlign="1"/><v:tabList/>AllJoyn Bus</text>		</g>
		<g id="shape19-105" v:mID="19" v:groupContext="shape" transform="translate(300.863,-153.75)">
			<title>Ellipse.42</title>
			<v:userDefs>
				<v:ud v:nameU="visVersion" v:val="VT0(14):26"/>
				<v:ud v:nameU="msvThemeColors" v:val="VT0(36):26"/>
				<v:ud v:nameU="msvThemeEffects" v:val="VT0(16):26"/>
			</v:userDefs>
			<g id="shadow19-106" v:groupContext="shadow" v:shadowOffsetX="1.44" v:shadowOffsetY="-1.44" v:shadowType="1"
					transform="matrix(1,0,0,1,1.44,1.44)" class="st1">
				<path d="M0 582.75 A85.5 29.25 0 0 1 171 582.75 A85.5 29.25 0 1 1 0 582.75 Z" class="st13"/>
			</g>
			<path d="M0 582.75 A85.5 29.25 0 0 1 171 582.75 A85.5 29.25 0 1 1 0 582.75 Z" class="st14"/>
		</g>
		<g id="shape20-109" v:mID="20" v:groupContext="shape" transform="translate(331.863,-158.25)">
			<title>Sheet.20</title>
			<desc>AllJoyn Bus</desc>
			<v:userDefs>
				<v:ud v:nameU="msvThemeColors" v:val="VT0(36):26"/>
				<v:ud v:nameU="msvThemeEffects" v:val="VT0(16):26"/>
			</v:userDefs>
			<v:textBlock v:margins="rect(4,4,4,4)"/>
			<v:textRect cx="52" cy="607.5" width="104" height="9"/>
			<rect x="0" y="603" width="104" height="9" class="st10"/>
			<text x="23.81" y="611.1" class="st12" v:langID="1033"><v:paragraph v:horizAlign="1"/><v:tabList/>AllJoyn Bus</text>		</g>
		<g id="shape21-112" v:mID="21" v:groupContext="shape" transform="translate(322.113,859.131) rotate(180)">
			<title>Sheet.21</title>
			<v:userDefs>
				<v:ud v:nameU="msvThemeColors" v:val="VT0(36):26"/>
				<v:ud v:nameU="msvThemeEffects" v:val="VT0(16):26"/>
			</v:userDefs>
			<g id="shadow21-113" v:groupContext="shadow" v:shadowOffsetX="1.44" v:shadowOffsetY="-1.44" v:shadowType="1"
					transform="matrix(1,0,0,1,-1.44,-1.44)" class="st1">
				<path d="M0 612 L43.79 612" class="st8"/>
			</g>
			<path d="M0 612 L43.79 612" class="st9"/>
		</g>
		<g id="shape22-119" v:mID="22" v:groupContext="shape" transform="translate(193.613,-327.75)">
			<title>Ellipse</title>
			<v:userDefs>
				<v:ud v:nameU="visVersion" v:val="VT0(14):26"/>
				<v:ud v:nameU="msvThemeColors" v:val="VT0(36):26"/>
				<v:ud v:nameU="msvThemeEffects" v:val="VT0(16):26"/>
			</v:userDefs>
			<g id="shadow22-120" v:groupContext="shadow" v:shadowOffsetX="1.44" v:shadowOffsetY="-1.44" v:shadowType="1"
					transform="matrix(1,0,0,1,1.44,1.44)" class="st1">
				<path d="M0 582.75 A108 29.25 0 0 1 216 582.75 A108 29.25 0 1 1 0 582.75 Z" class="st15"/>
			</g>
			<path d="M0 582.75 A108 29.25 0 0 1 216 582.75 A108 29.25 0 1 1 0 582.75 Z" class="st14"/>
		</g>
		<g id="shape23-123" v:mID="23" v:groupContext="shape" transform="translate(436.613,-315.75)">
			<title>Rectangle.13</title>
			<v:userDefs>
				<v:ud v:nameU="visVersion" v:val="VT0(14):26"/>
				<v:ud v:nameU="msvThemeColors" v:val="VT0(36):26"/>
				<v:ud v:nameU="msvThemeEffects" v:val="VT0(16):26"/>
			</v:userDefs>
			<g id="shadow23-124" v:groupContext="shadow" v:shadowOffsetX="1.44" v:shadowOffsetY="-1.44" v:shadowType="1"
					transform="matrix(1,0,0,1,1.44,1.44)" class="st1">
				<rect x="0" y="477" width="140.625" height="135" class="st2"/>
			</g>
			<rect x="0" y="477" width="140.625" height="135" class="st3"/>
		</g>
		<g id="shape24-128" v:mID="24" v:groupContext="shape" transform="translate(466.988,-338.25)">
			<title>Rectangle.18</title>
			<v:userDefs>
				<v:ud v:nameU="visVersion" v:val="VT0(14):26"/>
				<v:ud v:nameU="msvThemeColors" v:val="VT0(36):26"/>
				<v:ud v:nameU="msvThemeEffects" v:val="VT0(16):26"/>
			</v:userDefs>
			<g id="shadow24-129" v:groupContext="shadow" v:shadowOffsetX="1.44" v:shadowOffsetY="-1.44" v:shadowType="1"
					transform="matrix(1,0,0,1,1.44,1.44)" class="st1">
				<rect x="0" y="513" width="81" height="99" class="st2"/>
			</g>
			<rect x="0" y="513" width="81" height="99" class="st4"/>
		</g>
		<g id="shape25-133" v:mID="25" v:groupContext="shape" transform="translate(475.988,-402.949)">
			<title>Rounded rectangle.41</title>
			<desc>App1</desc>
			<v:userDefs>
				<v:ud v:nameU="visVersion" v:val="VT0(14):26"/>
				<v:ud v:nameU="msvThemeColors" v:val="VT0(36):26"/>
				<v:ud v:nameU="msvThemeEffects" v:val="VT0(16):26"/>
			</v:userDefs>
			<v:textBlock v:margins="rect(4,4,4,4)"/>
			<v:textRect cx="30.8558" cy="601.599" width="61.72" height="20.8013"/>
			<g id="shadow25-134" v:groupContext="shadow" v:shadowOffsetX="1.44" v:shadowOffsetY="-1.44" v:shadowType="1"
					transform="matrix(1,0,0,1,1.44,1.44)" class="st1">
				<path d="M52.71 612 A9.00007 9.00007 -180 0 0 61.71 603 L61.71 600.2 A9.00007 9.00007 -180 0 0 52.71 591.2 L9 591.2
							 A9.00007 9.00007 -180 0 0 -0 600.2 L0 603 A9.00007 9.00007 -180 0 0 9 612 L52.71 612 Z" class="st2"/>
			</g>
			<path d="M52.71 612 A9.00007 9.00007 -180 0 0 61.71 603 L61.71 600.2 A9.00007 9.00007 -180 0 0 52.71 591.2 L9 591.2 A9.00007
						 9.00007 -180 0 0 -0 600.2 L0 603 A9.00007 9.00007 -180 0 0 9 612 L52.71 612 Z" class="st3"/>
			<text x="18.04" y="605.2" class="st5" v:langID="1033"><v:paragraph v:horizAlign="1"/><v:tabList/>App1</text>		</g>
		<g id="shape26-139" v:mID="26" v:groupContext="shape" transform="translate(475.988,-351.75)">
			<title>Rounded rectangle.44</title>
			<desc>AllJoyn Router</desc>
			<v:userDefs>
				<v:ud v:nameU="visVersion" v:val="VT0(14):26"/>
				<v:ud v:nameU="msvThemeColors" v:val="VT0(36):26"/>
				<v:ud v:nameU="msvThemeEffects" v:val="VT0(16):26"/>
			</v:userDefs>
			<v:textBlock v:margins="rect(4,4,4,4)"/>
			<v:textRect cx="30.8558" cy="599.631" width="61.72" height="24.7372"/>
			<g id="shadow26-140" v:groupContext="shadow" v:shadowOffsetX="1.44" v:shadowOffsetY="-1.44" v:shadowType="1"
					transform="matrix(1,0,0,1,1.44,1.44)" class="st1">
				<path d="M52.71 612 A9.00007 9.00007 -180 0 0 61.71 603 L61.71 596.26 A9.00007 9.00007 -180 0 0 52.71 587.26 L9 587.26
							 A9.00007 9.00007 -180 0 0 -0 596.26 L0 603 A9.00007 9.00007 -180 0 0 9 612 L52.71 612 Z" class="st2"/>
			</g>
			<path d="M52.71 612 A9.00007 9.00007 -180 0 0 61.71 603 L61.71 596.26 A9.00007 9.00007 -180 0 0 52.71 587.26 L9 587.26
						 A9.00007 9.00007 -180 0 0 -0 596.26 L0 603 A9.00007 9.00007 -180 0 0 9 612 L52.71 612 Z" class="st6"/>
			<text x="13.68" y="596.03" class="st5" v:langID="1033"><v:paragraph v:horizAlign="1"/><v:tabList/>AllJoyn <v:newlineChar/><tspan
						x="14.19" dy="1.2em" class="st7">Router</tspan></text>		</g>
		<g id="shape27-146" v:mID="27" v:groupContext="shape" transform="translate(-105.156,235.513) rotate(-90)">
			<title>Sheet.27</title>
			<v:userDefs>
				<v:ud v:nameU="msvThemeColors" v:val="VT0(36):26"/>
				<v:ud v:nameU="msvThemeEffects" v:val="VT0(16):26"/>
			</v:userDefs>
			<g id="shadow27-147" v:groupContext="shadow" v:shadowOffsetX="1.44" v:shadowOffsetY="-1.44" v:shadowType="1"
					transform="matrix(1,0,0,1,-1.44,1.44)" class="st1">
				<path d="M0 612 L26.46 612" class="st8"/>
			</g>
			<path d="M0 612 L26.46 612" class="st9"/>
		</g>
		<g id="shape28-153" v:mID="28" v:groupContext="shape" transform="translate(422.363,-452.25)">
			<title>Sheet.28</title>
			<desc>Bundled AllJoyn Router (UC2)</desc>
			<v:userDefs>
				<v:ud v:nameU="msvThemeColors" v:val="VT0(36):26"/>
				<v:ud v:nameU="msvThemeEffects" v:val="VT0(16):26"/>
			</v:userDefs>
			<v:textBlock v:margins="rect(4,4,4,4)"/>
			<v:textRect cx="88.0119" cy="605.25" width="176.03" height="13.5"/>
			<rect x="0" y="598.5" width="176.024" height="13.5" class="st10"/>
			<text x="14.42" y="608.85" class="st11" v:langID="1033"><v:paragraph v:horizAlign="1"/><v:tabList/>Bundled AllJoyn Router (UC2)</text>		</g>
		<g id="shape29-156" v:mID="29" v:groupContext="shape" transform="translate(457.238,-329.25)">
			<title>Sheet.29</title>
			<desc>AllJoyn Bus</desc>
			<v:userDefs>
				<v:ud v:nameU="msvThemeColors" v:val="VT0(36):26"/>
				<v:ud v:nameU="msvThemeEffects" v:val="VT0(16):26"/>
			</v:userDefs>
			<v:textBlock v:margins="rect(4,4,4,4)"/>
			<v:textRect cx="52" cy="604" width="104" height="16"/>
			<rect x="0" y="596" width="104" height="16" class="st10"/>
			<text x="23.81" y="607.6" class="st12" v:langID="1033"><v:paragraph v:horizAlign="1"/><v:tabList/>AllJoyn Bus</text>		</g>
		<g id="shape30-159" v:mID="30" v:groupContext="shape" transform="translate(444.488,-327)">
			<title>Ellipse.53</title>
			<v:userDefs>
				<v:ud v:nameU="visVersion" v:val="VT0(14):26"/>
				<v:ud v:nameU="msvThemeColors" v:val="VT0(36):26"/>
				<v:ud v:nameU="msvThemeEffects" v:val="VT0(16):26"/>
			</v:userDefs>
			<g id="shadow30-160" v:groupContext="shadow" v:shadowOffsetX="1.44" v:shadowOffsetY="-1.44" v:shadowType="1"
					transform="matrix(1,0,0,1,1.44,1.44)" class="st1">
				<path d="M0 582.75 A63.5625 29.25 0 0 1 127.12 582.75 A63.5625 29.25 0 0 1 0 582.75 Z" class="st13"/>
			</g>
			<path d="M0 582.75 A63.5625 29.25 0 0 1 127.12 582.75 A63.5625 29.25 0 0 1 0 582.75 Z" class="st14"/>
		</g>
		<g id="shape31-163" v:mID="31" v:groupContext="shape" v:layerMember="0" transform="translate(497.926,-442.5)">
			<title>Dynamic connector</title>
			<v:userDefs>
				<v:ud v:nameU="msvThemeColors" v:val="VT0(36):26"/>
				<v:ud v:nameU="msvThemeEffects" v:val="VT0(16):26"/>
			</v:userDefs>
			<path d="M9 603.75 L9 602.25" class="st16"/>
		</g>
	</g>
</svg>
