<?xml version="1.0" encoding="UTF-8" standalone="no"?>
<!DOCTYPE svg PUBLIC "-//W3C//DTD SVG 1.0//EN" "http://www.w3.org/TR/2001/REC-SVG-20010904/DTD/svg10.dtd">
<!-- Generated by Microsoft Visio 11.0, SVG Export, v1.0 Drawing70.svg Page-1 -->
<svg xmlns="http://www.w3.org/2000/svg" xmlns:xlink="http://www.w3.org/1999/xlink" xmlns:ev="http://www.w3.org/2001/xml-events"
		xmlns:v="http://schemas.microsoft.com/visio/2003/SVGExtensions/" width="11in" height="8.5in" viewBox="0 0 792 612"
		xml:space="preserve" color-interpolation-filters="sRGB" class="st14">
	<v:documentProperties v:langID="1033" v:viewMarkup="false">
		<v:userDefs>
			<v:ud v:nameU="msvNoAutoConnect" v:val="VT0(0):26"/>
		</v:userDefs>
	</v:documentProperties>

	<style type="text/css">
	<![CDATA[
		.st1 {visibility:visible}
		.st2 {fill:#cdcdcd;fill-opacity:0.5;stroke:#cdcdcd;stroke-linecap:round;stroke-linejoin:round;stroke-opacity:0.5;stroke-width:0.25}
		.st3 {fill:url(#grad30-6);stroke:#404040;stroke-linecap:round;stroke-linejoin:round;stroke-width:0.25}
		.st4 {fill:url(#grad30-12);stroke:#404040;stroke-linecap:round;stroke-linejoin:round;stroke-width:0.25}
		.st5 {fill:#000000;font-family:Calibri;font-size:1.00001em}
		.st6 {fill:none;stroke:none;stroke-linecap:round;stroke-linejoin:round;stroke-width:0.25}
		.st7 {fill:#000000;font-family:Calibri;font-size:0.75em;font-weight:bold}
		.st8 {font-size:1em}
		.st9 {fill:#000000;font-family:Calibri;font-size:0.75em}
		.st10 {fill:url(#grad30-34);stroke:#404040;stroke-linecap:round;stroke-linejoin:round;stroke-width:0.25}
		.st11 {marker-end:url(#mrkr5-43);stroke:#404040;stroke-linecap:round;stroke-linejoin:round;stroke-width:1}
		.st12 {fill:#404040;fill-opacity:1;stroke:#404040;stroke-opacity:1;stroke-width:0.28409090909091}
		.st13 {fill:url(#grad30-108);stroke:#404040;stroke-linecap:round;stroke-linejoin:round;stroke-width:0.25}
		.st14 {fill:none;fill-rule:evenodd;font-size:12px;overflow:visible;stroke-linecap:square;stroke-miterlimit:3}
	]]>
	</style>

	<defs id="Patterns_And_Gradients">
		<linearGradient id="grad30-6" v:fillPattern="30" v:foreground="#c9c9c9" v:background="#d8d8d8" x1="0" y1="1" x2="0" y2="0">
			<stop offset="0" style="stop-color:#c9c9c9;stop-opacity:1"/>
			<stop offset="1" style="stop-color:#d8d8d8;stop-opacity:1"/>
		</linearGradient>
		<linearGradient id="grad30-12" v:fillPattern="30" v:foreground="#f0f0f0" v:background="#ffffff" x1="0" y1="1" x2="0" y2="0">
			<stop offset="0" style="stop-color:#f0f0f0;stop-opacity:1"/>
			<stop offset="1" style="stop-color:#ffffff;stop-opacity:1"/>
		</linearGradient>
		<linearGradient id="grad30-34" v:fillPattern="30" v:foreground="#efaf7a" v:background="#f2bf96" x1="0" y1="1" x2="0" y2="0">
			<stop offset="0" style="stop-color:#efaf7a;stop-opacity:1"/>
			<stop offset="1" style="stop-color:#f2bf96;stop-opacity:1"/>
		</linearGradient>
		<linearGradient id="grad30-108" v:fillPattern="30" v:foreground="#f2c59f" v:background="#f6d5b9" x1="0" y1="1" x2="0"
				y2="0">
			<stop offset="0" style="stop-color:#f2c59f;stop-opacity:1"/>
			<stop offset="1" style="stop-color:#f6d5b9;stop-opacity:1"/>
		</linearGradient>
	</defs>
	<defs id="Markers">
		<g id="lend5">
			<path d="M 2 1 L 0 0 L 1.98117 -0.993387 C 1.67173 -0.364515 1.67301 0.372641 1.98465 1.00043 " style="stroke:none"/>
		</g>
		<marker id="mrkr5-43" class="st12" v:arrowType="5" v:arrowSize="2" v:setback="6.16" refX="-6.16" orient="auto"
				markerUnits="strokeWidth" overflow="visible">
			<use xlink:href="#lend5" transform="scale(-3.52,-3.52) "/>
		</marker>
	</defs>
	<g v:mID="0" v:index="1" v:groupContext="foregroundPage">
		<v:userDefs>
			<v:ud v:nameU="msvThemeColors" v:val="VT0(36):26"/>
			<v:ud v:nameU="msvThemeEffects" v:val="VT0(16):26"/>
			<v:ud v:nameU="msvThemeOrder" v:val="VT0(0):26"/>
		</v:userDefs>
		<title>Page-1</title>
		<v:pageProperties v:drawingScale="1" v:pageScale="1" v:drawingUnits="0" v:shadowOffsetX="9" v:shadowOffsetY="-9"/>
		<v:layer v:name="Connector" v:index="0"/>
		<g id="shape1-1" v:mID="1" v:groupContext="shape" transform="translate(170.679,-189.779)">
			<title>Rounded rectangle</title>
			<v:userDefs>
				<v:ud v:nameU="visVersion" v:val="VT0(14):26"/>
				<v:ud v:nameU="msvThemeColors" v:val="VT0(36):26"/>
				<v:ud v:nameU="msvThemeEffects" v:val="VT0(16):26"/>
			</v:userDefs>
			<g id="shadow1-2" v:groupContext="shadow" v:shadowOffsetX="1.44" v:shadowOffsetY="-1.44" v:shadowType="1"
					transform="matrix(1,0,0,1,1.44,1.44)" class="st1">
				<path d="M151.39 612 A9.00007 9.00007 -180 0 0 160.39 603 L160.39 389.2 A9.00007 9.00007 -180 0 0 151.39 380.2 L9
							 380.2 A9.00007 9.00007 -180 0 0 -0 389.2 L0 603 A9.00007 9.00007 -180 0 0 9 612 L151.39 612 Z"
						class="st2"/>
			</g>
			<path d="M151.39 612 A9.00007 9.00007 -180 0 0 160.39 603 L160.39 389.2 A9.00007 9.00007 -180 0 0 151.39 380.2 L9 380.2
						 A9.00007 9.00007 -180 0 0 -0 389.2 L0 603 A9.00007 9.00007 -180 0 0 9 612 L151.39 612 Z" class="st3"/>
		</g>
		<g id="shape2-7" v:mID="2" v:groupContext="shape" transform="translate(187.291,-343.904)">
			<title>Rectangle</title>
			<desc>Provider App</desc>
			<v:userDefs>
				<v:ud v:nameU="visVersion" v:val="VT0(14):26"/>
				<v:ud v:nameU="msvThemeColors" v:val="VT0(36):26"/>
				<v:ud v:nameU="msvThemeEffects" v:val="VT0(16):26"/>
			</v:userDefs>
			<v:textBlock v:margins="rect(4,4,4,4)"/>
			<v:textRect cx="63.6559" cy="590.038" width="127.32" height="43.9232"/>
			<g id="shadow2-8" v:groupContext="shadow" v:shadowOffsetX="1.44" v:shadowOffsetY="-1.44" v:shadowType="1"
					transform="matrix(1,0,0,1,1.44,1.44)" class="st1">
				<rect x="0" y="568.077" width="127.312" height="43.9232" class="st2"/>
			</g>
			<rect x="0" y="568.077" width="127.312" height="43.9232" class="st4"/>
			<text x="31.85" y="593.64" class="st5" v:langID="1033"><v:paragraph v:horizAlign="1"/><v:tabList/>Provider App</text>		</g>
		<g id="shape3-14" v:mID="3" v:groupContext="shape" transform="translate(184.999,-400.797)">
			<title>Sheet.3</title>
			<desc>AllJoyn Provider Device</desc>
			<v:userDefs>
				<v:ud v:nameU="msvThemeColors" v:val="VT0(36):26"/>
				<v:ud v:nameU="msvThemeEffects" v:val="VT0(16):26"/>
			</v:userDefs>
			<v:textBlock v:margins="rect(4,4,4,4)"/>
			<v:textRect cx="69.0985" cy="604" width="138.2" height="16"/>
			<rect x="0" y="596" width="138.197" height="16" class="st6"/>
			<text x="12.26" y="607.6" class="st5" v:langID="1033"><v:paragraph v:horizAlign="1"/><v:tabList/>AllJoyn Provider Device</text>		</g>
		<g id="shape4-17" v:mID="4" v:groupContext="shape" transform="translate(187.291,-203.44)">
			<title>Rectangle.37</title>
			<v:userDefs>
				<v:ud v:nameU="visVersion" v:val="VT0(14):26"/>
				<v:ud v:nameU="msvThemeColors" v:val="VT0(36):26"/>
				<v:ud v:nameU="msvThemeEffects" v:val="VT0(16):26"/>
			</v:userDefs>
			<g id="shadow4-18" v:groupContext="shadow" v:shadowOffsetX="1.44" v:shadowOffsetY="-1.44" v:shadowType="1"
					transform="matrix(1,0,0,1,1.44,1.44)" class="st1">
				<rect x="0" y="528.911" width="128.314" height="83.0893" class="st2"/>
			</g>
			<rect x="0" y="528.911" width="128.314" height="83.0893" class="st4"/>
		</g>
		<g id="shape5-22" v:mID="5" v:groupContext="shape" transform="translate(191.551,-207.94)">
			<title>Sheet.5</title>
			<desc>AllJoyn Router</desc>
			<v:userDefs>
				<v:ud v:nameU="msvThemeColors" v:val="VT0(36):26"/>
				<v:ud v:nameU="msvThemeEffects" v:val="VT0(16):26"/>
			</v:userDefs>
			<v:textBlock v:margins="rect(4,4,4,4)"/>
			<v:textRect cx="19.7985" cy="599.705" width="39.6" height="24.5893"/>
			<rect x="0" y="587.411" width="39.597" height="24.5893" class="st6"/>
			<text x="6.41" y="597.01" class="st7" v:langID="1033"><v:paragraph v:horizAlign="1"/><v:tabList/>AllJoyn <tspan
						x="7.01" dy="1.2em" class="st8">Router</tspan></text>		</g>
		<g id="shape6-26" v:mID="6" v:groupContext="shape" transform="translate(185.058,-305.012)">
			<title>Sheet.6</title>
			<desc>Advertise Well- Known Name</desc>
			<v:userDefs>
				<v:ud v:nameU="msvThemeColors" v:val="VT0(36):26"/>
				<v:ud v:nameU="msvThemeEffects" v:val="VT0(16):26"/>
			</v:userDefs>
			<v:textBlock v:margins="rect(4,4,4,4)"/>
			<v:textRect cx="62.6877" cy="607.5" width="125.38" height="9"/>
			<rect x="0" y="603" width="125.375" height="9" class="st6"/>
			<text x="9.05" y="610.2" class="st9" v:langID="1033"><v:paragraph v:horizAlign="1"/><v:tabList/>Advertise Well- Known Name</text>		</g>
		<g id="shape7-29" v:mID="7" v:groupContext="shape" transform="translate(243.428,-220.765)">
			<title>Rounded rectangle.7</title>
			<desc>Name Service</desc>
			<v:userDefs>
				<v:ud v:nameU="visVersion" v:val="VT0(14):26"/>
				<v:ud v:nameU="msvThemeColors" v:val="VT0(36):26"/>
				<v:ud v:nameU="msvThemeEffects" v:val="VT0(16):26"/>
			</v:userDefs>
			<v:textBlock v:margins="rect(4,4,4,4)"/>
			<v:textRect cx="24.0589" cy="596.25" width="48.12" height="31.5"/>
			<g id="shadow7-30" v:groupContext="shadow" v:shadowOffsetX="1.44" v:shadowOffsetY="-1.44" v:shadowType="1"
					transform="matrix(1,0,0,1,1.44,1.44)" class="st1">
				<path d="M39.12 612 A9.00007 9.00007 -180 0 0 48.12 603 L48.12 589.5 A9.00007 9.00007 -180 0 0 39.12 580.5 L9 580.5
							 A9.00007 9.00007 -180 0 0 -0 589.5 L0 603 A9.00007 9.00007 -180 0 0 9 612 L39.12 612 Z" class="st2"/>
			</g>
			<path d="M39.12 612 A9.00007 9.00007 -180 0 0 48.12 603 L48.12 589.5 A9.00007 9.00007 -180 0 0 39.12 580.5 L9 580.5 A9.00007
						 9.00007 -180 0 0 -0 589.5 L0 603 A9.00007 9.00007 -180 0 0 9 612 L39.12 612 Z" class="st10"/>
			<text x="12.95" y="593.55" class="st7" v:langID="1033"><v:paragraph v:horizAlign="1"/><v:tabList/>Name <tspan x="10.68"
						dy="1.2em" class="st8">Service</tspan></text>		</g>
		<g id="shape8-37" v:mID="8" v:groupContext="shape" v:layerMember="0" transform="translate(863.177,289.086) rotate(89.5427)">
			<title>Line-curve connector.10</title>
			<v:userDefs>
				<v:ud v:nameU="AntiScale" v:val="VT0(1):26"/>
				<v:ud v:nameU="Scale" v:val="VT0(1):26"/>
				<v:ud v:nameU="visVersion" v:val="VT0(14):26"/>
				<v:ud v:nameU="msvThemeColors" v:val="VT0(36):26"/>
				<v:ud v:nameU="msvThemeEffects" v:val="VT0(16):26"/>
			</v:userDefs>
			<path d="M0 612 L25.34 612 L25.34 612" class="st11"/>
		</g>
		<g id="shape9-44" v:mID="9" v:groupContext="shape" transform="translate(616.098,-142.22) rotate(23.632) scale(-1,1)">
			<title>60 degree single</title>
			<v:userDefs>
				<v:ud v:nameU="visVersion" v:val="VT0(14):26"/>
				<v:ud v:nameU="msvThemeColors" v:val="VT0(36):26"/>
				<v:ud v:nameU="msvThemeEffects" v:val="VT0(16):26"/>
			</v:userDefs>
			<g id="shadow9-45" v:groupContext="shadow" v:shadowOffsetX="1.44" v:shadowOffsetY="-1.44" v:shadowType="1"
					transform="matrix(1,1.63715E-017,1.63715E-017,1,-1.89648,0.742)" class="st1">
				<path d="M0 604.39 L4.39 596.78 L4.39 601.8 L89.81 601.8 L89.81 606.98 L4.39 606.98 L4.39 612 L0 604.39 Z"
						class="st2"/>
			</g>
			<path d="M0 604.39 L4.39 596.78 L4.39 601.8 L89.81 601.8 L89.81 606.98 L4.39 606.98 L4.39 612 L0 604.39 Z" class="st4"/>
		</g>
		<g id="shape10-49" v:mID="10" v:groupContext="shape" transform="translate(324.321,-233.012)">
			<title>Sheet.10</title>
			<desc>IS-AT message (IP multicast)</desc>
			<v:userDefs>
				<v:ud v:nameU="msvThemeColors" v:val="VT0(36):26"/>
				<v:ud v:nameU="msvThemeEffects" v:val="VT0(16):26"/>
			</v:userDefs>
			<v:textBlock v:margins="rect(4,4,4,4)"/>
			<v:textRect cx="33.75" cy="607.5" width="67.5" height="9"/>
			<rect x="0" y="603" width="67.5" height="9" class="st6"/>
			<text x="24.37" y="599.4" class="st9" v:langID="1033"><v:paragraph v:horizAlign="1"/><v:tabList/>IS-AT <v:newlineChar/><tspan
						x="17.88" dy="1.2em" class="st8">message<v:newlineChar/></tspan><tspan x="9.69" dy="1.2em" class="st8">(</tspan>IP multicast)</text>		</g>
		<g id="shape11-54" v:mID="11" v:groupContext="shape" transform="translate(465.501,-189.779)">
			<title>Rounded rectangle.19</title>
			<v:userDefs>
				<v:ud v:nameU="visVersion" v:val="VT0(14):26"/>
				<v:ud v:nameU="msvThemeColors" v:val="VT0(36):26"/>
				<v:ud v:nameU="msvThemeEffects" v:val="VT0(16):26"/>
			</v:userDefs>
			<g id="shadow11-55" v:groupContext="shadow" v:shadowOffsetX="1.44" v:shadowOffsetY="-1.44" v:shadowType="1"
					transform="matrix(1,0,0,1,1.44,1.44)" class="st1">
				<path d="M146.82 612 A9.00007 9.00007 -180 0 0 155.82 603 L155.82 388.56 A9.00007 9.00007 -180 0 0 146.82 379.56
							 L9 379.56 A9.00007 9.00007 -180 0 0 -0 388.56 L0 603 A9.00007 9.00007 -180 0 0 9 612 L146.82 612 Z"
						class="st2"/>
			</g>
			<path d="M146.82 612 A9.00007 9.00007 -180 0 0 155.82 603 L155.82 388.56 A9.00007 9.00007 -180 0 0 146.82 379.56 L9 379.56
						 A9.00007 9.00007 -180 0 0 -0 388.56 L0 603 A9.00007 9.00007 -180 0 0 9 612 L146.82 612 Z" class="st3"/>
		</g>
		<g id="shape12-59" v:mID="12" v:groupContext="shape" transform="translate(481.64,-343.904)">
			<title>Rectangle.12</title>
			<desc>Consumer App</desc>
			<v:userDefs>
				<v:ud v:nameU="visVersion" v:val="VT0(14):26"/>
				<v:ud v:nameU="msvThemeColors" v:val="VT0(36):26"/>
				<v:ud v:nameU="msvThemeEffects" v:val="VT0(16):26"/>
			</v:userDefs>
			<v:textBlock v:margins="rect(4,4,4,4)"/>
			<v:textRect cx="62.328" cy="589.717" width="124.66" height="44.5661"/>
			<g id="shadow12-60" v:groupContext="shadow" v:shadowOffsetX="1.44" v:shadowOffsetY="-1.44" v:shadowType="1"
					transform="matrix(1,0,0,1,1.44,1.44)" class="st1">
				<rect x="0" y="567.434" width="124.656" height="44.5661" class="st2"/>
			</g>
			<rect x="0" y="567.434" width="124.656" height="44.5661" class="st4"/>
			<text x="26.31" y="593.32" class="st5" v:langID="1033"><v:paragraph v:horizAlign="1"/><v:tabList/>Consumer App</text>		</g>
		<g id="shape13-65" v:mID="13" v:groupContext="shape" transform="translate(479.414,-401.44)">
			<title>Sheet.13</title>
			<desc>AllJoyn Consumer Device</desc>
			<v:userDefs>
				<v:ud v:nameU="msvThemeColors" v:val="VT0(36):26"/>
				<v:ud v:nameU="msvThemeEffects" v:val="VT0(16):26"/>
			</v:userDefs>
			<v:textBlock v:margins="rect(4,4,4,4)"/>
			<v:textRect cx="70.3913" cy="604" width="140.79" height="16"/>
			<rect x="0" y="596" width="140.783" height="16" class="st6"/>
			<text x="9.34" y="607.6" class="st5" v:langID="1033"><v:paragraph v:horizAlign="1"/><v:tabList/>AllJoyn Consumer Device</text>		</g>
		<g id="shape14-68" v:mID="14" v:groupContext="shape" transform="translate(481.64,-204.083)">
			<title>Rectangle.23</title>
			<v:userDefs>
				<v:ud v:nameU="visVersion" v:val="VT0(14):26"/>
				<v:ud v:nameU="msvThemeColors" v:val="VT0(36):26"/>
				<v:ud v:nameU="msvThemeEffects" v:val="VT0(16):26"/>
			</v:userDefs>
			<g id="shadow14-69" v:groupContext="shadow" v:shadowOffsetX="1.44" v:shadowOffsetY="-1.44" v:shadowType="1"
					transform="matrix(1,0,0,1,1.44,1.44)" class="st1">
				<rect x="0" y="526.179" width="124.656" height="85.8214" class="st2"/>
			</g>
			<rect x="0" y="526.179" width="124.656" height="85.8214" class="st4"/>
		</g>
		<g id="shape15-73" v:mID="15" v:groupContext="shape" transform="translate(569.01,-204.726)">
			<title>Sheet.15</title>
			<desc>AllJoyn Router</desc>
			<v:userDefs>
				<v:ud v:nameU="msvThemeColors" v:val="VT0(36):26"/>
				<v:ud v:nameU="msvThemeEffects" v:val="VT0(16):26"/>
			</v:userDefs>
			<v:textBlock v:margins="rect(4,4,4,4)"/>
			<v:textRect cx="19.234" cy="596.5" width="38.47" height="31"/>
			<rect x="0" y="581" width="38.4681" height="31" class="st6"/>
			<text x="5.84" y="593.8" class="st7" v:langID="1033"><v:paragraph v:horizAlign="1"/><v:tabList/>AllJoyn <tspan x="6.44"
						dy="1.2em" class="st8">Router</tspan></text>		</g>
		<g id="shape16-77" v:mID="16" v:groupContext="shape" transform="translate(476.963,-306.94)">
			<title>Sheet.16</title>
			<desc>Discover Well-Known Name</desc>
			<v:userDefs>
				<v:ud v:nameU="msvThemeColors" v:val="VT0(36):26"/>
				<v:ud v:nameU="msvThemeEffects" v:val="VT0(16):26"/>
			</v:userDefs>
			<v:textBlock v:margins="rect(4,4,4,4)"/>
			<v:textRect cx="65.2965" cy="607.5" width="130.6" height="9"/>
			<rect x="0" y="603" width="130.593" height="9" class="st6"/>
			<text x="14.35" y="610.2" class="st9" v:langID="1033"><v:paragraph v:horizAlign="1"/><v:tabList/>Discover Well-Known Name</text>		</g>
		<g id="shape17-80" v:mID="17" v:groupContext="shape" transform="translate(499.448,-220.154)">
			<title>Rounded rectangle.28</title>
			<desc>Name Service</desc>
			<v:userDefs>
				<v:ud v:nameU="visVersion" v:val="VT0(14):26"/>
				<v:ud v:nameU="msvThemeColors" v:val="VT0(36):26"/>
				<v:ud v:nameU="msvThemeEffects" v:val="VT0(16):26"/>
			</v:userDefs>
			<v:textBlock v:margins="rect(4,4,4,4)"/>
			<v:textRect cx="23.373" cy="596.25" width="46.75" height="31.5"/>
			<g id="shadow17-81" v:groupContext="shadow" v:shadowOffsetX="1.44" v:shadowOffsetY="-1.44" v:shadowType="1"
					transform="matrix(1,0,0,1,1.44,1.44)" class="st1">
				<path d="M37.75 612 A9.00007 9.00007 -180 0 0 46.75 603 L46.75 589.5 A9.00007 9.00007 -180 0 0 37.75 580.5 L9 580.5
							 A9.00007 9.00007 -180 0 0 -0 589.5 L0 603 A9.00007 9.00007 -180 0 0 9 612 L37.75 612 Z" class="st2"/>
			</g>
			<path d="M37.75 612 A9.00007 9.00007 -180 0 0 46.75 603 L46.75 589.5 A9.00007 9.00007 -180 0 0 37.75 580.5 L9 580.5 A9.00007
						 9.00007 -180 0 0 -0 589.5 L0 603 A9.00007 9.00007 -180 0 0 9 612 L37.75 612 Z" class="st10"/>
			<text x="12.26" y="593.55" class="st7" v:langID="1033"><v:paragraph v:horizAlign="1"/><v:tabList/>Name <tspan x="10"
						dy="1.2em" class="st8">Service</tspan></text>		</g>
		<g id="shape18-87" v:mID="18" v:groupContext="shape" v:layerMember="0"
				transform="translate(1155.67,287.166) rotate(89.4682)">
			<title>Line-curve connector.30</title>
			<v:userDefs>
				<v:ud v:nameU="AntiScale" v:val="VT0(1):26"/>
				<v:ud v:nameU="Scale" v:val="VT0(1):26"/>
				<v:ud v:nameU="visVersion" v:val="VT0(14):26"/>
				<v:ud v:nameU="msvThemeColors" v:val="VT0(36):26"/>
				<v:ud v:nameU="msvThemeEffects" v:val="VT0(16):26"/>
			</v:userDefs>
			<path d="M0 612 L23.09 612 L23.09 612" class="st11"/>
		</g>
		<g id="shape19-93" v:mID="19" v:groupContext="shape" transform="translate(638.905,970.96) rotate(-21.8135) scale(1,-1)">
			<title>60 degree single.31</title>
			<v:userDefs>
				<v:ud v:nameU="visVersion" v:val="VT0(14):26"/>
				<v:ud v:nameU="msvThemeColors" v:val="VT0(36):26"/>
				<v:ud v:nameU="msvThemeEffects" v:val="VT0(16):26"/>
			</v:userDefs>
			<g id="shadow19-94" v:groupContext="shadow" v:shadowOffsetX="1.44" v:shadowOffsetY="-1.44" v:shadowType="1"
					transform="matrix(1,-3.13877E-017,3.43963E-017,1,0.801809,-1.87198)" class="st1">
				<path d="M0 604.39 L4.39 596.78 L4.39 601.8 L91.69 601.8 L91.69 606.98 L4.39 606.98 L4.39 612 L0 604.39 Z"
						class="st2"/>
			</g>
			<path d="M0 604.39 L4.39 596.78 L4.39 601.8 L91.69 601.8 L91.69 606.98 L4.39 606.98 L4.39 612 L0 604.39 Z" class="st4"/>
		</g>
		<g id="shape20-98" v:mID="20" v:groupContext="shape" transform="translate(400.821,-233.012)">
			<title>Sheet.20</title>
			<desc>WHO-HAS message (IP multicast)</desc>
			<v:userDefs>
				<v:ud v:nameU="msvThemeColors" v:val="VT0(36):26"/>
				<v:ud v:nameU="msvThemeEffects" v:val="VT0(16):26"/>
			</v:userDefs>
			<v:textBlock v:margins="rect(4,4,4,4)"/>
			<v:textRect cx="33.75" cy="607.5" width="67.5" height="9"/>
			<rect x="0" y="603" width="67.5" height="9" class="st6"/>
			<text x="15.11" y="599.4" class="st9" v:langID="1033"><v:paragraph v:horizAlign="1"/><v:tabList/>WHO-HAS <tspan
						x="17.88" dy="1.2em" class="st8">message<v:newlineChar/></tspan><tspan x="9.69" dy="1.2em" class="st8">(</tspan>IP multicast)</text>		</g>
		<g id="shape21-103" v:mID="21" v:groupContext="shape" transform="translate(187.393,-318.512)">
			<title>Rectangle.4</title>
			<desc>AllJoyn Core Library</desc>
			<v:userDefs>
				<v:ud v:nameU="visVersion" v:val="VT0(14):26"/>
				<v:ud v:nameU="msvThemeColors" v:val="VT0(36):26"/>
				<v:ud v:nameU="msvThemeEffects" v:val="VT0(16):26"/>
			</v:userDefs>
			<v:textBlock v:margins="rect(4,4,4,4)"/>
			<v:textRect cx="63.6559" cy="599.44" width="127.32" height="25.1196"/>
			<g id="shadow21-104" v:groupContext="shadow" v:shadowOffsetX="1.44" v:shadowOffsetY="-1.44" v:shadowType="1"
					transform="matrix(1,0,0,1,1.44,1.44)" class="st1">
				<rect x="0" y="586.88" width="127.312" height="25.1196" class="st2"/>
			</g>
			<rect x="0" y="586.88" width="127.312" height="25.1196" class="st13"/>
			<text x="15.51" y="603.04" class="st5" v:langID="1033"><v:paragraph v:horizAlign="1"/><v:tabList/>AllJoyn Core Library</text>		</g>
		<g id="shape22-110" v:mID="22" v:groupContext="shape" transform="translate(480.536,-319.797)">
			<title>Rectangle.8</title>
			<desc>AllJoyn Core Library</desc>
			<v:userDefs>
				<v:ud v:nameU="visVersion" v:val="VT0(14):26"/>
				<v:ud v:nameU="msvThemeColors" v:val="VT0(36):26"/>
				<v:ud v:nameU="msvThemeEffects" v:val="VT0(16):26"/>
			</v:userDefs>
			<v:textBlock v:margins="rect(4,4,4,4)"/>
			<v:textRect cx="63.6559" cy="599.44" width="127.32" height="25.1196"/>
			<g id="shadow22-111" v:groupContext="shadow" v:shadowOffsetX="1.44" v:shadowOffsetY="-1.44" v:shadowType="1"
					transform="matrix(1,0,0,1,1.44,1.44)" class="st1">
				<rect x="0" y="586.88" width="127.312" height="25.1196" class="st2"/>
			</g>
			<rect x="0" y="586.88" width="127.312" height="25.1196" class="st13"/>
			<text x="15.51" y="603.04" class="st5" v:langID="1033"><v:paragraph v:horizAlign="1"/><v:tabList/>AllJoyn Core Library</text>		</g>
	</g>
</svg>
