<?xml version="1.0" encoding="UTF-8" standalone="no"?>
<!DOCTYPE svg PUBLIC "-//W3C//DTD SVG 1.0//EN" "http://www.w3.org/TR/2001/REC-SVG-20010904/DTD/svg10.dtd">
<!-- Generated by Microsoft Visio 11.0, SVG Export, v1.0 p2p-multipoint-session-examples.svg Page-1 -->
<svg xmlns="http://www.w3.org/2000/svg" xmlns:xlink="http://www.w3.org/1999/xlink" xmlns:ev="http://www.w3.org/2001/xml-events"
		xmlns:v="http://schemas.microsoft.com/visio/2003/SVGExtensions/" width="11in" height="8.5in" viewBox="0 0 792 612"
		xml:space="preserve" color-interpolation-filters="sRGB" class="st12">
	<v:documentProperties v:langID="1033">
		<v:userDefs>
			<v:ud v:nameU="msvNoAutoConnect" v:val="VT0(0):26"/>
		</v:userDefs>
	</v:documentProperties>

	<style type="text/css">
	<![CDATA[
		.st1 {visibility:visible}
		.st2 {fill:#cdcdcd;fill-opacity:0.5;stroke:#cdcdcd;stroke-linecap:round;stroke-linejoin:round;stroke-opacity:0.5;stroke-width:0.25}
		.st3 {fill:url(#grad30-6);stroke:#404040;stroke-linecap:round;stroke-linejoin:round;stroke-width:0.25}
		.st4 {fill:url(#grad30-17);stroke:#404040;stroke-linecap:round;stroke-linejoin:round;stroke-width:0.25}
		.st5 {fill:#000000;font-family:Calibri;font-size:1.00001em}
		.st6 {font-size:1em}
		.st7 {fill:none}
		.st8 {stroke:#cdcdcd;stroke-linecap:round;stroke-linejoin:round;stroke-width:0.25}
		.st9 {stroke:#404040;stroke-linecap:round;stroke-linejoin:round;stroke-width:0.25}
		.st10 {fill:none;stroke:none;stroke-linecap:round;stroke-linejoin:round;stroke-width:0.25}
		.st11 {fill:#000000;font-family:Calibri;font-size:1.00001em;font-weight:bold}
		.st12 {fill:none;fill-rule:evenodd;font-size:12;overflow:visible;stroke-linecap:square;stroke-miterlimit:3}
	]]>
	</style>

	<defs id="Patterns_And_Gradients">
		<linearGradient id="grad30-6" v:fillPattern="30" v:foreground="#f7d8c1" v:background="#fae9dc" x1="0" y1="1" x2="0" y2="0">
			<stop offset="0" style="stop-color:#f7d8c1;stop-opacity:1"/>
			<stop offset="1" style="stop-color:#fae9dc;stop-opacity:1"/>
		</linearGradient>
		<linearGradient id="grad30-17" v:fillPattern="30" v:foreground="#f0f0f0" v:background="#ffffff" x1="0" y1="1" x2="0" y2="0">
			<stop offset="0" style="stop-color:#f0f0f0;stop-opacity:1"/>
			<stop offset="1" style="stop-color:#ffffff;stop-opacity:1"/>
		</linearGradient>
	</defs>
	<g v:mID="0" v:index="1" v:groupContext="foregroundPage">
		<v:userDefs>
			<v:ud v:nameU="msvThemeColors" v:val="VT0(36):26"/>
			<v:ud v:nameU="msvThemeEffects" v:val="VT0(16):26"/>
			<v:ud v:nameU="msvThemeOrder" v:val="VT0(0):26"/>
		</v:userDefs>
		<title>Page-1</title>
		<v:pageProperties v:drawingScale="1" v:pageScale="1" v:drawingUnits="0" v:shadowOffsetX="9" v:shadowOffsetY="-9"/>
		<g id="shape1-1" v:mID="1" v:groupContext="shape" transform="translate(206.865,-103.95)">
			<title>Rectangle.12</title>
			<v:userDefs>
				<v:ud v:nameU="visVersion" v:val="VT0(14):26"/>
				<v:ud v:nameU="msvThemeColors" v:val="VT0(36):26"/>
				<v:ud v:nameU="msvThemeEffects" v:val="VT0(16):26"/>
			</v:userDefs>
			<g id="shadow1-2" v:groupContext="shadow" v:shadowOffsetX="1.44" v:shadowOffsetY="-1.44" v:shadowType="1"
					transform="matrix(1,0,0,1,1.44,1.44)" class="st1">
				<rect x="0" y="360" width="378" height="252" class="st2"/>
			</g>
			<rect x="0" y="360" width="378" height="252" class="st3"/>
		</g>
		<g id="shape2-7" v:mID="2" v:groupContext="shape" transform="translate(269.865,-400.95)">
			<title>Rectangle</title>
			<v:userDefs>
				<v:ud v:nameU="visVersion" v:val="VT0(14):26"/>
				<v:ud v:nameU="msvThemeColors" v:val="VT0(36):26"/>
				<v:ud v:nameU="msvThemeEffects" v:val="VT0(16):26"/>
			</v:userDefs>
			<g id="shadow2-8" v:groupContext="shadow" v:shadowOffsetX="1.44" v:shadowOffsetY="-1.44" v:shadowType="1"
					transform="matrix(1,0,0,1,1.44,1.44)" class="st1">
				<rect x="0" y="504" width="261" height="108" class="st2"/>
			</g>
			<rect x="0" y="504" width="261" height="108" class="st3"/>
		</g>
		<g id="shape3-12" v:mID="3" v:groupContext="shape" transform="translate(287.865,-436.95)">
			<title>Rounded rectangle</title>
			<desc>Session Host App</desc>
			<v:userDefs>
				<v:ud v:nameU="visVersion" v:val="VT0(14):26"/>
				<v:ud v:nameU="msvThemeColors" v:val="VT0(36):26"/>
				<v:ud v:nameU="msvThemeEffects" v:val="VT0(16):26"/>
			</v:userDefs>
			<v:textBlock v:margins="rect(4,4,4,4)"/>
			<v:textRect cx="38.8125" cy="585" width="77.64" height="54"/>
			<g id="shadow3-13" v:groupContext="shadow" v:shadowOffsetX="1.44" v:shadowOffsetY="-1.44" v:shadowType="1"
					transform="matrix(1,0,0,1,1.44,1.44)" class="st1">
				<path d="M68.62 612 A9.00007 9.00007 -180 0 0 77.62 603 L77.62 567 A9.00007 9.00007 -180 0 0 68.62 558 L9 558 A9.00007
							 9.00007 -180 0 0 -0 567 L0 603 A9.00007 9.00007 -180 0 0 9 612 L68.62 612 Z" class="st2"/>
			</g>
			<path d="M68.62 612 A9.00007 9.00007 -180 0 0 77.62 603 L77.62 567 A9.00007 9.00007 -180 0 0 68.62 558 L9 558 A9.00007
						 9.00007 -180 0 0 -0 567 L0 603 A9.00007 9.00007 -180 0 0 9 612 L68.62 612 Z" class="st4"/>
			<text x="8.07" y="581.4" class="st5" v:langID="1033"><v:paragraph v:horizAlign="1"/><v:tabList/>Session Host <tspan
						x="29.04" dy="1.2em" class="st6">App  </tspan>  </text>		</g>
		<g id="shape4-20" v:mID="4" v:groupContext="shape" transform="translate(432.508,-436.95)">
			<title>Rounded rectangle.2</title>
			<desc>Session Joiner App</desc>
			<v:userDefs>
				<v:ud v:nameU="visVersion" v:val="VT0(14):26"/>
				<v:ud v:nameU="msvThemeColors" v:val="VT0(36):26"/>
				<v:ud v:nameU="msvThemeEffects" v:val="VT0(16):26"/>
			</v:userDefs>
			<v:textBlock v:margins="rect(4,4,4,4)"/>
			<v:textRect cx="39.9375" cy="585" width="79.88" height="54"/>
			<g id="shadow4-21" v:groupContext="shadow" v:shadowOffsetX="1.44" v:shadowOffsetY="-1.44" v:shadowType="1"
					transform="matrix(1,0,0,1,1.44,1.44)" class="st1">
				<path d="M70.87 612 A9.00007 9.00007 -180 0 0 79.87 603 L79.87 567 A9.00007 9.00007 -180 0 0 70.87 558 L9 558 A9.00007
							 9.00007 -180 0 0 0 567 L0 603 A9.00007 9.00007 -180 0 0 9 612 L70.87 612 Z" class="st2"/>
			</g>
			<path d="M70.87 612 A9.00007 9.00007 -180 0 0 79.87 603 L79.87 567 A9.00007 9.00007 -180 0 0 70.87 558 L9 558 A9.00007
						 9.00007 -180 0 0 0 567 L0 603 A9.00007 9.00007 -180 0 0 9 612 L70.87 612 Z" class="st4"/>
			<text x="5.77" y="581.4" class="st5" v:langID="1033"><v:paragraph v:horizAlign="1"/><v:tabList/>Session Joiner <tspan
						x="30.16" dy="1.2em" class="st6">App  </tspan>  </text>		</g>
		<g id="shape5-27" v:mID="5" v:groupContext="shape" transform="translate(220.847,-209.084)">
			<title>Rounded rectangle.3</title>
			<desc>Session Host App</desc>
			<v:userDefs>
				<v:ud v:nameU="visVersion" v:val="VT0(14):26"/>
				<v:ud v:nameU="msvThemeColors" v:val="VT0(36):26"/>
				<v:ud v:nameU="msvThemeEffects" v:val="VT0(16):26"/>
			</v:userDefs>
			<v:textBlock v:margins="rect(4,4,4,4)"/>
			<v:textRect cx="39.9375" cy="584.384" width="79.88" height="55.2321"/>
			<g id="shadow5-28" v:groupContext="shadow" v:shadowOffsetX="1.44" v:shadowOffsetY="-1.44" v:shadowType="1"
					transform="matrix(1,0,0,1,1.44,1.44)" class="st1">
				<path d="M70.87 612 A9.00007 9.00007 -180 0 0 79.87 603 L79.87 565.77 A9.00007 9.00007 -180 0 0 70.87 556.77 L9 556.77
							 A9.00007 9.00007 -180 0 0 0 565.77 L0 603 A9.00007 9.00007 -180 0 0 9 612 L70.87 612 Z" class="st2"/>
			</g>
			<path d="M70.87 612 A9.00007 9.00007 -180 0 0 79.87 603 L79.87 565.77 A9.00007 9.00007 -180 0 0 70.87 556.77 L9 556.77
						 A9.00007 9.00007 -180 0 0 0 565.77 L0 603 A9.00007 9.00007 -180 0 0 9 612 L70.87 612 Z" class="st4"/>
			<text x="9.19" y="580.78" class="st5" v:langID="1033"><v:paragraph v:horizAlign="1"/><v:tabList/>Session Host<v:newlineChar/><tspan
						x="28.8" dy="1.2em" class="st6"> </tspan>App    </text>		</g>
		<g id="shape6-34" v:mID="6" v:groupContext="shape" transform="translate(356.49,-285.638)">
			<title>Rounded rectangle.4</title>
			<desc>Session Joiner App 1</desc>
			<v:userDefs>
				<v:ud v:nameU="visVersion" v:val="VT0(14):26"/>
				<v:ud v:nameU="msvThemeColors" v:val="VT0(36):26"/>
				<v:ud v:nameU="msvThemeEffects" v:val="VT0(16):26"/>
			</v:userDefs>
			<v:textBlock v:margins="rect(4,4,4,4)"/>
			<v:textRect cx="39.9375" cy="584.384" width="79.88" height="55.2321"/>
			<g id="shadow6-35" v:groupContext="shadow" v:shadowOffsetX="1.44" v:shadowOffsetY="-1.44" v:shadowType="1"
					transform="matrix(1,0,0,1,1.44,1.44)" class="st1">
				<path d="M70.87 612 A9.00007 9.00007 -180 0 0 79.87 603 L79.87 565.77 A9.00007 9.00007 -180 0 0 70.87 556.77 L9 556.77
							 A9.00007 9.00007 -180 0 0 -0 565.77 L0 603 A9.00007 9.00007 -180 0 0 9 612 L70.87 612 Z" class="st2"/>
			</g>
			<path d="M70.87 612 A9.00007 9.00007 -180 0 0 79.87 603 L79.87 565.77 A9.00007 9.00007 -180 0 0 70.87 556.77 L9 556.77
						 A9.00007 9.00007 -180 0 0 -0 565.77 L0 603 A9.00007 9.00007 -180 0 0 9 612 L70.87 612 Z" class="st4"/>
			<text x="5.77" y="580.78" class="st5" v:langID="1033"><v:paragraph v:horizAlign="1"/><v:tabList/>Session Joiner <tspan
						x="25.76" dy="1.2em" class="st6">App </tspan>1</text>		</g>
		<g id="shape7-41" v:mID="7" v:groupContext="shape" transform="translate(356.49,-142.87)">
			<title>Rounded rectangle.5</title>
			<desc>Session Joiner App 3</desc>
			<v:userDefs>
				<v:ud v:nameU="visVersion" v:val="VT0(14):26"/>
				<v:ud v:nameU="msvThemeColors" v:val="VT0(36):26"/>
				<v:ud v:nameU="msvThemeEffects" v:val="VT0(16):26"/>
			</v:userDefs>
			<v:textBlock v:margins="rect(4,4,4,4)"/>
			<v:textRect cx="39.9375" cy="584.384" width="79.88" height="55.2321"/>
			<g id="shadow7-42" v:groupContext="shadow" v:shadowOffsetX="1.44" v:shadowOffsetY="-1.44" v:shadowType="1"
					transform="matrix(1,0,0,1,1.44,1.44)" class="st1">
				<path d="M70.87 612 A9.00007 9.00007 -180 0 0 79.87 603 L79.87 565.77 A9.00007 9.00007 -180 0 0 70.87 556.77 L9 556.77
							 A9.00007 9.00007 -180 0 0 0 565.77 L0 603 A9.00007 9.00007 -180 0 0 9 612 L70.87 612 Z" class="st2"/>
			</g>
			<path d="M70.87 612 A9.00007 9.00007 -180 0 0 79.87 603 L79.87 565.77 A9.00007 9.00007 -180 0 0 70.87 556.77 L9 556.77
						 A9.00007 9.00007 -180 0 0 0 565.77 L0 603 A9.00007 9.00007 -180 0 0 9 612 L70.87 612 Z" class="st4"/>
			<text x="5.77" y="580.78" class="st5" v:langID="1033"><v:paragraph v:horizAlign="1"/><v:tabList/>Session Joiner <tspan
						x="25.76" dy="1.2em" class="st6">App </tspan>3</text>		</g>
		<g id="shape8-48" v:mID="8" v:groupContext="shape" transform="translate(365.49,-463.95)">
			<title>Sheet.8</title>
			<v:userDefs>
				<v:ud v:nameU="msvThemeColors" v:val="VT0(36):26"/>
				<v:ud v:nameU="msvThemeEffects" v:val="VT0(16):26"/>
			</v:userDefs>
			<g id="shadow8-49" v:groupContext="shadow" v:shadowOffsetX="1.44" v:shadowOffsetY="-1.44" v:shadowType="1"
					transform="matrix(1,0,0,1,1.44,1.44)" class="st1">
				<path d="M0 612 L67.02 612 L0 612 Z" class="st7"/>
				<path d="M0 612 L67.02 612" class="st8"/>
			</g>
			<path d="M0 612 L67.02 612 L0 612 Z" class="st7"/>
			<path d="M0 612 L67.02 612" class="st9"/>
		</g>
		<g id="shape9-54" v:mID="9" v:groupContext="shape" transform="translate(22.0974,-169.597) rotate(-27.0823)">
			<title>Sheet.9</title>
			<v:userDefs>
				<v:ud v:nameU="msvThemeColors" v:val="VT0(36):26"/>
				<v:ud v:nameU="msvThemeEffects" v:val="VT0(16):26"/>
			</v:userDefs>
			<g id="shadow9-55" v:groupContext="shadow" v:shadowOffsetX="1.44" v:shadowOffsetY="-1.44" v:shadowType="1"
					transform="matrix(1,7.61652E-018,1.09775E-017,1,0.62652,1.9377)" class="st1">
				<path d="M0 612 L107.49 612 L0 612 Z" class="st7"/>
				<path d="M0 612 L107.49 612" class="st8"/>
			</g>
			<path d="M0 612 L107.49 612 L0 612 Z" class="st7"/>
			<path d="M0 612 L107.49 612" class="st9"/>
		</g>
		<g id="shape10-60" v:mID="10" v:groupContext="shape" transform="translate(529.628,-192.279) rotate(21.9643)">
			<title>Sheet.10</title>
			<v:userDefs>
				<v:ud v:nameU="msvThemeColors" v:val="VT0(36):26"/>
				<v:ud v:nameU="msvThemeEffects" v:val="VT0(16):26"/>
			</v:userDefs>
			<g id="shadow10-61" v:groupContext="shadow" v:shadowOffsetX="1.44" v:shadowOffsetY="-1.44" v:shadowType="1"
					transform="matrix(1,5.46438E-017,-3.24448E-017,1,1.87408,0.796879)" class="st1">
				<path d="M0 612 L103.2 612 L0 612 Z" class="st7"/>
				<path d="M0 612 L103.2 612" class="st8"/>
			</g>
			<path d="M0 612 L103.2 612 L0 612 Z" class="st7"/>
			<path d="M0 612 L103.2 612" class="st9"/>
		</g>
		<g id="shape12-66" v:mID="12" v:groupContext="shape" transform="translate(335.615,-400.95)">
			<title>Sheet.12</title>
			<desc>Point-to-Point Session</desc>
			<v:userDefs>
				<v:ud v:nameU="msvThemeColors" v:val="VT0(36):26"/>
				<v:ud v:nameU="msvThemeEffects" v:val="VT0(16):26"/>
			</v:userDefs>
			<v:textBlock v:margins="rect(4,4,4,4)"/>
			<v:textRect cx="64.75" cy="598.5" width="129.5" height="27"/>
			<rect x="0" y="585" width="129.5" height="27" class="st10"/>
			<text x="9.47" y="602.1" class="st11" v:langID="1033"><v:paragraph v:horizAlign="1"/><v:tabList/>Point-to-Point Session</text>		</g>
		<g id="shape13-69" v:mID="13" v:groupContext="shape" transform="translate(486.428,-209.084)">
			<title>Rounded rectangle.13</title>
			<desc>Session Joiner App 2</desc>
			<v:userDefs>
				<v:ud v:nameU="visVersion" v:val="VT0(14):26"/>
				<v:ud v:nameU="msvThemeColors" v:val="VT0(36):26"/>
				<v:ud v:nameU="msvThemeEffects" v:val="VT0(16):26"/>
			</v:userDefs>
			<v:textBlock v:margins="rect(4,4,4,4)"/>
			<v:textRect cx="39.9375" cy="584.384" width="79.88" height="55.2321"/>
			<g id="shadow13-70" v:groupContext="shadow" v:shadowOffsetX="1.44" v:shadowOffsetY="-1.44" v:shadowType="1"
					transform="matrix(1,0,0,1,1.44,1.44)" class="st1">
				<path d="M70.87 612 A9.00007 9.00007 -180 0 0 79.87 603 L79.87 565.77 A9.00007 9.00007 -180 0 0 70.87 556.77 L9 556.77
							 A9.00007 9.00007 -180 0 0 0 565.77 L0 603 A9.00007 9.00007 -180 0 0 9 612 L70.87 612 Z" class="st2"/>
			</g>
			<path d="M70.87 612 A9.00007 9.00007 -180 0 0 79.87 603 L79.87 565.77 A9.00007 9.00007 -180 0 0 70.87 556.77 L9 556.77
						 A9.00007 9.00007 -180 0 0 0 565.77 L0 603 A9.00007 9.00007 -180 0 0 9 612 L70.87 612 Z" class="st4"/>
			<text x="5.77" y="580.78" class="st5" v:langID="1033"><v:paragraph v:horizAlign="1"/><v:tabList/>Session Joiner <tspan
						x="25.76" dy="1.2em" class="st6">App </tspan>2</text>		</g>
		<g id="shape16-76" v:mID="16" v:groupContext="shape" transform="translate(300.722,-236.7)">
			<title>Sheet.16</title>
			<v:userDefs>
				<v:ud v:nameU="msvThemeColors" v:val="VT0(36):26"/>
				<v:ud v:nameU="msvThemeEffects" v:val="VT0(16):26"/>
			</v:userDefs>
			<g id="shadow16-77" v:groupContext="shadow" v:shadowOffsetX="1.44" v:shadowOffsetY="-1.44" v:shadowType="1"
					transform="matrix(1,0,0,1,1.44,1.44)" class="st1">
				<path d="M0 612 L185.71 612 L0 612 Z" class="st7"/>
				<path d="M0 612 L185.71 612" class="st8"/>
			</g>
			<path d="M0 612 L185.71 612 L0 612 Z" class="st7"/>
			<path d="M0 612 L185.71 612" class="st9"/>
		</g>
		<g id="shape17-82" v:mID="17" v:groupContext="shape" transform="translate(340.115,-103.95)">
			<title>Sheet.17</title>
			<desc>Multi-Point Session</desc>
			<v:userDefs>
				<v:ud v:nameU="msvThemeColors" v:val="VT0(36):26"/>
				<v:ud v:nameU="msvThemeEffects" v:val="VT0(16):26"/>
			</v:userDefs>
			<v:textBlock v:margins="rect(4,4,4,4)"/>
			<v:textRect cx="64.75" cy="598.5" width="129.5" height="27"/>
			<rect x="0" y="585" width="129.5" height="27" class="st10"/>
			<text x="16.31" y="602.1" class="st11" v:langID="1033"><v:paragraph v:horizAlign="1"/><v:tabList/>Multi-Point Session</text>		</g>
	</g>
</svg>
