<?xml version="1.0" encoding="UTF-8" standalone="no"?>
<!DOCTYPE svg PUBLIC "-//W3C//DTD SVG 1.0//EN" "http://www.w3.org/TR/2001/REC-SVG-20010904/DTD/svg10.dtd">
<!-- Generated by Microsoft Visio 11.0, SVG Export, v1.0 Drawing169.svg Page-1 -->
<svg xmlns="http://www.w3.org/2000/svg" xmlns:xlink="http://www.w3.org/1999/xlink" xmlns:ev="http://www.w3.org/2001/xml-events"
		xmlns:v="http://schemas.microsoft.com/visio/2003/SVGExtensions/" width="11in" height="8.5in" viewBox="0 0 792 612"
		xml:space="preserve" color-interpolation-filters="sRGB" class="st21">
	<v:documentProperties v:langID="1033" v:viewMarkup="false">
		<v:userDefs>
			<v:ud v:nameU="msvNoAutoConnect" v:val="VT0(0):26"/>
		</v:userDefs>
	</v:documentProperties>

	<style type="text/css">
	<![CDATA[
		.st1 {visibility:visible}
		.st2 {fill:#cdcdcd;fill-opacity:0.5;stroke:#cdcdcd;stroke-linecap:round;stroke-linejoin:round;stroke-opacity:0.5;stroke-width:0.25}
		.st3 {fill:url(#grad30-6);stroke:#404040;stroke-linecap:round;stroke-linejoin:round;stroke-width:0.25}
		.st4 {fill:url(#grad30-12);stroke:#404040;stroke-linecap:round;stroke-linejoin:round;stroke-width:0.25}
		.st5 {fill:#000000;font-family:Calibri;font-size:1.00001em}
		.st6 {fill:none;stroke:none;stroke-linecap:round;stroke-linejoin:round;stroke-width:0.25}
		.st7 {fill:#000000;font-family:Calibri;font-size:1.16666em}
		.st8 {fill:#000000;font-family:Calibri;font-size:0.833336em;font-weight:bold}
		.st9 {font-size:1em;text-decoration:underline}
		.st10 {fill:url(#grad30-32);stroke:#404040;stroke-linecap:round;stroke-linejoin:round;stroke-width:0.25}
		.st11 {fill:url(#grad30-38);stroke:#404040;stroke-linecap:round;stroke-linejoin:round;stroke-width:0.25}
		.st12 {fill:#000000;font-family:Calibri;font-size:0.75em;font-weight:bold}
		.st13 {font-size:1em}
		.st14 {fill:#000000;font-family:Calibri;font-size:0.833336em}
		.st15 {fill:#000000;font-family:Calibri;font-size:1.00001em;font-weight:bold}
		.st16 {font-size:1em;font-weight:normal}
		.st17 {stroke:#cdcdcd;stroke-linecap:round;stroke-linejoin:round;stroke-opacity:0.5;stroke-width:0.25}
		.st18 {stroke:#404040;stroke-linecap:round;stroke-linejoin:round;stroke-width:0.25}
		.st19 {fill:url(#grad30-155);stroke:#404040;stroke-linecap:round;stroke-linejoin:round;stroke-width:0.25}
		.st20 {fill:#000000;font-family:Calibri;font-size:0.75em}
		.st21 {fill:none;fill-rule:evenodd;font-size:12px;overflow:visible;stroke-linecap:square;stroke-miterlimit:3}
	]]>
	</style>

	<defs id="Patterns_And_Gradients">
		<linearGradient id="grad30-6" v:fillPattern="30" v:foreground="#c9c9c9" v:background="#d8d8d8" x1="0" y1="1" x2="0" y2="0">
			<stop offset="0" style="stop-color:#c9c9c9;stop-opacity:1"/>
			<stop offset="1" style="stop-color:#d8d8d8;stop-opacity:1"/>
		</linearGradient>
		<linearGradient id="grad30-12" v:fillPattern="30" v:foreground="#f0f0f0" v:background="#ffffff" x1="0" y1="1" x2="0" y2="0">
			<stop offset="0" style="stop-color:#f0f0f0;stop-opacity:1"/>
			<stop offset="1" style="stop-color:#ffffff;stop-opacity:1"/>
		</linearGradient>
		<linearGradient id="grad30-32" v:fillPattern="30" v:foreground="#adc9e0" v:background="#c3d7e8" x1="0" y1="1" x2="0" y2="0">
			<stop offset="0" style="stop-color:#adc9e0;stop-opacity:1"/>
			<stop offset="1" style="stop-color:#c3d7e8;stop-opacity:1"/>
		</linearGradient>
		<linearGradient id="grad30-38" v:fillPattern="30" v:foreground="#efaf7a" v:background="#f2bf96" x1="0" y1="1" x2="0" y2="0">
			<stop offset="0" style="stop-color:#efaf7a;stop-opacity:1"/>
			<stop offset="1" style="stop-color:#f2bf96;stop-opacity:1"/>
		</linearGradient>
		<linearGradient id="grad30-155" v:fillPattern="30" v:foreground="#a4a4a4" v:background="#b2b2b2" x1="0" y1="1" x2="0"
				y2="0">
			<stop offset="0" style="stop-color:#a4a4a4;stop-opacity:1"/>
			<stop offset="1" style="stop-color:#b2b2b2;stop-opacity:1"/>
		</linearGradient>
	</defs>
	<g v:mID="0" v:index="1" v:groupContext="foregroundPage">
		<v:userDefs>
			<v:ud v:nameU="msvThemeColors" v:val="VT0(36):26"/>
			<v:ud v:nameU="msvThemeEffects" v:val="VT0(16):26"/>
			<v:ud v:nameU="msvThemeOrder" v:val="VT0(0):26"/>
		</v:userDefs>
		<title>Page-1</title>
		<v:pageProperties v:drawingScale="1" v:pageScale="1" v:drawingUnits="0" v:shadowOffsetX="9" v:shadowOffsetY="-9"/>
		<g id="shape1-1" v:mID="1" v:groupContext="shape" transform="translate(253.876,-242.312)">
			<title>Rounded rectangle</title>
			<v:userDefs>
				<v:ud v:nameU="visVersion" v:val="VT0(14):26"/>
				<v:ud v:nameU="msvThemeColors" v:val="VT0(36):26"/>
				<v:ud v:nameU="msvThemeEffects" v:val="VT0(16):26"/>
			</v:userDefs>
			<g id="shadow1-2" v:groupContext="shadow" v:shadowOffsetX="1.44" v:shadowOffsetY="-1.44" v:shadowType="1"
					transform="matrix(1,0,0,1,1.44,1.44)" class="st1">
				<path d="M274.5 612 A9.00007 9.00007 -180 0 0 283.5 603 L283.5 367.87 A9.00007 9.00007 -180 0 0 274.5 358.87 L9 358.87
							 A9.00007 9.00007 -180 0 0 -0 367.87 L0 603 A9.00007 9.00007 -180 0 0 9 612 L274.5 612 Z" class="st2"/>
			</g>
			<path d="M274.5 612 A9.00007 9.00007 -180 0 0 283.5 603 L283.5 367.87 A9.00007 9.00007 -180 0 0 274.5 358.87 L9 358.87
						 A9.00007 9.00007 -180 0 0 -0 367.87 L0 603 A9.00007 9.00007 -180 0 0 9 612 L274.5 612 Z" class="st3"/>
		</g>
		<g id="shape2-7" v:mID="2" v:groupContext="shape" transform="translate(263.253,-323.312)">
			<title>Rectangle</title>
			<v:userDefs>
				<v:ud v:nameU="visVersion" v:val="VT0(14):26"/>
				<v:ud v:nameU="msvThemeColors" v:val="VT0(36):26"/>
				<v:ud v:nameU="msvThemeEffects" v:val="VT0(16):26"/>
			</v:userDefs>
			<g id="shadow2-8" v:groupContext="shadow" v:shadowOffsetX="1.44" v:shadowOffsetY="-1.44" v:shadowType="1"
					transform="matrix(1,0,0,1,1.44,1.44)" class="st1">
				<rect x="0" y="450" width="105.336" height="162" class="st2"/>
			</g>
			<rect x="0" y="450" width="105.336" height="162" class="st4"/>
		</g>
		<g id="shape3-13" v:mID="3" v:groupContext="shape" transform="translate(252.591,-213.383)">
			<title>Rectangle.28</title>
			<desc>AllJoyn Core Library</desc>
			<v:userDefs>
				<v:ud v:nameU="visVersion" v:val="VT0(14):26"/>
				<v:ud v:nameU="msvThemeColors" v:val="VT0(36):26"/>
				<v:ud v:nameU="msvThemeEffects" v:val="VT0(16):26"/>
			</v:userDefs>
			<v:textBlock v:margins="rect(4,4,4,4)"/>
			<v:textRect cx="142.955" cy="597.375" width="285.92" height="29.25"/>
			<g id="shadow3-14" v:groupContext="shadow" v:shadowOffsetX="1.44" v:shadowOffsetY="-1.44" v:shadowType="1"
					transform="matrix(1,0,0,1,1.44,1.44)" class="st1">
				<rect x="0" y="582.75" width="285.911" height="29.25" class="st2"/>
			</g>
			<rect x="0" y="582.75" width="285.911" height="29.25" class="st4"/>
			<text x="94.81" y="600.98" class="st5" v:langID="1033"><v:paragraph v:horizAlign="1"/><v:tabList/>AllJoyn Core Library</text>		</g>
		<g id="shape4-19" v:mID="4" v:groupContext="shape" transform="translate(330.376,-496.883)">
			<title>Sheet.4</title>
			<desc>Provider App</desc>
			<v:userDefs>
				<v:ud v:nameU="msvThemeColors" v:val="VT0(36):26"/>
				<v:ud v:nameU="msvThemeEffects" v:val="VT0(16):26"/>
			</v:userDefs>
			<v:textBlock v:margins="rect(4,4,4,4)"/>
			<v:textRect cx="62.6208" cy="604" width="125.25" height="16"/>
			<rect x="0" y="596" width="125.242" height="16" class="st6"/>
			<text x="25.52" y="608.2" class="st7" v:langID="1033"><v:paragraph v:horizAlign="1"/><v:tabList/>Provider App</text>		</g>
		<g id="shape5-22" v:mID="5" v:groupContext="shape" transform="translate(259.662,-467.955)">
			<title>Sheet.5</title>
			<desc>Service Object 1</desc>
			<v:userDefs>
				<v:ud v:nameU="msvThemeColors" v:val="VT0(36):26"/>
				<v:ud v:nameU="msvThemeEffects" v:val="VT0(16):26"/>
			</v:userDefs>
			<v:textBlock v:margins="rect(4,4,4,4)"/>
			<v:textRect cx="47.3813" cy="604" width="94.77" height="16"/>
			<rect x="0" y="596" width="94.7625" height="16" class="st6"/>
			<text x="14.04" y="607" class="st8" v:langID="1033"><v:paragraph v:horizAlign="1"/><v:tabList/><tspan class="st9">Service Object </tspan><tspan
						class="st9">1</tspan></text>		</g>
		<g id="shape6-27" v:mID="6" v:groupContext="shape" transform="translate(272.031,-369.597)">
			<title>Rectangle.10</title>
			<v:userDefs>
				<v:ud v:nameU="visVersion" v:val="VT0(14):26"/>
				<v:ud v:nameU="msvThemeColors" v:val="VT0(36):26"/>
				<v:ud v:nameU="msvThemeEffects" v:val="VT0(16):26"/>
			</v:userDefs>
			<g id="shadow6-28" v:groupContext="shadow" v:shadowOffsetX="1.44" v:shadowOffsetY="-1.44" v:shadowType="1"
					transform="matrix(1,0,0,1,1.44,1.44)" class="st1">
				<rect x="0" y="528.75" width="87.78" height="83.25" class="st2"/>
			</g>
			<rect x="0" y="528.75" width="87.78" height="83.25" class="st10"/>
		</g>
		<g id="shape7-33" v:mID="7" v:groupContext="shape" transform="translate(279.124,-378.597)">
			<title>Rounded rectangle.4</title>
			<desc>Methods Signals Properties</desc>
			<v:userDefs>
				<v:ud v:nameU="visVersion" v:val="VT0(14):26"/>
				<v:ud v:nameU="msvThemeColors" v:val="VT0(36):26"/>
				<v:ud v:nameU="msvThemeEffects" v:val="VT0(16):26"/>
			</v:userDefs>
			<v:textBlock v:margins="rect(4,4,4,4)"/>
			<v:textRect cx="36.7971" cy="582.75" width="73.6" height="58.5"/>
			<g id="shadow7-34" v:groupContext="shadow" v:shadowOffsetX="1.44" v:shadowOffsetY="-1.44" v:shadowType="1"
					transform="matrix(1,0,0,1,1.44,1.44)" class="st1">
				<path d="M64.59 612 A9.00007 9.00007 -180 0 0 73.59 603 L73.59 562.5 A9.00007 9.00007 -180 0 0 64.59 553.5 L9 553.5
							 A9.00007 9.00007 -180 0 0 -0 562.5 L0 603 A9.00007 9.00007 -180 0 0 9 612 L64.59 612 Z" class="st2"/>
			</g>
			<path d="M64.59 612 A9.00007 9.00007 -180 0 0 73.59 603 L73.59 562.5 A9.00007 9.00007 -180 0 0 64.59 553.5 L9 553.5 A9.00007
						 9.00007 -180 0 0 -0 562.5 L0 603 A9.00007 9.00007 -180 0 0 9 612 L64.59 612 Z" class="st11"/>
			<text x="8.07" y="563.85" class="st12" v:langID="1033"><v:paragraph/><v:tabList/>Methods<v:newlineChar/><v:newlineChar/><tspan
						x="4" dy="2.4em" class="st13">  </tspan>Signals<v:newlineChar/><v:newlineChar/><tspan x="4" dy="2.4em"
						class="st13">  </tspan>Properties</text>		</g>
		<g id="shape8-42" v:mID="8" v:groupContext="shape" transform="translate(270.102,-437.097)">
			<title>Sheet.8</title>
			<desc>Bus Interface A1</desc>
			<v:userDefs>
				<v:ud v:nameU="msvThemeColors" v:val="VT0(36):26"/>
				<v:ud v:nameU="msvThemeEffects" v:val="VT0(16):26"/>
			</v:userDefs>
			<v:textBlock v:margins="rect(4,4,4,4)"/>
			<v:textRect cx="44.1338" cy="604" width="88.27" height="16"/>
			<rect x="0" y="596" width="88.2677" height="16" class="st6"/>
			<text x="10.83" y="607" class="st14" v:langID="1033"><v:paragraph v:horizAlign="1"/><v:tabList/>Bus Interface A1</text>		</g>
		<g id="shape9-45" v:mID="9" v:groupContext="shape" transform="translate(271.078,-329.74)">
			<title>Rectangle.11</title>
			<v:userDefs>
				<v:ud v:nameU="visVersion" v:val="VT0(14):26"/>
				<v:ud v:nameU="msvThemeColors" v:val="VT0(36):26"/>
				<v:ud v:nameU="msvThemeEffects" v:val="VT0(16):26"/>
			</v:userDefs>
			<g id="shadow9-46" v:groupContext="shadow" v:shadowOffsetX="1.44" v:shadowOffsetY="-1.44" v:shadowType="1"
					transform="matrix(1,0,0,1,1.44,1.44)" class="st1">
				<rect x="0" y="588.375" width="87.78" height="23.625" class="st2"/>
			</g>
			<rect x="0" y="588.375" width="87.78" height="23.625" class="st10"/>
		</g>
		<g id="shape10-50" v:mID="10" v:groupContext="shape" transform="translate(270.591,-333.553)">
			<title>Sheet.10</title>
			<desc>Bus Interface An</desc>
			<v:userDefs>
				<v:ud v:nameU="msvThemeColors" v:val="VT0(36):26"/>
				<v:ud v:nameU="msvThemeEffects" v:val="VT0(16):26"/>
			</v:userDefs>
			<v:textBlock v:margins="rect(4,4,4,4)"/>
			<v:textRect cx="44.1338" cy="604" width="88.27" height="16"/>
			<rect x="0" y="596" width="88.2677" height="16" class="st6"/>
			<text x="10.74" y="607" class="st14" v:langID="1033"><v:paragraph v:horizAlign="1"/><v:tabList/>Bus Interface An</text>		</g>
		<g id="shape11-53" v:mID="11" v:groupContext="shape" transform="translate(295.662,-355.937)">
			<title>Sheet.11</title>
			<desc>:</desc>
			<v:userDefs>
				<v:ud v:nameU="msvThemeColors" v:val="VT0(36):26"/>
				<v:ud v:nameU="msvThemeEffects" v:val="VT0(16):26"/>
			</v:userDefs>
			<v:textBlock v:margins="rect(4,4,4,4)"/>
			<v:textRect cx="18.7752" cy="605.848" width="37.56" height="12.3036"/>
			<rect x="0" y="599.696" width="37.5503" height="12.3036" class="st6"/>
			<text x="17.17" y="609.45" class="st5" v:langID="1033"><v:paragraph v:horizAlign="1"/><v:tabList/>:</text>		</g>
		<g id="shape12-56" v:mID="12" v:groupContext="shape" transform="translate(375.376,-377.312)">
			<title>Sheet.12</title>
			<desc>. . .</desc>
			<v:userDefs>
				<v:ud v:nameU="msvThemeColors" v:val="VT0(36):26"/>
				<v:ud v:nameU="msvThemeEffects" v:val="VT0(16):26"/>
			</v:userDefs>
			<v:textBlock v:margins="rect(4,4,4,4)"/>
			<v:textRect cx="18.276" cy="604" width="36.56" height="16"/>
			<rect x="0" y="596" width="36.5521" height="16" class="st6"/>
			<text x="10.76" y="607.6" class="st15" v:langID="1033"><v:paragraph v:horizAlign="1"/><v:tabList/>. . .</text>		</g>
		<g id="shape13-59" v:mID="13" v:groupContext="shape" transform="translate(262.876,-250.669)">
			<title>Rectangle.13</title>
			<v:userDefs>
				<v:ud v:nameU="visVersion" v:val="VT0(14):26"/>
				<v:ud v:nameU="msvThemeColors" v:val="VT0(36):26"/>
				<v:ud v:nameU="msvThemeEffects" v:val="VT0(16):26"/>
			</v:userDefs>
			<g id="shadow13-60" v:groupContext="shadow" v:shadowOffsetX="1.44" v:shadowOffsetY="-1.44" v:shadowType="1"
					transform="matrix(1,0,0,1,1.44,1.44)" class="st1">
				<rect x="0" y="550.125" width="265.5" height="61.875" class="st2"/>
			</g>
			<rect x="0" y="550.125" width="265.5" height="61.875" class="st4"/>
		</g>
		<g id="shape14-64" v:mID="14" v:groupContext="shape" transform="translate(280.876,-259.669)">
			<title>Ellipse</title>
			<desc>Session 1 Session Port Session Id</desc>
			<v:userDefs>
				<v:ud v:nameU="visVersion" v:val="VT0(14):26"/>
				<v:ud v:nameU="msvThemeColors" v:val="VT0(36):26"/>
				<v:ud v:nameU="msvThemeEffects" v:val="VT0(16):26"/>
			</v:userDefs>
			<v:textBlock v:margins="rect(4,4,4,4)"/>
			<v:textRect cx="43.6406" cy="588" width="76.38" height="42"/>
			<g id="shadow14-65" v:groupContext="shadow" v:shadowOffsetX="1.44" v:shadowOffsetY="-1.44" v:shadowType="1"
					transform="matrix(1,0,0,1,1.44,1.44)" class="st1">
				<path d="M0 588 A43.6406 24 0 0 1 87.28 588 A43.6406 24 0 0 1 0 588 Z" class="st2"/>
			</g>
			<path d="M0 588 A43.6406 24 0 0 1 87.28 588 A43.6406 24 0 0 1 0 588 Z" class="st4"/>
			<text x="24.51" y="573" class="st8" v:langID="1033"><v:paragraph v:horizAlign="1"/><v:tabList/><tspan class="st9">Session </tspan><tspan
						class="st9">1<v:newlineChar/><v:newlineChar/></tspan><tspan x="18.77" dy="2.4em" class="st16">Session Port<v:newlineChar/></tspan><tspan
						x="23.52" dy="1.2em" class="st16">Session Id</tspan></text>		</g>
		<g id="shape15-74" v:mID="15" v:groupContext="shape" transform="translate(424.876,-260.794)">
			<title>Ellipse.26</title>
			<desc>Session N Session Port Session Id</desc>
			<v:userDefs>
				<v:ud v:nameU="visVersion" v:val="VT0(14):26"/>
				<v:ud v:nameU="msvThemeColors" v:val="VT0(36):26"/>
				<v:ud v:nameU="msvThemeEffects" v:val="VT0(16):26"/>
			</v:userDefs>
			<v:textBlock v:margins="rect(4,4,4,4)"/>
			<v:textRect cx="43.6406" cy="588.563" width="76.38" height="41.0156"/>
			<g id="shadow15-75" v:groupContext="shadow" v:shadowOffsetX="1.44" v:shadowOffsetY="-1.44" v:shadowType="1"
					transform="matrix(1,0,0,1,1.44,1.44)" class="st1">
				<path d="M0 588.56 A43.6406 23.4375 0 0 1 87.28 588.56 A43.6406 23.4375 0 1 1 -0 588.56 Z" class="st2"/>
			</g>
			<path d="M0 588.56 A43.6406 23.4375 0 0 1 87.28 588.56 A43.6406 23.4375 0 1 1 -0 588.56 Z" class="st4"/>
			<text x="23.75" y="573.56" class="st8" v:langID="1033"><v:paragraph v:horizAlign="1"/><v:tabList/><tspan class="st9">Session N</tspan><v:newlineChar/><v:newlineChar/><tspan
						x="18.77" dy="2.4em" class="st16">Session Port<v:newlineChar/></tspan><tspan x="23.52" dy="1.2em"
						class="st16">Session Id</tspan></text>		</g>
		<g id="shape16-83" v:mID="16" v:groupContext="shape" transform="translate(377.027,-273.419)">
			<title>Sheet.16</title>
			<desc>. . .</desc>
			<v:userDefs>
				<v:ud v:nameU="msvThemeColors" v:val="VT0(36):26"/>
				<v:ud v:nameU="msvThemeEffects" v:val="VT0(16):26"/>
			</v:userDefs>
			<v:textBlock v:margins="rect(4,4,4,4)"/>
			<v:textRect cx="14.0521" cy="604" width="28.11" height="16"/>
			<rect x="0" y="596" width="28.1042" height="16" class="st6"/>
			<text x="6.53" y="607.6" class="st15" v:langID="1033"><v:paragraph v:horizAlign="1"/><v:tabList/>. . .</text>		</g>
		<g id="shape17-86" v:mID="17" v:groupContext="shape" transform="translate(346.448,-255.169)">
			<title>Sheet.17</title>
			<desc>Hosted Sessions</desc>
			<v:userDefs>
				<v:ud v:nameU="msvThemeColors" v:val="VT0(36):26"/>
				<v:ud v:nameU="msvThemeEffects" v:val="VT0(16):26"/>
			</v:userDefs>
			<v:textBlock v:margins="rect(4,4,4,4)"/>
			<v:textRect cx="50.1521" cy="607.5" width="100.31" height="9"/>
			<rect x="0" y="603" width="100.304" height="9" class="st6"/>
			<text x="16.79" y="610.5" class="st8" v:langID="1033"><v:paragraph v:horizAlign="1"/><v:tabList/>Hosted Sessions</text>		</g>
		<g id="shape18-89" v:mID="18" v:groupContext="shape" transform="translate(1007.54,396.914) rotate(89.8406)">
			<title>Sheet.18</title>
			<v:userDefs>
				<v:ud v:nameU="msvThemeColors" v:val="VT0(36):26"/>
				<v:ud v:nameU="msvThemeEffects" v:val="VT0(16):26"/>
			</v:userDefs>
			<g id="shadow18-90" v:groupContext="shadow" v:shadowOffsetX="1.44" v:shadowOffsetY="-1.44" v:shadowType="1"
					transform="matrix(1,8.99973E-020,8.99973E-020,1,1.444,-1.43599)" class="st1">
				<path d="M0 612 L33.75 612" class="st17"/>
			</g>
			<path d="M0 612 L33.75 612" class="st18"/>
		</g>
		<g id="shape19-96" v:mID="19" v:groupContext="shape" transform="translate(251.64,-100.883)">
			<title>Rectangle.37</title>
			<v:userDefs>
				<v:ud v:nameU="visVersion" v:val="VT0(14):26"/>
				<v:ud v:nameU="msvThemeColors" v:val="VT0(36):26"/>
				<v:ud v:nameU="msvThemeEffects" v:val="VT0(16):26"/>
			</v:userDefs>
			<g id="shadow19-97" v:groupContext="shadow" v:shadowOffsetX="1.44" v:shadowOffsetY="-1.44" v:shadowType="1"
					transform="matrix(1,0,0,1,1.44,1.44)" class="st1">
				<rect x="0" y="533.25" width="288" height="78.75" class="st2"/>
			</g>
			<rect x="0" y="533.25" width="288" height="78.75" class="st11"/>
		</g>
		<g id="shape20-101" v:mID="20" v:groupContext="shape" transform="translate(401.091,-190.883)">
			<title>Sheet.20</title>
			<desc>Unique Name WKN1, … WKNn</desc>
			<v:userDefs>
				<v:ud v:nameU="msvThemeColors" v:val="VT0(36):26"/>
				<v:ud v:nameU="msvThemeEffects" v:val="VT0(16):26"/>
			</v:userDefs>
			<v:textBlock v:margins="rect(4,4,4,4)"/>
			<v:textRect cx="47.25" cy="604" width="94.5" height="16"/>
			<rect x="0" y="596" width="94.5" height="16" class="st6"/>
			<text x="4" y="601" class="st14" v:langID="1033"><v:paragraph/><v:tabList/>Unique Name<v:newlineChar/><tspan x="4"
						dy="1.2em" class="st13">WKN</tspan>1, … WKNn</text>		</g>
		<g id="shape21-105" v:mID="21" v:groupContext="shape" transform="translate(419.403,-323.312)">
			<title>Rectangle.4</title>
			<v:userDefs>
				<v:ud v:nameU="visVersion" v:val="VT0(14):26"/>
				<v:ud v:nameU="msvThemeColors" v:val="VT0(36):26"/>
				<v:ud v:nameU="msvThemeEffects" v:val="VT0(16):26"/>
			</v:userDefs>
			<g id="shadow21-106" v:groupContext="shadow" v:shadowOffsetX="1.44" v:shadowOffsetY="-1.44" v:shadowType="1"
					transform="matrix(1,0,0,1,1.44,1.44)" class="st1">
				<rect x="0" y="451.125" width="105.336" height="160.875" class="st2"/>
			</g>
			<rect x="0" y="451.125" width="105.336" height="160.875" class="st4"/>
		</g>
		<g id="shape22-110" v:mID="22" v:groupContext="shape" transform="translate(415.876,-466.669)">
			<title>Sheet.22</title>
			<desc>Service Object N</desc>
			<v:userDefs>
				<v:ud v:nameU="msvThemeColors" v:val="VT0(36):26"/>
				<v:ud v:nameU="msvThemeEffects" v:val="VT0(16):26"/>
			</v:userDefs>
			<v:textBlock v:margins="rect(4,4,4,4)"/>
			<v:textRect cx="47.7375" cy="604" width="95.48" height="16"/>
			<rect x="0" y="596" width="95.475" height="16" class="st6"/>
			<text x="13.64" y="607" class="st8" v:langID="1033"><v:paragraph v:horizAlign="1"/><v:tabList/><tspan class="st9">Service Object N</tspan></text>		</g>
		<g id="shape23-114" v:mID="23" v:groupContext="shape" transform="translate(428.181,-368.312)">
			<title>Rectangle.15</title>
			<v:userDefs>
				<v:ud v:nameU="visVersion" v:val="VT0(14):26"/>
				<v:ud v:nameU="msvThemeColors" v:val="VT0(36):26"/>
				<v:ud v:nameU="msvThemeEffects" v:val="VT0(16):26"/>
			</v:userDefs>
			<g id="shadow23-115" v:groupContext="shadow" v:shadowOffsetX="1.44" v:shadowOffsetY="-1.44" v:shadowType="1"
					transform="matrix(1,0,0,1,1.44,1.44)" class="st1">
				<rect x="0" y="528.75" width="87.78" height="83.25" class="st2"/>
			</g>
			<rect x="0" y="528.75" width="87.78" height="83.25" class="st10"/>
		</g>
		<g id="shape24-119" v:mID="24" v:groupContext="shape" transform="translate(435.274,-377.312)">
			<title>Rounded rectangle.16</title>
			<desc>Methods Signals Properties</desc>
			<v:userDefs>
				<v:ud v:nameU="visVersion" v:val="VT0(14):26"/>
				<v:ud v:nameU="msvThemeColors" v:val="VT0(36):26"/>
				<v:ud v:nameU="msvThemeEffects" v:val="VT0(16):26"/>
			</v:userDefs>
			<v:textBlock v:margins="rect(4,4,4,4)"/>
			<v:textRect cx="36.7971" cy="582.75" width="73.6" height="58.5"/>
			<g id="shadow24-120" v:groupContext="shadow" v:shadowOffsetX="1.44" v:shadowOffsetY="-1.44" v:shadowType="1"
					transform="matrix(1,0,0,1,1.44,1.44)" class="st1">
				<path d="M64.59 612 A9.00007 9.00007 -180 0 0 73.59 603 L73.59 562.5 A9.00007 9.00007 -180 0 0 64.59 553.5 L9 553.5
							 A9.00007 9.00007 -180 0 0 -0 562.5 L0 603 A9.00007 9.00007 -180 0 0 9 612 L64.59 612 Z" class="st2"/>
			</g>
			<path d="M64.59 612 A9.00007 9.00007 -180 0 0 73.59 603 L73.59 562.5 A9.00007 9.00007 -180 0 0 64.59 553.5 L9 553.5 A9.00007
						 9.00007 -180 0 0 -0 562.5 L0 603 A9.00007 9.00007 -180 0 0 9 612 L64.59 612 Z" class="st11"/>
			<text x="8.07" y="563.85" class="st12" v:langID="1033"><v:paragraph/><v:tabList/>Methods<v:newlineChar/><v:newlineChar/><tspan
						x="4" dy="2.4em" class="st13">  </tspan>Signals<v:newlineChar/><v:newlineChar/><tspan x="4" dy="2.4em"
						class="st13">  </tspan>Properties</text>		</g>
		<g id="shape25-127" v:mID="25" v:groupContext="shape" transform="translate(426.252,-435.812)">
			<title>Sheet.25</title>
			<desc>Bus Interface B1</desc>
			<v:userDefs>
				<v:ud v:nameU="msvThemeColors" v:val="VT0(36):26"/>
				<v:ud v:nameU="msvThemeEffects" v:val="VT0(16):26"/>
			</v:userDefs>
			<v:textBlock v:margins="rect(4,4,4,4)"/>
			<v:textRect cx="44.1338" cy="604" width="88.27" height="16"/>
			<rect x="0" y="596" width="88.2677" height="16" class="st6"/>
			<text x="11" y="607" class="st14" v:langID="1033"><v:paragraph v:horizAlign="1"/><v:tabList/>Bus Interface B1</text>		</g>
		<g id="shape26-130" v:mID="26" v:groupContext="shape" transform="translate(428.578,-331.026)">
			<title>Rectangle.18</title>
			<v:userDefs>
				<v:ud v:nameU="visVersion" v:val="VT0(14):26"/>
				<v:ud v:nameU="msvThemeColors" v:val="VT0(36):26"/>
				<v:ud v:nameU="msvThemeEffects" v:val="VT0(16):26"/>
			</v:userDefs>
			<g id="shadow26-131" v:groupContext="shadow" v:shadowOffsetX="1.44" v:shadowOffsetY="-1.44" v:shadowType="1"
					transform="matrix(1,0,0,1,1.44,1.44)" class="st1">
				<rect x="0" y="588.375" width="87.78" height="23.625" class="st2"/>
			</g>
			<rect x="0" y="588.375" width="87.78" height="23.625" class="st10"/>
		</g>
		<g id="shape27-135" v:mID="27" v:groupContext="shape" transform="translate(428.091,-334.838)">
			<title>Sheet.27</title>
			<desc>Bus Interface Bn</desc>
			<v:userDefs>
				<v:ud v:nameU="msvThemeColors" v:val="VT0(36):26"/>
				<v:ud v:nameU="msvThemeEffects" v:val="VT0(16):26"/>
			</v:userDefs>
			<v:textBlock v:margins="rect(4,4,4,4)"/>
			<v:textRect cx="44.1338" cy="604" width="88.27" height="16"/>
			<rect x="0" y="596" width="88.2677" height="16" class="st6"/>
			<text x="10.91" y="607" class="st14" v:langID="1033"><v:paragraph v:horizAlign="1"/><v:tabList/>Bus Interface Bn</text>		</g>
		<g id="shape28-138" v:mID="28" v:groupContext="shape" transform="translate(453.162,-350.955)">
			<title>Sheet.28</title>
			<desc>:</desc>
			<v:userDefs>
				<v:ud v:nameU="msvThemeColors" v:val="VT0(36):26"/>
				<v:ud v:nameU="msvThemeEffects" v:val="VT0(16):26"/>
			</v:userDefs>
			<v:textBlock v:margins="rect(4,4,4,4)"/>
			<v:textRect cx="18.7752" cy="601.75" width="37.56" height="20.5"/>
			<rect x="0" y="591.5" width="37.5503" height="20.5" class="st6"/>
			<text x="17.17" y="605.35" class="st5" v:langID="1033"><v:paragraph v:horizAlign="1"/><v:tabList/>:</text>		</g>
		<g id="shape29-141" v:mID="29" v:groupContext="shape" transform="translate(460.234,-105.705)">
			<title>Rectangle.21</title>
			<v:userDefs>
				<v:ud v:nameU="visVersion" v:val="VT0(14):26"/>
				<v:ud v:nameU="msvThemeColors" v:val="VT0(36):26"/>
				<v:ud v:nameU="msvThemeEffects" v:val="VT0(16):26"/>
			</v:userDefs>
			<g id="shadow29-142" v:groupContext="shadow" v:shadowOffsetX="1.44" v:shadowOffsetY="-1.44" v:shadowType="1"
					transform="matrix(1,0,0,1,1.44,1.44)" class="st1">
				<rect x="0" y="542.25" width="72" height="69.75" class="st2"/>
			</g>
			<rect x="0" y="542.25" width="72" height="69.75" class="st4"/>
		</g>
		<g id="shape30-146" v:mID="30" v:groupContext="shape" transform="translate(460.234,-162.169)">
			<title>Sheet.30</title>
			<desc>Session State</desc>
			<v:userDefs>
				<v:ud v:nameU="msvThemeColors" v:val="VT0(36):26"/>
				<v:ud v:nameU="msvThemeEffects" v:val="VT0(16):26"/>
			</v:userDefs>
			<v:textBlock v:margins="rect(4,4,4,4)"/>
			<v:textRect cx="35.2301" cy="606.095" width="70.47" height="11.8095"/>
			<rect x="0" y="600.19" width="70.4601" height="11.8095" class="st6"/>
			<text x="10.56" y="608.8" class="st12" v:langID="1033"><v:paragraph v:horizAlign="1"/><v:tabList/><tspan class="st9">Session State</tspan></text>		</g>
		<g id="shape31-150" v:mID="31" v:groupContext="shape" transform="translate(464.234,-140.58)">
			<title>Rectangle.31</title>
			<desc>Session 1 Info</desc>
			<v:userDefs>
				<v:ud v:nameU="visVersion" v:val="VT0(14):26"/>
				<v:ud v:nameU="msvThemeColors" v:val="VT0(36):26"/>
				<v:ud v:nameU="msvThemeEffects" v:val="VT0(16):26"/>
			</v:userDefs>
			<v:textBlock v:margins="rect(4,4,4,4)"/>
			<v:textRect cx="32" cy="603.696" width="64.01" height="16.6071"/>
			<g id="shadow31-151" v:groupContext="shadow" v:shadowOffsetX="1.44" v:shadowOffsetY="-1.44" v:shadowType="1"
					transform="matrix(1,0,0,1,1.44,1.44)" class="st1">
				<rect x="0" y="595.393" width="64" height="16.6071" class="st2"/>
			</g>
			<rect x="0" y="595.393" width="64" height="16.6071" class="st19"/>
			<text x="6.84" y="606.4" class="st20" v:langID="1033"><v:paragraph v:horizAlign="1"/><v:tabList/>Session 1 Info</text>		</g>
		<g id="shape32-157" v:mID="32" v:groupContext="shape" transform="translate(464.234,-109.026)">
			<title>Rectangle.32</title>
			<desc>Session N Info</desc>
			<v:userDefs>
				<v:ud v:nameU="visVersion" v:val="VT0(14):26"/>
				<v:ud v:nameU="msvThemeColors" v:val="VT0(36):26"/>
				<v:ud v:nameU="msvThemeEffects" v:val="VT0(16):26"/>
			</v:userDefs>
			<v:textBlock v:margins="rect(4,4,4,4)"/>
			<v:textRect cx="32" cy="603.696" width="64.01" height="16.6071"/>
			<g id="shadow32-158" v:groupContext="shadow" v:shadowOffsetX="1.44" v:shadowOffsetY="-1.44" v:shadowType="1"
					transform="matrix(1,0,0,1,1.44,1.44)" class="st1">
				<rect x="0" y="595.393" width="64" height="16.6071" class="st2"/>
			</g>
			<rect x="0" y="595.393" width="64" height="16.6071" class="st19"/>
			<text x="6.22" y="606.4" class="st20" v:langID="1033"><v:paragraph v:horizAlign="1"/><v:tabList/>Session N Info</text>		</g>
		<g id="shape33-163" v:mID="33" v:groupContext="shape" transform="translate(479.545,-128.955)">
			<title>Sheet.33</title>
			<desc>:</desc>
			<v:userDefs>
				<v:ud v:nameU="msvThemeColors" v:val="VT0(36):26"/>
				<v:ud v:nameU="msvThemeEffects" v:val="VT0(16):26"/>
			</v:userDefs>
			<v:textBlock v:margins="rect(4,4,4,4)"/>
			<v:textRect cx="16.689" cy="607.756" width="33.38" height="8.4881"/>
			<rect x="0" y="603.512" width="33.3781" height="8.4881" class="st6"/>
			<text x="15.35" y="610.76" class="st14" v:langID="1033"><v:paragraph v:horizAlign="1"/><v:tabList/>:</text>		</g>
		<g id="shape34-166" v:mID="34" v:groupContext="shape" transform="translate(299.648,-130.455)">
			<title>Sheet.34</title>
			<desc>AllJoyn Router</desc>
			<v:userDefs>
				<v:ud v:nameU="msvThemeColors" v:val="VT0(36):26"/>
				<v:ud v:nameU="msvThemeEffects" v:val="VT0(16):26"/>
			</v:userDefs>
			<v:textBlock v:margins="rect(4,4,4,4)"/>
			<v:textRect cx="52.4266" cy="601.25" width="104.86" height="21.5"/>
			<rect x="0" y="590.5" width="104.853" height="21.5" class="st6"/>
			<text x="11.37" y="605.45" class="st7" v:langID="1033"><v:paragraph v:horizAlign="1"/><v:tabList/>AllJoyn Router</text>		</g>
		<g id="shape35-169" v:mID="35" v:groupContext="shape" transform="translate(267.376,-453.812)">
			<title>Sheet.35</title>
			<desc>Object path 1</desc>
			<v:userDefs>
				<v:ud v:nameU="msvThemeColors" v:val="VT0(36):26"/>
				<v:ud v:nameU="msvThemeEffects" v:val="VT0(16):26"/>
			</v:userDefs>
			<v:textBlock v:margins="rect(4,4,4,4)"/>
			<v:textRect cx="37.125" cy="605.812" width="74.25" height="12.375"/>
			<rect x="0" y="599.625" width="74.25" height="12.375" class="st6"/>
			<text x="9.6" y="608.81" class="st14" v:langID="1033"><v:paragraph v:horizAlign="1"/><v:tabList/>Object path 1</text>		</g>
		<g id="shape36-172" v:mID="36" v:groupContext="shape" transform="translate(422.305,-452.526)">
			<title>Sheet.36</title>
			<desc>Object path N</desc>
			<v:userDefs>
				<v:ud v:nameU="msvThemeColors" v:val="VT0(36):26"/>
				<v:ud v:nameU="msvThemeEffects" v:val="VT0(16):26"/>
			</v:userDefs>
			<v:textBlock v:margins="rect(4,4,4,4)"/>
			<v:textRect cx="37.125" cy="605.813" width="74.25" height="12.375"/>
			<rect x="0" y="599.625" width="74.25" height="12.375" class="st6"/>
			<text x="8.9" y="608.81" class="st14" v:langID="1033"><v:paragraph v:horizAlign="1"/><v:tabList/>Object path N</text>		</g>
	</g>
</svg>
