<?xml version="1.0" encoding="UTF-8" standalone="no"?>
<!DOCTYPE svg PUBLIC "-//W3C//DTD SVG 1.0//EN" "http://www.w3.org/TR/2001/REC-SVG-20010904/DTD/svg10.dtd">
<!-- Generated by Microsoft Visio 11.0, SVG Export, v1.0 Drawing49.svg Page-1 -->
<svg xmlns="http://www.w3.org/2000/svg" xmlns:xlink="http://www.w3.org/1999/xlink" xmlns:ev="http://www.w3.org/2001/xml-events"
		xmlns:v="http://schemas.microsoft.com/visio/2003/SVGExtensions/" width="11in" height="8.5in" viewBox="0 0 792 612"
		xml:space="preserve" color-interpolation-filters="sRGB" class="st28">
	<v:documentProperties v:langID="1033" v:viewMarkup="false">
		<v:userDefs>
			<v:ud v:nameU="msvNoAutoConnect" v:val="VT0(0):26"/>
		</v:userDefs>
	</v:documentProperties>

	<style type="text/css">
	<![CDATA[
		.st1 {visibility:visible}
		.st2 {fill:#cdcdcd;fill-opacity:0.5;stroke:#cdcdcd;stroke-linecap:round;stroke-linejoin:round;stroke-opacity:0.5;stroke-width:0.25}
		.st3 {fill:url(#grad30-6);stroke:#404040;stroke-linecap:round;stroke-linejoin:round;stroke-width:0.25}
		.st4 {fill:url(#grad30-12);stroke:#404040;stroke-linecap:round;stroke-linejoin:round;stroke-width:0.25}
		.st5 {fill:#000000;font-family:Calibri;font-size:1.00001em}
		.st6 {font-size:1em}
		.st7 {fill:url(#grad30-37);stroke:#404040;stroke-linecap:round;stroke-linejoin:round;stroke-width:0.25}
		.st8 {fill:#000000;font-family:Calibri;font-size:1.16666em}
		.st9 {stroke:#cdcdcd;stroke-linecap:round;stroke-linejoin:round;stroke-opacity:0.5;stroke-width:0.25}
		.st10 {stroke:#404040;stroke-linecap:round;stroke-linejoin:round;stroke-width:0.25}
		.st11 {fill:none;stroke:none;stroke-linecap:round;stroke-linejoin:round;stroke-width:0.25}
		.st12 {fill:#000000;font-family:Calibri;font-size:1.00001em;font-weight:bold}
		.st13 {fill:none;stroke:#404040;stroke-linecap:round;stroke-linejoin:round;stroke-width:2.16}
		.st14 {fill:#000000;font-family:Calibri;font-size:1.5em}
		.st15 {fill:url(#grad30-129);stroke:#404040;stroke-linecap:round;stroke-linejoin:round;stroke-width:0.25}
		.st16 {fill:#cdcdcd;fill-opacity:0.5;stroke:#cdcdcd;stroke-linecap:round;stroke-linejoin:round;stroke-opacity:0.5;stroke-width:0.72}
		.st17 {fill:#ff00ff;fill-opacity:0;stroke:#000000;stroke-linecap:round;stroke-linejoin:round;stroke-opacity:0;stroke-width:0.72}
		.st18 {fill:url(#grad36-154);stroke:none;stroke-linecap:round;stroke-linejoin:round;stroke-width:0.72}
		.st19 {fill:url(#grad26-158);stroke:none;stroke-linecap:round;stroke-linejoin:round;stroke-width:0.72}
		.st20 {fill:#ffffff;stroke:#ffffff;stroke-linecap:round;stroke-linejoin:round;stroke-width:0.72}
		.st21 {fill:url(#grad35-164);stroke:#000000;stroke-linecap:round;stroke-linejoin:round;stroke-width:0.72}
		.st22 {stroke:#ffffff;stroke-linecap:round;stroke-linejoin:round;stroke-width:0.72}
		.st23 {fill:url(#grad36-175);stroke:#000000;stroke-linecap:round;stroke-linejoin:round;stroke-width:0.24}
		.st24 {fill:url(#grad30-182);stroke:#ffffff;stroke-linecap:round;stroke-linejoin:round;stroke-width:0.72}
		.st25 {fill:url(#grad26-186);stroke:#000000;stroke-linecap:round;stroke-linejoin:round;stroke-width:0.72}
		.st26 {stroke:#404040;stroke-linecap:round;stroke-linejoin:round;stroke-width:1.5}
		.st27 {fill:url(#grad34-194);stroke:#000000;stroke-linecap:round;stroke-linejoin:round;stroke-width:0.24}
		.st28 {fill:none;fill-rule:evenodd;font-size:12px;overflow:visible;stroke-linecap:square;stroke-miterlimit:3}
	]]>
	</style>

	<defs id="Patterns_And_Gradients">
		<linearGradient id="grad30-6" v:fillPattern="30" v:foreground="#f7d8c1" v:background="#fae9dc" x1="0" y1="1" x2="0" y2="0">
			<stop offset="0" style="stop-color:#f7d8c1;stop-opacity:1"/>
			<stop offset="1" style="stop-color:#fae9dc;stop-opacity:1"/>
		</linearGradient>
		<linearGradient id="grad30-12" v:fillPattern="30" v:foreground="#f0f0f0" v:background="#ffffff" x1="0" y1="1" x2="0" y2="0">
			<stop offset="0" style="stop-color:#f0f0f0;stop-opacity:1"/>
			<stop offset="1" style="stop-color:#ffffff;stop-opacity:1"/>
		</linearGradient>
		<linearGradient id="grad30-37" v:fillPattern="30" v:foreground="#0099d2" v:background="#00b0f0" x1="0" y1="1" x2="0" y2="0">
			<stop offset="0" style="stop-color:#0099d2;stop-opacity:1"/>
			<stop offset="1" style="stop-color:#00b0f0;stop-opacity:1"/>
		</linearGradient>
		<linearGradient id="grad30-129" v:fillPattern="30" v:foreground="#e78636" v:background="#ea9651" x1="0" y1="1" x2="0"
				y2="0">
			<stop offset="0" style="stop-color:#e78636;stop-opacity:1"/>
			<stop offset="1" style="stop-color:#ea9651;stop-opacity:1"/>
		</linearGradient>
		<radialGradient id="grad36-154" v:fillPattern="36" v:foreground="#f0f0f0" v:background="#ffffff" cx="0" cy="0" r="1">
			<stop offset="0" style="stop-color:#f0f0f0;stop-opacity:1"/>
			<stop offset="1" style="stop-color:#ffffff;stop-opacity:1"/>
		</radialGradient>
		<linearGradient id="grad26-158" v:fillPattern="26" v:foreground="#eaeaea" v:background="#dbdbdb" x1="0" y1="0" x2="1"
				y2="0">
			<stop offset="0" style="stop-color:#dbdbdb;stop-opacity:1"/>
			<stop offset="0.5" style="stop-color:#eaeaea;stop-opacity:1"/>
			<stop offset="1" style="stop-color:#dbdbdb;stop-opacity:1"/>
		</linearGradient>
		<pattern id="grad35-164" v:fillPattern="35" v:foreground="#ffffff" v:background="#c6d1e3" x="0" y="0" width="1" height="1"
				patternContentUnits="objectBoundingBox">
			<path d="M 0.5 0.5 L 0 0 L 0 1 z" style="fill:url(#grad27-165)"/>
			<path d="M 0.5 0.5 L 1 0 L 1 1 z" style="fill:url(#grad25-166)"/>
			<path d="M 0.5 0.5 L 0 0 L 1 0 z" style="fill:url(#grad30-167)"/>
			<path d="M 0.5 0.5 L 0 1 L 1 1 z" style="fill:url(#grad28-168)"/>
		</pattern>
		<linearGradient id="grad27-165" v:fillPattern="35" v:foreground="#ffffff" v:background="#c6d1e3" x1="1" y1="0" x2="0"
				y2="0">
			<stop offset="0" style="stop-color:#ffffff;stop-opacity:1"/>
			<stop offset="1" style="stop-color:#c6d1e3;stop-opacity:1"/>
		</linearGradient>
		<linearGradient id="grad25-166" v:fillPattern="35" v:foreground="#ffffff" v:background="#c6d1e3" x1="0" y1="0" x2="1"
				y2="0">
			<stop offset="0" style="stop-color:#ffffff;stop-opacity:1"/>
			<stop offset="1" style="stop-color:#c6d1e3;stop-opacity:1"/>
		</linearGradient>
		<linearGradient id="grad30-167" v:fillPattern="35" v:foreground="#ffffff" v:background="#c6d1e3" x1="0" y1="1" x2="0"
				y2="0">
			<stop offset="0" style="stop-color:#ffffff;stop-opacity:1"/>
			<stop offset="1" style="stop-color:#c6d1e3;stop-opacity:1"/>
		</linearGradient>
		<linearGradient id="grad28-168" v:fillPattern="35" v:foreground="#ffffff" v:background="#c6d1e3" x1="0" y1="0" x2="0"
				y2="1">
			<stop offset="0" style="stop-color:#ffffff;stop-opacity:1"/>
			<stop offset="1" style="stop-color:#c6d1e3;stop-opacity:1"/>
		</linearGradient>
		<radialGradient id="grad36-175" v:fillPattern="36" v:foreground="#000000" v:background="#808080" cx="0" cy="0" r="1">
			<stop offset="0" style="stop-color:#000000;stop-opacity:1"/>
			<stop offset="1" style="stop-color:#808080;stop-opacity:1"/>
		</radialGradient>
		<linearGradient id="grad30-182" v:fillPattern="30" v:foreground="#ffffff" v:background="#f2f2f2" x1="0" y1="1" x2="0"
				y2="0">
			<stop offset="0" style="stop-color:#ffffff;stop-opacity:1"/>
			<stop offset="1" style="stop-color:#f2f2f2;stop-opacity:1"/>
		</linearGradient>
		<linearGradient id="grad26-186" v:fillPattern="26" v:foreground="#f0f0f0" v:background="#ffffff" x1="0" y1="0" x2="1"
				y2="0">
			<stop offset="0" style="stop-color:#ffffff;stop-opacity:1"/>
			<stop offset="0.5" style="stop-color:#f0f0f0;stop-opacity:1"/>
			<stop offset="1" style="stop-color:#ffffff;stop-opacity:1"/>
		</linearGradient>
		<pattern id="grad34-194" v:fillPattern="34" v:foreground="#000000" v:background="#ffffff" x="0" y="0" width="1" height="1"
				patternContentUnits="objectBoundingBox">
			<path d="M 0 0 L 1 0 L 1 1 z" style="fill:url(#grad30-195)"/>
			<path d="M 0 0 L 0 1 L 1 1 z" style="fill:url(#grad27-196)"/>
		</pattern>
		<linearGradient id="grad30-195" v:fillPattern="34" v:foreground="#000000" v:background="#ffffff" x1="0" y1="1" x2="0"
				y2="0">
			<stop offset="0" style="stop-color:#000000;stop-opacity:1"/>
			<stop offset="1" style="stop-color:#ffffff;stop-opacity:1"/>
		</linearGradient>
		<linearGradient id="grad27-196" v:fillPattern="34" v:foreground="#000000" v:background="#ffffff" x1="1" y1="0" x2="0"
				y2="0">
			<stop offset="0" style="stop-color:#000000;stop-opacity:1"/>
			<stop offset="1" style="stop-color:#ffffff;stop-opacity:1"/>
		</linearGradient>
	</defs>
	<g v:mID="0" v:index="1" v:groupContext="foregroundPage">
		<v:userDefs>
			<v:ud v:nameU="msvThemeColors" v:val="VT0(36):26"/>
			<v:ud v:nameU="msvThemeEffects" v:val="VT0(16):26"/>
			<v:ud v:nameU="msvThemeOrder" v:val="VT0(0):26"/>
		</v:userDefs>
		<title>Page-1</title>
		<v:pageProperties v:drawingScale="1" v:pageScale="1" v:drawingUnits="0" v:shadowOffsetX="9" v:shadowOffsetY="-9"/>
		<v:layer v:name="Annotations" v:index="0"/>
		<g id="shape1-1" v:mID="1" v:groupContext="shape" transform="translate(140.284,-80.4536)">
			<title>Cloud.11</title>
			<v:userDefs>
				<v:ud v:nameU="solsh"/>
				<v:ud v:nameU="shapetype" v:val="VT0(1):26"/>
				<v:ud v:nameU="shapelook" v:val="VT0(2):26"/>
				<v:ud v:nameU="visVersion" v:val="VT0(14):26"/>
				<v:ud v:nameU="msvThemeColors" v:val="VT0(36):26"/>
				<v:ud v:nameU="msvThemeEffects" v:val="VT0(16):26"/>
			</v:userDefs>
			<g id="shadow1-2" v:groupContext="shadow" v:shadowOffsetX="1.44" v:shadowOffsetY="-1.44" v:shadowType="1"
					transform="matrix(1,0,0,1,1.44,1.44)" class="st1">
				<path d="M156 371.79 A66.4756 71.5912 0 0 1 273.28 370.86 A48.7918 52.5466 0 0 1 357.2 388.24 A49.0702 52.8465 0
							 0 1 415.15 414.88 A37.016 39.8646 0 0 1 395.46 463.23 A41.8024 45.0194 0 0 1 363.4 546.33 A75.2752 81.068
							 0 0 1 258.59 588.14 A94.8051 102.101 0 0 1 127.04 578 A52.173 56.188 0 0 1 35.27 532.7 A37.7004 40.6016
							 0 0 1 35.44 451.66 A32.2574 34.7398 0 1 1 61.47 388.1 A50.5691 54.4607 0 0 1 156 371.79 Z" class="st2"/>
			</g>
			<path d="M156 371.79 A66.4756 71.5912 0 0 1 273.28 370.86 A48.7918 52.5466 0 0 1 357.2 388.24 A49.0702 52.8465 0 0 1
						 415.15 414.88 A37.016 39.8646 0 0 1 395.46 463.23 A41.8024 45.0194 0 0 1 363.4 546.33 A75.2752 81.068 0
						 0 1 258.59 588.14 A94.8051 102.101 0 0 1 127.04 578 A52.173 56.188 0 0 1 35.27 532.7 A37.7004 40.6016 0
						 0 1 35.44 451.66 A32.2574 34.7398 0 1 1 61.47 388.1 A50.5691 54.4607 0 0 1 156 371.79 Z" class="st3"/>
		</g>
		<g id="shape2-7" v:mID="2" v:groupContext="shape" transform="translate(423.972,-135.204)">
			<title>Rounded rectangle.2</title>
			<desc>AllJoyn Device 4 (Consumer)</desc>
			<v:userDefs>
				<v:ud v:nameU="visVersion" v:val="VT0(14):26"/>
				<v:ud v:nameU="msvThemeColors" v:val="VT0(36):26"/>
				<v:ud v:nameU="msvThemeEffects" v:val="VT0(16):26"/>
			</v:userDefs>
			<v:textBlock v:margins="rect(4,4,4,4)"/>
			<v:textRect cx="38.0625" cy="586.625" width="76.13" height="50.75"/>
			<g id="shadow2-8" v:groupContext="shadow" v:shadowOffsetX="1.44" v:shadowOffsetY="-1.44" v:shadowType="1"
					transform="matrix(1,0,0,1,1.44,1.44)" class="st1">
				<path d="M67.13 612 A9.00007 9.00007 -180 0 0 76.13 603 L76.13 570.25 A9.00007 9.00007 -180 0 0 67.13 561.25 L9 561.25
							 A9.00007 9.00007 -180 0 0 -0 570.25 L0 603 A9.00007 9.00007 -180 0 0 9 612 L67.13 612 Z" class="st2"/>
			</g>
			<path d="M67.13 612 A9.00007 9.00007 -180 0 0 76.13 603 L76.13 570.25 A9.00007 9.00007 -180 0 0 67.13 561.25 L9 561.25
						 A9.00007 9.00007 -180 0 0 -0 570.25 L0 603 A9.00007 9.00007 -180 0 0 9 612 L67.13 612 Z" class="st4"/>
			<text x="20.89" y="575.83" class="st5" v:langID="1033"><v:paragraph v:horizAlign="1"/><v:tabList/>AllJoyn <tspan
						x="17.38" dy="1.2em" class="st6">Device </tspan>4<v:newlineChar/><tspan x="9.54" dy="1.2em" class="st6">(</tspan>Consumer)</text>		</g>
		<g id="shape3-16" v:mID="3" v:groupContext="shape" transform="translate(172.722,-175.704)">
			<title>Rounded rectangle.10</title>
			<desc>AllJoyn Device 2 (Consumer)</desc>
			<v:userDefs>
				<v:ud v:nameU="visVersion" v:val="VT0(14):26"/>
				<v:ud v:nameU="msvThemeColors" v:val="VT0(36):26"/>
				<v:ud v:nameU="msvThemeEffects" v:val="VT0(16):26"/>
			</v:userDefs>
			<v:textBlock v:margins="rect(4,4,4,4)"/>
			<v:textRect cx="38.0625" cy="586.625" width="76.13" height="50.75"/>
			<g id="shadow3-17" v:groupContext="shadow" v:shadowOffsetX="1.44" v:shadowOffsetY="-1.44" v:shadowType="1"
					transform="matrix(1,0,0,1,1.44,1.44)" class="st1">
				<path d="M67.13 612 A9.00007 9.00007 -180 0 0 76.13 603 L76.13 570.25 A9.00007 9.00007 -180 0 0 67.13 561.25 L9 561.25
							 A9.00007 9.00007 -180 0 0 -0 570.25 L0 603 A9.00007 9.00007 -180 0 0 9 612 L67.13 612 Z" class="st2"/>
			</g>
			<path d="M67.13 612 A9.00007 9.00007 -180 0 0 76.13 603 L76.13 570.25 A9.00007 9.00007 -180 0 0 67.13 561.25 L9 561.25
						 A9.00007 9.00007 -180 0 0 -0 570.25 L0 603 A9.00007 9.00007 -180 0 0 9 612 L67.13 612 Z" class="st4"/>
			<text x="20.89" y="575.83" class="st5" v:langID="1033"><v:paragraph v:horizAlign="1"/><v:tabList/>AllJoyn <tspan
						x="17.38" dy="1.2em" class="st6">Device </tspan>2<v:newlineChar/><tspan x="9.54" dy="1.2em" class="st6">(</tspan>Consumer)</text>		</g>
		<g id="shape4-24" v:mID="4" v:groupContext="shape" transform="translate(288.784,-107.454)">
			<title>Rounded rectangle.11</title>
			<desc>AllJoyn Device 3 (Provider)</desc>
			<v:userDefs>
				<v:ud v:nameU="visVersion" v:val="VT0(14):26"/>
				<v:ud v:nameU="msvThemeColors" v:val="VT0(36):26"/>
				<v:ud v:nameU="msvThemeEffects" v:val="VT0(16):26"/>
			</v:userDefs>
			<v:textBlock v:margins="rect(4,4,4,4)"/>
			<v:textRect cx="41.1563" cy="586.25" width="82.32" height="51.5"/>
			<g id="shadow4-25" v:groupContext="shadow" v:shadowOffsetX="1.44" v:shadowOffsetY="-1.44" v:shadowType="1"
					transform="matrix(1,0,0,1,1.44,1.44)" class="st1">
				<path d="M73.31 612 A9.00007 9.00007 -180 0 0 82.31 603 L82.31 569.5 A9.00007 9.00007 -180 0 0 73.31 560.5 L9 560.5
							 A9.00007 9.00007 -180 0 0 -0 569.5 L0 603 A9.00007 9.00007 -180 0 0 9 612 L73.31 612 Z" class="st2"/>
			</g>
			<path d="M73.31 612 A9.00007 9.00007 -180 0 0 82.31 603 L82.31 569.5 A9.00007 9.00007 -180 0 0 73.31 560.5 L9 560.5 A9.00007
						 9.00007 -180 0 0 -0 569.5 L0 603 A9.00007 9.00007 -180 0 0 9 612 L73.31 612 Z" class="st4"/>
			<text x="23.99" y="575.45" class="st5" v:langID="1033"><v:paragraph v:horizAlign="1"/><v:tabList/>AllJoyn<v:newlineChar/><tspan
						x="20.47" dy="1.2em" class="st6">Device </tspan>3<v:newlineChar/><tspan x="16.85" dy="1.2em" class="st6">(</tspan>Provider)</text>		</g>
		<g id="shape5-32" v:mID="5" v:groupContext="shape" transform="translate(425.266,-243.629)">
			<title>Rounded rectangle.12</title>
			<desc>Gateway Node</desc>
			<v:userDefs>
				<v:ud v:nameU="visVersion" v:val="VT0(14):26"/>
				<v:ud v:nameU="msvThemeColors" v:val="VT0(36):26"/>
				<v:ud v:nameU="msvThemeEffects" v:val="VT0(16):26"/>
			</v:userDefs>
			<v:textBlock v:margins="rect(4,4,4,4)"/>
			<v:textRect cx="38.0625" cy="586.625" width="76.13" height="50.75"/>
			<g id="shadow5-33" v:groupContext="shadow" v:shadowOffsetX="1.44" v:shadowOffsetY="-1.44" v:shadowType="1"
					transform="matrix(1,0,0,1,1.44,1.44)" class="st1">
				<path d="M67.13 612 A9.00007 9.00007 -180 0 0 76.13 603 L76.13 570.25 A9.00007 9.00007 -180 0 0 67.13 561.25 L9 561.25
							 A9.00007 9.00007 -180 0 0 -0 570.25 L0 603 A9.00007 9.00007 -180 0 0 9 612 L67.13 612 Z" class="st2"/>
			</g>
			<path d="M67.13 612 A9.00007 9.00007 -180 0 0 76.13 603 L76.13 570.25 A9.00007 9.00007 -180 0 0 67.13 561.25 L9 561.25
						 A9.00007 9.00007 -180 0 0 -0 570.25 L0 603 A9.00007 9.00007 -180 0 0 9 612 L67.13 612 Z" class="st7"/>
			<text x="12.94" y="582.43" class="st8" v:langID="1033"><v:paragraph v:horizAlign="1"/><v:tabList/>Gateway <tspan
						x="22.69" dy="1.2em" class="st6">Node</tspan></text>		</g>
		<g id="shape6-40" v:mID="6" v:groupContext="shape" transform="translate(258.972,-263.704)">
			<title>Rounded rectangle.13</title>
			<desc>AllJoyn Device 1 (Provider)</desc>
			<v:userDefs>
				<v:ud v:nameU="visVersion" v:val="VT0(14):26"/>
				<v:ud v:nameU="msvThemeColors" v:val="VT0(36):26"/>
				<v:ud v:nameU="msvThemeEffects" v:val="VT0(16):26"/>
			</v:userDefs>
			<v:textBlock v:margins="rect(4,4,4,4)"/>
			<v:textRect cx="38.0625" cy="586.625" width="76.13" height="50.75"/>
			<g id="shadow6-41" v:groupContext="shadow" v:shadowOffsetX="1.44" v:shadowOffsetY="-1.44" v:shadowType="1"
					transform="matrix(1,0,0,1,1.44,1.44)" class="st1">
				<path d="M67.13 612 A9.00007 9.00007 -180 0 0 76.13 603 L76.13 570.25 A9.00007 9.00007 -180 0 0 67.13 561.25 L9 561.25
							 A9.00007 9.00007 -180 0 0 -0 570.25 L0 603 A9.00007 9.00007 -180 0 0 9 612 L67.13 612 Z" class="st2"/>
			</g>
			<path d="M67.13 612 A9.00007 9.00007 -180 0 0 76.13 603 L76.13 570.25 A9.00007 9.00007 -180 0 0 67.13 561.25 L9 561.25
						 A9.00007 9.00007 -180 0 0 -0 570.25 L0 603 A9.00007 9.00007 -180 0 0 9 612 L67.13 612 Z" class="st4"/>
			<text x="20.89" y="575.83" class="st5" v:langID="1033"><v:paragraph v:horizAlign="1"/><v:tabList/>AllJoyn <tspan
						x="17.38" dy="1.2em" class="st6">Device </tspan>1<v:newlineChar/><tspan x="13.75" dy="1.2em" class="st6">(</tspan>Provider)</text>		</g>
		<g id="shape7-48" v:mID="7" v:groupContext="shape" transform="translate(-271.46,7.5306) rotate(-51.8834)">
			<title>Sheet.7</title>
			<v:userDefs>
				<v:ud v:nameU="msvThemeColors" v:val="VT0(36):26"/>
				<v:ud v:nameU="msvThemeEffects" v:val="VT0(16):26"/>
			</v:userDefs>
			<g id="shadow7-49" v:groupContext="shadow" v:shadowOffsetX="1.44" v:shadowOffsetY="-1.44" v:shadowType="1"
					transform="matrix(1,2.14672E-017,2.14672E-017,1,-0.244068,2.02179)" class="st1">
				<path d="M0 612 L79.28 612" class="st9"/>
			</g>
			<path d="M0 612 L79.28 612" class="st10"/>
		</g>
		<g id="shape8-55" v:mID="8" v:groupContext="shape" transform="translate(-253.928,636.463) rotate(-107.44)">
			<title>Sheet.8</title>
			<v:userDefs>
				<v:ud v:nameU="msvThemeColors" v:val="VT0(36):26"/>
				<v:ud v:nameU="msvThemeEffects" v:val="VT0(16):26"/>
			</v:userDefs>
			<g id="shadow8-56" v:groupContext="shadow" v:shadowOffsetX="1.44" v:shadowOffsetY="-1.44" v:shadowType="1"
					transform="matrix(1,-6.72205E-018,-1.28207E-017,1,-1.80538,0.942239)" class="st1">
				<path d="M0 612 L109.8 612" class="st9"/>
			</g>
			<path d="M0 612 L109.8 612" class="st10"/>
		</g>
		<g id="shape9-62" v:mID="9" v:groupContext="shape" transform="translate(1.58805,1019.22) rotate(-152.013)">
			<title>Sheet.9</title>
			<v:userDefs>
				<v:ud v:nameU="msvThemeColors" v:val="VT0(36):26"/>
				<v:ud v:nameU="msvThemeEffects" v:val="VT0(16):26"/>
			</v:userDefs>
			<g id="shadow9-63" v:groupContext="shadow" v:shadowOffsetX="1.44" v:shadowOffsetY="-1.44" v:shadowType="1"
					transform="matrix(1,-2.14672E-017,-2.14672E-017,1,-1.94735,-0.595839)" class="st1">
				<path d="M0 612 L88.97 612" class="st9"/>
			</g>
			<path d="M0 612 L88.97 612" class="st10"/>
		</g>
		<g id="shape10-69" v:mID="10" v:groupContext="shape" transform="translate(152.054,-93.0178) rotate(-21.0097)">
			<title>Sheet.10</title>
			<v:userDefs>
				<v:ud v:nameU="msvThemeColors" v:val="VT0(36):26"/>
				<v:ud v:nameU="msvThemeEffects" v:val="VT0(16):26"/>
			</v:userDefs>
			<g id="shadow10-70" v:groupContext="shadow" v:shadowOffsetX="1.44" v:shadowOffsetY="-1.44" v:shadowType="1"
					transform="matrix(1,-2.88127E-017,5.44812E-017,1,0.827992,1.86055)" class="st1">
				<path d="M0 612 L55.44 612" class="st9"/>
			</g>
			<path d="M0 612 L55.44 612" class="st10"/>
		</g>
		<g id="shape11-76" v:mID="11" v:groupContext="shape" transform="translate(242.796,918.162) rotate(-162.653)">
			<title>Sheet.11</title>
			<v:userDefs>
				<v:ud v:nameU="msvThemeColors" v:val="VT0(36):26"/>
				<v:ud v:nameU="msvThemeEffects" v:val="VT0(16):26"/>
			</v:userDefs>
			<g id="shadow11-77" v:groupContext="shadow" v:shadowOffsetX="1.44" v:shadowOffsetY="-1.44" v:shadowType="1"
					transform="matrix(1,6.55942E-018,2.64545E-017,1,-1.80385,-0.945167)" class="st1">
				<path d="M0 612 L95.84 612" class="st9"/>
			</g>
			<path d="M0 612 L95.84 612" class="st10"/>
		</g>
		<g id="shape12-83" v:mID="12" v:groupContext="shape" transform="translate(-148.264,429.993) rotate(-90.3929)">
			<title>Sheet.12</title>
			<v:userDefs>
				<v:ud v:nameU="msvThemeColors" v:val="VT0(36):26"/>
				<v:ud v:nameU="msvThemeEffects" v:val="VT0(16):26"/>
			</v:userDefs>
			<g id="shadow12-84" v:groupContext="shadow" v:shadowOffsetX="1.44" v:shadowOffsetY="-1.44" v:shadowType="1"
					transform="matrix(1,5.12878E-019,-4.60362E-019,1,-1.44984,1.43009)" class="st1">
				<path d="M0 612 L57.43 612" class="st9"/>
			</g>
			<path d="M0 612 L57.43 612" class="st10"/>
		</g>
		<g id="shape13-90" v:mID="13" v:groupContext="shape" transform="translate(-60.638,-14.6765) rotate(-40.1957)">
			<title>Sheet.13</title>
			<v:userDefs>
				<v:ud v:nameU="msvThemeColors" v:val="VT0(36):26"/>
				<v:ud v:nameU="msvThemeEffects" v:val="VT0(16):26"/>
			</v:userDefs>
			<g id="shadow13-91" v:groupContext="shadow" v:shadowOffsetX="1.44" v:shadowOffsetY="-1.44" v:shadowType="1"
					transform="matrix(1,-7.86589E-017,3.5345E-017,1,0.17056,2.02931)" class="st1">
				<path d="M0 612 L130.81 612" class="st9"/>
			</g>
			<path d="M0 612 L130.81 612" class="st10"/>
		</g>
		<g id="shape14-97" v:mID="14" v:groupContext="shape" transform="translate(289.43,1047.49) rotate(-167.264)">
			<title>Sheet.14</title>
			<v:userDefs>
				<v:ud v:nameU="msvThemeColors" v:val="VT0(36):26"/>
				<v:ud v:nameU="msvThemeEffects" v:val="VT0(16):26"/>
			</v:userDefs>
			<g id="shadow14-98" v:groupContext="shadow" v:shadowOffsetX="1.44" v:shadowOffsetY="-1.44" v:shadowType="1"
					transform="matrix(1,9.20217E-018,9.20217E-018,1,-1.72202,-1.08712)" class="st1">
				<path d="M0 612 L180.31 612" class="st9"/>
			</g>
			<path d="M0 612 L180.31 612" class="st10"/>
		</g>
		<g id="shape15-104" v:mID="15" v:groupContext="shape" transform="translate(6.88495,891.311) rotate(-136.99)">
			<title>Sheet.15</title>
			<v:userDefs>
				<v:ud v:nameU="msvThemeColors" v:val="VT0(36):26"/>
				<v:ud v:nameU="msvThemeEffects" v:val="VT0(16):26"/>
			</v:userDefs>
			<g id="shadow15-105" v:groupContext="shadow" v:shadowOffsetX="1.44" v:shadowOffsetY="-1.44" v:shadowType="1"
					transform="matrix(1,-2.6319E-017,-2.08709E-017,1,-2.03524,-0.0707127)" class="st1">
				<path d="M0 612 L140 612" class="st9"/>
			</g>
			<path d="M0 612 L140 612" class="st10"/>
		</g>
		<g id="shape16-111" v:mID="16" v:groupContext="shape" transform="translate(606.962,936.402) rotate(162.729)">
			<title>Sheet.16</title>
			<v:userDefs>
				<v:ud v:nameU="msvThemeColors" v:val="VT0(36):26"/>
				<v:ud v:nameU="msvThemeEffects" v:val="VT0(16):26"/>
			</v:userDefs>
			<g id="shadow16-112" v:groupContext="shadow" v:shadowOffsetX="1.44" v:shadowOffsetY="-1.44" v:shadowType="1"
					transform="matrix(1,-8.48388E-018,-8.48388E-018,1,-0.947553,-1.80259)" class="st1">
				<path d="M0 612 L184.16 612" class="st9"/>
			</g>
			<path d="M0 612 L184.16 612" class="st10"/>
		</g>
		<g id="shape17-118" v:mID="17" v:groupContext="shape" transform="translate(308.266,-323.004)">
			<title>Sheet.17</title>
			<desc>AllJoyn Network</desc>
			<v:userDefs>
				<v:ud v:nameU="msvThemeColors" v:val="VT0(36):26"/>
				<v:ud v:nameU="msvThemeEffects" v:val="VT0(16):26"/>
			</v:userDefs>
			<v:textBlock v:margins="rect(4,4,4,4)"/>
			<v:textRect cx="45" cy="601.25" width="90" height="21.5"/>
			<rect x="0" y="590.5" width="90" height="21.5" class="st11"/>
			<text x="4.03" y="604.85" class="st12" v:langID="1033"><v:paragraph v:horizAlign="1"/><v:tabList/>AllJoyn Network</text>		</g>
		<g id="shape18-121" v:mID="18" v:groupContext="shape" v:layerMember="0" transform="translate(355.516,-422.004)">
			<title>Revision cloud.16</title>
			<desc>Internet</desc>
			<v:userDefs>
				<v:ud v:nameU="AntiScale" v:val="VT0(1):26"/>
				<v:ud v:nameU="visVersion" v:val="VT0(14):26"/>
				<v:ud v:nameU="msvThemeColors" v:val="VT0(36):26"/>
			</v:userDefs>
			<v:textBlock v:margins="rect(0,0,0,0)"/>
			<v:textRect cx="93.375" cy="557.55" width="186.75" height="108.9"/>
			<path d="M7.13 553.06 A23.3094 17.0047 -180 0 0 18.38 581.93 A28.4764 20.7742 -180 0 0 62.13 599.97 A28.815 21.0213 -180
						 0 0 112.92 601.75 A34.2653 24.9974 -180 0 0 166.16 580.84 A26.4605 19.3036 -180 0 0 178.45 547.97 A20.7573
						 15.143 -180 0 0 162.06 524.07 A35.5005 25.8985 -180 0 0 100.63 515.11 A34.8884 25.4519 -180 0 0 39.2 518.09
						 A32.6789 23.84 -180 0 0 7.13 553.06 Z" class="st13"/>
			<text x="63.53" y="562.95" class="st14" v:langID="1033"><v:paragraph v:horizAlign="1"/><v:tabList/>Internet</text>		</g>
		<g id="shape19-124" v:mID="19" v:groupContext="shape" transform="translate(241.216,-471.935)">
			<title>Rectangle</title>
			<desc>Cloud Services</desc>
			<v:userDefs>
				<v:ud v:nameU="visVersion" v:val="VT0(14):26"/>
				<v:ud v:nameU="msvThemeColors" v:val="VT0(36):26"/>
				<v:ud v:nameU="msvThemeEffects" v:val="VT0(16):26"/>
			</v:userDefs>
			<v:textBlock v:margins="rect(4,4,4,4)"/>
			<v:textRect cx="42.525" cy="588.038" width="85.05" height="47.925"/>
			<g id="shadow19-125" v:groupContext="shadow" v:shadowOffsetX="1.44" v:shadowOffsetY="-1.44" v:shadowType="1"
					transform="matrix(1,0,0,1,1.44,1.44)" class="st1">
				<rect x="0" y="564.075" width="85.05" height="47.925" class="st2"/>
			</g>
			<rect x="0" y="564.075" width="85.05" height="47.925" class="st15"/>
			<text x="26.14" y="583.84" class="st8" v:langID="1033"><v:paragraph v:horizAlign="1"/><v:tabList/>Cloud <tspan
						x="19.44" dy="1.2em" class="st6">Services</tspan></text>		</g>
		<g id="shape20-132" v:mID="20" v:groupContext="shape" transform="translate(327.529,728.973) rotate(-177.061)">
			<title>Sheet.20</title>
			<v:userDefs>
				<v:ud v:nameU="msvThemeColors" v:val="VT0(36):26"/>
				<v:ud v:nameU="msvThemeEffects" v:val="VT0(16):26"/>
			</v:userDefs>
			<g id="shadow20-133" v:groupContext="shadow" v:shadowOffsetX="1.44" v:shadowOffsetY="-1.44" v:shadowType="1"
					transform="matrix(1,-2.43945E-019,-2.43945E-019,1,-1.51193,-1.36428)" class="st1">
				<path d="M0 612 L32.68 612" class="st9"/>
			</g>
			<path d="M0 612 L32.68 612" class="st10"/>
		</g>
		<g id="shape21-139" v:mID="21" v:groupContext="shape" transform="translate(1074.81,182.353) rotate(89.7806)">
			<title>Sheet.21</title>
			<v:userDefs>
				<v:ud v:nameU="msvThemeColors" v:val="VT0(36):26"/>
				<v:ud v:nameU="msvThemeEffects" v:val="VT0(16):26"/>
			</v:userDefs>
			<g id="shadow21-140" v:groupContext="shadow" v:shadowOffsetX="1.44" v:shadowOffsetY="-1.44" v:shadowType="1"
					transform="matrix(1,2.29122E-019,-2.30393E-019,1,1.4455,-1.43448)" class="st1">
				<path d="M0 612 L132.93 612" class="st9"/>
			</g>
			<path d="M0 612 L132.93 612" class="st10"/>
		</g>
		<g id="group22-146" transform="translate(591.092,-309.823)" v:mID="22" v:groupContext="group">
			<v:custProps>
				<v:cp v:nameU="ShapeClass" v:lbl="ShapeClass" v:type="0" v:invis="true" v:ask="false" v:langID="1033"
						v:val="VT4(Equipment)"/>
				<v:cp v:nameU="shapetype" v:lbl="ShapeType" v:type="0" v:invis="true" v:ask="false" v:langID="1033"
						v:val="VT4(MobilePhone)"/>
				<v:cp v:nameU="Manufacturer" v:lbl="Manufacturer" v:type="0" v:sortKey="Equipment" v:invis="false" v:ask="false"
						v:langID="1033"/>
				<v:cp v:nameU="ProductNumber" v:lbl="Product Number" v:type="0" v:sortKey="Equipment" v:invis="false" v:ask="false"
						v:langID="1033"/>
				<v:cp v:nameU="PartNumber" v:lbl="Part Number" v:type="0" v:sortKey="Equipment" v:invis="false" v:ask="false"
						v:langID="1033"/>
				<v:cp v:nameU="ProductDescription" v:lbl="Product Description" v:type="0" v:sortKey="Equipment" v:invis="false"
						v:ask="false" v:langID="1033"/>
				<v:cp v:nameU="AssetNumber" v:lbl="Asset Number" v:type="0" v:sortKey="Asset" v:invis="false" v:ask="false"
						v:langID="1033"/>
				<v:cp v:nameU="SerialNumber" v:lbl="Serial Number" v:type="0" v:sortKey="Asset" v:invis="false" v:ask="false"
						v:langID="1033"/>
				<v:cp v:nameU="Location" v:lbl="Location" v:type="0" v:sortKey="Asset" v:invis="false" v:ask="false"
						v:langID="1033"/>
				<v:cp v:nameU="Building" v:lbl="Building" v:type="0" v:sortKey="Asset" v:invis="false" v:ask="false"
						v:langID="1033"/>
				<v:cp v:nameU="Room" v:lbl="Room" v:type="0" v:sortKey="Asset" v:invis="false" v:ask="false" v:langID="1033"/>
				<v:cp v:nameU="NetworkName" v:lbl="Network Name" v:type="0" v:sortKey="Network" v:invis="false" v:ask="false"
						v:langID="1033"/>
				<v:cp v:nameU="IPAddress" v:lbl="IP Address" v:type="0" v:sortKey="Network" v:invis="false" v:ask="false"
						v:langID="1033"/>
				<v:cp v:nameU="SubnetMask" v:lbl="Subnet Mask" v:type="0" v:sortKey="Network" v:invis="false" v:ask="false"
						v:langID="1033"/>
				<v:cp v:nameU="AdminInterface" v:lbl="Administrative Interface" v:type="0" v:sortKey="Network" v:invis="false"
						v:ask="false" v:langID="1033"/>
				<v:cp v:nameU="NumberofPorts" v:lbl="Number of Ports" v:type="0" v:sortKey="Network" v:invis="false" v:ask="false"
						v:langID="1033"/>
				<v:cp v:nameU="MACAddress" v:lbl="MAC Address" v:type="0" v:sortKey="Network" v:invis="false" v:ask="false"
						v:langID="1033"/>
				<v:cp v:nameU="CommunityString" v:lbl="Community String" v:type="0" v:sortKey="Network" v:invis="false"
						v:ask="false" v:langID="1033"/>
				<v:cp v:nameU="NetworkDescription" v:lbl="Network Description" v:type="0" v:sortKey="Network" v:invis="false"
						v:ask="false" v:langID="1033"/>
				<v:cp v:nameU="HardDriveSize" v:lbl="Hard Drive Capacity" v:type="0" v:sortKey="Workstation" v:invis="false"
						v:ask="false" v:langID="1033"/>
				<v:cp v:nameU="CPU" v:lbl="CPU" v:type="0" v:sortKey="Workstation" v:invis="false" v:ask="false" v:langID="1033"/>
				<v:cp v:nameU="Memory" v:lbl="Memory" v:type="0" v:sortKey="Workstation" v:invis="false" v:ask="false"
						v:langID="1033"/>
				<v:cp v:nameU="OperatingSystem" v:lbl="Operating System" v:type="0" v:sortKey="Workstation" v:invis="false"
						v:ask="false" v:langID="1033"/>
			</v:custProps>
			<v:userDefs>
				<v:ud v:nameU="HasText" v:val="VT0(1):5"/>
				<v:ud v:nameU="ShapeClass" v:val="VT0(5):26"/>
				<v:ud v:nameU="shapetype" v:val="VT0(15):26"/>
				<v:ud v:nameU="solsh" v:val="VT14({BF0433D9-CD73-4EB5-8390-8653BE590246}):41"/>
				<v:ud v:nameU="visLegendShape" v:val="VT0(2):26"/>
				<v:ud v:nameU="visVersion" v:prompt="" v:val="VT0(14):26"/>
				<v:ud v:nameU="msvThemeColors" v:val="VT0(36):26"/>
				<v:ud v:nameU="msvThemeEffects" v:val="VT0(16):26"/>
			</v:userDefs>
			<title>Smart phone.45</title>
			<desc>Mobile Device (Remote access)</desc>
			<g id="shape23-147" v:mID="23" v:groupContext="shape" transform="translate(-0.292595,0)">
				<title>Sheet.23</title>
				<v:userDefs>
					<v:ud v:nameU="msvThemeColors" v:val="VT0(36):26"/>
					<v:ud v:nameU="msvThemeEffects" v:val="VT0(16):26"/>
				</v:userDefs>
				<g id="shadow23-148" v:groupContext="shadow" v:shadowOffsetX="1.44" v:shadowOffsetY="-1.44" v:shadowType="1"
						transform="matrix(1,0,0,1,1.44,1.44)" class="st1">
					<path d="M22.12 574.07 A3.83915 3.66139 -1.52 0 0 25.8 574.36 A3.83865 3.66091 178.37 0 1 22.12 574.07 ZM8.23
								 552 A1.84252 1.12599 -0.06 1 0 5.21 552.09 A2.49643 2.38084 170.58 0 1 4.54 551.4 L4.54 560.37 A5.5117
								 5.25648 -176.68 0 0 0.86 563.3 A82.6947 78.8656 179.55 0 1 22.12 574.07 A88.7901 84.6787 -0.45 0
								 0 0.86 563.3 A120.204 114.638 -1 0 0 2.5 600.26 A6.39253 6.09653 -180 0 0 6.28 605.83 A433.978 413.883
								 0 0 1 16.52 611.43 A28.7849 27.4521 -3.49 0 0 22.12 612 A9.44723 9.00979 -179.5 0 0 26.84 605.6
								 A141.839 135.271 -179.65 0 0 28.07 571.24 A51.0424 48.679 -0.59 0 0 8.8 560.82 L8.8 551.4 A2.49643
								 2.38084 170.58 0 1 8.23 552 ZM6.07 552.47 A1.84269 1.12609 -0.06 0 0 7 552.51 A2.49643 2.38084 170.58
								 0 1 6.07 552.47 Z" class="st16"/>
				</g>
				<path d="M22.12 574.07 A3.83915 3.66139 -1.52 0 0 25.8 574.36 A3.83865 3.66091 178.37 0 1 22.12 574.07 ZM8.23 552
							 A1.84252 1.12599 -0.06 1 0 5.21 552.09 A2.49643 2.38084 170.58 0 1 4.54 551.4 L4.54 560.37 A5.5117 5.25648
							 -176.68 0 0 0.86 563.3 A82.6947 78.8656 179.55 0 1 22.12 574.07 A88.7901 84.6787 -0.45 0 0 0.86 563.3
							 A120.204 114.638 -1 0 0 2.5 600.26 A6.39253 6.09653 -180 0 0 6.28 605.83 A433.978 413.883 0 0 1 16.52
							 611.43 A28.7849 27.4521 -3.49 0 0 22.12 612 A9.44723 9.00979 -179.5 0 0 26.84 605.6 A141.839 135.271
							 -179.65 0 0 28.07 571.24 A51.0424 48.679 -0.59 0 0 8.8 560.82 L8.8 551.4 A2.49643 2.38084 170.58 0 1
							 8.23 552 ZM6.07 552.47 A1.84269 1.12609 -0.06 0 0 7 552.51 A2.49643 2.38084 170.58 0 1 6.07 552.47 Z"
						class="st17"/>
			</g>
			<g id="shape24-151" v:mID="24" v:groupContext="shape" transform="translate(-0.292595,-0.623622)">
				<title>Sheet.24</title>
				<v:userDefs>
					<v:ud v:nameU="msvThemeColors" v:val="VT0(36):26"/>
					<v:ud v:nameU="msvThemeEffects" v:val="VT0(16):26"/>
				</v:userDefs>
				<path d="M2.5 600.26 A6.39253 6.09653 -180 0 0 6.28 605.83 A433.978 413.883 0 0 1 16.52 611.43 A28.7849 27.4521 -3.49
							 0 0 22.12 612 L22.12 574.07 A88.7901 84.6787 -0.45 0 0 0.86 563.3 A120.204 114.638 -1 0 0 2.5 600.26
							 Z" class="st18"/>
			</g>
			<g id="shape25-155" v:mID="25" v:groupContext="shape" transform="translate(21.8268,-0.623622)">
				<title>Sheet.25</title>
				<v:userDefs>
					<v:ud v:nameU="msvThemeColors" v:val="VT0(36):26"/>
					<v:ud v:nameU="msvThemeEffects" v:val="VT0(16):26"/>
				</v:userDefs>
				<path d="M-0 612 A9.44723 9.00979 -179.5 0 0 4.72 605.6 A141.839 135.271 -179.65 0 0 5.95 571.24 A3.83865 3.66091
							 178.37 0 1 0 574.07 L0 612 Z" class="st19"/>
			</g>
			<g id="shape26-159" v:mID="26" v:groupContext="shape" transform="translate(0.566929,-37.9465)">
				<title>Sheet.26</title>
				<v:userDefs>
					<v:ud v:nameU="msvThemeColors" v:val="VT0(36):26"/>
					<v:ud v:nameU="msvThemeEffects" v:val="VT0(16):26"/>
				</v:userDefs>
				<path d="M0 600.62 A82.6947 78.8656 179.55 0 1 21.26 611.4 A3.83915 3.66139 -1.52 0 0 27.21 608.56 A51.0424 48.679
							 -0.59 0 0 6.07 597.64 A5.5117 5.25648 -176.68 0 0 0 600.62 Z" class="st20"/>
			</g>
			<g id="shape27-161" v:mID="27" v:groupContext="shape" transform="translate(3.83107,-24.1846)">
				<title>Sheet.27</title>
				<v:userDefs>
					<v:ud v:nameU="msvThemeColors" v:val="VT0(36):26"/>
					<v:ud v:nameU="msvThemeEffects" v:val="VT0(16):26"/>
				</v:userDefs>
				<path d="M1.25 603.53 L15.36 611.3 L15.33 612 L15.29 600.36 L0 591.73 L1.24 592.46 L1.25 603.53 Z" class="st21"/>
			</g>
			<g id="shape28-169" v:mID="28" v:groupContext="shape" transform="translate(3.97789,-24.5989)">
				<title>Sheet.28</title>
				<v:userDefs>
					<v:ud v:nameU="msvThemeColors" v:val="VT0(36):26"/>
					<v:ud v:nameU="msvThemeEffects" v:val="VT0(16):26"/>
				</v:userDefs>
				<path d="M14.26 612 L0 604.28 L0.05 593.49" class="st22"/>
			</g>
			<g id="shape29-172" v:mID="29" v:groupContext="shape" transform="translate(-517.018,265.415) rotate(-60)">
				<title>Sheet.29</title>
				<v:userDefs>
					<v:ud v:nameU="msvThemeColors" v:val="VT0(36):26"/>
					<v:ud v:nameU="msvThemeEffects" v:val="VT0(16):26"/>
				</v:userDefs>
				<ellipse cx="0.799853" cy="610.147" rx="0.799853" ry="1.85338" class="st23"/>
			</g>
			<g id="shape30-176" v:mID="30" v:groupContext="shape" transform="translate(-517.018,299.804) rotate(-60)">
				<title>Sheet.30</title>
				<v:userDefs>
					<v:ud v:nameU="msvThemeColors" v:val="VT0(36):26"/>
					<v:ud v:nameU="msvThemeEffects" v:val="VT0(16):26"/>
				</v:userDefs>
				<ellipse cx="0.799853" cy="610.147" rx="0.799853" ry="1.85338" class="st23"/>
			</g>
			<g id="shape31-179" v:mID="31" v:groupContext="shape" transform="translate(4.53543,-60.0945)">
				<title>Sheet.31</title>
				<v:userDefs>
					<v:ud v:nameU="msvThemeColors" v:val="VT0(36):26"/>
					<v:ud v:nameU="msvThemeEffects" v:val="VT0(16):26"/>
				</v:userDefs>
				<path d="M0 610.88 A1.84252 1.12598 179.97 1 1 3.69 610.87 A1.84252 1.12598 179.97 1 1 0 610.88 Z" class="st24"/>
			</g>
			<g id="shape32-183" v:mID="32" v:groupContext="shape" transform="translate(4.25197,-48.5392)">
				<title>Sheet.32</title>
				<v:userDefs>
					<v:ud v:nameU="msvThemeColors" v:val="VT0(36):26"/>
					<v:ud v:nameU="msvThemeEffects" v:val="VT0(16):26"/>
				</v:userDefs>
				<path d="M0 610.93 A2.57915 2.45973 -180 0 0 4.25 610.93 L4.25 599.31 A2.49643 2.38084 170.58 0 1 0 599.31 L0 610.93
							 Z" class="st25"/>
			</g>
			<g id="shape33-187" v:mID="33" v:groupContext="shape" transform="translate(0.0121019,-0.377121)">
				<title>Sheet.33</title>
				<v:userDefs>
					<v:ud v:nameU="msvThemeColors" v:val="VT0(36):26"/>
					<v:ud v:nameU="msvThemeEffects" v:val="VT0(16):26"/>
				</v:userDefs>
				<path d="M2.61 602.22 A5.30697 5.06123 -180 0 0 4.96 605.14 A961.407 916.89 -180 0 0 16.71 611.44 A7.27725 6.94028
							 -180 0 0 26.16 608.02 A169.539 161.688 -180 0 0 28.22 571.08 A50.084 47.7649 -180 0 0 9.02 560.69 A239.384
							 228.299 -180 0 0 9.03 552.35 A2.77317 2.64477 -180 0 0 3.61 551.94 A219.928 209.744 -180 0 0 3.51 560.38
							 A4.9057 4.67854 -179.43 0 0 0.55 563.05 A152.482 145.422 -179.96 0 0 2.61 602.22" class="st26"/>
			</g>
			<g id="group34-190" transform="translate(5.34974,-9.70764)" v:mID="34" v:groupContext="group">
				<v:userDefs>
					<v:ud v:nameU="msvThemeColors" v:val="VT0(36):26"/>
					<v:ud v:nameU="msvThemeEffects" v:val="VT0(16):26"/>
				</v:userDefs>
				<title>Sheet.34</title>
				<g id="shape35-191" v:mID="35" v:groupContext="shape" transform="translate(-304.819,68.0718) rotate(-30)">
					<title>Sheet.35</title>
					<v:userDefs>
						<v:ud v:nameU="msvThemeColors" v:val="VT0(36):26"/>
						<v:ud v:nameU="msvThemeEffects" v:val="VT0(16):26"/>
					</v:userDefs>
					<ellipse cx="1.4546" cy="610.21" rx="1.4546" ry="1.79013" class="st27"/>
				</g>
				<g id="shape36-197" v:mID="36" v:groupContext="shape" transform="translate(-300.62,70.4577) rotate(-30)">
					<title>Sheet.36</title>
					<v:userDefs>
						<v:ud v:nameU="msvThemeColors" v:val="VT0(36):26"/>
						<v:ud v:nameU="msvThemeEffects" v:val="VT0(16):26"/>
					</v:userDefs>
					<ellipse cx="1.4546" cy="610.21" rx="1.4546" ry="1.79013" class="st27"/>
				</g>
				<g id="shape37-200" v:mID="37" v:groupContext="shape" transform="translate(-296.242,72.8436) rotate(-30)">
					<title>Sheet.37</title>
					<v:userDefs>
						<v:ud v:nameU="msvThemeColors" v:val="VT0(36):26"/>
						<v:ud v:nameU="msvThemeEffects" v:val="VT0(16):26"/>
					</v:userDefs>
					<ellipse cx="1.4546" cy="610.21" rx="1.4546" ry="1.79013" class="st27"/>
				</g>
				<g id="shape38-203" v:mID="38" v:groupContext="shape" transform="translate(-304.819,72.8436) rotate(-30)">
					<title>Sheet.38</title>
					<v:userDefs>
						<v:ud v:nameU="msvThemeColors" v:val="VT0(36):26"/>
						<v:ud v:nameU="msvThemeEffects" v:val="VT0(16):26"/>
					</v:userDefs>
					<ellipse cx="1.4546" cy="610.21" rx="1.4546" ry="1.79013" class="st27"/>
				</g>
				<g id="shape39-206" v:mID="39" v:groupContext="shape" transform="translate(-300.62,75.2295) rotate(-30)">
					<title>Sheet.39</title>
					<v:userDefs>
						<v:ud v:nameU="msvThemeColors" v:val="VT0(36):26"/>
						<v:ud v:nameU="msvThemeEffects" v:val="VT0(16):26"/>
					</v:userDefs>
					<ellipse cx="1.4546" cy="610.21" rx="1.4546" ry="1.79013" class="st27"/>
				</g>
				<g id="shape40-209" v:mID="40" v:groupContext="shape" transform="translate(-296.242,77.6154) rotate(-30)">
					<title>Sheet.40</title>
					<v:userDefs>
						<v:ud v:nameU="msvThemeColors" v:val="VT0(36):26"/>
						<v:ud v:nameU="msvThemeEffects" v:val="VT0(16):26"/>
					</v:userDefs>
					<ellipse cx="1.4546" cy="610.21" rx="1.4546" ry="1.79013" class="st27"/>
				</g>
				<g id="shape41-212" v:mID="41" v:groupContext="shape" transform="translate(-304.819,77.7858) rotate(-30)">
					<title>Sheet.41</title>
					<v:userDefs>
						<v:ud v:nameU="msvThemeColors" v:val="VT0(36):26"/>
						<v:ud v:nameU="msvThemeEffects" v:val="VT0(16):26"/>
					</v:userDefs>
					<ellipse cx="1.4546" cy="610.21" rx="1.4546" ry="1.79013" class="st27"/>
				</g>
				<g id="shape42-215" v:mID="42" v:groupContext="shape" transform="translate(-300.62,80.1717) rotate(-30)">
					<title>Sheet.42</title>
					<v:userDefs>
						<v:ud v:nameU="msvThemeColors" v:val="VT0(36):26"/>
						<v:ud v:nameU="msvThemeEffects" v:val="VT0(16):26"/>
					</v:userDefs>
					<ellipse cx="1.4546" cy="610.21" rx="1.4546" ry="1.79013" class="st27"/>
				</g>
				<g id="shape43-218" v:mID="43" v:groupContext="shape" transform="translate(-296.242,82.5576) rotate(-30)">
					<title>Sheet.43</title>
					<v:userDefs>
						<v:ud v:nameU="msvThemeColors" v:val="VT0(36):26"/>
						<v:ud v:nameU="msvThemeEffects" v:val="VT0(16):26"/>
					</v:userDefs>
					<ellipse cx="1.4546" cy="610.21" rx="1.4546" ry="1.79013" class="st27"/>
				</g>
			</g>
			<g id="shape22-221" v:mID="22" v:groupContext="groupContent">
				<v:textBlock v:margins="rect(4,4,4,4)"/>
				<v:textRect cx="14.1732" cy="630.402" width="90.36" height="36.8038"/>
				<g id="shadow22-222" v:groupContext="shadow" v:shadowOffsetX="1.44" v:shadowOffsetY="-1.44" v:shadowType="1"
						transform="matrix(1,0,0,1,1.44,1.44)" class="st1"/>
				<text x="-20.66" y="626.8" class="st5" v:langID="1033"><v:paragraph v:horizAlign="1"/><v:tabList/>Mobile Device<v:newlineChar/><tspan
							x="-25.64" dy="1.2em" class="st6">(</tspan>Remote access)</text>			</g>
		</g>
		<g id="shape44-225" v:mID="44" v:groupContext="shape" transform="translate(87.7963,612.869) rotate(-124.721)">
			<title>Sheet.44</title>
			<v:userDefs>
				<v:ud v:nameU="msvThemeColors" v:val="VT0(36):26"/>
				<v:ud v:nameU="msvThemeEffects" v:val="VT0(16):26"/>
			</v:userDefs>
			<g id="shadow44-226" v:groupContext="shadow" v:shadowOffsetX="1.44" v:shadowOffsetY="-1.44" v:shadowType="1"
					transform="matrix(1,-2.90295E-017,6.16911E-017,1,-2.00378,0.363404)" class="st1">
				<path d="M0 612 L122.47 612" class="st9"/>
			</g>
			<path d="M0 612 L122.47 612" class="st10"/>
		</g>
	</g>
</svg>
