<?xml version="1.0" encoding="UTF-8" standalone="no"?>
<!DOCTYPE svg PUBLIC "-//W3C//DTD SVG 1.0//EN" "http://www.w3.org/TR/2001/REC-SVG-20010904/DTD/svg10.dtd">
<!-- Generated by Microsoft Visio 11.0, SVG Export, v1.0 Drawing43.svg Page-1 -->
<svg xmlns="http://www.w3.org/2000/svg" xmlns:xlink="http://www.w3.org/1999/xlink" xmlns:ev="http://www.w3.org/2001/xml-events"
		xmlns:v="http://schemas.microsoft.com/visio/2003/SVGExtensions/" width="11in" height="8.5in" viewBox="0 0 792 612"
		xml:space="preserve" color-interpolation-filters="sRGB" class="st12">
	<v:documentProperties v:langID="1033" v:viewMarkup="false">
		<v:userDefs>
			<v:ud v:nameU="msvNoAutoConnect" v:val="VT0(0):26"/>
		</v:userDefs>
	</v:documentProperties>

	<style type="text/css">
	<![CDATA[
		.st1 {visibility:visible}
		.st2 {fill:#cdcdcd;fill-opacity:0.5;stroke:#cdcdcd;stroke-linecap:round;stroke-linejoin:round;stroke-opacity:0.5;stroke-width:0.25}
		.st3 {fill:url(#grad30-6);stroke:#404040;stroke-linecap:round;stroke-linejoin:round;stroke-width:0.25}
		.st4 {fill:url(#grad30-12);stroke:#404040;stroke-linecap:round;stroke-linejoin:round;stroke-width:0.25}
		.st5 {fill:#000000;font-family:Calibri;font-size:1.00001em}
		.st6 {font-size:1em}
		.st7 {stroke:#cdcdcd;stroke-linecap:round;stroke-linejoin:round;stroke-opacity:0.5;stroke-width:0.25}
		.st8 {stroke:#404040;stroke-linecap:round;stroke-linejoin:round;stroke-width:0.25}
		.st9 {fill:none;stroke:none;stroke-linecap:round;stroke-linejoin:round;stroke-width:0.25}
		.st10 {fill:#000000;font-family:Calibri;font-size:2.50001em}
		.st11 {fill:#000000;font-family:Calibri;font-size:1.16666em;font-weight:bold}
		.st12 {fill:none;fill-rule:evenodd;font-size:12px;overflow:visible;stroke-linecap:square;stroke-miterlimit:3}
	]]>
	</style>

	<defs id="Patterns_And_Gradients">
		<linearGradient id="grad30-6" v:fillPattern="30" v:foreground="#f7d8c1" v:background="#fae9dc" x1="0" y1="1" x2="0" y2="0">
			<stop offset="0" style="stop-color:#f7d8c1;stop-opacity:1"/>
			<stop offset="1" style="stop-color:#fae9dc;stop-opacity:1"/>
		</linearGradient>
		<linearGradient id="grad30-12" v:fillPattern="30" v:foreground="#f0f0f0" v:background="#ffffff" x1="0" y1="1" x2="0" y2="0">
			<stop offset="0" style="stop-color:#f0f0f0;stop-opacity:1"/>
			<stop offset="1" style="stop-color:#ffffff;stop-opacity:1"/>
		</linearGradient>
	</defs>
	<g v:mID="0" v:index="1" v:groupContext="foregroundPage">
		<v:userDefs>
			<v:ud v:nameU="msvThemeColors" v:val="VT0(36):26"/>
			<v:ud v:nameU="msvThemeEffects" v:val="VT0(16):26"/>
			<v:ud v:nameU="msvThemeOrder" v:val="VT0(0):26"/>
		</v:userDefs>
		<title>Page-1</title>
		<v:pageProperties v:drawingScale="1" v:pageScale="1" v:drawingUnits="0" v:shadowOffsetX="9" v:shadowOffsetY="-9"/>
		<g id="shape1-1" v:mID="1" v:groupContext="shape" transform="translate(174.469,-162.36)">
			<title>Cloud.11</title>
			<v:userDefs>
				<v:ud v:nameU="solsh"/>
				<v:ud v:nameU="shapetype" v:val="VT0(1):26"/>
				<v:ud v:nameU="shapelook" v:val="VT0(2):26"/>
				<v:ud v:nameU="visVersion" v:val="VT0(14):26"/>
				<v:ud v:nameU="msvThemeColors" v:val="VT0(36):26"/>
				<v:ud v:nameU="msvThemeEffects" v:val="VT0(16):26"/>
			</v:userDefs>
			<g id="shadow1-2" v:groupContext="shadow" v:shadowOffsetX="1.44" v:shadowOffsetY="-1.44" v:shadowType="1"
					transform="matrix(1,0,0,1,1.44,1.44)" class="st1">
				<path d="M164.57 363.64 A70.1289 74.02 0 0 1 288.3 362.68 A51.4733 54.3293 0 0 1 376.83 380.65 A51.767 54.6393 0
							 0 1 437.96 408.2 A39.0503 41.217 0 0 1 417.2 458.19 A44.0998 46.5467 0 0 1 383.37 544.11 A79.4122 83.8183
							 0 0 1 272.81 587.33 A100.015 105.565 0 0 1 134.03 576.84 A55.0403 58.0943 0 0 1 37.21 530.01 A39.7723
							 41.9791 0 0 1 37.39 446.22 A34.0302 35.9184 0 1 1 64.85 380.5 A53.3483 56.3083 0 0 1 164.57 363.64 Z"
						class="st2"/>
			</g>
			<path d="M164.57 363.64 A70.1289 74.02 0 0 1 288.3 362.68 A51.4733 54.3293 0 0 1 376.83 380.65 A51.767 54.6393 0 0 1
						 437.96 408.2 A39.0503 41.217 0 0 1 417.2 458.19 A44.0998 46.5467 0 0 1 383.37 544.11 A79.4122 83.8183 0
						 0 1 272.81 587.33 A100.015 105.565 0 0 1 134.03 576.84 A55.0403 58.0943 0 0 1 37.21 530.01 A39.7723 41.9791
						 0 0 1 37.39 446.22 A34.0302 35.9184 0 1 1 64.85 380.5 A53.3483 56.3083 0 0 1 164.57 363.64 Z" class="st3"/>
		</g>
		<g id="shape2-7" v:mID="2" v:groupContext="shape" transform="translate(458.156,-217.11)">
			<title>Rounded rectangle.2</title>
			<desc>AllJoyn Device 4 (Consumer)</desc>
			<v:userDefs>
				<v:ud v:nameU="visVersion" v:val="VT0(14):26"/>
				<v:ud v:nameU="msvThemeColors" v:val="VT0(36):26"/>
				<v:ud v:nameU="msvThemeEffects" v:val="VT0(16):26"/>
			</v:userDefs>
			<v:textBlock v:margins="rect(4,4,4,4)"/>
			<v:textRect cx="38.0625" cy="586.625" width="76.13" height="50.75"/>
			<g id="shadow2-8" v:groupContext="shadow" v:shadowOffsetX="1.44" v:shadowOffsetY="-1.44" v:shadowType="1"
					transform="matrix(1,0,0,1,1.44,1.44)" class="st1">
				<path d="M67.13 612 A9.00007 9.00007 -180 0 0 76.13 603 L76.13 570.25 A9.00007 9.00007 -180 0 0 67.13 561.25 L9 561.25
							 A9.00007 9.00007 -180 0 0 -0 570.25 L0 603 A9.00007 9.00007 -180 0 0 9 612 L67.13 612 Z" class="st2"/>
			</g>
			<path d="M67.13 612 A9.00007 9.00007 -180 0 0 76.13 603 L76.13 570.25 A9.00007 9.00007 -180 0 0 67.13 561.25 L9 561.25
						 A9.00007 9.00007 -180 0 0 -0 570.25 L0 603 A9.00007 9.00007 -180 0 0 9 612 L67.13 612 Z" class="st4"/>
			<text x="20.89" y="575.83" class="st5" v:langID="1033"><v:paragraph v:horizAlign="1"/><v:tabList/>AllJoyn <tspan
						x="17.38" dy="1.2em" class="st6">Device </tspan>4<v:newlineChar/><tspan x="9.54" dy="1.2em" class="st6">(</tspan>Consumer)</text>		</g>
		<g id="shape3-16" v:mID="3" v:groupContext="shape" transform="translate(206.906,-257.61)">
			<title>Rounded rectangle.10</title>
			<desc>AllJoyn Device 2 (Consumer)</desc>
			<v:userDefs>
				<v:ud v:nameU="visVersion" v:val="VT0(14):26"/>
				<v:ud v:nameU="msvThemeColors" v:val="VT0(36):26"/>
				<v:ud v:nameU="msvThemeEffects" v:val="VT0(16):26"/>
			</v:userDefs>
			<v:textBlock v:margins="rect(4,4,4,4)"/>
			<v:textRect cx="38.0625" cy="586.625" width="76.13" height="50.75"/>
			<g id="shadow3-17" v:groupContext="shadow" v:shadowOffsetX="1.44" v:shadowOffsetY="-1.44" v:shadowType="1"
					transform="matrix(1,0,0,1,1.44,1.44)" class="st1">
				<path d="M67.13 612 A9.00007 9.00007 -180 0 0 76.13 603 L76.13 570.25 A9.00007 9.00007 -180 0 0 67.13 561.25 L9 561.25
							 A9.00007 9.00007 -180 0 0 -0 570.25 L0 603 A9.00007 9.00007 -180 0 0 9 612 L67.13 612 Z" class="st2"/>
			</g>
			<path d="M67.13 612 A9.00007 9.00007 -180 0 0 76.13 603 L76.13 570.25 A9.00007 9.00007 -180 0 0 67.13 561.25 L9 561.25
						 A9.00007 9.00007 -180 0 0 -0 570.25 L0 603 A9.00007 9.00007 -180 0 0 9 612 L67.13 612 Z" class="st4"/>
			<text x="20.89" y="575.83" class="st5" v:langID="1033"><v:paragraph v:horizAlign="1"/><v:tabList/>AllJoyn <tspan
						x="17.38" dy="1.2em" class="st6">Device </tspan>2<v:newlineChar/><tspan x="9.54" dy="1.2em" class="st6">(</tspan>Consumer)</text>		</g>
		<g id="shape4-24" v:mID="4" v:groupContext="shape" transform="translate(322.969,-189.36)">
			<title>Rounded rectangle.11</title>
			<desc>AllJoyn Device 3 (Provider and Consumer)</desc>
			<v:userDefs>
				<v:ud v:nameU="visVersion" v:val="VT0(14):26"/>
				<v:ud v:nameU="msvThemeColors" v:val="VT0(36):26"/>
				<v:ud v:nameU="msvThemeEffects" v:val="VT0(16):26"/>
			</v:userDefs>
			<v:textBlock v:margins="rect(4,4,4,4)"/>
			<v:textRect cx="41.1563" cy="586.25" width="82.32" height="51.5"/>
			<g id="shadow4-25" v:groupContext="shadow" v:shadowOffsetX="1.44" v:shadowOffsetY="-1.44" v:shadowType="1"
					transform="matrix(1,0,0,1,1.44,1.44)" class="st1">
				<path d="M73.31 612 A9.00007 9.00007 -180 0 0 82.31 603 L82.31 569.5 A9.00007 9.00007 -180 0 0 73.31 560.5 L9 560.5
							 A9.00007 9.00007 -180 0 0 -0 569.5 L0 603 A9.00007 9.00007 -180 0 0 9 612 L73.31 612 Z" class="st2"/>
			</g>
			<path d="M73.31 612 A9.00007 9.00007 -180 0 0 82.31 603 L82.31 569.5 A9.00007 9.00007 -180 0 0 73.31 560.5 L9 560.5 A9.00007
						 9.00007 -180 0 0 -0 569.5 L0 603 A9.00007 9.00007 -180 0 0 9 612 L73.31 612 Z" class="st4"/>
			<text x="23.99" y="568.25" class="st5" v:langID="1033"><v:paragraph v:horizAlign="1"/><v:tabList/>AllJoyn <v:newlineChar/><tspan
						x="20.47" dy="1.2em" class="st6">Device </tspan>3<v:newlineChar/><tspan x="8.13" dy="1.2em" class="st6">(</tspan>Provider and <tspan
						x="14.45" dy="1.2em" class="st6">Consumer</tspan>)</text>		</g>
		<g id="shape5-33" v:mID="5" v:groupContext="shape" transform="translate(473.344,-319.235)">
			<title>Rounded rectangle.12</title>
			<desc>AllJoyn Device N (Provider)</desc>
			<v:userDefs>
				<v:ud v:nameU="visVersion" v:val="VT0(14):26"/>
				<v:ud v:nameU="msvThemeColors" v:val="VT0(36):26"/>
				<v:ud v:nameU="msvThemeEffects" v:val="VT0(16):26"/>
			</v:userDefs>
			<v:textBlock v:margins="rect(4,4,4,4)"/>
			<v:textRect cx="38.0625" cy="586.625" width="76.13" height="50.75"/>
			<g id="shadow5-34" v:groupContext="shadow" v:shadowOffsetX="1.44" v:shadowOffsetY="-1.44" v:shadowType="1"
					transform="matrix(1,0,0,1,1.44,1.44)" class="st1">
				<path d="M67.13 612 A9.00007 9.00007 -180 0 0 76.13 603 L76.13 570.25 A9.00007 9.00007 -180 0 0 67.13 561.25 L9 561.25
							 A9.00007 9.00007 -180 0 0 -0 570.25 L0 603 A9.00007 9.00007 -180 0 0 9 612 L67.13 612 Z" class="st2"/>
			</g>
			<path d="M67.13 612 A9.00007 9.00007 -180 0 0 76.13 603 L76.13 570.25 A9.00007 9.00007 -180 0 0 67.13 561.25 L9 561.25
						 A9.00007 9.00007 -180 0 0 -0 570.25 L0 603 A9.00007 9.00007 -180 0 0 9 612 L67.13 612 Z" class="st4"/>
			<text x="20.89" y="575.83" class="st5" v:langID="1033"><v:paragraph v:horizAlign="1"/><v:tabList/>AllJoyn <tspan
						x="16.55" dy="1.2em" class="st6">Device N<v:newlineChar/></tspan><tspan x="13.75" dy="1.2em" class="st6">(</tspan>Provider)</text>		</g>
		<g id="shape6-41" v:mID="6" v:groupContext="shape" transform="translate(293.156,-345.61)">
			<title>Rounded rectangle.13</title>
			<desc>AllJoyn Device 1 (Provider)</desc>
			<v:userDefs>
				<v:ud v:nameU="visVersion" v:val="VT0(14):26"/>
				<v:ud v:nameU="msvThemeColors" v:val="VT0(36):26"/>
				<v:ud v:nameU="msvThemeEffects" v:val="VT0(16):26"/>
			</v:userDefs>
			<v:textBlock v:margins="rect(4,4,4,4)"/>
			<v:textRect cx="38.0625" cy="586.625" width="76.13" height="50.75"/>
			<g id="shadow6-42" v:groupContext="shadow" v:shadowOffsetX="1.44" v:shadowOffsetY="-1.44" v:shadowType="1"
					transform="matrix(1,0,0,1,1.44,1.44)" class="st1">
				<path d="M67.13 612 A9.00007 9.00007 -180 0 0 76.13 603 L76.13 570.25 A9.00007 9.00007 -180 0 0 67.13 561.25 L9 561.25
							 A9.00007 9.00007 -180 0 0 -0 570.25 L0 603 A9.00007 9.00007 -180 0 0 9 612 L67.13 612 Z" class="st2"/>
			</g>
			<path d="M67.13 612 A9.00007 9.00007 -180 0 0 76.13 603 L76.13 570.25 A9.00007 9.00007 -180 0 0 67.13 561.25 L9 561.25
						 A9.00007 9.00007 -180 0 0 -0 570.25 L0 603 A9.00007 9.00007 -180 0 0 9 612 L67.13 612 Z" class="st4"/>
			<text x="20.89" y="575.83" class="st5" v:langID="1033"><v:paragraph v:horizAlign="1"/><v:tabList/>AllJoyn <tspan
						x="17.38" dy="1.2em" class="st6">Device </tspan>1<v:newlineChar/><tspan x="13.75" dy="1.2em" class="st6">(</tspan>Provider)</text>		</g>
		<g id="shape7-49" v:mID="7" v:groupContext="shape" transform="translate(-237.276,-74.3758) rotate(-51.8834)">
			<title>Sheet.7</title>
			<v:userDefs>
				<v:ud v:nameU="msvThemeColors" v:val="VT0(36):26"/>
				<v:ud v:nameU="msvThemeEffects" v:val="VT0(16):26"/>
			</v:userDefs>
			<g id="shadow7-50" v:groupContext="shadow" v:shadowOffsetX="1.44" v:shadowOffsetY="-1.44" v:shadowType="1"
					transform="matrix(1,2.6563E-018,2.6563E-018,1,-0.244068,2.02179)" class="st1">
				<path d="M0 612 L79.28 612" class="st7"/>
			</g>
			<path d="M0 612 L79.28 612" class="st8"/>
		</g>
		<g id="shape8-56" v:mID="8" v:groupContext="shape" transform="translate(-219.743,554.557) rotate(-107.44)">
			<title>Sheet.8</title>
			<v:userDefs>
				<v:ud v:nameU="msvThemeColors" v:val="VT0(36):26"/>
				<v:ud v:nameU="msvThemeEffects" v:val="VT0(16):26"/>
			</v:userDefs>
			<g id="shadow8-57" v:groupContext="shadow" v:shadowOffsetX="1.44" v:shadowOffsetY="-1.44" v:shadowType="1"
					transform="matrix(1,-6.72205E-018,-1.28207E-017,1,-1.80538,0.942239)" class="st1">
				<path d="M0 612 L109.8 612" class="st7"/>
			</g>
			<path d="M0 612 L109.8 612" class="st8"/>
		</g>
		<g id="shape9-63" v:mID="9" v:groupContext="shape" transform="translate(35.7724,937.318) rotate(-152.013)">
			<title>Sheet.9</title>
			<v:userDefs>
				<v:ud v:nameU="msvThemeColors" v:val="VT0(36):26"/>
				<v:ud v:nameU="msvThemeEffects" v:val="VT0(16):26"/>
			</v:userDefs>
			<g id="shadow9-64" v:groupContext="shadow" v:shadowOffsetX="1.44" v:shadowOffsetY="-1.44" v:shadowType="1"
					transform="matrix(1,-2.14672E-017,-2.14672E-017,1,-1.94735,-0.595839)" class="st1">
				<path d="M0 612 L88.97 612" class="st7"/>
			</g>
			<path d="M0 612 L88.97 612" class="st8"/>
		</g>
		<g id="shape10-70" v:mID="10" v:groupContext="shape" transform="translate(186.238,-174.924) rotate(-21.0097)">
			<title>Sheet.10</title>
			<v:userDefs>
				<v:ud v:nameU="msvThemeColors" v:val="VT0(36):26"/>
				<v:ud v:nameU="msvThemeEffects" v:val="VT0(16):26"/>
			</v:userDefs>
			<g id="shadow10-71" v:groupContext="shadow" v:shadowOffsetX="1.44" v:shadowOffsetY="-1.44" v:shadowType="1"
					transform="matrix(1,-2.88127E-017,5.44812E-017,1,0.827992,1.86055)" class="st1">
				<path d="M0 612 L55.44 612" class="st7"/>
			</g>
			<path d="M0 612 L55.44 612" class="st8"/>
		</g>
		<g id="shape11-77" v:mID="11" v:groupContext="shape" transform="translate(269.98,837.864) rotate(-160.592)">
			<title>Sheet.11</title>
			<v:userDefs>
				<v:ud v:nameU="msvThemeColors" v:val="VT0(36):26"/>
				<v:ud v:nameU="msvThemeEffects" v:val="VT0(16):26"/>
			</v:userDefs>
			<g id="shadow11-78" v:groupContext="shadow" v:shadowOffsetX="1.44" v:shadowOffsetY="-1.44" v:shadowType="1"
					transform="matrix(1,2.33103E-017,1.89735E-018,1,-1.83668,-0.879671)" class="st1">
				<path d="M0 612 L111.72 612" class="st7"/>
			</g>
			<path d="M0 612 L111.72 612" class="st8"/>
		</g>
		<g id="shape12-84" v:mID="12" v:groupContext="shape" transform="translate(-93.812,187.642) rotate(-75.2082)">
			<title>Sheet.12</title>
			<v:userDefs>
				<v:ud v:nameU="msvThemeColors" v:val="VT0(36):26"/>
				<v:ud v:nameU="msvThemeEffects" v:val="VT0(16):26"/>
			</v:userDefs>
			<g id="shadow12-85" v:groupContext="shadow" v:shadowOffsetX="1.44" v:shadowOffsetY="-1.44" v:shadowType="1"
					transform="matrix(1,1.08014E-017,7.77915E-018,1,-1.02464,1.75992)" class="st1">
				<path d="M0 612 L52.88 612" class="st7"/>
			</g>
			<path d="M0 612 L52.88 612" class="st8"/>
		</g>
		<g id="shape13-91" v:mID="13" v:groupContext="shape" transform="translate(-35.8101,-88.5141) rotate(-41.3524)">
			<title>Sheet.13</title>
			<v:userDefs>
				<v:ud v:nameU="msvThemeColors" v:val="VT0(36):26"/>
				<v:ud v:nameU="msvThemeEffects" v:val="VT0(16):26"/>
			</v:userDefs>
			<g id="shadow13-92" v:groupContext="shadow" v:shadowOffsetX="1.44" v:shadowOffsetY="-1.44" v:shadowType="1"
					transform="matrix(1,1.60733E-017,1.60733E-017,1,0.129559,2.03234)" class="st1">
				<path d="M0 612 L139.63 612" class="st7"/>
			</g>
			<path d="M0 612 L139.63 612" class="st8"/>
		</g>
		<g id="shape14-98" v:mID="14" v:groupContext="shape" transform="translate(323.614,965.583) rotate(-167.264)">
			<title>Sheet.14</title>
			<v:userDefs>
				<v:ud v:nameU="msvThemeColors" v:val="VT0(36):26"/>
				<v:ud v:nameU="msvThemeEffects" v:val="VT0(16):26"/>
			</v:userDefs>
			<g id="shadow14-99" v:groupContext="shadow" v:shadowOffsetX="1.44" v:shadowOffsetY="-1.44" v:shadowType="1"
					transform="matrix(1,9.20217E-018,9.20217E-018,1,-1.72202,-1.08712)" class="st1">
				<path d="M0 612 L180.31 612" class="st7"/>
			</g>
			<path d="M0 612 L180.31 612" class="st8"/>
		</g>
		<g id="shape15-105" v:mID="15" v:groupContext="shape" transform="translate(41.0693,809.405) rotate(-136.99)">
			<title>Sheet.15</title>
			<v:userDefs>
				<v:ud v:nameU="msvThemeColors" v:val="VT0(36):26"/>
				<v:ud v:nameU="msvThemeEffects" v:val="VT0(16):26"/>
			</v:userDefs>
			<g id="shadow15-106" v:groupContext="shadow" v:shadowOffsetX="1.44" v:shadowOffsetY="-1.44" v:shadowType="1"
					transform="matrix(1,-2.6319E-017,-2.08709E-017,1,-2.03524,-0.0707127)" class="st1">
				<path d="M0 612 L140 612" class="st7"/>
			</g>
			<path d="M0 612 L140 612" class="st8"/>
		</g>
		<g id="shape16-112" v:mID="16" v:groupContext="shape" transform="translate(650.475,853.196) rotate(163.176)">
			<title>Sheet.16</title>
			<v:userDefs>
				<v:ud v:nameU="msvThemeColors" v:val="VT0(36):26"/>
				<v:ud v:nameU="msvThemeEffects" v:val="VT0(16):26"/>
			</v:userDefs>
			<g id="shadow16-113" v:groupContext="shadow" v:shadowOffsetX="1.44" v:shadowOffsetY="-1.44" v:shadowType="1"
					transform="matrix(1,2.1684E-018,-1.8838E-017,1,-0.961588,-1.79515)" class="st1">
				<path d="M0 612 L198.23 612" class="st7"/>
			</g>
			<path d="M0 612 L198.23 612" class="st8"/>
		</g>
		<g id="shape17-119" v:mID="17" v:groupContext="shape" transform="translate(1139.16,292.2) rotate(90)">
			<title>Sheet.17</title>
			<desc>. . .</desc>
			<v:userDefs>
				<v:ud v:nameU="msvThemeColors" v:val="VT0(36):26"/>
				<v:ud v:nameU="msvThemeEffects" v:val="VT0(16):26"/>
			</v:userDefs>
			<v:textBlock v:margins="rect(0,0,0,0)"/>
			<v:textRect cx="22.44" cy="606" width="44.88" height="12"/>
			<rect x="0" y="600" width="44.88" height="12" class="st9"/>
			<text x="4.3" y="615" class="st10" v:langID="1033"><v:paragraph v:horizAlign="1"/><v:tabList/>. . .  </text>		</g>
		<g id="shape18-122" v:mID="18" v:groupContext="shape" transform="translate(347.156,-405.36)">
			<title>Sheet.18</title>
			<desc>AllJoyn Network</desc>
			<v:userDefs>
				<v:ud v:nameU="msvThemeColors" v:val="VT0(36):26"/>
				<v:ud v:nameU="msvThemeEffects" v:val="VT0(16):26"/>
			</v:userDefs>
			<v:textBlock v:margins="rect(4,4,4,4)"/>
			<v:textRect cx="54" cy="599.5" width="108" height="25"/>
			<rect x="0" y="587" width="108" height="25" class="st9"/>
			<text x="6.2" y="603.7" class="st11" v:langID="1033"><v:paragraph v:horizAlign="1"/><v:tabList/>AllJoyn Network</text>		</g>
	</g>
</svg>
