<?xml version="1.0" encoding="UTF-8" standalone="no"?>
<!DOCTYPE svg PUBLIC "-//W3C//DTD SVG 1.0//EN" "http://www.w3.org/TR/2001/REC-SVG-20010904/DTD/svg10.dtd">
<!-- Generated by Microsoft Visio 11.0, SVG Export, v1.0 Drawing268.svg Page-1 -->
<svg xmlns="http://www.w3.org/2000/svg" xmlns:xlink="http://www.w3.org/1999/xlink" xmlns:ev="http://www.w3.org/2001/xml-events"
		xmlns:v="http://schemas.microsoft.com/visio/2003/SVGExtensions/" width="11in" height="8.5in" viewBox="0 0 792 612"
		xml:space="preserve" color-interpolation-filters="sRGB" class="st19">
	<v:documentProperties v:langID="1033" v:viewMarkup="false">
		<v:userDefs>
			<v:ud v:nameU="msvNoAutoConnect" v:val="VT0(0):26"/>
		</v:userDefs>
	</v:documentProperties>

	<style type="text/css">
	<![CDATA[
		.st1 {visibility:visible}
		.st2 {fill:#cdcdcd;fill-opacity:0.5;stroke:#cdcdcd;stroke-linecap:round;stroke-linejoin:round;stroke-opacity:0.5;stroke-width:0.25}
		.st3 {fill:url(#grad30-6);stroke:#404040;stroke-linecap:round;stroke-linejoin:round;stroke-width:0.25}
		.st4 {fill:url(#grad30-12);stroke:#404040;stroke-linecap:round;stroke-linejoin:round;stroke-width:0.25}
		.st5 {fill:url(#grad30-23);stroke:#404040;stroke-linecap:round;stroke-linejoin:round;stroke-width:0.25}
		.st6 {fill:#000000;font-family:Calibri;font-size:0.833336em}
		.st7 {fill:url(#grad30-30);stroke:#404040;stroke-linecap:round;stroke-linejoin:round;stroke-width:0.25}
		.st8 {fill:#000000;font-family:Calibri;font-size:1.00001em}
		.st9 {stroke:#cdcdcd;stroke-linecap:round;stroke-linejoin:round;stroke-opacity:0.5;stroke-width:0.25}
		.st10 {stroke:#404040;stroke-linecap:round;stroke-linejoin:round;stroke-width:0.25}
		.st11 {fill:none;stroke:none;stroke-linecap:round;stroke-linejoin:round;stroke-width:0.25}
		.st12 {fill:#000000;font-family:Calibri;font-size:1.00001em;font-weight:bold}
		.st13 {fill:#000000;font-family:Calibri;font-size:0.75em}
		.st14 {font-size:1em}
		.st15 {marker-end:url(#mrkr13-133);marker-start:url(#mrkr13-131);stroke:#404040;stroke-linecap:round;stroke-linejoin:round;stroke-width:1}
		.st16 {fill:#404040;fill-opacity:1;stroke:#404040;stroke-opacity:1;stroke-width:0.28409090909091}
		.st17 {marker-end:url(#mrkr13-177);marker-start:url(#mrkr13-175);stroke:#c00000;stroke-linecap:round;stroke-linejoin:round;stroke-width:1}
		.st18 {fill:#c00000;fill-opacity:1;stroke:#c00000;stroke-opacity:1;stroke-width:0.28409090909091}
		.st19 {fill:none;fill-rule:evenodd;font-size:12px;overflow:visible;stroke-linecap:square;stroke-miterlimit:3}
	]]>
	</style>

	<defs id="Patterns_And_Gradients">
		<linearGradient id="grad30-6" v:fillPattern="30" v:foreground="#c9c9c9" v:background="#d8d8d8" x1="0" y1="1" x2="0" y2="0">
			<stop offset="0" style="stop-color:#c9c9c9;stop-opacity:1"/>
			<stop offset="1" style="stop-color:#d8d8d8;stop-opacity:1"/>
		</linearGradient>
		<linearGradient id="grad30-12" v:fillPattern="30" v:foreground="#e3e3e3" v:background="#f2f2f2" x1="0" y1="1" x2="0" y2="0">
			<stop offset="0" style="stop-color:#e3e3e3;stop-opacity:1"/>
			<stop offset="1" style="stop-color:#f2f2f2;stop-opacity:1"/>
		</linearGradient>
		<linearGradient id="grad30-23" v:fillPattern="30" v:foreground="#f0f0f0" v:background="#ffffff" x1="0" y1="1" x2="0" y2="0">
			<stop offset="0" style="stop-color:#f0f0f0;stop-opacity:1"/>
			<stop offset="1" style="stop-color:#ffffff;stop-opacity:1"/>
		</linearGradient>
		<linearGradient id="grad30-30" v:fillPattern="30" v:foreground="#f2c59f" v:background="#f6d5b9" x1="0" y1="1" x2="0" y2="0">
			<stop offset="0" style="stop-color:#f2c59f;stop-opacity:1"/>
			<stop offset="1" style="stop-color:#f6d5b9;stop-opacity:1"/>
		</linearGradient>
	</defs>
	<defs id="Markers">
		<g id="lend13">
			<path d="M 3 1 L 0 0 L 3 -1 L 3 1 " style="stroke:none"/>
		</g>
		<marker id="mrkr13-131" class="st16" v:arrowType="13" v:arrowSize="2" v:setback="10.2" refX="10.2" orient="auto"
				markerUnits="strokeWidth" overflow="visible">
			<use xlink:href="#lend13" transform="scale(3.52) "/>
		</marker>
		<marker id="mrkr13-133" class="st16" v:arrowType="13" v:arrowSize="2" v:setback="10.56" refX="-10.56" orient="auto"
				markerUnits="strokeWidth" overflow="visible">
			<use xlink:href="#lend13" transform="scale(-3.52,-3.52) "/>
		</marker>
		<marker id="mrkr13-175" class="st18" v:arrowType="13" v:arrowSize="2" v:setback="10.2" refX="10.2" orient="auto"
				markerUnits="strokeWidth" overflow="visible">
			<use xlink:href="#lend13" transform="scale(3.52) "/>
		</marker>
		<marker id="mrkr13-177" class="st18" v:arrowType="13" v:arrowSize="2" v:setback="10.56" refX="-10.56" orient="auto"
				markerUnits="strokeWidth" overflow="visible">
			<use xlink:href="#lend13" transform="scale(-3.52,-3.52) "/>
		</marker>
	</defs>
	<g v:mID="0" v:index="1" v:groupContext="foregroundPage">
		<v:userDefs>
			<v:ud v:nameU="msvThemeColors" v:val="VT0(36):26"/>
			<v:ud v:nameU="msvThemeEffects" v:val="VT0(16):26"/>
			<v:ud v:nameU="msvThemeOrder" v:val="VT0(0):26"/>
		</v:userDefs>
		<title>Page-1</title>
		<v:pageProperties v:drawingScale="1" v:pageScale="1" v:drawingUnits="0" v:shadowOffsetX="9" v:shadowOffsetY="-9"/>
		<v:layer v:name="Connector" v:index="0"/>
		<g id="shape1-1" v:mID="1" v:groupContext="shape" transform="translate(463.788,-317.131)">
			<title>Rectangle.1</title>
			<v:userDefs>
				<v:ud v:nameU="visVersion" v:val="VT0(14):26"/>
				<v:ud v:nameU="msvThemeColors" v:val="VT0(36):26"/>
				<v:ud v:nameU="msvThemeEffects" v:val="VT0(16):26"/>
			</v:userDefs>
			<g id="shadow1-2" v:groupContext="shadow" v:shadowOffsetX="1.44" v:shadowOffsetY="-1.44" v:shadowType="1"
					transform="matrix(1,0,0,1,1.44,1.44)" class="st1">
				<rect x="0" y="451.361" width="132.542" height="160.639" class="st2"/>
			</g>
			<rect x="0" y="451.361" width="132.542" height="160.639" class="st3"/>
		</g>
		<g id="shape2-7" v:mID="2" v:groupContext="shape" transform="translate(481,-328.344)">
			<title>Rectangle.28</title>
			<v:userDefs>
				<v:ud v:nameU="visVersion" v:val="VT0(14):26"/>
				<v:ud v:nameU="msvThemeColors" v:val="VT0(36):26"/>
				<v:ud v:nameU="msvThemeEffects" v:val="VT0(16):26"/>
			</v:userDefs>
			<g id="shadow2-8" v:groupContext="shadow" v:shadowOffsetX="1.44" v:shadowOffsetY="-1.44" v:shadowType="1"
					transform="matrix(1,0,0,1,1.44,1.44)" class="st1">
				<rect x="0" y="471.956" width="98.8548" height="140.044" class="st2"/>
			</g>
			<rect x="0" y="471.956" width="98.8548" height="140.044" class="st4"/>
		</g>
		<g id="shape3-13" v:mID="3" v:groupContext="shape" transform="translate(195.027,-318.472)">
			<title>Rectangle.33</title>
			<v:userDefs>
				<v:ud v:nameU="visVersion" v:val="VT0(14):26"/>
				<v:ud v:nameU="msvThemeColors" v:val="VT0(36):26"/>
				<v:ud v:nameU="msvThemeEffects" v:val="VT0(16):26"/>
			</v:userDefs>
			<g id="shadow3-14" v:groupContext="shadow" v:shadowOffsetX="1.44" v:shadowOffsetY="-1.44" v:shadowType="1"
					transform="matrix(1,0,0,1,1.44,1.44)" class="st1">
				<rect x="0" y="451.361" width="214.185" height="160.639" class="st2"/>
			</g>
			<rect x="0" y="451.361" width="214.185" height="160.639" class="st3"/>
		</g>
		<g id="shape4-18" v:mID="4" v:groupContext="shape" transform="translate(211.503,-428.435)">
			<title>Rounded rectangle.2</title>
			<desc>Standard App1</desc>
			<v:userDefs>
				<v:ud v:nameU="visVersion" v:val="VT0(14):26"/>
				<v:ud v:nameU="msvThemeColors" v:val="VT0(36):26"/>
				<v:ud v:nameU="msvThemeEffects" v:val="VT0(16):26"/>
			</v:userDefs>
			<v:textBlock v:margins="rect(4,4,4,4)"/>
			<v:textRect cx="41.1895" cy="594.9" width="82.38" height="34.2003"/>
			<g id="shadow4-19" v:groupContext="shadow" v:shadowOffsetX="1.44" v:shadowOffsetY="-1.44" v:shadowType="1"
					transform="matrix(1,0,0,1,1.44,1.44)" class="st1">
				<path d="M73.38 612 A9.00007 9.00007 -180 0 0 82.38 603 L82.38 586.8 A9.00007 9.00007 -180 0 0 73.38 577.8 L9 577.8
							 A9.00007 9.00007 -180 0 0 -0 586.8 L0 603 A9.00007 9.00007 -180 0 0 9 612 L73.38 612 Z" class="st2"/>
			</g>
			<path d="M73.38 612 A9.00007 9.00007 -180 0 0 82.38 603 L82.38 586.8 A9.00007 9.00007 -180 0 0 73.38 577.8 L9 577.8 A9.00007
						 9.00007 -180 0 0 -0 586.8 L0 603 A9.00007 9.00007 -180 0 0 9 612 L73.38 612 Z" class="st5"/>
			<text x="10.99" y="597.9" class="st6" v:langID="1033"><v:paragraph v:horizAlign="1"/><v:tabList/>Standard App1</text>		</g>
		<g id="shape5-25" v:mID="5" v:groupContext="shape" transform="translate(211.503,-343.185)">
			<title>Rounded rectangle.3</title>
			<desc>AllJoyn Router</desc>
			<v:userDefs>
				<v:ud v:nameU="visVersion" v:val="VT0(14):26"/>
				<v:ud v:nameU="msvThemeColors" v:val="VT0(36):26"/>
				<v:ud v:nameU="msvThemeEffects" v:val="VT0(16):26"/>
			</v:userDefs>
			<v:textBlock v:margins="rect(4,4,4,4)"/>
			<v:textRect cx="88.5575" cy="593.465" width="177.12" height="37.0706"/>
			<g id="shadow5-26" v:groupContext="shadow" v:shadowOffsetX="1.44" v:shadowOffsetY="-1.44" v:shadowType="1"
					transform="matrix(1,0,0,1,1.44,1.44)" class="st1">
				<path d="M168.11 612 A9.00007 9.00007 -180 0 0 177.11 603 L177.11 583.93 A9.00007 9.00007 -180 0 0 168.11 574.93
							 L9 574.93 A9.00007 9.00007 -180 0 0 -0 583.93 L0 603 A9.00007 9.00007 -180 0 0 9 612 L168.11 612 Z"
						class="st2"/>
			</g>
			<path d="M168.11 612 A9.00007 9.00007 -180 0 0 177.11 603 L177.11 583.93 A9.00007 9.00007 -180 0 0 168.11 574.93 L9 574.93
						 A9.00007 9.00007 -180 0 0 -0 583.93 L0 603 A9.00007 9.00007 -180 0 0 9 612 L168.11 612 Z" class="st7"/>
			<text x="53.37" y="597.06" class="st8" v:langID="1033"><v:paragraph v:horizAlign="1"/><v:tabList/>AllJoyn Router</text>		</g>
		<g id="shape6-32" v:mID="6" v:groupContext="shape" transform="translate(-360.36,230.348) rotate(-90)">
			<title>Sheet.6</title>
			<v:userDefs>
				<v:ud v:nameU="msvThemeColors" v:val="VT0(36):26"/>
				<v:ud v:nameU="msvThemeEffects" v:val="VT0(16):26"/>
			</v:userDefs>
			<g id="shadow6-33" v:groupContext="shadow" v:shadowOffsetX="1.44" v:shadowOffsetY="-1.44" v:shadowType="1"
					transform="matrix(1,0,0,1,-1.44,1.44)" class="st1">
				<path d="M0 612 L22.29 612" class="st9"/>
			</g>
			<path d="M0 612 L22.29 612" class="st10"/>
		</g>
		<g id="shape7-39" v:mID="7" v:groupContext="shape" transform="translate(230.038,-483.23)">
			<title>Sheet.7</title>
			<desc>Standard AllJoyn Device 1</desc>
			<v:userDefs>
				<v:ud v:nameU="msvThemeColors" v:val="VT0(36):26"/>
				<v:ud v:nameU="msvThemeEffects" v:val="VT0(16):26"/>
			</v:userDefs>
			<v:textBlock v:margins="rect(4,4,4,4)"/>
			<v:textRect cx="76.6422" cy="606.279" width="153.29" height="11.4415"/>
			<rect x="0" y="600.558" width="153.284" height="11.4415" class="st11"/>
			<text x="12.4" y="609.88" class="st12" v:langID="1033"><v:paragraph v:horizAlign="1"/><v:tabList/>Standard AllJoyn Device 1</text>		</g>
		<g id="shape8-42" v:mID="8" v:groupContext="shape" transform="translate(211.503,-403.946)">
			<title>Rounded rectangle.8</title>
			<desc>AllJoyn Standard Core Library</desc>
			<v:userDefs>
				<v:ud v:nameU="visVersion" v:val="VT0(14):26"/>
				<v:ud v:nameU="msvThemeColors" v:val="VT0(36):26"/>
				<v:ud v:nameU="msvThemeEffects" v:val="VT0(16):26"/>
			</v:userDefs>
			<v:textBlock v:margins="rect(4,4,4,4)"/>
			<v:textRect cx="40.1371" cy="600.679" width="80.28" height="22.6425"/>
			<g id="shadow8-43" v:groupContext="shadow" v:shadowOffsetX="1.44" v:shadowOffsetY="-1.44" v:shadowType="1"
					transform="matrix(1,0,0,1,1.44,1.44)" class="st1">
				<path d="M71.27 612 A9.00007 9.00007 -180 0 0 80.27 603 L80.27 598.36 A9.00007 9.00007 -180 0 0 71.27 589.36 L9 589.36
							 A9.00007 9.00007 -180 0 0 0 598.36 L0 603 A9.00007 9.00007 -180 0 0 9 612 L71.27 612 Z" class="st2"/>
			</g>
			<path d="M71.27 612 A9.00007 9.00007 -180 0 0 80.27 603 L80.27 598.36 A9.00007 9.00007 -180 0 0 71.27 589.36 L9 589.36
						 A9.00007 9.00007 -180 0 0 0 598.36 L0 603 A9.00007 9.00007 -180 0 0 9 612 L71.27 612 Z" class="st7"/>
			<text x="9.69" y="597.98" class="st13" v:langID="1033"><v:paragraph v:horizAlign="1"/><v:tabList/>AllJoyn Standard <tspan
						x="17.92" dy="1.2em" class="st14">Core Library</tspan></text>		</g>
		<g id="shape9-49" v:mID="9" v:groupContext="shape" transform="translate(306.238,-428.435)">
			<title>Rounded rectangle.7</title>
			<desc>Standard App2</desc>
			<v:userDefs>
				<v:ud v:nameU="visVersion" v:val="VT0(14):26"/>
				<v:ud v:nameU="msvThemeColors" v:val="VT0(36):26"/>
				<v:ud v:nameU="msvThemeEffects" v:val="VT0(16):26"/>
			</v:userDefs>
			<v:textBlock v:margins="rect(4,4,4,4)"/>
			<v:textRect cx="41.1895" cy="594.9" width="82.38" height="34.2003"/>
			<g id="shadow9-50" v:groupContext="shadow" v:shadowOffsetX="1.44" v:shadowOffsetY="-1.44" v:shadowType="1"
					transform="matrix(1,0,0,1,1.44,1.44)" class="st1">
				<path d="M73.38 612 A9.00007 9.00007 -180 0 0 82.38 603 L82.38 586.8 A9.00007 9.00007 -180 0 0 73.38 577.8 L9 577.8
							 A9.00007 9.00007 -180 0 0 -0 586.8 L0 603 A9.00007 9.00007 -180 0 0 9 612 L73.38 612 Z" class="st2"/>
			</g>
			<path d="M73.38 612 A9.00007 9.00007 -180 0 0 82.38 603 L82.38 586.8 A9.00007 9.00007 -180 0 0 73.38 577.8 L9 577.8 A9.00007
						 9.00007 -180 0 0 -0 586.8 L0 603 A9.00007 9.00007 -180 0 0 9 612 L73.38 612 Z" class="st5"/>
			<text x="10.99" y="597.9" class="st6" v:langID="1033"><v:paragraph v:horizAlign="1"/><v:tabList/>Standard App2</text>		</g>
		<g id="shape10-55" v:mID="10" v:groupContext="shape" transform="translate(-262.513,231.744) rotate(-90)">
			<title>Sheet.10</title>
			<v:userDefs>
				<v:ud v:nameU="msvThemeColors" v:val="VT0(36):26"/>
				<v:ud v:nameU="msvThemeEffects" v:val="VT0(16):26"/>
			</v:userDefs>
			<g id="shadow10-56" v:groupContext="shadow" v:shadowOffsetX="1.44" v:shadowOffsetY="-1.44" v:shadowType="1"
					transform="matrix(1,0,0,1,-1.44,1.44)" class="st1">
				<path d="M0 612 L23.69 612" class="st9"/>
			</g>
			<path d="M0 612 L23.69 612" class="st10"/>
		</g>
		<g id="shape11-62" v:mID="11" v:groupContext="shape" transform="translate(310.357,-403.946)">
			<title>Rounded rectangle.23</title>
			<desc>AllJoyn Standard Core Library</desc>
			<v:userDefs>
				<v:ud v:nameU="visVersion" v:val="VT0(14):26"/>
				<v:ud v:nameU="msvThemeColors" v:val="VT0(36):26"/>
				<v:ud v:nameU="msvThemeEffects" v:val="VT0(16):26"/>
			</v:userDefs>
			<v:textBlock v:margins="rect(4,4,4,4)"/>
			<v:textRect cx="39.13" cy="600.679" width="78.27" height="22.6425"/>
			<g id="shadow11-63" v:groupContext="shadow" v:shadowOffsetX="1.44" v:shadowOffsetY="-1.44" v:shadowType="1"
					transform="matrix(1,0,0,1,1.44,1.44)" class="st1">
				<path d="M69.26 612 A9.00007 9.00007 -180 0 0 78.26 603 L78.26 598.36 A9.00007 9.00007 -180 0 0 69.26 589.36 L9 589.36
							 A9.00007 9.00007 -180 0 0 0 598.36 L0 603 A9.00007 9.00007 -180 0 0 9 612 L69.26 612 Z" class="st2"/>
			</g>
			<path d="M69.26 612 A9.00007 9.00007 -180 0 0 78.26 603 L78.26 598.36 A9.00007 9.00007 -180 0 0 69.26 589.36 L9 589.36
						 A9.00007 9.00007 -180 0 0 0 598.36 L0 603 A9.00007 9.00007 -180 0 0 9 612 L69.26 612 Z" class="st7"/>
			<text x="8.69" y="597.98" class="st13" v:langID="1033"><v:paragraph v:horizAlign="1"/><v:tabList/>AllJoyn Standard <tspan
						x="16.91" dy="1.2em" class="st14">Core Library</tspan></text>		</g>
		<g id="shape12-69" v:mID="12" v:groupContext="shape" transform="translate(489.238,-427.094)">
			<title>Rounded rectangle.11</title>
			<desc>Standard App</desc>
			<v:userDefs>
				<v:ud v:nameU="visVersion" v:val="VT0(14):26"/>
				<v:ud v:nameU="msvThemeColors" v:val="VT0(36):26"/>
				<v:ud v:nameU="msvThemeEffects" v:val="VT0(16):26"/>
			</v:userDefs>
			<v:textBlock v:margins="rect(4,4,4,4)"/>
			<v:textRect cx="41.1895" cy="594.9" width="82.38" height="34.2003"/>
			<g id="shadow12-70" v:groupContext="shadow" v:shadowOffsetX="1.44" v:shadowOffsetY="-1.44" v:shadowType="1"
					transform="matrix(1,0,0,1,1.44,1.44)" class="st1">
				<path d="M73.38 612 A9.00007 9.00007 -180 0 0 82.38 603 L82.38 586.8 A9.00007 9.00007 -180 0 0 73.38 577.8 L9 577.8
							 A9.00007 9.00007 -180 0 0 -0 586.8 L0 603 A9.00007 9.00007 -180 0 0 9 612 L73.38 612 Z" class="st2"/>
			</g>
			<path d="M73.38 612 A9.00007 9.00007 -180 0 0 82.38 603 L82.38 586.8 A9.00007 9.00007 -180 0 0 73.38 577.8 L9 577.8 A9.00007
						 9.00007 -180 0 0 -0 586.8 L0 603 A9.00007 9.00007 -180 0 0 9 612 L73.38 612 Z" class="st5"/>
			<text x="13.53" y="597.9" class="st6" v:langID="1033"><v:paragraph v:horizAlign="1"/><v:tabList/>Standard App</text>		</g>
		<g id="shape13-75" v:mID="13" v:groupContext="shape" transform="translate(489.238,-341.845)">
			<title>Rounded rectangle.13</title>
			<desc>AllJoyn Router</desc>
			<v:userDefs>
				<v:ud v:nameU="visVersion" v:val="VT0(14):26"/>
				<v:ud v:nameU="msvThemeColors" v:val="VT0(36):26"/>
				<v:ud v:nameU="msvThemeEffects" v:val="VT0(16):26"/>
			</v:userDefs>
			<v:textBlock v:margins="rect(4,4,4,4)"/>
			<v:textRect cx="41.1895" cy="593.465" width="82.38" height="37.0706"/>
			<g id="shadow13-76" v:groupContext="shadow" v:shadowOffsetX="1.44" v:shadowOffsetY="-1.44" v:shadowType="1"
					transform="matrix(1,0,0,1,1.44,1.44)" class="st1">
				<path d="M73.38 612 A9.00007 9.00007 -180 0 0 82.38 603 L82.38 583.93 A9.00007 9.00007 -180 0 0 73.38 574.93 L9 574.93
							 A9.00007 9.00007 -180 0 0 -0 583.93 L0 603 A9.00007 9.00007 -180 0 0 9 612 L73.38 612 Z" class="st2"/>
			</g>
			<path d="M73.38 612 A9.00007 9.00007 -180 0 0 82.38 603 L82.38 583.93 A9.00007 9.00007 -180 0 0 73.38 574.93 L9 574.93
						 A9.00007 9.00007 -180 0 0 -0 583.93 L0 603 A9.00007 9.00007 -180 0 0 9 612 L73.38 612 Z" class="st7"/>
			<text x="6" y="597.06" class="st8" v:langID="1033"><v:paragraph v:horizAlign="1"/><v:tabList/>AllJoyn Router</text>		</g>
		<g id="shape14-81" v:mID="14" v:groupContext="shape" transform="translate(-81.5729,233.084) rotate(-90)">
			<title>Sheet.14</title>
			<v:userDefs>
				<v:ud v:nameU="msvThemeColors" v:val="VT0(36):26"/>
				<v:ud v:nameU="msvThemeEffects" v:val="VT0(16):26"/>
			</v:userDefs>
			<g id="shadow14-82" v:groupContext="shadow" v:shadowOffsetX="1.44" v:shadowOffsetY="-1.44" v:shadowType="1"
					transform="matrix(1,0,0,1,-1.44,1.44)" class="st1">
				<path d="M0 612 L23.69 612" class="st9"/>
			</g>
			<path d="M0 612 L23.69 612" class="st10"/>
		</g>
		<g id="shape15-88" v:mID="15" v:groupContext="shape" transform="translate(438.533,-482.478)">
			<title>Sheet.15</title>
			<desc>Standard AllJoyn Device 2</desc>
			<v:userDefs>
				<v:ud v:nameU="msvThemeColors" v:val="VT0(36):26"/>
				<v:ud v:nameU="msvThemeEffects" v:val="VT0(16):26"/>
			</v:userDefs>
			<v:textBlock v:margins="rect(4,4,4,4)"/>
			<v:textRect cx="78.3101" cy="606.279" width="156.63" height="11.4415"/>
			<rect x="0" y="600.558" width="156.62" height="11.4415" class="st11"/>
			<text x="14.06" y="609.88" class="st12" v:langID="1033"><v:paragraph v:horizAlign="1"/><v:tabList/>Standard AllJoyn Device 2</text>		</g>
		<g id="shape16-91" v:mID="16" v:groupContext="shape" transform="translate(489.238,-402.605)">
			<title>Rounded rectangle.29</title>
			<desc>AllJoyn Standard Core Library</desc>
			<v:userDefs>
				<v:ud v:nameU="visVersion" v:val="VT0(14):26"/>
				<v:ud v:nameU="msvThemeColors" v:val="VT0(36):26"/>
				<v:ud v:nameU="msvThemeEffects" v:val="VT0(16):26"/>
			</v:userDefs>
			<v:textBlock v:margins="rect(4,4,4,4)"/>
			<v:textRect cx="41.1895" cy="600.679" width="82.38" height="22.6425"/>
			<g id="shadow16-92" v:groupContext="shadow" v:shadowOffsetX="1.44" v:shadowOffsetY="-1.44" v:shadowType="1"
					transform="matrix(1,0,0,1,1.44,1.44)" class="st1">
				<path d="M73.38 612 A9.00007 9.00007 -180 0 0 82.38 603 L82.38 598.36 A9.00007 9.00007 -180 0 0 73.38 589.36 L9 589.36
							 A9.00007 9.00007 -180 0 0 0 598.36 L0 603 A9.00007 9.00007 -180 0 0 9 612 L73.38 612 Z" class="st2"/>
			</g>
			<path d="M73.38 612 A9.00007 9.00007 -180 0 0 82.38 603 L82.38 598.36 A9.00007 9.00007 -180 0 0 73.38 589.36 L9 589.36
						 A9.00007 9.00007 -180 0 0 0 598.36 L0 603 A9.00007 9.00007 -180 0 0 9 612 L73.38 612 Z" class="st7"/>
			<text x="10.75" y="597.98" class="st13" v:langID="1033"><v:paragraph v:horizAlign="1"/><v:tabList/>AllJoyn Standard <tspan
						x="18.97" dy="1.2em" class="st14">Core Library</tspan></text>		</g>
		<g id="shape17-98" v:mID="17" v:groupContext="shape" transform="translate(196.473,-137.421)">
			<title>Rectangle.16</title>
			<v:userDefs>
				<v:ud v:nameU="visVersion" v:val="VT0(14):26"/>
				<v:ud v:nameU="msvThemeColors" v:val="VT0(36):26"/>
				<v:ud v:nameU="msvThemeEffects" v:val="VT0(16):26"/>
			</v:userDefs>
			<g id="shadow17-99" v:groupContext="shadow" v:shadowOffsetX="1.44" v:shadowOffsetY="-1.44" v:shadowType="1"
					transform="matrix(1,0,0,1,1.44,1.44)" class="st1">
				<rect x="0" y="496.286" width="139.5" height="115.714" class="st2"/>
			</g>
			<rect x="0" y="496.286" width="139.5" height="115.714" class="st3"/>
		</g>
		<g id="shape18-103" v:mID="18" v:groupContext="shape" transform="translate(214.473,-157.671)">
			<title>Rectangle.27</title>
			<v:userDefs>
				<v:ud v:nameU="visVersion" v:val="VT0(14):26"/>
				<v:ud v:nameU="msvThemeColors" v:val="VT0(36):26"/>
				<v:ud v:nameU="msvThemeEffects" v:val="VT0(16):26"/>
			</v:userDefs>
			<g id="shadow18-104" v:groupContext="shadow" v:shadowOffsetX="1.44" v:shadowOffsetY="-1.44" v:shadowType="1"
					transform="matrix(1,0,0,1,1.44,1.44)" class="st1">
				<rect x="0" y="530.036" width="99" height="81.9643" class="st2"/>
			</g>
			<rect x="0" y="530.036" width="99" height="81.9643" class="st4"/>
		</g>
		<g id="shape19-108" v:mID="19" v:groupContext="shape" transform="translate(223.473,-196.334)">
			<title>Rounded rectangle.4</title>
			<desc>Thin App</desc>
			<v:userDefs>
				<v:ud v:nameU="visVersion" v:val="VT0(14):26"/>
				<v:ud v:nameU="msvThemeColors" v:val="VT0(36):26"/>
				<v:ud v:nameU="msvThemeEffects" v:val="VT0(16):26"/>
			</v:userDefs>
			<v:textBlock v:margins="rect(4,4,4,4)"/>
			<v:textRect cx="40.5" cy="594.849" width="81" height="34.3013"/>
			<g id="shadow19-109" v:groupContext="shadow" v:shadowOffsetX="1.44" v:shadowOffsetY="-1.44" v:shadowType="1"
					transform="matrix(1,0,0,1,1.44,1.44)" class="st1">
				<path d="M72 612 A9.00007 9.00007 -180 0 0 81 603 L81 586.7 A9.00007 9.00007 -180 0 0 72 577.7 L9 577.7 A9.00007
							 9.00007 -180 0 0 -0 586.7 L0 603 A9.00007 9.00007 -180 0 0 9 612 L72 612 Z" class="st2"/>
			</g>
			<path d="M72 612 A9.00007 9.00007 -180 0 0 81 603 L81 586.7 A9.00007 9.00007 -180 0 0 72 577.7 L9 577.7 A9.00007 9.00007
						 -180 0 0 -0 586.7 L0 603 A9.00007 9.00007 -180 0 0 9 612 L72 612 Z" class="st5"/>
			<text x="18.76" y="598.45" class="st8" v:langID="1033"><v:paragraph v:horizAlign="1"/><v:tabList/>Thin App</text>		</g>
		<g id="shape20-114" v:mID="20" v:groupContext="shape" transform="translate(224.116,-170.85)">
			<title>Rounded rectangle.5</title>
			<desc>AllJoyn Thin Core Library</desc>
			<v:userDefs>
				<v:ud v:nameU="visVersion" v:val="VT0(14):26"/>
				<v:ud v:nameU="msvThemeColors" v:val="VT0(36):26"/>
				<v:ud v:nameU="msvThemeEffects" v:val="VT0(16):26"/>
			</v:userDefs>
			<v:textBlock v:margins="rect(4,4,4,4)"/>
			<v:textRect cx="40.5" cy="599.631" width="81" height="24.7372"/>
			<g id="shadow20-115" v:groupContext="shadow" v:shadowOffsetX="1.44" v:shadowOffsetY="-1.44" v:shadowType="1"
					transform="matrix(1,0,0,1,1.44,1.44)" class="st1">
				<path d="M72 612 A9.00007 9.00007 -180 0 0 81 603 L81 596.26 A9.00007 9.00007 -180 0 0 72 587.26 L9 587.26 A9.00007
							 9.00007 -180 0 0 -0 596.26 L0 603 A9.00007 9.00007 -180 0 0 9 612 L72 612 Z" class="st2"/>
			</g>
			<path d="M72 612 A9.00007 9.00007 -180 0 0 81 603 L81 596.26 A9.00007 9.00007 -180 0 0 72 587.26 L9 587.26 A9.00007 9.00007
						 -180 0 0 -0 596.26 L0 603 A9.00007 9.00007 -180 0 0 9 612 L72 612 Z" class="st7"/>
			<text x="5.56" y="596.63" class="st6" v:langID="1033"><v:paragraph v:horizAlign="1"/><v:tabList/>AllJoyn Thin Core <tspan
						x="26.48" dy="1.2em" class="st14">Library</tspan></text>		</g>
		<g id="shape21-121" v:mID="21" v:groupContext="shape" transform="translate(208.688,-120.707)">
			<title>Sheet.21</title>
			<desc>Thin AJ Device 3</desc>
			<v:userDefs>
				<v:ud v:nameU="msvThemeColors" v:val="VT0(36):26"/>
				<v:ud v:nameU="msvThemeEffects" v:val="VT0(16):26"/>
			</v:userDefs>
			<v:textBlock v:margins="rect(4,4,4,4)"/>
			<v:textRect cx="54.9643" cy="605.25" width="109.93" height="13.5"/>
			<rect x="0" y="598.5" width="109.929" height="13.5" class="st11"/>
			<text x="14.7" y="608.85" class="st12" v:langID="1033"><v:paragraph v:horizAlign="1"/><v:tabList/>Thin AJ Device 3</text>		</g>
		<g id="shape22-124" v:mID="22" v:groupContext="shape" v:layerMember="0" transform="translate(348.027,-342.171)">
			<title>Dynamic connector</title>
			<v:userDefs>
				<v:ud v:nameU="visVersion" v:val="VT0(14):26"/>
				<v:ud v:nameU="msvThemeColors" v:val="VT0(36):26"/>
				<v:ud v:nameU="msvThemeEffects" v:val="VT0(16):26"/>
			</v:userDefs>
			<path d="M0 622.2 L0 622.56 L0 770.95 L-32.35 770.95" class="st15"/>
		</g>
		<g id="shape23-134" v:mID="23" v:groupContext="shape" transform="translate(457.473,-137.421)">
			<title>Rectangle.22</title>
			<v:userDefs>
				<v:ud v:nameU="visVersion" v:val="VT0(14):26"/>
				<v:ud v:nameU="msvThemeColors" v:val="VT0(36):26"/>
				<v:ud v:nameU="msvThemeEffects" v:val="VT0(16):26"/>
			</v:userDefs>
			<g id="shadow23-135" v:groupContext="shadow" v:shadowOffsetX="1.44" v:shadowOffsetY="-1.44" v:shadowType="1"
					transform="matrix(1,0,0,1,1.44,1.44)" class="st1">
				<rect x="0" y="496.286" width="139.5" height="115.714" class="st2"/>
			</g>
			<rect x="0" y="496.286" width="139.5" height="115.714" class="st3"/>
		</g>
		<g id="shape24-139" v:mID="24" v:groupContext="shape" transform="translate(475.473,-158.796)">
			<title>Rectangle.23</title>
			<v:userDefs>
				<v:ud v:nameU="visVersion" v:val="VT0(14):26"/>
				<v:ud v:nameU="msvThemeColors" v:val="VT0(36):26"/>
				<v:ud v:nameU="msvThemeEffects" v:val="VT0(16):26"/>
			</v:userDefs>
			<g id="shadow24-140" v:groupContext="shadow" v:shadowOffsetX="1.44" v:shadowOffsetY="-1.44" v:shadowType="1"
					transform="matrix(1,0,0,1,1.44,1.44)" class="st1">
				<rect x="0" y="531.161" width="99" height="80.8393" class="st2"/>
			</g>
			<rect x="0" y="531.161" width="99" height="80.8393" class="st4"/>
		</g>
		<g id="shape25-144" v:mID="25" v:groupContext="shape" transform="translate(484.473,-196.334)">
			<title>Rounded rectangle.24</title>
			<desc>Thin App</desc>
			<v:userDefs>
				<v:ud v:nameU="visVersion" v:val="VT0(14):26"/>
				<v:ud v:nameU="msvThemeColors" v:val="VT0(36):26"/>
				<v:ud v:nameU="msvThemeEffects" v:val="VT0(16):26"/>
			</v:userDefs>
			<v:textBlock v:margins="rect(4,4,4,4)"/>
			<v:textRect cx="40.5" cy="594.849" width="81" height="34.3013"/>
			<g id="shadow25-145" v:groupContext="shadow" v:shadowOffsetX="1.44" v:shadowOffsetY="-1.44" v:shadowType="1"
					transform="matrix(1,0,0,1,1.44,1.44)" class="st1">
				<path d="M72 612 A9.00007 9.00007 -180 0 0 81 603 L81 586.7 A9.00007 9.00007 -180 0 0 72 577.7 L9 577.7 A9.00007
							 9.00007 -180 0 0 -0 586.7 L0 603 A9.00007 9.00007 -180 0 0 9 612 L72 612 Z" class="st2"/>
			</g>
			<path d="M72 612 A9.00007 9.00007 -180 0 0 81 603 L81 586.7 A9.00007 9.00007 -180 0 0 72 577.7 L9 577.7 A9.00007 9.00007
						 -180 0 0 -0 586.7 L0 603 A9.00007 9.00007 -180 0 0 9 612 L72 612 Z" class="st5"/>
			<text x="18.76" y="598.45" class="st8" v:langID="1033"><v:paragraph v:horizAlign="1"/><v:tabList/>Thin App</text>		</g>
		<g id="shape26-150" v:mID="26" v:groupContext="shape" transform="translate(486.402,-170.85)">
			<title>Rounded rectangle.25</title>
			<desc>AllJoyn Thin Core Library</desc>
			<v:userDefs>
				<v:ud v:nameU="visVersion" v:val="VT0(14):26"/>
				<v:ud v:nameU="msvThemeColors" v:val="VT0(36):26"/>
				<v:ud v:nameU="msvThemeEffects" v:val="VT0(16):26"/>
			</v:userDefs>
			<v:textBlock v:margins="rect(4,4,4,4)"/>
			<v:textRect cx="40.5" cy="599.631" width="81" height="24.7372"/>
			<g id="shadow26-151" v:groupContext="shadow" v:shadowOffsetX="1.44" v:shadowOffsetY="-1.44" v:shadowType="1"
					transform="matrix(1,0,0,1,1.44,1.44)" class="st1">
				<path d="M72 612 A9.00007 9.00007 -180 0 0 81 603 L81 596.26 A9.00007 9.00007 -180 0 0 72 587.26 L9 587.26 A9.00007
							 9.00007 -180 0 0 -0 596.26 L0 603 A9.00007 9.00007 -180 0 0 9 612 L72 612 Z" class="st2"/>
			</g>
			<path d="M72 612 A9.00007 9.00007 -180 0 0 81 603 L81 596.26 A9.00007 9.00007 -180 0 0 72 587.26 L9 587.26 A9.00007 9.00007
						 -180 0 0 -0 596.26 L0 603 A9.00007 9.00007 -180 0 0 9 612 L72 612 Z" class="st7"/>
			<text x="5.56" y="596.63" class="st6" v:langID="1033"><v:paragraph v:horizAlign="1"/><v:tabList/>AllJoyn Thin Core <tspan
						x="26.48" dy="1.2em" class="st14">Library</tspan></text>		</g>
		<g id="shape27-157" v:mID="27" v:groupContext="shape" transform="translate(472.259,-116.85)">
			<title>Sheet.27</title>
			<desc>Thin AJ Device 4</desc>
			<v:userDefs>
				<v:ud v:nameU="msvThemeColors" v:val="VT0(36):26"/>
				<v:ud v:nameU="msvThemeEffects" v:val="VT0(16):26"/>
			</v:userDefs>
			<v:textBlock v:margins="rect(4,4,4,4)"/>
			<v:textRect cx="56.3304" cy="603.161" width="112.67" height="17.6786"/>
			<rect x="0" y="594.321" width="112.661" height="17.6786" class="st11"/>
			<text x="16.07" y="606.76" class="st12" v:langID="1033"><v:paragraph v:horizAlign="1"/><v:tabList/>Thin AJ Device 4</text>		</g>
		<g id="shape28-160" v:mID="28" v:groupContext="shape" v:layerMember="0" transform="translate(369.402,-342.171)">
			<title>Dynamic connector.27</title>
			<v:userDefs>
				<v:ud v:nameU="visVersion" v:val="VT0(14):26"/>
				<v:ud v:nameU="msvThemeColors" v:val="VT0(36):26"/>
				<v:ud v:nameU="msvThemeEffects" v:val="VT0(16):26"/>
			</v:userDefs>
			<path d="M0 622.2 L0 622.56 L0 770.95 L106.44 770.95" class="st15"/>
		</g>
		<g id="shape29-168" v:mID="29" v:groupContext="shape" v:layerMember="0" transform="translate(388.618,-370.492)">
			<title>Dynamic connector.29</title>
			<v:userDefs>
				<v:ud v:nameU="visVersion" v:val="VT0(14):26"/>
				<v:ud v:nameU="msvThemeColors" v:val="VT0(36):26"/>
				<v:ud v:nameU="msvThemeEffects" v:val="VT0(16):26"/>
			</v:userDefs>
			<path d="M10.2 620.82 L10.56 620.82 L90.35 621.18" class="st17"/>
		</g>
		<g id="shape30-178" v:mID="30" v:groupContext="shape" transform="translate(304.441,-285.921)">
			<title>Sheet.30</title>
			<desc>Thin App &#60;-&#62; AllJoyn Router Connection</desc>
			<v:userDefs>
				<v:ud v:nameU="msvThemeColors" v:val="VT0(36):26"/>
				<v:ud v:nameU="msvThemeEffects" v:val="VT0(16):26"/>
			</v:userDefs>
			<v:textBlock v:margins="rect(4,4,4,4)"/>
			<v:textRect cx="90" cy="605.25" width="180" height="13.5"/>
			<rect x="0" y="598.5" width="180" height="13.5" class="st11"/>
			<text x="9.41" y="608.25" class="st6" v:langID="1033"><v:paragraph v:horizAlign="1"/><v:tabList/>Thin App &#60;-&#62; AllJoyn Router Connection</text>		</g>
		<g id="shape31-181" v:mID="31" v:groupContext="shape" transform="translate(390.616,-372.707)">
			<title>Sheet.31</title>
			<desc>AllJoyn Distributed Bus</desc>
			<v:userDefs>
				<v:ud v:nameU="msvThemeColors" v:val="VT0(36):26"/>
				<v:ud v:nameU="msvThemeEffects" v:val="VT0(16):26"/>
			</v:userDefs>
			<v:textBlock v:margins="rect(4,4,4,4)"/>
			<v:textRect cx="47.2944" cy="605.822" width="94.59" height="12.3569"/>
			<rect x="0" y="599.643" width="94.5888" height="12.3569" class="st11"/>
			<text x="32.99" y="596.82" class="st6" v:langID="1033"><v:paragraph v:horizAlign="1"/><v:tabList/>AllJoyn <v:newlineChar/><tspan
						x="24.51" dy="1.2em" class="st14">Distributed <v:newlineChar/></tspan><tspan x="39.99" dy="1.2em"
						class="st14">Bus</tspan></text>		</g>
	</g>
</svg>
