<?xml version="1.0" encoding="UTF-8" standalone="no"?>
<!DOCTYPE svg PUBLIC "-//W3C//DTD SVG 1.0//EN" "http://www.w3.org/TR/2001/REC-SVG-20010904/DTD/svg10.dtd">
<!-- Generated by Microsoft Visio 11.0, SVG Export, v1.0 Drawing271.svg Page-1 -->
<svg xmlns="http://www.w3.org/2000/svg" xmlns:xlink="http://www.w3.org/1999/xlink" xmlns:ev="http://www.w3.org/2001/xml-events"
		xmlns:v="http://schemas.microsoft.com/visio/2003/SVGExtensions/" width="11in" height="8.5in" viewBox="0 0 792 612"
		xml:space="preserve" color-interpolation-filters="sRGB" class="st12">
	<v:documentProperties v:langID="1033" v:viewMarkup="false">
		<v:userDefs>
			<v:ud v:nameU="msvNoAutoConnect" v:val="VT0(0):26"/>
		</v:userDefs>
	</v:documentProperties>

	<style type="text/css">
	<![CDATA[
		.st1 {visibility:visible}
		.st2 {fill:#cdcdcd;fill-opacity:0.5;stroke:#cdcdcd;stroke-linecap:round;stroke-linejoin:round;stroke-opacity:0.5;stroke-width:0.25}
		.st3 {fill:url(#grad30-6);stroke:#404040;stroke-linecap:round;stroke-linejoin:round;stroke-width:0.25}
		.st4 {fill:url(#grad30-12);stroke:#404040;stroke-linecap:round;stroke-linejoin:round;stroke-width:0.25}
		.st5 {fill:none;stroke:none;stroke-linecap:round;stroke-linejoin:round;stroke-width:0.25}
		.st6 {fill:#000000;font-family:Calibri;font-size:1.16666em;font-weight:bold}
		.st7 {fill:url(#grad30-21);stroke:#404040;stroke-linecap:round;stroke-linejoin:round;stroke-width:0.25}
		.st8 {fill:#000000;font-family:Calibri;font-size:1.00001em}
		.st9 {font-size:1em}
		.st10 {fill:url(#grad30-44);stroke:#404040;stroke-linecap:round;stroke-linejoin:round;stroke-width:0.25}
		.st11 {fill:#000000;font-family:Calibri;font-size:1.00001em;font-weight:bold}
		.st12 {fill:none;fill-rule:evenodd;font-size:12px;overflow:visible;stroke-linecap:square;stroke-miterlimit:3}
	]]>
	</style>

	<defs id="Patterns_And_Gradients">
		<linearGradient id="grad30-6" v:fillPattern="30" v:foreground="#c9c9c9" v:background="#d8d8d8" x1="0" y1="1" x2="0" y2="0">
			<stop offset="0" style="stop-color:#c9c9c9;stop-opacity:1"/>
			<stop offset="1" style="stop-color:#d8d8d8;stop-opacity:1"/>
		</linearGradient>
		<linearGradient id="grad30-12" v:fillPattern="30" v:foreground="#e3e3e3" v:background="#f2f2f2" x1="0" y1="1" x2="0" y2="0">
			<stop offset="0" style="stop-color:#e3e3e3;stop-opacity:1"/>
			<stop offset="1" style="stop-color:#f2f2f2;stop-opacity:1"/>
		</linearGradient>
		<linearGradient id="grad30-21" v:fillPattern="30" v:foreground="#f0f0f0" v:background="#ffffff" x1="0" y1="1" x2="0" y2="0">
			<stop offset="0" style="stop-color:#f0f0f0;stop-opacity:1"/>
			<stop offset="1" style="stop-color:#ffffff;stop-opacity:1"/>
		</linearGradient>
		<linearGradient id="grad30-44" v:fillPattern="30" v:foreground="#f2c59f" v:background="#f6d5b9" x1="0" y1="1" x2="0" y2="0">
			<stop offset="0" style="stop-color:#f2c59f;stop-opacity:1"/>
			<stop offset="1" style="stop-color:#f6d5b9;stop-opacity:1"/>
		</linearGradient>
	</defs>
	<g v:mID="0" v:index="1" v:groupContext="foregroundPage">
		<v:userDefs>
			<v:ud v:nameU="msvThemeColors" v:val="VT0(36):26"/>
			<v:ud v:nameU="msvThemeEffects" v:val="VT0(16):26"/>
			<v:ud v:nameU="msvThemeOrder" v:val="VT0(0):26"/>
		</v:userDefs>
		<title>Page-1</title>
		<v:pageProperties v:drawingScale="1" v:pageScale="1" v:drawingUnits="0" v:shadowOffsetX="9" v:shadowOffsetY="-9"/>
		<g id="shape1-1" v:mID="1" v:groupContext="shape" transform="translate(265.5,-149.339)">
			<title>Rounded rectangle.32</title>
			<v:userDefs>
				<v:ud v:nameU="visVersion" v:val="VT0(14):26"/>
				<v:ud v:nameU="msvThemeColors" v:val="VT0(36):26"/>
				<v:ud v:nameU="msvThemeEffects" v:val="VT0(16):26"/>
			</v:userDefs>
			<g id="shadow1-2" v:groupContext="shadow" v:shadowOffsetX="1.44" v:shadowOffsetY="-1.44" v:shadowType="1"
					transform="matrix(1,0,0,1,1.44,1.44)" class="st1">
				<path d="M252 612 A9.00007 9.00007 -180 0 0 261 603 L261 328.5 A9.00007 9.00007 -180 0 0 252 319.5 L9 319.5 A9.00007
							 9.00007 -180 0 0 -0 328.5 L0 603 A9.00007 9.00007 -180 0 0 9 612 L252 612 Z" class="st2"/>
			</g>
			<path d="M252 612 A9.00007 9.00007 -180 0 0 261 603 L261 328.5 A9.00007 9.00007 -180 0 0 252 319.5 L9 319.5 A9.00007
						 9.00007 -180 0 0 -0 328.5 L0 603 A9.00007 9.00007 -180 0 0 9 612 L252 612 Z" class="st3"/>
		</g>
		<g id="shape2-7" v:mID="2" v:groupContext="shape" transform="translate(284.625,-176.339)">
			<title>Rectangle.28</title>
			<v:userDefs>
				<v:ud v:nameU="visVersion" v:val="VT0(14):26"/>
				<v:ud v:nameU="msvThemeColors" v:val="VT0(36):26"/>
				<v:ud v:nameU="msvThemeEffects" v:val="VT0(16):26"/>
			</v:userDefs>
			<g id="shadow2-8" v:groupContext="shadow" v:shadowOffsetX="1.44" v:shadowOffsetY="-1.44" v:shadowType="1"
					transform="matrix(1,0,0,1,1.44,1.44)" class="st1">
				<rect x="0" y="372.375" width="221.625" height="239.625" class="st2"/>
			</g>
			<rect x="0" y="372.375" width="221.625" height="239.625" class="st4"/>
		</g>
		<g id="shape3-13" v:mID="3" v:groupContext="shape" transform="translate(304.393,-446.661)">
			<title>Sheet.3</title>
			<desc>Thin AllJoyn Device</desc>
			<v:userDefs>
				<v:ud v:nameU="msvThemeColors" v:val="VT0(36):26"/>
				<v:ud v:nameU="msvThemeEffects" v:val="VT0(16):26"/>
			</v:userDefs>
			<v:textBlock v:margins="rect(4,4,4,4)"/>
			<v:textRect cx="87.6094" cy="604" width="175.22" height="16"/>
			<rect x="0" y="596" width="175.219" height="16" class="st5"/>
			<text x="31.49" y="608.2" class="st6" v:langID="1033"><v:paragraph v:horizAlign="1"/><v:tabList/>Thin AllJoyn Device</text>		</g>
		<g id="shape4-16" v:mID="4" v:groupContext="shape" transform="translate(298.125,-302.789)">
			<title>Rectangle.32</title>
			<v:userDefs>
				<v:ud v:nameU="visVersion" v:val="VT0(14):26"/>
				<v:ud v:nameU="msvThemeColors" v:val="VT0(36):26"/>
				<v:ud v:nameU="msvThemeEffects" v:val="VT0(16):26"/>
			</v:userDefs>
			<g id="shadow4-17" v:groupContext="shadow" v:shadowOffsetX="1.44" v:shadowOffsetY="-1.44" v:shadowType="1"
					transform="matrix(1,0,0,1,1.44,1.44)" class="st1">
				<rect x="0" y="524.25" width="196.875" height="87.75" class="st2"/>
			</g>
			<rect x="0" y="524.25" width="196.875" height="87.75" class="st7"/>
		</g>
		<g id="shape5-22" v:mID="5" v:groupContext="shape" transform="translate(339.75,-368.232)">
			<title>Sheet.5</title>
			<desc>App Code</desc>
			<v:userDefs>
				<v:ud v:nameU="msvThemeColors" v:val="VT0(36):26"/>
				<v:ud v:nameU="msvThemeEffects" v:val="VT0(16):26"/>
			</v:userDefs>
			<v:textBlock v:margins="rect(4,4,4,4)"/>
			<v:textRect cx="49.5" cy="599" width="99" height="26"/>
			<rect x="0" y="586" width="99" height="26" class="st5"/>
			<text x="25.87" y="602.6" class="st8" v:langID="1033"><v:paragraph v:horizAlign="1"/><v:tabList/>App Code</text>		</g>
		<g id="shape6-25" v:mID="6" v:groupContext="shape" transform="translate(398.893,-310.375)">
			<title>Rectangle.27</title>
			<desc>AllJoyn Service Frameworks</desc>
			<v:userDefs>
				<v:ud v:nameU="visVersion" v:val="VT0(14):26"/>
				<v:ud v:nameU="msvThemeColors" v:val="VT0(36):26"/>
				<v:ud v:nameU="msvThemeEffects" v:val="VT0(16):26"/>
			</v:userDefs>
			<v:textBlock v:margins="rect(4,4,4,4)"/>
			<v:textRect cx="45" cy="593.518" width="90" height="36.9643"/>
			<g id="shadow6-26" v:groupContext="shadow" v:shadowOffsetX="1.44" v:shadowOffsetY="-1.44" v:shadowType="1"
					transform="matrix(1,0,0,1,1.44,1.44)" class="st1">
				<rect x="0" y="575.036" width="90" height="36.9643" class="st2"/>
			</g>
			<rect x="0" y="575.036" width="90" height="36.9643" class="st7"/>
			<text x="9.03" y="589.92" class="st8" v:langID="1033"><v:paragraph v:horizAlign="1"/><v:tabList/>AllJoyn Service <tspan
						x="14.88" dy="1.2em" class="st9">Frameworks</tspan></text>		</g>
		<g id="shape7-32" v:mID="7" v:groupContext="shape" transform="translate(308.25,-311.661)">
			<title>Rectangle.20</title>
			<desc>App-Specific Services</desc>
			<v:userDefs>
				<v:ud v:nameU="visVersion" v:val="VT0(14):26"/>
				<v:ud v:nameU="msvThemeColors" v:val="VT0(36):26"/>
				<v:ud v:nameU="msvThemeEffects" v:val="VT0(16):26"/>
			</v:userDefs>
			<v:textBlock v:margins="rect(4,4,4,4)"/>
			<v:textRect cx="39.0536" cy="594" width="78.11" height="36"/>
			<g id="shadow7-33" v:groupContext="shadow" v:shadowOffsetX="1.44" v:shadowOffsetY="-1.44" v:shadowType="1"
					transform="matrix(1,0,0,1,1.44,1.44)" class="st1">
				<rect x="0" y="576" width="78.1071" height="36" class="st2"/>
			</g>
			<rect x="0" y="576" width="78.1071" height="36" class="st7"/>
			<text x="8.89" y="590.4" class="st8" v:langID="1033"><v:paragraph v:horizAlign="1"/><v:tabList/>App-Specific <tspan
						x="19.26" dy="1.2em" class="st9">Services</tspan></text>		</g>
		<g id="shape8-39" v:mID="8" v:groupContext="shape" transform="translate(297,-188.714)">
			<title>Rounded rectangle.5</title>
			<v:userDefs>
				<v:ud v:nameU="visVersion" v:val="VT0(14):26"/>
				<v:ud v:nameU="msvThemeColors" v:val="VT0(36):26"/>
				<v:ud v:nameU="msvThemeEffects" v:val="VT0(16):26"/>
			</v:userDefs>
			<g id="shadow8-40" v:groupContext="shadow" v:shadowOffsetX="1.44" v:shadowOffsetY="-1.44" v:shadowType="1"
					transform="matrix(1,0,0,1,1.44,1.44)" class="st1">
				<path d="M190.12 612 A9.00007 9.00007 -180 0 0 199.12 603 L199.12 508.29 A9.00007 9.00007 -180 0 0 190.12 499.29
							 L9 499.29 A9.00007 9.00007 -180 0 0 -0 508.29 L0 603 A9.00007 9.00007 -180 0 0 9 612 L190.12 612 Z"
						class="st2"/>
			</g>
			<path d="M190.12 612 A9.00007 9.00007 -180 0 0 199.12 603 L199.12 508.29 A9.00007 9.00007 -180 0 0 190.12 499.29 L9 499.29
						 A9.00007 9.00007 -180 0 0 -0 508.29 L0 603 A9.00007 9.00007 -180 0 0 9 612 L190.12 612 Z" class="st10"/>
		</g>
		<g id="shape9-45" v:mID="9" v:groupContext="shape" transform="translate(310.179,-259.589)">
			<title>Rectangle.9</title>
			<desc>About</desc>
			<v:userDefs>
				<v:ud v:nameU="visVersion" v:val="VT0(14):26"/>
				<v:ud v:nameU="msvThemeColors" v:val="VT0(36):26"/>
				<v:ud v:nameU="msvThemeEffects" v:val="VT0(16):26"/>
			</v:userDefs>
			<v:textBlock v:margins="rect(4,4,4,4)"/>
			<v:textRect cx="33.3482" cy="595.405" width="66.7" height="33.1905"/>
			<g id="shadow9-46" v:groupContext="shadow" v:shadowOffsetX="1.44" v:shadowOffsetY="-1.44" v:shadowType="1"
					transform="matrix(1,0,0,1,1.44,1.44)" class="st1">
				<rect x="0" y="578.81" width="66.6964" height="33.1905" class="st2"/>
			</g>
			<rect x="0" y="578.81" width="66.6964" height="33.1905" class="st7"/>
			<text x="18.4" y="599" class="st8" v:langID="1033"><v:paragraph v:horizAlign="1"/><v:tabList/>About</text>		</g>
		<g id="shape10-51" v:mID="10" v:groupContext="shape" transform="translate(387.321,-217.161)">
			<title>Rectangle.10</title>
			<desc>App Authentication</desc>
			<v:userDefs>
				<v:ud v:nameU="visVersion" v:val="VT0(14):26"/>
				<v:ud v:nameU="msvThemeColors" v:val="VT0(36):26"/>
				<v:ud v:nameU="msvThemeEffects" v:val="VT0(16):26"/>
			</v:userDefs>
			<v:textBlock v:margins="rect(4,4,4,4)"/>
			<v:textRect cx="48.7768" cy="595.446" width="97.56" height="33.1071"/>
			<g id="shadow10-52" v:groupContext="shadow" v:shadowOffsetX="1.44" v:shadowOffsetY="-1.44" v:shadowType="1"
					transform="matrix(1,0,0,1,1.44,1.44)" class="st1">
				<rect x="0" y="578.893" width="97.5536" height="33.1071" class="st2"/>
			</g>
			<rect x="0" y="578.893" width="97.5536" height="33.1071" class="st7"/>
			<text x="39" y="591.85" class="st8" v:langID="1033"><v:paragraph v:horizAlign="1"/><v:tabList/>App <tspan x="12.35"
						dy="1.2em" class="st9">Authentication</tspan></text>		</g>
		<g id="shape11-58" v:mID="11" v:groupContext="shape" transform="translate(386.679,-260.232)">
			<title>Rectangle.11</title>
			<desc>Bus Connection Manager</desc>
			<v:userDefs>
				<v:ud v:nameU="visVersion" v:val="VT0(14):26"/>
				<v:ud v:nameU="msvThemeColors" v:val="VT0(36):26"/>
				<v:ud v:nameU="msvThemeEffects" v:val="VT0(16):26"/>
			</v:userDefs>
			<v:textBlock v:margins="rect(4,4,4,4)"/>
			<v:textRect cx="48.6161" cy="595.446" width="97.24" height="33.1071"/>
			<g id="shadow11-59" v:groupContext="shadow" v:shadowOffsetX="1.44" v:shadowOffsetY="-1.44" v:shadowType="1"
					transform="matrix(1,0,0,1,1.44,1.44)" class="st1">
				<rect x="0" y="578.893" width="97.2321" height="33.1071" class="st2"/>
			</g>
			<rect x="0" y="578.893" width="97.2321" height="33.1071" class="st7"/>
			<text x="10.6" y="591.85" class="st8" v:langID="1033"><v:paragraph v:horizAlign="1"/><v:tabList/>Bus Connection <tspan
						x="26.68" dy="1.2em" class="st9">Manager</tspan></text>		</g>
		<g id="shape12-65" v:mID="12" v:groupContext="shape" transform="translate(438.107,-188.232)">
			<title>Sheet.12</title>
			<desc>AJTCL</desc>
			<v:userDefs>
				<v:ud v:nameU="msvThemeColors" v:val="VT0(36):26"/>
				<v:ud v:nameU="msvThemeEffects" v:val="VT0(16):26"/>
			</v:userDefs>
			<v:textBlock v:margins="rect(4,4,4,4)"/>
			<v:textRect cx="29.4911" cy="599" width="58.99" height="26"/>
			<rect x="0" y="586" width="58.9821" height="26" class="st5"/>
			<text x="15.19" y="602.6" class="st11" v:langID="1033"><v:paragraph v:horizAlign="1"/><v:tabList/>AJTCL</text>		</g>
		<g id="shape13-68" v:mID="13" v:groupContext="shape" transform="translate(310.821,-215.875)">
			<title>Rectangle.13</title>
			<desc>Messaging</desc>
			<v:userDefs>
				<v:ud v:nameU="visVersion" v:val="VT0(14):26"/>
				<v:ud v:nameU="msvThemeColors" v:val="VT0(36):26"/>
				<v:ud v:nameU="msvThemeEffects" v:val="VT0(16):26"/>
			</v:userDefs>
			<v:textBlock v:margins="rect(4,4,4,4)"/>
			<v:textRect cx="32.8661" cy="595.446" width="65.74" height="33.1071"/>
			<g id="shadow13-69" v:groupContext="shadow" v:shadowOffsetX="1.44" v:shadowOffsetY="-1.44" v:shadowType="1"
					transform="matrix(1,0,0,1,1.44,1.44)" class="st1">
				<rect x="0" y="578.893" width="65.7321" height="33.1071" class="st2"/>
			</g>
			<rect x="0" y="578.893" width="65.7321" height="33.1071" class="st7"/>
			<text x="8.36" y="599.05" class="st8" v:langID="1033"><v:paragraph v:horizAlign="1"/><v:tabList/>Messaging</text>		</g>
		<g id="shape14-74" v:mID="14" v:groupContext="shape" transform="translate(275.464,-394.589)">
			<title>Sheet.14</title>
			<desc>Thin App</desc>
			<v:userDefs>
				<v:ud v:nameU="msvThemeColors" v:val="VT0(36):26"/>
				<v:ud v:nameU="msvThemeEffects" v:val="VT0(16):26"/>
			</v:userDefs>
			<v:textBlock v:margins="rect(4,4,4,4)"/>
			<v:textRect cx="49.5" cy="599" width="99" height="26"/>
			<rect x="0" y="586" width="99" height="26" class="st5"/>
			<text x="27.18" y="602.6" class="st11" v:langID="1033"><v:paragraph v:horizAlign="1"/><v:tabList/>Thin App</text>		</g>
	</g>
</svg>
